<svg width="160" height="32" viewBox="0 0 160 32" fill="none" xmlns="http://www.w3.org/2000/svg"><path fill-rule="evenodd" clip-rule="evenodd" d="M13.3 3.82l12.15 12.94L38.36 3.4c1.33-1.44 3.06-2.23 5.24-2.29h16.96c8.25 0 15.01 6.75 15.01 15.01 0 8.25-6.75 15.01-15.01 15.01H35.6l10-9.99h14.93c2.76 0 5.01-2.26 5.01-5.01 0-2.76-2.26-5.01-5.01-5.01h-15.6L25.61 31.14 10.59 15.49V31.1h-10V8.89c-.02-.2-.03-.4-.03-.61 0-3.95 3.2-7.14 7.14-7.14 2.27 0 4.29 1.06 5.6 2.71v-.03z" fill="#093"/><path d="M107.86 7.31c0 3.79 2.74 6.75 6.75 6.75s6.75-2.96 6.75-6.75c0-3.7-2.74-6.59-6.75-6.59s-6.75 2.89-6.75 6.59zm3.27 0c0-2.11 1.44-3.7 3.48-3.7s3.48 1.59 3.48 3.7c0 2.2-1.44 3.86-3.48 3.86s-3.48-1.66-3.48-3.86zm12.24 6.53h3.16V7.83c0-.81-.14-2.2-.14-2.2h.04s.58 1.36 1.08 2.2l3.59 6.01h3.18V.94h-3.16v6.03c0 .81.14 2.2.14 2.2h-.04s-.58-1.35-1.08-2.2L126.57.94h-3.19v12.9h-.01zm13.61 0h9.54v-2.71h-6.38V8.69h5.14V5.98h-5.14V3.63h6.13V.92h-9.29v12.92zm15.06 0h3.16V8.55l4.26-7.62h-3.59l-1.44 3.1c-.41.88-.78 1.86-.78 1.86h-.04s-.36-.98-.78-1.86l-1.46-3.1h-3.59l4.26 7.62v5.29zm-46.79 17.21h3.16V26.7h1.91l2.29 4.35h3.52l-2.51-4.51c-.3-.54-.49-.78-.49-.78v-.04c1.28-.65 1.93-2.15 1.93-3.52 0-1.88-.92-3.19-2.38-3.75-.56-.21-1.19-.31-2.51-.31h-4.92v12.91zm3.16-7.06v-3.14h1.49c.52 0 .9.06 1.19.18.59.24.76.72.76 1.37 0 1.03-.63 1.59-1.64 1.59h-1.8zm8.3.52c0 3.79 2.74 6.75 6.75 6.75s6.75-2.96 6.75-6.75c0-3.7-2.74-6.59-6.75-6.59s-6.75 2.89-6.75 6.59zm3.27 0c0-2.11 1.44-3.7 3.48-3.7s3.48 1.59 3.48 3.7c0 2.2-1.44 3.86-3.48 3.86s-3.48-1.66-3.48-3.86zm12.24 6.53h3.16v-3.99h2.63c2.51 0 4.2-1.88 4.2-4.48 0-2.6-1.7-4.44-4.2-4.44h-5.79v12.91zm3.16-6.7v-3.5h2.04c1.05 0 1.59.7 1.59 1.73s-.54 1.77-1.64 1.77h-1.99z" fill="#000"/><path fill-rule="evenodd" clip-rule="evenodd" d="M97.16 21.1c1.92 0 3.47 1.56 3.47 3.47 0 1.92-1.55 3.47-3.47 3.47h-3.48v-6.95h3.48v.01zm-6.46-2.98v12.9h6.46c3.56 0 6.44-2.89 6.44-6.45a6.45 6.45 0 0 0-6.44-6.45H90.7zm0-17.13v12.84h2.97V6.81l2.95 7.01h3.96l2.95-7.01v7.02h2.97V.99h-3.92l-3.97 9.89L94.64.99H90.7z" fill="#000"/><path d="M153.66 31.18a5.03 5.03 0 1 0 0-10.06 5.03 5.03 0 0 0 0 10.06z" fill="#093"/></svg>