<svg width="31" height="31" viewBox="0 0 31 31" fill="none" xmlns="http://www.w3.org/2000/svg"><path d="M25.343 20.167l.176 1.275-.036.026-2.802-.026-1.616-.009-8.574 4.28-.043-.069-1.353-4.22-6.641-6.949.167-.12 3.426-2.532 3.382-6.441 1.089-2.093h.009l.008-.008 3.584 2.635 9.294 1.653.132.026h.009l-1.38 4.254 1.169 8.318z" fill="#50AF47"/><path d="M31 21.468l-5.464-.01-.053.044L14.152 31l-1.67-5.227-.052-.086L0 17.713l4.436-3.255.009.009L8.099 0l4.428 3.264v.017h.008l-.008.008h-.01l-1.089 2.093-3.382 6.441-3.425 2.532-.167.12 6.64 6.95 1.353 4.219.044.069 8.574-4.28 1.616.009 2.802.026.036-.026-.176-1.275-1.168-8.318 1.379-4.254h-.01l-.13-.026-9.295-1.653-3.584-2.635 14.714-.956-1.695 5.253L31 21.468z" fill="#fff"/></svg>