<svg width="261" height="50" viewBox="0 0 261 50" fill="none" xmlns="http://www.w3.org/2000/svg"><path fill-rule="evenodd" clip-rule="evenodd" d="M20.858 5.074L40.75 26.259 61.886 4.386c2.178-2.358 5.01-3.651 8.579-3.75h27.767c13.507 0 24.574 11.052 24.574 24.575 0 13.507-11.051 24.574-24.574 24.574H57.367L73.74 33.43h24.444c4.518 0 8.202-3.7 8.202-8.203 0-4.518-3.7-8.202-8.202-8.202h-25.54L41.011 49.802 16.422 24.18v25.556H.048V13.374A9.95 9.95 0 0 1 0 12.375C0 5.91 5.239.685 11.69.685c3.716 0 7.023 1.736 9.168 4.438v-.05z" fill="#093"/><path d="M175.671 10.79c0 6.204 4.486 11.05 11.051 11.05s11.051-4.846 11.051-11.05c0-6.058-4.486-10.79-11.051-10.79s-11.051 4.731-11.051 10.79zm5.354 0c0-3.455 2.357-6.058 5.697-6.058s5.698 2.603 5.698 6.057c0 3.602-2.358 6.32-5.698 6.32-3.34 0-5.697-2.718-5.697-6.32zm20.039 10.69h5.174v-9.84c0-1.326-.23-3.601-.23-3.601h.066s.95 2.226 1.768 3.601l5.878 9.84h5.206V.36h-5.174v9.873c0 1.326.23 3.601.23 3.601h-.066s-.949-2.21-1.768-3.601L206.303.36h-5.222v21.12h-.017zm22.282 0h15.619v-4.437H228.52V13.05h8.415V8.611h-8.415V4.764h10.036V.327h-15.21V21.48zm24.657 0h5.173v-8.66L260.151.343h-5.878l-2.358 5.075a51.32 51.32 0 0 0-1.277 3.045h-.065s-.589-1.604-1.277-3.045l-2.39-5.075h-5.878l6.975 12.475v8.661zm-76.605 28.176h5.174v-7.122h3.127l3.749 7.122h5.763l-4.11-7.384c-.491-.884-.802-1.277-.802-1.277v-.065c2.096-1.064 3.16-3.52 3.16-5.763 0-3.078-1.506-5.223-3.896-6.14-.917-.343-1.949-.507-4.11-.507h-8.055v21.136zm5.174-11.558v-5.141h2.439c.851 0 1.474.098 1.948.294.966.393 1.245 1.18 1.245 2.243 0 1.687-1.032 2.604-2.685 2.604h-2.947zm13.588.85c0 6.206 4.486 11.052 11.051 11.052 6.566 0 11.052-4.846 11.052-11.051 0-6.058-4.486-10.79-11.052-10.79-6.565 0-11.051 4.732-11.051 10.79zm5.354 0c0-3.454 2.358-6.057 5.697-6.057 3.34 0 5.698 2.603 5.698 6.058 0 3.602-2.358 6.32-5.698 6.32-3.339 0-5.697-2.718-5.697-6.32zm20.039 10.692h5.174v-6.533h4.306c4.109 0 6.876-3.078 6.876-7.334 0-4.257-2.783-7.27-6.876-7.27h-9.48V49.64zm5.174-10.97v-5.73h3.34c1.719 0 2.603 1.146 2.603 2.833 0 1.686-.884 2.898-2.685 2.898h-3.258z" fill="#000"/><path fill-rule="evenodd" clip-rule="evenodd" d="M158.154 33.367a5.684 5.684 0 0 1 5.681 5.681 5.674 5.674 0 0 1-5.681 5.681h-5.698V33.351h5.698v.016zm-10.576-4.879v21.12h10.576c5.828 0 10.544-4.731 10.544-10.56 0-5.828-4.716-10.543-10.544-10.56h-10.576zm0-28.047v21.022h4.862V9.97l4.83 11.477h6.483l4.83-11.477v11.493h4.862V.441h-6.417l-6.5 16.192-6.5-16.192h-6.45z" fill="#000"/><path d="M250.654 49.869a8.235 8.235 0 1 0 0-16.47 8.235 8.235 0 0 0 0 16.47z" fill="#093"/></svg>