<svg width="80" height="80" viewBox="0 0 80 80" fill="none" xmlns="http://www.w3.org/2000/svg"><g opacity=".2" fill="#fff"><path d="M.042 66.487v13.259H7.15c3.925 0 7.086-2.97 7.086-6.64 0-3.67-3.182-6.64-7.086-6.64H.042v.02zm20.027 6.046v-3.225h1.655c.573 0 .997.064 1.315.191.658.255.827.743.827 1.421 0 1.061-.7 1.634-1.803 1.634H20.09l-.021-.021zm-3.48 7.255h3.48v-4.476h2.1l2.525 4.476h3.882l-2.758-4.646c-.34-.551-.53-.806-.53-.806v-.042c1.4-.68 2.12-2.207 2.12-3.628 0-1.93-1.018-3.288-2.63-3.861-.615-.212-1.315-.318-2.757-.318h-5.41v13.28l-.021.021zm16.76-6.725c0-2.164 1.591-3.797 3.84-3.797 2.248 0 3.84 1.633 3.84 3.797 0 2.27-1.592 3.967-3.84 3.967-2.249 0-3.84-1.718-3.84-3.967zm-3.585 0c0 3.903 3.012 6.937 7.425 6.937s7.425-3.055 7.425-6.937c0-3.797-3.012-6.767-7.425-6.767s-7.425 2.97-7.425 6.767zm21.087-.17v-3.606H53.1c1.146 0 1.74.721 1.74 1.782 0 1.06-.594 1.824-1.804 1.824h-2.185zm-3.48 6.895h3.48v-4.094h2.885c2.758 0 4.625-1.931 4.625-4.604s-1.867-4.561-4.625-4.561h-6.364v13.28-.021zm24.122-18.626h3.48V55.71l4.687-7.871h-3.945l-1.591 3.203c-.446.912-.849 1.91-.849 1.91h-.042s-.404-.998-.849-1.91l-1.612-3.203h-3.946l4.688 7.87v5.453h-.021zm-17.438 0h10.5v-2.8h-7.021v-2.525h5.643v-2.8h-5.643v-2.42h6.746v-2.8H54.054v13.345zm-16.039 0h3.48v-6.195c0-.848-.17-2.27-.17-2.27h.042s.637 1.4 1.188 2.27l3.946 6.195h3.5V47.839h-3.479v6.216c0 .827.17 2.27.17 2.27h-.042s-.637-1.4-1.188-2.27l-3.925-6.216h-3.522v13.323zm-14.383-6.746c0-2.186 1.591-3.819 3.84-3.819 2.248 0 3.84 1.634 3.84 3.819 0 2.27-1.592 3.988-3.84 3.988-2.249 0-3.84-1.718-3.84-3.988zm-3.585 0c0 3.903 3.012 6.958 7.425 6.958 4.412 0 7.425-3.055 7.425-6.958 0-3.819-3.013-6.789-7.425-6.789-4.413 0-7.425 2.97-7.425 6.789zM.064 47.88v13.26H3.33v-7.235l3.245 7.235h4.35l3.245-7.235v7.235h3.267V47.88H13.11L8.74 58.086 4.37 47.88H.042h.022zm7.107 21.66c2.1 0 3.818 1.592 3.818 3.565 0 1.973-1.718 3.564-3.818 3.564H3.33v-7.15h3.84v.022zm65.807 10.164a6.598 6.598 0 1 0 0-13.196 6.598 6.598 0 0 0 0 13.196z"/><path fill-rule="evenodd" clip-rule="evenodd" d="M13.514 2.928l13.025 13.004 13.556-13.45C41.517.955 43.341.106 45.653.042h17.99c8.762 0 15.911 7.171 15.911 15.911 0 8.762-7.17 15.911-15.91 15.911H37.167l10.607-10.607H63.6c2.927 0 5.325-2.397 5.325-5.325 0-2.928-2.398-5.325-5.325-5.325H47.732L26.56 31.843 10.628 15.868V31.8H.021V8.231C0 8.02 0 7.807 0 7.573a7.578 7.578 0 0 1 13.514-4.709v.064z"/></g></svg>