<?xml version="1.0" encoding="UTF-8"?>
<svg width="100px" height="100px" viewBox="0 0 100 100" version="1.1" xmlns="http://www.w3.org/2000/svg" xmlns:xlink="http://www.w3.org/1999/xlink">
    <title>subspace</title>
    <g id="Page-1" stroke="none" stroke-width="1" fill="none" fill-rule="evenodd">
        <g id="subspace" fill="#FFFFFF" fill-rule="nonzero">
            <path d="M69.0641167,36.3812634 L44.0873584,36.3812634 C42.9759695,36.3812634 42.0605014,36.8407249 41.4067294,37.6937443 C40.7529574,38.5469967 40.4259544,39.5315903 40.4259544,40.7129629 C40.4259544,41.8286649 40.7529574,42.8132585 41.3414225,43.6008402 C41.9951944,44.3884219 42.8451214,44.7822128 44.0220514,44.7822128 L58.7334426,44.7822128 C62.7218496,44.7822128 65.8603297,46.2917056 68.1488827,49.2452536 C70.2410467,51.936119 71.2871287,55.2177872 71.2871287,59.1556958 C71.2871287,63.0936045 70.2410467,66.3752727 68.1488827,69.066371 C65.8603297,72.0196861 62.7218496,73.5294118 58.7334426,73.5294118 L31.9912893,73.5294118 L31.9912893,63.4873954 L57.0335886,63.4873954 C58.0796706,63.4873954 58.9295976,63.0281668 59.5833696,62.1749144 C60.2373756,61.321662 60.4988376,60.2713978 60.4988376,59.0900252 C60.4988376,57.9086526 60.1718346,56.9242919 59.5833696,56.1367102 C58.9949046,55.3491284 58.1449776,54.9553376 57.0335886,54.9553376 L42.3219634,54.9553376 C38.3335564,54.9553376 35.1953104,53.5112825 32.8414503,50.5579674 C30.7490523,47.9325397 29.7029703,44.6508716 29.7029703,40.7129629 C29.7029703,36.8407249 30.7490523,33.6247273 32.8414503,30.933629 C35.1953104,27.9803139 38.3335564,26.4705882 42.3219634,26.4705882 L68.9988097,26.4705882 L68.9988097,36.3812634 L69.0641167,36.3812634 Z" id="Path"></path>
            <path d="M93.2689987,25.6329219 L91.0831595,26.7580798 C90.7521298,26.9567614 90.6195757,27.3538897 90.8182883,27.6847909 C95.3886794,35.9584939 97.4419645,45.6882559 96.1171344,56.013593 C93.4677114,76.8631837 76.9747981,93.4103548 56.1102063,96.0580337 C25.4427731,100.029317 -0.455876482,73.8186112 4.04822567,43.040577 C6.96263843,23.0516111 22.7269545,7.23244597 42.6641414,4.12157592 C50.0826682,2.99634761 57.2363238,3.59206362 63.7274458,5.64390909 C63.6612873,5.97485721 63.6612873,6.2396251 63.6612873,6.57054973 C63.6612873,10.2109556 67.1717194,13.0570812 70.9472599,11.9318764 C72.6695153,11.4023641 74.0602667,10.0123914 74.5902462,8.29147056 C75.7163636,4.45252404 72.8682279,1.01068942 69.2250045,1.01068942 C67.7678574,1.01068942 66.4432644,1.60639134 65.3833055,2.53303903 C58.3622041,0.150233466 50.546252,-0.644034742 42.4654287,0.547366748 C20.8060813,3.7906278 3.71703,20.9335619 0.53767494,42.5774563 C-4.29761102,76.0026998 24.1841016,104.397729 57.6337491,99.4337421 C79.1606373,96.2564805 96.2496885,79.1797266 99.429091,57.6683336 C101.151109,46.0853842 98.8991116,35.0317828 93.7325825,25.8316035 C93.666424,25.6329219 93.4677114,25.5666947 93.2689987,25.6329219 Z" id="Path"></path>
        </g>
    </g>
</svg>