<svg xmlns="http://www.w3.org/2000/svg" viewBox="0 0 14 14"><path d="M13.03.967A3.332 3.332 0 008.363.94L6.269 3.034 7.45 4.215 9.444 2.22l.072-.073a1.653 1.653 0 012.332.001c.643.643.643 1.69 0 2.333l-2.88 2.88a1.645 1.645 0 01-2.267.061l-.221-.199-1.178 1.178.237.221c.616.575 1.42.892 2.264.892.887 0 1.72-.345 2.347-.972l2.88-2.88a3.326 3.326 0 000-4.695z"/><path d="M4.484 11.848a1.65 1.65 0 01-2.332 0 1.652 1.652 0 010-2.333l2.88-2.88a1.637 1.637 0 011.166-.482c.409 0 .8.15 1.102.422l.22.198 1.178-1.178-.237-.222a3.307 3.307 0 00-2.264-.891c-.887 0-1.721.345-2.347.971L.97 8.333a3.324 3.324 0 000 4.695c.627.627 1.46.972 2.348.972s1.721-.345 2.347-.971l2.067-2.068L6.55 9.78l-2.066 2.068z"/></svg>