<svg xmlns="http://www.w3.org/2000/svg" viewBox="0 0 210 70"><path fill="#E30613" d="M210 70H0V0h210v70z"/><path fill="#FFF" d="M197.608 27.554h1.59c.791 0 .874.405.874.75 0 .158.02.793.113 1.052h.802v-.094c-.201-.101-.233-.188-.24-.418l-.04-.763c-.028-.586-.306-.689-.579-.79.301-.159.666-.386.666-1.012 0-.893-.799-1.134-1.595-1.134h-2.243v4.211h.652v-1.802zm0-1.922h1.635c.327 0 .874.054.874.706 0 .622-.508.728-.987.728h-1.522v-1.434zm-49.031 5.599h-9.401l-2.777 7.76h9.402l2.776-7.76zm46.7 31.036l7.552-20.739h-20.344c-6.319.149-8.476 7.163-8.476 7.163l-5.086 13.576h-10.79l5.085-14.174h6.167l2.311-7.013h-5.701l3.697-9.85h-9.708l-4.161 10.15h-6.012l-2.465 6.861h6.319l-5.396 14.173h-10.787l7.553-21.034h-9.403l-8.322 21.111-8.323.075-2.005-7.758 13.563-13.28h-11.251l-10.789 10.296 7.243-20.594h-9.401L94.478 62.415h-7.704l7.399-20.887H73.364c-5.403 0-7.705 5.82-7.705 5.82l-6.013 14.919h-7.704l7.552-20.739H43.002l1.85-5.222H28.513l1.696-5.076H0v8.654h17.262L5.868 70h9.863l9.7-25.34h6.474L22.821 70h9.863l7.698-20.564h7.09L39.466 70H52.75a513.27 513.27 0 006.667-4.821s.913 3.672 3.868 4.821h6.969c.153-.188 1.131-1.09 5.884-4.97 0 0 .232 3.456 3.48 4.97h8.415c.19-.217 1.493-1.653 5.522-4.934L91.639 70h9.94l5.537-14.448L111.579 70h10.206l5.06-4.897c.787 4.062 3.687 4.775 4.535 4.897h11.215l5.21-4.749c.427 3.169 3.867 4.555 4.394 4.749h11.202l5.059-4.897c.616 4.177 4.93 4.895 4.93 4.895h6.783l4.779-4.895c.768 4.177 5.391 4.895 5.391 4.895H210v-7.731h-14.723zm-118.829.3h-6.627l5.239-13.131h6.627l-5.239 13.131zm108.505 0h-6.628l5.241-13.131h6.628l-5.241 13.131zm13.885-31.391c1.049 0 2.033-.41 2.781-1.153a3.913 3.913 0 001.151-2.781 3.91 3.91 0 00-1.151-2.779 3.914 3.914 0 00-2.781-1.152 3.937 3.937 0 00-3.934 3.931c0 1.05.411 2.039 1.153 2.781a3.909 3.909 0 002.781 1.153zm-2.507-6.441a3.517 3.517 0 012.508-1.037 3.535 3.535 0 013.544 3.543 3.549 3.549 0 01-3.544 3.547 3.527 3.527 0 01-2.508-1.039 3.519 3.519 0 01-1.04-2.507c0-.947.369-1.837 1.04-2.507z"/></svg>