<svg xmlns="http://www.w3.org/2000/svg" viewBox="0 0 14 8"><path d="M11.63 3.923s1.845-2.539 2.028-3.374c.061-.298-.073-.465-.391-.465h-1.6c-.367 0-.501.155-.611.382 0 0-.865 1.799-1.918 2.933-.338.365-.51.476-.696.476-.15 0-.22-.122-.22-.453V.525C8.222.119 8.173 0 7.831 0H5.265c-.195 0-.317.111-.317.262 0 .382.599.468.599 1.502v2.134c0 .429-.024.596-.232.596-.55 0-1.857-1.848-2.59-3.946C2.578.119 2.419 0 2.003 0h-1.6C.171 0 0 .155 0 .381 0 .799.501 2.73 2.468 5.317 3.787 7.058 5.522 8 7.086 8c.952 0 1.184-.155 1.184-.548V6.116c0-.334.134-.477.33-.477.22 0 .608.069 1.515.942C11.19 7.583 11.264 8 11.85 8h1.796c.183 0 .354-.083.354-.382 0-.393-.525-1.097-1.332-1.931-.33-.429-.867-.894-1.038-1.109-.244-.25-.171-.393 0-.655z"/></svg>