<svg xmlns="http://www.w3.org/2000/svg" viewBox="200 392 14 10"><path d="M214 393.184a6.6 6.6 0 01-1.654.398c.595-.312 1.049-.803 1.263-1.395a6.24 6.24 0 01-1.82.611c-.527-.493-1.278-.798-2.097-.798-1.589 0-2.868 1.134-2.868 2.524 0 .2.019.392.066.575-2.386-.102-4.497-1.108-5.916-2.639-.248.378-.393.81-.393 1.275 0 .874.512 1.648 1.275 2.097a3.139 3.139 0 01-1.297-.311v.028c0 1.226.995 2.245 2.299 2.479a3.248 3.248 0 01-.753.083c-.184 0-.369-.009-.543-.043.372.999 1.427 1.734 2.682 1.758-.977.672-2.216 1.076-3.559 1.076-.235 0-.461-.009-.687-.035 1.271.721 2.778 1.132 4.403 1.132 5.281 0 8.169-3.846 8.169-7.18a4.95 4.95 0 00-.011-.326 5.355 5.355 0 001.441-1.309z"/></svg>