<svg width="100" height="100" viewBox="0 0 100 100" fill="none" xmlns="http://www.w3.org/2000/svg">
<circle cx="50" cy="50" r="50" fill="#F4F4F4"/>
<path d="M49.5002 32.2925C59.3955 32.2925 67.4168 40.3138 67.4168 50.2091C67.4168 60.1045 59.3955 68.1258 49.5002 68.1258C39.6048 68.1258 31.5835 60.1045 31.5835 50.2091C31.5835 40.3138 39.6048 32.2925 49.5002 32.2925ZM53.0835 52.7175L50.2813 54.9589C50.183 55.0376 50.1023 55.1362 50.0447 55.2482C49.987 55.3602 49.9536 55.4831 49.9467 55.6089C49.9397 55.7347 49.9594 55.8606 50.0044 55.9783C50.0494 56.0959 50.1188 56.2028 50.2079 56.2919L52.4277 58.5117C52.8576 58.9421 53.1708 59.4748 53.3379 60.0597L53.6515 61.158C53.7815 61.6188 54.0124 62.0449 54.3276 62.4053C54.6428 62.7657 55.0342 63.0514 55.4736 63.2417C57.1879 62.4551 58.7302 61.3379 60.0119 59.954L59.5926 56.5911C59.5193 56.006 59.3026 55.448 58.962 54.9667C58.6213 54.4854 58.1671 54.0956 57.6397 53.8319L55.006 52.5132C54.6995 52.3599 54.3556 52.2976 54.0148 52.3338C53.6741 52.37 53.3509 52.5032 53.0835 52.7175ZM49.5002 35.8758C47.3073 35.8744 45.1435 36.3767 43.1755 37.344C41.2076 38.3114 39.4882 39.7179 38.15 41.4551L37.8543 41.851V44.87C37.8541 45.9638 38.1876 47.0316 38.8103 47.9309C39.433 48.8302 40.3152 49.5181 41.3391 49.9028L41.658 50.0103L43.9693 50.718C46.4292 51.4705 48.8247 49.4692 48.5864 46.9626L48.5524 46.7029L48.2388 44.8234C48.1695 44.4071 48.2494 43.9796 48.4645 43.6165C48.6795 43.2533 49.0158 42.9777 49.4142 42.8382L49.6077 42.7845L50.7042 42.5336C51.3263 42.3914 51.9136 42.1261 52.4315 41.7532C52.9494 41.3803 53.3874 40.9074 53.7195 40.3625C54.0517 39.8176 54.2714 39.2116 54.3655 38.5804C54.4597 37.9492 54.4264 37.3056 54.2678 36.6874C52.736 36.1488 51.1239 35.8744 49.5002 35.8758Z" fill="black"/>
</svg>
