<svg width="100" height="100" viewBox="0 0 100 100" fill="none" xmlns="http://www.w3.org/2000/svg">
<circle cx="50" cy="50" r="50" fill="#F4F4F4"/>
<path d="M57.5268 47.36C56.8281 48.0588 55.6635 48.0588 54.9648 47.36L46.956 39.3692L34.3247 51.9825L33.1422 50.8538C32.1357 49.846 31.5703 48.4798 31.5703 47.0554C31.5703 45.6311 32.1357 44.2649 33.1422 43.2571L40.7389 35.6604C41.7467 34.6539 43.1129 34.0885 44.5372 34.0885C45.9616 34.0885 47.3278 34.6539 48.3356 35.6604L57.5268 44.8338C58.2256 45.5325 58.2256 46.6613 57.5268 47.36ZM58.781 43.5617C60.1785 44.9592 60.1785 47.2346 58.781 48.6321C56.5056 50.9075 54.1047 49.0263 53.7106 48.6321L46.9739 41.8954L36.9943 51.875C36.8282 52.0408 36.6965 52.2377 36.6066 52.4544C36.5166 52.6711 36.4704 52.9035 36.4704 53.1381C36.4704 53.3728 36.5166 53.6051 36.6066 53.8219C36.6965 54.0386 36.8282 54.2355 36.9943 54.4013C37.6931 55.1 38.8218 55.1 39.5385 54.4013L47.816 46.1238L49.0881 47.3959L40.8106 55.6734C40.6445 55.8391 40.5127 56.036 40.4228 56.2527C40.3329 56.4695 40.2866 56.7018 40.2866 56.9365C40.2866 57.1711 40.3329 57.4035 40.4228 57.6202C40.5127 57.837 40.6445 58.0339 40.8106 58.1996C41.5093 58.8984 42.6381 58.8984 43.3547 58.1996L51.6322 49.9221L52.9043 51.1942L44.6268 59.4717C44.461 59.6376 44.3294 59.8345 44.2396 60.0512C44.1498 60.2679 44.1036 60.5002 44.1036 60.7348C44.1036 60.9694 44.1498 61.2017 44.2396 61.4184C44.3294 61.6351 44.461 61.8321 44.6268 61.9979C44.7927 62.1638 44.9896 62.2954 45.2064 62.3852C45.4231 62.4749 45.6554 62.5211 45.89 62.5211C46.1245 62.5211 46.3568 62.4749 46.5736 62.3852C46.7903 62.2954 46.9872 62.1638 47.1531 61.9979L55.4306 53.7204L56.7027 54.9925L48.4252 63.27C48.2593 63.4359 48.1277 63.6328 48.0379 63.8495C47.9482 64.0663 47.902 64.2986 47.902 64.5331C47.902 64.7677 47.9482 65 48.0379 65.2167C48.1277 65.4335 48.2593 65.6304 48.4252 65.7963C48.7602 66.1313 49.2145 66.3195 49.6883 66.3195C49.9229 66.3195 50.1552 66.2733 50.3719 66.1835C50.5886 66.0937 50.7855 65.9621 50.9514 65.7963L65.8581 50.8538C66.8646 49.846 67.43 48.4798 67.43 47.0554C67.43 45.6311 66.8646 44.2649 65.8581 43.2571L58.2614 35.6604C57.2724 34.6718 55.9369 34.1075 54.5386 34.0875C53.1403 34.0674 51.7893 34.5931 50.7722 35.5529L58.781 43.5617Z" fill="black"/>
</svg>
