<svg width="100" height="100" viewBox="0 0 100 100" fill="none" xmlns="http://www.w3.org/2000/svg">
<circle cx="50" cy="50" r="50" fill="#F4F4F4"/>
<path d="M49.5 30.5005L64.2221 33.7721C64.62 33.8605 64.9758 34.082 65.2309 34.3999C65.4859 34.7178 65.6249 35.1132 65.625 35.5207V53.4141C65.6249 55.1838 65.1878 56.9261 64.3527 58.4863C63.5176 60.0466 62.3102 61.3765 60.8377 62.3581L49.5 69.9171L38.1623 62.3581C36.6901 61.3767 35.4828 60.047 34.6477 58.4871C33.8126 56.9272 33.3754 55.1853 33.375 53.4159V35.5207C33.3751 35.1132 33.5141 34.7178 33.7691 34.3999C34.0242 34.082 34.38 33.8605 34.7779 33.7721L49.5 30.5005ZM57.4765 43.4399L48.6077 52.3069L43.5409 47.24L41.0075 49.7734L48.6095 57.3755L60.0117 45.9733L57.4765 43.4399Z" fill="#0D1A32"/>
</svg>
