<svg width="100" height="100" viewBox="0 0 100 100" fill="none" xmlns="http://www.w3.org/2000/svg">
<circle cx="50" cy="50" r="50" fill="#F4F4F4"/>
<path d="M41.0632 66.0188L31.5835 68.1258L33.6905 58.6461C32.3032 56.0506 31.5794 53.1522 31.5835 50.2092C31.5835 40.3138 39.6048 32.2925 49.5002 32.2925C59.3956 32.2925 67.4169 40.3138 67.4169 50.2092C67.4169 60.1045 59.3956 68.1258 49.5002 68.1258C46.5571 68.13 43.6588 67.4061 41.0632 66.0188ZM40.5418 50.2092C40.5418 52.5851 41.4857 54.8636 43.1657 56.5437C44.8457 58.2237 47.1243 59.1675 49.5002 59.1675C51.8761 59.1675 54.1547 58.2237 55.8347 56.5437C57.5147 54.8636 58.4585 52.5851 58.4585 50.2092H54.8752C54.8752 51.6347 54.3089 53.0018 53.3009 54.0099C52.2929 55.0179 50.9257 55.5842 49.5002 55.5842C48.0746 55.5842 46.7075 55.0179 45.6995 54.0099C44.6915 53.0018 44.1252 51.6347 44.1252 50.2092H40.5418Z" fill="#0D1A32"/>
</svg>
