<svg width="21" height="19" fill="none" xmlns="http://www.w3.org/2000/svg"><path fill-rule="evenodd" clip-rule="evenodd" d="M1.193 8.481c4.656-2.028 7.761-3.366 9.315-4.012 4.436-1.845 5.358-2.166 5.959-2.176.132-.003.427.03.618.185a.673.673 0 0 1 .228.433c.021.124.048.407.027.629-.24 2.526-1.281 8.655-1.81 11.484-.224 1.197-.665 1.598-1.092 1.638-.928.085-1.632-.613-2.53-1.202-1.406-.922-2.2-1.496-3.565-2.395-1.577-1.04-.555-1.61.344-2.544.235-.244 4.322-3.962 4.401-4.299.01-.042.02-.2-.074-.282-.093-.083-.231-.055-.33-.032-.142.032-2.388 1.516-6.738 4.453-.638.438-1.215.651-1.733.64-.57-.012-1.667-.323-2.483-.588-1-.325-1.795-.497-1.726-1.05.036-.287.432-.58 1.189-.882Z" fill="#fff"/></svg>