<svg width="50" height="50" fill="none" xmlns="http://www.w3.org/2000/svg"><circle cx="25" cy="25" r="25" fill="#0D1A32"/><path fill-rule="evenodd" clip-rule="evenodd" d="M23.447 7.245c-2.405.278-4.014.692-5.923 1.525-1.937.844-3.945 2.23-5.522 3.811a18.412 18.412 0 0 0-4.814 8.498c-.42 1.692-.512 2.496-.512 4.482 0 1.987.091 2.79.512 4.482a17.859 17.859 0 0 0 2.442 5.56c.828 1.246 1.412 1.967 2.377 2.933 2.814 2.822 6.337 4.6 10.331 5.213 1.213.186 4.01.186 5.222 0 2.704-.415 5.243-1.385 7.405-2.83 1.243-.83 1.963-1.416 2.927-2.383 2.4-2.405 4.027-5.287 4.83-8.55.258-1.05.468-2.323.468-2.834 0-.16.032-.311.072-.336.043-.027.071-.552.071-1.335 0-.842-.025-1.275-.071-1.246-.044.026-.072-.074-.072-.256 0-.481-.203-1.752-.435-2.72-1.424-5.954-5.774-10.838-11.547-12.964-.928-.342-2.557-.755-3.612-.916-.713-.11-3.567-.201-4.149-.134ZM6.667 25.561c0 .73.01 1.028.023.664.013-.365.013-.962 0-1.327s-.024-.066-.024.663Z" fill="#fff"/><path fill-rule="evenodd" clip-rule="evenodd" d="M23.353 6.135c-2.55.295-4.258.735-6.282 1.617-2.054.896-4.184 2.366-5.857 4.043a19.528 19.528 0 0 0-5.105 9.013c-.446 1.794-.544 2.647-.544 4.754 0 2.106.098 2.959.544 4.753a18.94 18.94 0 0 0 2.59 5.896c.878 1.322 1.498 2.087 2.52 3.112 2.986 2.993 6.722 4.878 10.958 5.529 1.287.197 4.252.197 5.539 0 2.867-.44 5.56-1.47 7.853-3.001 1.319-.881 2.082-1.502 3.104-2.528 2.545-2.55 4.272-5.608 5.122-9.068.274-1.114.498-2.464.498-3.006 0-.17.034-.33.076-.356.046-.029.076-.586.076-1.416 0-.894-.027-1.353-.076-1.323-.046.029-.076-.078-.076-.27 0-.51-.216-1.859-.461-2.886-1.511-6.315-6.125-11.494-12.247-13.749-.984-.362-2.713-.801-3.831-.972-.757-.116-3.783-.213-4.4-.142Zm-.227 4.526a15.087 15.087 0 0 0-8.902 4.44l-.67.684.185.153c.103.085.493.417.867.739l.681.584.562-.572c1.092-1.112 2.077-1.832 3.445-2.52 3.967-1.996 8.778-1.748 12.48.643l.57.368-.683.075-.683.077.022.304c.043.583.176 1.897.195 1.916.01.01 1.11-.083 2.442-.206 1.333-.124 2.45-.225 2.481-.226.07-.001.075-3.097.008-4.21l-.05-.81h-2.177v.684c0 .376-.016.684-.035.684-.019 0-.318-.19-.664-.424-.85-.572-2.574-1.412-3.56-1.734a16.533 16.533 0 0 0-2.947-.652c-.74-.092-2.843-.09-3.567.003Zm6.82 9.862c-.207.54-3.558 10.174-3.558 10.229 0 .034.413.053.917.041l.917-.021 1.766-5.058c.971-2.782 1.79-5.135 1.82-5.23.053-.17.052-.17-.865-.17h-.917l-.08.209ZM13.52 21.898c-.255.075-.63.234-.835.352-.389.224-1.094.909-1.09 1.058.001.047.351.28.778.517l.775.432.266-.257c.327-.317.733-.492 1.138-.492.919 0 1.305.7.823 1.496-.08.133-.879.932-1.774 1.775l-1.629 1.534v1.356h6.069v-1.674h-1.479c-.814 0-1.48-.02-1.48-.046 0-.025.509-.547 1.13-1.16 1.364-1.345 1.55-1.658 1.557-2.635.006-.754-.176-1.174-.723-1.667-.567-.51-1.056-.67-2.153-.7-.713-.02-1.01.003-1.373.11Zm7.004 2.42-1.724 2.41v1.496H22.898V29.669h2.124V28.224h1.138v-1.75h-1.138V25.105h-2.048V26.474H21.363l.136-.209a267.8 267.8 0 0 1 1.511-2.187c.757-1.087 1.402-2.02 1.433-2.072.045-.075-.188-.095-1.068-.095h-1.126l-1.724 2.408Zm11.401-.962V24.8H33.747v-1.14h1.024c.564 0 1.025.014 1.025.033 0 .018-.465 1.105-1.034 2.415l-1.287 2.97-.253.59h2.386l1.386-3.252 1.385-3.251-.002-.628-.002-.627h-6.449v1.445Zm-26.37 2.206c0 .773.011 1.09.025.703a23.9 23.9 0 0 0 0-1.407c-.014-.387-.025-.07-.025.704Zm10.628 8.22c-1.21.117-2.26.215-2.333.217-.123.005-.133.139-.133 1.705 0 .934.022 2.064.05 2.51l.049.81h2.177v-.684c0-.377.016-.685.035-.685.02 0 .377.224.794.498 1.608 1.057 3.57 1.825 5.656 2.215.85.16 3.088.218 4.064.106 2.918-.333 5.656-1.48 7.881-3.302.75-.614 1.923-1.809 1.848-1.883a59.579 59.579 0 0 0-.856-.744l-.796-.685-.721.706c-1.194 1.168-2.078 1.803-3.44 2.47-2.858 1.4-6.32 1.64-9.395.652-.994-.32-2.132-.852-2.946-1.377l-.569-.367.682-.076.681-.076-.022-.343a37.96 37.96 0 0 0-.093-1.026 23.21 23.21 0 0 1-.07-.78c-.002-.114.168-.123-2.543.139Z" fill="#0D1A32"/></svg>