<svg width="27" height="27" fill="none" xmlns="http://www.w3.org/2000/svg"><path fill-rule="evenodd" clip-rule="evenodd" d="M12.958 3.54a4.875 4.875 0 0 1 4.697 3.567l.057.222 2.026-.506a1.083 1.083 0 0 1 1.335.91l.01.141v1.96a7.04 7.04 0 0 1 1.478 2.04l.15.333h.539a1.084 1.084 0 0 1 1.076.957l.007.127v3.25a1.084 1.084 0 0 1-.482.901l-.117.067-1.265.634a7.043 7.043 0 0 1-2.189 2.519l-.28.188v1.107a1.083 1.083 0 0 1-.957 1.076l-.127.008h-3.25a1.084 1.084 0 0 1-1.075-.957l-.008-.127H13.5a1.083 1.083 0 0 1-.957 1.076l-.127.008h-3.25a1.084 1.084 0 0 1-1.075-.957l-.008-.127V20.85a7.042 7.042 0 0 1-3.092-4.443 3.25 3.25 0 0 1-2.318-2.917l-.006-.2v-.54a1.083 1.083 0 0 1 2.159-.128l.007.127v.542c.002.162.034.311.098.45a7.042 7.042 0 0 1 3.183-4.78 4.875 4.875 0 0 1 4.844-5.42Zm4.875 8.667a1.084 1.084 0 1 0 0 2.168 1.084 1.084 0 0 0 0-2.168Zm-4.875-6.5a2.708 2.708 0 0 0-2.684 2.35 7.04 7.04 0 0 1 1.6-.183h3.66l.075-.018a2.709 2.709 0 0 0-2.65-2.149Z" fill="#0D1A32"/></svg>