<svg width="21" height="20" fill="none" xmlns="http://www.w3.org/2000/svg"><path d="m.85 19.5 1.33-4.86A9.358 9.358 0 0 1 .93 9.953C.93 4.782 5.138.576 10.307.576c2.508.001 4.862.978 6.633 2.75a9.323 9.323 0 0 1 2.744 6.635c-.002 5.17-4.209 9.377-9.377 9.377a9.383 9.383 0 0 1-4.485-1.142L.85 19.5Zm5.202-3.002c1.321.785 2.583 1.255 4.252 1.256 4.295 0 7.795-3.496 7.797-7.795a7.792 7.792 0 0 0-7.791-7.8c-4.3 0-7.796 3.497-7.798 7.794 0 1.755.514 3.068 1.377 4.443l-.788 2.876 2.95-.773Zm8.979-4.308c-.059-.098-.215-.156-.45-.274-.234-.117-1.386-.684-1.601-.762-.215-.078-.37-.117-.528.117-.156.235-.605.763-.742.92-.136.155-.273.175-.508.057-.234-.117-.99-.364-1.884-1.163-.696-.62-1.167-1.388-1.304-1.623-.136-.234-.014-.361.103-.478.106-.105.234-.274.352-.41.119-.136.157-.234.236-.391.078-.156.04-.293-.02-.41-.059-.118-.527-1.271-.722-1.74-.19-.457-.384-.395-.527-.402l-.45-.008a.858.858 0 0 0-.624.293c-.215.235-.82.801-.82 1.955 0 1.153.84 2.267.956 2.423.118.157 1.652 2.524 4.003 3.539.559.24.996.385 1.335.493a3.22 3.22 0 0 0 1.476.093c.45-.067 1.387-.567 1.582-1.114.196-.548.196-1.017.137-1.115Z" fill="#fff"/></svg>