<svg width="22" height="22" fill="none" xmlns="http://www.w3.org/2000/svg"><g clip-path="url(#a)" fill="#fff"><path d="M2.022 12.976c-.24.119-.944-.193-.88-.453.117-.468.292-.905.554-1.105 1.61-1.233 6.097-4.057 8.788-5.609v5.495s-7.605 1.248-8.462 1.672Zm17.91 0c-.858-.425-8.462-1.672-8.462-1.672V5.809c2.69 1.552 7.178 4.376 8.787 5.609.262.2.437.637.554 1.105.064.26-.64.572-.88.453Z"/><path d="M9.701 2.832c0-.895.678-2.74 1.518-2.74s1.518 1.845 1.518 2.74l-.421 15.336 1.802 1.525c.113.095.21.252.291.435.148.328-.362.61-.707.504-1.69-.514-3.688-.388-5.355.119-.188.057-.54-.096-.485-.285.082-.282.194-.55.343-.676.72-.607 1.918-1.622 1.918-1.622L9.701 2.832Z"/></g><defs><clipPath id="a"><path fill="#fff" d="M0 0h22v22H0z"/></clipPath></defs></svg>