<svg width="20" height="21" fill="none" xmlns="http://www.w3.org/2000/svg"><path d="M18.308 16.14c0 .3-.067.609-.208.909-.142.3-.325.583-.567.85-.408.45-.858.775-1.367.983-.5.208-1.041.317-1.625.317-.85 0-1.758-.2-2.716-.609a14.634 14.634 0 0 1-2.867-1.65 23.961 23.961 0 0 1-2.733-2.333A23.68 23.68 0 0 1 3.9 11.882c-.683-.95-1.233-1.9-1.633-2.842-.4-.95-.6-1.858-.6-2.725 0-.566.1-1.108.3-1.608.2-.508.516-.975.958-1.392.533-.525 1.117-.783 1.733-.783.233 0 .467.05.675.15.217.1.409.25.558.467l1.934 2.725c.15.208.258.4.333.583.075.175.117.35.117.508 0 .2-.059.4-.175.592a2.835 2.835 0 0 1-.467.592L7 8.807a.446.446 0 0 0-.133.333c0 .067.008.125.024.192.026.067.05.117.067.167.15.275.409.633.775 1.066.375.434.775.875 1.208 1.317.45.442.884.85 1.325 1.225.434.367.792.617 1.075.767.042.016.092.041.15.066a.575.575 0 0 0 .209.034c.142 0 .25-.05.341-.142l.634-.625a2.56 2.56 0 0 1 .6-.467 1.11 1.11 0 0 1 .591-.175c.159 0 .325.034.509.109.183.075.375.183.583.325l2.758 1.958c.217.15.367.325.459.533.083.209.133.417.133.65Z" fill="#0D1A32" stroke="#0D1A32" stroke-width="1.25" stroke-miterlimit="10"/></svg>