<svg width="21" height="20" fill="none" xmlns="http://www.w3.org/2000/svg"><path d="M18.85 14.167c0 1.365-.341 2.617-1.19 3.531-.858.924-2.125 1.386-3.726 1.386H7.268c-1.601 0-2.869-.462-3.727-1.386-.849-.914-1.19-2.166-1.19-3.531V8.25h16.5v5.917Zm-11.337-1.25a1 1 0 1 0 0 2h.008l.101-.006a1 1 0 0 0 0-1.99l-.101-.004h-.008Zm3.084 0a1 1 0 0 0 0 2h.008l.101-.006a1 1 0 0 0 0-1.99l-.101-.004h-.008Zm3.083 0a1 1 0 1 0 0 2h.008l.101-.006a1 1 0 0 0 0-1.99l-.101-.004h-.008Zm-6.167-2.5a1 1 0 1 0 0 2h.008l.101-.006a1 1 0 0 0 0-1.99l-.101-.004h-.008Zm3.084 0a1 1 0 0 0 0 2h.008l.101-.006a1 1 0 0 0 0-1.99l-.101-.004h-.008Zm3.083 0a1 1 0 1 0 0 2h.008l.101-.006a1 1 0 0 0 0-1.99l-.101-.004h-.008Zm.254-9.5a.75.75 0 0 1 .75.75v.537c1.25.125 2.257.574 2.976 1.349.78.839 1.13 1.963 1.183 3.197H2.358c.053-1.234.404-2.358 1.183-3.197.72-.775 1.726-1.224 2.977-1.349v-.537a.75.75 0 1 1 1.5 0v.5h5.166v-.5a.75.75 0 0 1 .75-.75Z" fill="#ACB0B3"/></svg>