<svg width="50" height="51" fill="none" xmlns="http://www.w3.org/2000/svg"><circle cx="25" cy="25.291" r="25" fill="#fff"/><path fill-rule="evenodd" clip-rule="evenodd" d="M23.448 7.536c-2.406.278-4.015.692-5.924 1.524-1.937.845-3.945 2.23-5.522 3.812A18.411 18.411 0 0 0 7.19 21.37c-.421 1.692-.513 2.495-.513 4.482 0 1.986.092 2.79.513 4.482a17.857 17.857 0 0 0 2.441 5.559c.829 1.246 1.413 1.967 2.377 2.934 2.815 2.822 6.338 4.6 10.332 5.213 1.213.186 4.009.186 5.222 0 2.703-.416 5.242-1.386 7.404-2.83 1.244-.83 1.963-1.416 2.927-2.383 2.4-2.405 4.028-5.288 4.83-8.55.258-1.05.469-2.324.469-2.835 0-.16.032-.31.071-.335.044-.027.072-.552.072-1.335 0-.843-.025-1.276-.072-1.247-.043.027-.071-.074-.071-.255 0-.482-.204-1.752-.435-2.721-1.425-5.954-5.775-10.837-11.547-12.963-.928-.342-2.558-.756-3.613-.917-.713-.109-3.566-.2-4.148-.133ZM6.667 25.852c0 .73.01 1.028.024.663.013-.365.013-.962 0-1.327-.013-.364-.024-.066-.024.664Z" fill="#0D1A32"/><path fill-rule="evenodd" clip-rule="evenodd" d="M23.353 6.426c-2.55.295-4.258.734-6.282 1.617-2.054.896-4.184 2.366-5.857 4.042a19.527 19.527 0 0 0-5.105 9.013c-.446 1.795-.544 2.647-.544 4.754 0 2.107.098 2.96.544 4.754a18.941 18.941 0 0 0 2.59 5.896c.878 1.322 1.498 2.087 2.52 3.112 2.986 2.992 6.722 4.878 10.958 5.528 1.287.198 4.252.198 5.539 0 2.867-.44 5.56-1.47 7.853-3 1.319-.882 2.082-1.503 3.104-2.528 2.545-2.551 4.272-5.608 5.122-9.068.274-1.115.498-2.465.498-3.007 0-.17.034-.33.076-.356.046-.028.076-.585.076-1.416 0-.893-.027-1.353-.076-1.322-.046.029-.076-.078-.076-.271 0-.51-.216-1.858-.461-2.885-1.511-6.315-6.125-11.495-12.247-13.75-.984-.362-2.713-.8-3.831-.971-.757-.116-3.783-.213-4.4-.142Zm-.227 4.525a15.087 15.087 0 0 0-8.902 4.441l-.67.683.185.154c.103.085.493.417.867.738l.681.585.562-.573c1.092-1.111 2.077-1.832 3.445-2.52 3.967-1.995 8.778-1.748 12.48.644l.57.367-.683.076-.683.076.022.304c.043.584.176 1.898.195 1.917.01.01 1.11-.083 2.442-.207 1.333-.123 2.45-.225 2.481-.226.07 0 .075-3.097.008-4.21l-.05-.81h-2.177v.684c0 .377-.016.685-.035.685-.019 0-.318-.191-.664-.424-.85-.572-2.574-1.413-3.56-1.734a16.524 16.524 0 0 0-2.947-.653c-.74-.092-2.843-.09-3.567.003Zm6.82 9.862c-.207.54-3.558 10.174-3.558 10.23 0 .034.413.052.917.04l.917-.02 1.766-5.059c.971-2.782 1.79-5.135 1.82-5.229.053-.17.052-.171-.865-.171h-.917l-.08.21ZM13.52 22.188c-.255.076-.63.234-.835.352-.389.224-1.094.91-1.09 1.058.001.048.351.28.778.518l.775.431.266-.256c.327-.317.733-.492 1.138-.492.919 0 1.305.7.823 1.496-.08.132-.879.931-1.774 1.775l-1.629 1.533v1.356h6.069v-1.673h-1.479c-.814 0-1.48-.02-1.48-.046s.509-.548 1.13-1.16c1.364-1.345 1.55-1.658 1.557-2.635.006-.755-.176-1.174-.723-1.668-.567-.51-1.056-.67-2.153-.7-.713-.02-1.01.004-1.373.111Zm7.004 2.422-1.724 2.408v1.496H22.898V29.96h2.124V28.514h1.138v-1.749h-1.138V25.396h-2.048V26.765H21.363l.136-.21c.075-.114.755-1.098 1.511-2.186.757-1.088 1.402-2.02 1.433-2.073.045-.074-.188-.095-1.068-.095h-1.126l-1.724 2.409Zm11.401-.964v1.445H33.747v-1.14h1.024c.564 0 1.025.015 1.025.033 0 .019-.465 1.105-1.034 2.415a1702.24 1702.24 0 0 0-1.287 2.97l-.253.59h2.386l1.386-3.251 1.385-3.252-.002-.627-.002-.628h-6.449v1.445Zm-26.37 2.206c0 .774.011 1.09.025.704a23.9 23.9 0 0 0 0-1.407c-.014-.387-.025-.07-.025.703Zm10.628 8.22c-1.21.117-2.26.215-2.333.218-.123.004-.133.138-.133 1.704 0 .935.022 2.064.05 2.51l.049.81h2.177v-.684c0-.376.016-.684.035-.684.02 0 .377.224.794.498 1.608 1.056 3.57 1.824 5.656 2.215.85.159 3.088.217 4.064.106 2.918-.333 5.656-1.48 7.881-3.303.75-.614 1.923-1.809 1.848-1.883a59.579 59.579 0 0 0-.856-.744l-.796-.684-.721.705c-1.194 1.169-2.078 1.804-3.44 2.471-2.858 1.4-6.32 1.64-9.395.651-.994-.32-2.132-.851-2.946-1.376l-.569-.368.682-.076.681-.076-.022-.342a37.96 37.96 0 0 0-.093-1.027 23.21 23.21 0 0 1-.07-.78c-.002-.114.168-.123-2.543.14Z" fill="#fff"/></svg>