<svg width="21" height="20" fill="none" xmlns="http://www.w3.org/2000/svg"><path d="M6.867 1.042c.345 0 .625.28.625.625v2.5a.625.625 0 0 1-1.25 0v-2.5c0-.346.28-.625.625-.625Zm6.667 0c.345 0 .625.28.625.625v2.5a.625.625 0 0 1-1.25 0v-2.5c0-.346.28-.625.625-.625Z" fill="#0D1A32"/><path d="M18.325 14.166c0 1.346-.336 2.564-1.156 3.447-.828.892-2.058 1.346-3.636 1.346H6.867c-1.577 0-2.808-.454-3.636-1.346-.82-.883-1.156-2.1-1.156-3.447V8.125h16.25v6.041ZM13.533 2.291c1.578 0 2.808.455 3.636 1.346.777.838 1.12 1.975 1.153 3.238H2.078c.034-1.263.376-2.4 1.153-3.238.828-.891 2.059-1.345 3.636-1.345h6.666Z" fill="#0D1A32"/><path d="M7.205 13.087a.834.834 0 0 1 0 1.659l-.085.003h-.008a.833.833 0 0 1 0-1.667h.008l.085.005Zm0-2.5a.834.834 0 0 1 0 1.659l-.085.003h-.008a.833.833 0 0 1 0-1.667h.008l.085.005Zm3.084 0a.834.834 0 0 1 0 1.659l-.085.003h-.008a.833.833 0 0 1 0-1.667h.008l.085.005Z" fill="#fff"/></svg>