<svg width="25" height="25" fill="none" xmlns="http://www.w3.org/2000/svg"><g clip-path="url(#a)"><path d="M13 3.29c6.161 0 11.156 4.996 11.156 11.157 0 2.19-.632 4.232-1.722 5.955-.505.797-1.422 1.201-2.366 1.201H5.932c-.944 0-1.861-.404-2.366-1.201a11.097 11.097 0 0 1-1.722-5.955C1.844 8.286 6.839 3.291 13 3.291Z" fill="#0D1A32"/><path d="M11.09 15.7a2 2 0 0 0 2.83 0l5.66-8.49-8.49 5.66a2 2 0 0 0 0 2.83Z" fill="#F4F4F4"/></g><defs><clipPath id="a"><path fill="#fff" transform="translate(.5 .29)" d="M0 0h24v24H0z"/></clipPath></defs></svg>