<svg width="50" height="51" fill="none" xmlns="http://www.w3.org/2000/svg"><rect y=".291" width="50" height="50" rx="25" fill="#F4F4F4"/><path d="M25.048 13.301c6.47 0 11.715 5.245 11.715 11.716 0 6.47-5.244 11.715-11.715 11.715-6.47 0-11.715-5.245-11.715-11.715S18.578 13.3 25.048 13.3Zm2.343 13.356-1.832 1.465a.587.587 0 0 0-.048.872l1.451 1.451c.282.282.486.63.596 1.012l.205.719a2.11 2.11 0 0 0 1.191 1.362 9.372 9.372 0 0 0 2.968-2.15l-.275-2.199a2.343 2.343 0 0 0-1.277-1.804l-1.722-.862a1.172 1.172 0 0 0-1.257.134Zm-2.343-11.013a9.362 9.362 0 0 0-7.421 3.648l-.194.26v1.973a3.514 3.514 0 0 0 2.279 3.291l.209.07 1.51.463c1.61.492 3.176-.816 3.02-2.455l-.023-.17-.204-1.23a1.172 1.172 0 0 1 .768-1.297l.127-.035.716-.164a3.124 3.124 0 0 0 2.33-3.823 9.373 9.373 0 0 0-3.117-.53Z" fill="#0D1A32"/></svg>