<svg width="25" height="25" fill="none" xmlns="http://www.w3.org/2000/svg"><g clip-path="url(#a)" fill="#fff"><path d="M2.706 14.405c-.262.13-1.03-.21-.96-.494.128-.51.319-.987.604-1.205 1.756-1.345 6.651-4.426 9.587-6.119v5.994s-8.296 1.362-9.231 1.824Zm19.538 0c-.936-.463-9.232-1.824-9.232-1.824V6.587c2.936 1.693 7.831 4.774 9.587 6.119.286.218.477.695.604 1.205.07.284-.698.624-.96.494Z"/><path d="M11.084 3.34c0-.977.739-2.99 1.655-2.99.917 0 1.656 2.013 1.656 2.99l-.46 16.73 1.967 1.663c.123.103.229.275.318.474.161.36-.395.666-.771.551-1.845-.56-4.024-.424-5.843.13-.205.061-.589-.106-.529-.31.09-.309.212-.602.374-.739l2.093-1.769-.46-16.73Z"/></g><defs><clipPath id="a"><path fill="#fff" transform="translate(1.5 .25)" d="M0 0h22.5v24H0z"/></clipPath></defs></svg>