<svg width="22" height="21" fill="none" xmlns="http://www.w3.org/2000/svg"><path d="M1.8 19.865h18.5H1.8Zm16.45-7.453a1.783 1.783 0 1 1-.923 3.445L7.235 13.155a4 4 0 0 1-1.32-.628l-2.14-1.543A3.04 3.04 0 0 1 2.52 8.386l.11-2.508a.607.607 0 0 1 .765-.56l.436.117a1.52 1.52 0 0 1 1.086 1.121l.486 2.082c.05.218.218.39.434.448l4.015 1.076.506-6.735a.608.608 0 0 1 .763-.54l.422.112c.363.097.643.388.725.755l1.692 7.51 4.29 1.148Z" fill="#0D1A32"/><path d="M1.8 19.865h18.5m-2.05-7.453a1.783 1.783 0 1 1-.923 3.445L7.235 13.155a4 4 0 0 1-1.32-.628l-2.14-1.543A3.04 3.04 0 0 1 2.52 8.386l.11-2.508a.607.607 0 0 1 .765-.56l.436.117a1.52 1.52 0 0 1 1.086 1.121l.486 2.082c.05.218.218.39.434.448l4.015 1.076.506-6.735a.608.608 0 0 1 .763-.54l.422.112c.363.097.643.388.725.755l1.692 7.51 4.29 1.148Z" stroke="#0D1A32" stroke-width="1.5" stroke-linecap="round" stroke-linejoin="round"/></svg>