<svg width="24" height="24" fill="none" xmlns="http://www.w3.org/2000/svg"><path d="M2.206 14.155c-.262.13-1.03-.21-.96-.494.128-.51.319-.987.605-1.205C3.606 11.11 8.5 8.03 11.437 6.337v5.994s-8.296 1.362-9.231 1.824Zm19.538 0c-.936-.463-9.232-1.824-9.232-1.824V6.337c2.936 1.693 7.831 4.774 9.587 6.119.286.218.477.695.604 1.205.07.284-.698.624-.96.494Z" fill="#0D1A32"/><path d="M10.583 3.09c0-.977.74-2.99 1.656-2.99.917 0 1.656 2.013 1.656 2.99l-.46 16.73 1.967 1.663c.123.103.228.275.318.474.16.36-.396.666-.772.551-1.844-.56-4.024-.424-5.842.13-.205.061-.589-.106-.53-.31.09-.309.213-.602.375-.739l2.093-1.769-.46-16.73Z" fill="#0D1A32"/></svg>