<svg width="20" height="20" fill="none" xmlns="http://www.w3.org/2000/svg"><path d="M2.5 17.083h15.417H2.5ZM15.688 5.04a1.486 1.486 0 0 1 1.485 2.575l-7.54 4.351a3.332 3.332 0 0 1-1.147.409l-2.17.351a2.533 2.533 0 0 1-2.271-.79l-1.412-1.542a.506.506 0 0 1 .121-.78l.326-.189a1.267 1.267 0 0 1 1.3.021l1.513.94a.506.506 0 0 0 .52.009l3-1.732-3.67-4.267a.506.506 0 0 1 .13-.768l.315-.182a.846.846 0 0 1 .873.017l5.421 3.427 3.206-1.85Z" fill="#0D1A32"/><path d="M2.5 17.083h15.417M15.687 5.04a1.486 1.486 0 0 1 1.486 2.575l-7.54 4.351a3.332 3.332 0 0 1-1.147.409l-2.17.351a2.533 2.533 0 0 1-2.271-.79l-1.412-1.542a.506.506 0 0 1 .121-.78l.326-.189a1.267 1.267 0 0 1 1.3.021l1.513.94a.506.506 0 0 0 .52.009l3-1.732-3.67-4.267a.506.506 0 0 1 .13-.768l.315-.182a.846.846 0 0 1 .873.017l5.421 3.427 3.206-1.85Z" stroke="#0D1A32" stroke-width="1.25" stroke-linecap="round" stroke-linejoin="round"/></svg>