<svg width="28" height="28" fill="none" xmlns="http://www.w3.org/2000/svg"><path d="m.382 27.214 1.871-6.835a13.162 13.162 0 0 1-1.76-6.595C.497 6.514 6.413.596 13.683.596a13.106 13.106 0 0 1 9.331 3.869 13.113 13.113 0 0 1 3.86 9.332c-.003 7.272-5.92 13.189-13.19 13.189a13.198 13.198 0 0 1-6.309-1.606L.382 27.214ZM7.7 22.992c1.859 1.103 3.633 1.764 5.98 1.765 6.042 0 10.964-4.917 10.968-10.963.002-6.058-4.897-10.969-10.959-10.97-6.047 0-10.966 4.917-10.968 10.961 0 2.468.722 4.316 1.937 6.249L3.549 24.08l4.15-1.088Zm12.629-6.06c-.082-.138-.302-.22-.632-.385s-1.95-.963-2.253-1.072c-.301-.11-.52-.166-.742.165-.22.33-.851 1.072-1.043 1.292-.192.22-.385.247-.714.082-.33-.165-1.392-.512-2.651-1.636-.98-.874-1.642-1.953-1.834-2.284-.191-.329-.02-.508.145-.672.148-.147.329-.385.494-.578.168-.19.222-.328.333-.548.11-.22.056-.413-.028-.578-.083-.165-.742-1.787-1.016-2.447-.268-.642-.54-.556-.742-.566l-.632-.01c-.22 0-.577.081-.878.412-.302.33-1.154 1.127-1.154 2.75 0 1.622 1.182 3.189 1.346 3.409.165.22 2.323 3.549 5.63 4.976.786.34 1.4.542 1.878.694.79.251 1.508.215 2.076.131.634-.094 1.95-.797 2.225-1.567.275-.77.275-1.43.192-1.568Z" fill="#0D1A32"/></svg>