<svg width="25" height="21" fill="none" xmlns="http://www.w3.org/2000/svg"><path fill-rule="evenodd" clip-rule="evenodd" d="M2.035 8.781c6.55-2.853 10.918-4.735 13.103-5.644 6.24-2.595 7.536-3.046 8.38-3.06.187-.004.602.042.872.26.227.185.29.434.32.609.03.175.066.573.037.884-.338 3.553-1.801 12.175-2.546 16.154-.315 1.683-.935 2.248-1.535 2.303-1.305.12-2.296-.862-3.56-1.69-1.977-1.297-3.094-2.104-5.013-3.369-2.219-1.461-.78-2.265.484-3.578.33-.344 6.08-5.572 6.19-6.047.014-.06.027-.28-.104-.397-.131-.117-.325-.077-.465-.045-.199.045-3.358 2.133-9.477 6.264-.897.616-1.71.916-2.437.9-.802-.017-2.345-.454-3.492-.827C1.385 11.041.266 10.8.364 10.023c.05-.405.608-.819 1.671-1.242Z" fill="#0D1A32"/></svg>