<svg width="22" height="22" fill="none" xmlns="http://www.w3.org/2000/svg"><path d="M11 5.5a1.833 1.833 0 1 0 0-3.667A1.833 1.833 0 0 0 11 5.5Z" fill="#fff"/><path d="M14.566 7.434c-.358-.357-.972-1.017-2.163-1.017h-2.329a4.602 4.602 0 0 1-4.51-3.805.917.917 0 0 0-1.815.266A6.453 6.453 0 0 0 8.25 7.984V19.25a.92.92 0 0 0 .917.917.92.92 0 0 0 .916-.917v-4.583h1.834v4.583a.92.92 0 0 0 .916.917.92.92 0 0 0 .917-.917V9.212l2.97 2.97a.912.912 0 0 0 1.49-.296.914.914 0 0 0-.197-.996l-3.447-3.456Z" fill="#fff"/></svg>