<svg width="157" height="44" viewBox="0 0 157 44" fill="none" xmlns="http://www.w3.org/2000/svg">
<path d="M156.563 14.5558L146.298 29.1307H139.951L150.216 14.5558L139.951 0.372681H146.219L156.563 14.5558ZM17.5526 31.5599C17.5526 34.4592 17.0824 36.4966 16.0638 37.5936C15.0451 38.769 13.4779 39.3175 11.3622 39.3175C9.24646 39.3175 7.67926 38.769 6.81731 37.5936C5.87699 36.4182 5.48519 34.5376 5.48519 31.8733V14.5558H0V32.3435C0 36.0264 0.940318 38.8474 2.89931 40.728C4.85831 42.687 7.6009 43.6273 11.2838 43.6273C15.1234 43.6273 18.0228 42.6086 19.9818 40.6496C21.9408 38.6906 22.9594 35.7913 22.9594 32.0301V14.5558H17.5526V31.5599ZM46.389 42.7654L36.9858 14.6342H32.0492H31.8925H27.1909V43.3139H32.0492V15.1043L41.6874 43.2355H46.4674H46.6241H51.3257V14.5558H46.4674V42.7654H46.389ZM56.4191 43.2355H61.8259V14.5558H56.4191V43.2355ZM85.0204 28.8173C83.3749 27.5635 80.789 26.7016 77.2628 26.2314C74.912 25.918 73.2664 25.4478 72.4829 24.821C71.6993 24.1941 71.3075 23.2538 71.3075 22C71.3075 20.8246 71.6993 19.9626 72.5612 19.2574C73.4232 18.5522 74.5986 18.2387 76.2441 18.2387C77.8897 18.2387 79.2218 18.5522 80.0838 19.2574C80.9457 19.9626 81.4942 21.0597 81.8077 22.5485H86.666C86.0391 16.985 82.5913 14.2424 76.2441 14.2424C73.2665 14.2424 70.8373 15.026 69.035 16.5932C67.1544 18.1604 66.2924 20.1194 66.2924 22.4702C66.2924 25.056 67.076 27.015 68.6432 28.2688C70.2104 29.5225 72.7963 30.3845 76.3225 30.8547C78.6733 31.2465 80.2405 31.7166 81.0241 32.3435C81.886 32.9704 82.2778 33.9107 82.2778 35.2428C82.2778 36.5749 81.8077 37.672 80.789 38.4556C79.7703 39.2392 78.5166 39.631 76.871 39.631C74.6769 39.631 73.1097 39.1608 72.1694 38.2205C71.2291 37.2802 70.6806 36.0264 70.5239 34.3025H65.4305C65.6656 37.2018 66.6842 39.4742 68.5649 41.1198C70.4455 42.7654 73.1881 43.6273 76.9494 43.6273C80.0838 43.6273 82.5913 42.7654 84.5503 41.1198C86.5093 39.3959 87.5279 37.2802 87.5279 34.7727C87.4496 32.0301 86.5876 30.0711 85.0204 28.8173ZM90.8191 43.2355H96.1475V29.836V27.5635V14.5558H90.8191V43.2355ZM124.749 26.4665L116.286 14.5558H106.726L96.5393 28.6606L97.4796 29.836L106.804 43.2355H113.073L102.338 28.2688L111.428 15.9663L121.928 30.8547V43.3139H127.335V30.8547L138.305 14.5558H133.055L124.749 26.4665Z" fill="#0D1A32"/>
</svg>
