<svg width="405" height="112" fill="none" xmlns="http://www.w3.org/2000/svg"><path d="m404.904 36.68-26.548 37.694h-16.415l26.548-37.693L361.941 0h16.213l26.75 36.68ZM45.394 80.657c0 7.498-1.215 12.767-3.85 15.604-2.634 3.04-6.687 4.458-12.16 4.458-5.47 0-9.524-1.418-11.753-4.458-2.432-3.04-3.445-7.903-3.445-14.794V36.681H0v46.002c0 9.525 2.432 16.82 7.498 21.684 5.067 5.067 12.16 7.498 21.684 7.498 9.93 0 17.429-2.634 22.495-7.7 5.066-5.067 7.7-12.565 7.7-22.293V36.681H45.396v43.976Zm74.578 28.979L95.653 36.883H70.321v74.172h12.565V38.099l24.926 72.753h24.927V36.68h-12.565v72.956h-.202Zm25.939 1.216h13.984V36.68h-13.984v74.172Zm73.969-37.288c-4.255-3.243-10.943-5.472-20.062-6.688-6.08-.81-10.336-2.026-12.362-3.648-2.027-1.62-3.04-4.053-3.04-7.295 0-3.04 1.013-5.27 3.242-7.093 2.23-1.824 5.269-2.635 9.525-2.635s7.701.81 9.93 2.635c2.229 1.824 3.648 4.66 4.459 8.511h12.564c-1.621-14.388-10.538-21.481-26.953-21.481-7.701 0-13.983 2.026-18.644 6.08-4.864 4.053-7.093 9.119-7.093 15.199 0 6.687 2.026 11.754 6.08 14.996 4.053 3.243 10.74 5.472 19.86 6.688 6.079 1.013 10.132 2.229 12.159 3.85 2.229 1.621 3.243 4.053 3.243 7.498 0 3.445-1.216 6.283-3.851 8.31-2.634 2.026-5.877 3.039-10.133 3.039-5.674 0-9.727-1.216-12.159-3.648-2.432-2.432-3.85-5.674-4.256-10.133h-13.172c.608 7.499 3.242 13.376 8.106 17.631 4.864 4.256 11.957 6.485 21.684 6.485 8.106 0 14.591-2.229 19.657-6.485 5.067-4.458 7.701-9.93 7.701-16.414-.202-7.093-2.431-12.16-6.485-15.402Zm14.997 37.288h13.78V36.681h-13.78v74.171Zm87.749-43.368L300.74 36.681h-24.724l-26.345 36.477 2.432 3.04 24.115 34.654h16.213l-27.764-38.707 23.508-31.817 27.156 38.505v32.222h13.983V78.833l28.372-42.152h-13.578l-21.482 30.803Z" fill="#fff"/></svg>