<svg width="410" height="30" viewBox="0 0 410 30" fill="none" xmlns="http://www.w3.org/2000/svg"><g clip-path="url(#a)"><path fill="#F2F2F2" d="M-756-1008h1920V332H-756z"/><path d="M410-838V11.05l-9.76-9.54-9.76 10-9.76-10-9.76 10-9.76-10-9.76 10-9.76-10-9.76 10-9.76-10-9.76 10-9.76-10-9.76 10-9.76-10-9.76 10-9.76-10-9.76 10-9.77-10-9.76 10-9.76-10-9.76 10-9.76-10-9.76 10-9.76-10-9.76 10-9.75-10-9.77 10-9.76-10-9.76 10-9.76-10-9.76 10-9.77-10-9.76 10-9.77-10-9.76 10-9.76-10-9.77 10-9.76-10-9.76 10-9.77-10-9.77 10-9.77-10L0 12v-850h410z" fill="#fff" filter="url(#b)"/></g><defs><filter id="b" x="-20" y="-851" width="450" height="890" filterUnits="userSpaceOnUse" color-interpolation-filters="sRGB"><feFlood flood-opacity="0" result="BackgroundImageFix"/><feColorMatrix in="SourceAlpha" values="0 0 0 0 0 0 0 0 0 0 0 0 0 0 0 0 0 0 127 0"/><feOffset dy="7"/><feGaussianBlur stdDeviation="10"/><feColorMatrix values="0 0 0 0 0 0 0 0 0 0 0 0 0 0 0 0 0 0 0.1 0"/><feBlend in2="BackgroundImageFix" result="effect1_dropShadow"/><feBlend in="SourceGraphic" in2="effect1_dropShadow" result="shape"/></filter><clipPath id="a"><path fill="#fff" transform="translate(-756 -1008)" d="M0 0h1920v1340H0z"/></clipPath></defs></svg>