<svg width="94" height="40" fill="none" xmlns="http://www.w3.org/2000/svg"><path d="M.608 1.305c-.166.8-.102 1.74.163 2.394l1.374 3.448a.492.492 0 010 .328L.256 12.166c-.343.849-.343 2.133 0 2.982l1.886 4.687a.496.496 0 010 .33L.257 24.854c-.342.849-.342 2.133 0 2.981l1.887 4.692a.497.497 0 010 .33l-1.372 3.45c-.366.916-.33 2.318.083 3.132.185.365.424.565.67.56h90.951c.552.01 1.003-.979 1.007-2.206.001-.55-.089-1.081-.253-1.492l-1.374-3.448a.492.492 0 010-.328l1.888-4.691c.343-.849.343-2.133 0-2.982l-1.886-4.687a.496.496 0 010-.331l1.886-4.688c.342-.848.342-2.133 0-2.98l-1.887-4.693a.496.496 0 010-.33l1.373-3.451c.366-.916.329-2.318-.084-3.132-.184-.364-.423-.564-.67-.56H1.525C1.129-.01.768.502.608 1.305z" fill="#F44338"/></svg>