<?xml version="1.0" encoding="UTF-8"?>
<svg width="108px" height="14px" viewBox="0 0 108 14" version="1.1" xmlns="http://www.w3.org/2000/svg" xmlns:xlink="http://www.w3.org/1999/xlink">
    <!-- Generator: Sketch 44.1 (41455) - http://www.bohemiancoding.com/sketch -->
    <title>logo_MOG</title>
    <desc>Created with Sketch.</desc>
    <defs></defs>
    <g id="index" stroke="none" stroke-width="1" fill="none" fill-rule="evenodd">
        <g id="index-320" transform="translate(-106.000000, -20.000000)" fill="#FFFFFF">
            <g id="header">
                <g id="logo_MOG" transform="translate(106.000000, 20.000000)">
                    <path d="M3.80161714,0.71782285 L6.05613061,10.6409854 L6.09126857,10.6409854 L8.31038571,0.71782285 L12.0784151,0.71782285 L12.0784151,13.3112836 L9.65182898,13.3112836 L9.65182898,2.78221785 L9.63426,2.78221785 L7.29577714,13.3112836 L4.73122286,13.3112836 L2.45939878,2.78221785 L2.42477755,2.78221785 L2.42477755,13.3112836 L0,13.3112836 L0,0.71782285 L3.80161714,0.71782285 Z M19.9736045,0.38778014 C21.6253469,0.38778014 25.9620429,1.11507236 25.9620429,7.01520446 C25.9620429,12.9129921 21.6253469,13.6418473 19.9736045,13.6418473 C18.321862,13.6418473 13.9851661,12.9127316 13.9851661,7.01520446 C13.9851661,1.11507236 18.321862,0.38778014 19.9736045,0.38778014 Z M19.9736045,11.4219389 C18.5621437,11.4219389 16.5833082,10.5360073 16.5833082,7.01546495 C16.5833082,3.49257813 18.5621437,2.60794905 19.9736045,2.60794905 C21.3845486,2.60794905 23.3633841,3.49283862 23.3633841,7.01546495 C23.3633841,10.5362678 21.3845486,11.4219389 19.9736045,11.4219389 Z M35.9233959,4.84557089 C35.7159269,4.0838938 35.3025392,2.60794905 33.1518894,2.60794905 C31.8967408,2.60794905 30.0029082,3.51133352 30.0029082,7.06730275 C30.0029082,9.32185654 30.9503412,11.4219389 33.1518894,11.4219389 C34.5977131,11.4219389 35.6136135,10.5362678 35.9233959,8.9928558 L38.521538,8.9928558 C38.0040282,11.7324447 36.2318865,13.6423683 33.1007327,13.6423683 C29.7796788,13.6423683 27.4065747,11.3685381 27.4065747,7.03265739 C27.4065747,2.62774641 29.9181637,0.388040632 33.1358706,0.388040632 C36.8697955,0.388040632 38.3838282,2.99009006 38.5217963,4.84557089 L35.9233959,4.84557089 L35.9233959,4.84557089 Z M45.8333339,0.38778014 C47.4850763,0.38778014 51.8204804,1.11507236 51.8204804,7.01520446 C51.8204804,12.9129921 47.4850763,13.6418473 45.8333339,13.6418473 C44.1813331,13.6418473 39.8448955,12.9127316 39.8448955,7.01520446 C39.8448955,1.11507236 44.1813331,0.38778014 45.8333339,0.38778014 Z M45.8333339,11.4219389 C44.4218731,11.4219389 42.4430376,10.5360073 42.4430376,7.01546495 C42.4430376,3.49257813 44.4218731,2.60794905 45.8333339,2.60794905 C47.2447947,2.60794905 49.2225967,3.49283862 49.2225967,7.01546495 C49.2225967,10.5362678 47.2447947,11.4219389 45.8333339,11.4219389 Z M62.8848037,0.71782285 L62.8848037,2.88563297 L56.2943694,2.88563297 L56.2943694,5.48742191 L59.5461808,5.48742191 C61.9557147,5.48742191 63.8138927,6.96310616 63.8138927,9.46043801 C63.8138927,11.9416194 62.0068714,13.3110231 59.5125931,13.3110231 L53.6967441,13.3110231 L53.6967441,0.71782285 L62.8848037,0.71782285 Z M56.2943694,11.1429525 L56.2943694,7.65497154 L59.2369151,7.65497154 C60.4080943,7.65497154 61.2154922,8.21138135 61.2154922,9.32185654 C61.2154922,10.363562 60.494389,11.1429525 59.2369151,11.1429525 L56.2943694,11.1429525 Z M85.7459216,0.71782285 L85.7459216,2.88563297 L80.2979878,2.88563297 L80.2979878,13.3110231 L77.7001041,13.3110231 L77.7001041,0.71782285 L85.7459216,0.71782285 Z M71.80752,0.71782285 L76.1948559,13.3123256 L73.3734845,13.3123256 L70.2937457,3.5639528 L70.2593829,3.5639528 L67.0923159,13.3123256 L64.3574976,13.3123256 L68.7965069,0.71782285 L71.80752,0.71782285 Z M97.9008135,4.46395087 C98.0374898,2.38366589 99.5690914,0.388040632 102.768971,0.388040632 C106.228768,0.388040632 107.536107,2.31411466 107.536107,3.71738228 C107.536107,5.31471606 106.657658,6.26863587 105.38494,6.63332394 C106.743953,6.87558102 107.999876,7.98475376 107.999876,9.94677561 C107.999876,11.8892606 106.452256,13.6423683 102.942594,13.6423683 C98.674882,13.6423683 97.7116886,11.4732557 97.7116886,9.42579264 L100.154035,9.42579264 C100.154035,10.5362678 100.636407,11.4729952 102.854749,11.4729952 C104.420972,11.4729952 105.403026,10.7787854 105.403026,9.66778923 C105.403026,8.40180062 104.36904,7.76151256 103.113116,7.76151256 L101.909641,7.76151256 L101.909641,5.64423778 L103.045424,5.64423778 C104.284296,5.64423778 105.041312,5.03729263 105.041312,4.01382159 C105.041312,3.05990178 104.198001,2.5574137 102.82142,2.5574137 C101.083899,2.5574137 100.44754,3.267253 100.34316,4.46369038 L97.9008135,4.46369038 L97.9008135,4.46395087 Z M90.7558498,0.758673831 L93.7407043,0.758673831 L98.0879999,13.2958748 L95.2918737,13.2958748 L94.4904378,10.7058679 L89.9363792,10.7058679 L89.0680785,13.2958748 L86.3554862,13.2958748 L90.7558498,0.758673831 Z M92.2173449,3.74744554 L90.6289183,8.73085176 L93.9440657,8.73085176 L92.2521662,3.74744554 L92.2173449,3.74744554 Z" id="MOG_Logo"></path>
                </g>
            </g>
        </g>
    </g>
</svg>