<?xml version="1.0" encoding="UTF-8"?>
<svg width="188px" height="67px" viewBox="0 0 188 67" version="1.1" xmlns="http://www.w3.org/2000/svg" xmlns:xlink="http://www.w3.org/1999/xlink">
    <!-- Generator: Sketch 44.1 (41455) - http://www.bohemiancoding.com/sketch -->
    <title>logo</title>
    <desc>Created with Sketch.</desc>
    <defs>
        <filter x="-0.5%" y="-0.8%" width="101.1%" height="103.1%" filterUnits="objectBoundingBox" id="filter-1">
            <feOffset dx="0" dy="0.5" in="SourceAlpha" result="shadowOffsetOuter1"></feOffset>
            <feGaussianBlur stdDeviation="0.25" in="shadowOffsetOuter1" result="shadowBlurOuter1"></feGaussianBlur>
            <feColorMatrix values="0 0 0 0 0   0 0 0 0 0   0 0 0 0 0  0 0 0 0.5 0" type="matrix" in="shadowBlurOuter1" result="shadowMatrixOuter1"></feColorMatrix>
            <feMerge>
                <feMergeNode in="shadowMatrixOuter1"></feMergeNode>
                <feMergeNode in="SourceGraphic"></feMergeNode>
            </feMerge>
        </filter>
    </defs>
    <g id="index" stroke="none" stroke-width="1" fill="none" fill-rule="evenodd">
        <g id="index-2" transform="translate(-256.000000, -368.000000)">
            <g id="logo" filter="url(#filter-1)" transform="translate(257.000000, 368.000000)">
                <g id="Layer_1">
                    <polygon id="Shape" fill="#FFFFFF" points="6.54 42.32 10.41 59.25 10.47 59.25 14.29 42.32 20.77 42.32 20.77 63.8 16.59 63.8 16.59 45.84 16.56 45.84 12.54 63.8 8.13 63.8 4.23 45.84 4.17 45.84 4.17 63.8 0 63.8 0 42.32"></polygon>
                    <path d="M34.34,41.76 C37.18,41.76 44.64,43 44.64,53.06 C44.64,63.12 37.18,64.35 34.34,64.35 C31.5,64.35 24.04,63.11 24.04,53.05 C24.04,42.99 31.5,41.75 34.34,41.75 M34.34,60.57 C36.77,60.57 40.17,59.06 40.17,53.06 C40.17,47.06 36.77,45.54 34.34,45.54 C31.91,45.54 28.51,47.05 28.51,53.06 C28.51,59.07 31.91,60.57 34.34,60.57" id="Shape" fill="#FFFFFF"></path>
                    <path d="M61.77,49.35 C61.41,48.05 60.7,45.54 57,45.54 C54.84,45.54 51.59,47.08 51.59,53.14 C51.59,56.99 53.22,60.57 57,60.57 C59.4219053,60.6326782 61.4912667,58.8366287 61.77,56.43 L66.24,56.43 C65.35,61.1 62.3,64.36 56.92,64.36 C51.21,64.36 47.13,60.48 47.13,53.09 C47.13,45.7 51.45,41.76 56.98,41.76 C63.4,41.76 65.98,46.2 66.24,49.36 L61.77,49.36 L61.77,49.35 Z" id="Shape" fill="#FFFFFF"></path>
                    <path d="M78.8,41.76 C81.64,41.76 89.09,43 89.09,53.06 C89.09,63.12 81.64,64.35 78.8,64.35 C75.96,64.35 68.5,63.11 68.5,53.05 C68.5,42.99 75.96,41.75 78.8,41.75 M78.8,60.57 C81.23,60.57 84.63,59.06 84.63,53.06 C84.63,47.06 81.23,45.54 78.8,45.54 C76.37,45.54 72.97,47.05 72.97,53.06 C72.97,59.07 76.37,60.57 78.8,60.57" id="Shape" fill="#FFFFFF"></path>
                    <path d="M108.12,42.35 L108.12,46.05 L96.79,46.05 L96.79,50.49 L102.38,50.49 C106.52,50.49 109.72,53.01 109.72,57.27 C109.72,61.53 106.61,63.84 102.32,63.84 L92.32,63.84 L92.32,42.35 L108.12,42.35 L108.12,42.35 Z M96.79,60.13 L101.85,60.13 C102.72495,60.2247062 103.598471,59.9393667 104.248797,59.3464224 C104.899123,58.7534781 105.263711,57.9099539 105.25,57.03 C105.25,55.14 103.86,54.19 101.85,54.19 L96.79,54.19 L96.79,60.14 L96.79,60.13 Z" id="Shape" fill="#FFFFFF"></path>
                    <polygon id="Shape" fill="#FFFFFF" points="147.42 42.32 147.42 46.02 138.06 46.02 138.06 63.8 133.59 63.8 133.59 42.32"></polygon>
                    <path d="M156.06,63.8 L148.44,42.35 L153.14,42.35 L154.65,46.79 L162.55,46.79 L163.94,42.35 L168.79,42.35 L161.25,63.83 L156.07,63.83 L156.06,63.8 Z M158.57,58.95 L158.63,58.95 L161.56,50.46 L155.82,50.46 L158.57,58.95 Z" id="Shape" fill="#FFFFFF"></path>
                    <polygon id="Shape" fill="#FFFFFF" points="123.46 42.32 118.28 42.32 110.65 63.8 115.35 63.8 120.8 47.18 120.86 47.18 126.15 63.8 131 63.8"></polygon>
                    <path d="M168.32,48.71 C168.55,45.16 171.19,41.71 176.69,41.71 C182.64,41.71 184.89,44.99 184.89,47.39 C185.045201,49.7371832 183.480026,51.8522851 181.19,52.39 C183.911702,52.8495923 185.850981,55.2844652 185.69,58.04 C185.69,61.35 183.03,64.34 177,64.34 C169.66,64.34 168,60.64 168,57.15 L172.2,57.15 C172.2,59.04 173.03,60.64 176.84,60.64 C179.53,60.64 181.22,59.46 181.22,57.56 C181.22,55.4 179.44,54.31 177.28,54.31 L175.21,54.31 L175.21,50.7 L177.21,50.7 C179.34,50.7 180.64,49.7 180.64,47.92 C180.64,46.14 179.19,45.44 176.82,45.44 C173.82,45.44 172.74,46.65 172.56,48.69 L168.36,48.69 L168.32,48.71 Z" id="Shape" fill="#FFFFFF"></path>
                    <path d="M172.6,25.75 C172.6,13.58 161.6,1.5 155.21,0.54 C155.68861,2.16260407 155.917893,3.84851159 155.89,5.54 C155.89,12.15 144.6,16.38 144.6,27.08 C144.6,30.35 145.67,35.94 149.02,38.7 C150.141091,34.3306975 154.079163,31.275504 158.59,31.275504 C163.100837,31.275504 167.038909,34.3306975 168.16,38.7 C169.3,37.76 172.6,33.87 172.6,25.7" id="Shape" fill="#FFFFFF"></path>
                    <path d="M158.59,31.24 C162.39,31.24 165.54,34.02 166.25,34.82 C168.346965,32.4486501 169.230609,29.2414445 168.644051,26.1307351 C168.057494,23.0200258 166.066551,20.3548541 163.25,18.91 C163.25,18.91 159.62,16.83 158.52,15.1 C157.442105,16.6949533 155.923852,17.9422142 154.15,18.69 C153.153356,19.3114299 152.207107,20.0102494 151.32,20.78 C147.473075,24.6271599 147.306183,30.8109451 150.94,34.86 C151.51,34.21 154.75,31.23 158.56,31.23" id="Shape" fill="#00ADE5"></path>
                </g>
            </g>
        </g>
    </g>
</svg>