<svg xmlns:dc="http://purl.org/dc/elements/1.1/" xmlns:cc="http://creativecommons.org/ns#" xmlns:rdf="http://www.w3.org/1999/02/22-rdf-syntax-ns#" xmlns:svg="http://www.w3.org/2000/svg" xmlns="http://www.w3.org/2000/svg" xmlns:sodipodi="http://sodipodi.sourceforge.net/DTD/sodipodi-0.dtd" xmlns:inkscape="http://www.inkscape.org/namespaces/inkscape" version="1.1" x="0px" y="0px" viewBox="0 0 100 125"><g transform="translate(0,-952.36218)"><path style="text-indent:0;text-transform:none;direction:ltr;block-progression:tb;baseline-shift:baseline;color:#000000;enable-background:accumulate;" d="m 16,957.36217 0,90.00003 68,0 0,-90.00003 -68,0 z m 4,4 60,0 0,82.00003 -60,0 0,-82.00003 z m 23.4688,10.71875 -8.5938,10.3125 -4.4688,-4.46875 -2.8124,2.84375 c 2.5103,2.51041 5.0208,5.0208 7.5312,7.53125 3.8319,-4.52696 7.6094,-9.09995 11.4062,-13.65625 l -3.0624,-2.5625 z m 7.5312,8.28125 0,4 22,0 0,-4 -22,0 z m -7.5312,13.71875 -8.5938,10.31248 -4.4688,-4.46873 -2.8124,2.84373 c 2.5103,2.5104 5.0208,5.0208 7.5312,7.5313 3.8319,-4.527 7.6094,-9.1 11.4062,-13.65628 l -3.0624,-2.5625 z m 7.5312,8.28128 0,4 22,0 0,-4 -22,0 z m -7.5312,13.7187 -8.5938,10.3125 -4.4688,-4.4687 -2.8124,2.8437 c 2.5103,2.5104 5.0208,5.0208 7.5312,7.5313 3.8319,-4.527 7.6094,-9.1 11.4062,-13.6563 l -3.0624,-2.5625 z m 7.5312,8.2813 0,4 22,0 0,-4 -22,0 z" fill="#000000" fill-opacity="1" stroke="none" marker="none" visibility="visible" display="inline" overflow="visible"/></g><text x="0" y="115" fill="#000000" font-size="5px" font-weight="bold" font-family="'Helvetica Neue', Helvetica, Arial-Unicode, Arial, Sans-serif">Created by unlimicon</text><text x="0" y="120" fill="#000000" font-size="5px" font-weight="bold" font-family="'Helvetica Neue', Helvetica, Arial-Unicode, Arial, Sans-serif">from the Noun Project</text></svg>