<svg xmlns="http://www.w3.org/2000/svg" xmlns:xlink="http://www.w3.org/1999/xlink" viewBox="0 0 24 30" version="1.1" x="0px" y="0px"><title>content_065-ruler-measurement-school-math</title><desc>Created with Sketch.</desc><g stroke="none" stroke-width="1" fill="none" fill-rule="evenodd"><g transform="translate(-236.000000, -332.000000)" fill="#000000"><g transform="translate(236.000000, 332.000000)"><path d="M22.9967999,0 C23.550852,0 24,0.453036308 24,0.997030139 L24,7.00296986 C24,7.5536144 23.5553691,8 22.9991283,8 L8,8 L8,23.0443612 C8,23.572146 7.54696369,24 7.00296986,24 L0.997030139,24 C0.446385598,24 0,23.5629476 0,23.0443612 L0,0.955638751 C0,0.427854043 0.453036308,0 0.997030139,0 L22.9967999,0 Z M7,23 L1,23 L1,1 L7,1 L7,23 Z M23,1 L23,7 L8,7 L8,1 L23,1 Z"/><rect x="10" y="5" width="1" height="3"/><rect x="13" y="3" width="1" height="5"/><rect x="16" y="5" width="1" height="3"/><rect x="19" y="3" width="1" height="5"/><rect x="5" y="4" width="3" height="1"/><rect x="3" y="7" width="5" height="1"/><rect x="5" y="10" width="3" height="1"/><rect x="3" y="13" width="5" height="1"/><rect x="5" y="16" width="3" height="1"/><rect x="3" y="19" width="5" height="1"/></g></g></g><text x="0" y="39" fill="#000000" font-size="5px" font-weight="bold" font-family="'Helvetica Neue', Helvetica, Arial-Unicode, Arial, Sans-serif">Created by Pham Thi Dieu Linh</text><text x="0" y="44" fill="#000000" font-size="5px" font-weight="bold" font-family="'Helvetica Neue', Helvetica, Arial-Unicode, Arial, Sans-serif">from the Noun Project</text></svg>