<svg xmlns="http://www.w3.org/2000/svg" xmlns:xlink="http://www.w3.org/1999/xlink" viewBox="0 0 24 30" version="1.1" x="0px" y="0px"><title>design_066-scale-resize-square-tool</title><desc>Created with Sketch.</desc><g stroke="none" stroke-width="1" fill="none" fill-rule="evenodd"><g transform="translate(-284.000000, -332.000000)" fill="#000000"><g transform="translate(285.000000, 333.000000)"><circle cx="2.5" cy="19.5" r="0.5"/><circle cx="6.5" cy="19.5" r="0.5"/><circle cx="4.5" cy="17.5" r="0.5"/><circle cx="8.5" cy="17.5" r="0.5"/><circle cx="2.5" cy="15.5" r="0.5"/><circle cx="6.5" cy="15.5" r="0.5"/><circle cx="4.5" cy="13.5" r="0.5"/><circle cx="8.5" cy="13.5" r="0.5"/><polygon points="0 0 2 0 2 1 1 1 1 2 0 2"/><rect x="8" y="0" width="2" height="1"/><rect x="4" y="0" width="2" height="1"/><rect x="12" y="0" width="2" height="1"/><rect x="16" y="0" width="2" height="1"/><polygon points="20 21 21 21 21 20 22 20 22 22 20 22"/><polygon points="20 0 20 1 21 1 21 2 22 2 22 0"/><polygon points="0 6 0 12 1 12 1 7 15 7 15 21 10 21 10 22 16 22 16 6"/><path d="M0,11 L11,11 L11,22 L0,22 L0,11 Z M1,12 L10,12 L10,21 L1,21 L1,12 Z"/><rect x="0" y="4" width="1" height="1"/><rect x="21" y="4" width="1" height="2"/><rect x="21" y="8" width="1" height="2"/><rect x="21" y="12" width="1" height="2"/><rect x="21" y="16" width="1" height="2"/><rect x="17" y="21" width="1" height="1"/></g></g></g><text x="0" y="39" fill="#000000" font-size="5px" font-weight="bold" font-family="'Helvetica Neue', Helvetica, Arial-Unicode, Arial, Sans-serif">Created by Pham Thi Dieu Linh</text><text x="0" y="44" fill="#000000" font-size="5px" font-weight="bold" font-family="'Helvetica Neue', Helvetica, Arial-Unicode, Arial, Sans-serif">from the Noun Project</text></svg>