<svg xmlns="http://www.w3.org/2000/svg" xmlns:xlink="http://www.w3.org/1999/xlink" viewBox="0 0 24 30" version="1.1" x="0px" y="0px"><title>shopping_080-express_shipping-truck-vehicle-lorry</title><desc>Created with Sketch.</desc><g stroke="none" stroke-width="1" fill="none" fill-rule="evenodd"><g transform="translate(-477.000000, -381.000000)" fill="#000000"><g transform="translate(477.000000, 386.000000)"><path d="M5.00468445,12 C5.00362504,12 5,1.00034732 5,1.00034732 L14.9996527,1 L14.9996529,12 L10.5,12 L10.5,13 L17.5,13 L17.5,12 L16,12 L16,1.00034732 C16,0.451900767 15.5511894,0 14.9996527,0 L5.00034732,0 C4.45190077,0 4,0.448810568 4,1.00034732 L4,11.9996527 C4,12.5490625 4.45173595,13 5.00468445,13 L6.5,13 L6.5,12 L5.00468445,12 Z"/><path d="M20.0023012,3 C20.102072,3 20.2758282,3.09820558 20.3270318,3.18354507 L22.8154752,7.33095069 C22.9116688,7.49127336 23,7.8084642 23,7.99769878 L23,12.0023012 C23,12.005438 21.5,12 21.5,12 L21.5,13 L22.9953156,13 C23.5582719,13 24,12.5571616 24,12.0023012 L24,7.99769878 C24,7.62673791 23.8621653,7.13178353 23.6729682,6.81645493 L21.1845248,2.66904931 C20.9524499,2.28225789 20.4530482,2 20.0023012,2 L15.5,2 L15.5,3 L20.0023012,3 Z"/><path d="M18.995389,4 C18.4458737,4 18,4.43863313 18,4.99047852 L18,8.00952148 C18,8.55968472 18.4418465,9 18.9976988,9 L23.5,9 L23.5,8 L18.9976988,8 C18.9933556,8 19,4.99047852 19,4.99047852 C19,4.99461576 21.5,5 21.5,5 L21.5,4 L18.995389,4 Z"/><path d="M8.5,15 C9.88071187,15 11,13.8807119 11,12.5 C11,11.1192881 9.88071187,10 8.5,10 C7.11928813,10 6,11.1192881 6,12.5 C6,13.8807119 7.11928813,15 8.5,15 Z M8.5,14 C9.32842712,14 10,13.3284271 10,12.5 C10,11.6715729 9.32842712,11 8.5,11 C7.67157288,11 7,11.6715729 7,12.5 C7,13.3284271 7.67157288,14 8.5,14 Z"/><path d="M19.5,15 C20.8807119,15 22,13.8807119 22,12.5 C22,11.1192881 20.8807119,10 19.5,10 C18.1192881,10 17,11.1192881 17,12.5 C17,13.8807119 18.1192881,15 19.5,15 Z M19.5,14 C20.3284271,14 21,13.3284271 21,12.5 C21,11.6715729 20.3284271,11 19.5,11 C18.6715729,11 18,11.6715729 18,12.5 C18,13.3284271 18.6715729,14 19.5,14 Z"/><rect x="1" y="3" width="2" height="1"/><rect x="0" y="1" width="3" height="1"/><rect x="2" y="5" width="1" height="1"/></g></g></g><text x="0" y="39" fill="#000000" font-size="5px" font-weight="bold" font-family="'Helvetica Neue', Helvetica, Arial-Unicode, Arial, Sans-serif">Created by Pham Thi Dieu Linh</text><text x="0" y="44" fill="#000000" font-size="5px" font-weight="bold" font-family="'Helvetica Neue', Helvetica, Arial-Unicode, Arial, Sans-serif">from the Noun Project</text></svg>