<svg xmlns="http://www.w3.org/2000/svg" xmlns:xlink="http://www.w3.org/1999/xlink" version="1.1" x="0px" y="0px" viewBox="0 0 100 125" enable-background="new 0 0 100 100" fill="#f3ba07" xml:space="preserve"><path d="M89.2,25.7c0.6-0.6,0.7-1.5,0.5-2.2c0.1-0.3,0.2-0.7,0.2-1c0.2-1-0.3-1.7-1-2c-0.2-0.2-0.5-0.3-0.8-0.4  c-8.6-2.3-17.3-4.6-25.9-6.9c-2.4-0.6-3,3.1-0.7,3.8C69.3,19,77,21,84.7,23.1C52,30.9,24.2,53.5,10.2,84.2c-1,2.2,2.4,3.9,3.5,1.6  c13.4-29.4,40-51.4,71.4-58.9c-1.2,5.3-2.4,10.7-3.6,16c-0.5,2.4,3.2,3.1,3.8,0.7C86.5,37.6,87.9,31.6,89.2,25.7z"/></svg>