<svg width="200" height="120" viewBox="0 0 200 120" fill="none" xmlns="http://www.w3.org/2000/svg"><mask id="a" maskUnits="userSpaceOnUse" x="0" y="0" width="200" height="120"><path fill="#C4C4C4" d="M0 0h200v120H0z"/></mask><g mask="url(#a)"><path fill="#fff" stroke="#FDCE34" stroke-width="2" d="M11 68h98v48H11z"/><path fill="#fff" stroke="#FDCE34" stroke-width="2" d="M21 80h32v18H21z"/><path fill="#fff" stroke="#FDCE34" stroke-width="2" d="M21 80h20v18H21zm68 0h11v18H89zM5 112h110v7H5zm64-72H21v18h48z"/><path fill="#fff" stroke="#FDCE34" stroke-width="2" d="M63 80h18v39H63zm54.586-12L79.802 30.217 4.236 68h113.35z"/><mask id="b" fill="#fff"><path fill-rule="evenodd" clip-rule="evenodd" d="M149.518 64.63C137.954 71.977 130 87.295 130 105c0 24.853 15.67 45 35 45s35-20.147 35-45c0-17.706-7.954-33.024-19.518-40.37A24.896 24.896 0 0 1 165 70a24.896 24.896 0 0 1-15.482-5.37z"/></mask><path fill-rule="evenodd" clip-rule="evenodd" d="M149.518 64.63C137.954 71.977 130 87.295 130 105c0 24.853 15.67 45 35 45s35-20.147 35-45c0-17.706-7.954-33.024-19.518-40.37A24.896 24.896 0 0 1 165 70a24.896 24.896 0 0 1-15.482-5.37z" fill="#fff"/><path d="M149.518 64.63l1.24-1.569-1.114-.88-1.198.761 1.072 1.689zm30.964 0l1.072-1.688-1.198-.76-1.114.88 1.24 1.569zM132 105c0-17.162 7.713-31.772 18.59-38.681l-2.144-3.377C136.195 70.724 128 86.75 128 105h4zm33 43c-17.787 0-33-18.755-33-43h-4c0 25.461 16.127 47 37 47v-4zm33-43c0 24.245-15.213 43-33 43v4c20.873 0 37-21.539 37-47h-4zm-18.59-38.681C190.287 73.229 198 87.839 198 105h4c0-18.25-8.195-34.276-20.446-42.058l-2.144 3.377zm-.168-3.258A22.891 22.891 0 0 1 165 68v4a26.892 26.892 0 0 0 16.721-5.8l-2.479-3.139zM165 68a22.891 22.891 0 0 1-14.242-4.939l-2.479 3.14A26.892 26.892 0 0 0 165 72v-4z" fill="#319018" mask="url(#b)"/><path d="M194 25c0 13.092-12.805 24-29 24s-29-10.908-29-24 12.805-24 29-24 29 10.908 29 24z" fill="#fff" stroke="#319018" stroke-width="2"/><mask id="c" fill="#fff"><path fill-rule="evenodd" clip-rule="evenodd" d="M140.956 28.13A24.992 24.992 0 0 0 140 35c0 13.807 11.193 25 25 25s25-11.193 25-25c0-10.8-6.849-20-16.44-23.496-1.44 4.355-6.066 9.408-12.559 13.156-7.766 4.484-15.815 5.723-20.045 3.47z"/></mask><path fill-rule="evenodd" clip-rule="evenodd" d="M140.956 28.13A24.992 24.992 0 0 0 140 35c0 13.807 11.193 25 25 25s25-11.193 25-25c0-10.8-6.849-20-16.44-23.496-1.44 4.355-6.066 9.408-12.559 13.156-7.766 4.484-15.815 5.723-20.045 3.47z" fill="#fff"/><path d="M140.956 28.13l.939-1.765-2.184-1.163-.679 2.38 1.924.549zm32.604-16.626l.685-1.88-1.937-.705-.647 1.957 1.899.628zM161.001 24.66l1 1.732-1-1.732zM142 35c0-2.195.307-4.315.879-6.32l-3.847-1.098A27.043 27.043 0 0 0 138 35h4zm23 23c-12.703 0-23-10.297-23-23h-4c0 14.912 12.088 27 27 27v-4zm23-23c0 12.703-10.297 23-23 23v4c14.912 0 27-12.088 27-27h-4zm-15.125-21.617C181.702 16.6 188 25.067 188 35h4c0-11.667-7.399-21.601-17.755-25.375l-1.37 3.758zm-1.214-2.507c-1.226 3.71-5.394 8.435-11.66 12.052l2 3.464c6.719-3.879 11.805-9.26 13.458-14.26l-3.798-1.256zm-11.66 12.052c-3.703 2.139-7.432 3.477-10.679 4.021-3.302.554-5.862.25-7.427-.584l-1.879 3.531c2.666 1.42 6.245 1.622 9.967.998 3.777-.633 7.955-2.156 12.018-4.502l-2-3.464z" fill="#319018" mask="url(#c)"/><circle cx="157" cy="39" r="3" fill="#319018"/><circle cx="173" cy="39" r="3" fill="#319018"/><path d="M129 55c0 24.549-15.442 44-34 44S61 79.549 61 55s15.442-44 34-44 34 19.451 34 44z" fill="#fff" stroke="#319018" stroke-width="2"/><mask id="d" fill="#fff"><path fill-rule="evenodd" clip-rule="evenodd" d="M79.518 74.63C67.954 81.977 60 97.295 60 115c0 24.853 15.67 45 35 45s35-20.147 35-45c0-17.706-7.954-33.024-19.518-40.37A24.896 24.896 0 0 1 95 80a24.894 24.894 0 0 1-15.482-5.37z"/></mask><path fill-rule="evenodd" clip-rule="evenodd" d="M79.518 74.63C67.954 81.977 60 97.295 60 115c0 24.853 15.67 45 35 45s35-20.147 35-45c0-17.706-7.954-33.024-19.518-40.37A24.896 24.896 0 0 1 95 80a24.894 24.894 0 0 1-15.482-5.37z" fill="#fff"/><path d="M79.518 74.63l1.24-1.569-1.114-.88-1.198.761 1.072 1.689zm30.964 0l1.072-1.688-1.198-.76-1.114.88 1.24 1.569zM62 115c0-17.162 7.713-31.772 18.59-38.681l-2.144-3.377C66.195 80.724 58 96.75 58 115h4zm33 43c-17.787 0-33-18.755-33-43h-4c0 25.461 16.127 47 37 47v-4zm33-43c0 24.245-15.213 43-33 43v4c20.873 0 37-21.539 37-47h-4zm-18.59-38.681C120.287 83.229 128 97.839 128 115h4c0-18.25-8.195-34.276-20.446-42.058l-2.144 3.377zm-.168-3.258A22.891 22.891 0 0 1 95 78v4a26.892 26.892 0 0 0 16.721-5.8l-2.479-3.139zM95 78a22.893 22.893 0 0 1-14.242-4.939l-2.48 3.14A26.893 26.893 0 0 0 95 82v-4z" fill="#319018" mask="url(#d)"/><mask id="e" fill="#fff"><path fill-rule="evenodd" clip-rule="evenodd" d="M70.55 39.765C70.19 41.453 70 43.205 70 45c0 13.807 11.193 25 25 25s25-11.193 25-25c0-10.906-6.983-20.18-16.722-23.597-.698 4.669-5.642 10.539-12.948 14.757-7.607 4.393-15.485 5.671-19.78 3.605z"/></mask><path fill-rule="evenodd" clip-rule="evenodd" d="M70.55 39.765C70.19 41.453 70 43.205 70 45c0 13.807 11.193 25 25 25s25-11.193 25-25c0-10.906-6.983-20.18-16.722-23.597-.698 4.669-5.642 10.539-12.948 14.757-7.607 4.393-15.485 5.671-19.78 3.605z" fill="#fff"/><path d="M70.55 39.765l.866-1.803-2.293-1.103-.53 2.489 1.956.417zm32.728-18.362l.662-1.887-2.283-.8-.357 2.392 1.978.295zM90.33 36.16l1 1.732-1-1.732zM72 45c0-1.655.174-3.266.505-4.819l-3.912-.833A27.1 27.1 0 0 0 68 45h4zm23 23c-12.703 0-23-10.297-23-23h-4c0 14.912 12.088 27 27 27v-4zm23-23c0 12.703-10.297 23-23 23v4c14.912 0 27-12.088 27-27h-4zm-15.384-21.71C111.578 26.434 118 34.97 118 45h4c0-11.782-7.545-21.796-18.06-25.484l-1.324 3.774zm-1.316-2.182c-.272 1.818-1.428 4.11-3.529 6.532-2.075 2.392-4.958 4.778-8.44 6.788l2 3.464c3.823-2.207 7.064-4.866 9.462-7.63 2.372-2.736 4.037-5.713 4.463-8.563l-3.956-.591zm-11.97 13.32c-3.627 2.094-7.28 3.422-10.48 3.987-3.25.574-5.815.326-7.434-.453l-1.734 3.605c2.677 1.288 6.198 1.434 9.863.787 3.715-.656 7.805-2.164 11.785-4.462l-2-3.464z" fill="#319018" mask="url(#e)"/><circle cx="87" cy="49" r="3" fill="#319018"/><circle cx="103" cy="49" r="3" fill="#319018"/><circle cx="135" cy="95" r="24" fill="#fff" stroke="#319018" stroke-width="2"/><circle cx="127" cy="99" r="3" fill="#319018"/><circle cx="143" cy="99" r="3" fill="#319018"/><mask id="f" fill="#fff"><path fill-rule="evenodd" clip-rule="evenodd" d="M123.025 84h23.948c-.412-7.818-5.615-14-11.974-14-6.358 0-11.562 6.182-11.974 14z"/></mask><path fill-rule="evenodd" clip-rule="evenodd" d="M123.025 84h23.948c-.412-7.818-5.615-14-11.974-14-6.358 0-11.562 6.182-11.974 14z" fill="#fff"/><path d="M123.025 84l-1.997-.105-.111 2.105h2.108v-2zm23.948 0v2h2.108l-.111-2.105-1.997.105zm-23.948 2h23.948v-4h-23.948v4zm11.974-14c4.926 0 9.599 4.937 9.977 12.105l3.994-.21C148.524 75.427 142.79 68 134.999 68v4zm-9.976 12.105C125.4 76.937 130.073 72 134.999 72v-4c-7.791 0-13.525 7.427-13.971 15.895l3.995.21z" fill="#319018" mask="url(#f)"/></g></svg>