<svg width="24" height="25" viewBox="0 0 24 25" fill="none" xmlns="http://www.w3.org/2000/svg">
<path d="M22.2234 0.663574H1.77187C0.792187 0.663574 0 1.43701 0 2.39326V22.9292C0 23.8854 0.792187 24.6636 1.77187 24.6636H22.2234C23.2031 24.6636 24 23.8855 24 22.9339V2.39326C24 1.43701 23.2031 0.663574 22.2234 0.663574ZM7.12031 21.1151H3.55781V9.65889H7.12031V21.1151ZM5.33906 8.09795C4.19531 8.09795 3.27188 7.17451 3.27188 6.03545C3.27188 4.89639 4.19531 3.97295 5.33906 3.97295C6.47813 3.97295 7.40156 4.89639 7.40156 6.03545C7.40156 7.16982 6.47813 8.09795 5.33906 8.09795ZM20.4516 21.1151H16.8937V15.5464C16.8937 14.2198 16.8703 12.5089 15.0422 12.5089C13.1906 12.5089 12.9094 13.9573 12.9094 15.4526V21.1151H9.35625V9.65889H12.7687V11.2245H12.8156C13.2891 10.3245 14.4516 9.37295 16.1813 9.37295C19.7859 9.37295 20.4516 11.7448 20.4516 14.8292V21.1151Z" fill="#98A2B3"/>
</svg>
