<svg width="24" height="25" viewBox="0 0 24 25" fill="none" xmlns="http://www.w3.org/2000/svg">
<path fill-rule="evenodd" clip-rule="evenodd" d="M12 0.663574C5.37527 0.663574 0 6.03885 0 12.6636C0 19.2883 5.37527 24.6636 12 24.6636C18.6117 24.6636 24 19.2883 24 12.6636C24 6.03885 18.6117 0.663574 12 0.663574ZM19.9262 6.19503C21.3579 7.93906 22.217 10.1646 22.243 12.5724C21.9046 12.5074 18.5206 11.8176 15.1106 12.2471C15.0325 12.0779 14.9675 11.8956 14.8894 11.7135C14.6811 11.2189 14.4469 10.7113 14.2126 10.2297C17.9869 8.69397 19.705 6.48136 19.9262 6.19503ZM12 2.43364C14.603 2.43364 16.9848 3.40978 18.7939 5.01065C18.6117 5.27095 17.0629 7.34037 13.4186 8.70695C11.7397 5.62236 9.87855 3.09741 9.5922 2.70696C10.3601 2.52474 11.1671 2.43364 12 2.43364ZM7.63995 3.39676C7.91325 3.76119 9.73538 6.29915 11.4404 9.31865C6.65076 10.5942 2.42083 10.5681 1.96529 10.5681C2.62907 7.39242 4.77657 4.75034 7.63995 3.39676ZM1.74404 12.6766C1.74404 12.5724 1.74404 12.4683 1.74404 12.3642C2.18655 12.3772 7.15835 12.4423 12.2733 10.9065C12.5727 11.4792 12.846 12.0648 13.1063 12.6505C12.9761 12.6896 12.8329 12.7287 12.7028 12.7677C7.41865 14.4726 4.60738 19.1321 4.3731 19.5225C2.7462 17.7135 1.74404 15.3057 1.74404 12.6766ZM12 22.9195C9.6312 22.9195 7.44469 22.1126 5.71367 20.759C5.89588 20.3816 7.97827 16.3729 13.757 14.3556C13.783 14.3425 13.7961 14.3425 13.8221 14.3295C15.2668 18.0648 15.8525 21.2015 16.0087 22.0996C14.7722 22.6332 13.4186 22.9195 12 22.9195ZM17.7136 21.1625C17.6096 20.5377 17.0629 17.5443 15.7223 13.8609C18.9371 13.3533 21.7484 14.1864 22.0998 14.3035C21.6573 17.1538 20.0173 19.6137 17.7136 21.1625Z" fill="#98A2B3"/>
</svg>
