<svg width="40" height="40" viewBox="0 0 40 40" fill="none" xmlns="http://www.w3.org/2000/svg">
<rect width="40" height="40" rx="8" fill="#7360F2"/>
<path d="M29.0977 10.3438C28.4883 9.82812 26.0508 8.04688 20.707 8.04688C20.707 8.04688 14.3789 7.67188 11.2852 10.4844C9.55078 12.2188 8.94141 14.7031 8.89453 17.8438C8.84766 20.9375 8.75391 26.7969 14.3789 28.3906V30.7812C14.3789 30.7812 14.332 31.7656 14.9883 32C15.7852 32.2344 16.207 31.4844 16.957 30.6875C17.3789 30.2188 17.9414 29.6094 18.3633 29.0938C22.207 29.4219 25.1602 28.6719 25.5352 28.5781C26.2852 28.2969 30.6914 27.7344 31.3945 21.9219C32.1445 15.875 31.0664 12.0781 29.0977 10.3438ZM29.707 21.4531C29.1445 26.3281 25.5352 26.6562 24.8789 26.8906C24.5977 26.9375 22.0195 27.5938 18.7383 27.4062C18.7383 27.4062 16.3008 30.3125 15.5508 31.1094C15.3164 31.3438 15.0352 31.3438 15.0352 30.8281C15.0352 30.5 15.0352 26.7969 15.0352 26.7969C10.3008 25.4844 10.582 20.5156 10.6289 17.9375C10.6758 15.3125 11.1445 13.2031 12.5977 11.75C15.2227 9.35938 20.6133 9.73438 20.6133 9.73438C25.1602 9.73438 27.3164 11.1406 27.832 11.5625C29.5195 13.0156 30.3633 16.4375 29.707 21.4531ZM23.1914 17.7031C23.1445 16.3438 22.4414 15.5938 21.1289 15.5C20.707 15.5 20.6602 16.1094 21.082 16.1094C22.0664 16.2031 22.5352 16.6719 22.6289 17.7031C22.6289 18.125 23.2383 18.0781 23.1914 17.7031ZM24.1758 18.2188C24.1758 18.5938 24.7852 18.6406 24.7852 18.2188C24.832 15.9688 23.3789 14.0938 20.6602 13.9062C20.2383 13.8594 20.1914 14.4688 20.6133 14.5156C22.957 14.6562 24.2227 16.25 24.1758 18.2188ZM26.3789 18.8281C26.332 14.75 23.5664 12.3594 20.0977 12.3125C19.7227 12.3125 19.7227 12.9219 20.0977 12.9219C23.1914 12.9688 25.7227 15.0312 25.7695 18.8281C25.7695 19.25 26.3789 19.25 26.3789 18.8281ZM25.8164 23.4219C26.0508 23 26.0039 22.625 25.6758 22.3438C25.0664 21.7812 24.2227 21.1719 23.5195 20.7969C23.0039 20.5156 22.4883 20.7031 22.2539 20.9844L21.832 21.5469C21.5977 21.8281 21.1758 21.7812 21.1758 21.7812C18.0352 20.9844 17.1914 17.8438 17.1914 17.8438C17.1914 17.8438 17.1914 17.4219 17.4727 17.1875L18.0352 16.7188C18.3164 16.4844 18.457 15.9688 18.1758 15.4531C18.0352 15.1719 17.707 14.6562 17.4727 14.375C17.2383 14 16.6289 13.3438 16.6289 13.3438C16.3945 12.9688 15.9727 12.9219 15.5508 13.1562H15.5039C14.6133 13.625 13.6289 14.6094 13.957 15.5469C13.957 15.5469 14.1914 16.3906 15.1758 18.1719C15.6445 19.0625 16.1602 19.7656 16.6289 20.375C17.1445 21.0312 17.8477 21.7344 18.5977 22.3438C20.0977 23.5156 22.3945 24.7344 23.3789 25.0156H23.4258C24.3633 25.3438 25.3477 24.3594 25.8164 23.4688V23.4219Z" fill="white"/>
</svg>
