<svg width="40" height="40" viewBox="0 0 40 40" fill="none" xmlns="http://www.w3.org/2000/svg">
<rect width="40" height="40" rx="8" fill="#25D366"/>
<path d="M27.5977 12.5938C25.6758 10.625 23.0508 9.5 20.2383 9.5C14.5195 9.5 9.83203 14.1875 9.83203 19.9062C9.83203 21.7812 10.3477 23.5625 11.2383 25.1094L9.78516 30.5L15.2695 29.0938C16.8164 29.8906 18.5039 30.3594 20.2383 30.3594C26.0039 30.3594 30.7852 25.6719 30.7852 19.9531C30.7852 17.1406 29.5664 14.5625 27.5977 12.5938ZM20.2383 28.5781C18.6914 28.5781 17.1914 28.1562 15.832 27.3594L15.5508 27.1719L12.2695 28.0625L13.1602 24.875L12.9258 24.5469C12.082 23.1406 11.6133 21.5469 11.6133 19.9062C11.6133 15.1719 15.5039 11.2812 20.2852 11.2812C22.582 11.2812 24.7383 12.1719 26.3789 13.8125C28.0195 15.4531 29.0039 17.6094 29.0039 19.9531C29.0039 24.6875 25.0195 28.5781 20.2383 28.5781ZM25.0195 22.1094C24.7383 21.9688 23.4727 21.3594 23.2383 21.2656C23.0039 21.1719 22.8164 21.125 22.6289 21.4062C22.4883 21.6406 21.9727 22.25 21.832 22.4375C21.6445 22.5781 21.5039 22.625 21.2695 22.4844C19.7227 21.7344 18.7383 21.125 17.707 19.3906C17.4258 18.9219 17.9883 18.9688 18.457 17.9844C18.5508 17.7969 18.5039 17.6562 18.457 17.5156C18.4102 17.375 17.8477 16.1094 17.6602 15.5938C17.4258 15.0781 17.2383 15.125 17.0508 15.125C16.9102 15.125 16.7227 15.125 16.582 15.125C16.3945 15.125 16.1133 15.1719 15.8789 15.4531C15.6445 15.7344 14.9883 16.3438 14.9883 17.6094C14.9883 18.9219 15.8789 20.1406 16.0195 20.3281C16.1602 20.4688 17.8477 23.0938 20.4727 24.2188C22.1133 24.9688 22.7695 25.0156 23.6133 24.875C24.082 24.8281 25.1133 24.2656 25.3477 23.6562C25.582 23.0469 25.582 22.5312 25.4883 22.4375C25.4414 22.2969 25.2539 22.25 25.0195 22.1094Z" fill="white"/>
</svg>
