<svg width="22" height="14" viewBox="0 0 22 14" fill="none" xmlns="http://www.w3.org/2000/svg">
<path d="M4.51855 0.000793457H9.87673C10.6247 0.000793457 11.0899 0.628372 10.9154 1.40088L8.42078 12.4262C8.24473 13.1961 7.49587 13.8242 6.74739 13.8242H1.38973C0.642819 13.8242 0.176572 13.1961 0.351055 12.4262L2.84672 1.40088C3.0212 0.628372 3.76968 0.000793457 4.51855 0.000793457Z" fill="#E21836"/>
<path d="M9.43032 0H15.5921C16.3399 0 16.0027 0.627578 15.8268 1.40009L13.3326 12.4255C13.1576 13.1953 13.2121 13.8234 12.4628 13.8234H6.30098C5.55159 13.8234 5.08782 13.1953 5.26387 12.4255L7.75797 1.40009C7.93506 0.627578 8.68197 0 9.43032 0Z" fill="#00447C"/>
<path d="M15.348 0H20.7062C21.4552 0 21.9204 0.627578 21.7445 1.40009L19.2503 12.4255C19.0742 13.1953 18.3248 13.8234 17.576 13.8234H12.2203C11.4709 13.8234 11.0061 13.1953 11.1816 12.4255L13.6762 1.40009C13.8507 0.627578 14.5986 0 15.348 0Z" fill="#007B84"/>
<path d="M5.91807 3.53326C5.36706 3.53904 5.20433 3.53326 5.15235 3.52062C5.13237 3.61836 4.76055 5.384 4.7595 5.38548C4.67944 5.74269 4.6212 5.99732 4.42334 6.16175C4.31102 6.25734 4.17989 6.30345 4.02787 6.30345C3.78352 6.30345 3.64116 6.17855 3.61726 5.94167L3.61269 5.86033C3.61269 5.86033 3.68714 5.38185 3.68714 5.37916C3.68714 5.37916 4.07737 3.77015 4.14724 3.55746C4.1509 3.54536 4.15195 3.53904 4.15286 3.53326C3.39328 3.54012 3.25863 3.53326 3.24936 3.52062C3.24427 3.53797 3.22546 3.63772 3.22546 3.63772L2.82699 5.45122L2.79278 5.60502L2.72656 6.10811C2.72656 6.25734 2.75503 6.37914 2.81171 6.48212C2.99325 6.80869 3.51108 6.85762 3.80402 6.85762C4.18146 6.85762 4.53552 6.77507 4.77478 6.62436C5.1901 6.37175 5.29876 5.97689 5.39566 5.62599L5.44059 5.44598C5.44059 5.44598 5.84258 3.77485 5.91089 3.55746C5.9135 3.54536 5.91454 3.53904 5.91807 3.53326ZM7.28582 4.88137C7.18891 4.88137 7.01182 4.90557 6.85274 4.98583C6.79502 5.01635 6.74043 5.05157 6.68283 5.08666L6.73481 4.89347L6.70634 4.86094C6.369 4.93125 6.29351 4.94066 5.98189 4.98583L5.95577 5.00371C5.9196 5.31253 5.88747 5.54471 5.75334 6.15172C5.70228 6.37543 5.64925 6.60129 5.5961 6.82447L5.61046 6.85284C5.92978 6.83549 6.02669 6.83549 6.30422 6.8402L6.32668 6.81506C6.36194 6.62912 6.36651 6.58556 6.44461 6.20899C6.48131 6.03045 6.55785 5.63815 6.59559 5.49846C6.66494 5.46539 6.73337 5.43285 6.79867 5.43285C6.95422 5.43285 6.93528 5.57254 6.92928 5.6282C6.92261 5.72164 6.86593 6.02682 6.80782 6.28885L6.76903 6.45798C6.74199 6.58288 6.71235 6.70428 6.68531 6.8281L6.69707 6.85284C7.01182 6.83549 7.10781 6.83549 7.37659 6.8402L7.40819 6.81506C7.45677 6.52466 7.47101 6.44695 7.55721 6.02413L7.60057 5.82986C7.6848 5.44966 7.72712 5.25687 7.66339 5.09984C7.59599 4.92385 7.43431 4.88137 7.28582 4.88137ZM8.81375 5.27944C8.64645 5.31251 8.53975 5.33456 8.4337 5.34881C8.32856 5.36616 8.22604 5.38189 8.06436 5.40501L8.05156 5.41698L8.0398 5.42652C8.02296 5.55048 8.0112 5.65763 7.98887 5.7836C7.96993 5.91388 7.94081 6.0619 7.8934 6.27459C7.8567 6.4374 7.83776 6.49413 7.81687 6.5514C7.79649 6.60868 7.77403 6.66433 7.73276 6.82446L7.74243 6.83924L7.75052 6.85282C7.90163 6.84543 8.00049 6.84019 8.1021 6.83924C8.20358 6.83548 8.30871 6.83924 8.47144 6.84019L8.48568 6.82822L8.50096 6.81504C8.52447 6.67065 8.52799 6.6318 8.54236 6.56135C8.55659 6.4858 8.58115 6.3812 8.64135 6.10183C8.66983 5.97061 8.70156 5.8398 8.73108 5.70589C8.76177 5.57253 8.7939 5.44118 8.82446 5.30996L8.81989 5.2941L8.81375 5.27944ZM8.81731 4.74272C8.66529 4.65036 8.39848 4.67967 8.2189 4.80725C8.03984 4.93228 8.01947 5.10975 8.17097 5.20332C8.32038 5.29313 8.58824 5.26637 8.76625 5.13771C8.94491 5.00999 8.96724 4.83414 8.81731 4.74272ZM9.73668 6.88177C10.0442 6.88177 10.3595 6.79452 10.5968 6.53558C10.7794 6.32558 10.8631 6.01313 10.8921 5.88447C10.9865 5.45802 10.913 5.25891 10.8207 5.13765C10.6804 4.95279 10.4325 4.8935 10.1754 4.8935C10.0207 4.8935 9.65244 4.90923 9.36473 5.18228C9.15812 5.37924 9.06265 5.64651 9.00505 5.90276C8.94694 6.16385 8.88007 6.63386 9.29995 6.80877C9.42951 6.86604 9.61627 6.88177 9.73668 6.88177ZM9.71265 5.92225C9.78357 5.59932 9.86728 5.32828 10.0809 5.32828C10.2484 5.32828 10.2605 5.52995 10.1861 5.85396C10.1728 5.92588 10.1116 6.19329 10.029 6.30716C9.97124 6.39119 9.90294 6.44214 9.82745 6.44214C9.80499 6.44214 9.67138 6.44214 9.66929 6.23792C9.66825 6.13709 9.68823 6.03411 9.71265 5.92225ZM11.661 6.84024L11.685 6.8151C11.7191 6.62916 11.7247 6.58547 11.8002 6.20903C11.8379 6.03049 11.916 5.63819 11.9527 5.4985C12.0222 5.4653 12.0895 5.43276 12.1569 5.43276C12.3114 5.43276 12.2926 5.57245 12.2864 5.62811C12.2808 5.72168 12.2241 6.02673 12.165 6.28876L12.1283 6.45788C12.1002 6.58292 12.0696 6.70418 12.0426 6.82814L12.0543 6.85288C12.3701 6.83553 12.4625 6.83553 12.7328 6.84024L12.7655 6.8151C12.8129 6.52457 12.8257 6.44686 12.9145 6.02417L12.9568 5.82977C13.0414 5.44957 13.0843 5.25691 13.0216 5.09988C12.9522 4.92389 12.7895 4.88141 12.6431 4.88141C12.546 4.88141 12.368 4.90548 12.2099 4.98587C12.1533 5.01639 12.0967 5.05148 12.041 5.0867L12.0895 4.89351L12.0635 4.86084C11.7263 4.93129 11.6492 4.9407 11.338 4.98587L11.3141 5.00375C11.2763 5.31257 11.2457 5.54462 11.1115 6.15176C11.0605 6.37547 11.0074 6.60134 10.9544 6.82451L10.9686 6.85288C11.2885 6.83553 11.384 6.83553 11.661 6.84024ZM13.9812 6.85281C14.001 6.75305 14.1189 6.16177 14.12 6.16177C14.12 6.16177 14.2204 5.72793 14.2266 5.7122C14.2266 5.7122 14.2582 5.66703 14.2898 5.64915H14.3363C14.775 5.64915 15.2703 5.64915 15.6586 5.35512C15.9228 5.15346 16.1034 4.85567 16.184 4.49375C16.2049 4.40501 16.2203 4.29948 16.2203 4.19394C16.2203 4.05533 16.1933 3.9182 16.1152 3.81105C15.9172 3.52589 15.5229 3.52065 15.0678 3.5185C15.0663 3.5185 14.8434 3.52065 14.8434 3.52065C14.2608 3.52804 14.0271 3.52589 13.9311 3.51379C13.923 3.55749 13.9078 3.6352 13.9078 3.6352C13.9078 3.6352 13.6991 4.63088 13.6991 4.63249C13.6991 4.63249 13.1996 6.74942 13.1761 6.84918C13.6848 6.84286 13.8934 6.84286 13.9812 6.85281ZM14.3679 5.08408C14.3679 5.08408 14.5898 4.09042 14.5887 4.09418L14.5959 4.04323L14.599 4.00437L14.6877 4.01379C14.6877 4.01379 15.1453 4.05425 15.1561 4.05533C15.3367 4.12726 15.4111 4.31265 15.3591 4.55465C15.3117 4.77581 15.1724 4.96174 14.9933 5.05155C14.8459 5.12764 14.6653 5.13396 14.4791 5.13396H14.3587L14.3679 5.08408ZM15.7494 5.94066C15.6908 6.19798 15.6234 6.66799 16.0412 6.83551C16.1744 6.89385 16.2938 6.9112 16.4151 6.90488C16.5432 6.89775 16.6619 6.83161 16.7719 6.73642C16.762 6.77555 16.7521 6.81467 16.7421 6.85393L16.7611 6.87907C17.0616 6.86603 17.1548 6.86603 17.4804 6.86858L17.5099 6.84546C17.5575 6.55775 17.6023 6.27838 17.7258 5.72797C17.786 5.46433 17.8461 5.20324 17.9079 4.94067L17.8982 4.91177C17.562 4.9759 17.4722 4.98961 17.1488 5.0368L17.1243 5.05737C17.121 5.08412 17.1176 5.1098 17.1145 5.13548C17.0642 5.05186 16.9913 4.98047 16.8789 4.93597C16.7351 4.87775 16.3973 4.95277 16.107 5.22488C15.903 5.41915 15.8051 5.68535 15.7494 5.94066ZM16.4555 5.95639C16.5274 5.63924 16.6101 5.37089 16.8243 5.37089C16.9597 5.37089 17.031 5.49955 17.0165 5.71896C17.005 5.77368 16.9926 5.83136 16.9779 5.89656C16.9564 5.9908 16.9332 6.08424 16.9106 6.17781C16.8876 6.24181 16.8608 6.30217 16.8315 6.34237C16.7763 6.42277 16.6452 6.47265 16.5697 6.47265C16.5483 6.47265 16.4161 6.47265 16.4116 6.27206C16.4105 6.17217 16.4305 6.06932 16.4555 5.95639ZM20.1424 4.9092L20.1164 4.87868C19.7838 4.94805 19.7236 4.95908 19.418 5.00156L19.3955 5.02469C19.3944 5.02845 19.3935 5.03423 19.392 5.03948L19.3909 5.03423C19.1634 5.57456 19.1701 5.458 18.9849 5.88337C18.9838 5.86401 18.9838 5.85191 18.9828 5.83134L18.9364 4.9092L18.9073 4.87868C18.5589 4.94805 18.5506 4.95908 18.2288 5.00156L18.2038 5.02469C18.2002 5.03571 18.2002 5.04781 18.1981 5.06099L18.2002 5.06569C18.2405 5.2773 18.2308 5.23011 18.2711 5.56407C18.2899 5.72796 18.315 5.89278 18.3338 6.05465C18.3656 6.32555 18.3833 6.45892 18.4221 6.87233C18.2048 7.24151 18.1533 7.3812 17.9441 7.7052L17.9456 7.70843L17.7982 7.94827C17.7814 7.97355 17.7661 7.99089 17.7447 7.99829C17.7212 8.01025 17.6906 8.0124 17.6482 8.0124H17.5665L17.4452 8.42783L17.8614 8.43523C18.1058 8.43415 18.2594 8.31651 18.3421 8.15841L18.6038 7.69673H18.5996L18.6272 7.6642C18.8032 7.27405 20.1424 4.9092 20.1424 4.9092ZM15.7494 10.3652H15.5728L16.2264 8.14006H16.4432L16.512 7.91083L16.5187 8.16574C16.5106 8.3233 16.631 8.46299 16.9473 8.43986H17.3131L17.439 8.0114H17.3013C17.2222 8.0114 17.1855 7.99083 17.1901 7.94673L17.1834 7.68739H16.506V7.68873C16.287 7.69344 15.6329 7.71038 15.5005 7.74668C15.3402 7.78916 15.1714 7.91419 15.1714 7.91419L15.2377 7.6847H14.604L14.472 8.14006L13.8097 10.3992H13.6812L13.5552 10.8246H14.8173L14.775 10.9664H15.3969L15.4382 10.8246H15.6127L15.7494 10.3652ZM15.2316 8.59219C15.1301 8.62109 14.9413 8.70875 14.9413 8.70875L15.1092 8.14006H15.6127L15.4912 8.55441C15.4912 8.55441 15.3357 8.56382 15.2316 8.59219ZM15.2412 9.40462C15.2412 9.40462 15.0831 9.42506 14.979 9.44926C14.8765 9.48126 14.6842 9.58209 14.6842 9.58209L14.8577 8.99027H15.3637L15.2412 9.40462ZM14.9591 10.3705H14.4541L14.6005 9.871H15.104L14.9591 10.3705ZM16.1754 8.99027H16.9034L16.7987 9.33902H16.0611L15.9504 9.7203H16.5958L16.1071 10.4287C16.0729 10.4807 16.0422 10.4991 16.0081 10.5138C15.9739 10.5317 15.9289 10.5526 15.877 10.5526H15.6979L15.5749 10.9702H16.0432C16.2867 10.9702 16.4304 10.8562 16.5366 10.7066L16.8717 10.2344L16.9437 10.7138C16.959 10.8036 17.0217 10.8562 17.0641 10.8766C17.111 10.9008 17.1595 10.9424 17.2279 10.9486C17.3013 10.9518 17.3543 10.9543 17.3896 10.9543H17.6197L17.7579 10.487H17.6671C17.615 10.487 17.5253 10.478 17.51 10.4612C17.4947 10.4408 17.4947 10.4093 17.4865 10.3615L17.4135 9.88095H17.1145L17.2457 9.7203H17.9819L18.0951 9.33902H17.4135L17.5197 8.99027H18.1992L18.3252 8.56019H16.2993L16.1754 8.99027ZM10.0269 10.4676L10.1968 9.8857H10.8951L11.0227 9.45293H10.3238L10.4305 9.09477H11.1135L11.2401 8.67572H9.53101L9.40707 9.09477H9.79535L9.69178 9.45293H9.30246L9.17343 9.89309H9.56157L9.33511 10.6629C9.30455 10.7648 9.34947 10.8037 9.37795 10.851C9.40707 10.8971 9.43659 10.9276 9.50293 10.945C9.57137 10.9607 9.61825 10.9701 9.68199 10.9701H10.4693L10.6095 10.4907L10.2606 10.54C10.1932 10.54 10.0065 10.5317 10.0269 10.4676ZM10.107 7.68208L9.93004 8.01133C9.89216 8.08326 9.85808 8.12789 9.82738 8.14846C9.80035 8.1658 9.7468 8.17306 9.66923 8.17306H9.57689L9.45347 8.59427H9.76013C9.90757 8.59427 10.0208 8.53861 10.0749 8.51078C10.133 8.47879 10.1483 8.49707 10.1932 8.45243L10.2968 8.36007H11.2543L11.3814 7.92152H10.6805L10.8028 7.68208H10.107ZM11.5207 10.476C11.5044 10.4518 11.5161 10.4092 11.5411 10.3205L11.8028 9.42872H12.7338C12.8695 9.4267 12.9675 9.42509 13.0312 9.42038C13.0997 9.41299 13.1741 9.38785 13.2552 9.34267C13.3389 9.29535 13.3818 9.24547 13.4179 9.1882C13.4583 9.13106 13.5231 9.00603 13.5787 8.81324L13.9077 7.68473L12.9415 7.69051C12.9415 7.69051 12.644 7.73568 12.513 7.78556C12.3808 7.84122 12.192 7.99663 12.192 7.99663L12.2792 7.68728H11.6824L10.8468 10.54C10.8171 10.6508 10.7973 10.7312 10.7927 10.7795C10.7911 10.8315 10.8564 10.883 10.8988 10.9218C10.9488 10.9607 11.0227 10.9544 11.0936 10.9607C11.1682 10.9665 11.2742 10.9701 11.4206 10.9701H11.8793L12.0201 10.4807L11.6095 10.5207C11.5656 10.5207 11.5339 10.4965 11.5207 10.476ZM11.9717 8.82641H12.9496L12.8874 9.027C12.8787 9.03171 12.8578 9.01705 12.7583 9.02915H11.9114L11.9717 8.82641ZM12.1676 8.15366H13.1537L13.0828 8.39526C13.0828 8.39526 12.618 8.39055 12.5436 8.40467C12.216 8.46302 12.0247 8.64317 12.0247 8.64317L12.1676 8.15366ZM12.9093 9.69872C12.9012 9.7287 12.8884 9.74698 12.8705 9.7607C12.8507 9.77387 12.8185 9.77858 12.7706 9.77858H12.6313L12.6395 9.53429H12.0599L12.0364 10.7285C12.0355 10.8147 12.0436 10.8646 12.1048 10.9045C12.1661 10.9544 12.3548 10.9607 12.6088 10.9607H12.972L13.1031 10.5137L12.7869 10.5316L12.6818 10.5379C12.6674 10.5316 12.6537 10.5258 12.6384 10.5101C12.6251 10.4965 12.6027 10.5048 12.6063 10.4187L12.6088 10.1125L12.9404 10.0984C13.1195 10.0984 13.196 10.0385 13.2613 9.98132C13.3236 9.9266 13.344 9.86368 13.3675 9.77858L13.4231 9.50754H12.9674L12.9093 9.69872Z" fill="#FEFEFE"/>
</svg>
