<svg width="24" height="25" viewBox="0 0 24 25" fill="none" xmlns="http://www.w3.org/2000/svg">
<g clip-path="url(#clip0_5834_148562)">
<path d="M19 17.5636C20.2151 17.3169 21.2953 16.6274 22.0307 15.6291C22.7661 14.6308 23.1043 13.3948 22.9797 12.1611C22.8551 10.9275 22.2765 9.7841 21.3563 8.953C20.4361 8.12191 19.2399 7.66238 18 7.66363H16.74C16.4087 6.38095 15.764 5.20062 14.8639 4.22862C13.9638 3.25661 12.8363 2.52336 11.5828 2.09469C10.3293 1.66603 8.98897 1.55536 7.68213 1.77264C6.37529 1.98991 5.14287 2.52833 4.0955 3.33954C3.04814 4.15075 2.21862 5.20937 1.68143 6.42034C1.14424 7.63132 0.916185 8.95674 1.01775 10.2776C1.11931 11.5985 1.54731 12.8735 2.26332 13.9881C2.97932 15.1027 3.96093 16.0221 5.12 16.6636M13 11.6636L9 17.6636H15L11 23.6636" stroke="#0BA5EC" stroke-width="2" stroke-linecap="round" stroke-linejoin="round"/>
</g>
<defs>
<clipPath id="clip0_5834_148562">
<rect width="24" height="24" fill="white" transform="translate(0 0.663574)"/>
</clipPath>
</defs>
</svg>
