<svg width="24" height="21" viewBox="0 0 24 21" fill="none" xmlns="http://www.w3.org/2000/svg">
<path d="M7.55016 20.4138C16.6045 20.4138 21.5583 12.9105 21.5583 6.40568C21.5583 6.19474 21.5536 5.97912 21.5442 5.76818C22.5079 5.07128 23.3395 4.20807 24 3.21912C23.1025 3.61842 22.1496 3.8792 21.1739 3.99255C22.2013 3.37673 22.9705 2.40929 23.3391 1.26959C22.3726 1.84238 21.3156 2.24643 20.2134 2.46443C19.4708 1.67538 18.489 1.15293 17.4197 0.977869C16.3504 0.802804 15.2532 0.984869 14.2977 1.49591C13.3423 2.00696 12.5818 2.81852 12.1338 3.80513C11.6859 4.79174 11.5754 5.89843 11.8195 6.95412C9.86249 6.85591 7.94794 6.34752 6.19998 5.46192C4.45203 4.57631 2.90969 3.33326 1.67297 1.81334C1.0444 2.89706 0.852057 4.17946 1.13503 5.39991C1.418 6.62036 2.15506 7.68727 3.19641 8.3838C2.41463 8.35898 1.64998 8.1485 0.965625 7.76974V7.83068C0.964925 8.96797 1.3581 10.0704 2.07831 10.9506C2.79852 11.8308 3.80132 12.4344 4.91625 12.6588C4.19206 12.8569 3.43198 12.8858 2.69484 12.7432C3.00945 13.7213 3.62157 14.5767 4.44577 15.1902C5.26997 15.8036 6.26512 16.1444 7.29234 16.1651C5.54842 17.5349 3.39417 18.2779 1.17656 18.2744C0.783287 18.2738 0.390399 18.2497 0 18.2022C2.25286 19.6476 4.87353 20.4152 7.55016 20.4138Z" fill="#98A2B3"/>
</svg>
