<svg width="22" height="14" viewBox="0 0 22 14" fill="none" xmlns="http://www.w3.org/2000/svg">
<path d="M13.2576 6.70576C13.2576 10.4092 10.2898 13.4115 6.62881 13.4115C2.96782 13.4115 0 10.4092 0 6.70576C0 3.00227 2.96782 0 6.62881 0C10.2898 0 13.2576 3.00227 13.2576 6.70576Z" fill="#ED0006"/>
<path d="M21.8572 6.70576C21.8572 10.4092 18.8894 13.4115 15.2284 13.4115C11.5674 13.4115 8.59961 10.4092 8.59961 6.70576C8.59961 3.00227 11.5674 0 15.2284 0C18.8894 0 21.8572 3.00227 21.8572 6.70576Z" fill="#0099DF"/>
<path fill-rule="evenodd" clip-rule="evenodd" d="M10.9286 1.60193C12.3539 2.83189 13.2576 4.66205 13.2576 6.70575C13.2576 8.74944 12.3539 10.5796 10.9286 11.8096C9.50336 10.5796 8.59961 8.74944 8.59961 6.70575C8.59961 4.66205 9.50336 2.83189 10.9286 1.60193Z" fill="#6C6BBD"/>
</svg>
