<svg width="25" height="25" viewBox="0 0 25 25" fill="none" xmlns="http://www.w3.org/2000/svg">
<g clip-path="url(#clip0_8820_27533)">
<path d="M12.6667 1.66357V3.66357M12.6667 21.6636V23.6636M4.88669 4.88357L6.30669 6.30357M19.0267 19.0236L20.4467 20.4436M1.66669 12.6636H3.66669M21.6667 12.6636H23.6667M4.88669 20.4436L6.30669 19.0236M19.0267 6.30357L20.4467 4.88357M17.6667 12.6636C17.6667 15.425 15.4281 17.6636 12.6667 17.6636C9.90526 17.6636 7.66669 15.425 7.66669 12.6636C7.66669 9.90215 9.90526 7.66357 12.6667 7.66357C15.4281 7.66357 17.6667 9.90215 17.6667 12.6636Z" stroke="#FDB022" stroke-width="2" stroke-linecap="round" stroke-linejoin="round"/>
</g>
<defs>
<clipPath id="clip0_8820_27533">
<rect width="24" height="24" fill="white" transform="translate(0.666687 0.663574)"/>
</clipPath>
</defs>
</svg>
