<svg width="36" height="37" viewBox="0 0 36 37" fill="none" xmlns="http://www.w3.org/2000/svg">
<path d="M30 27.0336C31.5769 26.343 32.8682 25.131 33.6571 23.6009C34.4461 22.0709 34.6847 20.316 34.3329 18.6309C33.9811 16.9458 33.0603 15.433 31.7251 14.3464C30.3898 13.2598 28.7215 12.6657 27 12.6636H25.11C24.6345 10.8224 23.7283 9.12055 22.466 7.69833C21.2036 6.27611 19.6214 5.17425 17.8496 4.48356C16.0779 3.79288 14.1674 3.53316 12.2755 3.7258C10.3837 3.91844 8.56471 4.55793 6.96854 5.59156C5.37236 6.62519 4.04469 8.02336 3.09495 9.67083C2.14521 11.3183 1.6006 13.1679 1.50601 15.0672C1.41142 16.9664 1.76956 18.861 2.5509 20.5947C3.33225 22.3283 4.51442 23.8515 6 25.0386M12 24.6636H12.015M12 30.6636H12.015M18 27.6636H18.015M18 33.6636H18.015M24 24.6636H24.015M24 30.6636H24.015" stroke="#0BA5EC" stroke-width="2" stroke-linecap="round" stroke-linejoin="round"/>
</svg>
