<svg width="14" height="14" viewBox="0 0 14 14" fill="none" xmlns="http://www.w3.org/2000/svg">
<path d="M13.7997 5.77911C13.7296 5.34609 13.344 5.05742 12.8182 5.05742C12.6429 5.05742 12.5027 5.05742 12.3274 5.05742C12.012 5.02133 11.9419 5.12959 11.9419 5.38218C11.9419 6.64515 11.9419 7.87203 11.9419 9.13499C11.9419 9.78452 11.3109 10.4701 10.5748 10.6145C8.26121 11.1557 5.94766 11.6609 3.63412 12.2022C3.38874 12.2744 3.10831 12.2744 2.82788 12.2744C2.72272 12.2744 2.54746 12.2022 2.5124 12.0939C2.47735 12.0218 2.58251 11.8774 2.65262 11.8053C2.75778 11.7331 2.89799 11.6609 3.03821 11.5888C3.45885 11.4444 3.91455 11.3001 4.33519 11.1557C6.05282 10.5784 7.77046 10.001 9.48809 9.38758C10.2593 9.13499 10.6799 8.59372 10.6799 7.90811C10.715 5.74303 10.6799 3.54186 10.6799 1.37678C10.6799 1.01593 10.5046 0.727253 10.1191 0.582914C9.66336 0.402491 9.24271 0.546827 8.85712 0.727251C6.40336 1.91805 3.98465 3.10885 1.53089 4.29964C0.829818 4.66049 0.40918 5.16567 0.40918 5.88737C0.40918 7.9442 0.40918 10.001 0.40918 12.0579C0.40918 12.1661 0.409171 12.2744 0.444225 12.3465C0.689601 13.0321 1.32058 13.4652 2.16187 13.4652C3.8795 13.4652 5.59712 13.4652 7.31476 13.4652C9.03239 13.4652 10.715 13.4652 12.4326 13.4652C12.8182 13.4652 13.1337 13.393 13.4141 13.1404C13.7646 12.8517 13.7646 12.4548 13.7646 12.0939C13.7646 10.3187 13.7997 5.77911 13.7997 5.77911ZM6.64874 5.12959C6.82401 4.66049 7.2096 4.37181 7.77046 4.29964C8.15605 4.26356 8.47153 4.48006 8.54164 4.84091C8.61174 5.38218 7.98078 6.03171 7.31476 6.03171C6.78895 6.03171 6.47347 5.63478 6.64874 5.12959Z" fill="#FD6727"/>
</svg>
