<svg width="20" height="15" viewBox="0 0 20 15" fill="none" xmlns="http://www.w3.org/2000/svg">
<path d="M14.9818 7.9543C15.5131 7.96584 16.0473 7.93084 16.5765 7.97248C17.1123 8.07245 17.2415 8.88369 16.7654 9.14937C16.4406 9.3244 16.0547 9.21456 15.7025 9.24543H14.9818V7.9543ZM16.8837 6.4929C17.0017 6.90952 16.6001 7.28359 16.1988 7.22621H14.9818C14.9903 6.83333 14.9651 6.40689 14.9942 6.03469C15.4817 6.04842 15.9737 6.00668 16.4585 6.05651C16.6667 6.10884 16.841 6.28005 16.8837 6.4929ZM19.8126 0.314543C19.8352 1.11018 19.8158 1.94788 19.8223 2.75965C19.8208 6.06005 19.8255 9.36036 19.8198 12.6609C19.7984 13.8978 18.7022 14.9726 17.4739 14.9973C16.2443 15.0023 15.0146 14.9981 13.7849 14.9994V10.0099C15.1247 10.003 16.4652 10.024 17.8045 9.99947C18.4258 9.96047 19.1063 9.55053 19.1352 8.86682C19.2084 8.18015 18.561 7.70521 17.9463 7.63019C17.7101 7.62406 17.717 7.56132 17.9463 7.53395C18.5326 7.40725 18.9929 6.8005 18.8204 6.19285C18.6735 5.55374 17.9671 5.30638 17.3795 5.3076C16.1815 5.29947 14.9832 5.30647 13.7852 5.3041C13.7929 4.37262 13.769 3.44014 13.798 2.50934C13.893 1.29476 15.0167 0.29313 16.2278 0.314861C17.4229 0.314679 18.6178 0.31468 19.8126 0.314634V0.314543Z" fill="url(#paint0_linear_8521_26781)"/>
<path d="M0.24671 2.63512C0.277307 1.40017 1.37818 0.334211 2.60494 0.316162C3.82993 0.312389 5.0551 0.315617 6.28009 0.314526C6.27672 4.44639 6.28673 8.57871 6.27504 12.7103C6.22785 13.9303 5.13898 14.9759 3.92558 14.9975C2.69828 15.002 1.47083 14.9982 0.243483 14.9994V9.84166C1.43565 10.1233 2.68582 10.2432 3.90203 10.0564C4.62903 9.9394 5.42444 9.58238 5.67057 8.82816C5.8517 8.183 5.74972 7.50402 5.77668 6.84186V5.30408H3.6719C3.66245 6.32113 3.69127 7.33994 3.65667 8.35576C3.59994 8.98014 2.9816 9.37685 2.39272 9.35566C1.66241 9.36339 0.215204 8.82639 0.215204 8.82639C0.211567 6.92087 0.23639 4.5345 0.24671 2.6353V2.63512Z" fill="url(#paint1_linear_8521_26781)"/>
<path d="M7.06537 5.92439C6.95458 5.9479 7.04309 5.54701 7.01477 5.39494C7.02231 4.43341 6.99899 3.47083 7.02763 2.50998C7.12229 1.29026 8.2547 0.286131 9.47068 0.314681H13.0517C13.0483 4.44654 13.0582 8.57886 13.0466 12.7105C12.9994 13.9304 11.9104 14.976 10.697 14.9977C9.46964 15.0023 8.24216 14.9984 7.01472 14.9996V9.34859C7.853 10.0364 8.99233 10.1435 10.0367 10.1453C10.824 10.145 11.6067 10.0237 12.3713 9.84208V8.80681C11.5097 9.23625 10.4968 9.50903 9.5416 9.2623C8.87531 9.09645 8.39164 8.45252 8.40241 7.7649C8.32522 7.04982 8.74438 6.29487 9.44709 6.08229C10.3196 5.80915 11.2704 6.01805 12.0883 6.37316C12.2635 6.4649 12.4413 6.57869 12.3713 6.28582V5.47209C11.0035 5.14667 9.54788 5.02692 8.17374 5.38094C7.77599 5.49314 7.38847 5.6633 7.06537 5.92449V5.92439Z" fill="url(#paint2_linear_8521_26781)"/>
<defs>
<linearGradient id="paint0_linear_8521_26781" x1="13.7437" y1="7.34302" x2="19.7843" y2="7.34302" gradientUnits="userSpaceOnUse">
<stop stop-color="#58B03A"/>
<stop offset="1" stop-color="#55B330"/>
</linearGradient>
<linearGradient id="paint1_linear_8521_26781" x1="0.115046" y1="7.79758" x2="6.18111" y2="7.79758" gradientUnits="userSpaceOnUse">
<stop stop-color="#0F6EB6"/>
<stop offset="1" stop-color="#006DBA"/>
</linearGradient>
<linearGradient id="paint2_linear_8521_26781" x1="7.00587" y1="7.48541" x2="13.0505" y2="7.48541" gradientUnits="userSpaceOnUse">
<stop stop-color="#DE0D3D"/>
<stop offset="1" stop-color="#E30138"/>
</linearGradient>
</defs>
</svg>
