<svg width="25" height="25" viewBox="0 0 25 25" fill="none" xmlns="http://www.w3.org/2000/svg">
<g clip-path="url(#clip0_8820_33938)">
<path d="M8.83329 19.6635V21.6635M8.83329 13.6635V15.6635M16.8333 19.6635V21.6635M16.8333 13.6635V15.6635M12.8333 21.6635V23.6635M12.8333 15.6635V17.6635M20.8333 17.2435C21.8845 16.7831 22.7454 15.9751 23.2714 14.9551C23.7973 13.9351 23.9564 12.7651 23.7219 11.6417C23.4873 10.5183 22.8735 9.50974 21.9833 8.78537C21.0932 8.06099 19.9809 7.66488 18.8333 7.66353H17.5733C17.2563 6.43605 16.6521 5.30148 15.8106 4.35333C14.9691 3.40518 13.9142 2.67061 12.7331 2.21015C11.5519 1.7497 10.2782 1.57655 9.01697 1.70498C7.75574 1.8334 6.5431 2.25973 5.47898 2.94881C4.41486 3.6379 3.52975 4.57002 2.89659 5.66833C2.26343 6.76664 1.90036 7.9997 1.8373 9.26588C1.77424 10.5321 2.01299 11.7951 2.53389 12.9509C3.05479 14.1067 3.8429 15.1221 4.83329 15.9135" stroke="#0BA5EC" stroke-width="2" stroke-linecap="round" stroke-linejoin="round"/>
</g>
<defs>
<clipPath id="clip0_8820_33938">
<rect width="24" height="24" fill="white" transform="translate(0.833313 0.663574)"/>
</clipPath>
</defs>
</svg>
