<svg width="24" height="25" viewBox="0 0 24 25" fill="none" xmlns="http://www.w3.org/2000/svg">
<g clip-path="url(#clip0_8521_34030)">
<path fill-rule="evenodd" clip-rule="evenodd" d="M12 0.663574C5.3724 0.663574 0 6.04437 0 12.684C0 17.994 3.438 22.5 8.2068 24.0888C8.8068 24.1992 9.0252 23.8284 9.0252 23.5092C9.0252 23.2248 9.0156 22.4676 9.0096 21.4656C5.6712 22.1916 4.9668 19.854 4.9668 19.854C4.422 18.4644 3.6348 18.0948 3.6348 18.0948C2.5452 17.3508 3.7176 17.3652 3.7176 17.3652C4.9212 17.4492 5.5548 18.6036 5.5548 18.6036C6.6252 20.4396 8.364 19.9092 9.0468 19.602C9.1572 18.8256 9.4668 18.2964 9.81 17.9964C7.146 17.6928 4.344 16.6608 4.344 12.0552C4.344 10.7436 4.812 9.66957 5.5788 8.82957C5.4552 8.52597 5.0436 7.30317 5.6964 5.64957C5.6964 5.64957 6.7044 5.32557 8.9964 6.88077C9.97532 6.61379 10.9853 6.47781 12 6.47637C13.02 6.48117 14.046 6.61437 15.0048 6.88077C17.2956 5.32557 18.3012 5.64837 18.3012 5.64837C18.9564 7.30317 18.5436 8.52597 18.4212 8.82957C19.1892 9.66957 19.6548 10.7436 19.6548 12.0552C19.6548 16.6728 16.848 17.6892 14.1756 17.9868C14.6064 18.3576 14.9892 19.0908 14.9892 20.2128C14.9892 21.8184 14.9748 23.1156 14.9748 23.5092C14.9748 23.8308 15.1908 24.2052 15.8004 24.0876C18.19 23.2861 20.2672 21.7539 21.7386 19.7076C23.2099 17.6613 24.001 15.2044 24 12.684C24 6.04437 18.6264 0.663574 12 0.663574Z" fill="#98A2B3"/>
</g>
<defs>
<clipPath id="clip0_8521_34030">
<rect width="24" height="24" fill="white" transform="translate(0 0.663574)"/>
</clipPath>
</defs>
</svg>
