<svg width="25" height="25" viewBox="0 0 25 25" fill="none" xmlns="http://www.w3.org/2000/svg">
<g clip-path="url(#clip0_8820_33944)">
<path d="M18.5 10.6636H17.24C16.8659 9.21457 16.0928 7.89956 15.0086 6.86797C13.9245 5.83638 12.5727 5.12957 11.1069 4.82785C9.64112 4.52614 8.12008 4.64161 6.71664 5.16117C5.3132 5.68072 4.08363 6.58351 3.16764 7.76696C2.25165 8.9504 1.68598 10.3671 1.5349 11.8559C1.38381 13.3448 1.65338 14.8462 2.31296 16.1895C2.97255 17.5329 3.9957 18.6643 5.26617 19.4551C6.53663 20.246 8.00347 20.6647 9.49999 20.6636H18.5C19.8261 20.6636 21.0978 20.1368 22.0355 19.1991C22.9732 18.2614 23.5 16.9897 23.5 15.6636C23.5 14.3375 22.9732 13.0657 22.0355 12.128C21.0978 11.1904 19.8261 10.6636 18.5 10.6636Z" stroke="#AFB5D9" stroke-width="2" stroke-linecap="round" stroke-linejoin="round"/>
</g>
<defs>
<clipPath id="clip0_8820_33944">
<rect width="24" height="24" fill="white" transform="translate(0.5 0.663574)"/>
</clipPath>
</defs>
</svg>
