<svg width="20" height="20" viewBox="0 0 20 20" fill="none" xmlns="http://www.w3.org/2000/svg">
<path fill-rule="evenodd" clip-rule="evenodd" d="M18.75 9.61153C18.75 3.87937 16.7308 1.25 10 1.25C3.26923 1.25 1.25 3.87937 1.25 9.61153C1.25 13.6909 2.27268 16.1989 5.28846 17.3059V19.2359C5.28846 19.9463 6.17981 20.2708 6.64152 19.7285L8.19773 17.9007C8.75706 17.9491 9.35703 17.9731 10 17.9731C16.7308 17.9731 18.75 15.3437 18.75 9.61153ZM8.56953 16.5822C9.01571 16.6177 9.492 16.6352 10 16.6352C15.6953 16.6352 17.4038 14.4266 17.4038 9.61153C17.4038 4.79652 15.6953 2.58785 10 2.58785C4.30473 2.58785 2.59615 4.79652 2.59615 9.61153C2.59615 13.0149 3.44978 15.1162 5.96154 16.0557V18.9149C5.96154 19.1642 6.27429 19.278 6.4363 19.0878L8.56953 16.5822Z" fill="#BFC8D0"/>
<path d="M10 16.1592C9.4854 16.1592 9.00293 16.1414 8.55096 16.1053L6.39001 18.6531C6.22591 18.8466 5.90909 18.7308 5.90909 18.4774V15.57C3.36472 14.6146 2.5 12.4779 2.5 9.01712C2.5 4.12091 4.23077 1.875 10 1.875C15.7692 1.875 17.5 4.12091 17.5 9.01712C17.5 13.9133 15.7692 16.1592 10 16.1592Z" fill="#9179EE"/>
<path fill-rule="evenodd" clip-rule="evenodd" d="M18.75 8.98653C18.75 3.25437 16.7308 0.625 10 0.625C3.26923 0.625 1.25 3.25437 1.25 8.98653C1.25 13.0659 2.27268 15.5739 5.28846 16.6809V18.6109C5.28846 19.3213 6.17981 19.6458 6.64152 19.1035L8.19773 17.2757C8.75706 17.3241 9.35703 17.3481 10 17.3481C16.7308 17.3481 18.75 14.7187 18.75 8.98653ZM8.56953 15.9572C9.01571 15.9927 9.492 16.0102 10 16.0102C15.6953 16.0102 17.4038 13.8016 17.4038 8.98653C17.4038 4.17152 15.6953 1.96285 10 1.96285C4.30473 1.96285 2.59615 4.17152 2.59615 8.98653C2.59615 12.3899 3.44978 14.4912 5.96154 15.4307V18.2899C5.96154 18.5392 6.27429 18.653 6.4363 18.4628L8.56953 15.9572Z" fill="white"/>
<path d="M7.12367 7.42003L7.08302 7.44254L7.04721 7.47217C6.83177 7.65038 6.51731 8.12988 6.79189 8.71675C6.98375 9.12682 7.41926 9.98343 8.19221 10.6327C8.93907 11.2601 9.74026 11.6016 10.2796 11.7153L10.3306 11.7261H10.3668L10.3785 11.7279L10.4059 11.7326C10.4107 11.7335 10.4158 11.7344 10.4212 11.7354C10.5818 11.764 11.0438 11.8466 11.4279 11.4639C11.6247 11.2678 11.8046 11.0644 11.892 10.9612C11.9027 10.9536 11.9312 10.9347 11.974 10.9213C12.0243 10.9055 12.0877 10.8992 12.1666 10.9258C12.5743 11.0637 13.0718 11.3812 13.3224 11.5498C13.5111 11.6768 13.9405 11.9844 14.1404 12.1287C14.1415 12.1298 14.143 12.1315 14.1447 12.1336C14.1502 12.1405 14.1539 12.1473 14.1558 12.1522C14.1573 12.156 14.1573 12.1575 14.1573 12.1586C14.1573 12.1588 14.1574 12.1694 14.1464 12.1929C14.0867 12.3208 13.8806 12.6035 13.5883 12.857C13.2928 13.1132 13.0179 13.2448 12.8282 13.2499C12.8271 13.2491 12.7943 13.2453 12.7156 13.2276C12.6252 13.2073 12.5004 13.1748 12.3458 13.1283C12.0372 13.0355 11.6207 12.8899 11.1384 12.6825C10.1726 12.267 8.95814 11.6095 7.82267 10.643C7.11537 10.0409 6.4421 9.20263 5.91462 8.41164C5.37999 7.60991 5.03339 6.9147 4.94378 6.6126L4.93283 6.57567L4.91635 6.54085C4.90276 6.51216 4.87553 6.42911 4.87501 6.33398C4.87452 6.24563 4.89628 6.17736 4.94061 6.12423C5.19451 5.81997 5.45232 5.53292 6.03196 5.25251C6.0453 5.24605 6.06885 5.23693 6.09979 5.2295C6.13032 5.22217 6.16091 5.21822 6.18786 5.21778C6.2097 5.21743 6.2234 5.21922 6.2308 5.22071C6.45941 5.42285 6.80528 5.76975 7.03693 6.06314C7.16158 6.22102 7.3129 6.42245 7.43897 6.59749C7.50202 6.68502 7.55693 6.76343 7.59815 6.82489C7.6218 6.86015 7.63637 6.88316 7.64445 6.8961C7.64464 6.89723 7.64483 6.89842 7.64502 6.89967C7.64834 6.92132 7.65004 6.94932 7.64771 6.97802C7.64279 7.03871 7.62506 7.06112 7.61659 7.06889C7.44823 7.22307 7.2137 7.37017 7.12367 7.42003Z" fill="white" stroke="white" stroke-linecap="round"/>
</svg>
