<svg width="24" height="25" viewBox="0 0 24 25" fill="none" xmlns="http://www.w3.org/2000/svg">
<g clip-path="url(#clip0_8521_34028)">
<path d="M24 12.6636C24 6.03615 18.6274 0.663574 12 0.663574C5.37258 0.663574 0 6.03615 0 12.6636C0 18.653 4.3882 23.6176 10.125 24.5178V16.1323H7.07812V12.6636H10.125V10.0198C10.125 7.01232 11.9166 5.35107 14.6576 5.35107C15.9701 5.35107 17.3438 5.58545 17.3438 5.58545V8.53857H15.8306C14.34 8.53857 13.875 9.46365 13.875 10.4136V12.6636H17.2031L16.6711 16.1323H13.875V24.5178C19.6118 23.6176 24 18.653 24 12.6636Z" fill="#98A2B3"/>
</g>
<defs>
<clipPath id="clip0_8521_34028">
<rect width="24" height="24" fill="white" transform="translate(0 0.663574)"/>
</clipPath>
</defs>
</svg>
