<svg width="18" height="25" viewBox="0 0 18 25" fill="none" xmlns="http://www.w3.org/2000/svg">
<path d="M14.7703 10.7604C15.3187 9.23232 16.8984 4.81201 16.8984 3.39639C16.8984 2.14951 16.1625 1.1042 14.85 1.1042C12.7593 1.1042 10.8843 7.27764 10.2984 8.74951C9.84371 7.41357 7.71558 0.663574 5.84058 0.663574C4.38277 0.663574 3.69839 1.73701 3.69839 3.08701C3.69839 4.7417 5.30152 9.03076 5.88277 10.6808C5.58746 10.5729 5.26871 10.4792 4.94527 10.4792C3.84839 10.4792 2.68121 11.8433 2.68121 12.9448C2.68121 13.362 2.91089 13.9479 3.05621 14.337C1.32652 14.8058 0.660894 15.9589 0.660894 17.6979C0.656206 21.0823 3.86246 24.6636 8.37183 24.6636C13.9031 24.6636 17.3437 20.5105 17.3437 15.1526C17.3437 13.1323 17.0203 11.3089 14.7703 10.7604ZM13.1109 5.72607C13.2984 5.14951 14.1 2.71201 14.85 2.71201C15.2531 2.71201 15.3609 3.1292 15.3609 3.46201C15.3609 4.35732 13.5515 9.30264 13.1531 10.3995L11.5593 10.1183L13.1109 5.72607ZM5.17027 2.92764C5.17027 2.36982 5.84996 0.785449 7.34058 5.13545L8.96246 9.83701C8.23121 9.77607 7.66402 9.69639 7.30308 9.90264C6.79214 8.55264 5.17027 4.2917 5.17027 2.92764ZM5.06246 12.1011C6.43589 12.1011 8.20777 16.5354 8.20777 17.1354C8.20777 17.3745 7.97808 17.6698 7.71089 17.6698C6.73121 17.6698 4.10621 14.0651 4.10621 13.0901C4.11089 12.7292 4.70152 12.1011 5.06246 12.1011ZM13.7015 20.8339C12.3375 22.3339 10.5937 23.112 8.55933 23.112C5.77496 23.112 3.57652 21.5839 2.51714 18.9729C1.71558 16.9386 2.69527 15.7714 3.48277 15.7714C4.01714 15.7714 6.02808 18.5979 6.02808 19.1979C6.02808 19.4276 5.66714 19.587 5.47964 19.587C4.72496 19.587 4.42964 18.8604 3.08433 17.1776C1.69214 18.5698 4.04527 21.2511 5.81714 21.2511C7.04058 21.2511 7.83746 20.1167 7.59839 19.2823C7.77183 19.2823 7.98746 19.2964 8.14683 19.2542C8.19839 20.5245 8.57339 22.0386 10.1015 22.1464C10.1015 22.1042 10.1953 21.8136 10.1953 21.7995C10.1953 20.9839 9.69839 20.2714 9.69839 19.4417C9.69839 18.1151 10.7156 16.8308 11.7468 16.0808C12.1218 15.7995 12.5765 15.6261 13.0171 15.4667C13.4718 15.2933 13.9546 15.0917 14.3015 14.7448C14.25 14.2198 14.0343 13.7558 13.5093 13.7558C12.2109 13.7558 7.85621 13.9433 7.85621 11.8948C7.85621 11.5808 7.86089 11.2808 8.67183 11.2808C10.1859 11.2808 14.0296 11.6558 15.1546 12.6448C16.0031 13.3995 16.2937 17.9511 13.7015 20.8339ZM9.07964 14.9276C9.53433 15.0729 10.0031 15.1151 10.4718 15.2089C10.125 15.462 9.81558 15.7714 9.52027 16.1042C9.38902 15.7058 9.22964 15.3167 9.07964 14.9276Z" fill="#98A2B3"/>
</svg>
