<svg width="46" height="46" viewBox="0 0 46 46" fill="none" xmlns="http://www.w3.org/2000/svg">
<rect x="3" y="3" width="40" height="40" rx="20" fill="#E0EAFF"/>
<rect x="3" y="3" width="40" height="40" rx="20" stroke="#EEF4FF" stroke-width="6"/>
<g clip-path="url(#clip0_9320_8795)">
<path d="M26.3326 26.3334L22.9992 23M22.9992 23L19.6659 26.3334M22.9992 23V30.5M29.9909 28.325C30.8037 27.8819 31.4458 27.1808 31.8158 26.3322C32.1858 25.4837 32.2627 24.5361 32.0344 23.6389C31.8061 22.7418 31.2855 21.9463 30.5548 21.3779C29.8241 20.8095 28.925 20.5006 27.9992 20.5H26.9492C26.697 19.5244 26.2269 18.6186 25.5742 17.8509C24.9215 17.0831 24.1033 16.4732 23.181 16.0672C22.2587 15.6612 21.2564 15.4695 20.2493 15.5066C19.2423 15.5437 18.2568 15.8086 17.3669 16.2814C16.477 16.7542 15.7058 17.4226 15.1114 18.2363C14.517 19.0501 14.1148 19.988 13.9351 20.9795C13.7553 21.9711 13.8027 22.9905 14.0736 23.9611C14.3445 24.9317 14.8319 25.8282 15.4992 26.5834" stroke="#444CE7" stroke-width="1.66667" stroke-linecap="round" stroke-linejoin="round"/>
</g>
<defs>
<clipPath id="clip0_9320_8795">
<rect width="20" height="20" fill="white" transform="translate(13 13)"/>
</clipPath>
</defs>
</svg>
