<svg width="20" height="20" viewBox="0 0 20 20" fill="none" xmlns="http://www.w3.org/2000/svg">
<rect x="1.25" y="1.25" width="17.5" height="17.5" rx="6" fill="white"/>
<path d="M14.3271 11.4588C14.1924 11.2761 14.1623 11.0912 14.2359 10.9038C14.4194 10.4039 17.0934 7.22883 15.9794 7.22883C15.214 7.239 14.2935 7.22883 13.5597 7.22883C13.4234 7.26199 13.3353 7.33348 13.2801 7.47894C12.851 8.46841 12.3259 9.67592 11.5563 10.452C11.455 10.5336 11.3919 10.5301 11.2766 10.4999C10.7367 9.93159 11.3124 7.98443 10.9841 7.21503C10.9194 7.06443 10.7777 6.99641 10.6328 6.9581C9.89993 6.78343 8.22605 6.8874 7.95294 7.239C7.87486 7.33951 7.86397 7.39436 7.92034 7.40339C8.18056 7.44444 8.36477 7.54265 8.47319 7.69791C8.67774 8.14835 8.82848 10.5478 8.22605 10.5478C7.62363 10.5478 6.65221 8.193 6.38534 7.54022C6.31432 7.34368 6.13353 7.23099 5.94304 7.19773L4.16081 7.21136C3.84754 7.21136 3.67245 7.36589 3.78349 7.67723C4.71175 9.98143 6.74311 14.4477 9.8587 14.3359C10.1708 14.3359 10.7077 14.4557 10.9515 14.1852C11.2865 13.7408 10.8779 12.9493 11.4523 12.6474C11.5972 12.5703 11.7474 12.635 11.8718 12.7297C12.5107 13.2162 12.8499 14.0701 13.6379 14.3294C13.7764 14.375 13.8978 14.3864 14.002 14.3636L15.6671 14.3362C15.9762 14.3362 16.2808 14.1987 16.2168 13.8291C15.974 13.0366 15.0067 12.2219 14.3271 11.4588Z" fill="#2789F6"/>
</svg>
