<svg width="16" height="17" viewBox="0 0 16 17" fill="none" xmlns="http://www.w3.org/2000/svg">
<path fill-rule="evenodd" clip-rule="evenodd" d="M0.713867 7.56734C0.713867 11.4393 3.78139 14.5971 7.57928 14.5971C8.04543 14.5971 8.51158 14.5551 9.04719 14.5068C9.6445 14.453 10.3282 14.3914 11.1946 14.3715C12.5092 14.3715 13.9334 14.8602 15.5037 16.2887C15.6498 16.4391 15.8689 16.2512 15.7228 16.0632C14.1526 14.0708 12.7283 13.6949 11.3041 13.3565C9.55127 12.943 8.63831 11.9656 8.0175 10.8379C7.90795 10.6123 7.83491 10.6499 7.83491 10.9506C7.79839 11.4018 7.83491 11.8153 7.90795 12.2288H7.68884C5.2056 12.2288 3.16058 10.1236 3.16058 7.56734C3.16058 5.01107 5.2056 2.9059 7.68884 2.9059C10.1721 2.9059 12.2171 5.01107 12.2171 7.56734C12.2171 7.71771 12.2171 7.90567 12.1806 8.09363C11.8154 8.01845 11.1946 8.01845 10.7198 8.05604C10.5373 8.05604 10.5373 8.13123 10.6833 8.16882C12.1441 8.46956 13.1666 9.40936 13.4222 11.1386C13.4222 11.2138 13.4587 11.2138 13.4952 11.1762C14.0795 10.1236 14.4447 8.88307 14.4447 7.56734C14.4447 3.65775 11.3772 0.5 7.57928 0.5C3.78139 0.5 0.713867 3.69534 0.713867 7.56734ZM12.5457 10.462C12.8013 10.5747 12.9109 10.9507 12.9109 11.1386C12.9474 11.4394 12.8744 11.5897 12.7648 11.5897C12.6553 11.5897 12.5092 11.4769 12.3631 11.2138C12.217 10.9507 12.144 10.6875 12.217 10.5371C12.3266 10.462 12.4362 10.4244 12.5457 10.462ZM11.0485 11.6273C11.1945 11.6273 11.3771 11.7025 11.5597 11.8529C11.8519 12.116 11.9614 12.4168 11.8154 12.6423C11.7423 12.7551 11.5597 12.8303 11.4137 12.8303C11.2311 12.8303 11.0485 12.7551 10.9389 12.6423C10.6468 12.3792 10.5737 12.0032 10.7563 11.7777C10.7928 11.7025 10.9024 11.6273 11.0485 11.6273Z" fill="#F28A1A"/>
</svg>
