<svg width="174" height="34" viewBox="0 0 174 34" fill="none" xmlns="http://www.w3.org/2000/svg">
<path fill-rule="evenodd" clip-rule="evenodd" d="M26.5471 32.4013C30.2866 32.6344 34.1046 31.3222 36.9623 28.4645C42.2465 23.1802 42.2465 14.6127 36.9623 9.32846C31.678 4.0442 23.1105 4.0442 17.8263 9.32846C14.9685 12.1862 13.6563 16.0041 13.8894 19.7436C14.0874 22.919 13.9393 32.3515 13.9393 32.3515C13.9393 32.3515 23.3717 32.2033 26.5471 32.4013ZM22.6113 23.5995C25.3739 26.3622 29.8531 26.3622 32.6157 23.5995C35.3784 20.8369 35.3784 16.3578 32.6157 13.5951C29.8531 10.8325 25.3739 10.8325 22.6113 13.5951C19.8486 16.3578 19.8486 20.8369 22.6113 23.5995Z" fill="#309CFF"/>
<path d="M27.9879 13.8629C27.9879 17.9043 26.2162 21.5319 23.407 24.0113C21.0217 26.1167 14.4567 32.8912 14.4567 32.8912C14.4567 32.8912 7.89177 26.1167 5.50644 24.0113C2.6973 21.5319 0.925537 17.9043 0.925537 13.8629C0.925537 6.38985 6.98366 0.331728 14.4567 0.331728C21.9298 0.331728 27.9879 6.38985 27.9879 13.8629Z" fill="#3538CD"/>
<path d="M21.531 13.8629C21.531 17.7699 18.3637 20.9371 14.4568 20.9371C10.5498 20.9371 7.38257 17.7699 7.38257 13.8629C7.38257 9.95596 10.5498 6.78873 14.4568 6.78873C18.3637 6.78873 21.531 9.95596 21.531 13.8629Z" fill="white"/>
<path d="M52.9255 14.3065V0.331724H60.0726C61.9093 0.331724 63.2802 0.671111 64.1852 1.34989C65.0902 2.01535 65.5428 2.89377 65.5428 3.98513C65.5428 4.70383 65.3498 5.33602 64.9638 5.8817C64.5911 6.41408 64.0588 6.83997 63.3667 7.1594C62.6879 7.46551 61.876 7.61857 60.9311 7.61857L61.3304 6.6603C62.3153 6.6603 63.1737 6.81335 63.9057 7.11947C64.6377 7.41227 65.2034 7.84483 65.6026 8.41713C66.0152 8.97612 66.2215 9.66155 66.2215 10.4734C66.2215 11.6846 65.7291 12.6295 64.7442 13.3083C63.7726 13.9738 62.3485 14.3065 60.4719 14.3065H52.9255ZM56.8385 11.4516H60.1525C60.8313 11.4516 61.3437 11.3385 61.6897 11.1123C62.0491 10.8727 62.2287 10.5133 62.2287 10.0342C62.2287 9.55507 62.0491 9.20237 61.6897 8.97612C61.3437 8.73655 60.8313 8.61677 60.1525 8.61677H56.559V5.8817H59.5536C60.219 5.8817 60.7181 5.76857 61.0509 5.54232C61.3836 5.31606 61.55 4.97667 61.55 4.52416C61.55 4.07164 61.3836 3.73891 61.0509 3.52596C60.7181 3.2997 60.219 3.18657 59.5536 3.18657H56.8385V11.4516Z" fill="#3538CD"/>
<path d="M66.592 14.3065L72.7608 0.331724H76.6538L82.8426 14.3065H78.73L73.8988 2.26823H75.4559L70.6247 14.3065H66.592ZM69.9659 11.5914L70.984 8.67666H77.8117L78.8299 11.5914H69.9659Z" fill="#3538CD"/>
<path d="M83.9632 14.3065V0.331724H87.9161V14.3065H83.9632Z" fill="#3538CD"/>
<path d="M94.262 11.2121L94.0424 6.78008L100.052 0.331724H104.404L98.4145 6.82001L96.2185 9.11586L94.262 11.2121ZM90.7284 14.3065V0.331724H94.6413V14.3065H90.7284ZM100.111 14.3065L95.5597 8.53691L98.135 5.78188L104.703 14.3065H100.111Z" fill="#3538CD"/>
<path d="M103.4 14.3065L109.569 0.331724H113.462L119.651 14.3065H115.539L110.707 2.26823H112.264L107.433 14.3065H103.4ZM106.774 11.5914L107.793 8.67666H114.62L115.638 11.5914H106.774Z" fill="#3538CD"/>
<path d="M120.772 14.3065V0.331724H124.725V11.1722H131.393V14.3065H120.772Z" fill="#3538CD"/>
<path d="M52.9255 32.0522V18.0775H60.0726C61.9093 18.0775 63.2802 18.4168 64.1852 19.0956C65.0902 19.7611 65.5428 20.6395 65.5428 21.7309C65.5428 22.4496 65.3498 23.0818 64.9638 23.6274C64.5911 24.1598 64.0588 24.5857 63.3667 24.9051C62.6879 25.2112 61.876 25.3643 60.9311 25.3643L61.3304 24.406C62.3153 24.406 63.1737 24.5591 63.9057 24.8652C64.6377 25.158 65.2034 25.5906 65.6026 26.1629C66.0152 26.7219 66.2215 27.4073 66.2215 28.2192C66.2215 29.4303 65.7291 30.3753 64.7442 31.054C63.7726 31.7195 62.3485 32.0522 60.4719 32.0522H52.9255ZM56.8385 29.1974H60.1525C60.8313 29.1974 61.3437 29.0843 61.6897 28.858C62.0491 28.6184 62.2287 28.2591 62.2287 27.7799C62.2287 27.3008 62.0491 26.9481 61.6897 26.7219C61.3437 26.4823 60.8313 26.3625 60.1525 26.3625H56.559V23.6274H59.5536C60.219 23.6274 60.7181 23.5143 61.0509 23.2881C61.3836 23.0618 61.55 22.7224 61.55 22.2699C61.55 21.8174 61.3836 21.4846 61.0509 21.2717C60.7181 21.0454 60.219 20.9323 59.5536 20.9323H56.8385V29.1974Z" fill="#309CFF"/>
<path d="M75.3162 32.3317C74.1982 32.3317 73.1667 32.1521 72.2218 31.7927C71.2768 31.4333 70.4517 30.9276 69.7463 30.2754C69.0542 29.61 68.5151 28.838 68.1292 27.9596C67.7432 27.0812 67.5502 26.1163 67.5502 25.0648C67.5502 24.0134 67.7432 23.0485 68.1292 22.1701C68.5151 21.2917 69.0542 20.5264 69.7463 19.8742C70.4517 19.2088 71.2768 18.6963 72.2218 18.337C73.1667 17.9776 74.1982 17.798 75.3162 17.798C76.4475 17.798 77.479 17.9776 78.4106 18.337C79.3556 18.6963 80.1741 19.2088 80.8662 19.8742C81.5583 20.5264 82.0973 21.2917 82.4833 22.1701C82.8825 23.0485 83.0822 24.0134 83.0822 25.0648C83.0822 26.1163 82.8825 27.0879 82.4833 27.9796C82.0973 28.858 81.5583 29.6233 80.8662 30.2754C80.1741 30.9276 79.3556 31.4333 78.4106 31.7927C77.479 32.1521 76.4475 32.3317 75.3162 32.3317ZM75.3162 29.0576C75.8486 29.0576 76.341 28.9645 76.7935 28.7781C77.2594 28.5918 77.6586 28.3256 77.9914 27.9796C78.3374 27.6202 78.6036 27.1943 78.7899 26.7019C78.9896 26.2094 79.0894 25.6638 79.0894 25.0648C79.0894 24.4526 78.9896 23.9069 78.7899 23.4278C78.6036 22.9354 78.3374 22.5161 77.9914 22.1701C77.6586 21.8107 77.2594 21.5379 76.7935 21.3516C76.341 21.1652 75.8486 21.0721 75.3162 21.0721C74.7838 21.0721 74.2847 21.1652 73.8189 21.3516C73.3664 21.5379 72.9671 21.8107 72.6211 22.1701C72.2883 22.5161 72.0222 22.9354 71.8225 23.4278C71.6362 23.9069 71.543 24.4526 71.543 25.0648C71.543 25.6638 71.6362 26.2094 71.8225 26.7019C72.0222 27.1943 72.2883 27.6202 72.6211 27.9796C72.9671 28.3256 73.3664 28.5918 73.8189 28.7781C74.2847 28.9645 74.7838 29.0576 75.3162 29.0576Z" fill="#309CFF"/>
<path d="M92.1998 32.3317C91.0818 32.3317 90.0503 32.1521 89.1054 31.7927C88.1604 31.4333 87.3352 30.9276 86.6298 30.2754C85.9378 29.61 85.3987 28.838 85.0128 27.9596C84.6268 27.0812 84.4338 26.1163 84.4338 25.0648C84.4338 24.0134 84.6268 23.0485 85.0128 22.1701C85.3987 21.2917 85.9378 20.5264 86.6298 19.8742C87.3352 19.2088 88.1604 18.6963 89.1054 18.337C90.0503 17.9776 91.0818 17.798 92.1998 17.798C93.3311 17.798 94.3625 17.9776 95.2942 18.337C96.2392 18.6963 97.0577 19.2088 97.7498 19.8742C98.4418 20.5264 98.9809 21.2917 99.3668 22.1701C99.7661 23.0485 99.9658 24.0134 99.9658 25.0648C99.9658 26.1163 99.7661 27.0879 99.3668 27.9796C98.9809 28.858 98.4418 29.6233 97.7498 30.2754C97.0577 30.9276 96.2392 31.4333 95.2942 31.7927C94.3625 32.1521 93.3311 32.3317 92.1998 32.3317ZM92.1998 29.0576C92.7322 29.0576 93.2246 28.9645 93.6771 28.7781C94.1429 28.5918 94.5422 28.3256 94.875 27.9796C95.221 27.6202 95.4872 27.1943 95.6735 26.7019C95.8731 26.2094 95.973 25.6638 95.973 25.0648C95.973 24.4526 95.8731 23.9069 95.6735 23.4278C95.4872 22.9354 95.221 22.5161 94.875 22.1701C94.5422 21.8107 94.1429 21.5379 93.6771 21.3516C93.2246 21.1652 92.7322 21.0721 92.1998 21.0721C91.6674 21.0721 91.1683 21.1652 90.7025 21.3516C90.25 21.5379 89.8507 21.8107 89.5047 22.1701C89.1719 22.5161 88.9057 22.9354 88.7061 23.4278C88.5198 23.9069 88.4266 24.4526 88.4266 25.0648C88.4266 25.6638 88.5198 26.2094 88.7061 26.7019C88.9057 27.1943 89.1719 27.6202 89.5047 27.9796C89.8507 28.3256 90.25 28.5918 90.7025 28.7781C91.1683 28.9645 91.6674 29.0576 92.1998 29.0576Z" fill="#309CFF"/>
<path d="M105.57 28.9578L105.35 24.5258L111.359 18.0775H115.711L109.722 24.5657L107.526 26.8616L105.57 28.9578ZM102.036 32.0522V18.0775H105.949V32.0522H102.036ZM111.419 32.0522L106.867 26.2826L109.443 23.5276L116.011 32.0522H111.419Z" fill="#309CFF"/>
<path d="M117.048 32.0522V18.0775H121.001V32.0522H117.048Z" fill="#309CFF"/>
<path d="M123.813 32.0522V18.0775H127.067L134.773 27.3807H133.236V18.0775H137.109V32.0522H133.855L126.149 22.749H127.686V32.0522H123.813Z" fill="#309CFF"/>
<path d="M146.885 32.3317C145.78 32.3317 144.755 32.1587 143.81 31.8127C142.865 31.4533 142.047 30.9476 141.355 30.2954C140.676 29.6432 140.144 28.878 139.758 27.9995C139.372 27.1078 139.179 26.1296 139.179 25.0648C139.179 24.0001 139.372 23.0285 139.758 22.1501C140.144 21.2584 140.683 20.4864 141.375 19.8343C142.067 19.1821 142.885 18.683 143.83 18.337C144.789 17.9776 145.833 17.798 146.965 17.798C148.282 17.798 149.46 18.0176 150.498 18.4568C151.536 18.896 152.395 19.5282 153.074 20.3534L150.558 22.6292C150.079 22.1102 149.56 21.7242 149.001 21.4713C148.455 21.2051 147.843 21.0721 147.164 21.0721C146.565 21.0721 146.02 21.1652 145.527 21.3516C145.035 21.5379 144.616 21.8107 144.27 22.1701C143.923 22.5161 143.651 22.9354 143.451 23.4278C143.265 23.9069 143.171 24.4526 143.171 25.0648C143.171 25.6505 143.265 26.1895 143.451 26.6819C143.651 27.1744 143.923 27.6003 144.27 27.9596C144.616 28.3057 145.028 28.5785 145.507 28.7781C146 28.9645 146.539 29.0576 147.124 29.0576C147.71 29.0576 148.282 28.9645 148.841 28.7781C149.4 28.5785 149.966 28.2458 150.538 27.7799L152.754 30.5549C151.956 31.1272 151.031 31.5664 149.979 31.8726C148.928 32.1787 147.896 32.3317 146.885 32.3317ZM149.261 30.0359V24.7654H152.754V30.5549L149.261 30.0359Z" fill="#309CFF"/>
</svg>
