<svg width="150" height="150" viewBox="0 0 150 150" xmlns="http://www.w3.org/2000/svg"><title>icon-medical-records</title><g fill="none"><path d="M147.5 0H2.5C1 0 0 .996 0 2.49V122h5V24.898h140V122h5V2.49C150 .996 149 0 147.5 0zM5 19.918V4.98h140v14.938H5z" fill="#EFEEE5" opacity=".3"/><path fill="#EFEEE5" opacity=".3" d="M10 10h5v5h-5zm10 0h5v5h-5zm10 0h5v5h-5zm105 0h5v5h-5z"/><path d="M135 60c0-.25 0-.5-.25-.75V59c-.25-.25-.25-.5-.5-.75l-22.5-22.5c-.25-.25-.5-.25-.75-.5h-.25c-.25 0-.5-.25-.75-.25H17.5C16 35 15 36 15 37.5V145H0v5h150v-5h-15V60zm-8.5-2.5h-14v-14l14 14zM20 145V40h87.5v20c0 1.5 1 2.5 2.5 2.5h20V145H20z" fill="#EFEEE5"/><path d="M60.5 78H68v7.5c0 1.5 1 2.5 2.5 2.5h10c1.5 0 2.5-1 2.5-2.5V78h7.5c1.5 0 2.5-1 2.5-2.5v-10c0-1.5-1-2.5-2.5-2.5H83v-7.5c0-1.5-1-2.5-2.5-2.5h-10C69 53 68 54 68 55.5V63h-7.5C59 63 58 64 58 65.5v10c0 1.5 1 2.5 2.5 2.5zM63 68h7.5c1.5 0 2.5-1 2.5-2.5V58h5v7.5c0 1.5 1 2.5 2.5 2.5H88v5h-7.5C79 73 78 74 78 75.5V83h-5v-7.5c0-1.5-1-2.5-2.5-2.5H63v-5z" fill="#24E4FE"/><path fill="#EFEEE5" d="M30 100h60v5H30zm0 15h90v5H30zm0 15h65v5H30zm65-30h15v5H95z"/></g></svg>