<svg width="142" height="48" viewBox="0 0 142 48" xmlns="http://www.w3.org/2000/svg"><title>icon-apple</title><g transform="translate(1 1)" fill="none" fill-rule="evenodd" opacity=".7"><rect stroke="#5D5D5D" opacity=".3" x="-.5" y="-.5" width="141" height="47" rx="2"/><path d="M13.292 8C12.026 8 11 9.122 11 10.51v25.98c0 1.386 1.025 2.51 2.292 2.51h11.416C25.974 39 27 37.878 27 36.49V10.51C27 9.125 25.975 8 24.708 8H13.292zm-.792 4.066v22.868h13V12.066h-13zM19 37.984c.552 0 1-.455 1-1.017 0-.561-.448-1.016-1-1.016s-1 .455-1 1.016c0 .562.448 1.017 1 1.017zm-2-27.951c0 .28.172.508.398.508h3.204c.22 0 .398-.236.398-.508 0-.28-.172-.508-.398-.508h-3.204c-.22 0-.398.235-.398.508z" fill="#5D5D5D"/><text font-family="Lato-Regular, Lato" font-size="12" fill="#606060"><tspan x="36.103" y="17.231">Available on the</tspan></text><text font-family="Lato-Regular, Lato" font-size="18" fill="#606060"><tspan x="36.103" y="36.077">App Store</tspan></text></g></svg>