<svg width="24" height="16" viewBox="0 0 24 16" xmlns="http://www.w3.org/2000/svg"><title>icon-kz</title><g fill="none"><path d="M23.54.013H.413A.417.417 0 0 0 0 .433v15.133c0 .233.185.42.413.42H23.54a.417.417 0 0 0 .413-.42V.433a.417.417 0 0 0-.413-.42z" fill="#82C3D2"/><g transform="translate(1.216 1.143)" fill="#FFE15A"><path d="M1.568.783c-.037-.16-.047-.22.024-.293a.091.091 0 0 0 0-.127.088.088 0 0 0-.125 0c-.144.146-.11.298-.072.459C1.28.784 1.164.812 1.1.893c-.031.04-.092.154.022.334.026.042.08.054.122.028a.091.091 0 0 0 .027-.125c-.043-.068-.044-.11-.032-.125.014-.018.058-.028.103-.011.03.01.098.046.098.155a.267.267 0 0 1-.352.257c-.106-.033-.18-.147-.18-.277 0-.093.02-.187.056-.269.005-.012.14-.298.176-.404.069-.21-.001-.317-.05-.36a.219.219 0 0 0-.238-.04.319.319 0 0 0-.032.023.114.114 0 0 0-.032-.022.219.219 0 0 0-.239.038C.501.14.431.245.5.455c.035.107.17.393.175.403a.684.684 0 0 1 .057.271c0 .13-.074.244-.18.277A.267.267 0 0 1 .2 1.149c0-.109.068-.145.098-.155C.343.977.387.987.4 1.005c.012.015.01.057-.032.125a.091.091 0 0 0 .027.125.088.088 0 0 0 .122-.028C.632 1.047.571.933.54.893.477.813.36.784.246.822.283.662.318.509.174.363a.088.088 0 0 0-.125 0 .091.091 0 0 0 0 .128c.07.072.061.131.024.292C.05.88.023 1 .023 1.15c0 .098.034.193.091.27H.111a.09.09 0 0 0-.088.09c0 .05.04.09.088.09h.003a.457.457 0 0 0-.091.271c0 .149.027.27.05.366.037.16.047.22-.024.292a.091.091 0 0 0 0 .128.088.088 0 0 0 .125 0c.144-.146.11-.298.072-.459.113.038.231.01.294-.071.031-.04.092-.154-.022-.334a.088.088 0 0 0-.122-.028.091.091 0 0 0-.027.125c.043.068.044.11.032.125-.014.018-.058.027-.103.011C.268 2.015.2 1.98.2 1.87a.266.266 0 0 1 .352-.257c.106.033.18.147.18.277 0 .093-.02.186-.057.271l-.58 1.33a.857.857 0 0 0-.072.345c0 .154.068.295.177.38a.486.486 0 0 0-.177.38c0 .12.024.237.072.346l.58 1.33a.684.684 0 0 1 .057.271c0 .13-.074.244-.18.276a.266.266 0 0 1-.244-.039.27.27 0 0 1-.108-.218c0-.108.068-.144.098-.155.045-.016.089-.006.103.012.012.015.01.057-.032.125a.091.091 0 0 0 .027.125.088.088 0 0 0 .122-.028c.114-.18.053-.294.022-.334-.063-.081-.18-.109-.294-.071.037-.161.072-.313-.072-.46a.088.088 0 0 0-.125 0 .091.091 0 0 0 0 .128c.07.072.061.132.024.293a1.54 1.54 0 0 0-.05.365.46.46 0 0 0 .091.271H.111a.09.09 0 0 0-.088.09c0 .05.04.09.088.09h.003a.456.456 0 0 0-.091.271c0 .149.027.269.05.366.037.16.047.22-.024.292a.091.091 0 0 0 0 .128.088.088 0 0 0 .125 0c.144-.147.11-.298.072-.46.113.038.231.01.294-.07.031-.04.092-.154-.022-.334a.088.088 0 0 0-.122-.028.091.091 0 0 0-.027.124c.042.068.044.11.032.126-.014.018-.058.027-.103.011C.268 7.429.2 7.393.2 7.284a.266.266 0 0 1 .352-.257c.106.033.18.147.18.276 0 .093-.02.187-.057.272l-.58 1.33a.857.857 0 0 0-.072.345c0 .154.068.295.177.38a.486.486 0 0 0-.177.38c0 .12.024.236.072.346l.58 1.33a.684.684 0 0 1 .057.271c0 .13-.074.243-.18.276a.266.266 0 0 1-.352-.257c0-.108.068-.144.098-.155.045-.016.089-.006.103.012.012.015.01.057-.032.125a.091.091 0 0 0 .027.125.088.088 0 0 0 .122-.028c.114-.18.053-.294.022-.334-.063-.081-.18-.109-.294-.071.037-.161.072-.313-.072-.46a.088.088 0 0 0-.125 0 .091.091 0 0 0 0 .128c.07.072.061.132.024.293a1.54 1.54 0 0 0-.05.365c0 .142.066.276.177.361a.456.456 0 0 0-.177.361c0 .148.027.269.05.365.037.161.047.22-.024.293a.091.091 0 0 0 0 .128.088.088 0 0 0 .125 0c.144-.147.11-.299.072-.46.113.038.231.01.294-.07.031-.04.092-.154-.022-.335a.088.088 0 0 0-.122-.027.091.091 0 0 0-.027.124c.042.068.044.11.032.126-.014.018-.058.027-.103.01-.03-.01-.098-.045-.098-.154a.267.267 0 0 1 .352-.257c.106.033.18.147.18.276 0 .093-.02.187-.056.27-.005.012-.14.297-.176.404-.069.21.001.316.05.36a.217.217 0 0 0 .237.039c.013-.006.023-.014.033-.021.011.007.021.015.033.02a.217.217 0 0 0 .238-.038c.049-.044.119-.15.05-.36a5.548 5.548 0 0 0-.175-.402.684.684 0 0 1-.057-.272c0-.13.074-.243.18-.276a.267.267 0 0 1 .352.257c0 .109-.068.144-.098.155-.045.016-.089.007-.103-.011-.012-.016-.01-.058.032-.126a.091.091 0 0 0-.027-.124.088.088 0 0 0-.122.027c-.114.181-.053.294-.022.335.063.08.18.108.294.07-.037.161-.072.313.072.46a.088.088 0 0 0 .125 0 .091.091 0 0 0 0-.128c-.07-.072-.061-.132-.024-.293a1.54 1.54 0 0 0 .05-.365.456.456 0 0 0-.177-.36.456.456 0 0 0 .177-.362 1.54 1.54 0 0 0-.05-.365c-.037-.161-.047-.22.024-.293a.091.091 0 0 0 0-.127.088.088 0 0 0-.125 0c-.144.146-.11.298-.072.459-.113-.038-.231-.01-.294.07-.031.041-.092.154.022.335.026.042.08.054.122.028a.091.091 0 0 0 .027-.125c-.042-.068-.044-.11-.032-.125.014-.019.058-.028.103-.012.03.01.098.047.098.155a.266.266 0 0 1-.352.257c-.106-.033-.18-.146-.18-.276 0-.093.02-.187.057-.272l.58-1.33a.857.857 0 0 0 .072-.344.486.486 0 0 0-.177-.38.486.486 0 0 0 .177-.381.858.858 0 0 0-.072-.345l-.58-1.33a.684.684 0 0 1-.057-.271c0-.13.074-.244.18-.277a.267.267 0 0 1 .352.257c0 .109-.068.145-.098.155-.045.017-.089.007-.103-.011-.012-.015-.01-.057.032-.125a.091.091 0 0 0-.027-.125.088.088 0 0 0-.122.028c-.114.18-.053.294-.022.334.063.08.18.109.294.071-.037.16-.072.313.072.459a.088.088 0 0 0 .126 0 .091.091 0 0 0 0-.128c-.071-.072-.062-.131-.025-.292a1.54 1.54 0 0 0 .05-.366.457.457 0 0 0-.091-.27h.003a.09.09 0 0 0 .089-.09.09.09 0 0 0-.09-.09h-.002a.456.456 0 0 0 .091-.271 1.54 1.54 0 0 0-.05-.366c-.037-.16-.047-.22.025-.293a.091.091 0 0 0 0-.127.088.088 0 0 0-.126 0c-.144.146-.11.298-.072.459-.113-.038-.23-.01-.294.071-.031.04-.092.154.022.334.026.042.08.054.122.028a.091.091 0 0 0 .027-.125c-.042-.068-.044-.11-.032-.125.014-.018.058-.027.103-.011.03.01.098.046.098.155a.267.267 0 0 1-.352.257c-.106-.033-.18-.147-.18-.277 0-.093.02-.187.057-.272l.58-1.329a.857.857 0 0 0 .072-.345.486.486 0 0 0-.177-.38.486.486 0 0 0 .177-.38.858.858 0 0 0-.071-.346l-.581-1.33a.684.684 0 0 1-.057-.271c0-.13.074-.244.18-.276a.267.267 0 0 1 .352.257c0 .108-.068.144-.098.155-.045.016-.089.006-.103-.012-.012-.015-.01-.057.032-.125a.091.091 0 0 0-.027-.125.088.088 0 0 0-.122.028c-.114.18-.053.294-.022.334.063.081.18.109.294.071-.037.161-.072.313.072.46a.088.088 0 0 0 .126 0 .091.091 0 0 0 0-.128c-.071-.073-.062-.132-.025-.293a1.54 1.54 0 0 0 .05-.365.457.457 0 0 0-.09-.271h.002a.09.09 0 0 0 .089-.09.09.09 0 0 0-.09-.09h-.002a.456.456 0 0 0 .092-.271c0-.149-.029-.27-.051-.366zM.668.4C.637.302.648.248.668.229A.044.044 0 0 1 .717.221C.732.229.732.24.732.246c0 .05.04.09.088.09a.09.09 0 0 0 .09-.09C.91.241.91.23.924.222a.044.044 0 0 1 .047.006c.021.02.032.074 0 .17a3.998 3.998 0 0 1-.149.351 4.84 4.84 0 0 1-.153-.35zM.82 4.122a.443.443 0 0 0 .09.094.444.444 0 0 0-.09.095.443.443 0 0 0-.089-.095.443.443 0 0 0 .09-.094zm0 5.414a.443.443 0 0 0 .09.094.444.444 0 0 0-.09.095.443.443 0 0 0-.089-.095.442.442 0 0 0 .09-.094zm.152 3.912c.032.096.021.151 0 .17a.045.045 0 0 1-.047.007c-.016-.007-.016-.019-.016-.025a.09.09 0 0 0-.089-.09.09.09 0 0 0-.088.09c0 .006 0 .018-.016.025a.045.045 0 0 1-.048-.007c-.02-.019-.031-.074 0-.17.023-.07.106-.251.152-.35.046.096.13.28.152.35zm-.063-1.11a.445.445 0 0 0-.089.094.445.445 0 0 0-.088-.095.445.445 0 0 0 .088-.094.442.442 0 0 0 .089.094zm.475-2.056L.82 11.574l-.563-1.292a.684.684 0 0 1-.057-.271c0-.13.074-.244.18-.277a.267.267 0 0 1 .352.257c0 .109-.069.145-.098.155-.046.016-.09.007-.103-.011-.012-.016-.01-.057.032-.126a.091.091 0 0 0-.027-.124.088.088 0 0 0-.123.028c-.113.18-.053.293-.021.334.064.082.185.11.3.07a.31.31 0 0 0 .04-.018v.229a.09.09 0 0 0-.089-.086.09.09 0 0 0-.089.09c0 .06.04.162.178.193v.169c0 .05.04.09.088.09a.09.09 0 0 0 .09-.09v-.169c.136-.031.176-.134.176-.192 0-.05-.04-.094-.088-.094a.087.087 0 0 0-.089.088V10.3a.31.31 0 0 0 .04.018c.115.04.236.012.3-.07.031-.04.092-.154-.022-.334a.088.088 0 0 0-.122-.028.091.091 0 0 0-.027.125c.043.068.044.11.032.125-.014.018-.058.027-.103.011-.03-.01-.098-.046-.098-.155a.266.266 0 0 1 .352-.257c.106.033.18.147.18.277a.68.68 0 0 1-.057.271zm0-1.304a.684.684 0 0 1 .057.272c0 .13-.074.244-.18.276a.266.266 0 0 1-.352-.257c0-.108.068-.144.098-.155.045-.016.089-.006.103.012.012.015.01.057-.032.125a.091.091 0 0 0 .027.125.088.088 0 0 0 .123-.028c.113-.18.052-.294.021-.334-.064-.083-.185-.11-.3-.07a.317.317 0 0 0-.04.017v-.228a.09.09 0 0 0 .089.085.09.09 0 0 0 .088-.09c0-.059-.04-.161-.177-.193v-.168a.09.09 0 0 0-.089-.09.09.09 0 0 0-.088.09v.168c-.137.032-.178.134-.178.193 0 .05.04.093.089.093a.087.087 0 0 0 .088-.087v.227a.31.31 0 0 0-.039-.017c-.115-.04-.236-.013-.3.07-.031.04-.092.153.021.334a.088.088 0 0 0 .123.028.091.091 0 0 0 .027-.125C.52 9.183.519 9.141.53 9.126c.014-.018.057-.028.103-.012.03.01.098.047.098.155a.266.266 0 0 1-.352.257C.274 9.493.2 9.38.2 9.25c0-.093.02-.187.057-.272L.82 7.687l.564 1.291zM.91 6.923a.445.445 0 0 0-.089.095.445.445 0 0 0-.088-.095.445.445 0 0 0 .088-.094.445.445 0 0 0 .089.094zm.475-2.055L.82 6.16.257 4.868A.684.684 0 0 1 .2 4.597c0-.13.074-.244.18-.277a.267.267 0 0 1 .352.257c0 .109-.069.145-.098.155-.046.017-.09.007-.103-.011-.012-.015-.01-.057.032-.125a.091.091 0 0 0-.027-.125.088.088 0 0 0-.123.028c-.113.18-.053.294-.021.334.064.082.185.11.3.07a.31.31 0 0 0 .04-.018v.229a.09.09 0 0 0-.089-.086.09.09 0 0 0-.089.09c0 .06.04.162.178.193v.169c0 .05.04.09.088.09a.09.09 0 0 0 .09-.09v-.17c.136-.031.176-.133.176-.192 0-.05-.04-.094-.088-.094a.087.087 0 0 0-.089.088v-.228a.31.31 0 0 0 .04.018c.115.04.236.012.3-.07.031-.04.092-.154-.022-.334a.088.088 0 0 0-.122-.028.091.091 0 0 0-.027.125c.043.068.044.11.032.125-.014.018-.058.028-.103.011-.03-.01-.098-.046-.098-.155a.267.267 0 0 1 .352-.257c.106.033.18.147.18.277 0 .093-.02.187-.057.271zm0-1.304a.684.684 0 0 1 .057.272c0 .13-.074.244-.18.277a.266.266 0 0 1-.352-.258c0-.108.068-.144.098-.154.045-.017.089-.007.103.01.012.016.01.058-.032.126a.091.091 0 0 0 .027.125.088.088 0 0 0 .123-.028c.113-.18.052-.294.021-.334-.064-.083-.185-.11-.3-.07a.31.31 0 0 0-.04.017V3.32a.09.09 0 0 0 .089.085.09.09 0 0 0 .088-.09c0-.059-.04-.16-.177-.193v-.168a.09.09 0 0 0-.089-.09.09.09 0 0 0-.088.09v.168c-.137.032-.178.134-.178.193 0 .05.04.093.089.093A.087.087 0 0 0 .73 3.32v.227a.31.31 0 0 0-.039-.017c-.115-.04-.236-.013-.3.07-.031.04-.092.153.021.334a.088.088 0 0 0 .123.028.091.091 0 0 0 .027-.125C.52 3.77.519 3.727.53 3.712c.014-.018.057-.028.103-.011.03.01.098.046.098.154a.266.266 0 0 1-.352.257C.274 4.08.2 3.967.2 3.837c0-.093.02-.187.057-.272L.82 2.273l.564 1.291zM.732 1.51a.445.445 0 0 0 .088-.094.445.445 0 0 0 .089.094.445.445 0 0 0-.089.095.442.442 0 0 0-.088-.095z"/><ellipse cx="11.45" cy="5.859" rx="2.134" ry="2.172"/><path d="M11.637 3.09c0 .09-.078.163-.174.163-.095 0-.173-.073-.173-.163 0-.09.173-.489.173-.489s.174.399.174.489zm-.347 5.538c0-.09.078-.163.173-.163.096 0 .174.073.174.163 0 .09-.174.489-.174.489s-.173-.4-.173-.49zm2.88-2.586c-.088 0-.16-.077-.16-.173 0-.096.072-.173.16-.173.089 0 .48.173.48.173s-.391.173-.48.173zm-5.44-.346c.088 0 .16.077.16.173 0 .096-.072.173-.16.173-.089 0-.48-.173-.48-.173s.391-.173.48-.173zm4.757-1.68a.158.158 0 0 1-.226 0 .165.165 0 0 1 0-.23c.062-.064.453-.23.453-.23s-.164.396-.227.46zM9.414 7.702a.158.158 0 0 1 .226 0 .165.165 0 0 1 0 .23c-.063.064-.453.23-.453.23s.164-.397.227-.46zm3.846.23a.165.165 0 0 1 0-.23.158.158 0 0 1 .227 0c.063.063.227.46.227.46s-.39-.166-.453-.23zM9.64 3.786a.165.165 0 0 1 0 .23.158.158 0 0 1-.227 0c-.062-.064-.226-.46-.226-.46s.39.166.453.23zm.945-.548a.16.16 0 0 1-.094.213.177.177 0 0 1-.227-.088c-.036-.083-.039-.514-.039-.514s.323.306.36.39zm1.759 5.242a.16.16 0 0 1 .094-.213.177.177 0 0 1 .227.088c.036.083.039.514.039.514s-.323-.306-.36-.39zm1.681-3.51c-.082.037-.175-.005-.21-.093a.178.178 0 0 1 .087-.226c.082-.037.505-.039.505-.039s-.3.322-.382.359zm-5.15 1.799c.082-.037.176.005.21.093a.178.178 0 0 1-.087.227c-.082.036-.505.038-.505.038s.3-.322.382-.358zm3.79-3.406a.178.178 0 0 1-.227.088.16.16 0 0 1-.094-.213c.037-.083.36-.389.36-.389s-.003.43-.04.514zm-2.401 4.992a.178.178 0 0 1 .227-.088.16.16 0 0 1 .094.212c-.037.084-.36.39-.36.39s.003-.431.04-.514zm3.638-1.266a.18.18 0 0 1-.086-.227c.034-.088.127-.13.209-.093.081.036.382.358.382.358s-.423-.002-.505-.038zM8.998 4.65c.082.037.12.139.087.227-.034.088-.128.13-.21.094-.081-.037-.382-.359-.382-.359s.423.002.505.039zm2.105-1.539a.165.165 0 0 1-.136.192c-.094.017-.186-.04-.204-.128-.019-.089.068-.511.068-.511s.253.359.272.447zm.721 5.495a.163.163 0 0 1 .136-.191c.094-.018.186.04.204.128.019.088-.068.511-.068.511s-.253-.36-.272-.448zm2.326-3.108c-.087.02-.171-.042-.189-.136-.017-.093.04-.184.126-.203.087-.019.502.068.502.068s-.353.253-.44.271zm-5.4.742c.087-.02.172.042.189.135.017.094-.04.185-.126.204-.087.019-.502-.068-.502-.068s.353-.253.44-.272zm4.37-2.593a.18.18 0 0 1-.241.045.157.157 0 0 1-.048-.226c.053-.075.433-.316.433-.316s-.092.422-.145.497zM9.817 8.07a.18.18 0 0 1 .24-.044c.08.05.101.151.048.226-.053.075-.433.316-.433.316s.092-.422.145-.497zm3.806-.519a.182.182 0 0 1-.044-.24c.05-.08.149-.1.222-.047.074.053.31.432.31.432s-.414-.092-.488-.145zM9.277 4.193a.181.181 0 0 1 .044.24.152.152 0 0 1-.222.048c-.073-.053-.31-.432-.31-.432s.415.091.488.144zm.828-.727a.157.157 0 0 1-.048.226.18.18 0 0 1-.24-.045c-.053-.075-.145-.497-.145-.497s.38.241.433.316zm2.725 4.786a.157.157 0 0 1 .049-.226.18.18 0 0 1 .24.045c.053.075.145.497.145.497s-.38-.241-.433-.316zm.971-3.771a.153.153 0 0 1-.222-.048.182.182 0 0 1 .044-.24c.074-.053.488-.144.488-.144s-.236.38-.31.432zM9.1 7.264a.153.153 0 0 1 .221.047.18.18 0 0 1-.044.24c-.073.053-.488.145-.488.145s.237-.38.31-.432zm3.064-4.089c-.018.088-.11.145-.204.128a.165.165 0 0 1-.136-.192c.019-.088.272-.447.272-.447s.087.422.068.51zm-1.401 5.368c.018-.088.11-.146.203-.128.094.018.155.103.137.191-.019.089-.272.448-.272.448s-.087-.423-.068-.511zm3.324-1.964c-.086-.019-.143-.11-.126-.204.018-.093.102-.154.189-.136.086.02.44.272.44.272s-.416.087-.503.068zm-5.274-1.42c.087.019.143.11.126.203-.017.094-.102.155-.188.136-.087-.018-.44-.27-.44-.27s.415-.088.502-.07z"/><path d="M16.47 6.43a.122.122 0 0 0-.16.067 2.3 2.3 0 0 1-.008.018c-.092.22-.284.541-.477.843.18-.59.344-1.22.356-1.263a.125.125 0 0 0-.086-.152.122.122 0 0 0-.15.086c-.084.306-.256.71-.414 1.05.029-.38.034-.732.035-.758a.124.124 0 0 0-.118-.126c-.062.002-.122.048-.127.115-.157 2.194-2.23 3.176-2.432 3.266-.106.01-.598.067-1.045.225-.05.018-.093.036-.136.053a.122.122 0 0 0-.051-.008c-1.371.101-2.464-.471-3.25-1.698a6.057 6.057 0 0 1-.782-1.909.123.123 0 0 0-.142-.099.124.124 0 0 0-.098.146c.005.027.087.451.312 1.01a5.284 5.284 0 0 1-.585-1.375c-.001-.006-.005-.01-.007-.016-.004-.009-.007-.017-.012-.025l-.012-.014-.022-.02-.015-.006a.073.073 0 0 0-.028-.01c-.007-.002-.014-.001-.021-.001-.007 0-.014-.002-.022-.001l-.004.002h-.005c-.007.002-.012.006-.018.008-.007.004-.015.006-.022.011l-.017.016-.015.018c-.005.006-.007.014-.01.022l-.008.022v.024c0 .007-.003.013-.001.02l.002.009v.002c.076.454.256.925.42 1.284-.26-.3-.476-.644-.553-.848-.002-.006-.007-.01-.01-.016-.004-.008-.008-.016-.014-.023l-.015-.012c-.007-.006-.014-.013-.023-.017l-.017-.005c-.01-.003-.018-.006-.028-.007l-.022.003c-.007 0-.014 0-.021.002l-.004.002h-.004c-.007.003-.011.008-.017.012-.007.004-.015.008-.02.013-.007.006-.01.013-.016.02-.004.005-.01.011-.013.018-.003.007-.004.015-.006.023s-.005.015-.006.023l.003.024c0 .007 0 .014.002.021.133.437.453.957.704 1.324a2.854 2.854 0 0 1-.407-.395l-.014-.018a.121.121 0 0 0-.172-.017.126.126 0 0 0-.018.174l.027.033c.183.223.383.43.564.605l-.247-.107a.121.121 0 0 0-.154.052.126.126 0 0 0 .032.162c.024.018.463.352.843.55a.947.947 0 0 1-.125-.005.125.125 0 0 0-.056.24c.01.003.126.052.269.104a.125.125 0 0 0-.015.223c.013.008.186.108.4.198a.126.126 0 0 0 .033.17c.037.026.868.6 1.839.6.063 0 .128-.002.193-.007a.124.124 0 0 0 .112-.134.122.122 0 0 0-.132-.114c-.61.05-1.197-.183-1.547-.36a.605.605 0 0 0 .08-.025.125.125 0 0 0-.044-.24c-.142-.004-.338-.074-.507-.15.064-.032.1-.063.104-.066a.126.126 0 0 0 .04-.128.123.123 0 0 0-.098-.09 1.527 1.527 0 0 1-.185-.047.258.258 0 0 0 .105-.103.127.127 0 0 0 0-.11.122.122 0 0 0-.084-.068.715.715 0 0 1-.107-.034.126.126 0 0 0-.011-.187 7.22 7.22 0 0 1-.242-.204.126.126 0 0 0 .052-.194 8.938 8.938 0 0 1-.228-.31c.043.034.086.069.13.097a.122.122 0 0 0 .151-.015c.01-.01.017-.02.023-.032.074.08.152.154.234.216.011.008.024.008.036.012.035.06.07.119.109.178.743 1.164 1.79 1.787 3.047 1.825a2.575 2.575 0 0 1-.44.224c-.044.017-.082.035-.12.052a.115.115 0 0 0-.051.022c-.347.164-.49.325-.55.438a.235.235 0 0 0 .064.288.122.122 0 0 0 .135.015.128.128 0 0 0 .07-.118c.005-.005.026-.023.093-.026.048-.004.15.008.27.017.114.01.25.02.395.028l-.196.232a.126.126 0 0 0-.018.135.123.123 0 0 0 .115.071l.205-.006c.038.05.084.07.114.078.084.021.168-.013.231-.053a.3.3 0 0 0 .134.055.383.383 0 0 0 .221-.042c.06.039.118.049.162.049h.002a.401.401 0 0 0 .238-.094.297.297 0 0 0 .14.044.356.356 0 0 0 .21-.063.48.48 0 0 0 .419-.139.215.215 0 0 0 .121.031.283.283 0 0 0 .197-.105c.195.024.335-.013.417-.11a.3.3 0 0 0 .067-.169c.542-.003.591-.304.595-.342a.126.126 0 0 0-.028-.093.121.121 0 0 0-.086-.044l-1.422-.087a.122.122 0 0 0-.127.095s-.024.093-.1.166c-.102.1-.266.152-.445.18a.122.122 0 0 0-.166-.121c-.294.115-.77.1-1.141.074a1.4 1.4 0 0 1 .18-.125.125.125 0 0 0 .062-.132c-.007-.039-.035-.065-.068-.083.104-.053.189-.104.27-.154.139-.087.27-.17.51-.254.464-.164 1-.214 1.006-.214a.12.12 0 0 0 .036-.009c.019-.008 1.532-.653 2.245-2.142a1.284 1.284 0 0 1-.03.122.125.125 0 0 0 .07.151.12.12 0 0 0 .13-.023c-.045.12-.086.216-.119.272a.126.126 0 0 0 .078.186 3.93 3.93 0 0 1-.167.231.126.126 0 0 0 .004.16 2.89 2.89 0 0 1-.246.24.126.126 0 0 0-.036.143.813.813 0 0 1-.15.072.125.125 0 0 0-.084.142c.006.033.024.06.05.079-.076.02-.158.04-.246.058a.126.126 0 0 0-.037.23c.004.002.045.027.11.054-.237.097-.66.224-1.354.294a.124.124 0 0 0-.11.136.124.124 0 0 0 .135.112c1.316-.133 1.723-.468 1.74-.483a.126.126 0 0 0-.023-.205c.42-.135.601-.284.61-.292a.126.126 0 0 0 .028-.16c-.03-.052-.094-.075-.15-.052a.48.48 0 0 1-.072.018 15.639 15.639 0 0 0 .776-.585.126.126 0 0 0 .017-.174.121.121 0 0 0-.171-.02l-.06.048c-.06.046-.138.098-.223.151.32-.37.643-.771.735-.886l.025-.032a.126.126 0 0 0-.019-.175.12.12 0 0 0-.172.019l-.03.038a6.82 6.82 0 0 1-.298.344c.326-.602.573-1.194.61-1.282l.003-.01a.125.125 0 0 0-.066-.162zm-5.736 4.199l.033.004a.584.584 0 0 0-.1.128 4.511 4.511 0 0 0-.153-.01c.057-.039.13-.08.22-.122z"/></g></g></svg>