<svg width="24" height="18" viewBox="0 0 24 18" xmlns="http://www.w3.org/2000/svg"><title>icon-show</title><path d="M6.497 14.051L3.15 17.45l.522.53 3.591-3.648c1.362.46 2.909.758 4.64.758 7.485 0 11.574-5.542 11.744-5.778l.16-.222-.16-.222c-.124-.17-2.303-3.123-6.337-4.74L20.657.73 20.135.2l-3.592 3.647a14.433 14.433 0 0 0-4.639-.757C4.419 3.09.33 8.632.16 8.868L0 9.09l.16.222c.123.17 2.303 3.123 6.337 4.74zm16.38-4.961c-.844 1.026-4.702 5.25-10.973 5.25-1.486 0-2.835-.239-4.042-.615l2.234-2.268c.5.395 1.126.633 1.808.633 1.629 0 2.954-1.346 2.954-3 0-.692-.235-1.328-.623-1.836l2.492-2.531c3.427 1.295 5.55 3.638 6.15 4.367zm-13.188 0c0-1.24.993-2.25 2.215-2.25.478 0 .92.156 1.282.418L10.1 10.392a2.257 2.257 0 0 1-.412-1.302zm4.43 0c0 1.24-.993 2.25-2.215 2.25a2.18 2.18 0 0 1-1.282-.418l3.085-3.134c.259.368.412.817.412 1.302zm-2.215-5.25c1.486 0 2.835.239 4.042.615l-2.234 2.268a2.905 2.905 0 0 0-1.808-.633c-1.629 0-2.954 1.346-2.954 3 0 .692.235 1.328.623 1.836l-2.492 2.531C3.654 12.162 1.531 9.82.931 9.09c.844-1.026 4.702-5.25 10.973-5.25z" opacity=".5"/></svg>