<svg width="24" height="16" viewBox="0 0 24 16" xmlns="http://www.w3.org/2000/svg"><title>icon-en</title><g fill="none"><path d="M23.54 15.987H.413a.417.417 0 0 1-.413-.42V.434C0 .2.185.014.413.014H23.54c.228 0 .413.187.413.42v15.133c0 .232-.185.42-.413.42z" fill="#F5F5F5"/><path d="M23.953 1.242H0V.434C0 .2.185.014.413.014H23.54c.228 0 .413.187.413.42v.808zM0 4.928h23.953v1.229H0zm0-2.457h23.953V3.7H0zm23.953 6.143H.413A.417.417 0 0 1 0 8.194v-.808h23.953v1.228zM0 12.301h23.953v1.229H0zm23.54 3.686H.413a.417.417 0 0 1-.413-.42v-.809h23.953v.809c0 .232-.185.42-.413.42zM0 9.843h23.953v1.229H0z" fill="#FF4B55"/><path d="M10.738.013H.413A.417.417 0 0 0 0 .433v7.761c0 .232.185.42.413.42h10.325a.417.417 0 0 0 .413-.42V.434a.417.417 0 0 0-.413-.42z" fill="#41479B"/><path d="M1.16.978l.091.279.29.002c.037 0 .052.05.022.072l-.233.175.088.28c.011.036-.03.066-.06.044l-.235-.17-.235.17c-.03.022-.071-.008-.06-.044l.087-.28-.232-.175c-.03-.023-.015-.071.022-.072l.29-.002.09-.279a.039.039 0 0 1 .075 0zm0 1.46l.091.279.29.002c.037 0 .052.049.022.072l-.233.174.088.28c.011.037-.03.067-.06.045l-.235-.171-.235.171c-.03.022-.071-.008-.06-.044l.087-.28-.232-.175c-.03-.023-.015-.072.022-.072l.29-.002.09-.28a.039.039 0 0 1 .075 0zm0 1.459l.091.28.29.002c.037 0 .052.049.022.071l-.233.175.088.28c.011.037-.03.067-.06.045l-.235-.171-.235.17c-.03.023-.071-.007-.06-.044l.087-.28-.232-.175c-.03-.022-.015-.07.022-.071l.29-.002.09-.28a.039.039 0 0 1 .075 0zm0 1.46l.091.28.29.001c.037 0 .052.05.022.072l-.233.175.088.28c.011.036-.03.067-.06.044l-.235-.17-.235.17c-.03.023-.071-.007-.06-.044l.087-.28-.232-.175c-.03-.023-.015-.071.022-.071l.29-.003.09-.279a.039.039 0 0 1 .075 0zm0 1.46l.091.279.29.002c.037 0 .052.05.022.072l-.233.174.088.28c.011.037-.03.067-.06.045l-.235-.17-.235.17c-.03.022-.071-.008-.06-.044l.087-.28-.232-.175c-.03-.023-.015-.071.022-.072l.29-.002.09-.279a.039.039 0 0 1 .075 0zm1.113-5.123l.091.279.29.002c.037 0 .052.049.022.071l-.232.175.087.28c.011.037-.03.067-.06.045l-.235-.171-.235.17c-.03.023-.071-.007-.06-.043l.087-.28-.232-.176c-.03-.022-.015-.07.023-.071l.289-.002.091-.28a.039.039 0 0 1 .074 0zm0 1.459l.091.28.29.002c.037 0 .052.049.022.071l-.232.175.087.28c.011.037-.03.067-.06.045l-.235-.171-.235.17c-.03.023-.071-.007-.06-.044l.087-.28-.232-.175c-.03-.022-.015-.071.023-.071l.289-.003.091-.279a.039.039 0 0 1 .074 0zm0 1.46l.091.28.29.001c.037 0 .052.05.022.072l-.232.175.087.28c.011.036-.03.067-.06.044l-.235-.17-.235.17c-.03.022-.071-.008-.06-.044l.087-.28-.232-.175c-.03-.023-.015-.071.023-.072l.289-.002.091-.279a.039.039 0 0 1 .074 0zm0 1.46l.091.279.29.002c.037 0 .052.049.022.072l-.232.174.087.28c.011.037-.03.067-.06.045l-.235-.171L2 6.925c-.03.022-.071-.008-.06-.044l.087-.28-.232-.175c-.03-.023-.015-.072.023-.072l.289-.002.091-.28a.039.039 0 0 1 .074 0zM3.386.978l.091.279.29.002c.037 0 .052.05.022.072l-.232.175.087.28c.011.036-.03.066-.06.044l-.235-.17-.235.17c-.03.022-.071-.008-.06-.044l.087-.28-.232-.175c-.03-.023-.015-.071.023-.072l.289-.002.091-.279a.039.039 0 0 1 .074 0zm0 1.46l.091.279.29.002c.037 0 .052.049.022.072l-.232.174.087.28c.011.037-.03.067-.06.045l-.235-.171-.235.17c-.03.023-.071-.007-.06-.043l.087-.28-.232-.175c-.03-.023-.015-.072.023-.072l.289-.002.091-.28a.039.039 0 0 1 .074 0zm0 1.459l.091.28.29.002c.037 0 .052.049.022.071l-.232.175.087.28c.011.037-.03.067-.06.045l-.235-.171-.235.17c-.03.023-.071-.007-.06-.044l.087-.28-.232-.175c-.03-.022-.015-.071.023-.071l.289-.003.091-.279a.039.039 0 0 1 .074 0zm0 1.46l.091.28.29.001c.037 0 .052.05.022.072l-.232.175.087.28c.011.036-.03.067-.06.044l-.235-.17-.235.17c-.03.023-.071-.008-.06-.044l.087-.28-.232-.175c-.03-.023-.015-.071.023-.072l.289-.002.091-.279a.039.039 0 0 1 .074 0zm0 1.46l.091.279.29.002c.037 0 .052.05.022.072l-.232.174.087.28c.011.037-.03.067-.06.045l-.235-.171-.235.171c-.03.022-.071-.008-.06-.044l.087-.28-.232-.175c-.03-.023-.015-.071.023-.072l.289-.002.091-.28a.039.039 0 0 1 .074 0zM4.5 1.694l.09.279.29.002c.037 0 .052.049.022.071l-.232.175.087.28c.011.037-.03.067-.06.045l-.235-.171-.235.17c-.03.023-.07-.007-.06-.043l.088-.28-.233-.176c-.03-.022-.015-.07.023-.071l.289-.002.091-.28a.039.039 0 0 1 .074 0zm0 1.459l.09.28.29.002c.037 0 .052.049.022.071l-.232.175.087.28c.011.037-.03.067-.06.045l-.235-.171-.235.17c-.03.023-.07-.007-.06-.044l.088-.28-.233-.175c-.03-.022-.015-.071.023-.071l.289-.003.091-.279a.039.039 0 0 1 .074 0zm0 1.46l.09.28.29.001c.037 0 .052.05.022.072l-.232.175.087.28c.011.036-.03.067-.06.044l-.235-.17-.235.17c-.03.022-.07-.008-.06-.044l.088-.28-.233-.175c-.03-.023-.015-.071.023-.072l.289-.002.091-.279a.039.039 0 0 1 .074 0zm0 1.46l.09.279.29.002c.037 0 .052.049.022.072L4.67 6.6l.087.28c.011.037-.03.067-.06.045l-.235-.171-.235.171c-.03.022-.07-.008-.06-.044l.088-.28-.233-.175c-.03-.023-.015-.072.023-.072l.289-.002.091-.28a.039.039 0 0 1 .074 0zM5.612.978l.092.279.289.002c.037 0 .053.05.022.072l-.232.175.087.28c.012.036-.03.066-.06.044l-.235-.17-.235.17c-.03.022-.07-.008-.06-.044l.088-.28-.233-.175c-.03-.023-.014-.071.023-.072l.289-.002.091-.279a.039.039 0 0 1 .074 0zm0 1.46l.092.279.289.002c.037 0 .053.049.022.072l-.232.174.087.28c.012.037-.03.067-.06.045l-.235-.171-.235.17c-.03.023-.07-.007-.06-.043l.088-.28-.233-.175c-.03-.023-.014-.072.023-.072l.289-.002.091-.28a.039.039 0 0 1 .074 0zm0 1.459l.092.28.289.002c.037 0 .053.049.022.071l-.232.175.087.28c.012.037-.03.067-.06.045l-.235-.171-.235.17c-.03.023-.07-.007-.06-.044l.088-.28-.233-.175c-.03-.022-.014-.071.023-.071l.289-.003.091-.279a.039.039 0 0 1 .074 0zm0 1.46l.092.28.289.001c.037 0 .053.05.022.072l-.232.175.087.28c.012.036-.03.067-.06.044l-.235-.17-.235.17c-.03.023-.07-.008-.06-.044l.088-.28-.233-.175c-.03-.023-.014-.071.023-.072l.289-.002.091-.279a.039.039 0 0 1 .074 0zm0 1.46l.092.279.289.002c.037 0 .053.05.022.072l-.232.174.087.28c.012.037-.03.067-.06.045l-.235-.171-.235.171c-.03.022-.07-.008-.06-.044l.088-.28-.233-.175c-.03-.023-.014-.071.023-.072l.289-.002.091-.28a.039.039 0 0 1 .074 0zm1.113-5.123l.092.279.289.002c.037 0 .053.049.023.071l-.233.175.087.28c.012.037-.029.067-.06.045l-.235-.171-.235.17c-.03.023-.07-.007-.06-.043l.088-.28-.233-.176c-.03-.022-.014-.07.023-.071l.29-.002.09-.28a.039.039 0 0 1 .074 0zm0 1.459l.092.28.289.002c.037 0 .053.049.023.071l-.233.175.087.28c.012.037-.029.067-.06.045l-.235-.171-.235.17c-.03.023-.07-.007-.06-.044l.088-.28-.233-.175c-.03-.022-.014-.071.023-.071l.29-.003.09-.279a.039.039 0 0 1 .074 0zm0 1.46l.092.28.289.001c.037 0 .053.05.023.072l-.233.175.087.28c.012.036-.029.067-.06.044l-.235-.17-.235.17c-.03.022-.07-.008-.06-.044l.088-.28-.233-.175c-.03-.023-.014-.071.023-.072l.29-.002.09-.279a.039.039 0 0 1 .074 0zm0 1.46l.092.279.289.002c.037 0 .053.049.023.072l-.233.174.087.28c.012.037-.029.067-.06.045l-.235-.171-.235.171c-.03.022-.07-.008-.06-.044l.088-.28-.233-.175c-.03-.023-.014-.072.023-.072l.29-.002.09-.28a.039.039 0 0 1 .074 0zM7.839.978l.091.279.289.002c.037 0 .053.05.023.072l-.233.175.088.28c.01.036-.03.066-.06.044l-.235-.17-.235.17c-.03.022-.071-.008-.06-.044l.087-.28-.233-.175c-.03-.023-.014-.071.023-.072l.29-.002.09-.279a.039.039 0 0 1 .075 0zm0 1.46l.091.279.289.002c.037 0 .053.049.023.072l-.233.174.088.28c.01.037-.03.067-.06.045l-.235-.171-.235.17c-.03.023-.071-.007-.06-.043l.087-.28-.233-.175c-.03-.023-.014-.072.023-.072l.29-.002.09-.28a.039.039 0 0 1 .075 0zm0 1.459l.091.28.289.002c.037 0 .053.049.023.071l-.233.175.088.28c.01.037-.03.067-.06.045l-.235-.171-.235.17c-.03.023-.071-.007-.06-.044l.087-.28-.233-.175c-.03-.022-.014-.071.023-.071l.29-.003.09-.279a.039.039 0 0 1 .075 0zm0 1.46l.091.28.289.001c.037 0 .053.05.023.072l-.233.175.088.28c.01.036-.03.067-.06.044l-.235-.17-.235.17c-.03.023-.071-.008-.06-.044l.087-.28-.233-.175c-.03-.023-.014-.071.023-.072l.29-.002.09-.279a.039.039 0 0 1 .075 0zm0 1.46l.091.279.289.002c.037 0 .053.05.023.072l-.233.174.088.28c.01.037-.03.067-.06.045l-.235-.171-.235.171c-.03.022-.071-.008-.06-.044l.087-.28-.233-.175c-.03-.023-.014-.071.023-.072l.29-.002.09-.28a.039.039 0 0 1 .075 0zm1.113-5.123l.091.279.29.002c.036 0 .052.049.022.071l-.233.175.088.28c.011.037-.03.067-.06.045l-.235-.171-.235.17c-.03.023-.071-.007-.06-.043l.087-.28-.232-.176c-.03-.022-.015-.07.022-.071l.29-.002.09-.28a.039.039 0 0 1 .075 0zm0 1.459l.091.28.29.002c.036 0 .052.049.022.071l-.233.175.088.28c.011.037-.03.067-.06.045l-.235-.171-.235.17c-.03.023-.071-.007-.06-.044l.087-.28-.232-.175c-.03-.022-.015-.071.022-.071l.29-.003.09-.279a.039.039 0 0 1 .075 0zm0 1.46l.091.28.29.001c.036 0 .052.05.022.072l-.233.175.088.28c.011.036-.03.067-.06.044l-.235-.17-.235.17c-.03.022-.071-.008-.06-.044l.087-.28-.232-.175c-.03-.023-.015-.071.022-.072l.29-.002.09-.279a.039.039 0 0 1 .075 0zm0 1.46l.091.279.29.002c.036 0 .052.049.022.072l-.233.174.088.28c.011.037-.03.067-.06.045l-.235-.171-.235.171c-.03.022-.071-.008-.06-.044l.087-.28-.232-.175c-.03-.023-.015-.072.022-.072l.29-.002.09-.28a.039.039 0 0 1 .075 0zM10.065.978l.091.279.29.002c.037 0 .052.05.022.072l-.232.175.087.28c.011.036-.03.066-.06.044l-.235-.17-.235.17c-.03.022-.071-.008-.06-.044l.087-.28-.232-.175c-.03-.023-.015-.071.023-.072l.289-.002.091-.279a.039.039 0 0 1 .074 0zm0 1.46l.091.279.29.002c.037 0 .052.049.022.072l-.232.174.087.28c.011.037-.03.067-.06.045l-.235-.171-.235.17c-.03.023-.071-.007-.06-.043l.087-.28-.232-.175c-.03-.023-.015-.072.023-.072l.289-.002.091-.28a.039.039 0 0 1 .074 0zm0 1.459l.091.28.29.002c.037 0 .052.049.022.071l-.232.175.087.28c.011.037-.03.067-.06.045l-.235-.171-.235.17c-.03.023-.071-.007-.06-.044l.087-.28-.232-.175c-.03-.022-.015-.071.023-.071l.289-.003.091-.279a.039.039 0 0 1 .074 0zm0 1.46l.091.28.29.001c.037 0 .052.05.022.072l-.232.175.087.28c.011.036-.03.067-.06.044l-.235-.17-.235.17c-.03.023-.071-.008-.06-.044l.087-.28-.232-.175c-.03-.023-.015-.071.023-.072l.289-.002.091-.279a.039.039 0 0 1 .074 0zm0 1.46l.091.279.29.002c.037 0 .052.05.022.072l-.232.174.087.28c.011.037-.03.067-.06.045l-.235-.171-.235.171c-.03.022-.071-.008-.06-.044l.087-.28-.232-.175c-.03-.023-.015-.071.023-.072l.289-.002.091-.28a.039.039 0 0 1 .074 0z" fill="#F5F5F5"/></g></svg>