<svg width="29" height="32" viewBox="0 0 29 32" xmlns="http://www.w3.org/2000/svg"><title>icon-refresh</title><path d="M16.944 23.435a.56.56 0 0 0 .337.724l4.808 1.76a13.311 13.311 0 0 1-7.696 2.42c-7.303 0-13.244-5.828-13.244-12.99a.569.569 0 0 0-.575-.564.569.569 0 0 0-.574.563c0 7.784 6.457 14.117 14.393 14.117 2.792 0 5.463-.774 7.784-2.243l-.886 4.098a.563.563 0 0 0 .562.68.572.572 0 0 0 .56-.447l1.348-6.225-6.079-2.224a.578.578 0 0 0-.738.33zm-2.336-20.9c-2.794 0-5.464.774-7.784 2.242L7.71.68a.563.563 0 0 0-.443-.668.574.574 0 0 0-.68.435L5.24 6.672l6.078 2.224a.575.575 0 0 0 .739-.33.56.56 0 0 0-.337-.726L6.91 6.08a13.31 13.31 0 0 1 7.697-2.42c7.303 0 13.243 5.828 13.243 12.99a.57.57 0 0 0 .575.564.569.569 0 0 0 .575-.564c0-7.783-6.457-14.115-14.392-14.115z" fill="#FFF" opacity=".5"/></svg>