<svg width="32" height="32" viewBox="0 0 32 32" xmlns="http://www.w3.org/2000/svg"><title>icon-profile</title><path d="M32 16c0-8.822-7.178-16-16-16S0 7.178 0 16c0 4.66 2.004 8.86 5.193 11.786l-.015.014.52.437c.033.029.07.052.103.08.276.229.562.446.853.656a16.294 16.294 0 0 0 2.548 1.506l.082.037a15.85 15.85 0 0 0 3.87 1.225l.107.019c.421.072.847.13 1.278.17l.158.012c.43.035.863.058 1.303.058.436 0 .866-.023 1.293-.057l.162-.012c.428-.04.85-.096 1.267-.167l.11-.02a15.855 15.855 0 0 0 3.814-1.196l.133-.06a16.08 16.08 0 0 0 2.23-1.274c.107-.073.212-.15.319-.227.255-.184.506-.374.75-.572.054-.044.112-.082.165-.126l.532-.445-.015-.013A15.959 15.959 0 0 0 32 16zM1.164 16C1.164 7.82 7.819 1.164 16 1.164c8.18 0 14.836 6.655 14.836 14.836 0 4.408-1.934 8.372-4.997 11.091a4.36 4.36 0 0 0-.52-.312l-4.926-2.463a1.29 1.29 0 0 1-.716-1.16v-1.72c.114-.14.234-.3.358-.475a11.86 11.86 0 0 0 1.523-2.981 2.112 2.112 0 0 0 1.213-1.914v-2.062c0-.505-.185-.994-.516-1.379V9.91c.03-.302.137-2.006-1.096-3.412C20.087 5.274 18.351 4.655 16 4.655s-4.087.62-5.159 1.843C9.608 7.903 9.715 9.608 9.745 9.91v2.715a2.12 2.12 0 0 0-.516 1.378v2.063c0 .64.288 1.238.78 1.641.471 1.846 1.441 3.244 1.8 3.717v1.684c0 .475-.26.911-.676 1.14l-4.6 2.509c-.148.08-.293.172-.438.277C3.07 24.315 1.164 20.376 1.164 16zm23.54 12.004c-.204.148-.411.291-.621.428a14.627 14.627 0 0 1-1.13.67l-.19.097c-.655.335-1.333.624-2.03.858l-.073.025a14.88 14.88 0 0 1-1.108.321l-.003.001c-.378.093-.76.17-1.143.234l-.032.006c-.36.059-.725.101-1.09.133l-.195.015c-.361.027-.724.044-1.089.044-.369 0-.737-.018-1.103-.045l-.19-.015a15.047 15.047 0 0 1-1.099-.135l-.049-.009a14.781 14.781 0 0 1-2.263-.565l-.069-.023a15.046 15.046 0 0 1-1.083-.415l-.008-.003a15.182 15.182 0 0 1-.992-.475c-.042-.022-.085-.043-.127-.066a14.953 14.953 0 0 1-1.128-.672 14.788 14.788 0 0 1-.779-.543l-.077-.06.056-.032 4.6-2.51a2.46 2.46 0 0 0 1.283-2.16v-2.096l-.134-.161c-.013-.015-1.27-1.545-1.746-3.617l-.053-.23-.199-.129a.964.964 0 0 1-.447-.81v-2.062a.95.95 0 0 1 .324-.712l.192-.173V9.877l-.005-.076c-.002-.014-.174-1.414.812-2.537C12.557 6.305 14 5.818 16 5.818c1.993 0 3.43.483 4.274 1.435.984 1.112.823 2.537.822 2.549l-.005 3.317.192.173a.951.951 0 0 1 .324.712v2.062a.972.972 0 0 1-.687.917l-.29.089-.092.288a10.764 10.764 0 0 1-1.453 2.927c-.152.216-.3.407-.428.553l-.144.164v2.152c0 .938.521 1.782 1.36 2.2L24.8 27.82c.032.015.063.032.094.048-.063.047-.127.09-.19.136z" fill="#F5E9CD"/></svg>