<svg width="142" height="48" viewBox="0 0 142 48" xmlns="http://www.w3.org/2000/svg"><title>icon-google</title><g transform="translate(1 1)" fill="none" fill-rule="evenodd" opacity=".7"><rect stroke="#5D5D5D" opacity=".3" x="-.5" y="-.5" width="141" height="47" rx="2"/><g fill="#575757"><path d="M96.811 32.635l-1.024.962c-.236.13-.471.28-.706.387-.711.322-1.434.403-2.077.403-.684 0-1.756-.043-2.85-.832-1.52-1.068-2.183-2.901-2.183-4.5 0-3.308 2.702-4.93 4.905-4.93.771 0 1.562.191 2.206.597 1.07.704 1.346 1.62 1.5 2.112l-5.034 2.027-1.649.128c.534 2.712 2.375 4.29 4.41 4.29 1.016 0 1.77-.33 2.463-.671 0 0 .138-.072.04.027zm-3.036-5.397c.409-.148.62-.276.62-.573 0-.852-.967-1.836-2.121-1.836-.856 0-2.462.664-2.462 2.969 0 .36.043.743.065 1.126l3.898-1.686z"/><path d="M86.287 32.47c0 .829.149.958.852 1.022.367.043.733.063 1.095.105l-.792.47H83.67c.495-.64.58-.703.58-1.13v-.476l-.008-12.689h-1.667l1.604-.77h3.062c-.664.383-.862.617-.948 1.363l-.005 12.104z"/><path d="M80.436 25.171c.49.403 1.517 1.258 1.517 2.88 0 1.58-.894 2.325-1.795 3.03-.277.278-.6.58-.6 1.045 0 .471.324.728.557.919l.773.595c.94.79 1.797 1.516 1.797 2.99 0 2.008-1.949 4.032-5.632 4.032-3.102 0-4.602-1.473-4.602-3.052 0-.769.383-1.857 1.65-2.602 1.327-.81 3.126-.917 4.089-.98-.301-.388-.644-.793-.644-1.455 0-.361.109-.577.214-.831-.234.022-.47.045-.684.045-2.271 0-3.555-1.689-3.555-3.353 0-.982.449-2.07 1.371-2.86 1.221-1.002 2.677-1.175 3.833-1.175h4.412l-1.371.772h-1.33zm-1.518 9.475c-.175-.023-.28-.023-.492-.023-.194 0-1.351.042-2.247.342-.474.172-1.844.683-1.844 2.2 0 1.512 1.48 2.602 3.768 2.602 2.055 0 3.147-.982 3.147-2.304 0-1.089-.707-1.663-2.332-2.817zm.616-4.055c.495-.492.538-1.173.538-1.56 0-1.535-.918-3.925-2.698-3.925-.555 0-1.156.278-1.498.707-.361.444-.47 1.021-.47 1.576 0 1.43.836 3.8 2.676 3.8.536 0 1.113-.26 1.452-.598zm-12.373 3.753c-3.403 0-5.224-2.643-5.224-5.034 0-2.795 2.29-5.186 5.545-5.186 3.148 0 5.12 2.457 5.12 5.036 0 2.518-1.95 5.184-5.44 5.184zm2.678-1.727c.518-.683.643-1.535.643-2.366 0-1.88-.898-5.465-3.553-5.465-.707 0-1.418.275-1.93.725-.837.747-.986 1.685-.986 2.606 0 2.108 1.045 5.586 3.64 5.586.838 0 1.693-.404 2.186-1.086zm-14.072 1.727c-3.404 0-5.222-2.643-5.222-5.034 0-2.795 2.29-5.186 5.544-5.186 3.146 0 5.115 2.457 5.115 5.036.001 2.518-1.945 5.184-5.437 5.184zm2.678-1.727c.514-.683.642-1.535.642-2.366 0-1.88-.9-5.465-3.553-5.465-.71 0-1.413.275-1.927.725-.837.747-.986 1.685-.986 2.606 0 2.108 1.05 5.586 3.64 5.586.836 0 1.69-.404 2.184-1.086zm-9.261.986l-2.87.655c-1.163.182-2.207.344-3.313.344-5.537 0-7.646-4.063-7.646-7.242 0-3.883 2.989-7.482 8.107-7.482 1.083 0 2.126.159 3.075.416 1.504.422 2.207.94 2.647 1.245l-1.667 1.579-.703.157.501-.797c-.679-.661-1.927-1.88-4.295-1.88-3.167 0-5.556 2.399-5.556 5.902 0 3.762 2.728 7.301 7.102 7.301 1.286 0 1.947-.257 2.548-.498v-3.225l-3.03.162 1.606-.86h4.253l-.52.5c-.14.118-.159.159-.198.318-.02.182-.04.761-.04.965v2.44z"/></g><path d="M102.983 32.726v5.436H101.9V24.33h1.083v1.574a4.309 4.309 0 0 1 3.492-1.825c2.685 0 4.494 2.031 4.494 5.246 0 3.193-1.81 5.266-4.494 5.266-1.414 0-2.68-.726-3.492-1.865zm6.823-3.4c0-2.424-1.267-4.272-3.514-4.272-1.395 0-2.73 1.094-3.31 2.046v4.428c.58.955 1.915 2.088 3.31 2.088 2.247 0 3.514-1.864 3.514-4.29zm2.642 5.016V20.51h1.083v13.832h-1.083zm13.235 2.925c.231.103.626.167.878.167.662 0 1.123-.27 1.538-1.225l.79-1.783-4.267-10.096h1.208l3.66 8.749 3.624-8.75h1.225l-5.204 12.215c-.54 1.258-1.39 1.864-2.556 1.864-.35 0-.811-.063-1.082-.145l.186-.996zm-3.163-2.954a18.397 18.397 0 0 1-.167-.91 5.964 5.964 0 0 1-.052-.78c-.372.544-.898.996-1.57 1.353-.672.358-1.31.534-2.187.534-1.055 0-1.874-.259-2.459-.784-.582-.524-.876-1.234-.876-2.133 0-.897.425-1.626 1.271-2.183.847-.56 1.941-.837 3.294-.837h2.526v-1.245c0-.716-.245-1.28-.734-1.689-.49-.408-1.18-.616-2.074-.616-.816 0-1.479.19-1.983.558-.5.375-.751.84-.751 1.402h-1.109l-.023-.054c-.04-.756.307-1.42 1.045-1.992.734-.573 1.698-.86 2.882-.86 1.18 0 2.136.283 2.856.848.72.56 1.08 1.369 1.08 2.426v4.94c0 .355.017.698.062 1.032.046.334.12.668.216.99h-1.247zm-3.843-.787c.92 0 1.58-.205 2.257-.61.672-.404 1.128-.93 1.368-1.566v-1.922h-2.538c-.97 0-1.772.214-2.404.645-.632.43-.953.951-.953 1.556 0 .57.203 1.028.607 1.374.404.35.957.523 1.663.523z" fill="#434343"/><path d="M35.328 9.164c0-2.126 1.585-3.492 3.555-3.492 1.32 0 2.183.627 2.722 1.397l-.965.557a2.187 2.187 0 0 0-1.757-.901c-1.34 0-2.336 1.012-2.336 2.439 0 1.407.996 2.44 2.336 2.44.691 0 1.3-.314 1.605-.608V9.953h-2.031V8.911h3.209v2.52a3.664 3.664 0 0 1-2.783 1.235c-1.97 0-3.555-1.386-3.555-3.502zm7.807 3.371V5.782h4.64v1.043h-3.452v1.741h3.382V9.61h-3.382v1.884h3.453v1.042h-4.64zm7.929 0v-5.71h-2.05V5.784h5.29v1.043h-2.05v5.709zm7.37 0V5.782h1.187v6.753zm4.496 0v-5.71h-2.05V5.784h5.29v1.043h-2.05v5.709zm7.076-3.371c0-2.015 1.432-3.492 3.463-3.492 2.02 0 3.463 1.478 3.463 3.492 0 2.014-1.443 3.492-3.463 3.492-2.032 0-3.463-1.478-3.463-3.492zm5.707 0c0-1.397-.883-2.44-2.244-2.44-1.37 0-2.245 1.043-2.245 2.44 0 1.386.874 2.44 2.245 2.44 1.36 0 2.244-1.054 2.244-2.44zm7.329 3.371l-3.534-4.829v4.829H78.32V5.782h1.22l3.462 4.678V5.782h1.188v6.753z" fill="#4B4B4B"/><path d="M9.62 38.996c-.391-.106-.646-.493-.646-1.093V18.097c0-.555.216-.93.557-1.066l9.733 11.037-9.645 10.928zm1.339-.42l11.715-6.64-2.853-3.236-8.862 9.875zm11.796-14.464l-11.552-6.549 8.635 9.854 2.917-3.305zm.784.444l4.525 2.566c.857.486.865 1.269 0 1.759l-4.64 2.63-3.026-3.454 3.14-3.5z" fill="#5D5D5D"/></g></svg>