<svg width="210" height="200" viewBox="0 0 210 200" xmlns="http://www.w3.org/2000/svg"><title>icon-doctor</title><g fill="none"><path d="M189.694 15h-38.388C149.48 15 148 16.567 148 18.5s1.48 3.5 3.306 3.5h38.388c1.826 0 3.306-1.567 3.306-3.5s-1.48-3.5-3.306-3.5z" fill="#FDFD03"/><path d="M189.753 45h-21.506c-1.793 0-3.247 1.567-3.247 3.5s1.454 3.5 3.247 3.5h21.506c1.793 0 3.247-1.567 3.247-3.5s-1.454-3.5-3.247-3.5z" fill="#FF0082"/><path d="M156.644 45h-5.288c-1.854 0-3.356 1.567-3.356 3.5s1.502 3.5 3.356 3.5h5.288c1.854 0 3.356-1.567 3.356-3.5s-1.502-3.5-3.356-3.5z" fill="#FDFD03"/><path d="M189.707 30h-3.414c-1.819 0-3.293 1.567-3.293 3.5s1.474 3.5 3.293 3.5h3.414c1.819 0 3.293-1.567 3.293-3.5s-1.474-3.5-3.293-3.5z" fill="#79EDBA"/><path d="M174.608 30h-23.216c-1.874 0-3.392 1.567-3.392 3.5s1.518 3.5 3.392 3.5h23.216c1.874 0 3.392-1.567 3.392-3.5s-1.518-3.5-3.392-3.5z" fill="#FF0082"/><path d="M195.93 0h-49.86C138.31 0 132 6.345 132 14.143V51.72c0 7.798 6.31 14.143 14.069 14.143h6.62l-.37 8.64a3.357 3.357 0 0 0 1.676 3.054 3.323 3.323 0 0 0 3.468-.095l17.833-11.599h20.635c7.758 0 14.069-6.345 14.069-14.143V14.143C210 6.345 203.688 0 195.93 0zm7.399 51.72c0 4.1-3.319 7.437-7.398 7.437h-21.62c-.643 0-1.272.187-1.812.538l-13.238 8.61.242-5.651a3.363 3.363 0 0 0-.923-2.463 3.327 3.327 0 0 0-2.409-1.034H146.07c-4.08 0-7.398-3.337-7.398-7.437V14.143c0-4.1 3.319-7.437 7.398-7.437h49.862c4.08 0 7.398 3.337 7.398 7.437V51.72z" fill="#EFEEE5"/><path d="M106.052 152.749a33.385 33.385 0 0 0-14.653-9.335 33.253 33.253 0 0 0 5.008-6.875h1.58c8.349 0 15.141-6.878 15.141-15.331V82.567C113.128 56.339 92.056 35 66.155 35H48.846c-25.904 0-46.98 21.338-46.98 47.567v31.414c0 5.375 4.32 9.748 9.628 9.748a9.544 9.544 0 0 0 3.08-.517c.644 7.635 3.845 14.746 9.016 20.208a33.37 33.37 0 0 0-14.645 9.334C3.177 159.048 0 167.246 0 175.837v20.784C0 198.487 1.494 200 3.338 200h108.324c1.844 0 3.338-1.513 3.338-3.38v-20.783c0-8.595-3.178-16.795-8.948-23.088zM93.874 93.122L80.266 73.837a3.317 3.317 0 0 0-3.132-1.39 3.346 3.346 0 0 0-2.696 2.13c-2.779 7.239-7.594 13.384-13.925 17.77-6.331 4.386-13.733 6.705-21.403 6.705H21.126V83.93c0-16.665 13.391-30.224 29.852-30.224h13.044c16.46 0 29.852 13.559 29.852 30.224v9.192zm5.362 36.552a33.275 33.275 0 0 0 1.182-6.462 9.47 9.47 0 0 0 5.756.13c-.838 3.296-3.563 5.823-6.938 6.332zm7.215-15.694a2.986 2.986 0 0 1-.857 2.11 2.933 2.933 0 0 1-2.093.878c-1.627 0-2.951-1.34-2.951-2.988V97.3c0-1.648 1.324-2.988 2.95-2.988 1.628 0 2.951 1.34 2.951 2.988v16.681zm-92 0a3 3 0 0 1-.859 2.11 2.938 2.938 0 0 1-2.098.878c-1.627 0-2.951-1.34-2.951-2.988V97.3c0-1.648 1.324-2.988 2.95-2.988 1.63 0 2.957 1.34 2.957 2.988v16.681zm0-30.05v4.093a9.482 9.482 0 0 0-5.908 0v-5.456c0-22.5 18.08-40.806 40.303-40.806h17.308c22.22 0 40.297 18.305 40.297 40.806v5.456a9.48 9.48 0 0 0-5.902 0V83.93c0-20.393-16.386-36.984-36.527-36.984H50.977c-20.14-.001-36.527 16.59-36.527 36.983zm6.675 36.418v-14.536H39.11c9.023 0 17.727-2.727 25.174-7.885A44.734 44.734 0 0 0 78.152 82.47l15.722 22.28v15.598c0 3.26-.582 6.421-1.716 9.43H69.633c-1.844 0-3.339 1.514-3.339 3.38 0 1.867 1.495 3.38 3.339 3.38h18.809a26.325 26.325 0 0 1-6.253 5.927 25.88 25.88 0 0 1-6.109 3.057l-.095.03-14.515 4.951c-2.54.869-5.395.87-7.947 0l-14.513-4.951a26.193 26.193 0 0 1-6.211-3.087c-7.31-4.942-11.673-13.21-11.673-22.117zm56.041 48.86l-16.328-8.9v-2.688a18.779 18.779 0 0 0 2.764-.711l10.829-3.693 2.735 15.991zM54.162 157.62v2.689l-16.329 8.898 2.736-15.99 10.823 3.692c.906.308 1.832.543 2.77.71zm0 35.62H6.678v-17.403c0-13.722 10.29-25.364 23.618-26.978a32.75 32.75 0 0 0 3.893 2.044L30.084 174.9a3.4 3.4 0 0 0 1.338 3.32 3.31 3.31 0 0 0 3.533.233l7.9-4.305 11.307 11.444v7.649zm-5.168-22.438l8.506-4.636 8.506 4.636-8.506 8.61-8.506-8.61zm59.33 22.438H60.839v-7.649l11.306-11.443 7.9 4.305a3.304 3.304 0 0 0 3.534-.233 3.398 3.398 0 0 0 1.338-3.32l-4.105-23.997a32.43 32.43 0 0 0 3.892-2.047c13.33 1.617 23.62 13.26 23.62 26.98v17.404z" fill="#495787"/></g></svg>