<?xml version="1.0" encoding="UTF-8"?>
<svg width="17px" height="15px" viewBox="0 0 17 15" version="1.1" xmlns="http://www.w3.org/2000/svg" xmlns:xlink="http://www.w3.org/1999/xlink">
    <!-- Generator: Sketch 40.1 (33804) - http://www.bohemiancoding.com/sketch -->
    <title>Shape</title>
    <desc>Created with Sketch.</desc>
    <defs></defs>
    <g id="Symbols" stroke="none" stroke-width="1" fill="none" fill-rule="evenodd">
        <g id="social" transform="translate(-216.000000, -9.000000)" fill="#FFFFFF">
            <g id="Group-15">
                <g transform="translate(123.000000, 0.000000)">
                    <path d="M101.296782,24 C101.140585,24 100.991484,23.9370392 100.885228,23.8262822 L94.2533892,16.9105919 C94.2516826,16.9088105 94.249976,16.907029 94.2483144,16.9052475 C93.4433052,16.0428718 93,14.9000188 93,13.687166 C93,12.4742697 93.4433052,11.3314601 94.2483144,10.4691279 L94.3490921,10.3611952 C95.1685173,9.48343786 96.2626113,9 97.4298634,9 C98.5971154,9 99.6912543,9.48343786 100.510724,10.3612386 L101.296782,11.2033226 L102.082839,10.3612821 C102.902264,9.48348131 103.996358,9.00004345 105.163655,9.00004345 C106.330952,9.00004345 107.425046,9.48348131 108.244516,10.3613256 L108.345159,10.4689976 C109.150303,11.331547 109.593608,12.4743566 109.593608,13.6872094 C109.593608,14.9000623 109.150258,16.0429153 108.345294,16.9052475 C108.343632,16.9071159 108.341926,16.9088974 108.340219,16.9106789 L101.708336,23.8263691 C101.602079,23.9369958 101.452978,24 101.296782,24 Z M95.0791018,16.1744855 L101.296782,22.6582275 L107.514462,16.174442 C108.793719,14.8012543 108.79291,12.5692974 107.511991,11.1971525 L107.411438,11.0894805 C106.807446,10.4424489 106.009173,10.0861927 105.163655,10.0861927 C104.318092,10.0861927 103.51982,10.4424489 102.916007,11.0892632 L101.71341,12.3775908 C101.607019,12.4916067 101.455628,12.5566531 101.296871,12.5566531 C101.138115,12.5566531 100.986724,12.4916067 100.880288,12.3775908 L99.6776466,11.0893501 C99.0737887,10.4424924 98.2755609,10.0862361 97.4299981,10.0862361 C96.5844353,10.0862361 95.7861626,10.4424489 95.1823496,11.0893067 L95.0815719,11.1972394 C93.8006529,12.5693843 93.7997996,14.8013412 95.0791018,16.1744855 Z" id="Shape"></path>
                </g>
            </g>
        </g>
    </g>
</svg>