<?xml version="1.0" encoding="UTF-8"?>
<svg width="63px" height="64px" viewBox="0 0 63 64" version="1.1" xmlns="http://www.w3.org/2000/svg" xmlns:xlink="http://www.w3.org/1999/xlink">
    <!-- Generator: Sketch 40.1 (33804) - http://www.bohemiancoding.com/sketch -->
    <title>Layer_1</title>
    <desc>Created with Sketch.</desc>
    <defs></defs>
    <g id="skrining" stroke="none" stroke-width="1" fill="none" fill-rule="evenodd" opacity="0.3">
        <g id="MED_skrining(2)" transform="translate(-1165.000000, -1227.000000)" fill="#0083D4">
            <g id="popup" transform="translate(961.000000, 555.000000)">
                <g id="Group-10-Copy-5" transform="translate(0.000000, 605.000000)">
                    <g id="Group-24">
                        <g id="medical-result" transform="translate(204.000000, 67.000000)">
                            <g id="Layer_1">
                                <path d="M54.7821706,0 L1.531685,0 C0.765842498,0 0.14490158,0.563951266 0.14490158,1.25950512 L0.14490158,10.7506612 C0.14490158,11.446215 0.765842498,12.0101663 1.531685,12.0101663 C2.2975275,12.0101663 2.91846841,11.446215 2.91846841,10.7506612 L2.91846841,2.51887068 L53.3955409,2.51887068 L53.3955409,63.1409104 L2.91831475,63.1409104 L2.91831475,15.4526275 C2.91831475,14.7570737 2.29737383,14.1931224 1.53153134,14.1931224 C0.765688838,14.1931224 0.14474792,14.7570737 0.14474792,15.4526275 L0.14474792,64.4004156 C0.14474792,65.0959694 0.765688838,65.6599207 1.53153134,65.6599207 L6.52441262,65.6599207 L6.52441262,70.1939995 C6.52441262,70.8895534 7.14535353,71.4535047 7.91119603,71.4535047 L11.7482452,71.4535047 C12.5140877,71.4535047 13.1350286,70.8895534 13.1350286,70.1939995 C13.1350286,69.4984457 12.5140877,68.9344944 11.7482452,68.9344944 L9.29797945,68.9344944 L9.29797945,65.6599207 L54.7823243,65.6599207 C55.5481668,65.6599207 56.1691077,65.0959694 56.1691077,64.4004156 L56.1691077,1.25950512 C56.168954,0.563951266 55.5480131,0 54.7821706,0 Z" id="Shape"></path>
                                <path d="M61.1616816,5.79344443 L59.081737,5.79344443 C58.3158945,5.79344443 57.6949536,6.35739569 57.6949536,7.05294954 C57.6949536,7.74850339 58.3158945,8.31245466 59.081737,8.31245466 L59.7748982,8.31245466 L59.7748982,68.9344944 L17.664778,68.9344944 C16.8989355,68.9344944 16.2779946,69.4984457 16.2779946,70.1939995 C16.2779946,70.8895534 16.8989355,71.4535047 17.664778,71.4535047 L61.1618353,71.4535047 C61.9276778,71.4535047 62.5486187,70.8895534 62.5486187,70.1939995 L62.5486187,7.05294954 C62.5484651,6.35739569 61.9275241,5.79344443 61.1616816,5.79344443 Z" id="Shape"></path>
                                <path d="M22.3670878,9.57572783 L19.6878684,9.57572783 L19.6878684,7.14254536 C19.6878684,6.44699151 19.0669275,5.88304025 18.301085,5.88304025 L11.8870004,5.88304025 C11.1211579,5.88304025 10.500217,6.44699151 10.500217,7.14254536 L10.500217,9.57586738 L7.82099749,9.57586738 C7.05515499,9.57586738 6.43421407,10.1398186 6.43421407,10.8353725 L6.43421407,16.6607756 C6.43421407,17.3563294 7.05515499,17.9202807 7.82099749,17.9202807 L10.500217,17.9202807 L10.500217,20.3536027 C10.500217,21.0491565 11.1211579,21.6131078 11.8870004,21.6131078 L18.301085,21.6131078 C19.0669275,21.6131078 19.6878684,21.0491565 19.6878684,20.3536027 L19.6878684,17.9202807 L22.3670878,17.9202807 C23.1329303,17.9202807 23.7538712,17.3563294 23.7538712,16.6607756 L23.7538712,10.8352329 C23.7537176,10.1396791 23.1329303,9.57572783 22.3670878,9.57572783 Z M20.9803044,15.4011309 L18.301085,15.4011309 C17.5352425,15.4011309 16.9143015,15.9650822 16.9143015,16.660636 L16.9143015,19.093958 L13.2736301,19.093958 L13.2736301,16.660636 C13.2736301,15.9650822 12.6526892,15.4011309 11.8868467,15.4011309 L9.20762724,15.4011309 L9.20762724,12.0947381 L11.8868467,12.0947381 C12.6526892,12.0947381 13.2736301,11.5307868 13.2736301,10.8352329 L13.2736301,8.40191092 L16.9143015,8.40191092 L16.9143015,10.8352329 C16.9143015,11.5307868 17.5352425,12.0947381 18.301085,12.0947381 L20.9803044,12.0947381 L20.9803044,15.4011309 Z" id="Shape"></path>
                                <path d="M49.2350369,25.189265 L7.07835768,25.189265 C6.31251518,25.189265 5.69157427,25.7532163 5.69157427,26.4487701 C5.69157427,27.144324 6.31251518,27.7082752 7.07835768,27.7082752 L49.2350369,27.7082752 C50.0008794,27.7082752 50.6218204,27.144324 50.6218204,26.4487701 C50.6218204,25.7530767 50.0008794,25.189265 49.2350369,25.189265 Z" id="Shape"></path>
                                <path d="M45.7228255,35.2648873 L10.5908765,35.2648873 C9.82503398,35.2648873 9.20409306,35.8288385 9.20409306,36.5243924 C9.20409306,37.2199462 9.82503398,37.7838975 10.5908765,37.7838975 L45.7225181,37.7838975 C46.4883606,37.7838975 47.1093016,37.2199462 47.1093016,36.5243924 C47.1093016,35.8288385 46.488668,35.2648873 45.7228255,35.2648873 Z" id="Shape"></path>
                                <path d="M49.2353443,7.55675159 L36.4780125,7.55675159 C35.71217,7.55675159 35.091229,8.12070286 35.091229,8.81625671 C35.091229,9.51181056 35.71217,10.0757618 36.4780125,10.0757618 L49.2353443,10.0757618 C50.0011868,10.0757618 50.6221277,9.51181056 50.6221277,8.81625671 C50.6221277,8.12070286 50.0011868,7.55675159 49.2353443,7.55675159 Z" id="Shape"></path>
                                <path d="M49.2353443,12.9304075 L36.4780125,12.9304075 C35.71217,12.9304075 35.091229,13.4943588 35.091229,14.1899126 C35.091229,14.8854665 35.71217,15.4494177 36.4780125,15.4494177 L49.2353443,15.4494177 C50.0011868,15.4494177 50.6221277,14.8854665 50.6221277,14.1899126 C50.621974,13.4943588 50.0011868,12.9304075 49.2353443,12.9304075 Z" id="Shape"></path>
                                <path d="M45.7228255,41.0863827 L10.5908765,41.0863827 C9.82503398,41.0863827 9.20409306,41.650334 9.20409306,42.3458878 C9.20409306,43.0414417 9.82503398,43.605393 10.5908765,43.605393 L45.7225181,43.605393 C46.4885143,43.605393 47.1094552,43.0414417 47.1094552,42.3458878 C47.1094552,41.650334 46.488668,41.0863827 45.7228255,41.0863827 Z" id="Shape"></path>
                                <path d="M27.0478852,46.9078782 L10.5908765,46.9078782 C9.82503398,46.9078782 9.20409306,47.4718294 9.20409306,48.1673833 C9.20409306,48.8629371 9.82503398,49.4268884 10.5908765,49.4268884 L27.0478852,49.4268884 C27.8137277,49.4268884 28.4346686,48.8629371 28.4346686,48.1673833 C28.4346686,47.4716899 27.8137277,46.9078782 27.0478852,46.9078782 Z" id="Shape"></path>
                            </g>
                        </g>
                    </g>
                </g>
            </g>
        </g>
    </g>
</svg>