<?xml version="1.0" encoding="UTF-8" standalone="no"?>
<svg width="25px" height="35px" viewBox="0 0 25 35" version="1.1" xmlns="http://www.w3.org/2000/svg" xmlns:xlink="http://www.w3.org/1999/xlink">
    <!-- Generator: Sketch 42 (36781) - http://www.bohemiancoding.com/sketch -->
    <title>Shape Copy 3</title>
    <desc>Created with Sketch.</desc>
    <defs></defs>
    <g id="skrining" stroke="none" stroke-width="1" fill="none" fill-rule="evenodd">
        <g id="MED_skrining(2)_map" transform="translate(-518.000000, -858.000000)" fill-rule="nonzero" fill="#0083D4">
            <g id="map" transform="translate(50.000000, 596.000000)">
                <g id="149060" transform="translate(181.000000, 25.000000)">
                    <g id="Capa_1">
                        <path d="M307.885719,240.583159 L307.885719,240.583159 C303.108173,235.805614 295.361656,235.805614 290.583437,240.583159 L290.583437,240.583159 C286.278396,244.888201 285.793776,252.994144 289.447272,257.865249 L299.234578,272 L309.021884,257.865249 C312.67538,252.994144 312.19076,244.888201 307.885719,240.583159 Z M299.353714,253.153665 C297.123115,253.153665 295.315213,251.345763 295.315213,249.115165 C295.315213,246.884566 297.123115,245.076664 299.353714,245.076664 C301.584312,245.076664 303.392214,246.884566 303.392214,249.115165 C303.392214,251.345763 301.584312,253.153665 299.353714,253.153665 Z" id="Shape-Copy-3"></path>
                    </g>
                </g>
            </g>
        </g>
    </g>
</svg>