<?xml version="1.0" encoding="UTF-8"?>
<svg width="20px" height="20px" viewBox="0 0 20 20" version="1.1" xmlns="http://www.w3.org/2000/svg" xmlns:xlink="http://www.w3.org/1999/xlink">
    <!-- Generator: Sketch 39.1 (31720) - http://www.bohemiancoding.com/sketch -->
    <title>Burger</title>
    <desc>Created with Sketch.</desc>
    <defs></defs>
    <g id="Instuction" stroke="none" stroke-width="1" fill="none" fill-rule="evenodd">
        <g id="MED_Instuction_1280_Popup" transform="translate(-1003.000000, -320.000000)" fill="#9B9B9B">
            <path d="M1013.00323,328.077013 L1005.32567,320.399456 C1004.79721,319.870995 1003.92943,319.864157 1003.39841,320.395175 C1002.86369,320.929896 1002.86931,321.789061 1003.40269,322.322443 L1011.08024,330 L1003.40269,337.677557 C1002.86931,338.210939 1002.86369,339.070104 1003.39841,339.604825 C1003.92943,340.135843 1004.79721,340.129005 1005.32567,339.600544 L1013.00323,331.922987 L1020.68079,339.600544 C1021.20925,340.129005 1022.07704,340.135843 1022.60806,339.604825 C1023.14278,339.070104 1023.13716,338.210939 1022.60378,337.677557 L1014.92622,330 L1022.60378,322.322443 C1023.13716,321.789061 1023.14278,320.929896 1022.60806,320.395175 C1022.07704,319.864157 1021.20925,319.870995 1020.68079,320.399456 L1013.00323,328.077013 Z" id="Burger"></path>
        </g>
    </g>
</svg>