<?xml version="1.0" encoding="UTF-8"?>
<svg width="18px" height="13px" viewBox="0 0 18 13" version="1.1" xmlns="http://www.w3.org/2000/svg" xmlns:xlink="http://www.w3.org/1999/xlink">
    <!-- Generator: Sketch 39.1 (31720) - http://www.bohemiancoding.com/sketch -->
    <title>Shape</title>
    <desc>Created with Sketch.</desc>
    <defs></defs>
    <g id="Instuction" stroke="none" stroke-width="1" fill="none" fill-rule="evenodd">
        <g id="MED_Instuction_1280_Popup" transform="translate(-400.000000, -1030.000000)" fill="#7E838B">
            <g id="popup" transform="translate(228.000000, 300.000000)">
                <g id="share" transform="translate(60.000000, 722.000000)">
                    <path d="M128.961846,13.7654973 L123.202143,8.14792059 C123.052184,8.00179445 122.829275,7.95952864 122.636463,8.04089942 C122.443568,8.12224223 122.318169,8.31116565 122.318169,8.52056463 L122.318169,11.4117587 C121.336349,11.4197028 119.008177,11.5746401 116.818383,12.7357332 C115.544031,13.4113987 114.498938,14.3279878 113.712195,15.4600458 C112.771075,16.8140063 112.195913,18.4848905 112.002598,20.4260969 C111.975661,20.6966428 112.161004,20.9440838 112.428724,20.9918042 C112.459829,20.9973427 112.490655,21 112.521256,21 C112.753872,21 112.963271,20.8443634 113.023467,20.6116916 C113.026208,20.6018734 113.305146,19.6207527 114.435833,18.6542615 C115.955696,17.3549864 118.318889,16.6682159 121.270111,16.6682159 C121.609301,16.6682159 121.960658,16.6778103 122.318253,16.6955446 L122.318253,19.755774 C122.318253,19.965117 122.443652,20.1541523 122.636547,20.2354392 C122.701862,20.2629357 122.770506,20.2763064 122.83859,20.2763064 C122.971849,20.2763064 123.10301,20.2251175 123.202199,20.12839 L128.961874,14.5107574 C129.062293,14.4128271 129.118937,14.2784772 129.118937,14.1381693 C129.118909,13.9978613 129.062265,13.8634835 128.961846,13.7654973 L128.961846,13.7654973 Z M122.318197,15.6526616 C121.960966,15.6357105 121.610224,15.627207 121.270055,15.627207 C119.472514,15.627207 117.87293,15.8643822 116.515641,16.3321873 C115.409373,16.7134187 114.459358,17.248105 113.69186,17.921393 C113.651524,17.9567497 113.612223,17.9920505 113.573734,18.0274072 C115.339779,12.9769644 120.483844,12.4671732 122.318169,12.4527117 L122.318197,15.6526616 L122.318197,15.6526616 L122.318197,15.6526616 Z M123.359206,18.5210025 L123.359206,16.2048024 L123.359206,11.9435359 L123.359206,9.75530814 L127.852892,14.1381413 L123.359206,18.5210025 L123.359206,18.5210025 Z" id="Shape"></path>
                </g>
            </g>
        </g>
    </g>
</svg>