<?xml version="1.0" encoding="UTF-8"?>
<svg width="17px" height="16px" viewBox="0 0 17 16" version="1.1" xmlns="http://www.w3.org/2000/svg" xmlns:xlink="http://www.w3.org/1999/xlink">
    <!-- Generator: Sketch 40.1 (33804) - http://www.bohemiancoding.com/sketch -->
    <title>Shape</title>
    <desc>Created with Sketch.</desc>
    <defs></defs>
    <g id="Symbols" stroke="none" stroke-width="1" fill="none" fill-rule="evenodd">
        <g id="social" transform="translate(-316.000000, -7.000000)" fill="#FFFFFF">
            <g id="Group-17">
                <g transform="translate(249.000000, 0.000000)">
                    <g id="66744" transform="translate(67.000000, 7.000000)">
                        <g id="Capa_1">
                            <g id="130496">
                                <path d="M16.0400088,7.66662676 C16.4844213,7.22221424 16.7066914,6.55553161 16.4844213,5.99995211 C16.2622151,5.44437261 15.8177387,4.99996009 15.1510561,4.88885696 L11.7066036,4.33327746 C11.4843974,4.22217433 11.3732942,4.1110712 11.2621911,3.99996807 L9.7066196,0.888888889 C9.48441334,0.333309389 8.81773071,0 8.26221506,0 C7.70663556,0 7.15111991,0.333309389 6.81781052,0.888888889 L5.26230286,4.00003193 C5.15119973,4.22223819 5.0400966,4.33334131 4.81789034,4.33334131 L1.37343791,4.88892082 C0.706755282,5.00002394 0.262342763,5.44450032 0.0400726518,6.00001596 C-0.0710304778,6.55559546 0.0400726518,7.22221424 0.48448517,7.66669061 L2.92894558,10.111151 C3.04004871,10.2222541 3.04004871,10.3333573 3.04004871,10.5555635 L2.59563619,14.000016 C2.48453306,14.4444285 2.59563619,15.000008 2.92894558,15.3333812 C3.3733581,15.8889607 4.26231084,16.111167 4.92892961,15.7777937 L8.0400088,14.2222222 C8.15111193,14.1111191 8.37331819,14.1111191 8.48442132,14.2222222 L11.5955005,15.7777937 C11.8177068,15.8888969 12.15108,16 12.3732863,16 C12.8176988,16 13.2621752,15.7777937 13.7066515,15.3333174 C13.9288578,15.000008 14.151064,14.4444285 14.0399609,13.9999521 L13.4843814,10.5554997 C13.3732783,10.4443966 13.4843814,10.2221903 13.5954845,10.1110872 L16.0400088,7.66662676 L16.0400088,7.66662676 Z M12.3733501,10.8888729 L12.9289296,14.3333254 C12.9289296,14.5555316 12.9289296,14.6666347 12.8178265,14.7777379 C12.7067234,14.888841 12.373414,14.9999441 12.1511439,14.888841 L9.04006467,13.3332695 C8.81785841,13.2221664 8.48448517,13.1110632 8.26227891,13.1110632 C8.04007265,13.1110632 7.70669941,13.1110632 7.48449315,13.3332695 L4.37341397,14.888841 C4.15120771,14.9999441 3.81783447,14.9999441 3.70673134,14.7777379 C3.59562821,14.6666347 3.59562821,14.5555316 3.59562821,14.3333254 L4.04004073,10.8888729 C4.15114386,10.3332934 3.9289376,9.77777778 3.59562821,9.44446839 L1.1511678,7.00000798 C1.04006467,6.88890485 0.928961541,6.66669859 1.04006467,6.44442848 C1.04006467,6.44442848 1.1511678,6.11111909 1.48447719,6.11111909 L4.92892961,5.55553959 C5.48450911,5.44443646 5.92892163,5.11112707 6.15112789,4.6666507 L7.70669941,1.55557152 C7.92890567,1.22226213 8.48448517,1.22226213 8.70669143,1.55557152 L10.2622629,4.6666507 C10.4844692,5.11106322 10.9289456,5.44443646 11.4844612,5.55553959 L14.9289137,6.11111909 C15.262223,6.11111909 15.3733262,6.33332535 15.3733262,6.44442848 C15.4844293,6.66663474 15.3733262,6.888841 15.262223,7.00000798 L12.8177626,9.44446839 C12.4844532,9.88888091 12.262247,10.3332934 12.3733501,10.8888729 L12.3733501,10.8888729 Z" id="Shape"></path>
                            </g>
                        </g>
                    </g>
                </g>
            </g>
        </g>
    </g>
</svg>