<?xml version="1.0" encoding="UTF-8"?>
<svg width="18px" height="13px" viewBox="0 0 18 13" version="1.1" xmlns="http://www.w3.org/2000/svg" xmlns:xlink="http://www.w3.org/1999/xlink">
    <!-- Generator: Sketch 40.1 (33804) - http://www.bohemiancoding.com/sketch -->
    <title>Shape</title>
    <desc>Created with Sketch.</desc>
    <defs></defs>
    <g id="Symbols" stroke="none" stroke-width="1" fill="none" fill-rule="evenodd">
        <g id="social" transform="translate(-90.000000, -9.000000)" fill="#FFFFFF">
            <g id="Group-16">
                <g>
                    <path d="M106.961846,14.7654973 L101.202143,9.14792059 C101.052184,9.00179445 100.829275,8.95952864 100.636463,9.04089942 C100.443568,9.12224223 100.318169,9.31116565 100.318169,9.52056463 L100.318169,12.4117587 C99.3363491,12.4197028 97.008177,12.5746401 94.8183828,13.7357332 C93.5440308,14.4113987 92.498938,15.3279878 91.7121953,16.4600458 C90.7710747,17.8140063 90.1959128,19.4848905 90.0025978,21.4260969 C89.9756607,21.6966428 90.1610037,21.9440838 90.4287245,21.9918042 C90.4598294,21.9973427 90.4906546,22 90.5212561,22 C90.7538719,22 90.9632709,21.8443634 91.0234668,21.6116916 C91.0262081,21.6018734 91.3051456,20.6207527 92.435833,19.6542615 C93.9556959,18.3549864 96.3188891,17.6682159 99.2701112,17.6682159 C99.6093007,17.6682159 99.9606579,17.6778103 100.318253,17.6955446 L100.318253,20.755774 C100.318253,20.965117 100.443652,21.1541523 100.636547,21.2354392 C100.701862,21.2629357 100.770506,21.2763064 100.83859,21.2763064 C100.971849,21.2763064 101.10301,21.2251175 101.202199,21.12839 L106.961874,15.5107574 C107.062293,15.4128271 107.118937,15.2784772 107.118937,15.1381693 C107.118909,14.9978613 107.062265,14.8634835 106.961846,14.7654973 L106.961846,14.7654973 Z M100.318197,16.6526616 C99.9609656,16.6357105 99.6102237,16.627207 99.2700553,16.627207 C97.4725135,16.627207 95.8729302,16.8643822 94.515641,17.3321873 C93.4093733,17.7134187 92.4593575,18.248105 91.6918596,18.921393 C91.6515239,18.9567497 91.6122231,18.9920505 91.5737335,19.0274072 C93.3397787,13.9769644 98.4838441,13.4671732 100.318169,13.4527117 L100.318197,16.6526616 L100.318197,16.6526616 L100.318197,16.6526616 Z M101.359206,19.5210025 L101.359206,17.2048024 L101.359206,12.9435359 L101.359206,10.7553081 L105.852892,15.1381413 L101.359206,19.5210025 L101.359206,19.5210025 Z" id="Shape"></path>
                </g>
            </g>
        </g>
    </g>
</svg>