<svg width="1260" height="560" viewBox="0 0 1260 560" fill="none" xmlns="http://www.w3.org/2000/svg">
<g clip-path="url(#clip0)">
<path d="M-192.239 856.945C-136.866 814.098 -124.328 716.908 -117.015 692.871C-109.701 668.835 -68.955 638.529 -67.9102 596.726C-66.8655 554.924 -129.552 543.429 -128.507 516.257C-127.462 489.086 -53.2834 462.959 -48.0595 445.193C-42.8356 427.427 -79.4028 414.887 -87.761 407.571C-96.1192 400.256 -107.612 406.526 -117.015 325.012C-126.418 243.498 -96.1192 191.245 -87.761 178.704C-81.0744 168.672 -61.9899 158.5 -53.2834 154.668C-31.3431 137.947 -45.1991 119.136 -32.3879 96.1452C3.13452 32.3969 140 -30.3064 161.94 -21.946C183.881 -13.5855 169.254 35.532 193.284 65.8386C217.314 96.1452 232.985 123.317 235.075 149.443C237.164 175.569 248.657 246.633 248.657 263.354C248.657 280.075 210 318.742 204.776 325.012C199.552 331.283 177.612 387.715 222.537 387.715C267.463 387.715 339.552 354.274 359.403 360.544C379.254 366.814 386.567 411.752 388.657 428.473C390.746 445.193 389.702 456.689 377.164 488.041C364.627 519.392 299.851 538.203 292.537 543.429C285.224 548.654 283.134 557.014 277.91 566.42C265.373 586.276 249.702 602.997 248.657 621.808C247.612 640.619 261.194 647.934 258.06 680.331C254.925 712.728 167.373 765.816 176.567 794.242C183.881 809.918 226.716 801.557 242.388 842.314C258.06 883.071 269.552 978.171 270.597 1001.16" stroke="#E0E0E0"/>
<path d="M258.06 999.072C257.015 955.18 252.836 857.99 223.582 848.584C194.328 839.179 174.477 888.297 150.448 874.711C126.418 861.125 130.597 796.332 162.985 762.89C195.373 729.448 236.119 705.412 235.074 667.79C234.03 630.168 208.955 638.528 211.044 601.952C213.134 565.375 229.85 536.113 249.701 522.527C269.552 508.942 354.179 498.491 356.268 457.734C358.358 416.977 356.268 401.301 340.597 391.895C324.925 382.49 238.209 418.022 211.044 418.022C183.88 418.022 177.612 361.589 187.015 323.967C196.418 286.345 219.403 288.435 222.537 254.993C225.671 221.552 216.268 158.848 204.776 130.632C193.283 102.415 112.836 50.1626 61.6415 60.6132C10.4475 71.0637 6.26838 108.686 -11.4928 110.776C-29.254 112.866 -25.0749 154.668 -37.6122 168.254C-50.1495 181.84 -87.7615 204.831 -95.0749 233.047C-102.388 261.264 -118.06 341.733 -95.0749 378.31C-72.0898 414.887 -22.9853 414.887 -22.9853 437.878C-22.9853 460.869 -91.9405 488.041 -90.8957 509.987C-89.8509 531.933 -26.1196 554.924 -29.2539 586.276C-32.3882 617.627 -100.299 816.188 -130.597 860.08C-160.896 903.972 -147.314 907.108 -169.254 921.738" stroke="#E0E0E0"/>
<path d="M245.523 999.073C242.388 962.496 246.567 871.576 220.448 870.531C194.329 869.486 162.985 947.865 124.329 935.324C85.6719 922.784 99.254 836.044 124.329 798.422C149.403 760.8 141.045 749.304 165.075 732.584C189.105 715.863 216.269 694.962 213.135 666.745C210 638.529 170.299 620.763 170.299 594.636C170.299 568.51 189.105 570.6 192.239 544.474C195.373 518.347 202.687 477.59 200.597 454.599C198.508 431.608 170.299 422.202 170.299 356.364C170.299 290.525 200.597 293.66 200.597 256.038C200.597 218.416 202.687 172.434 182.836 148.398C162.985 124.362 114.926 88.8297 77.3137 88.8297C39.7018 88.8297 -2.08928 148.398 -25.0744 188.11C-48.0594 227.822 -97.1639 259.174 -94.0296 337.553C-90.8953 415.932 2.08968 396.076 2.08968 438.923C2.08968 481.77 -53.2835 476.545 -52.2387 507.897C-51.1939 539.248 10.4479 525.663 10.4479 576.87C10.4479 628.078 -2.08943 599.862 -12.5372 662.565C-22.9849 725.268 -77.3133 779.611 -87.7611 829.774C-98.2088 879.936 -105.522 907.108 -118.06 925.919" stroke="#E0E0E0"/>
<path d="M232.985 998.028C231.94 941.595 230.895 905.018 215.224 902.928C199.552 900.838 201.642 937.414 180.746 956.225C159.851 975.036 141.045 988.622 119.104 985.487C97.164 982.352 63.7312 954.135 58.5073 936.369C53.2834 918.603 58.5073 895.612 64.776 882.026C71.0446 868.441 117.015 783.791 127.462 753.485C137.91 723.178 197.462 700.187 195.373 669.88C193.283 639.574 112.836 580.006 88.8057 581.051C64.7759 582.096 34.4774 601.952 27.1639 625.988C19.8505 650.024 14.6266 736.764 -30.2987 785.881C-75.2241 834.999 -66.8659 868.441 -76.2689 915.468C-83.7913 953.09 -92.637 968.766 -96.1196 971.901M211.045 998.028C174.477 985.487 157.761 1016.84 106.567 1016.84C55.3729 1016.84 39.7013 998.028 27.1639 979.217C14.6266 960.406 3.1341 918.603 27.1639 876.801C51.1938 834.999 41.7908 870.531 72.0893 820.368C102.388 770.206 86.7163 751.395 119.104 722.133C151.492 692.871 164.03 677.196 164.03 664.655C164.03 652.114 123.283 616.582 94.0296 615.537C64.776 614.492 52.2385 637.484 55.3729 690.781C58.5073 744.079 28.2087 751.395 10.4475 781.701C-7.31366 812.008 -38.6569 854.855 -42.836 882.026C-47.0152 909.198 -41.7913 957.27 -52.239 975.036M333.283 444.148C333.283 418.022 321.791 403.391 296.716 408.616C271.642 413.842 250.746 428.473 252.836 453.554C254.925 478.635 285.224 485.951 309.253 473.41C333.283 460.869 333.283 450.419 333.283 444.148Z" stroke="#E0E0E0"/>
<path d="M176.567 455.644C177.612 513.122 147.313 530.888 113.881 530.888C73.1344 530.888 27.1641 442.058 16.7163 420.112C6.26853 398.166 -60.597 373.085 -68.9553 348.003C-77.3135 322.922 -54.3284 293.66 -51.1941 275.894C-48.0597 258.129 -17.7612 203.786 33.4328 155.713C84.6268 107.641 131.642 132.722 151.493 152.578C171.343 172.434 184.925 205.876 180.746 253.948C176.567 302.021 156.716 270.669 151.493 343.823C146.269 416.977 175.522 398.166 176.567 455.644Z" stroke="#E0E0E0"/>
<path d="M25.0746 216.326C38.6567 188.11 63.7313 160.938 106.567 161.983C124.328 160.701 164.03 182.884 162.985 243.498C161.94 304.111 136.866 308.291 126.418 344.868C115.97 381.445 130.597 396.076 142.09 412.797C153.582 429.517 153.582 434.743 150.448 466.094C147.313 497.446 119.104 486.995 98.2089 481.77C77.3134 476.545 65.8208 430.562 41.791 406.526C17.7611 382.49 -29.2538 377.265 -30.2986 353.228C-31.3433 329.192 -5.22386 308.291 -5.22394 280.075C-5.224 259.891 11.4925 244.543 25.0746 216.326Z" stroke="#E0E0E0"/>
<path d="M101.343 197.515C117.015 198.56 143.134 223.642 143.134 266.489C140 280.075 138.955 287.39 115.97 313.517C92.9851 339.643 105.522 368.514 74.1792 376.561C47.015 383.535 4.1792 366.814 4.1792 348.003C4.1792 306.201 60.597 309.336 63.7313 260.219C66.8657 211.101 85.6716 196.47 101.343 197.515Z" stroke="#E0E0E0"/>
<path d="M280 1002.21C258.06 922.783 272.687 832.909 234.03 781.701C195.373 730.493 286.269 757.863 286.269 658.385C286.269 637.483 278.955 593.591 318.657 563.285C358.358 532.978 384.478 557.014 403.284 499.536C422.09 442.058 411.642 413.842 403.284 385.625C394.926 357.409 405.373 328.147 414.776 308.291C424.179 288.435 441.94 294.706 438.806 253.948C435.672 213.191 430.448 206.921 414.776 207.966C399.105 209.011 390.746 232.002 391.791 258.129C392.836 284.255 397.015 319.787 341.642 330.237C286.269 340.688 302.985 362.634 257.015 362.634C211.045 362.634 219.403 339.643 238.209 323.967C257.015 308.291 275.821 281.12 271.642 244.543C267.463 207.966 264.328 152.578 248.657 111.821C232.985 71.0637 213.134 48.0725 213.134 -20.9011C213.134 -89.8747 181.791 -146.308 144.179 -138.992C106.567 -131.677 57.4629 -24.0363 2.0898 22.9912C-48.2113 65.7111 -43.8805 105.551 -56.4178 128.542C-68.9551 151.533 -80.4475 147.353 -94.0296 164.074C-107.612 180.794 -128.507 235.878 -128.507 323.967C-128.507 443.103 -71.0447 420.112 -73.1342 443.103C-75.2238 466.094 -151.492 475.5 -148.358 519.392C-145.224 563.285 -104.477 555.969 -105.522 594.636C-106.567 633.303 -147.313 645.844 -156.716 675.105C-166.119 704.367 -172.388 755.575 -199.552 763.935C-226.716 772.296 -247.423 740.895 -252.836 776.476C-260.149 824.548 -305.074 824.548 -313.433 852.765" stroke="#E0E0E0"/>
<path d="M295.671 1002.21C280 960.405 266.76 820.368 258.402 770.205C253.05 738.085 318.999 708.547 314.82 620.763C312.625 574.643 414.776 562.24 428.358 512.077C446.59 444.742 432.537 418.022 424.179 384.58C415.821 351.138 451.343 318.742 450.298 285.3C449.254 251.858 453.433 191.245 415.821 191.245C360.448 191.245 389.701 300.976 330.149 297.841C270.597 294.705 274.326 97.5112 267.462 72.1088C257.015 33.4417 259.104 -12.5407 267.462 -70.0187C276.726 -133.724 244.477 -161.635 232.985 -167.209" stroke="#E0E0E0"/>
<path d="M309.254 1002.21C270.597 874.711 282.93 843.229 278.955 820.368C266.418 748.259 302.985 732.583 350 609.267C363.162 574.744 409.973 568.474 429.403 540.293C471.194 479.68 439.85 448.329 437.761 383.535C435.671 318.742 470.095 339.217 464.925 309.336C455.522 254.993 459.702 178.704 426.269 174.524C377.164 168.384 353.134 251.386 338.507 251.858C306.119 252.903 284.179 74.1989 298.806 -11.4956C313.433 -97.1901 304.03 -155.713 298.806 -160.938" stroke="#E0E0E0"/>
<path d="M319.702 1001.16C294.627 922.783 290.448 829.774 292.537 790.061C294.627 750.349 354.179 640.619 371.94 615.537C389.702 590.456 426.269 581.051 439.851 552.834C453.433 524.618 463.881 505.807 460.746 459.824C457.612 413.842 449.254 397.121 449.254 373.085C449.254 349.048 476.418 331.282 476.418 315.607C476.418 299.931 468.06 241.408 462.836 212.146C457.612 182.885 447.164 153.623 426.269 152.578C405.373 151.533 369.851 199.605 344.776 196.47C319.702 193.335 332.239 26.1264 335.373 -15.6758C338.508 -57.478 344.776 -129.587 335.373 -157.803" stroke="#E0E0E0"/>
<path d="M333.284 1000.12C307.164 918.603 294.796 844.663 305.075 778.566C312.388 731.538 384.478 627.033 404.329 610.312C424.179 593.591 449.254 577.915 455.523 553.879C461.791 529.843 477.463 491.176 473.284 461.914C469.105 432.653 455.523 392.941 459.702 372.04C463.881 351.138 484.776 348.003 484.776 316.652C484.776 285.3 471.194 233.047 470.15 213.191C469.105 193.335 453.433 130.632 425.224 127.497C397.015 124.362 401.194 153.623 381.344 146.308C361.493 138.992 359.403 -13.5857 377.165 -88.8297C381.467 -107.055 377.513 -155.365 368.806 -161.984" stroke="#E0E0E0"/>
<path d="M394.925 -159.893C401.89 -151.881 406.642 -93.0099 403.283 -77.3341C390.746 -18.811 373.11 93.5945 394.925 104.505C403.283 108.686 409.552 101.37 424.179 104.505C453.02 110.687 471.194 167.209 478.507 204.831C485.821 242.453 493.134 286.345 492.089 320.832C491.045 355.319 477.463 336.508 471.194 378.31C464.925 420.112 480.597 418.022 483.731 469.23C486.866 520.437 474.328 529.843 462.836 564.33C451.343 598.817 436.716 599.861 409.552 627.033C382.388 654.204 322.836 732.583 316.567 772.296C310.298 812.008 329.104 846.494 329.104 890.387C329.104 934.279 337.462 996.982 366.716 998.027C380.298 998.027 374.03 894.567 393.88 869.486C413.731 844.404 455.522 758.71 492.089 725.268C528.657 691.826 575.672 670.925 589.254 671.97C602.836 673.015 668.657 720.043 682.239 746.169C695.821 772.296 708.358 815.143 720.895 831.864C733.433 848.585 785.672 876.801 803.433 901.882C821.194 926.964 890.149 1021.02 910 1003.25C913.134 1000.45 908.955 983.397 903.731 970.856C898.507 958.315 862.985 909.198 848.358 891.432C833.731 873.666 764.776 782.746 781.492 756.62C798.209 730.493 809.701 743.034 815.97 725.268C822.239 707.502 731.302 643.579 736.567 576.87C742.836 497.446 710.448 488.041 717.761 459.824C725.074 431.608 773.514 410.707 774.179 396.076C775.224 373.085 743.88 335.463 754.328 251.858C755.91 239.2 745.205 216.452 742.836 194.38C741.097 178.184 746.815 156.966 745.97 137.947C741.791 43.8923 767.185 68.9736 767.91 42.8473C768.288 29.2615 713.19 25.0813 708.358 -52.2527C704.179 -119.136 701.045 -130.632 692.686 -154.668" stroke="#E0E0E0"/>
<path d="M408.507 -161.984C415.472 -153.971 424.403 -107.641 421.045 -91.9648C408.507 -33.4418 412.032 -15.0117 406.418 35.5319C402.239 73.1538 425.458 80.0216 436.716 89.8747C453.433 104.505 477.462 156.758 484.776 194.38C492.089 232.002 502.537 285.3 501.492 319.787C500.448 354.274 487.91 336.508 481.641 378.31C475.373 420.112 491.045 422.202 494.179 473.41C497.313 524.618 484.776 549.699 473.283 584.186C461.791 618.672 430.084 625.237 407.463 656.294C354.179 729.448 304.03 822.458 360.448 847.54C402.239 866.118 436.716 753.485 473.283 720.043C509.85 686.601 564.102 661.52 590.298 661.52C619.552 661.52 665.601 708.626 686.418 729.448C715.671 758.71 720.895 795.287 733.433 812.008C745.97 828.729 786.716 869.486 797.164 863.215C813.315 853.522 745.97 778.566 762.686 752.44C779.403 726.313 783.582 737.809 789.85 720.043C796.119 702.277 720.854 643.579 726.119 576.87C732.388 497.446 693.731 485.951 701.044 457.734C708.358 429.518 750.529 399.211 751.194 384.58C752.239 361.589 733.433 335.463 743.88 251.858C745.462 239.2 734.757 216.452 732.388 194.38C730.649 178.184 736.367 156.966 735.522 137.947C731.343 43.8923 756.737 68.9736 757.462 42.8472C757.84 29.2615 702.742 25.0813 697.91 -52.2528C693.731 -119.136 690.597 -130.632 682.239 -154.668" stroke="#E0E0E0"/>
<path d="M426.269 -164.074C433.234 -156.062 444.254 -111.821 440.896 -96.1451C428.358 -37.622 426.659 -33.8227 421.045 16.7209C416.866 54.3429 441.13 46.5799 452.388 56.433C469.104 71.0636 449.254 82.5593 495.224 194.38C502.957 213.191 503.582 268.579 514.03 317.697C521.208 351.444 494.806 356.364 491.045 381.445C484.776 423.247 508.806 449.374 511.94 500.581C513.348 523.573 498.172 544.359 491.045 580.005C480.597 632.258 431.938 662.342 406.418 702.277C406.418 730.493 388.709 746.221 397.015 754.53C401.051 758.567 447.164 715.467 460.746 702.277C481.642 681.984 564.198 644.148 602.836 648.979C669.701 657.34 726.642 768.115 735.522 750.349C742.836 735.719 758.507 733.629 764.776 715.863C771.045 698.097 695.821 622.853 716.716 567.465C729.258 534.221 671.791 481.77 685.373 450.419C693.527 431.597 719.851 410.707 730.298 367.859C735.751 345.5 726.119 334.418 736.567 250.813C738.149 238.155 726.399 216.452 724.03 194.38C715.672 168.254 728.403 156.944 727.164 137.947C724.03 89.8747 731.662 68.9736 732.388 42.8472C732.765 29.2615 694.384 25.0813 689.552 -52.2527C685.373 -119.136 680.149 -130.632 671.791 -154.668" stroke="#E0E0E0"/>
<path d="M442.985 -161.984C449.95 -153.971 462.015 -117.046 458.656 -101.37C446.119 -42.8473 439.196 -49.4985 433.582 1.04505C429.403 38.667 457.612 20.9011 475.373 53.2978C486.054 72.7788 458.657 76.289 504.627 188.11C512.36 206.921 515.075 259.174 525.523 308.291C532.701 342.038 506.217 359.662 501.493 384.58C490 445.193 529.083 481.77 530.747 508.942C532.154 531.933 501.307 590.342 494.179 625.988C483.732 678.241 617.463 594.636 668.657 655.249C675.332 663.152 721.94 713.772 728.209 696.007C731.895 685.559 731.431 675.092 714.874 640.619C681.194 580.005 695.571 590.282 704.179 567.465C716.721 534.221 644.503 466.219 668.657 442.058C692.687 418.022 695.821 426.382 701.045 372.04C703.247 349.13 717.761 355.319 724.03 250.813C724.794 238.08 713.862 216.452 711.493 194.38C703.134 168.254 721.089 151.719 719.851 132.722C716.716 84.6494 719.125 77.3341 719.851 51.2077C720.228 37.622 681.847 25.0813 677.015 -52.2528C672.836 -119.136 667.612 -130.632 659.254 -154.668" stroke="#E0E0E0"/>
<path d="M456.567 -165.119C463.532 -157.107 475.373 -141.082 475.373 -114.956C475.373 -55.1044 459.047 -69.3545 453.433 -18.811C449.254 18.811 471.194 13.5857 488.955 45.9824C499.636 65.4635 482.686 100.325 516.12 174.524C524.475 193.067 525.523 253.948 535.97 303.066C543.149 336.813 519.799 364.888 515.075 389.805C509.35 419.997 524.478 456.689 547.463 511.032C554.776 535.068 515.44 604.247 524.478 614.492C540.149 632.258 572.302 611.665 610.149 610.312C643.377 609.124 667.337 618.418 675.97 614.492C687.463 609.267 664.478 594.636 684.329 563.285C703.335 533.267 629.876 456.814 654.03 432.653C678.06 408.616 684.329 395.031 684.329 372.04C684.329 314.562 712.245 292.615 714.627 252.903C715.391 240.17 702.369 213.317 700 191.245C691.642 165.119 708.552 155.899 707.314 136.902C704.179 88.8297 709.119 75.6043 703.135 50.1626C694.776 14.6308 673.489 17.7659 668.657 -59.5681C664.478 -126.452 658.209 -131.677 649.851 -155.713" stroke="#E0E0E0"/>
<path d="M473.283 -165.119C480.249 -157.107 492.089 -141.082 492.089 -114.956C492.089 -55.1044 475.764 -69.3545 470.149 -18.811C465.97 18.811 487.91 13.5857 505.671 45.9824C516.352 65.4635 500.447 89.8747 533.88 164.074C542.236 182.617 542.239 253.948 552.687 303.066C559.865 336.813 536.515 364.888 531.791 389.805C526.067 419.997 541.194 456.689 564.179 511.032C571.492 535.068 561.722 571.137 573.582 577.915C588.209 586.276 600.746 573.735 620.597 577.915C655.357 585.235 641.492 501.626 624.776 449.374C620.764 436.833 617.463 385.625 632.089 389.805C654.03 391.896 660.298 381.249 660.298 369.949C660.298 263.354 702.842 292.615 705.224 252.903C705.988 240.17 688.787 203.911 686.418 181.84C678.06 155.713 698.104 122.458 696.866 103.46C693.731 55.3879 688.223 63.0636 682.239 37.622C673.88 2.0901 660.951 4.18021 656.119 -73.1539C651.94 -140.037 642.537 -132.722 634.179 -156.758" stroke="#E0E0E0"/>
<path d="M483.731 -166.164C490.697 -158.152 500.448 -132.722 500.448 -106.596C500.448 -46.744 499.794 -82.9402 494.179 -32.3967C490 5.22526 510.297 7.09322 525.522 40.7571C545.373 84.6494 534.734 109.731 556.866 158.848C565.221 177.391 570.448 290.471 570.448 340.688C570.448 408.616 588.209 369.949 601.791 355.319C616.291 339.699 635.224 346.762 635.224 335.463C635.224 228.867 685.081 279.03 687.463 239.318C688.227 226.584 677.295 201.821 674.926 179.749C666.567 153.623 683.478 122.458 682.239 103.46C679.105 55.3879 673.597 63.0636 667.612 37.622C659.254 2.0901 641.493 -35.5319 641.493 -73.1539C641.493 -106.596 626.866 -110.776 619.552 -156.758" stroke="#E0E0E0"/>
<path d="M594.478 -154.668C601.791 -118.091 621.642 -110.776 626.866 -61.6582C632.09 -12.5407 659.254 67.9286 655.075 98.2352C650.896 128.542 654.03 188.11 646.716 194.38C639.403 200.651 620.597 212.146 609.104 201.696C597.612 191.245 586.119 161.984 586.119 143.173C586.119 124.362 602.836 140.037 586.119 95.1C569.403 50.1626 552.687 48.0725 530.746 7.31538C508.806 -33.4418 522.388 -124.362 500.448 -157.803" stroke="#E0E0E0"/>
<path d="M703.134 -152.578C715.419 -109.301 712.886 -67.9286 724.03 -26.1264C732.388 5.22526 786.787 22.3223 789.851 38.667C796.119 72.1088 758.507 52.2527 756.418 103.46C754.328 154.668 754.328 164.074 751.194 187.065C748.06 210.056 766.866 245.588 767.91 268.579C768.955 291.57 768.955 337.553 774.179 353.229C779.403 368.904 804.478 400.256 797.164 411.752C789.851 423.247 733.433 435.788 732.388 473.41C731.343 511.032 751.194 504.762 751.194 580.005C751.194 655.249 850.448 694.962 848.358 730.493C847.498 745.124 797.164 736.764 797.164 772.296C797.164 807.827 935.075 971.901 945.522 1005.34" stroke="#E0E0E0"/>
<path d="M715.672 -152.578C727.957 -109.301 721.244 -74.1989 732.388 -32.3967C743.533 9.4055 817.015 22.0375 817.015 38.667C817.015 60.6132 766.866 58.5231 764.776 109.731C762.687 160.938 764.776 164.074 761.642 187.065C758.508 210.056 777.314 245.588 778.358 268.579C779.403 291.57 785.672 337.553 790.896 353.229C796.12 368.904 831.642 406.526 824.329 418.022C817.015 429.518 749.105 445.193 748.06 482.815C747.015 520.437 757.463 504.762 757.463 580.006C757.463 655.25 864.03 680.331 880.746 752.44C884.056 766.717 817.015 740.944 817.015 776.476C817.015 812.008 943.433 964.586 960.149 1004.3" stroke="#E0E0E0"/>
<path d="M730.298 -152.578C742.584 -109.301 731.691 -74.1989 742.836 -32.3967C753.98 9.4055 846.268 1.04506 852.537 38.667C859.631 81.2444 770.452 58.9421 777.313 109.731C782.537 148.398 779.403 164.074 776.268 187.065C773.134 210.056 791.94 245.588 792.985 268.579C794.03 291.57 800.298 337.553 805.522 353.229C810.746 368.904 868.969 409.662 855.671 430.563C842.374 451.464 777.313 430.563 762.686 489.086C753.561 525.599 772.089 504.762 772.089 580.006C772.089 655.25 899.552 694.962 916.268 767.07C919.578 781.348 831.642 750.35 831.642 785.881C831.642 806.782 861.94 831.864 884.572 876.801C908.697 924.702 965.382 981.982 974.776 1004.3" stroke="#E0E0E0"/>
<path d="M742.836 -152.578C755.121 -109.301 746.319 -78.3791 757.463 -36.5769C768.607 5.22528 890.149 -19.856 895.373 34.4868C902.573 109.385 789.258 66.2575 796.12 117.046C801.343 155.713 791.94 164.074 788.806 187.065C785.672 210.056 804.478 245.588 805.522 268.579C806.567 291.57 819.105 331.282 824.328 346.958C829.552 362.634 903.447 419.067 890.149 439.968C876.852 460.869 810.746 437.878 796.12 496.401C786.994 532.914 784.627 504.762 784.627 580.006C784.627 655.25 937.164 707.502 953.881 779.611C957.19 793.888 852.537 778.566 852.537 799.467C852.537 820.368 874.478 831.864 897.11 876.801C921.234 924.702 977.92 981.982 987.314 1004.3" stroke="#E0E0E0"/>
<path d="M772.09 -152.578C784.375 -109.301 755.373 -98.2352 786.716 -36.5769C818.06 25.0813 929.851 -114.956 958.06 32.3967C982.818 161.724 847.313 100.325 834.776 130.632C819.861 166.686 826.775 165.561 818.06 187.065C802.388 225.732 824.328 245.588 825.373 268.579C826.418 291.57 850.448 333.373 855.672 349.048C860.896 364.724 943.433 422.202 929.851 454.599C916.269 486.996 832.687 439.968 818.06 498.491C808.934 535.004 801.343 513.122 801.343 588.366C801.343 663.61 981.045 701.076 981.045 787.971C981.045 829.774 881.791 794.242 881.791 815.143C881.791 836.044 894.681 844.404 917.313 889.342C941.438 937.243 981.045 977.126 1001.94 1000.12" stroke="#E0E0E0"/>
<path d="M1350.9 645.844C1334.18 584.186 1394.78 478.776 1310.15 460.869C1225.52 442.963 1232.84 389.805 1179.55 360.544C1064.16 297.173 1049.38 239.436 1031.19 212.146C974.776 127.497 886.97 163.489 867.164 175.569C824.328 201.696 841.045 245.588 842.089 268.579C843.134 291.57 867.164 333.373 872.388 349.048C877.612 364.724 988.358 442.058 974.776 474.455C961.194 506.852 834.776 449.663 834.776 509.987C834.776 557.014 816.225 567.465 816.225 584.186C816.225 607.951 866.006 633.313 892.239 652.114C898.907 656.893 919.403 693.916 969.552 717.953C998.016 731.595 993.582 780.171 993.582 800.512C993.582 820.368 1017.85 843.656 998.016 847.54C973.768 852.287 918.358 812.008 908.955 829.774C899.552 847.54 917.666 863.215 940.298 908.153C964.423 956.054 1000.9 978.172 1021.79 1001.16" stroke="#E0E0E0"/>
<path d="M1320.6 653.159C1320.6 614.492 1390.6 478.635 1279.85 478.635C1169.1 478.635 1228.6 410.693 1179.55 382.49C1073.33 321.412 1023.04 262.485 1006.3 236.182C954.366 154.596 904.079 187.531 885.846 199.174C846.414 224.355 859.249 253.735 860.211 275.894C861.173 298.054 904.12 333.94 908.928 349.048C913.737 364.157 1014.72 464.132 1002.22 495.356C989.716 526.58 856.032 463.349 856.032 521.49C856.032 566.816 845.224 572.708 845.224 588.824C845.224 611.729 884.78 619.453 908.928 637.573C915.066 642.18 956.919 694.584 1003.08 717.75C1029.29 730.899 1008.49 783.988 1008.49 803.592C1008.49 822.73 1090.75 865.305 1073.17 892.81C1050.84 897.386 944.775 841.912 936.119 859.035C927.463 876.158 937.226 879.472 958.059 922.783C980.267 968.951 1024.5 980.048 1043.73 1002.21" stroke="#E0E0E0"/>
<path d="M1334.18 686.601C1299.7 657.34 1261.04 714.818 1250.6 670.925C1234.38 602.811 1312.66 608.567 1324.78 577.915C1343.58 509.987 1321.3 494.311 1270.45 494.311C1224.12 494.311 1186.57 532.008 1190 494.311C1198.36 402.346 1173.27 397.709 1134.63 375.175C1031.5 315.046 1011.69 274.644 992.537 250.813C955.265 204.432 916.988 201.226 899.288 212.688C861.006 237.478 873.544 248.854 874.477 270.669C875.411 292.484 915.224 309.336 944.477 360.544C952.21 374.08 1040.2 479.247 1028.06 509.987C1015.92 540.726 896.143 518.369 884.925 525.663C864.03 539.248 880.746 562.05 880.746 577.915C880.746 600.465 891.78 608.148 915.224 625.988C921.183 630.522 983.242 692.011 1028.06 714.818C1053.5 727.762 1028.06 777.032 1028.06 796.332C1028.06 815.172 1171.19 920.693 1154.48 951C1115.82 934.279 964.373 862.034 955.97 878.891C947.567 895.748 953.505 884.325 973.731 926.964C995.291 972.414 1056.4 987.708 1075.07 1009.52" stroke="#E0E0E0"/>
<path d="M1333.13 706.457C1298.66 677.196 1233.78 731.618 1230.75 686.601C1224.48 593.591 1294.89 601.252 1307.01 570.6C1325.82 502.671 1309.8 513.122 1258.96 513.122C1212.63 513.122 1173.93 557.831 1168.06 520.437C1156.57 447.284 1189.99 421.745 1151.34 399.211C1048.22 339.082 1036.76 323.762 1017.61 299.931C980.34 253.55 962.255 242.203 942.388 235.137C895.373 218.417 894.439 248.854 895.373 270.669C896.307 292.484 936.119 309.336 965.373 360.544C973.106 374.08 1069.18 469.23 1048.95 520.437C1028.73 571.645 948.924 548.355 936.119 544.474C901.642 534.023 900.805 555.549 905.821 570.6C911.045 586.276 919.227 601.85 936.119 625.988C950.746 646.889 1004.14 692.011 1048.95 714.818C1074.39 727.762 1042.69 771.806 1042.69 791.107C1042.69 809.947 1178.51 914.423 1188.96 958.315C1200.45 977.126 1253.73 993.847 1282.98 1019.97" stroke="#E0E0E0"/>
<path d="M1321.64 724.353C1290.06 696.006 1223.08 733.347 1220.3 689.736C1214.56 599.633 1267.7 601.339 1278.81 571.645C1292.48 535.068 1247.46 535.068 1247.46 535.068C1205.02 535.068 1180.6 604.042 1148.21 535.068C1111.55 456.992 1148.21 435.71 1134.63 420.112C1106.42 387.715 1056.05 369 1038.51 345.913C1004.36 300.981 988.678 283.785 970.478 276.94C927.409 260.741 928.995 255.806 929.851 276.94C930.706 298.073 982.454 327.657 1009.25 377.265C1016.34 390.378 1103 471.875 1084.48 521.482C1065.95 571.09 1015.3 575.825 1002.98 575.825C970.478 575.825 938.127 570.061 942.722 584.642C947.508 599.828 955.003 614.916 970.478 638.3C983.878 658.548 1034.51 682.29 1079.25 728.403C1097.68 747.397 1061.49 770.319 1061.49 789.016C1061.49 807.268 1176.25 882.353 1185.82 924.874C1196.35 943.097 1266.63 985.258 1293.43 1010.57" stroke="#E0E0E0"/>
<path d="M1304.93 1007.43C1280.22 982.528 1203.89 933.4 1194.18 915.468C1185.35 873.628 1081.78 809.478 1081.78 791.518C1081.78 773.121 1115.15 750.566 1098.16 731.876C1056.91 686.501 1027.03 675.106 997.867 628.078C968.706 581.051 1081.08 618.368 1098.16 569.555C1107.93 541.635 1115.31 541.636 1153.43 588.366C1180.6 621.66 1252.69 539.248 1215.07 635.393C1209.5 655.485 1203.79 699.29 1225.52 713.773C1252.69 731.876 1315.37 698.097 1309.1 769.16" stroke="#E0E0E0"/>
<path d="M1341.49 429.517C1335.22 404.436 1330 411.752 1328.96 397.121C1327.91 382.49 1337.31 376.22 1320.6 366.814C1303.88 357.409 1276.72 365.769 1243.28 360.544C1209.85 355.319 1130.45 310.381 1110.6 243.498C1090.75 176.614 1094.93 189.155 1084.48 171.389C1074.03 153.623 1051.04 126.452 1067.76 113.911C1084.48 101.37 1125.34 109.589 1136.72 103.46C1150.3 96.1449 1180.6 180.794 1195.22 142.127C1198.01 137.599 1199.82 125.615 1184.78 113.911C1165.97 99.2802 1140.9 101.37 1168.06 80.4692C1195.22 59.5681 1256.87 60.6132 1264.18 21.9461C1271.49 -16.7209 1148.21 48.0725 1129.4 -34.4868C1110.6 -117.046 1198.36 -52.2527 1217.16 -73.1538M1064.63 -133.767C1084.48 -81.5143 1061.49 -48.0725 1064.63 -21.9462C1067.76 4.18021 1120 44.9373 1064.63 62.7033C1009.25 80.4692 1000.9 22.9912 996.716 11.4956C992.537 -5.72205e-06 944.478 -86.7396 912.09 -86.7396C879.701 -86.7396 841.045 -28.2165 817.015 -34.4868C792.985 -40.7571 791.94 -90.9198 795.075 -146.308" stroke="#E0E0E0"/>
<path d="M1360.3 171.389C1318.51 175.569 1304.93 187.065 1301.79 218.416C1298.66 249.768 1288.21 279.03 1252.69 279.03C1217.16 279.03 1194.18 270.669 1170.15 240.362C1146.12 210.056 1117.91 178.704 1134.63 171.389C1151.34 164.073 1183.73 188.11 1196.27 179.749C1208.81 171.389 1222.39 126.451 1214.03 93.0096C1205.67 59.5679 1289.25 63.7481 1295.52 21.9459C1301.79 -19.8563 1268.36 -8.3607 1245.37 -8.3607C1222.39 -8.3607 1179.55 -15.6758 1206.72 -39.7121C1233.88 -63.7484 1252.69 -116.001 1289.25 -121.226" stroke="#E0E0E0"/>
<path d="M1326.87 -133.767C1323.73 -98.2352 1300.75 -103.46 1276.72 -86.7396C1252.69 -70.0187 1243.28 -49.1176 1250.6 -38.667C1257.91 -28.2165 1317.46 -22.9912 1311.19 14.6308C1304.93 52.2527 1233.88 80.4692 1234.93 101.37C1235.97 122.271 1244.33 160.938 1227.61 182.885C1210.9 204.831 1205.67 242.453 1250.6 225.732C1295.52 209.011 1279.85 189.155 1311.19 170.344C1342.54 151.533 1361.34 134.812 1381.19 95.1" stroke="#E0E0E0"/>
</g>
<defs>
<clipPath id="clip0">
<rect width="1260" height="951" fill="white"/>
</clipPath>
</defs>
</svg>
