<svg width="200" height="48" viewBox="0 0 200 48" fill="none" xmlns="http://www.w3.org/2000/svg">
<path fill-rule="evenodd" clip-rule="evenodd" d="M86.5579 45.9121V48H87.2191V46.5037H91.4243V48H92.0856V45.9121H91.3362V40.3095H87.9068V42.3975C87.9068 43.9112 87.6863 45.0247 87.1133 45.9121H86.5579ZM87.8627 45.9121C88.3652 45.0422 88.5415 43.9547 88.5415 42.8064V40.9012H90.6661V45.9121H87.8627ZM63.6452 40.8663C64.2358 41.4492 64.2799 41.9887 64.2799 43.4066C64.2799 44.8247 64.2358 45.364 63.6452 45.9468C63.2572 46.3297 62.7371 46.5559 62.0847 46.5559C61.4323 46.5559 60.9034 46.3297 60.5155 45.9468C59.9248 45.364 59.8895 44.8247 59.8895 43.4066C59.8895 41.9887 59.9248 41.4492 60.5155 40.8663C60.9034 40.4836 61.4323 40.2574 62.0847 40.2574C62.7371 40.2574 63.2572 40.4836 63.6452 40.8663ZM63.1692 45.5293C63.5657 45.1291 63.6098 44.6767 63.6098 43.4066C63.6098 42.1365 63.5657 41.6841 63.1692 41.2838C62.8782 40.9968 62.5079 40.849 62.0847 40.849C61.6615 40.849 61.2912 40.9968 61.0004 41.2838C60.6037 41.6841 60.5596 42.1365 60.5596 43.4066C60.5596 44.6767 60.6037 45.1291 61.0004 45.5293C61.2912 45.8164 61.6615 45.9643 62.0847 45.9643C62.5079 45.9643 62.8782 45.8164 63.1692 45.5293ZM58.5937 44.7985C58.5937 45.8773 57.6944 46.5559 56.5043 46.5559C55.4198 46.5559 54.5736 45.8773 54.3707 44.7116H55.032C55.1994 45.4771 55.7549 45.973 56.5394 45.973C57.3329 45.973 57.9236 45.5206 57.9236 44.7811C57.9236 44.0069 57.4651 43.6241 56.6453 43.6241H55.8519V43.0499H56.6718C57.4035 43.0499 57.8266 42.6497 57.8266 41.9277C57.8266 41.223 57.3241 40.8316 56.5484 40.8316C55.7637 40.8316 55.2259 41.3361 55.0496 42.1017H54.3795C54.5824 40.9359 55.4198 40.2574 56.5572 40.2574C57.6768 40.2574 58.4966 40.8925 58.4966 41.9016C58.4966 42.5715 58.1881 43.0412 57.5886 43.311C58.2411 43.5459 58.5937 44.0416 58.5937 44.7985ZM69.7459 46.5037V40.3095H66.2899V42.8237C66.2899 45.3988 65.7346 45.9121 64.9588 45.9121H64.7913V46.5037H65.1086C66.3077 46.5037 66.9424 45.6337 66.9424 43.0239V40.9012H69.0758V46.5037H69.7459ZM75.0795 40.8663C75.6702 41.4491 75.7143 41.9887 75.7143 43.4066C75.7143 44.8247 75.6702 45.364 75.0795 45.9468C74.6916 46.3297 74.1714 46.5559 73.5191 46.5559C72.8667 46.5559 72.3378 46.3297 71.9498 45.9468C71.3591 45.364 71.3238 44.8247 71.3238 43.4066C71.3238 41.9887 71.3591 41.4491 71.9498 40.8663C72.3378 40.4836 72.8667 40.2574 73.5191 40.2574C74.1714 40.2574 74.6916 40.4836 75.0795 40.8663ZM74.6035 45.5293C75.0001 45.1291 75.0442 44.6767 75.0442 43.4066C75.0442 42.1365 75.0001 41.6841 74.6035 41.2838C74.3126 40.9968 73.9422 40.849 73.5191 40.849C73.0959 40.849 72.7255 40.9968 72.4348 41.2838C72.038 41.6841 71.9939 42.1365 71.9939 43.4066C71.9939 44.6767 72.038 45.1291 72.4348 45.5293C72.7255 45.8164 73.0959 45.9643 73.5191 45.9643C73.9422 45.9643 74.3126 45.8164 74.6035 45.5293ZM80.7745 40.9012V40.3095H76.4725V40.9012H78.2885V46.5037H78.9585V40.9012H80.7745ZM85.2885 40.8663C85.8791 41.4491 85.9232 41.9887 85.9232 43.4066C85.9232 44.8247 85.8791 45.364 85.2885 45.9468C84.9005 46.3297 84.3803 46.5559 83.728 46.5559C83.0756 46.5559 82.5467 46.3297 82.1587 45.9468C81.5681 45.364 81.5327 44.8247 81.5327 43.4066C81.5327 41.9887 81.5681 41.4491 82.1587 40.8663C82.5467 40.4836 83.0756 40.2574 83.728 40.2574C84.3803 40.2574 84.9005 40.4836 85.2885 40.8663ZM84.8124 45.5293C85.209 45.1291 85.2531 44.6767 85.2531 43.4066C85.2531 42.1365 85.209 41.6841 84.8124 41.2838C84.5215 40.9968 84.1511 40.849 83.728 40.849C83.3048 40.849 82.9345 40.9968 82.6437 41.2838C82.2469 41.6841 82.2028 42.1365 82.2028 43.4066C82.2028 44.6767 82.2469 45.1291 82.6437 45.5293C82.9345 45.8164 83.3048 45.9643 83.728 45.9643C84.1511 45.9643 84.5215 45.8164 84.8124 45.5293ZM96.7845 40.8663C97.3751 41.4491 97.4193 41.9887 97.4193 43.4066C97.4193 44.8247 97.3751 45.364 96.7845 45.9468C96.3965 46.3297 95.8764 46.5559 95.224 46.5559C94.5717 46.5559 94.0427 46.3297 93.6548 45.9468C93.0641 45.364 93.0288 44.8247 93.0288 43.4066C93.0288 41.9887 93.0641 41.4491 93.6548 40.8663C94.0427 40.4836 94.5717 40.2574 95.224 40.2574C95.8764 40.2574 96.3965 40.4836 96.7845 40.8663ZM96.3085 45.5293C96.7051 45.1291 96.7492 44.6767 96.7492 43.4066C96.7492 42.1365 96.7051 41.6841 96.3085 41.2838C96.0175 40.9968 95.6472 40.849 95.224 40.849C94.8009 40.849 94.4305 40.9968 94.1397 41.2838C93.743 41.6841 93.6989 42.1365 93.6989 43.4066C93.6989 44.6767 93.743 45.1291 94.1397 45.5293C94.4305 45.8164 94.8009 45.9643 95.224 45.9643C95.6472 45.9643 96.0175 45.8164 96.3085 45.5293ZM103.299 44.6854C103.299 43.5893 102.541 42.8586 101.369 42.8586H99.6672V40.9012H102.912V40.3095H98.9973V46.5037H101.369C102.541 46.5037 103.299 45.7728 103.299 44.6854ZM102.629 44.6854C102.629 45.4597 102.144 45.9121 101.307 45.9121H99.6672V43.4501H101.307C102.144 43.4501 102.629 43.9025 102.629 44.6854ZM110.581 40.3095V46.5037H109.911V40.3095H110.581ZM107.134 42.8586C108.307 42.8586 109.074 43.5893 109.074 44.6854C109.074 45.7728 108.298 46.5037 107.134 46.5037H104.781V40.3095H105.451V42.8586H107.134ZM107.073 45.9121C107.91 45.9121 108.395 45.4597 108.395 44.6854C108.395 43.9025 107.91 43.4501 107.073 43.4501H105.451V45.9121H107.073ZM116.708 44.8073C116.708 44.3374 116.55 43.9547 116.241 43.6589C116.091 43.511 115.977 43.4414 115.686 43.3197C115.924 43.2152 116.021 43.163 116.153 43.0325C116.453 42.7541 116.612 42.38 116.612 41.9364C116.612 40.962 115.871 40.3095 114.76 40.3095H112.398V46.5037H114.839C116.003 46.5037 116.708 45.8599 116.708 44.8073ZM115.941 41.9711C115.941 42.6497 115.483 43.0499 114.707 43.0499H113.067V40.9012H114.707C115.483 40.9012 115.941 41.3013 115.941 41.9711ZM116.038 44.7724C116.038 45.4684 115.554 45.9121 114.778 45.9121H113.067V43.6415H114.778C115.554 43.6415 116.038 44.0765 116.038 44.7724ZM120.314 40.3095L122.615 46.5037H121.901L121.399 45.1031H118.657L118.154 46.5037H117.44L119.75 40.3095H120.314ZM118.86 44.5289H121.205L120.041 41.2578L118.86 44.5289ZM129.977 43.4066C129.977 41.9887 129.95 41.4666 129.342 40.8663C128.954 40.4836 128.434 40.2574 127.781 40.2574C127.129 40.2574 126.6 40.4836 126.212 40.8663C125.666 41.4058 125.595 41.9102 125.586 43.0848H124.255V40.3095H123.585V46.5037H124.255V43.6763H125.586C125.595 44.8943 125.657 45.4075 126.212 45.9468C126.6 46.3297 127.129 46.5559 127.781 46.5559C128.434 46.5559 128.954 46.3297 129.342 45.9468C129.95 45.3467 129.977 44.8247 129.977 43.4066ZM129.307 43.4066C129.307 44.6767 129.262 45.1291 128.866 45.5293C128.575 45.8164 128.205 45.9643 127.781 45.9643C127.358 45.9643 126.979 45.8164 126.697 45.5293C126.3 45.1291 126.256 44.6767 126.256 43.4066C126.256 42.1365 126.3 41.6841 126.697 41.2838C126.979 40.9968 127.358 40.849 127.781 40.849C128.205 40.849 128.575 40.9968 128.866 41.2838C129.262 41.6841 129.307 42.1365 129.307 43.4066ZM139.26 45.9121V48H138.598V46.5037H131.546V40.3095H132.216V45.9121H134.693V40.3095H135.372V45.9121H137.849V40.3095H138.519V45.9121H139.26ZM144.902 46.5037L142.601 40.3095H142.037L139.727 46.5037H140.441L140.944 45.1031H143.685L144.188 46.5037H144.902ZM143.491 44.5289H141.146L142.328 41.2578L143.491 44.5289ZM149.204 43.9547H147.653L146.286 46.5037H145.501L146.947 43.859C146.119 43.659 145.598 43.0151 145.598 42.1278C145.598 41.023 146.374 40.3095 147.538 40.3095H149.874V46.5037H149.204V43.9547ZM147.6 43.363H149.204V40.8925H147.6C146.762 40.8925 146.269 41.3536 146.269 42.1278C146.269 42.9019 146.762 43.363 147.6 43.363ZM154.591 46.5037V40.3095H153.921V46.5037H154.591ZM158.373 46.5037L155.384 43.2501L158.135 40.3095H157.288L154.6 43.2675L157.482 46.5037H158.373ZM162.702 40.8663C163.292 41.4491 163.336 41.9887 163.336 43.4066C163.336 44.8247 163.292 45.364 162.702 45.9468C162.314 46.3297 161.793 46.5559 161.141 46.5559C160.489 46.5559 159.96 46.3297 159.572 45.9468C158.981 45.364 158.946 44.8247 158.946 43.4066C158.946 41.9887 158.981 41.4491 159.572 40.8663C159.96 40.4836 160.489 40.2574 161.141 40.2574C161.793 40.2574 162.314 40.4836 162.702 40.8663ZM162.226 45.5293C162.622 45.1291 162.666 44.6767 162.666 43.4066C162.666 42.1365 162.622 41.6841 162.226 41.2838C161.935 40.9968 161.564 40.849 161.141 40.849C160.718 40.849 160.348 40.9968 160.057 41.2838C159.66 41.6841 159.616 42.1365 159.616 43.4066C159.616 44.6767 159.66 45.1291 160.057 45.5293C160.348 45.8164 160.718 45.9643 161.141 45.9643C161.564 45.9643 161.935 45.8164 162.226 45.5293ZM170.292 46.5037V40.3095H169.622L167.63 44.7029L165.584 40.3095H164.914V46.5037H165.584V41.7972L167.33 45.5293H167.903L169.622 41.7972V46.5037H170.292ZM176.419 40.3095V46.5037H175.749V40.9012H172.778V46.5037H172.108V40.3095H176.419ZM182.617 46.5037L180.316 40.3095H179.751L177.442 46.5037H178.156L178.658 45.1031H181.4L181.903 46.5037H182.617ZM181.206 44.5289H178.861L180.042 41.2578L181.206 44.5289ZM187.906 40.3095V46.5037H187.236V43.6763H184.257V46.5037H183.587V40.3095H184.257V43.0847H187.236V40.3095H187.906ZM194.219 46.5037V40.3095H193.584L190.393 45.3553V40.3095H189.723V46.5037H190.357L193.549 41.4491V46.5037H194.219ZM199.323 43.9547H197.771L196.405 46.5037H195.62L197.066 43.859C196.237 43.659 195.717 43.0151 195.717 42.1278C195.717 41.023 196.493 40.3095 197.657 40.3095H199.993V46.5037H199.323V43.9547ZM197.719 43.363H199.323V40.8925H197.719C196.881 40.8925 196.387 41.3536 196.387 42.1278C196.387 42.9019 196.881 43.363 197.719 43.363Z" fill="#EF7F1A"/>
<path d="M61.4748 34.3703C65.5157 34.3703 68.4207 32.1288 68.4207 28.6887C68.4207 26.8121 67.3645 25.3527 65.8855 24.623C67.1793 23.8413 68.1568 22.4338 68.1568 20.7657C68.1568 17.56 65.3573 15.5012 61.501 15.5012C57.9357 15.5012 55.0569 17.4559 54.3966 21.4435H58.992C59.3092 20.4008 59.9429 19.4105 61.4748 19.4105C62.7424 19.4105 63.5611 20.0881 63.5611 21.1046C63.5611 22.1991 62.7689 22.8767 61.501 22.8767H59.0186V26.5777H61.501C63.0858 26.5777 63.7725 27.3855 63.7725 28.5323C63.7725 29.601 62.9803 30.4089 61.4484 30.4089C59.9165 30.4089 59.2826 29.4707 58.9657 28.4282H54.3702C55.0305 32.4155 57.9093 34.3703 61.4748 34.3703ZM85.588 15.6836H80.8603L77.876 23.437L74.5747 15.6836H69.7151L75.6575 28.3543C75.4725 29.0841 74.9972 30.1481 73.571 30.1481H71.9335V34.2139H74.4954C76.8987 34.2139 78.2722 32.5982 78.9854 30.956L85.588 15.6836ZM101.646 34.2139V15.6836H97.0239V22.7987H92.1114V15.6836H87.4896V34.2139H92.1114V26.8643H97.0239V34.2139H101.646ZM113.504 28.5323V24.5187H104.841V28.5323H113.504ZM131.543 34.2139L125.68 24.7142L131.173 15.6836H125.917L123.171 20.9136L120.424 15.6836H115.168L120.661 24.7142L114.798 34.2139H120.081L123.171 28.515L126.261 34.2139H131.543ZM146.888 23.2938C146.888 20.6094 146.307 18.9414 144.986 17.5864C143.613 16.1788 141.87 15.5012 139.704 15.5012C137.564 15.5012 135.821 16.1788 134.474 17.5864C132.995 19.0977 132.573 20.6616 132.573 24.2843V25.6393C132.573 27.9068 132.599 30.3567 134.474 32.2854C135.848 33.6927 137.564 34.3703 139.757 34.3703C141.896 34.3703 143.639 33.6927 144.986 32.2854C146.808 30.4089 146.888 28.0893 146.888 25.6915V23.2938ZM142.266 25.4309C142.266 27.8026 142.081 28.845 141.579 29.4707C141.156 29.9918 140.47 30.3045 139.73 30.3045C138.991 30.3045 138.304 29.9918 137.882 29.4707C137.38 28.845 137.195 27.8026 137.195 25.4309V24.154C137.195 22.4077 137.38 21.0265 137.882 20.375C138.304 19.8537 138.964 19.5669 139.73 19.5669C140.496 19.5669 141.156 19.8537 141.579 20.375C142.081 21.0265 142.266 22.4077 142.266 24.154V25.4309ZM163.606 34.2139V15.6836H151.245V24.5838C151.245 29.2926 150.11 30.1481 148.472 30.1481H147.918V34.2139H149.687C153.754 34.2139 155.709 32.3374 155.709 24.5838V19.7493H158.984V34.2139H163.606ZM181.459 28.2457C181.459 24.7793 179.109 22.2774 175.174 22.2774H172.031V19.7493H180.245V15.6836H167.409V34.2139H175.174C179.135 34.2139 181.459 31.712 181.459 28.2457ZM176.838 28.2457C176.838 29.3143 176.124 30.1223 174.962 30.1223H172.031V26.3691H174.962C176.124 26.3691 176.838 27.177 176.838 28.2457ZM200 34.2139L193.159 15.6836H189.594L182.754 34.2139H187.587L188.511 31.4512H194.295L195.167 34.2139H200ZM193.08 27.6463H189.805L191.495 22.7074L193.08 27.6463Z" fill="#5B5B5B"/>
<path fill-rule="evenodd" clip-rule="evenodd" d="M0 24.8277V46.5038H47.126V24.841L10.5388 33.8919L26.2624 18.3759L0 24.8277Z" fill="#EF7F1A"/>
<path fill-rule="evenodd" clip-rule="evenodd" d="M47.126 0H0V21.6109L36.5722 12.6266L20.8785 28.1132L47.126 21.6199V0Z" fill="#898989"/>
</svg>
