<svg width="200" height="48" viewBox="0 0 200 48" fill="none" xmlns="http://www.w3.org/2000/svg">
<path fill-rule="evenodd" clip-rule="evenodd" d="M86.5581 45.9121V48H87.2192V46.5037H91.4244V48H92.0858V45.9121H91.3363V40.3095H87.9069V42.3975C87.9069 43.9112 87.6865 45.0247 87.1134 45.9121H86.5581ZM87.8628 45.9121C88.3653 45.0422 88.5417 43.9547 88.5417 42.8064V40.9012H90.6663V45.9121H87.8628ZM63.6453 40.8663C64.2359 41.4492 64.28 41.9887 64.28 43.4066C64.28 44.8247 64.2359 45.364 63.6453 45.9468C63.2573 46.3297 62.7372 46.5559 62.0848 46.5559C61.4325 46.5559 60.9035 46.3297 60.5156 45.9468C59.9249 45.364 59.8896 44.8247 59.8896 43.4066C59.8896 41.9887 59.9249 41.4492 60.5156 40.8663C60.9035 40.4836 61.4325 40.2574 62.0848 40.2574C62.7372 40.2574 63.2573 40.4836 63.6453 40.8663ZM63.1693 45.5293C63.5658 45.1291 63.61 44.6767 63.61 43.4066C63.61 42.1365 63.5658 41.6841 63.1693 41.2838C62.8783 40.9968 62.508 40.849 62.0848 40.849C61.6617 40.849 61.2913 40.9968 61.0005 41.2838C60.6038 41.6841 60.5597 42.1365 60.5597 43.4066C60.5597 44.6767 60.6038 45.1291 61.0005 45.5293C61.2913 45.8164 61.6617 45.9643 62.0848 45.9643C62.508 45.9643 62.8783 45.8164 63.1693 45.5293ZM58.5938 44.7985C58.5938 45.8773 57.6945 46.5559 56.5044 46.5559C55.4199 46.5559 54.5737 45.8773 54.3708 44.7116H55.0321C55.1995 45.4771 55.755 45.973 56.5395 45.973C57.3331 45.973 57.9237 45.5206 57.9237 44.7811C57.9237 44.0069 57.4653 43.6241 56.6454 43.6241H55.852V43.0499H56.6719C57.4036 43.0499 57.8267 42.6497 57.8267 41.9277C57.8267 41.223 57.3243 40.8316 56.5485 40.8316C55.7638 40.8316 55.226 41.3361 55.0497 42.1017H54.3796C54.5825 40.9359 55.4199 40.2574 56.5573 40.2574C57.6769 40.2574 58.4968 40.8925 58.4968 41.9016C58.4968 42.5715 58.1882 43.0412 57.5887 43.311C58.2412 43.5459 58.5938 44.0416 58.5938 44.7985ZM69.746 46.5037V40.3095H66.29V42.8237C66.29 45.3988 65.7347 45.9121 64.959 45.9121H64.7914V46.5037H65.1088C66.3078 46.5037 66.9426 45.6337 66.9426 43.0239V40.9012H69.0759V46.5037H69.746ZM75.0796 40.8663C75.6703 41.4491 75.7144 41.9887 75.7144 43.4066C75.7144 44.8247 75.6703 45.364 75.0796 45.9468C74.6917 46.3297 74.1715 46.5559 73.5192 46.5559C72.8668 46.5559 72.3379 46.3297 71.9499 45.9468C71.3593 45.364 71.324 44.8247 71.324 43.4066C71.324 41.9887 71.3593 41.4491 71.9499 40.8663C72.3379 40.4836 72.8668 40.2574 73.5192 40.2574C74.1715 40.2574 74.6917 40.4836 75.0796 40.8663ZM74.6036 45.5293C75.0002 45.1291 75.0443 44.6767 75.0443 43.4066C75.0443 42.1365 75.0002 41.6841 74.6036 41.2838C74.3127 40.9968 73.9423 40.849 73.5192 40.849C73.096 40.849 72.7257 40.9968 72.4349 41.2838C72.0382 41.6841 71.994 42.1365 71.994 43.4066C71.994 44.6767 72.0382 45.1291 72.4349 45.5293C72.7257 45.8164 73.096 45.9643 73.5192 45.9643C73.9423 45.9643 74.3127 45.8164 74.6036 45.5293ZM80.7747 40.9012V40.3095H76.4726V40.9012H78.2887V46.5037H78.9586V40.9012H80.7747ZM85.2886 40.8663C85.8792 41.4491 85.9233 41.9887 85.9233 43.4066C85.9233 44.8247 85.8792 45.364 85.2886 45.9468C84.9006 46.3297 84.3804 46.5559 83.7281 46.5559C83.0757 46.5559 82.5468 46.3297 82.1589 45.9468C81.5682 45.364 81.5329 44.8247 81.5329 43.4066C81.5329 41.9887 81.5682 41.4491 82.1589 40.8663C82.5468 40.4836 83.0757 40.2574 83.7281 40.2574C84.3804 40.2574 84.9006 40.4836 85.2886 40.8663ZM84.8125 45.5293C85.2091 45.1291 85.2532 44.6767 85.2532 43.4066C85.2532 42.1365 85.2091 41.6841 84.8125 41.2838C84.5216 40.9968 84.1512 40.849 83.7281 40.849C83.3049 40.849 82.9346 40.9968 82.6438 41.2838C82.2471 41.6841 82.203 42.1365 82.203 43.4066C82.203 44.6767 82.2471 45.1291 82.6438 45.5293C82.9346 45.8164 83.3049 45.9643 83.7281 45.9643C84.1512 45.9643 84.5216 45.8164 84.8125 45.5293ZM96.7846 40.8663C97.3753 41.4491 97.4194 41.9887 97.4194 43.4066C97.4194 44.8247 97.3753 45.364 96.7846 45.9468C96.3967 46.3297 95.8765 46.5559 95.2242 46.5559C94.5718 46.5559 94.0429 46.3297 93.6549 45.9468C93.0642 45.364 93.0289 44.8247 93.0289 43.4066C93.0289 41.9887 93.0642 41.4491 93.6549 40.8663C94.0429 40.4836 94.5718 40.2574 95.2242 40.2574C95.8765 40.2574 96.3967 40.4836 96.7846 40.8663ZM96.3086 45.5293C96.7052 45.1291 96.7493 44.6767 96.7493 43.4066C96.7493 42.1365 96.7052 41.6841 96.3086 41.2838C96.0177 40.9968 95.6473 40.849 95.2242 40.849C94.8011 40.849 94.4306 40.9968 94.1399 41.2838C93.7431 41.6841 93.699 42.1365 93.699 43.4066C93.699 44.6767 93.7431 45.1291 94.1399 45.5293C94.4306 45.8164 94.8011 45.9643 95.2242 45.9643C95.6473 45.9643 96.0177 45.8164 96.3086 45.5293ZM103.299 44.6854C103.299 43.5893 102.541 42.8586 101.369 42.8586H99.6673V40.9012H102.912V40.3095H98.9974V46.5037H101.369C102.541 46.5037 103.299 45.7728 103.299 44.6854ZM102.63 44.6854C102.63 45.4597 102.145 45.9121 101.307 45.9121H99.6673V43.4501H101.307C102.145 43.4501 102.63 43.9025 102.63 44.6854ZM110.582 40.3095V46.5037H109.912V40.3095H110.582ZM107.135 42.8586C108.307 42.8586 109.074 43.5893 109.074 44.6854C109.074 45.7728 108.298 46.5037 107.135 46.5037H104.781V40.3095H105.451V42.8586H107.135ZM107.073 45.9121C107.91 45.9121 108.395 45.4597 108.395 44.6854C108.395 43.9025 107.91 43.4501 107.073 43.4501H105.451V45.9121H107.073ZM116.709 44.8073C116.709 44.3374 116.55 43.9547 116.241 43.6589C116.092 43.511 115.977 43.4414 115.686 43.3197C115.924 43.2152 116.021 43.163 116.153 43.0325C116.453 42.7541 116.612 42.38 116.612 41.9364C116.612 40.962 115.871 40.3095 114.76 40.3095H112.398V46.5037H114.84C116.003 46.5037 116.709 45.8599 116.709 44.8073ZM115.942 41.9711C115.942 42.6497 115.483 43.0499 114.707 43.0499H113.068V40.9012H114.707C115.483 40.9012 115.942 41.3013 115.942 41.9711ZM116.039 44.7724C116.039 45.4684 115.554 45.9121 114.778 45.9121H113.068V43.6415H114.778C115.554 43.6415 116.039 44.0765 116.039 44.7724ZM120.314 40.3095L122.615 46.5037H121.901L121.399 45.1031H118.657L118.154 46.5037H117.44L119.75 40.3095H120.314ZM118.86 44.5289H121.205L120.041 41.2578L118.86 44.5289ZM129.977 43.4066C129.977 41.9887 129.95 41.4666 129.342 40.8663C128.954 40.4836 128.434 40.2574 127.781 40.2574C127.129 40.2574 126.6 40.4836 126.212 40.8663C125.666 41.4058 125.595 41.9102 125.586 43.0848H124.255V40.3095H123.585V46.5037H124.255V43.6763H125.586C125.595 44.8943 125.657 45.4075 126.212 45.9468C126.6 46.3297 127.129 46.5559 127.781 46.5559C128.434 46.5559 128.954 46.3297 129.342 45.9468C129.95 45.3467 129.977 44.8247 129.977 43.4066ZM129.307 43.4066C129.307 44.6767 129.263 45.1291 128.866 45.5293C128.575 45.8164 128.205 45.9643 127.781 45.9643C127.358 45.9643 126.979 45.8164 126.697 45.5293C126.3 45.1291 126.256 44.6767 126.256 43.4066C126.256 42.1365 126.3 41.6841 126.697 41.2838C126.979 40.9968 127.358 40.849 127.781 40.849C128.205 40.849 128.575 40.9968 128.866 41.2838C129.263 41.6841 129.307 42.1365 129.307 43.4066ZM139.26 45.9121V48H138.599V46.5037H131.546V40.3095H132.216V45.9121H134.693V40.3095H135.372V45.9121H137.849V40.3095H138.519V45.9121H139.26ZM144.902 46.5037L142.601 40.3095H142.037L139.727 46.5037H140.441L140.944 45.1031H143.686L144.188 46.5037H144.902ZM143.492 44.5289H141.146L142.328 41.2578L143.492 44.5289ZM149.204 43.9547H147.653L146.286 46.5037H145.502L146.947 43.859C146.119 43.659 145.599 43.0151 145.599 42.1278C145.599 41.023 146.374 40.3095 147.538 40.3095H149.874V46.5037H149.204V43.9547ZM147.6 43.363H149.204V40.8925H147.6C146.762 40.8925 146.269 41.3536 146.269 42.1278C146.269 42.9019 146.762 43.363 147.6 43.363ZM154.591 46.5037V40.3095H153.921V46.5037H154.591ZM158.373 46.5037L155.384 43.2501L158.135 40.3095H157.289L154.6 43.2675L157.483 46.5037H158.373ZM162.702 40.8663C163.292 41.4491 163.336 41.9887 163.336 43.4066C163.336 44.8247 163.292 45.364 162.702 45.9468C162.314 46.3297 161.794 46.5559 161.141 46.5559C160.489 46.5559 159.96 46.3297 159.572 45.9468C158.981 45.364 158.946 44.8247 158.946 43.4066C158.946 41.9887 158.981 41.4491 159.572 40.8663C159.96 40.4836 160.489 40.2574 161.141 40.2574C161.794 40.2574 162.314 40.4836 162.702 40.8663ZM162.226 45.5293C162.622 45.1291 162.666 44.6767 162.666 43.4066C162.666 42.1365 162.622 41.6841 162.226 41.2838C161.935 40.9968 161.564 40.849 161.141 40.849C160.718 40.849 160.348 40.9968 160.057 41.2838C159.66 41.6841 159.616 42.1365 159.616 43.4066C159.616 44.6767 159.66 45.1291 160.057 45.5293C160.348 45.8164 160.718 45.9643 161.141 45.9643C161.564 45.9643 161.935 45.8164 162.226 45.5293ZM170.292 46.5037V40.3095H169.622L167.63 44.7029L165.584 40.3095H164.914V46.5037H165.584V41.7972L167.33 45.5293H167.903L169.622 41.7972V46.5037H170.292ZM176.419 40.3095V46.5037H175.749V40.9012H172.778V46.5037H172.108V40.3095H176.419ZM182.617 46.5037L180.316 40.3095H179.752L177.442 46.5037H178.156L178.659 45.1031H181.4L181.903 46.5037H182.617ZM181.206 44.5289H178.861L180.043 41.2578L181.206 44.5289ZM187.907 40.3095V46.5037H187.237V43.6763H184.257V46.5037H183.587V40.3095H184.257V43.0847H187.237V40.3095H187.907ZM194.219 46.5037V40.3095H193.584L190.393 45.3553V40.3095H189.723V46.5037H190.357L193.549 41.4491V46.5037H194.219ZM199.323 43.9547H197.772L196.405 46.5037H195.62L197.066 43.859C196.238 43.659 195.717 43.0151 195.717 42.1278C195.717 41.023 196.493 40.3095 197.657 40.3095H199.993V46.5037H199.323V43.9547ZM197.719 43.363H199.323V40.8925H197.719C196.881 40.8925 196.388 41.3536 196.388 42.1278C196.388 42.9019 196.881 43.363 197.719 43.363Z" fill="#EF7F1A"/>
<path d="M61.4746 34.3703C65.5156 34.3703 68.4206 32.1288 68.4206 28.6887C68.4206 26.8121 67.3644 25.3527 65.8853 24.623C67.1792 23.8413 68.1567 22.4338 68.1567 20.7657C68.1567 17.56 65.3571 15.5012 61.5009 15.5012C57.9356 15.5012 55.0568 17.4559 54.3965 21.4435H58.9918C59.309 20.4008 59.9428 19.4105 61.4746 19.4105C62.7423 19.4105 63.561 20.0881 63.561 21.1046C63.561 22.1991 62.7688 22.8767 61.5009 22.8767H59.0185V26.5777H61.5009C63.0857 26.5777 63.7723 27.3855 63.7723 28.5323C63.7723 29.601 62.9802 30.4089 61.4483 30.4089C59.9164 30.4089 59.2825 29.4707 58.9656 28.4282H54.3701C55.0304 32.4155 57.9092 34.3703 61.4746 34.3703ZM85.5878 15.6836H80.8602L77.8759 23.437L74.5746 15.6836H69.7149L75.6574 28.3543C75.4724 29.0841 74.9971 30.1481 73.5709 30.1481H71.9333V34.2139H74.4952C76.8986 34.2139 78.2721 32.5982 78.9853 30.956L85.5878 15.6836ZM101.646 34.2139V15.6836H97.0238V22.7987H92.1112V15.6836H87.4895V34.2139H92.1112V26.8643H97.0238V34.2139H101.646ZM113.504 28.5323V24.5187H104.841V28.5323H113.504ZM131.543 34.2139L125.679 24.7142L131.173 15.6836H125.917L123.17 20.9136L120.424 15.6836H115.168L120.661 24.7142L114.798 34.2139H120.081L123.17 28.515L126.261 34.2139H131.543ZM146.888 23.2938C146.888 20.6094 146.306 18.9414 144.986 17.5864C143.612 16.1788 141.869 15.5012 139.704 15.5012C137.564 15.5012 135.821 16.1788 134.474 17.5864C132.995 19.0977 132.573 20.6616 132.573 24.2843V25.6393C132.573 27.9068 132.599 30.3567 134.474 32.2854C135.848 33.6927 137.564 34.3703 139.756 34.3703C141.896 34.3703 143.639 33.6927 144.986 32.2854C146.808 30.4089 146.888 28.0893 146.888 25.6915V23.2938ZM142.266 25.4309C142.266 27.8026 142.081 28.845 141.579 29.4707C141.156 29.9918 140.47 30.3045 139.73 30.3045C138.991 30.3045 138.304 29.9918 137.881 29.4707C137.38 28.845 137.195 27.8026 137.195 25.4309V24.154C137.195 22.4077 137.38 21.0265 137.881 20.375C138.304 19.8537 138.964 19.5669 139.73 19.5669C140.496 19.5669 141.156 19.8537 141.579 20.375C142.081 21.0265 142.266 22.4077 142.266 24.154V25.4309ZM163.606 34.2139V15.6836H151.245V24.5838C151.245 29.2926 150.109 30.1481 148.472 30.1481H147.918V34.2139H149.687C153.754 34.2139 155.709 32.3374 155.709 24.5838V19.7493H158.984V34.2139H163.606ZM181.459 28.2457C181.459 24.7793 179.109 22.2774 175.174 22.2774H172.03V19.7493H180.245V15.6836H167.409V34.2139H175.174C179.135 34.2139 181.459 31.712 181.459 28.2457ZM176.837 28.2457C176.837 29.3143 176.124 30.1223 174.962 30.1223H172.03V26.3691H174.962C176.124 26.3691 176.837 27.177 176.837 28.2457ZM200 34.2139L193.159 15.6836H189.594L182.754 34.2139H187.587L188.511 31.4512H194.295L195.167 34.2139H200ZM193.08 27.6463H189.805L191.495 22.7074L193.08 27.6463Z" fill="white"/>
<path fill-rule="evenodd" clip-rule="evenodd" d="M0 24.8277V46.5038H47.126V24.841L10.5388 33.8919L26.2624 18.3759L0 24.8277Z" fill="#EF7F1A"/>
<path fill-rule="evenodd" clip-rule="evenodd" d="M47.126 0H0V21.6109L36.5722 12.6266L20.8785 28.1132L47.126 21.6199V0Z" fill="white"/>
</svg>
