<svg width="48" height="49" fill="none" xmlns="http://www.w3.org/2000/svg"><ellipse cx="24" cy="24" rx="24" ry="23.5" fill="#001D55"/><path d="M34 29.485v3.009a2.006 2.006 0 01-2.006 2.006h-.19a19.852 19.852 0 01-8.657-3.08 19.58 19.58 0 01-6.019-6.017 19.88 19.88 0 01-3.12-8.716 2.006 2.006 0 011.817-2.187h3.19a2.006 2.006 0 012.005 1.725c.129.963.364 1.908.703 2.819a2.007 2.007 0 01-.452 2.116l-1.274 1.274a16.049 16.049 0 006.019 6.018l1.274-1.274a2.006 2.006 0 012.116-.451c.91.338 1.856.573 2.819.702a2.007 2.007 0 011.725 2.036l.05.02z" stroke="#fff" stroke-width="2" stroke-linecap="round" stroke-linejoin="round"/></svg>