<svg width="41" height="45" fill="none" xmlns="http://www.w3.org/2000/svg"><path d="M3.626 0h23.896l12.666 12.617v29.57A2.813 2.813 0 0137.376 45H3.626a2.813 2.813 0 01-2.813-2.813V2.813A2.813 2.813 0 013.626 0z" fill="#E2574C"/><path d="M40.147 12.656h-9.803a2.813 2.813 0 01-2.813-2.812V.028l12.616 12.628z" fill="#B53629"/><path d="M29.64 21.323c.47 0 .701-.41.701-.809 0-.412-.24-.81-.702-.81h-2.683c-.524 0-.817.435-.817.914v6.594c0 .588.335.914.788.914.45 0 .786-.326.786-.914v-1.81h1.623c.503 0 .755-.412.755-.821 0-.4-.252-.799-.755-.799h-1.623v-2.46h1.926zm-9.07-1.619h-1.963c-.533 0-.911.366-.911.909v6.605c0 .673.544.884.934.884h2.06c2.438 0 4.048-1.604 4.048-4.08 0-2.62-1.517-4.318-4.168-4.318zm.095 6.77h-1.197v-5.141h1.079c1.632 0 2.342 1.095 2.342 2.607 0 1.415-.697 2.534-2.224 2.534zm-7.192-6.77h-1.945c-.55 0-.856.363-.856.914v6.594c0 .588.351.914.824.914.472 0 .824-.326.824-.914v-1.925h1.219c1.505 0 2.746-1.066 2.746-2.78 0-1.678-1.197-2.803-2.812-2.803zm-.032 4.036H12.32v-2.488h1.12c.693 0 1.133.54 1.133 1.245-.002.703-.44 1.243-1.132 1.243z" fill="#fff"/></svg>