<svg width="319px" height="61px" viewBox="0 0 319 61" version="1.1" xmlns="http://www.w3.org/2000/svg" xmlns:xlink="http://www.w3.org/1999/xlink">
    <title>Mask</title>
    <g id="Page-1" stroke="none" stroke-width="1" fill="none" fill-rule="evenodd">
        <g id="Post" transform="translate(-197.000000, -273.000000)" fill="#FFFFFF">
            <path d="M208.660072,273 L208.660072,297.244005 C212.504688,292.200544 217.223081,290.696354 222.116229,290.696354 C234.349098,290.696354 239.766512,299.102122 239.766512,311.931979 L239.757015,328.277146 C236.199169,328.66206 232.646512,329.064365 229.099129,329.483975 L229.10644,312.020461 C229.10644,304.057102 224.999691,300.694794 219.320144,300.694794 C213.028954,300.694794 208.660072,306.092182 208.660072,312.639833 L208.649908,332.10205 C205.09338,332.592138 201.542385,333.099655 197.99701,333.624513 L198,273 L208.660072,273 Z M497.213807,290.076982 C503.941886,290.076982 509.009789,291.404208 513.990314,295.828297 L508.048635,302.906839 C504.990417,299.98694 501.495312,299.013641 497.388563,299.013641 C492.320659,299.013641 489.524575,300.606313 489.524575,303.349247 C489.524575,306.180664 492.058527,307.773336 497.563318,308.127263 C498.247623,308.17197 498.947418,308.226088 499.655243,308.294638 L500.187501,308.348835 C507.745839,309.157181 516,311.736388 516,322.107383 C516,326.36666 514.100741,330.300879 510.317023,332.965799 L510.324295,332.942419 C499.493117,331.387757 488.609989,329.994844 477.677414,328.766197 L477.553838,328.655034 L482.796497,320.95712 C485.854714,324.407909 492.844925,326.97388 497.650696,327.062362 C501.670067,327.150844 505.427306,325.027281 505.427306,321.841938 C505.427306,318.833557 502.980732,317.594813 496.864297,317.240885 C488.738176,316.621513 479.039258,313.613133 479.039258,303.703175 C479.039258,293.616253 489.34982,290.076982 497.213807,290.076982 Z M453.186399,290.607872 C463.322205,290.607872 471.448326,298.305786 471.448326,312.020461 L471.458707,328.085614 C467.908284,327.707489 464.352713,327.346681 460.792081,327.003274 L460.788253,312.108943 C460.788253,305.47281 457.20577,300.429349 450.390314,300.429349 C443.836991,300.429349 439.380732,306.003701 439.380732,312.639833 L439.389167,325.153931 C435.868102,324.884945 432.342308,324.632953 428.811864,324.398037 L428.808037,291.227245 L438.3322,291.227245 L439.031221,297.155523 C443.400103,292.819917 447.768985,290.607872 453.186399,290.607872 Z M258.104894,291.315727 L258.104894,316.49893 C258.104894,320.57781 259.458325,324.054993 262.084027,326.129177 L262.075179,326.097356 C257.83884,326.466685 253.609519,326.86063 249.387359,327.279047 C248.137242,324.28445 247.444822,320.696831 247.444822,316.587411 L247.444822,291.315727 L258.104894,291.315727 Z M290.085111,291.315727 L290.078041,324.02224 C285.392731,324.308366 280.715506,324.624558 276.046556,324.970626 L276.057005,325.006204 C278.240729,322.755098 279.512416,319.513069 279.512416,315.968039 L279.512416,291.315727 L290.085111,291.315727 Z M396.489232,290.253945 C402.256157,290.253945 407.760948,292.99688 410.207522,297.332487 L410.557032,291.315727 L420.780216,291.315727 L420.78963,323.89413 C415.874737,323.603707 410.950988,323.346365 406.0186,323.122323 L406.01367,323.146678 C413.433898,316.101282 410.57947,299.898458 397.450386,299.898458 C390.372798,299.898458 384.693251,304.764956 384.693251,313.082242 C384.693251,317.029002 385.972137,320.218659 388.072427,322.481033 L388.079333,322.455785 C383.845415,322.333418 379.605378,322.235578 375.359355,322.162401 C374.496652,319.506247 374.033179,316.474589 374.033179,313.082242 C374.033179,298.040341 383.906852,290.165464 396.489232,290.253945 Z M320.831118,290.519391 C325.986399,290.519391 331.14168,292.642953 333.588253,298.659714 C337.43287,292.46599 342.413395,290.696354 348.005564,290.696354 C360.238434,290.696354 366.267491,298.305786 366.267491,311.401089 L366.276203,322.04361 C363.020895,322.014557 359.76214,322 356.5,322 L355.60701,322.007 L355.607419,311.401089 C355.607419,305.649773 353.248223,300.783276 347.481298,300.783276 C341.714374,300.783276 338.131891,305.826737 338.131891,311.578052 L338.13052,322.154068 C334.570634,322.213823 331.014951,322.290915 327.46355,322.385262 L327.471819,311.578052 C327.471819,305.826737 324.500979,300.606313 318.646677,300.606313 C312.879753,300.606313 309.472025,305.826737 309.472025,311.578052 L309.464237,323.012391 C305.906398,323.165845 302.35303,323.336623 298.804214,323.524645 L298.811953,291.227245 L308.685626,291.227245 L309.472025,296.536151 C311.743843,292.112063 316.724369,290.519391 320.831118,290.519391 Z" id="Mask"/>
        </g>
    </g>
</svg>