<svg width="40" height="40" viewBox="0 0 40 40" fill="none" xmlns="http://www.w3.org/2000/svg">
<g clip-path="url(#clip0_51_1119)">
<path d="M25.0007 16.666C25.0007 16.666 30.8374 11.8743 30.8374 7.49935C30.8374 4.27768 28.2241 1.66602 25.0007 1.66602C21.7774 1.66602 19.1641 4.27768 19.1641 7.49935C19.1641 11.8743 25.0007 16.666 25.0007 16.666Z" stroke="#252525" stroke-width="3" stroke-linecap="round" stroke-linejoin="round"/>
<path d="M25.0067 6.41895C25.6955 6.41895 26.2545 6.97796 26.2495 7.66675C26.2495 8.35554 25.6905 8.91456 25.0017 8.91456C24.3129 8.91456 23.7539 8.35554 23.7539 7.66675C23.7539 6.97796 24.3129 6.41895 25.0067 6.41895Z" fill="#252525"/>
<path d="M19.2183 6.7085C11.3 7.1185 5 13.6468 5 21.6668C5 29.9518 11.715 36.6668 20 36.6668C28.285 36.6668 35 29.9518 35 21.6668C35 17.2468 33.08 13.2868 30.0383 10.5485" stroke="#252525" stroke-width="3" stroke-linecap="round" stroke-linejoin="round"/>
<path d="M13.3347 35.1135V34.9951C13.3347 31.6618 20.0014 32.0551 20.0014 28.3285C20.0014 24.9951 15.0014 24.9951 15.0014 19.9951C15.0014 15.2818 11.6681 14.9951 6.66807 14.9951H6.56641" stroke="#252525" stroke-width="3" stroke-linecap="round" stroke-linejoin="round"/>
<path d="M29.952 32.8667C29.7003 32.77 29.4503 32.6684 29.212 32.5284C26.8187 31.1284 26.0153 28.055 27.4137 25.6617C28.8137 23.2684 31.887 22.465 34.2803 23.8634C34.457 23.9667 34.6053 24.0967 34.7653 24.2167" stroke="#252525" stroke-width="3" stroke-linecap="round" stroke-linejoin="round"/>
</g>
<defs>
<clipPath id="clip0_51_1119">
<rect width="40" height="40" fill="white"/>
</clipPath>
</defs>
</svg>
