<svg width="197" height="67" viewBox="0 0 197 67" xmlns="http://www.w3.org/2000/svg" xmlns:xlink="http://www.w3.org/1999/xlink"><title>logo</title><defs><path d="M35.975 33.304c0 5.076-1.817 9.133-5.462 12.163-2.896 2.417-6.223 3.62-9.97 3.62a14.13 14.13 0 0 1-6.167-1.378c-1.101-.514-2.236-1.356-3.406-2.526V63H0V18.375h10.97v3.347c.976-1.236 2.021-2.155 3.145-2.757 1.851-1.006 3.964-1.509 6.325-1.509 3.816 0 7.222 1.269 10.198 3.806 3.554 3.03 5.337 7.044 5.337 12.042zm69.462-5.206c-1.522-.71-3.067-1.06-4.645-1.06-3.577 0-5.894 1.421-6.95 4.265-.397 1.017-.602 2.395-.602 4.123v12.677H82.27V18.375h10.97v4.922c1.147-1.74 2.385-2.997 3.714-3.774 1.783-1.028 3.906-1.542 6.359-1.542.579 0 1.283.033 2.124.099v10.018zM74.754 48.103h-10.97V33.108c0-2.647-.307-4.386-.92-5.24-.885-1.258-2.225-1.88-4.02-1.88-1.657 0-3.031.535-4.121 1.607-1 .984-1.5 2.505-1.5 4.56v15.948H42.254V0h10.97v22.115c1.26-1.4 2.419-2.395 3.475-2.964 1.737-.951 3.894-1.433 6.45-1.433 3.258 0 5.95.875 8.062 2.625 2.362 1.97 3.543 4.912 3.543 8.838v18.922zM24.597 33.272c0 1.64-.557 3.106-1.681 4.385-1.363 1.586-3.134 2.374-5.303 2.374-1.93 0-3.577-.656-4.94-1.969-1.363-1.312-2.044-2.909-2.044-4.79 0-1.903.67-3.5 2.021-4.802 1.352-1.302 3.01-1.958 4.963-1.958 2.169 0 3.952.788 5.337 2.374 1.101 1.236 1.647 2.701 1.647 4.386zm89.164 11.9c0 1.147-.397 2.13-1.201 2.927-.794.807-1.772 1.205-2.915 1.205-1.177 0-2.18-.398-2.996-1.205-.805-.796-1.212-1.78-1.212-2.927a3.94 3.94 0 0 1 1.212-2.903c.816-.784 1.819-1.182 2.996-1.182 1.143 0 2.121.398 2.915 1.182.804.796 1.2 1.768 1.2 2.903zm48.567 4.132h-15.526l-12.195-12.41v12.41h-11.135V0h11.135v29.798l11.584-10.964h15.192l-15.7 14.058 16.645 16.412zM197 18.834l-14.662 21.659h13.21v8.811h-31.745l14.732-21.659H165.74v-8.811H197z" id="a"/></defs><g fill="none" fill-rule="evenodd"><use fill="#FD5577" xlink:href="#a"/><g fill="#FFF"><path d="M20 66.353c0 .19.05.345.147.467.1.1.218.151.36.151a.414.414 0 0 0 .344-.134.597.597 0 0 0 .163-.433v-2.97c.228.39.569.711 1.023.968.53.3 1.131.45 1.802.45 1.23 0 2.195-.496 2.888-1.487.626-.88.94-1.977.94-3.29s-.314-2.404-.94-3.273c-.693-.98-1.658-1.47-2.888-1.47-.63 0-1.176.123-1.641.37-.463.257-.86.642-1.184 1.154v-.82c0-.165-.055-.3-.163-.399a.498.498 0 0 0-.344-.133.523.523 0 0 0-.36.133.547.547 0 0 0-.147.4v10.316zm3.833-10.097c.907 0 1.613.395 2.123 1.185.452.7.68 1.583.68 2.651 0 1.057-.228 1.934-.68 2.635-.51.789-1.216 1.185-2.123 1.185-.928 0-1.646-.396-2.154-1.185-.443-.701-.665-1.578-.665-2.635 0-1.068.222-1.951.665-2.651.508-.79 1.226-1.185 2.154-1.185zm12.021 5.767c-.26.579-.557 1.014-.892 1.305-.433.39-.976.584-1.625.584-.82 0-1.477-.385-1.962-1.15-.424-.648-.654-1.442-.698-2.388h6.378v-.268c0-1.301-.314-2.403-.943-3.304-.69-.98-1.616-1.47-2.775-1.47-1.155 0-2.075.49-2.757 1.47-.618.903-.926 2.006-.926 3.307 0 1.29.308 2.382.926 3.273.682.98 1.602 1.47 2.757 1.47.824 0 1.536-.217 2.143-.652.596-.414 1.051-1.008 1.364-1.792a.591.591 0 0 0 0-.467.45.45 0 0 0-.277-.25.553.553 0 0 0-.405-.018.598.598 0 0 0-.308.35zm-5.152-2.589c.066-.809.3-1.51.698-2.096.491-.72 1.133-1.082 1.937-1.082s1.456.367 1.955 1.099c.399.598.635 1.29.698 2.08h-5.288zm8.803-3.498v8.352c0 .171.05.307.147.41.1.091.219.137.36.137a.49.49 0 0 0 .344-.137.54.54 0 0 0 .163-.41v-6.497a2.34 2.34 0 0 1 .846-1.017 2.47 2.47 0 0 1 1.411-.416c.271 0 .402-.174.39-.521-.01-.337-.135-.504-.374-.504-.518 0-.983.133-1.396.404-.314.2-.605.496-.877.883v-.684a.45.45 0 0 0-.163-.367.608.608 0 0 0-.344-.1c-.141 0-.26.04-.36.117a.45.45 0 0 0-.147.35zm8.26-.603c-.876 0-1.586.2-2.129.6-.574.422-.86 1.006-.86 1.752 0 .69.24 1.243.716 1.652.432.39 1.131.712 2.093.97 1.061.267 1.788.56 2.176.885.324.253.487.612.487 1.068 0 .49-.188.877-.565 1.168-.399.322-.948.484-1.65.484-.839 0-1.449-.162-1.826-.484-.354-.302-.532-.741-.532-1.322a.447.447 0 0 0-.183-.35.512.512 0 0 0-.366-.1.474.474 0 0 0-.35.134c-.1.1-.143.228-.132.384.033.872.335 1.536.91 1.991.573.46 1.393.687 2.466.687 1.07 0 1.89-.257 2.464-.77.53-.458.795-1.06.795-1.805 0-.746-.221-1.333-.665-1.755-.465-.458-1.266-.82-2.403-1.088-.93-.244-1.569-.504-1.915-.783-.325-.265-.488-.627-.488-1.08 0-.39.183-.712.552-.965.368-.234.828-.35 1.38-.35.726 0 1.272.139 1.64.415.348.257.542.63.585 1.117.012.157.075.28.195.368.108.076.23.11.371.099a.675.675 0 0 0 .372-.168.51.51 0 0 0 .144-.399c-.056-.68-.321-1.225-.799-1.637-.563-.48-1.391-.718-2.483-.718zm9.623.034c-1.286 0-2.292.49-3.018 1.47-.637.868-.956 1.965-.956 3.29 0 1.312.319 2.404.956 3.272.726.991 1.732 1.487 3.018 1.487 1.275 0 2.276-.496 3.002-1.487.649-.868.973-1.96.973-3.273 0-1.324-.324-2.42-.973-3.29-.726-.98-1.727-1.47-3.002-1.47zm0 .923c.948 0 1.688.396 2.215 1.185.485.7.729 1.584.729 2.651 0 1.045-.244 1.923-.729 2.635-.527.79-1.267 1.185-2.215 1.185-.959 0-1.71-.396-2.247-1.185-.463-.7-.696-1.578-.696-2.635 0-1.067.233-1.951.696-2.651.537-.79 1.288-1.185 2.247-1.185zm6.462-.286v8.298c0 .177.049.316.146.416.1.1.219.15.36.15a.579.579 0 0 0 .345-.15.598.598 0 0 0 .163-.433v-5.942c.377-.715.82-1.241 1.327-1.587a2.847 2.847 0 0 1 1.65-.5c.56 0 1.009.176 1.344.532.302.314.452.71.452 1.188v6.326c0 .165.05.305.147.416.1.088.219.134.36.134.13 0 .247-.046.343-.134a.578.578 0 0 0 .165-.42V57.97c0-.723-.239-1.33-.713-1.82-.52-.544-1.217-.817-2.093-.817-.679 0-1.275.15-1.782.452-.488.291-.887.707-1.2 1.253v-1.036c0-.165-.056-.3-.163-.399a.5.5 0 0 0-.344-.134.524.524 0 0 0-.36.134.55.55 0 0 0-.147.401zM79 62.411c-.25.455-.61.812-1.087 1.068-.529.288-1.166.433-1.912.433-.66 0-1.145-.145-1.458-.433-.3-.268-.45-.675-.45-1.22 0-.566.162-.996.486-1.284.335-.313.906-.524 1.716-.635.812-.11 1.446-.24 1.912-.384.377-.123.643-.251.793-.385v2.84zm-2.22-7.078c-.91 0-1.641.205-2.196.618-.562.436-.909 1.082-1.04 1.94-.032.167 0 .302.098.4a.48.48 0 0 0 .327.17.497.497 0 0 0 .36-.1.462.462 0 0 0 .214-.334c.055-.558.244-.98.568-1.27.366-.333.918-.501 1.652-.501.757 0 1.325.145 1.702.433.358.276.535.686.535 1.23 0 .479-.163.806-.488.983-.336.188-1.081.367-2.237.532-1.308.168-2.211.542-2.71 1.12-.336.401-.502.971-.502 1.706 0 .815.244 1.444.732 1.888.498.47 1.236.704 2.209.704.715 0 1.352-.128 1.915-.388a3.86 3.86 0 0 0 1.106-.768c0 .344.097.589.29.734.24.157.666.234 1.284.234a.448.448 0 0 0 .471-.47.595.595 0 0 0-.13-.336.437.437 0 0 0-.324-.134c-.194 0-.347-.057-.455-.168-.097-.1-.147-.243-.147-.433v-5.287c0-.88-.313-1.53-.942-1.953-.551-.368-1.317-.55-2.292-.55zm6.07-2.85v11.85c0 .157.05.285.147.385.1.088.219.134.36.134.13 0 .247-.046.344-.134a.45.45 0 0 0 .164-.367V52.5a.469.469 0 0 0-.164-.384.543.543 0 0 0-.343-.117.57.57 0 0 0-.36.117.47.47 0 0 0-.148.367zm9.388.05v11.77c0 .176.05.315.147.415.1.1.219.15.36.15a.578.578 0 0 0 .344-.15.598.598 0 0 0 .163-.433v-6.261c.4-.578.821-1.01 1.261-1.301a2.85 2.85 0 0 1 1.57-.467c.56 0 1 .176 1.324.532.302.314.452.71.452 1.188v6.326c0 .165.05.305.147.416.1.088.22.134.36.134a.52.52 0 0 0 .36-.134.578.578 0 0 0 .164-.42V57.97c0-.723-.238-1.33-.712-1.82-.518-.544-1.217-.817-2.09-.817-.626 0-1.195.14-1.702.415a4.25 4.25 0 0 0-1.134.97v-4.185a.52.52 0 0 0-.163-.4.501.501 0 0 0-.344-.133.526.526 0 0 0-.36.134.55.55 0 0 0-.147.399zm15.286 9.49c-.26.579-.557 1.014-.892 1.305-.433.39-.976.584-1.625.584-.82 0-1.477-.385-1.962-1.15-.424-.648-.654-1.442-.699-2.388h6.379v-.268c0-1.301-.314-2.403-.943-3.304-.69-.98-1.616-1.47-2.775-1.47-1.155 0-2.076.49-2.758 1.47-.618.903-.925 2.006-.925 3.307 0 1.29.307 2.382.925 3.273.682.98 1.603 1.47 2.758 1.47.824 0 1.536-.217 2.143-.652.596-.414 1.05-1.008 1.363-1.792a.591.591 0 0 0 0-.467.45.45 0 0 0-.277-.25.553.553 0 0 0-.404-.018.598.598 0 0 0-.308.35zm-5.153-2.589c.067-.809.3-1.51.699-2.096.49-.72 1.133-1.082 1.937-1.082s1.455.367 1.955 1.099c.398.598.635 1.29.698 2.08h-5.289zm14.308 2.977a2.62 2.62 0 0 1-1.086 1.068c-.53.288-1.167.433-1.912.433-.66 0-1.145-.145-1.459-.433-.299-.268-.449-.675-.449-1.22 0-.566.161-.996.486-1.284.335-.313.906-.524 1.716-.635.812-.11 1.446-.24 1.912-.384.377-.123.643-.251.792-.385v2.84zm-2.22-7.078c-.909 0-1.64.205-2.195.618-.563.436-.909 1.082-1.04 1.94-.033.167 0 .302.098.4a.48.48 0 0 0 .327.17.496.496 0 0 0 .36-.1.46.46 0 0 0 .213-.334c.056-.558.245-.98.569-1.27.366-.333.917-.501 1.652-.501.756 0 1.325.145 1.701.433.358.276.535.686.535 1.23 0 .479-.163.806-.488.983-.335.188-1.08.367-2.236.532-1.309.168-2.212.542-2.711 1.12-.335.401-.502.971-.502 1.706 0 .815.244 1.444.732 1.888.5.47 1.236.704 2.21.704.715 0 1.352-.128 1.915-.388.413-.19.781-.447 1.105-.768 0 .344.097.589.291.734.239.157.666.234 1.284.234a.447.447 0 0 0 .357-.151.487.487 0 0 0 .114-.32.595.595 0 0 0-.13-.335.438.438 0 0 0-.325-.134c-.194 0-.346-.057-.454-.168-.097-.1-.147-.243-.147-.433v-5.287c0-.88-.313-1.53-.942-1.953-.552-.368-1.317-.55-2.293-.55zm6.07-2.85v11.85c0 .157.05.285.148.385.1.088.219.134.36.134.13 0 .247-.046.344-.134a.45.45 0 0 0 .163-.367V52.5c0-.168-.055-.296-.163-.384a.543.543 0 0 0-.344-.117c-.141 0-.26.04-.36.117a.47.47 0 0 0-.147.367zm4.283.807v2.333h-.876c-.246 0-.372.151-.372.453 0 .313.126.47.372.47h.876v6.688c0 .433.13.8.391 1.1.28.344.67.518 1.17.518h.762a.502.502 0 0 0 .374-.15.45.45 0 0 0 .13-.32.47.47 0 0 0-.13-.336.529.529 0 0 0-.372-.134h-.582c-.238 0-.42-.083-.551-.25a.765.765 0 0 1-.16-.5v-6.616h1.324c.28 0 .421-.157.421-.47 0-.302-.14-.453-.42-.453h-1.326V53.29a.478.478 0 0 0-.163-.387.568.568 0 0 0-.36-.117.573.573 0 0 0-.361.117.505.505 0 0 0-.147.387zm4.782-.757v11.77c0 .176.05.315.147.415.1.1.218.15.36.15a.578.578 0 0 0 .344-.15.598.598 0 0 0 .163-.433v-6.261c.4-.578.82-1.01 1.261-1.301a2.85 2.85 0 0 1 1.569-.467c.56 0 1 .176 1.325.532.302.314.452.71.452 1.188v6.326c0 .165.05.305.146.416.1.088.22.134.36.134a.52.52 0 0 0 .361-.134.578.578 0 0 0 .164-.42V57.97c0-.723-.238-1.33-.713-1.82-.518-.544-1.217-.817-2.09-.817-.626 0-1.194.14-1.701.415-.4.226-.776.548-1.134.97v-4.185a.52.52 0 0 0-.163-.4.501.501 0 0 0-.344-.133.526.526 0 0 0-.36.134.55.55 0 0 0-.147.399zm15.04 3.403v8.352c0 .171.049.307.146.41.1.091.218.137.36.137a.49.49 0 0 0 .344-.137.54.54 0 0 0 .163-.41v-6.497c.194-.433.477-.772.846-1.017a2.47 2.47 0 0 1 1.41-.416c.272 0 .403-.174.391-.521-.01-.337-.135-.504-.374-.504-.518 0-.983.133-1.397.404-.313.2-.604.496-.876.883v-.684a.45.45 0 0 0-.163-.367.608.608 0 0 0-.344-.1.57.57 0 0 0-.36.117.45.45 0 0 0-.147.35zm11.322 6.087c-.26.579-.557 1.014-.893 1.305-.432.39-.976.584-1.624.584-.82 0-1.477-.385-1.962-1.15-.425-.648-.655-1.442-.7-2.388h6.379v-.268c0-1.301-.313-2.403-.943-3.304-.69-.98-1.616-1.47-2.774-1.47-1.156 0-2.076.49-2.758 1.47-.618.903-.926 2.006-.926 3.307 0 1.29.308 2.382.926 3.273.682.98 1.602 1.47 2.758 1.47.823 0 1.535-.217 2.142-.652.596-.414 1.051-1.008 1.364-1.792a.591.591 0 0 0 0-.467.45.45 0 0 0-.277-.25.553.553 0 0 0-.405-.018.599.599 0 0 0-.307.35zm-5.153-2.589c.066-.809.3-1.51.698-2.096.491-.72 1.134-1.082 1.938-1.082.803 0 1.455.367 1.954 1.099.399.598.635 1.29.698 2.08h-5.288zm12.41-4.101c.953 0 1.749.233 2.389.7.529.399.881.895 1.053 1.484a.439.439 0 0 1-.08.385.52.52 0 0 1-.325.216.614.614 0 0 1-.407-.034.445.445 0 0 1-.258-.33c-.164-.521-.44-.906-.829-1.148-.39-.234-.926-.35-1.608-.35-.92 0-1.63.395-2.128 1.185-.443.689-.665 1.572-.665 2.651 0 1.1.222 1.997.665 2.686.488.755 1.197 1.134 2.128 1.134.768 0 1.353-.123 1.755-.368.4-.241.699-.655.893-1.23a.486.486 0 0 1 .29-.333.625.625 0 0 1 .408-.034.47.47 0 0 1 .325.216c.074.11.08.25.016.419-.324.7-.72 1.23-1.186 1.586-.618.456-1.428.684-2.437.684-1.308 0-2.306-.479-2.988-1.436-.601-.834-.9-1.937-.9-3.307 0-1.324.31-2.426.934-3.307.704-.98 1.688-1.47 2.954-1.47zm9.52.034c-1.286 0-2.292.49-3.018 1.47-.637.868-.956 1.965-.956 3.29 0 1.312.319 2.404.956 3.272.726.991 1.732 1.487 3.018 1.487 1.275 0 2.276-.496 3.002-1.487.65-.868.973-1.96.973-3.273 0-1.324-.324-2.42-.973-3.29-.726-.98-1.727-1.47-3.002-1.47zm0 .923c.949 0 1.689.396 2.215 1.185.485.7.73 1.584.73 2.651 0 1.045-.245 1.923-.73 2.635-.526.79-1.266 1.185-2.215 1.185-.959 0-1.71-.396-2.247-1.185-.463-.7-.696-1.578-.696-2.635 0-1.067.233-1.951.696-2.651.537-.79 1.288-1.185 2.247-1.185zm6.461-.354v8.352c0 .171.05.307.147.41.1.091.22.137.361.137.13 0 .246-.046.343-.137a.54.54 0 0 0 .164-.41v-6.497c.194-.433.477-.772.845-1.017a2.47 2.47 0 0 1 1.411-.416c.272 0 .402-.174.391-.521-.011-.337-.136-.504-.374-.504-.518 0-.984.133-1.397.404-.313.2-.604.496-.876.883v-.684a.45.45 0 0 0-.164-.367.607.607 0 0 0-.343-.1.57.57 0 0 0-.36.117.45.45 0 0 0-.148.35zM192 52.584a.54.54 0 0 0-.163-.416.501.501 0 0 0-.345-.134c-.14 0-.26.04-.36.117a.549.549 0 0 0-.146.399v4.335c-.336-.522-.735-.906-1.198-1.15-.454-.246-.987-.368-1.602-.368-1.242 0-2.206.49-2.897 1.47-.615.868-.922 1.965-.922 3.29 0 1.312.307 2.404.922 3.272.69.991 1.655 1.487 2.897 1.487a3.44 3.44 0 0 0 1.763-.456c.455-.267.798-.595 1.037-.982v.715c0 .156.05.284.147.384.1.091.213.14.343.15a.499.499 0 0 0 .344-.116.593.593 0 0 0 .18-.416V52.584zm-3.808 3.706c.903 0 1.61.396 2.114 1.185.452.7.68 1.584.68 2.651 0 1.057-.228 1.934-.68 2.635-.504.79-1.21 1.185-2.114 1.185-.915 0-1.628-.396-2.132-1.185-.44-.7-.662-1.578-.662-2.635 0-1.067.221-1.951.662-2.651.504-.79 1.217-1.185 2.132-1.185z"/><path d="M20 66.353c0 .19.05.345.147.467.1.1.218.151.36.151a.414.414 0 0 0 .344-.134.597.597 0 0 0 .163-.433v-2.97c.228.39.569.711 1.023.968.53.3 1.131.45 1.802.45 1.23 0 2.195-.496 2.888-1.487.626-.88.94-1.977.94-3.29s-.314-2.404-.94-3.273c-.693-.98-1.658-1.47-2.888-1.47-.63 0-1.176.123-1.641.37-.463.257-.86.642-1.184 1.154v-.82c0-.165-.055-.3-.163-.399a.498.498 0 0 0-.344-.133.523.523 0 0 0-.36.133.547.547 0 0 0-.147.4v10.316zm3.833-10.097c.907 0 1.613.395 2.123 1.185.452.7.68 1.583.68 2.651 0 1.057-.228 1.934-.68 2.635-.51.789-1.216 1.185-2.123 1.185-.928 0-1.646-.396-2.154-1.185-.443-.701-.665-1.578-.665-2.635 0-1.068.222-1.951.665-2.651.508-.79 1.226-1.185 2.154-1.185zm12.021 5.767c-.26.579-.557 1.014-.892 1.305-.433.39-.976.584-1.625.584-.82 0-1.477-.385-1.962-1.15-.424-.648-.654-1.442-.698-2.388h6.378v-.268c0-1.301-.314-2.403-.943-3.304-.69-.98-1.616-1.47-2.775-1.47-1.155 0-2.075.49-2.757 1.47-.618.903-.926 2.006-.926 3.307 0 1.29.308 2.382.926 3.273.682.98 1.602 1.47 2.757 1.47.824 0 1.536-.217 2.143-.652.596-.414 1.051-1.008 1.364-1.792a.591.591 0 0 0 0-.467.45.45 0 0 0-.277-.25.553.553 0 0 0-.405-.018.598.598 0 0 0-.308.35zm-5.152-2.589c.066-.809.3-1.51.698-2.096.491-.72 1.133-1.082 1.937-1.082s1.456.367 1.955 1.099c.399.598.635 1.29.698 2.08h-5.288zm8.803-3.498v8.352c0 .171.05.307.147.41.1.091.219.137.36.137a.49.49 0 0 0 .344-.137.54.54 0 0 0 .163-.41v-6.497a2.34 2.34 0 0 1 .846-1.017 2.47 2.47 0 0 1 1.411-.416c.271 0 .402-.174.39-.521-.01-.337-.135-.504-.374-.504-.518 0-.983.133-1.396.404-.314.2-.605.496-.877.883v-.684a.45.45 0 0 0-.163-.367.608.608 0 0 0-.344-.1c-.141 0-.26.04-.36.117a.45.45 0 0 0-.147.35zm8.26-.603c-.876 0-1.586.2-2.129.6-.574.422-.86 1.006-.86 1.752 0 .69.24 1.243.716 1.652.432.39 1.131.712 2.093.97 1.061.267 1.788.56 2.176.885.324.253.487.612.487 1.068 0 .49-.188.877-.565 1.168-.399.322-.948.484-1.65.484-.839 0-1.449-.162-1.826-.484-.354-.302-.532-.741-.532-1.322a.447.447 0 0 0-.183-.35.512.512 0 0 0-.366-.1.474.474 0 0 0-.35.134c-.1.1-.143.228-.132.384.033.872.335 1.536.91 1.991.573.46 1.393.687 2.466.687 1.07 0 1.89-.257 2.464-.77.53-.458.795-1.06.795-1.805 0-.746-.221-1.333-.665-1.755-.465-.458-1.266-.82-2.403-1.088-.93-.244-1.569-.504-1.915-.783-.325-.265-.488-.627-.488-1.08 0-.39.183-.712.552-.965.368-.234.828-.35 1.38-.35.726 0 1.272.139 1.64.415.348.257.542.63.585 1.117.012.157.075.28.195.368.108.076.23.11.371.099a.675.675 0 0 0 .372-.168.51.51 0 0 0 .144-.399c-.056-.68-.321-1.225-.799-1.637-.563-.48-1.391-.718-2.483-.718zm9.623.034c-1.286 0-2.292.49-3.018 1.47-.637.868-.956 1.965-.956 3.29 0 1.312.319 2.404.956 3.272.726.991 1.732 1.487 3.018 1.487 1.275 0 2.276-.496 3.002-1.487.649-.868.973-1.96.973-3.273 0-1.324-.324-2.42-.973-3.29-.726-.98-1.727-1.47-3.002-1.47zm0 .923c.948 0 1.688.396 2.215 1.185.485.7.729 1.584.729 2.651 0 1.045-.244 1.923-.729 2.635-.527.79-1.267 1.185-2.215 1.185-.959 0-1.71-.396-2.247-1.185-.463-.7-.696-1.578-.696-2.635 0-1.067.233-1.951.696-2.651.537-.79 1.288-1.185 2.247-1.185zm6.462-.286v8.298c0 .177.049.316.146.416.1.1.219.15.36.15a.579.579 0 0 0 .345-.15.598.598 0 0 0 .163-.433v-5.942c.377-.715.82-1.241 1.327-1.587a2.847 2.847 0 0 1 1.65-.5c.56 0 1.009.176 1.344.532.302.314.452.71.452 1.188v6.326c0 .165.05.305.147.416.1.088.219.134.36.134.13 0 .247-.046.343-.134a.578.578 0 0 0 .165-.42V57.97c0-.723-.239-1.33-.713-1.82-.52-.544-1.217-.817-2.093-.817-.679 0-1.275.15-1.782.452-.488.291-.887.707-1.2 1.253v-1.036c0-.165-.056-.3-.163-.399a.5.5 0 0 0-.344-.134.524.524 0 0 0-.36.134.55.55 0 0 0-.147.401zM79 62.411c-.25.455-.61.812-1.087 1.068-.529.288-1.166.433-1.912.433-.66 0-1.145-.145-1.458-.433-.3-.268-.45-.675-.45-1.22 0-.566.162-.996.486-1.284.335-.313.906-.524 1.716-.635.812-.11 1.446-.24 1.912-.384.377-.123.643-.251.793-.385v2.84zm-2.22-7.078c-.91 0-1.641.205-2.196.618-.562.436-.909 1.082-1.04 1.94-.032.167 0 .302.098.4a.48.48 0 0 0 .327.17.497.497 0 0 0 .36-.1.462.462 0 0 0 .214-.334c.055-.558.244-.98.568-1.27.366-.333.918-.501 1.652-.501.757 0 1.325.145 1.702.433.358.276.535.686.535 1.23 0 .479-.163.806-.488.983-.336.188-1.081.367-2.237.532-1.308.168-2.211.542-2.71 1.12-.336.401-.502.971-.502 1.706 0 .815.244 1.444.732 1.888.498.47 1.236.704 2.209.704.715 0 1.352-.128 1.915-.388a3.86 3.86 0 0 0 1.106-.768c0 .344.097.589.29.734.24.157.666.234 1.284.234a.448.448 0 0 0 .471-.47.595.595 0 0 0-.13-.336.437.437 0 0 0-.324-.134c-.194 0-.347-.057-.455-.168-.097-.1-.147-.243-.147-.433v-5.287c0-.88-.313-1.53-.942-1.953-.551-.368-1.317-.55-2.292-.55zm6.07-2.85v11.85c0 .157.05.285.147.385.1.088.219.134.36.134.13 0 .247-.046.344-.134a.45.45 0 0 0 .164-.367V52.5a.469.469 0 0 0-.164-.384.543.543 0 0 0-.343-.117.57.57 0 0 0-.36.117.47.47 0 0 0-.148.367zm9.388.05v11.77c0 .176.05.315.147.415.1.1.219.15.36.15a.578.578 0 0 0 .344-.15.598.598 0 0 0 .163-.433v-6.261c.4-.578.821-1.01 1.261-1.301a2.85 2.85 0 0 1 1.57-.467c.56 0 1 .176 1.324.532.302.314.452.71.452 1.188v6.326c0 .165.05.305.147.416.1.088.22.134.36.134a.52.52 0 0 0 .36-.134.578.578 0 0 0 .164-.42V57.97c0-.723-.238-1.33-.712-1.82-.518-.544-1.217-.817-2.09-.817-.626 0-1.195.14-1.702.415a4.25 4.25 0 0 0-1.134.97v-4.185a.52.52 0 0 0-.163-.4.501.501 0 0 0-.344-.133.526.526 0 0 0-.36.134.55.55 0 0 0-.147.399zm15.286 9.49c-.26.579-.557 1.014-.892 1.305-.433.39-.976.584-1.625.584-.82 0-1.477-.385-1.962-1.15-.424-.648-.654-1.442-.699-2.388h6.379v-.268c0-1.301-.314-2.403-.943-3.304-.69-.98-1.616-1.47-2.775-1.47-1.155 0-2.076.49-2.758 1.47-.618.903-.925 2.006-.925 3.307 0 1.29.307 2.382.925 3.273.682.98 1.603 1.47 2.758 1.47.824 0 1.536-.217 2.143-.652.596-.414 1.05-1.008 1.363-1.792a.591.591 0 0 0 0-.467.45.45 0 0 0-.277-.25.553.553 0 0 0-.404-.018.598.598 0 0 0-.308.35zm-5.153-2.589c.067-.809.3-1.51.699-2.096.49-.72 1.133-1.082 1.937-1.082s1.455.367 1.955 1.099c.398.598.635 1.29.698 2.08h-5.289zm14.308 2.977a2.62 2.62 0 0 1-1.086 1.068c-.53.288-1.167.433-1.912.433-.66 0-1.145-.145-1.459-.433-.299-.268-.449-.675-.449-1.22 0-.566.161-.996.486-1.284.335-.313.906-.524 1.716-.635.812-.11 1.446-.24 1.912-.384.377-.123.643-.251.792-.385v2.84zm-2.22-7.078c-.909 0-1.64.205-2.195.618-.563.436-.909 1.082-1.04 1.94-.033.167 0 .302.098.4a.48.48 0 0 0 .327.17.496.496 0 0 0 .36-.1.46.46 0 0 0 .213-.334c.056-.558.245-.98.569-1.27.366-.333.917-.501 1.652-.501.756 0 1.325.145 1.701.433.358.276.535.686.535 1.23 0 .479-.163.806-.488.983-.335.188-1.08.367-2.236.532-1.309.168-2.212.542-2.711 1.12-.335.401-.502.971-.502 1.706 0 .815.244 1.444.732 1.888.5.47 1.236.704 2.21.704.715 0 1.352-.128 1.915-.388.413-.19.781-.447 1.105-.768 0 .344.097.589.291.734.239.157.666.234 1.284.234a.447.447 0 0 0 .357-.151.487.487 0 0 0 .114-.32.595.595 0 0 0-.13-.335.438.438 0 0 0-.325-.134c-.194 0-.346-.057-.454-.168-.097-.1-.147-.243-.147-.433v-5.287c0-.88-.313-1.53-.942-1.953-.552-.368-1.317-.55-2.293-.55zm6.07-2.85v11.85c0 .157.05.285.148.385.1.088.219.134.36.134.13 0 .247-.046.344-.134a.45.45 0 0 0 .163-.367V52.5c0-.168-.055-.296-.163-.384a.543.543 0 0 0-.344-.117c-.141 0-.26.04-.36.117a.47.47 0 0 0-.147.367zm4.283.807v2.333h-.876c-.246 0-.372.151-.372.453 0 .313.126.47.372.47h.876v6.688c0 .433.13.8.391 1.1.28.344.67.518 1.17.518h.762a.502.502 0 0 0 .374-.15.45.45 0 0 0 .13-.32.47.47 0 0 0-.13-.336.529.529 0 0 0-.372-.134h-.582c-.238 0-.42-.083-.551-.25a.765.765 0 0 1-.16-.5v-6.616h1.324c.28 0 .421-.157.421-.47 0-.302-.14-.453-.42-.453h-1.326V53.29a.478.478 0 0 0-.163-.387.568.568 0 0 0-.36-.117.573.573 0 0 0-.361.117.505.505 0 0 0-.147.387zm4.782-.757v11.77c0 .176.05.315.147.415.1.1.218.15.36.15a.578.578 0 0 0 .344-.15.598.598 0 0 0 .163-.433v-6.261c.4-.578.82-1.01 1.261-1.301a2.85 2.85 0 0 1 1.569-.467c.56 0 1 .176 1.325.532.302.314.452.71.452 1.188v6.326c0 .165.05.305.146.416.1.088.22.134.36.134a.52.52 0 0 0 .361-.134.578.578 0 0 0 .164-.42V57.97c0-.723-.238-1.33-.713-1.82-.518-.544-1.217-.817-2.09-.817-.626 0-1.194.14-1.701.415-.4.226-.776.548-1.134.97v-4.185a.52.52 0 0 0-.163-.4.501.501 0 0 0-.344-.133.526.526 0 0 0-.36.134.55.55 0 0 0-.147.399zm15.04 3.403v8.352c0 .171.049.307.146.41.1.091.218.137.36.137a.49.49 0 0 0 .344-.137.54.54 0 0 0 .163-.41v-6.497c.194-.433.477-.772.846-1.017a2.47 2.47 0 0 1 1.41-.416c.272 0 .403-.174.391-.521-.01-.337-.135-.504-.374-.504-.518 0-.983.133-1.397.404-.313.2-.604.496-.876.883v-.684a.45.45 0 0 0-.163-.367.608.608 0 0 0-.344-.1.57.57 0 0 0-.36.117.45.45 0 0 0-.147.35zm11.322 6.087c-.26.579-.557 1.014-.893 1.305-.432.39-.976.584-1.624.584-.82 0-1.477-.385-1.962-1.15-.425-.648-.655-1.442-.7-2.388h6.379v-.268c0-1.301-.313-2.403-.943-3.304-.69-.98-1.616-1.47-2.774-1.47-1.156 0-2.076.49-2.758 1.47-.618.903-.926 2.006-.926 3.307 0 1.29.308 2.382.926 3.273.682.98 1.602 1.47 2.758 1.47.823 0 1.535-.217 2.142-.652.596-.414 1.051-1.008 1.364-1.792a.591.591 0 0 0 0-.467.45.45 0 0 0-.277-.25.553.553 0 0 0-.405-.018.599.599 0 0 0-.307.35zm-5.153-2.589c.066-.809.3-1.51.698-2.096.491-.72 1.134-1.082 1.938-1.082.803 0 1.455.367 1.954 1.099.399.598.635 1.29.698 2.08h-5.288zm12.41-4.101c.953 0 1.749.233 2.389.7.529.399.881.895 1.053 1.484a.439.439 0 0 1-.08.385.52.52 0 0 1-.325.216.614.614 0 0 1-.407-.034.445.445 0 0 1-.258-.33c-.164-.521-.44-.906-.829-1.148-.39-.234-.926-.35-1.608-.35-.92 0-1.63.395-2.128 1.185-.443.689-.665 1.572-.665 2.651 0 1.1.222 1.997.665 2.686.488.755 1.197 1.134 2.128 1.134.768 0 1.353-.123 1.755-.368.4-.241.699-.655.893-1.23a.486.486 0 0 1 .29-.333.625.625 0 0 1 .408-.034.47.47 0 0 1 .325.216c.074.11.08.25.016.419-.324.7-.72 1.23-1.186 1.586-.618.456-1.428.684-2.437.684-1.308 0-2.306-.479-2.988-1.436-.601-.834-.9-1.937-.9-3.307 0-1.324.31-2.426.934-3.307.704-.98 1.688-1.47 2.954-1.47zm9.52.034c-1.286 0-2.292.49-3.018 1.47-.637.868-.956 1.965-.956 3.29 0 1.312.319 2.404.956 3.272.726.991 1.732 1.487 3.018 1.487 1.275 0 2.276-.496 3.002-1.487.65-.868.973-1.96.973-3.273 0-1.324-.324-2.42-.973-3.29-.726-.98-1.727-1.47-3.002-1.47zm0 .923c.949 0 1.689.396 2.215 1.185.485.7.73 1.584.73 2.651 0 1.045-.245 1.923-.73 2.635-.526.79-1.266 1.185-2.215 1.185-.959 0-1.71-.396-2.247-1.185-.463-.7-.696-1.578-.696-2.635 0-1.067.233-1.951.696-2.651.537-.79 1.288-1.185 2.247-1.185zm6.461-.354v8.352c0 .171.05.307.147.41.1.091.22.137.361.137.13 0 .246-.046.343-.137a.54.54 0 0 0 .164-.41v-6.497c.194-.433.477-.772.845-1.017a2.47 2.47 0 0 1 1.411-.416c.272 0 .402-.174.391-.521-.011-.337-.136-.504-.374-.504-.518 0-.984.133-1.397.404-.313.2-.604.496-.876.883v-.684a.45.45 0 0 0-.164-.367.607.607 0 0 0-.343-.1.57.57 0 0 0-.36.117.45.45 0 0 0-.148.35zM192 52.584a.54.54 0 0 0-.163-.416.501.501 0 0 0-.345-.134c-.14 0-.26.04-.36.117a.549.549 0 0 0-.146.399v4.335c-.336-.522-.735-.906-1.198-1.15-.454-.246-.987-.368-1.602-.368-1.242 0-2.206.49-2.897 1.47-.615.868-.922 1.965-.922 3.29 0 1.312.307 2.404.922 3.272.69.991 1.655 1.487 2.897 1.487a3.44 3.44 0 0 0 1.763-.456c.455-.267.798-.595 1.037-.982v.715c0 .156.05.284.147.384.1.091.213.14.343.15a.499.499 0 0 0 .344-.116.593.593 0 0 0 .18-.416V52.584zm-3.808 3.706c.903 0 1.61.396 2.114 1.185.452.7.68 1.584.68 2.651 0 1.057-.228 1.934-.68 2.635-.504.79-1.21 1.185-2.114 1.185-.915 0-1.628-.396-2.132-1.185-.44-.7-.662-1.578-.662-2.635 0-1.067.221-1.951.662-2.651.504-.79 1.217-1.185 2.132-1.185z"/></g></g></svg>