<?xml version="1.0" encoding="UTF-8"?>
<svg width="118px" height="115px" viewBox="0 0 118 115" version="1.1" xmlns="http://www.w3.org/2000/svg" xmlns:xlink="http://www.w3.org/1999/xlink">
    <title>Starknet</title>
    <defs>
        <filter x="-12.0%" y="-12.4%" width="124.0%" height="124.7%" filterUnits="objectBoundingBox" id="filter-1">
            <feOffset dx="0" dy="2" in="SourceAlpha" result="shadowOffsetOuter1"></feOffset>
            <feGaussianBlur stdDeviation="2" in="shadowOffsetOuter1" result="shadowBlurOuter1"></feGaussianBlur>
            <feColorMatrix values="0 0 0 0 0   0 0 0 0 0   0 0 0 0 0  0 0 0 0.5 0" type="matrix" in="shadowBlurOuter1" result="shadowMatrixOuter1"></feColorMatrix>
            <feMerge>
                <feMergeNode in="shadowMatrixOuter1"></feMergeNode>
                <feMergeNode in="SourceGraphic"></feMergeNode>
            </feMerge>
        </filter>
        <linearGradient x1="99.4650601%" y1="36.543508%" x2="-63.9592466%" y2="81.8168785%" id="linearGradient-2">
            <stop stop-color="#EC796B" offset="0%"></stop>
            <stop stop-color="#D672EF" offset="100%"></stop>
        </linearGradient>
    </defs>
    <g id="Page-1" stroke="none" stroke-width="1" fill="none" fill-rule="evenodd">
        <g id="Starknet" filter="url(#filter-1)" transform="translate(9.000000, 9.000000)">
            <path d="M0,48.5000145 C0,75.2860715 22.3851402,97 49.9992345,97 C77.6133289,97 100,75.2860715 100,48.5000145 C100,21.7139091 77.6133289,0 49.9992345,0 C22.3851402,0 0,21.7139091 0,48.5000145 Z" id="Path" fill="#0C0C4F"></path>
            <path d="M29.4488644,36.6383335 L30.5864118,33.1236877 C30.8175157,32.4089147 31.3817964,31.852673 32.0990711,31.6333101 L35.6308368,30.5470949 C36.1197725,30.3977806 36.1236895,29.7081238 35.6386708,29.5509751 L32.123034,28.4133756 C31.4094459,28.1820306 30.8532297,27.6179545 30.6327248,26.9004165 L29.5479418,23.3684889 C29.3986344,22.8809133 28.7090092,22.8756135 28.5516374,23.362037 L27.4140899,26.8766829 C27.182986,27.5900733 26.6187053,28.146315 25.9012924,28.3670605 L22.3696189,29.4518932 C21.8807753,29.6023595 21.8754989,30.2908642 22.3616927,30.4480129 L25.8774908,31.5856125 C26.5909636,31.8169574 27.147272,32.3824161 27.367777,33.0999541 L28.4525599,36.6302687 C28.6018673,37.1192269 29.2914925,37.1245266 29.4488644,36.6383335 Z" id="Path" fill="#FAFAFA"></path>
            <path d="M89,34.4336773 C87.3922306,32.6714188 84.8830011,31.6790572 82.443741,31.2722862 C79.984635,30.8814768 77.4067083,30.9176398 74.9791521,31.3403724 C70.0675554,32.1549119 65.6055438,34.148364 61.7139736,36.6074455 C59.6927488,37.8145402 57.9694663,39.2109294 56.1838475,40.6332561 C55.3236057,41.352525 54.5391852,42.118681 53.7221972,42.873614 L51.4900464,45.0506243 C49.0647802,47.5356433 46.674117,49.798946 44.3610562,51.6751803 C42.0388358,53.5426855 39.8674948,54.9607724 37.7279581,55.9513882 C35.5894391,56.946992 33.3013128,57.5323332 30.3190903,57.6261075 C27.3630744,57.7283614 23.8654954,57.2053701 20.124423,56.3421976 C16.3632248,55.4827661 12.4136182,54.2577146 8,53.2037513 C9.54001354,57.3916717 11.8591044,61.0925145 14.8365182,64.4753726 C17.8488658,67.7996217 21.6103693,70.8295792 26.4425317,72.8222831 C31.2047755,74.8591308 37.1895754,75.5901214 42.7856,74.4870264 C48.3963817,73.4285739 53.3201912,70.8834495 57.3000501,67.9402832 C61.2900863,64.9669395 64.5183467,61.5798416 67.2397743,58.058816 C67.9911184,57.0859076 68.3885445,56.541468 68.9322703,55.7810482 L70.4347039,53.5992993 C71.479156,52.2495479 72.429722,50.7129961 73.4632335,49.375964 C75.4898014,46.5754543 77.4876183,43.7784362 79.8093299,41.2013887 C80.9779459,39.8942847 82.2096616,38.6440438 83.6642616,37.4426852 C84.3899078,36.856097 85.1738194,36.2822282 86.0419487,35.7652226 C86.9233085,35.2075647 87.8540286,34.7711152 89,34.4336773 Z" id="Path" fill="url(#linearGradient-2)"></path>
            <path d="M89,35.7281559 C87.2726461,31.4639315 84.0619406,27.8745649 79.7520793,25.2259165 C75.4684247,22.606468 69.5187348,21.2696224 63.6232395,22.4092134 C60.7107309,22.9603762 57.8890554,24.0213291 55.4126471,25.4342735 C52.9476883,26.8417414 50.7386904,28.5357313 48.8266172,30.3534409 C47.87198,31.265034 47.005377,32.2162074 46.1446261,33.1728574 L43.9132379,35.9559297 L40.4671808,40.435979 C36.0738651,46.2002743 31.3429151,52.9555724 23.5792619,54.9572436 C15.9574812,56.9223216 12.65177,55.1820302 8,54.4631113 C8.85054816,56.6116531 9.90416028,58.6979616 11.3325031,60.5335944 C12.7342321,62.4063182 14.3898865,64.1652797 16.4483357,65.6728186 C17.48859,66.3969651 18.5868554,67.1116521 19.8066385,67.7178042 C21.0208495,68.3035438 22.3303206,68.8188354 23.7279787,69.2069221 C26.508156,69.9524768 29.6379514,70.2136077 32.6685174,69.8125764 C35.7006101,69.4167727 38.5986159,68.4768013 41.131763,67.2281528 C43.6834838,65.991453 45.9064756,64.4854076 47.891317,62.8957208 C51.8370829,59.68996 54.906323,56.1476418 57.4987533,52.5669878 C58.8027287,50.7769097 59.9863567,48.9527278 61.0811871,47.128297 L62.369642,44.9563555 C62.7635062,44.3213271 63.1619502,43.6825648 63.5667551,43.0876146 C65.199205,40.6971099 66.7960342,38.7803248 68.7355863,37.3417403 C70.6484228,35.8658159 73.3115858,34.7754888 76.8706117,34.5220749 C80.4148804,34.2659227 84.5064372,34.7393935 89,35.7281559 Z" id="Path" fill="#FAFAFA"></path>
            <path d="M71,69.5 C71,72.5368883 73.4637605,75 76.5014487,75 C79.5391369,75 82,72.5368883 82,69.5 C82,66.4631117 79.5391369,64 76.5014487,64 C73.4637605,64 71,66.4631117 71,69.5 Z" id="Path" fill="#EC796B"></path>
        </g>
    </g>
</svg>