<svg width="23" height="20" viewBox="0 0 23 20" fill="none" xmlns="http://www.w3.org/2000/svg"><path d="M.449 8.978C2.787 7.69 5.397 6.616 7.835 5.535c4.195-1.77 8.407-3.508 12.661-5.127.828-.276 2.315-.545 2.461.681-.08 1.736-.408 3.463-.634 5.189-.571 3.796-1.232 7.579-1.877 11.362-.222 1.26-1.8 1.913-2.811 1.106-2.428-1.64-4.874-3.263-7.27-4.941-.786-.798-.058-1.943.643-2.513 2-1.97 4.12-3.645 6.015-5.717.512-1.234-.999-.194-1.497.125-2.737 1.886-5.408 3.887-8.294 5.545-1.474.812-3.192.118-4.665-.334C1.245 10.364-.691 9.812.449 8.978z" fill="#fff"/></svg>