<svg width="40" height="40" viewBox="0 0 40 40" fill="none" xmlns="http://www.w3.org/2000/svg"><path d="M20 0c11.046 0 20 8.954 20 20s-8.954 20-20 20S0 31.046 0 20 8.954 0 20 0z" fill="#7F4DA0"/><path d="M25.328 17.465c-.097-.79-.34-1.41-.771-1.96-.56-.708-1.276-1.132-2.336-1.383-.69-.168-.97-.148-1.22.08-.232.214-.277.642-.1.92.126.201.27.273.671.352.534.098.904.226 1.24.418.712.412 1.044 1.056 1.08 2.099.016.49.059.64.23.813a.735.735 0 0 0 1.12-.124c.088-.143.101-.205.11-.538a5.293 5.293 0 0 0-.024-.677z" fill="#fff"/><path d="M28.12 18.356c-.14-2.42-1.087-4.369-2.782-5.74-.955-.77-2.11-1.299-3.375-1.556-.463-.093-1.316-.167-1.463-.124a.898.898 0 0 0-.42.324c-.092.147-.113.474-.035.664.127.316.363.428 1.024.486 1.018.089 2.069.447 2.862.976a6.005 6.005 0 0 1 2.093 2.398c.402.833.65 2.033.643 3.108-.002.389.058.608.214.769.236.246.58.3.884.136.336-.177.415-.487.355-1.44zm3.09 9.324a2.666 2.666 0 0 0-.237-.474c-.497-.751-3.17-2.843-4.503-3.526-.762-.392-1.327-.522-1.745-.4-.45.127-.687.336-1.44 1.273-.305.376-.617.728-.7.783-.205.142-.607.257-.892.257-.659-.004-1.855-.431-2.774-.992-.715-.435-1.63-1.214-2.333-1.985-.83-.905-1.394-1.704-1.84-2.605-.576-1.158-.722-1.866-.481-2.384.059-.13.138-.269.173-.312.036-.04.407-.344.817-.676.806-.64.936-.787 1.086-1.226.19-.557.138-1.126-.154-1.7-.225-.434-.813-1.383-1.24-1.996-.564-.806-1.97-2.53-2.25-2.763-.505-.411-1.152-.482-1.866-.206-.754.293-2.167 1.431-2.771 2.226-.545.72-.754 1.23-.786 1.901-.027.554.02.783.312 1.49 2.285 5.551 5.696 9.983 10.381 13.501 2.448 1.838 4.986 3.238 7.618 4.194 1.536.558 2.203.585 2.988.127.332-.198 1.153-1.04 1.61-1.652.759-1.02 1.039-1.49 1.118-1.866.055-.257.012-.704-.09-.989z" fill="#fff"/><path d="M30.963 18.913a11.028 11.028 0 0 0-.762-3.746c-.475-1.232-.955-2.036-1.862-3.123-.858-1.02-1.524-1.602-2.581-2.25-1.474-.903-3.269-1.5-5.28-1.751-.685-.088-.84-.082-1.05.059-.408.265-.403.929.006 1.19.136.084.256.114.804.186.842.113 1.384.22 2.026.396 2.52.688 4.457 2.096 5.752 4.185 1.084 1.742 1.533 3.484 1.47 5.708-.023.752-.007.885.108 1.065.22.337.801.404 1.099.124.185-.17.22-.298.257-.941.017-.336.021-.832.013-1.102z" fill="#fff"/></svg>