<svg width="40" height="40" viewBox="0 0 40 40" fill="none" xmlns="http://www.w3.org/2000/svg"><path d="M0 20C0 8.954 8.954 0 20 0s20 8.954 20 20-8.954 20-20 20S0 31.046 0 20z" fill="#4A76A8"/><path d="M21.046 26.564s.385-.043.582-.25c.18-.19.175-.55.175-.55s-.024-1.68.77-1.927c.782-.244 1.787 1.623 2.853 2.341.806.543 1.417.424 1.417.424l2.85-.038s1.49-.09.784-1.24c-.059-.095-.413-.852-2.119-2.407-1.787-1.627-1.547-1.364.604-4.18 1.311-1.714 1.835-2.76 1.671-3.208-.155-.428-1.12-.315-1.12-.315l-3.207.02s-.238-.032-.414.071c-.172.102-.284.338-.284.338s-.507 1.327-1.184 2.455c-1.429 2.38-2 2.507-2.233 2.36-.544-.346-.408-1.386-.408-2.124 0-2.308.357-3.27-.694-3.518-.349-.083-.605-.138-1.497-.147-1.145-.011-2.113.004-2.662.268-.365.175-.647.566-.475.589.212.027.692.127.947.467.328.439.317 1.424.317 1.424s.188 2.716-.442 3.053c-.432.232-1.024-.24-2.298-2.4a19.907 19.907 0 0 1-1.145-2.33s-.095-.228-.265-.35c-.206-.15-.493-.195-.493-.195l-3.047.02s-.458.011-.626.207c-.15.173-.012.533-.012.533s2.386 5.48 5.089 8.243c2.478 2.531 5.291 2.366 5.291 2.366h1.275z" fill="#fff"/></svg>