<svg width="22" height="13" viewBox="0 0 22 13" fill="none" xmlns="http://www.w3.org/2000/svg"><path d="M12.046 12.563s.385-.042.582-.25c.18-.19.174-.55.174-.55s-.024-1.678.77-1.926c.783-.244 1.788 1.623 2.854 2.341.806.543 1.417.424 1.417.424l2.85-.039s1.49-.09.783-1.24c-.058-.094-.412-.851-2.118-2.406-1.787-1.627-1.547-1.364.604-4.18 1.31-1.714 1.835-2.76 1.67-3.208-.155-.429-1.119-.315-1.119-.315l-3.207.02s-.238-.032-.415.071c-.172.102-.283.338-.283.338S16.1 2.97 15.423 4.098c-1.428 2.38-1.999 2.506-2.232 2.359-.544-.345-.409-1.385-.409-2.123 0-2.308.357-3.27-.693-3.518-.349-.083-.606-.138-1.498-.147C9.447.658 8.478.673 7.93.937c-.366.175-.647.566-.475.588.212.028.692.127.946.467.329.44.317 1.425.317 1.425s.19 2.716-.44 3.053c-.433.232-1.026-.24-2.3-2.4-.652-1.107-1.144-2.33-1.144-2.33s-.095-.228-.265-.35c-.206-.15-.493-.195-.493-.195l-3.048.02s-.458.011-.626.207c-.149.173-.011.533-.011.533s2.386 5.48 5.089 8.242c2.478 2.532 5.29 2.366 5.29 2.366h1.276z" fill="#fff"/></svg>