<svg width="40" height="40" viewBox="0 0 40 40" fill="none" xmlns="http://www.w3.org/2000/svg"><path d="M20 40c11.046 0 20-8.954 20-20S31.046 0 20 0 0 8.954 0 20s8.954 20 20 20z" fill="#25D366"/><path fill-rule="evenodd" clip-rule="evenodd" d="M20.66 31.127h-.006c-1.99 0-3.946-.5-5.683-1.447l-6.304 1.654 1.687-6.163a11.871 11.871 0 0 1-1.588-5.946C8.77 12.668 14.104 7.333 20.66 7.333a11.816 11.816 0 0 1 8.413 3.488 11.821 11.821 0 0 1 3.48 8.414c-.003 6.555-5.336 11.89-11.893 11.892zm-5.397-3.6l.361.214a9.87 9.87 0 0 0 5.031 1.378h.004c5.449 0 9.883-4.435 9.885-9.885a9.826 9.826 0 0 0-2.893-6.993 9.817 9.817 0 0 0-6.988-2.899c-5.452 0-9.886 4.434-9.889 9.884a9.86 9.86 0 0 0 1.512 5.26l.235.374-.999 3.648 3.741-.981zm10.98-5.732c.208.1.348.168.408.268.074.124.074.719-.174 1.413-.247.694-1.434 1.328-2.005 1.413-.512.076-1.16.108-1.872-.118-.432-.137-.985-.32-1.694-.626-2.786-1.203-4.668-3.903-5.024-4.413a3.525 3.525 0 0 0-.052-.074l-.003-.003c-.157-.21-1.21-1.616-1.21-3.07 0-1.37.672-2.087.981-2.417l.058-.063c.273-.297.595-.372.793-.372a11.796 11.796 0 0 1 .636.012c.173-.001.389-.003.602.509l.328.796c.256.623.538 1.31.588 1.41.074.15.124.323.025.521a9.01 9.01 0 0 0-.042.085 1.667 1.667 0 0 1-.255.41l-.153.184c-.102.124-.204.249-.293.337-.149.148-.304.31-.13.607.173.297.77 1.27 1.653 2.058.95.847 1.775 1.205 2.193 1.387a4.4 4.4 0 0 1 .197.088c.297.149.47.124.643-.074.174-.198.743-.868.941-1.165.198-.298.396-.248.669-.15.272.1 1.733.819 2.03.968l.163.08z" fill="#FDFDFD"/></svg>