<svg width="186" height="153" viewBox="0 0 186 153" fill="none" xmlns="http://www.w3.org/2000/svg"><path d="M57.714 110.114c.945 2.038 2.126 3.387 3.7 4.205l1.686-.504.83-5.569-6.224 1.856c.004 0 .004.008.008.012zm-1.229-3.472l8.044-2.394.83-5.57-8.923 2.658c-.383 1.867-.364 3.549.049 5.306zm1.324-9.454l8.136-2.424.582-3.911c-.651.107-1.29.208-1.955.321-3.015.512-5.753 4.08-6.763 6.014z" fill="#fff"/><path d="M89.3 113.056c-1.988.035-6.526 1.479-10.92 2.883-4.81 1.534-8.656 2.691-11.595 3.22-1.871.332-3.378.414-4.507.167-.016-.004-.039-.004-.057-.009-3.886-.94-6.672-3.333-8.528-7.334-2.53-5.441-2.629-9.817-.317-15.767.168-.443.456-.994.79-1.581a18.94 18.94 0 0 1 1.39-2.102c1.9-2.502 4.79-5.14 8.272-5.731 1.151-.193 2.273-.378 3.381-.552l2.031-13.623c-6.591.623-12.893 1.28-16.46 1.836-8.986 1.4-14.903 12.977-20.113 20.058-4.036 5.494-7.853 10.676-11.61 14.538C11.21 119.179 2.935 122.992 0 124.117l12.473 28.427.251.022c5.128.45 18.024 1.17 27.078-1.875 4.243-1.43 8.43-3.917 13.277-6.802 3.958-2.358 8.44-5.031 13.79-7.615.106-.048.208-.098.312-.147a492.782 492.782 0 0 1 7.193-3.398 675.538 675.538 0 0 1 24.146-10.6c-1.7-4.643-4.77-9.155-9.22-9.073zm56.92-53.85c0-10.987-8.919-19.907-19.906-19.907-8.035 0-14.967 4.78-18.105 11.647l10.731 1.604a9.89 9.89 0 0 1 7.376-3.282 9.912 9.912 0 0 1 9.936 9.938 9.896 9.896 0 0 1-5.483 8.884l-1.613 10.817c9.639-1.38 17.064-9.675 17.064-19.7z" fill="#fff"/><path d="M166.096 59.207c0-22.002-17.781-39.781-39.783-39.781-18.094 0-33.319 12.027-38.164 28.532l9.96 1.485c4.044-11.692 15.13-20.075 28.204-20.075 16.496 0 29.842 13.345 29.842 29.841 0 16.05-12.637 29.113-28.512 29.812l-1.487 9.964c.051 0 .103.004.157.004 22.004 0 39.783-17.778 39.783-39.782z" fill="#fff"/><path d="M126.314 0c-32.99 0-59.685 26.693-59.685 59.684 0 3.154.247 6.25.716 9.272.49-.045.982-.095 1.49-.142l1.19-.113 2.27-15.219c.463-3.076 2.845-5.494 5.803-6.1 5.474-21.528 24.979-37.446 48.213-37.446 27.479 0 49.747 22.268 49.747 49.75 0 27.483-22.268 49.741-49.747 49.741-.549 0-1.09-.024-1.637-.039l-1.479 9.899c1.033.052 2.07.08 3.116.08C159.305 119.369 186 92.674 186 59.684 186 26.693 159.305 0 126.314 0z" fill="#fff"/><path d="M124.888 57.795l-44.891-6.698a3.026 3.026 0 0 0-3.438 2.546l-9.078 60.844c3.05-.701 6.869-1.915 9.553-2.773 5.928-1.895 9.707-3.052 12.196-3.093.591-.011 1.19.03 1.774.117 5.002.744 9.151 4.961 11.677 11.863l1.457 3.992-3.921 1.627a694.948 694.948 0 0 0-17.79 7.71l30.423 4.54a3.028 3.028 0 0 0 3.441-2.542l11.141-74.696a3.025 3.025 0 0 0-2.544-3.437z" fill="#fff"/></svg>