<svg width="17" height="22" viewBox="0 0 17 22" fill="none" xmlns="http://www.w3.org/2000/svg"><path d="M16 18.13H4V1h6.599L16 6.166V18.13z" stroke="#093" stroke-width="2" stroke-miterlimit="10" stroke-linecap="round" stroke-linejoin="round"/><mask id="a" fill="#fff"><path d="M9.5 1.435v5.739h6"/></mask><path d="M11.5 1.435a2 2 0 1 0-4 0h4zm-2 5.739h-2a2 2 0 0 0 2 2v-2zm6 2a2 2 0 1 0 0-4v4zm-8-7.74v5.74h4v-5.74h-4zm2 7.74h6v-4h-6v4z" fill="#093" mask="url(#a)"/><mask id="b" fill="#fff"><path d="M14 19.13V22H0V2.87h3"/></mask><path d="M16 19.13a2 2 0 0 0-4 0h4zM14 22v2a2 2 0 0 0 2-2h-2zM0 22h-2a2 2 0 0 0 2 2v-2zM0 2.87v-2a2 2 0 0 0-2 2h2zm3 2a2 2 0 1 0 0-4v4zm9 14.26V22h4v-2.87h-4zm2 .87H0v4h14v-4zM2 22V2.87h-4V22h4zM0 4.87h3v-4H0v4z" fill="#093" mask="url(#b)"/></svg>