<svg width="19" height="17" viewBox="0 0 19 17" fill="none" xmlns="http://www.w3.org/2000/svg"><path fill-rule="evenodd" clip-rule="evenodd" d="M14.884 2a1.45 1.45 0 1 0 0 2.9 1.45 1.45 0 0 0 0-2.9zm-3.45 1.45a3.45 3.45 0 1 1 .943 2.37L6.85 8.583a3.473 3.473 0 0 1 .045.752l5.214 1.861a3.45 3.45 0 1 1-.672 1.884l-5.213-1.86a3.45 3.45 0 1 1-.268-4.424l5.526-2.764a3.47 3.47 0 0 1-.048-.581zM3.45 7.717a1.45 1.45 0 1 0 0 2.9 1.45 1.45 0 0 0 0-2.9zm11.434 4.081a1.45 1.45 0 1 0 0 2.9 1.45 1.45 0 0 0 0-2.9z" fill="#999"/></svg>