<svg width="200" height="200" viewBox="0 0 200 200" fill="none" xmlns="http://www.w3.org/2000/svg"><circle cx="100" cy="100" r="100" fill="#CCC"/><path d="M65.58 80.87l.1-3.624c0-1.891 1.628-3.623 3.522-3.623h3.42c2.015 0 3.827 1.732 3.827 3.623v3.623" stroke="#fff" stroke-width="3" stroke-miterlimit="10" stroke-linejoin="round"/><path d="M127.171 80.87c-2.304-4.61-4.384-10.87-9.058-10.87H99.998c-3.623 0-5.337 3.489-10.869 10.87H65.58c-5.434 0-7.246 2.46-7.246 6.242v37.636c0 3.778 1.812 6.844 7.45 6.844h68.435c5.637 0 7.449-3.066 7.449-6.844V87.112c-.004-3.783-1.815-6.243-7.453-6.243h-7.043z" stroke="#fff" stroke-width="3" stroke-miterlimit="10" stroke-linejoin="round"/><path d="M109.056 124.346c11.005 0 19.927-8.922 19.927-19.927 0-11.005-8.922-19.927-19.927-19.927-11.005 0-19.927 8.922-19.927 19.927 0 11.005 8.922 19.927 19.927 19.927z" stroke="#fff" stroke-width="3" stroke-miterlimit="10" stroke-linejoin="round"/><path d="M109.056 115.288c6.003 0 10.869-4.866 10.869-10.869s-4.866-10.87-10.869-10.87-10.87 4.867-10.87 10.87c0 6.003 4.867 10.869 10.87 10.869zM71.014 98.984a5.435 5.435 0 1 0 0-10.869 5.435 5.435 0 0 0 0 10.87z" stroke="#fff" stroke-width="3" stroke-miterlimit="10" stroke-linejoin="round"/></svg>