<svg width="30" height="30" viewBox="0 0 30 30" fill="none" xmlns="http://www.w3.org/2000/svg"><path fill="#139BD0" d="M0 0h30v30H0z"/><path fill-rule="evenodd" clip-rule="evenodd" d="M15.63 20.673c-.838.89-1.668 1.766-2.49 2.649-.288.309-.61.48-1.023.456-.282-.016-.439-.152-.526-.443-.63-2.135-1.269-4.264-1.895-6.4-.06-.208-.15-.31-.343-.374a368.732 368.732 0 0 1-4.443-1.515 2.44 2.44 0 0 1-.654-.328c-.304-.224-.348-.592-.076-.855.252-.244.552-.455.864-.59 1.814-.785 3.638-1.545 5.458-2.311l13.861-5.843c.878-.37 1.554.151 1.462 1.19-.058.663-.216 1.315-.343 1.971-1.003 5.174-2.007 10.347-3.016 15.518-.239 1.229-1.029 1.55-1.954.804-1.55-1.248-3.099-2.5-4.648-3.749-.074-.059-.15-.115-.235-.18zm-3.48 1.57l.052-.014c.01-.049.023-.097.027-.144.1-1.173.205-2.345.292-3.52a.893.893 0 0 1 .281-.624c1.43-1.394 2.85-2.798 4.272-4.2 1.575-1.551 3.151-3.1 4.72-4.659.097-.095.138-.258.204-.392-.147-.018-.306-.082-.44-.044-.183.052-.357.168-.52.28-3.476 2.392-6.95 4.787-10.428 7.173-.197.135-.234.25-.159.485.257.804.49 1.616.732 2.427l.967 3.233z" fill="#fff"/></svg>