<svg width="22" height="22" viewBox="0 0 22 22" fill="none" xmlns="http://www.w3.org/2000/svg"><path d="M20.066 14.874l.934-.54-1.308-2.264-.942.543a4.336 4.336 0 0 0-1.626-.932v-1.093h-2.615v1.093a4.337 4.337 0 0 0-1.626.933l-.943-.544-1.307 2.264.934.54a4.147 4.147 0 0 0 0 1.888l-.932.538 1.307 2.265.94-.543a4.335 4.335 0 0 0 1.627.931v1.094h2.615v-1.093a4.334 4.334 0 0 0 1.626-.931l.94.543 1.308-2.265-.932-.539a4.152 4.152 0 0 0 0-1.888z" stroke="#093" stroke-miterlimit="10" stroke-linejoin="round"/><path d="M15.818 17.56a1.743 1.743 0 1 0 0-3.486 1.743 1.743 0 0 0 0 3.487z" stroke="#093" stroke-miterlimit="10" stroke-linejoin="round"/><path d="M18.433 9.28V2.743h-3.487m-10.46 0H1V16.69h7.844" stroke="#093" stroke-miterlimit="10" stroke-linecap="round" stroke-linejoin="round"/><path d="M7.1 1H4.487v3.486h2.615V1zm7.846 0h-2.615v3.486h2.615V1zM7.101 2.743h5.23M1 7.101h17.432" stroke="#093" stroke-miterlimit="10" stroke-linecap="round" stroke-linejoin="round"/></svg>