<svg width="20" height="19" viewBox="0 0 20 19" fill="none" xmlns="http://www.w3.org/2000/svg"><path fill-rule="evenodd" clip-rule="evenodd" d="M16.236 2.182a1.582 1.582 0 1 0 0 3.163 1.582 1.582 0 0 0 0-3.163zm-3.763 1.582a3.764 3.764 0 1 1 1.029 2.585L7.474 9.363a3.789 3.789 0 0 1 .049.82l5.688 2.031a3.764 3.764 0 1 1-.733 2.055l-5.689-2.03a3.764 3.764 0 1 1-.292-4.826l6.029-3.015a3.788 3.788 0 0 1-.053-.634zm-8.71 4.654a1.582 1.582 0 1 0 0 3.164 1.582 1.582 0 0 0 0-3.164zm12.473 4.453a1.582 1.582 0 1 0 0 3.163 1.582 1.582 0 0 0 0-3.163z" fill="#999"/></svg>