<svg width="20" height="21" viewBox="0 0 20 21" fill="none" xmlns="http://www.w3.org/2000/svg"><path d="M4.415 18.351H14.3c.427 0 .854.002 1.279 0 .078 0 .157-.006.236-.014l-.276.037c.147-.02.29-.058.43-.114l-.247.103c.143-.06.275-.136.397-.232l-.209.162c.114-.09.216-.19.305-.305l-.162.21c.093-.122.172-.255.232-.398l-.104.247c.056-.14.094-.282.114-.43l-.037.276c.023-.18.015-.364.015-.547V5.682c0-.561-.009-1.123 0-1.684v-.023l1.036 1.036H3.288c-.188 0-.379.002-.568 0h-.024L3.73 3.975V16.07c0 .528-.002 1.057 0 1.585 0 .08.005.16.015.24l-.037-.275c.02.147.058.29.114.428-.036-.082-.07-.165-.104-.246.06.143.137.276.232.398l-.162-.21c.09.115.191.216.305.305l-.21-.162c.123.094.256.172.399.233l-.247-.104c.139.056.282.093.429.114l-.276-.037c.073.008.15.012.226.012.267.002.543.114.734.303.18.18.314.474.302.733-.012.267-.1.545-.302.733a1.06 1.06 0 0 1-.734.303 2.788 2.788 0 0 1-1.978-.837 2.802 2.802 0 0 1-.78-1.92V3.975c0-.56.475-1.036 1.037-1.036h14.019c.188 0 .38-.002.568 0h.024c.56 0 1.036.475 1.036 1.036v13.68a2.87 2.87 0 0 1-.33 1.313c-.459.902-1.451 1.45-2.448 1.453-.595.002-1.19 0-1.784 0H4.413c-.265 0-.545-.116-.733-.303-.18-.18-.315-.474-.303-.733.013-.268.1-.545.303-.734.205-.182.455-.3.735-.3z" fill="#999"/><path d="M7.687 0h4.572c.058 0 .114 0 .172.004.4.035.8.13 1.135.365.321.221.613.501.79.855.171.348.269.7.273 1.092.004.537 0 1.073 0 1.61v.054a1.05 1.05 0 0 1-1.036 1.036H7.295c-.29 0-.582.004-.872 0H6.41A1.052 1.052 0 0 1 5.374 3.98V2.795c0-.16-.002-.317 0-.477.003-.228.03-.464.102-.681.112-.342.267-.595.495-.87.062-.077.135-.143.214-.203.14-.11.277-.226.44-.3A2.41 2.41 0 0 1 7.688 0a1.08 1.08 0 0 1 .733.302c.18.18.315.475.302.734-.024.565-.455 1.03-1.035 1.036-.058 0-.114.004-.17.01l.275-.037a1.28 1.28 0 0 0-.319.087l.247-.104c-.1.044-.193.098-.28.162l.21-.162a1.388 1.388 0 0 0-.247.247l.161-.21c-.064.088-.118.18-.161.28l.103-.246c-.041.103-.07.209-.087.319l.038-.276c-.038.309-.01.632-.01.943v.895L6.41 2.944h6.298c.29 0 .583-.006.873 0h.012L12.557 3.98v-.895c0-.31.027-.634-.01-.943l.037.276a1.326 1.326 0 0 0-.087-.32l.104.247a1.445 1.445 0 0 0-.162-.28l.162.21a1.386 1.386 0 0 0-.247-.247l.21.162a1.446 1.446 0 0 0-.28-.162l.246.104a1.428 1.428 0 0 0-.319-.087l.276.037c-.189-.023-.383-.01-.574-.01H7.687c-.266 0-.545-.116-.734-.303-.18-.18-.315-.474-.302-.733.012-.267.1-.545.302-.734C7.156.116 7.405 0 7.687 0z" fill="#999"/><path d="M1.037 2.942h17.195c.234 0 .468-.002.7 0h.031c.265 0 .545.116.734.303.18.18.315.474.302.733-.012.267-.1.545-.302.734a1.074 1.074 0 0 1-.734.302H1.768c-.234 0-.468.002-.7 0h-.031a1.08 1.08 0 0 1-.734-.302c-.18-.18-.315-.475-.302-.734.012-.267.1-.545.302-.733.203-.185.452-.303.734-.303zm10.497 12.824V8.607c0-.332-.004-.664 0-.995v-.015c0-.265.116-.545.303-.733.18-.18.474-.315.733-.303.267.013.545.1.733.303.187.203.303.451.303.733v7.16c0 .332.004.663 0 .995v.014c0 .265-.116.545-.303.733-.18.18-.474.315-.733.303-.267-.012-.545-.1-.733-.303a1.074 1.074 0 0 1-.303-.733zm-5.138 0V8.607c0-.332-.004-.664 0-.995v-.015c0-.265.116-.545.303-.733.18-.18.474-.315.733-.303.267.013.545.1.734.303.186.203.302.451.302.733v7.16c0 .332.004.663 0 .995v.014c0 .265-.116.545-.302.733-.18.18-.475.315-.734.303-.267-.012-.545-.1-.733-.303a1.084 1.084 0 0 1-.303-.733z" fill="#999"/></svg>