<svg width="30" height="30" viewBox="0 0 30 30" fill="none" xmlns="http://www.w3.org/2000/svg"><path fill="#4A76A8" d="M0 0h30v30H0z"/><path fill-rule="evenodd" clip-rule="evenodd" d="M15.188 21.981h1.245s.376-.048.568-.293c.177-.224.171-.645.171-.645s-.024-1.992.751-2.282c.764-.287 1.745 1.904 2.785 2.747.787.637 1.384.473 1.384.473l2.781.004s1.455-.131.765-1.481c-.056-.11-.402-.999-2.068-2.823-1.744-1.91-1.51-1.601.591-4.905 1.28-2.01 1.79-3.24 1.63-3.765-.152-.502-1.086-.415-1.086-.415l-3.138-.002s-.232-.026-.404.096c-.168.118-.276.427-.276.427s-.496 1.585-1.157 2.908c-1.394 2.795-1.952 2.942-2.18 2.769-.53-.405-.397-1.624-.397-2.491 0-2.707.348-3.836-.678-4.128-.34-.098-.59-.161-1.462-.172-1.117-.013-2.062.005-2.598.314-.356.205-.63.664-.463.69.207.033.675.15.924.549.321.516.31 1.672.31 1.672s.184 3.187-.43 3.582c-.423.272-1.002-.283-2.245-2.816-.637-1.3-1.118-2.762-1.118-2.762s-.093-.267-.258-.411a1.189 1.189 0 0 0-.48-.23l-2.977.002s-.446.015-.61.244c-.146.204-.012.626-.012.626s2.33 6.479 4.967 9.72c2.42 2.971 5.165 2.798 5.165 2.798z" fill="#fff"/></svg>