<svg width="20" height="14" viewBox="0 0 20 14" fill="none" xmlns="http://www.w3.org/2000/svg"><path d="M5.613.383c-.33-.405-.976-.505-1.447-.222C2.86.948 1.815 1.986 1.104 3.164A7.51 7.51 0 0 0 0 7.047c0 1.237.321 2.448.919 3.552.596 1.102 1.469 2.093 2.57 2.89.441.318 1.098.268 1.467-.113.368-.378.31-.945-.13-1.263A6.855 6.855 0 0 1 2.8 9.842a5.86 5.86 0 0 1-.712-2.986 5.902 5.902 0 0 1 .864-2.863A7.007 7.007 0 0 1 5.355 1.63c.47-.284.585-.84.258-1.246zm.991 5.248a3.265 3.265 0 0 1 1.112-1.097c.47-.283.584-.84.256-1.246-.328-.405-.975-.505-1.445-.222-.758.459-1.362 1.057-1.773 1.736a4.363 4.363 0 0 0-.636 2.245c0 .716.184 1.415.531 2.054a5.048 5.048 0 0 0 1.486 1.667c.438.318 1.094.27 1.462-.109.37-.378.313-.943-.125-1.26a3.193 3.193 0 0 1-.937-1.053 2.739 2.739 0 0 1-.325-1.49c.032-.432.17-.85.394-1.225zm5.17 1.225c-.085-.78-.847-1.39-1.774-1.39-.926 0-1.688.61-1.772 1.39A1.335 1.335 0 0 0 8.22 7c0 .848.798 1.535 1.78 1.535.983 0 1.78-.687 1.78-1.535a1.34 1.34 0 0 0-.007-.144zm4.109 0A4.294 4.294 0 0 0 15.35 4.9a5.058 5.058 0 0 0-1.484-1.667c-.439-.318-1.096-.27-1.464.108-.369.379-.312.944.127 1.261.4.291.72.653.935 1.053a2.747 2.747 0 0 1 .333 1.3c0 .5-.143.986-.4 1.415a3.27 3.27 0 0 1-1.114 1.097c-.47.283-.584.84-.256 1.246.328.405.975.504 1.446.222a5.187 5.187 0 0 0 1.771-1.736 4.332 4.332 0 0 0 .638-2.342zm4.116 0a7.472 7.472 0 0 0-.916-3.455A8.72 8.72 0 0 0 16.51.511c-.44-.318-1.098-.268-1.466.112-.369.38-.31.946.13 1.264A6.851 6.851 0 0 1 17.2 4.158a5.867 5.867 0 0 1 .715 2.795 5.88 5.88 0 0 1-.867 3.054 6.983 6.983 0 0 1-2.402 2.364c-.47.284-.585.84-.258 1.246.33.405.977.505 1.447.222 1.308-.787 2.353-1.825 3.062-3.003A7.48 7.48 0 0 0 20 6.856zM6.604 5.631a3.265 3.265 0 0 1 1.112-1.097c.47-.283.584-.84.256-1.246-.328-.405-.975-.505-1.445-.222-.758.459-1.362 1.057-1.773 1.736a4.363 4.363 0 0 0-.636 2.245c0 .716.184 1.415.531 2.054a5.048 5.048 0 0 0 1.486 1.667c.438.318 1.094.27 1.462-.109.37-.378.313-.943-.125-1.26a3.193 3.193 0 0 1-.937-1.053 2.739 2.739 0 0 1-.325-1.49c.032-.432.17-.85.394-1.225zm9.279 1.225A4.294 4.294 0 0 0 15.35 4.9a5.058 5.058 0 0 0-1.484-1.667c-.439-.318-1.096-.27-1.464.108-.369.379-.312.944.127 1.261.4.291.72.653.935 1.053a2.747 2.747 0 0 1 .333 1.3c0 .5-.143.986-.4 1.415a3.27 3.27 0 0 1-1.114 1.097c-.47.283-.584.84-.256 1.246.328.405.975.504 1.446.222a5.187 5.187 0 0 0 1.771-1.736 4.332 4.332 0 0 0 .638-2.342zM5.613.383c-.33-.405-.976-.505-1.447-.222C2.86.948 1.815 1.986 1.104 3.164A7.51 7.51 0 0 0 0 7.047c0 1.237.321 2.448.919 3.552.596 1.102 1.469 2.093 2.57 2.89.441.318 1.098.268 1.467-.113.368-.378.31-.945-.13-1.263A6.855 6.855 0 0 1 2.8 9.842a5.86 5.86 0 0 1-.712-2.986 5.902 5.902 0 0 1 .864-2.863A7.007 7.007 0 0 1 5.355 1.63c.47-.284.585-.84.258-1.246zm14.386 6.473a7.472 7.472 0 0 0-.916-3.455A8.72 8.72 0 0 0 16.51.511c-.44-.318-1.098-.268-1.466.112-.369.38-.31.946.13 1.264A6.851 6.851 0 0 1 17.2 4.158a5.867 5.867 0 0 1 .715 2.795 5.88 5.88 0 0 1-.867 3.054 6.983 6.983 0 0 1-2.402 2.364c-.47.284-.585.84-.258 1.246.33.405.977.505 1.447.222 1.308-.787 2.353-1.825 3.062-3.003A7.48 7.48 0 0 0 20 6.856zm-8.226 0c-.084-.78-.846-1.39-1.773-1.39-.926 0-1.688.61-1.772 1.39A1.335 1.335 0 0 0 8.22 7c0 .848.798 1.535 1.78 1.535.983 0 1.78-.687 1.78-1.535a1.34 1.34 0 0 0-.007-.144zM5.613.383c-.33-.405-.976-.505-1.447-.222C2.86.948 1.815 1.986 1.104 3.164A7.51 7.51 0 0 0 0 7.047c0 1.237.321 2.448.919 3.552.596 1.102 1.469 2.093 2.57 2.89.441.318 1.098.268 1.467-.113.368-.378.31-.945-.13-1.263A6.855 6.855 0 0 1 2.8 9.842a5.86 5.86 0 0 1-.712-2.986 5.902 5.902 0 0 1 .864-2.863A7.007 7.007 0 0 1 5.355 1.63c.47-.284.585-.84.258-1.246zm.991 5.248a3.265 3.265 0 0 1 1.112-1.097c.47-.283.584-.84.256-1.246-.328-.405-.975-.505-1.445-.222-.758.459-1.362 1.057-1.773 1.736a4.363 4.363 0 0 0-.636 2.245c0 .716.184 1.415.531 2.054a5.048 5.048 0 0 0 1.486 1.667c.438.318 1.094.27 1.462-.109.37-.378.313-.943-.125-1.26a3.193 3.193 0 0 1-.937-1.053 2.739 2.739 0 0 1-.325-1.49c.032-.432.17-.85.394-1.225zm5.17 1.225c-.085-.78-.847-1.39-1.774-1.39-.926 0-1.688.61-1.772 1.39A1.335 1.335 0 0 0 8.22 7c0 .848.798 1.535 1.78 1.535.983 0 1.78-.687 1.78-1.535a1.34 1.34 0 0 0-.007-.144zm4.109 0A4.294 4.294 0 0 0 15.35 4.9a5.058 5.058 0 0 0-1.484-1.667c-.439-.318-1.096-.27-1.464.108-.369.379-.312.944.127 1.261.4.291.72.653.935 1.053a2.747 2.747 0 0 1 .333 1.3c0 .5-.143.986-.4 1.415a3.27 3.27 0 0 1-1.114 1.097c-.47.283-.584.84-.256 1.246.328.405.975.504 1.446.222a5.187 5.187 0 0 0 1.771-1.736 4.332 4.332 0 0 0 .638-2.342zm4.116 0a7.472 7.472 0 0 0-.916-3.455A8.72 8.72 0 0 0 16.51.511c-.44-.318-1.098-.268-1.466.112-.369.38-.31.946.13 1.264A6.851 6.851 0 0 1 17.2 4.158a5.867 5.867 0 0 1 .715 2.795 5.88 5.88 0 0 1-.867 3.054 6.983 6.983 0 0 1-2.402 2.364c-.47.284-.585.84-.258 1.246.33.405.977.505 1.447.222 1.308-.787 2.353-1.825 3.062-3.003A7.48 7.48 0 0 0 20 6.856z" fill="#fff"/></svg>