<svg width="20" height="20" viewBox="0 0 20 20" fill="none" xmlns="http://www.w3.org/2000/svg"><path d="M8.125 0h-7.5A.625.625 0 0 0 0 .625v7.5c0 .345.28.625.625.625h7.5c.345 0 .625-.28.625-.625v-7.5A.625.625 0 0 0 8.125 0zM6.25 6.25H2.5V2.5h3.75v3.75zm1.875 5h-7.5a.625.625 0 0 0-.625.625v7.5c0 .345.28.625.625.625h7.5c.345 0 .625-.28.625-.625v-7.5a.625.625 0 0 0-.625-.625zM6.25 17.5H2.5v-3.75h3.75v3.75zM19.375 0h-7.5a.625.625 0 0 0-.625.625v7.5c0 .345.28.625.625.625h7.5c.345 0 .625-.28.625-.625v-7.5A.625.625 0 0 0 19.375 0zM17.5 6.25h-3.75V2.5h3.75v3.75zM11.875 15a.625.625 0 0 1-.625-.625v-2.5c0-.345.28-.625.625-.625h2.5c.345 0 .625.28.625.625v2.5c0 .345-.28.625-.625.625h-2.5z" fill="#999"/><path d="M19.375 11.25h-1.25a.625.625 0 0 0-.625.625V15h-1.875a.625.625 0 0 0-.625.625V17.5h-3.125a.625.625 0 0 0-.625.625v1.25c0 .345.28.625.625.625h7.5c.345 0 .625-.28.625-.625v-7.5a.625.625 0 0 0-.625-.625z" fill="#999"/></svg>