<svg width="30" height="30" viewBox="0 0 30 30" fill="none" xmlns="http://www.w3.org/2000/svg"><path fill="#159A0C" d="M0 0h30v30H0z"/><path fill-rule="evenodd" clip-rule="evenodd" d="M15.182 5c-5.423 0-9.819 4.362-9.819 9.743a9.64 9.64 0 0 0 1.409 5.03L5 25l5.436-1.727a9.835 9.835 0 0 0 4.746 1.212c5.422 0 9.818-4.362 9.818-9.742C25 9.362 20.604 5 15.182 5zm0 17.933a8.251 8.251 0 0 1-4.542-1.355l-3.172 1.009 1.03-3.042a8.104 8.104 0 0 1-1.571-4.803c0-4.516 3.703-8.19 8.255-8.19 4.551 0 8.254 3.674 8.254 8.19 0 4.517-3.703 8.191-8.254 8.191zm-2.303-12.22c-.16-.38-.281-.393-.527-.405a5.691 5.691 0 0 0-.275-.008c-.317 0-.645.092-.843.293-.24.245-.842.817-.842 1.992s.862 2.31.982 2.47c.121.159 1.683 2.605 4.112 3.604 1.896.78 2.46.71 2.892.617.63-.137 1.42-.597 1.62-1.154.201-.558.201-1.036.141-1.135-.06-.1-.22-.16-.461-.28-.24-.119-1.424-.697-1.645-.776-.22-.08-.425-.055-.594.178-.234.321-.46.652-.646.848-.146.153-.382.175-.585.09-.266-.113-1.016-.373-1.935-1.186-.716-.633-1.199-1.414-1.34-1.654-.14-.238-.012-.381.097-.51.123-.15.237-.256.357-.395.12-.14.188-.214.268-.373.08-.16.026-.324-.034-.444s-.542-1.294-.742-1.772z" fill="#fff"/></svg>