<svg width="23" height="26" viewBox="0 0 23 26" fill="none" xmlns="http://www.w3.org/2000/svg"><g opacity=".4"><mask id="a" fill="#fff"><path d="M10.618 9.053l2.269-2.268a3.217 3.217 0 0 1 4.536 0l.567.567a3.217 3.217 0 0 1 0 4.536l-2.268 2.268"/></mask><path d="M9.215 7.65a1.984 1.984 0 1 0 2.807 2.806L9.215 7.65zm5.104 5.103a1.985 1.985 0 0 0 2.806 2.806l-2.806-2.806zm-2.297-2.297l2.268-2.268-2.807-2.807L9.215 7.65l2.807 2.806zm2.268-2.268a1.233 1.233 0 0 1 1.73 0l2.806-2.807a5.201 5.201 0 0 0-7.343 0l2.807 2.807zm1.73 0l.567.567 2.806-2.807-.567-.567-2.806 2.807zm.567.567a1.233 1.233 0 0 1 0 1.73l2.806 2.806a5.201 5.201 0 0 0 0-7.343l-2.806 2.807zm0 1.73l-2.268 2.268 2.806 2.806 2.268-2.268-2.806-2.806z" fill="#000" mask="url(#a)"/><mask id="b" fill="#fff"><path d="M7.214 12.456l-2.268 2.268a3.217 3.217 0 0 0 0 4.536l.567.567a3.217 3.217 0 0 0 4.536 0l2.269-2.268"/></mask><path d="M8.617 13.86a1.984 1.984 0 1 0-2.806-2.807l2.806 2.806zm5.104 5.102a1.984 1.984 0 1 0-2.807-2.806l2.807 2.806zm-7.91-7.91l-2.268 2.269 2.806 2.806 2.268-2.268-2.806-2.806zm-2.268 2.269a5.201 5.201 0 0 0 0 7.342l2.806-2.806a1.233 1.233 0 0 1 0-1.73l-2.806-2.806zm0 7.342l.567.568 2.806-2.807-.567-.567-2.806 2.806zm.567.568a5.202 5.202 0 0 0 7.343 0l-2.807-2.807a1.233 1.233 0 0 1-1.73 0L4.11 21.231zm7.343 0l2.268-2.269-2.807-2.806-2.268 2.268 2.807 2.807z" fill="#000" mask="url(#b)"/><path d="M7.78 9.617l-1.7-1.699m3.115-.288V5.938m-3.407 5.099H4.096m11.059 5.955l1.698 1.698m.287-3.115h1.693m-5.1 3.407v1.692" stroke="#000" stroke-width="2" stroke-miterlimit="10" stroke-linecap="round" stroke-linejoin="round"/></g></svg>