<svg width="18" height="18" viewBox="0 0 18 18" fill="none" xmlns="http://www.w3.org/2000/svg"><path d="M4.264 16.174h8.712c.376 0 .752.002 1.126 0 .07 0 .139-.006.208-.013l-.243.033c.13-.018.256-.051.378-.1l-.217.09c.126-.052.243-.12.35-.204l-.184.143c.1-.079.19-.168.269-.269l-.143.185a1.6 1.6 0 0 0 .205-.351l-.092.217c.05-.122.083-.248.1-.378l-.032.243c.02-.159.013-.321.013-.482V5.008c0-.495-.008-.99 0-1.484v-.02l.913.913H2.748l.913-.913V15.56c0 .071.004.14.013.212l-.033-.243c.019.13.051.256.1.378a18.707 18.707 0 0 1-.09-.217c.052.126.12.243.204.35l-.142-.184c.078.1.168.19.268.268l-.184-.142c.107.082.224.152.35.204a17.69 17.69 0 0 0-.217-.09c.122.049.248.081.378.1l-.243-.033c.064.007.131.01.199.01a.95.95 0 0 1 .646.267.923.923 0 0 1 .267.647c-.011.235-.088.48-.267.646a.935.935 0 0 1-.646.267 2.458 2.458 0 0 1-1.744-.738 2.47 2.47 0 0 1-.686-1.693c-.002-.137 0-.274 0-.412V4.095c0-.19-.002-.378 0-.568v-.023c0-.493.418-.913.913-.913h12.355c.167 0 .335-.002.501 0h.022c.493 0 .913.418.913.913V15.56a2.534 2.534 0 0 1-.29 1.158c-.406.794-1.28 1.278-2.159 1.28-.524.002-1.048 0-1.572 0H4.262a.95.95 0 0 1-.646-.267.923.923 0 0 1-.267-.646c.011-.236.088-.48.267-.646a.974.974 0 0 1 .648-.265z" fill="#999"/><path d="M7.147 0h4.03c.051 0 .1 0 .152.004.352.03.704.115 1 .321.283.195.54.442.696.754.152.307.237.617.241.962.004.473 0 .946 0 1.42v.047a.927.927 0 0 1-.913.913h-5.55c-.256 0-.514.003-.77 0h-.01a.926.926 0 0 1-.913-.913V2.463c0-.14-.002-.28 0-.42.001-.2.025-.409.089-.6.099-.302.236-.525.436-.767.055-.068.12-.126.188-.18.125-.096.245-.198.39-.264.303-.146.593-.228.934-.232a.95.95 0 0 1 .647.267.923.923 0 0 1 .266.646c-.022.498-.401.907-.913.913-.05 0-.1.004-.15.01l.243-.034c-.096.015-.19.039-.28.077l.216-.091a1.23 1.23 0 0 0-.246.142l.184-.142a1.224 1.224 0 0 0-.217.217l.143-.185a1.273 1.273 0 0 0-.143.247l.091-.217a1.258 1.258 0 0 0-.076.28l.033-.242c-.033.272-.01.557-.01.83v.79l-.912-.913h5.55c.256 0 .513-.006.769 0h.011l-.913.913v-.79c0-.273.024-.558-.01-.83l.034.243a1.17 1.17 0 0 0-.077-.281l.091.217a1.276 1.276 0 0 0-.142-.247c.047.063.095.123.142.185a1.222 1.222 0 0 0-.217-.217l.184.142a1.272 1.272 0 0 0-.246-.142c.073.03.146.062.217.09a1.258 1.258 0 0 0-.28-.076l.242.033c-.166-.02-.338-.01-.506-.01l-.962.001H7.147a.95.95 0 0 1-.646-.267.923.923 0 0 1-.267-.646c.011-.236.088-.48.267-.646A.947.947 0 0 1 7.147 0z" fill="#999"/><path d="M1.286 2.593h15.156c.206 0 .412-.002.617 0h.027a.95.95 0 0 1 .647.266.923.923 0 0 1 .266.647c-.01.235-.088.48-.266.646a.947.947 0 0 1-.647.267h-15.8a.95.95 0 0 1-.646-.267.923.923 0 0 1-.267-.646c.011-.236.088-.48.267-.647a.955.955 0 0 1 .646-.266zm9.252 11.303V7.585c0-.292-.003-.584 0-.876v-.013a.95.95 0 0 1 .267-.646.923.923 0 0 1 .646-.267c.236.01.48.088.647.267a.947.947 0 0 1 .266.646v6.31c0 .292.004.585 0 .877v.013a.95.95 0 0 1-.266.646.923.923 0 0 1-.647.267c-.235-.011-.48-.088-.646-.267a.947.947 0 0 1-.267-.646zm-4.528 0V7.585c0-.292-.004-.584 0-.876v-.013a.95.95 0 0 1 .267-.646.923.923 0 0 1 .646-.267c.236.01.48.088.646.267a.947.947 0 0 1 .267.646v6.31c0 .292.004.585 0 .877v.013a.95.95 0 0 1-.267.646.923.923 0 0 1-.646.267c-.235-.011-.48-.088-.646-.267a.956.956 0 0 1-.267-.646z" fill="#999"/></svg>