<svg width="190" height="120" fill="none" xmlns="http://www.w3.org/2000/svg"><g clip-path="url(#clip0)"><rect width="190" height="120" rx="8" fill="#fff"/><rect width="190" height="120" rx="8" fill="#F6B32E" fill-opacity=".15"/><path d="M130.98-49.44a10.994 10.994 0 01-15.297-1.631 298.382 298.382 0 01-3.048 2.492 11.233 11.233 0 012.485 7.19 11.23 11.23 0 01-2.657 7.125 11.056 11.056 0 01-6.566 3.755 10.998 10.998 0 01-7.427-1.36 86.157 86.157 0 00-1.956 3.394 11.145 11.145 0 014.778 5.888 11.253 11.253 0 01-.071 7.609 11.14 11.14 0 01-4.886 5.796A10.989 10.989 0 0188.9-7.889c-.27 1.289-.5 2.578-.7 3.882a11.06 11.06 0 016.495 3.892 11.235 11.235 0 012.511 7.188 11.231 11.231 0 01-2.641 7.14A11.056 11.056 0 0188 17.985c.185 1.312.408 2.616.662 3.882a10.958 10.958 0 017.421 1.378 11.116 11.116 0 014.81 5.865 11.224 11.224 0 01-.049 7.611 11.108 11.108 0 01-4.884 5.802 57.303 57.303 0 001.932 3.424 10.995 10.995 0 017.447-1.217 11.058 11.058 0 016.492 3.875 11.234 11.234 0 012.528 7.17 11.232 11.232 0 01-2.609 7.139c.962.87 1.947 1.724 2.956 2.547a11.052 11.052 0 016.582-3.737c2.56-.43 5.189.06 7.427 1.387a11.15 11.15 0 014.819 5.866 11.258 11.258 0 01-.029 7.62c1.191.491 2.405.95 3.642 1.374a11.138 11.138 0 014.916-5.793 10.989 10.989 0 017.456-1.259 11.052 11.052 0 016.518 3.862 11.225 11.225 0 012.542 7.181c1.301.047 2.602.054 3.849 0 .031-2.62.973-5.144 2.661-7.134a11.057 11.057 0 016.578-3.753 10.996 10.996 0 017.433 1.374 11.155 11.155 0 014.83 5.863 83.087 83.087 0 003.703-1.327 11.222 11.222 0 01.059-7.617 11.11 11.11 0 014.899-5.796 10.958 10.958 0 017.447-1.264 11.024 11.024 0 016.51 3.86c1.023-.777 2.032-1.639 3.01-2.5a11.236 11.236 0 01-2.51-7.198c.027-2.621.966-5.15 2.654-7.144a11.059 11.059 0 016.581-3.76 10.99 10.99 0 017.44 1.375 75.488 75.488 0 001.97-3.378 11.146 11.146 0 01-4.819-5.887 11.254 11.254 0 01.057-7.634 11.137 11.137 0 014.906-5.813 10.988 10.988 0 017.462-1.275c.27-1.289.501-2.578.701-3.882a11.049 11.049 0 01-5.267-2.62 11.195 11.195 0 01-3.201-4.967h-7.044a58.312 58.312 0 01-12.273 31.965 57.507 57.507 0 01-28.02 19.397 57.04 57.04 0 01-33.983.057 57.497 57.497 0 01-28.083-19.303 58.3 58.3 0 01-12.379-31.923 58.417 58.417 0 017.649-33.4c5.826-10.101 14.541-18.193 25.004-23.214a57.071 57.071 0 0133.631-4.924v-6.927a11.122 11.122 0 01-4.667-4.145 11.265 11.265 0 01-1.723-6.027 45.32 45.32 0 00-3.849 0 11.225 11.225 0 01-2.665 7.131 11.054 11.054 0 01-6.577 3.75 11 11 0 01-7.432-1.377 11.15 11.15 0 01-4.827-5.862 77.45 77.45 0 00-3.696 1.351c.757 2.19.817 4.565.173 6.792a11.16 11.16 0 01-3.768 5.632l-.023.101z" fill="#F6B32E" fill-opacity=".31"/><path d="M28.865 128.222a4.91 4.91 0 016.81.722c.448-.369.9-.737 1.357-1.104a4.961 4.961 0 01.077-6.341 4.916 4.916 0 016.23-1.061c.301-.492.59-.994.87-1.503a4.946 4.946 0 01-2.127-2.608 4.963 4.963 0 01.032-3.37 4.944 4.944 0 012.175-2.568 4.911 4.911 0 013.31-.572c.12-.571.223-1.142.312-1.72a4.93 4.93 0 01-2.892-1.724 4.961 4.961 0 01.058-6.347A4.93 4.93 0 0148 98.356a29.998 29.998 0 00-.295-1.72 4.9 4.9 0 01-3.304-.61 4.928 4.928 0 01-2.141-2.598 4.95 4.95 0 01.022-3.371 4.928 4.928 0 012.174-2.57 25.349 25.349 0 00-.86-1.517 4.916 4.916 0 01-6.206-1.178 4.96 4.96 0 01.037-6.338 34.49 34.49 0 00-1.316-1.128 4.917 4.917 0 01-6.237 1.041 4.945 4.945 0 01-2.146-2.599 4.966 4.966 0 01.013-3.374c-.53-.218-1.07-.421-1.621-.61a4.941 4.941 0 01-2.19 2.566 4.914 4.914 0 01-6.22-1.152 4.957 4.957 0 01-1.132-3.181c-.58-.02-1.159-.024-1.714 0a4.96 4.96 0 01-1.185 3.16 4.917 4.917 0 01-6.238 1.053 4.945 4.945 0 01-2.15-2.597 37.48 37.48 0 00-1.648.589 4.949 4.949 0 01-.026 3.373 4.928 4.928 0 01-2.181 2.568 4.9 4.9 0 01-6.214-1.15c-.456.344-.905.726-1.34 1.108a4.96 4.96 0 01-.065 6.352 4.917 4.917 0 01-6.242 1.057 33.43 33.43 0 00-.877 1.496 4.942 4.942 0 012.146 2.607 4.963 4.963 0 01-.025 3.382 4.942 4.942 0 01-2.185 2.575 4.914 4.914 0 01-3.322.564c-.12.572-.223 1.142-.312 1.72a4.93 4.93 0 012.345 1.16 4.953 4.953 0 011.425 2.201h3.136a25.75 25.75 0 015.464-14.16 25.604 25.604 0 0112.474-8.591 25.518 25.518 0 0115.13-.025 25.603 25.603 0 0112.503 8.55 25.774 25.774 0 012.106 28.935 25.651 25.651 0 01-11.132 10.283 25.524 25.524 0 01-14.973 2.181v3.068a4.948 4.948 0 012.078 1.836 4.97 4.97 0 01.767 2.67c.579.02 1.158.027 1.713 0a4.96 4.96 0 011.187-3.159 4.918 4.918 0 016.237-1.051 4.944 4.944 0 012.149 2.597c.555-.183 1.1-.389 1.645-.599a4.954 4.954 0 011.6-5.503l.011-.045z" fill="#F6B32E" fill-opacity=".15"/><path d="M16.692 31.144c-1.2 0-2.2-.384-3-1.152-.8-.776-1.2-1.772-1.2-2.988s.4-2.208 1.2-2.976c.8-.776 1.8-1.164 3-1.164 1.392 0 2.464.6 3.216 1.8l-1.2.612a2.32 2.32 0 00-.852-.84 2.223 2.223 0 00-1.164-.324c-.792 0-1.452.272-1.98.816-.52.544-.78 1.236-.78 2.076 0 .84.26 1.532.78 2.076.528.544 1.188.816 1.98.816.424 0 .816-.108 1.176-.324.36-.216.64-.496.84-.84l1.2.612c-.768 1.2-1.84 1.8-3.216 1.8zM26.42 31h-1.584l-1.776-2.388-.804.828V31h-1.26v-5.796h1.26V28l2.556-2.796h1.56l-2.412 2.628L26.42 31zm3.45.144c-.896 0-1.617-.292-2.16-.876-.544-.592-.817-1.316-.817-2.172 0-.856.273-1.576.816-2.16.544-.584 1.265-.876 2.16-.876.904 0 1.628.292 2.172.876.545.584.817 1.304.817 2.16 0 .864-.272 1.588-.816 2.172-.545.584-1.269.876-2.173.876zm0-1.116c.52 0 .927-.184 1.223-.552.305-.376.456-.836.456-1.38 0-.536-.151-.988-.456-1.356-.296-.376-.703-.564-1.224-.564-.511 0-.92.188-1.224.564-.296.368-.444.82-.444 1.356 0 .544.148 1.004.444 1.38.305.368.713.552 1.224.552zm7.382 1.116c-.768 0-1.388-.316-1.86-.948v3.012h-1.26v-8.004h1.26v.792c.464-.624 1.084-.936 1.86-.936.76 0 1.376.272 1.848.816.48.544.72 1.284.72 2.22 0 .936-.24 1.68-.72 2.232-.472.544-1.088.816-1.848.816zm-.372-1.116c.496 0 .892-.18 1.188-.54.296-.36.444-.824.444-1.392s-.148-1.028-.444-1.38c-.296-.36-.692-.54-1.188-.54-.288 0-.572.076-.852.228a1.74 1.74 0 00-.636.552v2.292c.144.216.356.4.636.552.28.152.564.228.852.228zm6.806 1.116c-.896 0-1.616-.292-2.16-.876-.544-.592-.816-1.316-.816-2.172 0-.856.272-1.576.816-2.16.544-.584 1.264-.876 2.16-.876.904 0 1.628.292 2.172.876.544.584.816 1.304.816 2.16 0 .864-.272 1.588-.816 2.172-.544.584-1.268.876-2.172.876zm0-1.116c.52 0 .928-.184 1.224-.552.304-.376.456-.836.456-1.38 0-.536-.152-.988-.456-1.356-.296-.376-.704-.564-1.224-.564-.512 0-.92.188-1.224.564-.296.368-.444.82-.444 1.356 0 .544.148 1.004.444 1.38.304.368.712.552 1.224.552zm9.433 1.116c-1.136 0-2.024-.312-2.664-.936l.588-.804c.528.472 1.22.708 2.076.708.44 0 .784-.068 1.032-.204.256-.144.384-.336.384-.576 0-.504-.508-.756-1.524-.756h-1.236v-1.008h1.236c.44 0 .784-.064 1.032-.192.256-.128.384-.316.384-.564 0-.208-.132-.38-.396-.516s-.596-.204-.996-.204c-.776 0-1.396.232-1.86.696l-.624-.768c.616-.632 1.424-.948 2.424-.948.856-.008 1.528.132 2.016.42.496.28.744.664.744 1.152 0 .368-.156.68-.468.936-.304.248-.66.4-1.068.456.408.032.784.168 1.128.408.352.24.528.568.528.984 0 .504-.248.916-.744 1.236-.488.32-1.152.48-1.992.48zm3.406 1.332v-2.52a.908.908 0 00.612-.468c.144-.256.26-.744.348-1.464l.348-2.82h4.476v4.692h.636v2.58h-1.26V31h-3.9v1.476h-1.26zm2.424-6.168l-.204 1.86c-.08.768-.336 1.344-.768 1.728h3.072v-3.588h-2.1zm7.707 4.836c-.88 0-1.608-.28-2.184-.84-.568-.568-.852-1.304-.852-2.208 0-.848.276-1.564.828-2.148.56-.592 1.264-.888 2.112-.888.856 0 1.544.296 2.064.888.528.592.792 1.348.792 2.268v.3H64.94c.048.456.236.836.564 1.14.328.304.756.456 1.284.456.296 0 .592-.056.888-.168.304-.112.556-.268.756-.468l.576.828c-.584.56-1.368.84-2.352.84zm1.536-3.516a1.658 1.658 0 00-.444-1.068c-.272-.312-.668-.468-1.188-.468-.496 0-.884.156-1.164.468-.28.304-.436.66-.468 1.068h3.264zm5.108 3.516c-.88 0-1.6-.284-2.16-.852-.56-.576-.84-1.308-.84-2.196 0-.88.28-1.604.84-2.172.56-.576 1.28-.864 2.16-.864.968 0 1.708.344 2.22 1.032l-.828.768c-.32-.456-.764-.684-1.332-.684-.528 0-.952.18-1.272.54-.32.352-.48.812-.48 1.38 0 .568.16 1.032.48 1.392.32.36.744.54 1.272.54.552 0 .996-.228 1.332-.684l.828.768c-.512.688-1.252 1.032-2.22 1.032zm3.325-5.94h1.26v2.1h2.052c.616 0 1.088.176 1.416.528.336.352.504.792.504 1.32 0 .52-.172.96-.516 1.32-.336.352-.804.528-1.404.528h-3.312v-5.796zm3.156 3.204h-1.896v1.488h1.896c.248 0 .44-.068.576-.204a.708.708 0 00.216-.54.708.708 0 00-.216-.54c-.136-.136-.328-.204-.576-.204zm-64.349 16.62c.52 0 .928-.188 1.224-.564.304-.376.456-.84.456-1.392 0-.528-.152-.976-.456-1.344-.296-.368-.704-.552-1.224-.552-.512 0-.92.184-1.224.552-.296.368-.444.816-.444 1.344 0 .552.148 1.016.444 1.392.304.376.712.564 1.224.564zm2.172.228c-.536.592-1.26.888-2.172.888-.912 0-1.636-.308-2.172-.924-.528-.624-.792-1.42-.792-2.388 0-1.384.236-2.416.708-3.096.48-.68 1.216-1.08 2.208-1.2.6-.088 1.012-.172 1.236-.252.232-.08.348-.176.348-.288h1.236c0 .84-.824 1.352-2.472 1.536-.648.072-1.148.252-1.5.54-.344.28-.56.616-.648 1.008.232-.32.532-.568.9-.744a2.669 2.669 0 011.188-.276c.8 0 1.456.296 1.968.888.512.592.768 1.304.768 2.136 0 .856-.268 1.58-.804 2.172zm1.886 3.012l.192-1.128c.144.064.304.096.48.096.408 0 .684-.168.828-.504l.288-.66-2.376-5.868h1.344l1.692 4.344 1.692-4.344h1.356l-2.796 6.84c-.344.856-1.008 1.292-1.992 1.308-.264 0-.5-.028-.708-.084zm5.687-.792v-2.52a.908.908 0 00.612-.468c.144-.256.26-.744.348-1.464l.348-2.82h4.476v4.692h.636v2.58h-1.26V46h-3.9v1.476h-1.26zm2.424-6.168l-.204 1.86c-.08.768-.336 1.344-.768 1.728H29.7v-3.588h-2.1zm7.707 4.836c-.88 0-1.608-.28-2.184-.84-.568-.568-.852-1.304-.852-2.208 0-.848.276-1.564.828-2.148.56-.592 1.264-.888 2.112-.888.856 0 1.544.296 2.064.888.528.592.792 1.348.792 2.268v.3h-4.476c.048.456.236.836.564 1.14.328.304.756.456 1.284.456.296 0 .592-.056.888-.168.304-.112.556-.268.756-.468l.576.828c-.584.56-1.368.84-2.352.84zm1.536-3.516a1.658 1.658 0 00-.444-1.068c-.272-.312-.668-.468-1.188-.468-.496 0-.884.156-1.164.468-.28.304-.436.66-.468 1.068h3.264zM41.628 46h-1.26v-4.692h-1.656v-1.104h4.584v1.104h-1.668V46zm6.214-5.112c.4-.552.92-.828 1.56-.828s1.16.316 1.56.948v-3.012h1.26v3c.392-.624.912-.936 1.56-.936.64 0 1.16.272 1.56.816.4.544.6 1.284.6 2.22 0 .936-.2 1.68-.6 2.232-.4.544-.92.816-1.56.816s-1.16-.316-1.56-.948v3.012h-1.26v-3c-.392.624-.912.936-1.56.936-.64 0-1.16-.272-1.56-.816-.4-.544-.6-1.284-.6-2.22 0-.936.2-1.676.6-2.22zm1.956.288c-.384 0-.696.18-.936.54-.232.36-.348.824-.348 1.392s.116 1.032.348 1.392c.24.352.552.528.936.528.224 0 .444-.076.66-.228.224-.152.392-.336.504-.552v-2.292c-.112-.216-.28-.4-.504-.552a1.136 1.136 0 00-.66-.228zm3.588 3.852c.384 0 .692-.18.924-.54.24-.36.36-.824.36-1.392s-.12-1.028-.36-1.38c-.232-.36-.54-.54-.924-.54a1.19 1.19 0 00-.672.228c-.216.152-.38.336-.492.552v2.292c.112.216.276.4.492.552.224.152.448.228.672.228zm6.636 1.116c-.896 0-1.616-.292-2.16-.876-.544-.592-.816-1.316-.816-2.172 0-.856.272-1.576.816-2.16.544-.584 1.264-.876 2.16-.876.904 0 1.628.292 2.172.876.544.584.816 1.304.816 2.16 0 .864-.272 1.588-.816 2.172-.544.584-1.268.876-2.172.876zm0-1.116c.52 0 .928-.184 1.224-.552.304-.376.456-.836.456-1.38 0-.536-.152-.988-.456-1.356-.296-.376-.704-.564-1.224-.564-.512 0-.92.188-1.224.564-.296.368-.444.82-.444 1.356 0 .544.148 1.004.444 1.38.304.368.712.552 1.224.552zM66.6 46h-1.26v-4.692h-1.656v-1.104h4.584v1.104H66.6V46zm5.315.144c-.896 0-1.616-.292-2.16-.876-.544-.592-.816-1.316-.816-2.172 0-.856.272-1.576.816-2.16.544-.584 1.264-.876 2.16-.876.904 0 1.628.292 2.172.876.544.584.816 1.304.816 2.16 0 .864-.272 1.588-.816 2.172-.544.584-1.268.876-2.172.876zm0-1.116c.52 0 .928-.184 1.224-.552.304-.376.456-.836.456-1.38 0-.536-.152-.988-.456-1.356-.296-.376-.704-.564-1.224-.564-.512 0-.92.188-1.224.564-.296.368-.444.82-.444 1.356 0 .544.148 1.004.444 1.38.304.368.712.552 1.224.552z" fill="#FAA821"/></g><defs><clipPath id="clip0"><path fill="#fff" d="M0 0h190v120H0z"/></clipPath></defs></svg>