<svg width="23" height="16" fill="none" xmlns="http://www.w3.org/2000/svg"><path d="M6.06 11H4.89V4.33h1.17V11zm4.179 0h-1.17V5.36h-2.02V4.33h5.21v1.03h-2.02V11zm8.171 0h-1.35l-1.48-2.49h-1.16V11h-1.17V4.33h2.93c.653 0 1.18.193 1.58.58.4.387.6.89.6 1.51 0 .56-.153 1.01-.46 1.35a1.91 1.91 0 01-1.12.61L18.41 11zm-2.39-3.52c.333 0 .607-.097.82-.29.213-.193.32-.45.32-.77s-.107-.577-.32-.77c-.213-.193-.487-.29-.82-.29h-1.6v2.12h1.6z" fill="#676767"/><rect x=".5" y=".5" width="22" height="15" rx="1.5" stroke="#676767"/></svg>