<svg width="61" height="73" fill="none" xmlns="http://www.w3.org/2000/svg"><path fill-rule="evenodd" clip-rule="evenodd" d="M56.594 63.156l.23-1.392v-1.006l.156-.309h.308l.54.155.154-.31.154-.387.155-.154v-.31h.385l.155-.386-.31-.31-.54-.154-.307-.232-.232-.31.232-.154.154-.542.154-.696v-.309l.309-.155.385.464.463-.464-.154-.541.54-.155.154-.541-.154-.31-.54-.154.154-.697v-.541l-.308-.464.308-.387.386-.309.154-.696.54-.155-.386-1.237-1.002-1.006-.85.696-.307-.154-.54-.387-1.003-.696-.694-.155-.848.696-.386-.309.386-.541-.386-.31v-.387l-.463-.309-.385.309v-1.546h.694v-.464l-.463-.387-.231-.464h-.31l-.54-.155-.153-.232-.154-.155-.31-.154-.23-.31v-.541l.23-.387.156-.851V41.5l.154-.309-.54-.232-.31-.31-.307-.154-.231-.542h-1.157l-.154-.696-.155-.464-.231-.541-.31-.464v-.387l-.847-.696v-.464l.694-.232h.309l.154-.31-.154-.541.154-.619v-.85l.23-.697.31-.696.308-.541.54-.309.154-.155-.154-.155h-.308l-.386-.386.154-.31.386-.851.463-.85.385-.387.463-.696v-.31h.23l.31-.154v-.387l-.154-.309.154-.542.308-.618h.386l.154-.387-.694-.696.848-.464-.462-.387h.617l.385-.155.309-.154.154-.542.23-.309.31-.387.308-.154.232-.31v-.696l.154-.541.54-.155.308-1.315-2.93-2.243v-.309l.23-.387.31-.309v-.542l.154-.309v-1.237h-.463l-.231-.31.385-.387-.154-.309-.694-.851-.154-.541.308-.464v-.155l-.54-.232h-.462l-.155-.464-.231.31-.31.154-.693-.154-.154-.155-.308.155-.232.696h-.308l-.154.541h-.54l-.463.309-.54.155-.386-.155-.308-.541-.31-.309-.538-.155-.31.309-.385-.154-.308-.31h-.54v-.232l.154-.309-.462-.31-.54-.541-.463.155-.386.154-.154.697v.541l-.154.309-.154.155-.386.232v.309l-.31.155h-.153l-.385.155-.155.541v.542l-.154.154h-.231l-.155.155h-.154l-.308.309-.232-.309h-.308l-.154-.155-.386.31-.154-.155-.155-.155v-.541l-.154-.155v-.155l.309-.154-.155-.387-.54-.696-.308-.851-.54.232-2.7-.386-.153.386-.386-.232-.154-.154V9.48l-.694-.232-.31.387h-.307l-.85-.541v-.31h-.54l-.693.155h-.694l-.848-.155-.463-.154-.386.154-.154-.154-.694-.696h-.463l-.385.464h-.154l-.54.386h-.155v-.386l.155-.464-.155-.232-.154-.619-.308-.232-.386-.31-.308-.309-.386-.541.23-.31-.384-.541-.31.155h-.384l-.31-.696.155-.155.155-.155V3.68l.23-.232.155-.31-.154-.154-.231-.542.385-.309-.154-.387-.231.232h-.463l-.694.155-.54.155-.154-.31v-.232l.385-.309V.896l-.54.232-.154.618-.386.232-.694.464.386.542-.386.309h-.154l-1.542 2.088-.463-.232-.694-.618-1.157-.387v1.005l-.54.387-.31.155-.538-.155-.155.464-.385.232v1.006l-.85.309-.461-.309h-.232l-.308.154-.154-.154-.54-.155h-.694l-.155.155-.154.309-.694.541-.154 2.011-.155 1.392-.385.851.23.851-.847.309-.232.542h-.462l-.386.309v.928l-.154.309v1.006l-.31.387h-.153l-.386.464-.308.154-.386-.309-.154-.541H5.46l-.386.386v.464l-.154.387-.54.155-.31.541-.307.464-.232.542-.462.464-.694.696-.31.541-.54.31-.307 1.237.154.851.309.851.539.696h.463l.386-.387.308.155.154.386.54-.154v-.542h.155l.848.851h.386l.462.309.386.387v1.547l.154.464.54.155.309.232.154.464v.696l.154.154.23.387.618.31v.386l.232.464.154.155.463.232.54.155.54.309.462-.155.386-.154.463-.155h.694l.54-.232.462-.155h.54l.309.387.385.309.463.155.386-.309V31.6l.308.155v.541l.154.542v.464l-.308.155-.31.386.156.31.308.154.54.232.154.155.155.696.154.155h.385l-.694 1.547.155.154.539.155.309-.155h.154l.694.31.155.386-.155.696.155.31v.541l-.31.851v1.16l.155.309-.308.542h-.154l-.386-.31-.31.619-.153.542v1.392l-.231.464-.31.387-.153.85-.386.31-.308.154-.154.232.154.31.54.309.308.387-.54.155v.309l.386.232h.309l.539.309.309.155.386.155.308.386.154.155v.387l-.154.464-.154.386v.465h.308v.696l-.154.309-.308.232v.155h.462l.155.309.23.541.155.31.309.387h.54l.462-.232.386-.155.308-.155.386-.309.309-.542.539-.154h.309l.694.154.54.31.308.386.309.465-.617.85v1.702l-.386.387v.541l.155.309.385.155h.309l-.155.696v.155l.309-.155.23.309-.384.232.154.31.386.696.694.464.308.232.309.464.385.387.309.154.54.155-.155.541-.231.31-.154.541-.31.155v.309h-.384l-.155-.154-.154.154-.154.387h-.386l-.154-.387-.308-.309-.54.155v.541l-.155.309-.154.387-.154.464.154.387v.309l-.154.31h-.386l-.154.541.154.155v.386l-.154.155-.308.309-.232.542-.463.155-.154.541.154.309.309.31.848.696.155.386.385.155h.154l.155-.155.385.155.155-.541h1.156l.155.386.848-.386.54.386-.154.464.308.233.54-.697.694.155.309-.851-.695-.696-.308-.309-.31-.387-.23-.309.54-.696.308-.155.54-.387h.309l.385-.154-.154-.31v-.386h.309l.308-.155.386-.309.154-.155.154.309.849-.309.385.309-.385.542.385.309.849-.309.308.309.309.155h.54l.308.386h.386l.54.619h.308l.309-.155.23-.309.309-.387.155-.309h.54l.154.309.154.387.386-.155h.462v-.232l-.154-.154.154-.31.386-.541h.463l.154.155.694-.464.154-.697.54-.154.849.309.539-.155v-.309l.155-.541.54-.31.617.155.385-.155h.309l.154.155.386.155.154-.155.308-.387.386-.154.694.386-.386.31.54.85h.463l.386.155 1.696-1.005.155.154.54-.154-.386-.542.23-.154-.693-.542-.385.232-.31-.696 1.544-.155.462-.232.386.232.694.155.617.31h.386l2.39.696h.463l.54-.155.54-.387v-.464l.308-.155.309.31z" fill="#959595"/><path clip-rule="evenodd" d="M56.594 63.156l.23-1.392v-1.006l.156-.309h.308l.54.155.154-.31.154-.387.155-.154v-.31h.385l.155-.386-.31-.31-.54-.154-.307-.232-.232-.31.232-.154.154-.542.154-.696v-.309l.309-.155.385.464.463-.464-.154-.541.54-.155.154-.541-.154-.31-.54-.154.154-.697v-.541l-.308-.464.308-.387.386-.309.154-.696.54-.155-.386-1.237-1.002-1.006-.85.696-.307-.154-.54-.387-1.003-.696-.694-.155-.848.696-.386-.309.386-.541-.386-.31v-.387l-.463-.309-.385.309v-1.546h.694v-.464l-.463-.387-.231-.464h-.31l-.54-.155-.153-.232-.154-.155-.31-.154-.23-.31v-.541l.23-.387.156-.851V41.5l.154-.309-.54-.232-.31-.31-.307-.154-.231-.542h-1.157l-.154-.696-.155-.464-.231-.541-.31-.464v-.387l-.847-.696v-.464l.694-.232h.309l.154-.31-.154-.541.154-.619v-.85l.23-.697.31-.696.308-.541.54-.309.154-.155-.154-.155h-.308l-.386-.386.154-.31.386-.851.463-.85.385-.387.463-.696v-.31h.23l.31-.154v-.387l-.154-.309.154-.542.308-.618h.386l.154-.387-.694-.696.848-.464-.462-.387h.617l.385-.155.309-.154.154-.542.23-.309.31-.387.308-.154.232-.31v-.696l.154-.541.54-.155.308-1.315-2.93-2.243v-.309l.23-.387.31-.309v-.542l.154-.309v-1.237h-.463l-.231-.31.385-.387-.154-.309-.694-.851-.154-.541.308-.464v-.155l-.54-.232h-.462l-.155-.464-.231.31-.31.154-.693-.154-.154-.155-.308.155-.232.696h-.308l-.154.541h-.54l-.463.309-.54.155-.386-.155-.308-.541-.31-.309-.538-.155-.31.309-.385-.154-.308-.31h-.54v-.232l.154-.309-.462-.31-.54-.541-.463.155-.386.154-.154.697v.541l-.154.309-.154.155-.386.232v.309l-.31.155h-.153l-.385.155-.155.541v.542l-.154.154h-.231l-.155.155h-.154l-.308.309-.232-.309h-.308l-.154-.155-.386.31-.154-.155-.155-.155v-.541l-.154-.155v-.155l.309-.154-.155-.387-.54-.696-.308-.851-.54.232-2.7-.386-.153.386-.386-.232-.154-.154V9.48l-.694-.232-.31.387h-.307l-.85-.541v-.31h-.54l-.693.155h-.694l-.848-.155-.463-.154-.386.154-.154-.154-.694-.696h-.463l-.385.464h-.154l-.54.386h-.155v-.386l.155-.464-.155-.232-.154-.619-.308-.232-.386-.31-.308-.309-.386-.541.23-.31-.384-.541-.31.155h-.384l-.31-.696.155-.155.155-.155V3.68l.23-.232.155-.31-.154-.154-.231-.542.385-.309-.154-.387-.231.232h-.463l-.694.155-.54.155-.154-.31v-.232l.385-.309V.896l-.54.232-.154.618-.386.232-.694.464.386.542-.386.309h-.154l-1.542 2.088-.463-.232-.694-.618-1.157-.387v1.005l-.54.387-.31.155-.538-.155-.155.464-.385.232v1.006l-.85.309-.461-.309h-.232l-.308.154-.154-.154-.54-.155h-.694l-.155.155-.154.309-.694.541-.154 2.011-.155 1.392-.385.851.23.851-.847.309-.232.542h-.462l-.386.309v.928l-.154.309v1.006l-.31.387h-.153l-.386.464-.308.154-.386-.309-.154-.541H5.46l-.386.386v.464l-.154.387-.54.155-.31.541-.307.464-.232.542-.462.464-.694.696-.31.541-.54.31-.307 1.237.154.851.309.851.539.696h.463l.386-.387.308.155.154.386.54-.154v-.542h.155l.848.851h.386l.462.309.386.387v1.547l.154.464.54.155.309.232.154.464v.696l.154.154.23.387.618.31v.386l.232.464.154.155.463.232.54.155.54.309.462-.155.386-.154.463-.155h.694l.54-.232.462-.155h.54l.309.387.385.309.463.155.386-.309V31.6l.308.155v.541l.154.542v.464l-.308.155-.31.386.156.31.308.154.54.232.154.155.155.696.154.155h.385l-.694 1.547.155.154.539.155.309-.155h.154l.694.31.155.386-.155.696.155.31v.541l-.31.851v1.16l.155.309-.308.542h-.154l-.386-.31-.31.619-.153.542v1.392l-.231.464-.31.387-.153.85-.386.31-.308.154-.154.232.154.31.54.309.308.387-.54.155v.309l.386.232h.309l.539.309.309.155.386.155.308.386.154.155v.387l-.154.464-.154.386v.465h.308v.696l-.154.309-.308.232v.155h.462l.155.309.23.541.155.31.309.387h.54l.462-.232.386-.155.308-.155.386-.309.309-.542.539-.154h.309l.694.154.54.31.308.386.309.465-.617.85v1.702l-.386.387v.541l.155.309.385.155h.309l-.155.696v.155l.309-.155.23.309-.384.232.154.31.386.696.694.464.308.232.309.464.385.387.309.154.54.155-.155.541-.231.31-.154.541-.31.155v.309h-.384l-.155-.154-.154.154-.154.387h-.386l-.154-.387-.308-.309-.54.155v.541l-.155.309-.154.387-.154.464.154.387v.309l-.154.31h-.386l-.154.541.154.155v.386l-.154.155-.308.309-.232.542-.463.155-.154.541.154.309.309.31.848.696.155.386.385.155h.154l.155-.155.385.155.155-.541h1.156l.155.386.848-.386.54.386-.154.464.308.233.54-.697.694.155.309-.851-.695-.696-.308-.309-.31-.387-.23-.309.54-.696.308-.155.54-.387h.309l.385-.154-.154-.31v-.386h.309l.308-.155.386-.309.154-.155.154.309.849-.309.385.309-.385.542.385.309.849-.309.308.309.309.155h.54l.308.386h.386l.54.619h.308l.309-.155.23-.309.309-.387.155-.309h.54l.154.309.154.387.386-.155h.462v-.232l-.154-.154.154-.31.386-.541h.463l.154.155.694-.464.154-.697.54-.154.849.309.539-.155v-.309l.155-.541.54-.31.617.155.385-.155h.309l.154.155.386.155.154-.155.308-.387.386-.154.694.386-.386.31.54.85h.463l.386.155 1.696-1.005.155.154.54-.154-.386-.542.23-.154-.693-.542-.385.232-.31-.696 1.544-.155.462-.232.386.232.694.155.617.31h.386l2.39.696h.463l.54-.155.54-.387v-.464l.308-.155.309.31z" stroke="#fff"/></svg>