<svg width="115" height="91" fill="none" xmlns="http://www.w3.org/2000/svg"><path fill-rule="evenodd" clip-rule="evenodd" d="M58.83 8.338l-2.682-2.532.843-1.304-.383-.384-.307-.154-.153-.306-.153-.537-.23-.538.23-.46.153-.537v-.307l-.536.154-.46.153-.69.153h-.842l-.843-.153h-.536l-.69-.153-.46.153-.535-.153-.537-.154-.612-.153-.69-.23-.996.537h-.689l-.383.153-.307.153-.306.231-.537.307-.536.153-.46.153h-.153l-.536-.306-.306-.307-.537-.231-.69-.153-.306.153H40.29l-.69.384-.842.154h-1.226l-.306.153-.537-.153h-.842l-.69.153h-.613l-1.072.384-.613-.231h-1.686l-.383.231-.306.153h-.996l-1.532.997.842.154-.23.384v.153h.384l.153-.153.153-.384v-.154l.383-.306.153-.231h.307v.384l-.307.153-.153.307v.231l.153.153h.307l.23.153v.154l.153.153v.384l.153.153.153-.153.154-.153h.229v.843l.154.154.153-.154v-.383h.306l.23.537v.307h.153l.154-.154.153-.153h.153l.23.153v.537l-.23.461h.23l.153-.154.153-.153.153-.154.154-.153v-.384h.229l.307-.153v.153l.153.154h.383v-.154l.153-.153.154-.154.153.154v.153l.153.384.23.153.153-.153-.153-.384-.23-.307.23-.23.153.23v.307l.153.154.154.23H36l.23-.23v-.307l.153-.384.153.23.153-.23h.23l.153.23.154.307.153.154.153.23h.383l.153-.23.153.23.154.153h.23V6.88l.153.153.153.307h.306l.23.154v.23l.153.153.154-.153v-.537h.153v.153h.383l.153-.153.153-.154v.154l.154.153v.384l-.154.153.154.307-.154.154h-.306v.383l-.23.154-.153-.154h-.46v-.537h-.23l-.153.154-.153.23-.153.153v.691h-.383v.46l-.154-.153v-.154l-.153-.153v-.23l-.153-.154h.153v-.307l-.153-.153.153-.384-.153-.153-.153.153-.383.154h-.153l-.154.383v.461l-.153.23.153.307.154-.154.153.154.153-.154-.153-.383.153.23.23.153v.307l-.23.384v.307-.154l-.306-.153-.154.307v.307l-.153.383v.154l-.23.307-.153.537-.306.153-.383.384h-.307l-.153-.384v-.844l-.23-.307v-.383l.23-.307v-.998h.153l.153-.383.154-.154v-.307l-.307-.383-.153.23-.23.153v.307l-.153.384-.153.307-.537 2.225v.307h-.306v.537l-.153.153-.154.154-.23.383-.153.154.383.307.154.383.153.307.153.537.153.307.383.154.154-.307h.153l.153.153v.307l-.153.23-.153.307v.307l-.154.23v.844l.154.154v.46l-.154.23.154.307v.153l-.154.154-.153.23-.23.153-.153.461.153.383.23.154.153.384v.306l.154.307.153.384.536.153.46.691 1.532 1.304.383.23h.306l.384-.23.153.384h.459l.23.153.307.307.153.384.536.307.153.383.154.307.153.537.23.461.459.69v.844l-.306.537-.153.154h-.383v.537h-.154l-.153.153.153.46-.153.231h-.153v.307h-.23v.844l.23.537.153.306.307.154.383.537.306.153.536.307.154.231-.154.153-.23.153h-.153l-.153.154-.153.23-.153.153-.23.154.23.153v.154l.153.23-.383.153-.153.154-.154.153h-1.149v-.307l-.23-.383h-.306l-.153-.154-.153-.153-.69-1.228-.153-.46-.383-.384-.153-.307-.154-.537-.153-.46-.23-.537-.306-.307-.383-.384-.307-.306-.306-.691v-.46l-.383-.537-.307-.154-.153-.383-.383-.307-.153-.537-.307-.461-.383-.383-.153-.307-.306-.537-.23-.154-.153-.153-.307-.154h-.153l-.23-.23-.306-.153-.153.153-.154.23-.383-.23-.153-.153h-.153l-.383.383-.307.154h-.153l-.153-.154-.23-.23-.153.23.153.154v.307l.23.153v.384l-.23.153-.306.154-.383.153h-.307l-.306.23h-.69l-.383-.23-.306-.307-.153-.153-.154-.154-.383.154h-.306l-.153-.154h-.23l.23-.383v-.154l-.23-.153-.153.153h-.46l-.23-.153v-1.228l-.153-.307-.153-.153v-.154l-.154-.383v-.154l.154-.537v-.153l-.154-.154-.153.154h-.383l-.153-.154h-.307l-.383.154-.306.153-.383.23-.46.307-.383.307-.306.537-.153.154-.537.537-.306.153h-.536v-.307l-.154-.383-.153-.154-.23-.153-.153-.384-.153-.46v-.384l.153-.153h.153l.23-.154.153-.153v-.154h.154v-.23l.153-.307.153-.153v-.691l-.153-.153-.153-.23v-.154l-.307-.307-.383.154-.306.153-.383-.153-.307.153-.153.384-.383.153h-.307l-.306.154v.153l-.23.384-.306.46h.306l-.153.691-.307-.154v.844l-.153.154-.23.383-.153.307-.69.537-.46.307-.688.307-.537.23v.614l-.153.384.153.307v.69l.154.384-.154.307v.153h-.153l-.153.154h-.383l-.307.23-.69.307h-1.3l-1.226-.844-.307-.154-.383-.153H7.5l-.153.153-.383.307-.307.154-.383.23-.46.153-.383.307-.46.154-.536.383-.46.154-.69.307-.382.23-.306.153-.69.154-.306.306h-.383l.153.538.23.153.153.153.536.231h.843l.306.153.154.307.153.384.23.306.153.307.306.384.383.153.46.154.383.153v.384h-.23l-.153.153-.306.154.153.23.153.153-.153.307-.153.154v.383l-.154.154.154.307.153.23-.153.307-.383.153-.307.154v.844l-.153.383h.461l.229.461.154-.154.459-.153.23-.154.153.307.154.384.153.307.383-.154.153.154v.537l.153.46.307.154.23.383.153.537.153.154.306.153.23.154-.23.153.384.691.153.153.383.384.153.153.153.154.537.844.153.153v.384h.459l.23.153h.46v.307l-.153.384-.307.306-.23.384v1.304l-.153.384v.153l.153.307v.231h.383l.154.153v.153l-.154.154.154.153.306.231.23.153v.307h-.383v.153l-.153.384v.153l-.154.154h-.153l-.23-.154h-.459l-.383.154v.153l-.154.23h.537l.153.154.153.307v.69l-.153-.153-.306.153h-.23v.307l.23.23.153.154.153.153.153-.153.153-.154.23.154.153.307.307.153h.153v.23l-.153.307v.154l.153.153.23.23.153.307v.384h-.383l-.153.153h-.153l-.154.307h-.153l-.23.154.23.23v.46l.153.384v.307l.154.153.306-.153.23.153.153.384.153.307v.997l.307.153h.383l.306.231.154-.384.229-.153h.307l.153.153.153.384v.307l-.153.153.153.153v.231h.23l.307.307v.306h.995l.383.231.154.153h.306l.23-.153.306-.537v-.154l.154-.153.383.153-.23-.153.23-.844.153-.231.153-.306.153-.691v-.69h.843l.153-.154.23-.153.613-.307v.153l.23-.383v-.307l.153-.307.153.153v.154l.307-.154h.689l.153.307v.691l.23.307.307.23.306.153h.383l.153.461-.153.23-.153.153-.23.307.536.153.537.231.306-.231.69.231.306.307v.306l-.306.231v.46h.996l.153.153-.153.384.153.153.536-.153.306-.153.384-.231.306-.153.383-.153.153-.154.153-.384-.153-.306.46-.307.23.153.306-.153.307-.384h.229v.384h.69l.613.153h.843l.689-.153.536-.231.69-.306h.153l.153-.307-.536-.384.23-.307.306.154.69-.154.306-.383 1.379 1.381-.153.69-.23.154v.69l.23.307.306.384.307.153.23-.153.153-.231v.231h.153l.383.153.153-.153v-.384l.307.153h.383l.153.231h.996l.306-.231.23-.306.307-.154h.153l.153-.384.536-.306h.843l.536.153.307-.307.153-.384-.153-.46.153-.537.536-.307.69-.383v-.307l.153-.307.153-.384.383-.307.154.307v.384l.306.46.383.154.306.844.154.23v.307l-.307.306.153.538h.537l.459-.307.69-.231h.306l.383-.153h1.15l.153.153-.46.384v.307h.46l.23.537-.23.307.23.537.153.537.153.154v.306l.306.384-.306.154-.153.153.459.153.537.384-.153.153h-.69l.153.307v.844l-.46.537-.23.154h-.152l-.154.153v.384l-.153.46v.691l.307.307.383.537.153.537v.307l-.536-.691-.307.154v1.227h.996l.153.154-.306.383.306.307.537.307.306.23h.383l.153-.383h.153l.537.153.153-.307.306.154.383-.154v-.307l-.153-.383.153-.154h.307l.383.154.153-.307-.153-.384.306-.307.537-.153.459-.23.69-.154.689-.307h.307l.153.307h.536l.69-.153h.306l1.073-.307-.23 1.304.536.23.153.461.537.537v.69l-.383.614.842.844 1.073-.997.459.383.537.461.306.383h.383l.307.154.383.307.306.383.307.307-.154.154-.46.537h-.382l.153.306-.46.154.153.537.307.384.23.46v1.534l-.537.307-.153.384.153.69h.537l.459-.383.154.383-.307.844v.461l.153.844h.383l.307.383-.153.154.459.153.23-.153v-.154l-.23-.23v-.307h.383l.307.307.536.691.307.153.383-.307.306.154-.153.383.153.461.536-.154h.307l-.153.384v.153l.306.307-.153.384-.153.307.459.537.383.46v.537l.153.461.307.23h.383l.153.307.307.537.229.153.307.46.153.231.383.153h.153l.307-.384.383-.153.689-.69.307-.307.153-.307.153.307.383.153.307-.46.689.307v.537l.536.153h.46l.383.307.46.384.536.153.69.46.153-.306.153-.538.383.231.46.153.689.46.537.384.306.154v-.538l-.536-.46-.154-.384-.153-.306.537-.307.306.307.306-.154.69.307.536-.153.46-.307.23-.23v-.154l-.537.154.154-.307.153-.307.23-.384v-.46l-.23-.23v-.461l.383-.383.153.383.307.461.536-.154.536-.307.153.154.537.153.459-.46.383-.537.307-.307.536-.691.306 1.842.996-.537.69-.844.153-.307-.306-.307-.69-.691-.843-.69-.306-.384.306-.46.843-1.535 1.149-1.841.69-.153h.536l.46.153.536-.691-.843-.69-.536-.844-.306-.153.689-.691-1.84-1.688.155-.307.306-.23.69.23h.842l.154-.383.153-.691.23-.46.153-.537.536-.307.843-.691.153-.307.46-.23v-.46h.229l.613-.23.69-.461.536-.383.46-.307.536-.691 1.149-1.151 1.073-1.381.842-.844.307-.153-.307-.537.154-.154.996-1.15-.154-.231v-.613l.537-.384v-1.304l.153-.23h.46l.689-.154h.153l.23-.153.307.153.536-.307.459.307.537.154.306.537.536.306h.307l.536-.153.996-.69 6.742-1.151-1.839-3.76-.306-.307-.383.154h-.154l-.306-.307h-1.379l.153-.384.153-.307-.306-.69.153-.154.536-.537.69-.307.306-.537-.306-.307-.383.154-.46-.154-.383-.537v-.153l-.306-.154-.153.307-.383.231-.154-.231.154-.307-.307-.153-.383.153v-.153l-.306-.384.306-.307-1.992-1.841.307-.69-.154-.998h-.689l-.46.154h-.689l-.537-.691-.459-.153-.23.307h-1.149l-.307.153-.229.691-.996.537-.46-.384.153-.307.153-.69.154-.307-.154-.537-.306-.307-.536-.384.153-1.151-.153-.153-.154.307h-.153l-.23-.307-.46-.384-.69-.46-.841-.537-.537-.537-.46-.844-1.378-.614-.307.153-.843-.69-.536-.537-.69.383-.842.154-.306.307-.383.537.383.69v.461l-.23.69.536.537.996-.383.536-.154.307.384h.536l.153.307.383.69v1.151l-.69.384-.842.46-.843.384-.536.46-.843-.307-.536-.69-.153-.154-.69-.844v-1.151l-.306-.383-.69-.154-.306.154-.383.997h-.46l-.996-.46-.69-.154-.382.307-.843.154-.46-.307-.383.307.154.69.229.537-.383-.23-.69-.153h-.152l-.69.537-1.15-.154-.305-.383-.69-.154-.383-.537-.613.537L58.83 8.338z" fill="#959595"/><path clip-rule="evenodd" d="M58.83 8.338l-2.682-2.532.843-1.304-.383-.384-.307-.154-.153-.306-.153-.537-.23-.538.23-.46.153-.537v-.307l-.536.154-.46.153-.69.153h-.842l-.843-.153h-.536l-.69-.153-.46.153-.535-.153-.537-.154-.612-.153-.69-.23-.996.537h-.689l-.383.153-.307.153-.306.231-.537.307-.536.153-.46.153h-.153l-.536-.306-.306-.307-.537-.231-.69-.153-.306.153H40.29l-.69.384-.842.154h-1.226l-.306.153-.537-.153h-.842l-.69.153h-.613l-1.072.384-.613-.231h-1.686l-.383.231-.306.153h-.996l-1.532.997.842.154-.23.384v.153h.384l.153-.153.153-.384v-.154l.383-.306.153-.231h.307v.384l-.307.153-.153.307v.231l.153.153h.307l.23.153v.154l.153.153v.384l.153.153.153-.153.154-.153h.229v.843l.154.154.153-.154v-.383h.306l.23.537v.307h.153l.154-.154.153-.153h.153l.23.153v.537l-.23.461h.23l.153-.154.153-.153.153-.154.154-.153v-.384h.229l.307-.153v.153l.153.154h.383v-.154l.153-.153.154-.154.153.154v.153l.153.384.23.153.153-.153-.153-.384-.23-.307.23-.23.153.23v.307l.153.154.154.23H36l.23-.23v-.307l.153-.384.153.23.153-.23h.23l.153.23.154.307.153.154.153.23h.383l.153-.23.153.23.154.153h.23V6.88l.153.153.153.307h.306l.23.154v.23l.153.153.154-.153v-.537h.153v.153h.383l.153-.153.153-.154v.154l.154.153v.384l-.154.153.154.307-.154.154h-.306v.383l-.23.154-.153-.154h-.46v-.537h-.23l-.153.154-.153.23-.153.153v.691h-.383v.46l-.154-.153v-.154l-.153-.153v-.23l-.153-.154h.153v-.307l-.153-.153.153-.384-.153-.153-.153.153-.383.154h-.153l-.154.383v.461l-.153.23.153.307.154-.154.153.154.153-.154-.153-.383.153.23.23.153v.307l-.23.384v.307-.154l-.306-.153-.154.307v.307l-.153.383v.154l-.23.307-.153.537-.306.153-.383.384h-.307l-.153-.384v-.844l-.23-.307v-.383l.23-.307v-.998h.153l.153-.383.154-.154v-.307l-.307-.383-.153.23-.23.153v.307l-.153.384-.153.307-.537 2.225v.307h-.306v.537l-.153.153-.154.154-.23.383-.153.154.383.307.154.383.153.307.153.537.153.307.383.154.154-.307h.153l.153.153v.307l-.153.23-.153.307v.307l-.154.23v.844l.154.154v.46l-.154.23.154.307v.153l-.154.154-.153.23-.23.153-.153.461.153.383.23.154.153.384v.306l.154.307.153.384.536.153.46.691 1.532 1.304.383.23h.306l.384-.23.153.384h.459l.23.153.307.307.153.384.536.307.153.383.154.307.153.537.23.461.459.69v.844l-.306.537-.153.154h-.383v.537h-.154l-.153.153.153.46-.153.231h-.153v.307h-.23v.844l.23.537.153.306.307.154.383.537.306.153.536.307.154.231-.154.153-.23.153h-.153l-.153.154-.153.23-.153.153-.23.154.23.153v.154l.153.23-.383.153-.153.154-.154.153h-1.149v-.307l-.23-.383h-.306l-.153-.154-.153-.153-.69-1.228-.153-.46-.383-.384-.153-.307-.154-.537-.153-.46-.23-.537-.306-.307-.383-.384-.307-.306-.306-.691v-.46l-.383-.537-.307-.154-.153-.383-.383-.307-.153-.537-.307-.461-.383-.383-.153-.307-.306-.537-.23-.154-.153-.153-.307-.154h-.153l-.23-.23-.306-.153-.153.153-.154.23-.383-.23-.153-.153h-.153l-.383.383-.307.154h-.153l-.153-.154-.23-.23-.153.23.153.154v.307l.23.153v.384l-.23.153-.306.154-.383.153h-.307l-.306.23h-.69l-.383-.23-.306-.307-.153-.153-.154-.154-.383.154h-.306l-.153-.154h-.23l.23-.383v-.154l-.23-.153-.153.153h-.46l-.23-.153v-1.228l-.153-.307-.153-.153v-.154l-.154-.383v-.154l.154-.537v-.153l-.154-.154-.153.154h-.383l-.153-.154h-.307l-.383.154-.306.153-.383.23-.46.307-.383.307-.306.537-.153.154-.537.537-.306.153h-.536v-.307l-.154-.383-.153-.154-.23-.153-.153-.384-.153-.46v-.384l.153-.153h.153l.23-.154.153-.153v-.154h.154v-.23l.153-.307.153-.153v-.691l-.153-.153-.153-.23v-.154l-.307-.307-.383.154-.306.153-.383-.153-.307.153-.153.384-.383.153h-.307l-.306.154v.153l-.23.384-.306.46h.306l-.153.691-.307-.154v.844l-.153.154-.23.383-.153.307-.69.537-.46.307-.688.307-.537.23v.614l-.153.384.153.307v.69l.154.384-.154.307v.153h-.153l-.153.154h-.383l-.307.23-.69.307h-1.3l-1.226-.844-.307-.154-.383-.153H7.5l-.153.153-.383.307-.307.154-.383.23-.46.153-.383.307-.46.154-.536.383-.46.154-.69.307-.382.23-.306.153-.69.154-.306.306h-.383l.153.538.23.153.153.153.536.231h.843l.306.153.154.307.153.384.23.306.153.307.306.384.383.153.46.154.383.153v.384h-.23l-.153.153-.306.154.153.23.153.153-.153.307-.153.154v.383l-.154.154.154.307.153.23-.153.307-.383.153-.307.154v.844l-.153.383h.461l.229.461.154-.154.459-.153.23-.154.153.307.154.384.153.307.383-.154.153.154v.537l.153.46.307.154.23.383.153.537.153.154.306.153.23.154-.23.153.384.691.153.153.383.384.153.153.153.154.537.844.153.153v.384h.459l.23.153h.46v.307l-.153.384-.307.306-.23.384v1.304l-.153.384v.153l.153.307v.231h.383l.154.153v.153l-.154.154.154.153.306.231.23.153v.307h-.383v.153l-.153.384v.153l-.154.154h-.153l-.23-.154h-.459l-.383.154v.153l-.154.23h.537l.153.154.153.307v.69l-.153-.153-.306.153h-.23v.307l.23.23.153.154.153.153.153-.153.153-.154.23.154.153.307.307.153h.153v.23l-.153.307v.154l.153.153.23.23.153.307v.384h-.383l-.153.153h-.153l-.154.307h-.153l-.23.154.23.23v.46l.153.384v.307l.154.153.306-.153.23.153.153.384.153.307v.997l.307.153h.383l.306.231.154-.384.229-.153h.307l.153.153.153.384v.307l-.153.153.153.153v.231h.23l.307.307v.306h.995l.383.231.154.153h.306l.23-.153.306-.537v-.154l.154-.153.383.153-.23-.153.23-.844.153-.231.153-.306.153-.691v-.69h.843l.153-.154.23-.153.613-.307v.153l.23-.383v-.307l.153-.307.153.153v.154l.307-.154h.689l.153.307v.691l.23.307.307.23.306.153h.383l.153.461-.153.23-.153.153-.23.307.536.153.537.231.306-.231.69.231.306.307v.306l-.306.231v.46h.996l.153.153-.153.384.153.153.536-.153.306-.153.384-.231.306-.153.383-.153.153-.154.153-.384-.153-.306.46-.307.23.153.306-.153.307-.384h.229v.384h.69l.613.153h.843l.689-.153.536-.231.69-.306h.153l.153-.307-.536-.384.23-.307.306.154.69-.154.306-.383 1.379 1.381-.153.69-.23.154v.69l.23.307.306.384.307.153.23-.153.153-.231v.231h.153l.383.153.153-.153v-.384l.307.153h.383l.153.231h.996l.306-.231.23-.306.307-.154h.153l.153-.384.536-.306h.843l.536.153.307-.307.153-.384-.153-.46.153-.537.536-.307.69-.383v-.307l.153-.307.153-.384.383-.307.154.307v.384l.306.46.383.154.306.844.154.23v.307l-.307.306.153.538h.537l.459-.307.69-.231h.306l.383-.153h1.15l.153.153-.46.384v.307h.46l.23.537-.23.307.23.537.153.537.153.154v.306l.306.384-.306.154-.153.153.459.153.537.384-.153.153h-.69l.153.307v.844l-.46.537-.23.154h-.152l-.154.153v.384l-.153.46v.691l.307.307.383.537.153.537v.307l-.536-.691-.307.154v1.227h.996l.153.154-.306.383.306.307.537.307.306.23h.383l.153-.383h.153l.537.153.153-.307.306.154.383-.154v-.307l-.153-.383.153-.154h.307l.383.154.153-.307-.153-.384.306-.307.537-.153.459-.23.69-.154.689-.307h.307l.153.307h.536l.69-.153h.306l1.073-.307-.23 1.304.536.23.153.461.537.537v.69l-.383.614.842.844 1.073-.997.459.383.537.461.306.383h.383l.307.154.383.307.306.383.307.307-.154.154-.46.537h-.382l.153.306-.46.154.153.537.307.384.23.46v1.534l-.537.307-.153.384.153.69h.537l.459-.383.154.383-.307.844v.461l.153.844h.383l.307.383-.153.154.459.153.23-.153v-.154l-.23-.23v-.307h.383l.307.307.536.691.307.153.383-.307.306.154-.153.383.153.461.536-.154h.307l-.153.384v.153l.306.307-.153.384-.153.307.459.537.383.46v.537l.153.461.307.23h.383l.153.307.307.537.229.153.307.46.153.231.383.153h.153l.307-.384.383-.153.689-.69.307-.307.153-.307.153.307.383.153.307-.46.689.307v.537l.536.153h.46l.383.307.46.384.536.153.69.46.153-.306.153-.538.383.231.46.153.689.46.537.384.306.154v-.538l-.536-.46-.154-.384-.153-.306.537-.307.306.307.306-.154.69.307.536-.153.46-.307.23-.23v-.154l-.537.154.154-.307.153-.307.23-.384v-.46l-.23-.23v-.461l.383-.383.153.383.307.461.536-.154.536-.307.153.154.537.153.459-.46.383-.537.307-.307.536-.691.306 1.842.996-.537.69-.844.153-.307-.306-.307-.69-.691-.843-.69-.306-.384.306-.46.843-1.535 1.149-1.841.69-.153h.536l.46.153.536-.691-.843-.69-.536-.844-.306-.153.689-.691-1.84-1.688.155-.307.306-.23.69.23h.842l.154-.383.153-.691.23-.46.153-.537.536-.307.843-.691.153-.307.46-.23v-.46h.229l.613-.23.69-.461.536-.383.46-.307.536-.691 1.149-1.151 1.073-1.381.842-.844.307-.153-.307-.537.154-.154.996-1.15-.154-.231v-.613l.537-.384v-1.304l.153-.23h.46l.689-.154h.153l.23-.153.307.153.536-.307.459.307.537.154.306.537.536.306h.307l.536-.153.996-.69 6.742-1.151-1.839-3.76-.306-.307-.383.154h-.154l-.306-.307h-1.379l.153-.384.153-.307-.306-.69.153-.154.536-.537.69-.307.306-.537-.306-.307-.383.154-.46-.154-.383-.537v-.153l-.306-.154-.153.307-.383.231-.154-.231.154-.307-.307-.153-.383.153v-.153l-.306-.384.306-.307-1.992-1.841.307-.69-.154-.998h-.689l-.46.154h-.689l-.537-.691-.459-.153-.23.307h-1.149l-.307.153-.229.691-.996.537-.46-.384.153-.307.153-.69.154-.307-.154-.537-.306-.307-.536-.384.153-1.151-.153-.153-.154.307h-.153l-.23-.307-.46-.384-.69-.46-.841-.537-.537-.537-.46-.844-1.378-.614-.307.153-.843-.69-.536-.537-.69.383-.842.154-.306.307-.383.537.383.69v.461l-.23.69.536.537.996-.383.536-.154.307.384h.536l.153.307.383.69v1.151l-.69.384-.842.46-.843.384-.536.46-.843-.307-.536-.69-.153-.154-.69-.844v-1.151l-.306-.383-.69-.154-.306.154-.383.997h-.46l-.996-.46-.69-.154-.382.307-.843.154-.46-.307-.383.307.154.69.229.537-.383-.23-.69-.153h-.152l-.69.537-1.15-.154-.305-.383-.69-.154-.383-.537-.613.537L58.83 8.338z" stroke="#fff"/></svg>