<svg width="130" height="154" fill="none" xmlns="http://www.w3.org/2000/svg"><path fill-rule="evenodd" clip-rule="evenodd" d="M59.035 150.184l-2.241-1.937.154-.31.387-.697v-.465l-.541-.232h-.541l-.464-.155v-.697l.309-.31-.155-.31.155-.233-.31-.464-.154-.155-.232-.388-.618-.31-.232.31h-.31l-.154.155h-.386v-.155l.232-.542h-.232l-.155-.31.155-.31-.155-.232h-.463v-.465H52l-.31-.155-.308.155h-.541l.155-.542-.31-.155-.541-.31-.463-.697-.542-.155-.85.155-.154.464.154.853.155.852-.155.542v1.007h-.541l-.695-.31h-.62l-.385-.155-.31-.232-.154-.155-.387.155-.154-.31-.31-.542-.386-.465-.464-.387h-.541v-.465l-.154-.155-.541-.233h-.541l-.464.233h-.696l-.31-.388v-.309l-.385-.388-.464-.155-.696-.155-.541-.155-.31-.387h-.54l-.464-.31-.541.155-.155.155-.386.232-.618-.542-.696-.542-.387-.31-.463-.31-.696-.697-.541-.542-.464-.155-1.546.309-1.391-1.859.85-.542-1.16-.465v-.387L27.5 132.21l-.387.155-.463-.309-.387-.31-.31-.698-.308-.155h-.541l-.155-.697-.85.155-.386 2.247-.31.465-.541.155-.618-.31-.85-.155-.387.155-.154.542v.155l-.387.465-.154.542-.31.31-.541.232-.85.155h-.696l.232-.387-.695-.155v-.465l-1.392-.697v-.852l-.31-.388-.385-.309v-.31l-.464-.543v-.31l-.387-.387-.31.155-.153-.155-.232.155-.31.387-.54.31-.464-.155-.387-.155-.618.465-.387-.155.387-.31v-.387l-.387-.155-.31.387-.385-.232v-.31l-.464-.155-.541-.387v-.31l-.696-.155-.154-.232-.464.387-1.391-.542-.541-.31-.155-.543-.155-.464-.386-.388-.618-.155-3.633-5.113.232-.155.463-.387.155-.31v-1.549h-.62v-.698l1.004-.465.696-1.936.618-.853h.387l.464-1.162h-.31l.155-.542v-.155l.85.155.54-.465-.694-.852.154-.542.155-1.395-.31-1.162.155-.155-.154-.387.154-.31.155-.155h-.31v-.542l.155-.155.155-.155.386-.387.464-.155.387-.155.463-.155h.542l.154-.388.387.155-.155.698.155.387h.154l.309-.852.387.31-.155 1.007 1.005.852.309-.31h.54l.156.31h.154l.542-.155v-.31l.695-.155.155.31h.464v-.31l.23-.232v-.31l.31-.155.155.465-.154.387h.54l.155-.697.309-.155.387-.542.155-.155h.85l.309.155.54-.155.542.155v.155h-.541l-.155.154-.154.233v.155h.154l.31-.155h.154v.465l.232-.155.155-.31h.154v.465h.155l.386-.698-.386-.464.154-.543.54.155v.233h.31l.387-.233-.85-.852v-.31l.464-.155v-.542h-.155l-.31.155-.386-.155.387-.852.309.155.54-.31v-.542l.31-.62v-.233l-.695-.852.695-.155-.463-.31 2.009-3.254.696-.542-.31-.697 1.006-1.162h.309v.542l.85.155.386-1.549.464-.155.387-.852.309.154v.31l.85.155v.543h.85l.85.542 1.005.697-.154 1.007-.541 1.007.927.853 2.01-.853 2.01-1.007h1.39l.542-.852.155-.542.309-.852v-.543l-.851-.31-.31-.155.465-1.239-.85-.465v-1.239l.695-.155v-1.55l-.31-.852.465-.155.232.387.309-.542.155-.155.232-.155.154-.542v-.155H36l.155-.232h1.082l.464-.31.154-.31h.387l.309-.543.54.155.697-.697h.309l.85-.31.696.697.464.31.54.388.387.155.155-1.007.85.619.464-.852.232.233.309-.388.154-.155.387-.155v-.387l.464-1.007h1.855l1.546-1.162v-1.007l-.155-.698.155-.542.232-.697.309-.31.309-.387v-.853l-.155-.31h-.849l-.155-.309v-.853l-1.391-.232.54-1.317-.54-.387 1.005-3.254 1.082.387.309-.387.155-.31.232-.31-.696-1.549 2.55-3.099v-.155l-1.236-1.705-.154-1.239-.31-.155-.695-.155-.541-.31-.464-.387-.696-.698-.695-.464-.155-.388v-1.317l.309-.542v-.31l-.31-.542v-.543l.31-.852v-.31h-.31l-1.004-1.007 4.56-5.5.542.155 2.55-2.325 1.005.62 1.546-2.169 1.546.852.155-.697.154-.155.387-.387.309-.31.54-.388.31-.464.309-.388.232-.62.464-.387.386-.155.31-.542.154-.31.387-.542.309-.31.309-.31.54-.852.697-1.395-.31-.155.155-.387.464-.31.386-.387.309-.155.387-.853.309-.697.696-.155.695-.155.619-.155.85-1.007.696-.852.54-.852.542-.697.309-1.085.696-1.162.695-.542 1.7-3.874h-.54l-.31-.155v-1.085l.31-.464.309-.698.232-.697-.232-.852.386-.697.155-.31v-.542l-.31-.698.155-.465.31-.542.154-.542v-.465l.232-.852.464-.388.695-.154.155-.698.386-.465.464-.155h.696l.54-.697v-.852l1.006-.697-.31-.852.155-.155.309-.388.155-.155v-.697l.232-.31v-.542l-.232-.465-.155-.697.54-.155.465-.697.387-.543.154-.464.155-.388-.155-.465-.154-.387v-.465l.309-.697.154-.387.232-.155h1.005v-.853l1.7-.309.31.309h.232l.464.698.386.31.85.154h.309l.31.388.695.542.696.465.54.697.156.543-.155.154-.541.31-.31.155.155.543-.541.542.155.31-.31.31.155 1.394 6.184 2.092.309.155.696.697 1.159 1.007 1.005.697 1.082.31.696.543 1.314.852 5.951 9.064-.309.62 5.797 6.353.851 2.556.309 5.113-2.01 3.254-.696 4.958.851 10.382-.851 1.394 2.938 3.951.309.155h.695l.155.155v.387l-.155.155-.154.31-.541 8.367-.541 1.937-1.546 6.12.386 1.162.309 1.085 2.242 1.007 10.048 5.656-.309 1.472v1.084l.155.155.309.155.541.155.309.155.155.542-.851 7.825v.542l.542 1.705 1.004 4.803 3.247 1.859-1.701 8.367-.309.852.309 5.966h-.695l-.464-.31h-.85l-.387.155v.155l-.154.232h-.542l-.154.31h-.464l-.696-.155-.541-.155-.309.31-.154.542-.232.31h-.309l-.31-.31-.386.155-.464-.155h-.541l-.154.155.154.697-1.005.62-.695-.155-.155.388.309.31-.541.154h-.154l-.31.388-.154.31-.387-.155v-.543l-.154-.154-.155-.698v-.465l.155-1.394-.541.542-.619.31-7.884 1.55.155.464-.155.233h.387v1.007h1.005l.154.542-.309.465-.387.155h-.309l-.386.542-.309.543-.31.155-.386.464-.309.233-.387.155-.154.697v.31l-.155.542h-.154l-.232.155v.31l.232.155v.542l-.387.155-.309-.155-.155.31-.232.543.542.154h.695l-.154.388-.232.697.927.62-.386.697-.541.542-.309.698-.155.464.155.155.309.233-.155.465h-.309l-.387.852-.154 1.937v.31l.386.309v.233l-.232.465-.154.155v.852l.154.232 1.083-.232h.309l.541.232h.309l-1.005 1.472h-.386l-.851 2.092-3.014-1.549-.696-1.008.541-.542-.541-.31-.154.31-4.251-.852-.232.387-.464.62-2.087-1.007-.618.542.154.465-.386.387.232.31.154.155-.386.852-.31-.155-.31.388v.465h-.694l-.541-.31-1.16.852.619.852-.851 1.55-.463.155-1.237-.853v-.31l-.155-.232-.695.387h-.31l-.31-.155-.385-.387-.31-.31-.154-.155h-.386l-.31-.387-.386-.542-.155-.155-.31-.31.156-.697-.541.154-1.16-1.007v-.155l.309-.697-1.16-1.162-.54.155-.31-.155v-.387l-.154-.155-.232.155-.154.542-.31.31-.541.542-.154 1.007h-.31v-1.859l-.85-.387-1.236-.31-1.546-1.395-.464-.31h-.541l-.31-.155-.695 1.008-1.391-1.008-.464.31-.541.543-.31.155-.695-.31-.386.619h-.155v-.155l-.154-.154v-1.24l.463-.31-.31-.697-1.39.387-.464.31-.541.155-.155.387-.31.155-.385.155-.31.388-.154-.388-1.546 1.007-.155.543-.231.31-.31.697-.386.155-.618.232-.541.155-.31.155-.695-.542-.696.852-.155.387.155.31-.31.155-.231.543v.697l-.464.697z" fill="#959595"/><path d="M59.035 150.184l-.154.31m.154-.31l-2.241-1.937.154-.31.387-.697v-.465l-.541-.232h-.541l-.464-.155v-.697l.309-.31-.155-.31.155-.233-.31-.464-.154-.155-.232-.388-.618-.31-.232.31h-.31l-.154.155h-.386v-.155l.232-.542h-.232l-.155-.31.155-.31-.155-.232h-.463v-.465H52l-.31-.155-.308.155h-.541l.155-.542-.31-.155-.541-.31-.463-.697-.542-.155-.85.155-.154.464.154.853.155.852-.155.542v1.007h-.541l-.695-.31h-.62l-.385-.155-.31-.232-.154-.155-.387.155-.154-.31-.31-.542-.386-.465-.464-.387h-.541v-.465l-.154-.155-.541-.233h-.541l-.464.233h-.696l-.31-.388v-.309l-.385-.388-.464-.155-.696-.155-.541-.155-.31-.387h-.54l-.464-.31-.541.155-.155.155-.386.232-.618-.542-.696-.542-.387-.31-.463-.31-.696-.697-.541-.542-.464-.155-1.546.309-1.391-1.859.85-.542-1.16-.465v-.387L27.5 132.21l-.387.155-.463-.309-.387-.31-.31-.698-.308-.155h-.541l-.155-.697-.85.155-.386 2.247-.31.465-.541.155-.618-.31-.85-.155-.387.155-.154.542v.155l-.387.465-.154.542-.31.31-.541.232-.85.155h-.696l.232-.387-.695-.155v-.465l-1.392-.697v-.852l-.31-.388-.385-.309v-.31l-.464-.543v-.31l-.387-.387-.31.155-.153-.155-.232.155-.31.387-.54.31-.464-.155-.387-.155-.618.465-.387-.155.387-.31v-.387l-.387-.155-.31.387-.385-.232v-.31l-.464-.155-.541-.387v-.31l-.696-.155-.154-.232-.464.387-1.391-.542-.541-.31-.155-.543-.155-.464-.386-.388-.618-.155-3.633-5.113.232-.155.463-.387.155-.31v-1.549h-.62v-.698l1.004-.465.696-1.936.618-.853h.387l.464-1.162h-.31l.155-.542v-.155l.85.155.54-.465-.694-.852.154-.542.155-1.395-.31-1.162.155-.155-.154-.387.154-.31.155-.155h-.31v-.542l.155-.155.155-.155.386-.387.464-.155.387-.155.463-.155h.542l.154-.388.387.155-.155.698.155.387h.154l.309-.852.387.31-.155 1.007 1.005.852.309-.31h.54l.156.31h.154l.542-.155v-.31l.695-.155.155.31h.464v-.31l.23-.232v-.31l.31-.155.155.465-.154.387h.54l.155-.697.309-.155.387-.542.155-.155h.85l.309.155.54-.155.542.155v.155h-.541l-.155.154-.154.233v.155h.154l.31-.155h.154v.465l.232-.155.155-.31h.154v.465h.155l.386-.698-.386-.464.154-.543.54.155v.233h.31l.387-.233-.85-.852v-.31l.464-.155v-.542h-.155l-.31.155-.386-.155.387-.852.309.155.54-.31v-.542l.31-.62v-.233l-.695-.852.695-.155-.463-.31 2.009-3.254.696-.542-.31-.697 1.006-1.162h.309v.542l.85.155.386-1.549.464-.155.387-.852.309.154v.31l.85.155v.543h.85l.85.542 1.005.697-.154 1.007-.541 1.007.927.853 2.01-.853 2.01-1.007h1.39l.542-.852.155-.542.309-.852v-.543l-.851-.31-.31-.155.465-1.239-.85-.465v-1.239l.695-.155v-1.55l-.31-.852.465-.155.232.387.309-.542.155-.155.232-.155.154-.542v-.155H36l.155-.232h1.082l.464-.31.154-.31h.387l.309-.543.54.155.697-.697h.309l.85-.31.696.697.464.31.54.388.387.155.155-1.007.85.619.464-.852.232.233.309-.388.154-.155.387-.155v-.387l.464-1.007h1.855l1.546-1.162v-1.007l-.155-.698.155-.542.232-.697.309-.31.309-.387v-.853l-.155-.31h-.849l-.155-.309v-.853l-1.391-.232.54-1.317-.54-.387 1.005-3.254 1.082.387.309-.387.155-.31.232-.31-.696-1.549 2.55-3.099v-.155l-1.236-1.705-.154-1.239-.31-.155-.695-.155-.541-.31-.464-.387-.696-.698-.695-.464-.155-.388v-1.317l.309-.542v-.31l-.31-.542v-.543l.31-.852v-.31h-.31l-1.004-1.007 4.56-5.5.542.155 2.55-2.325 1.005.62 1.546-2.169 1.546.852.155-.697.154-.155.387-.387.309-.31.54-.388.31-.464.309-.388.232-.62.464-.387.386-.155.31-.542.154-.31.387-.542.309-.31.309-.31.54-.852.697-1.395-.31-.155.155-.387.464-.31.386-.387.309-.155.387-.853.309-.697.696-.155.695-.155.619-.155.85-1.007.696-.852.54-.852.542-.697.309-1.085.696-1.162.695-.542 1.7-3.874h-.54l-.31-.155v-1.085l.31-.464.309-.698.232-.697-.232-.852.386-.697.155-.31v-.542l-.31-.698.155-.465.31-.542.154-.542v-.465l.232-.852.464-.388.695-.154.155-.698.386-.465.464-.155h.696l.54-.697v-.852l1.006-.697-.31-.852.155-.155.309-.388.155-.155v-.697l.232-.31v-.542l-.232-.465-.155-.697.54-.155.465-.697.387-.543.154-.464.155-.388-.155-.465-.154-.387v-.465l.309-.697.154-.387.232-.155h1.005v-.853l1.7-.309.31.309h.232l.464.698.386.31.85.154h.309l.31.388.695.542.696.465.54.697.156.543-.155.154-.541.31-.31.155.155.543-.541.542.155.31-.31.31.155 1.394 6.184 2.092.309.155.696.697 1.159 1.007 1.005.697 1.082.31.696.543 1.314.852 5.951 9.064-.309.62 5.797 6.353.851 2.556.309 5.113-2.01 3.254-.696 4.958.851 10.382-.851 1.394 2.938 3.951.309.155h.695l.155.155v.387l-.155.155-.154.31-.541 8.367-.541 1.937-1.546 6.12.386 1.162.309 1.085 2.242 1.007 10.048 5.656-.309 1.472v1.084l.155.155.309.155.541.155.309.155.155.542-.851 7.825v.542l.542 1.705 1.004 4.803 3.247 1.859-1.701 8.367-.309.852.309 5.966h-.695l-.464-.31h-.85l-.387.155v.155l-.154.232h-.542l-.154.31h-.464l-.696-.155-.541-.155-.309.31-.154.542-.232.31h-.309l-.31-.31-.386.155-.464-.155h-.541l-.154.155.154.697-1.005.62-.695-.155-.155.388.309.31-.541.154h-.154l-.31.388-.154.31-.387-.155v-.543l-.154-.154-.155-.698v-.465l.155-1.394-.541.542-.619.31-7.884 1.55.155.464-.155.233h.387v1.007h1.005l.154.542-.309.465-.386.155h-.31l-.386.542-.309.543-.31.155-.386.464-.309.233-.387.155-.154.697v.31l-.155.542h-.154l-.232.155v.31l.232.155v.542l-.387.155-.309-.155-.155.31-.232.543.542.154h.695l-.154.388-.232.697.927.62-.386.697-.541.542-.309.698-.155.464.155.155.309.233-.155.465h-.309l-.387.852-.154 1.937v.31l.386.309v.233l-.232.465-.154.155v.852l.154.232 1.083-.232h.309l.541.232h.309l-1.005 1.472h-.386l-.851 2.092-3.014-1.549-.696-1.008.541-.542-.541-.31-.154.31-4.251-.852-.232.387-.464.62-2.087-1.007-.618.542.154.465-.386.387.232.31.154.155-.386.852-.31-.155-.31.388v.465h-.694l-.541-.31-1.16.852.619.852-.851 1.55-.463.155-1.237-.853v-.31l-.155-.232-.695.387h-.31l-.31-.155-.385-.387-.31-.31-.154-.155h-.386l-.31-.387-.386-.542-.155-.155-.31-.31.156-.697-.541.154-1.16-1.007v-.155l.309-.697-1.16-1.162-.54.155-.31-.155v-.387l-.154-.155-.232.155-.154.542-.31.31-.541.542-.154 1.007h-.31v-1.859l-.85-.387-1.236-.31-1.546-1.395-.464-.31h-.541l-.31-.155-.695 1.008-1.391-1.008-.464.31-.541.543-.31.155-.695-.31-.386.619h-.155v-.155l-.154-.154v-1.24l.463-.31-.31-.697-1.39.387-.464.31-.541.155-.155.387-.31.155-.385.155-.31.388-.154-.388-1.546 1.007-.155.543-.231.31-.31.697-.386.155-.618.232-.541.155-.31.155-.695-.542-.696.852-.155.387.155.31-.31.155-.231.543v.697l-.464.697z" stroke="#fff"/></svg>