<svg width="76" height="92" fill="none" xmlns="http://www.w3.org/2000/svg"><path fill-rule="evenodd" clip-rule="evenodd" d="M22.471 85.031l-.23-.228-.154-.304-.154-.532v-1.444l.154-.532.154-.532-1.155-2.66v-.836l.154-.304v-.836l-.154-.38-.154-.304-.154-.38v-1.976l-.231-.532v-.988l-.154-.304v-1.672l-.155-.38v-1.824l-.154-.304-.154-.533v-.304l-.23-.532-.154-.532v-.304l-.154-.38-.308-.836v-.836l.154-.304v-.152l-.154-.152v-.228l-.232-.152-.154-.152v-.152l.154-.38v-.152l.232-.304v-.38l-.232-.152v-.152l-.154-.152-.154-.152-.154-.228v-.152l-.154-.532-.23-.152-.155-.152v-2.356l-.154-.304v-.152l-.154-.38-.154-.304-.385-.38-.154-.152-.308-.456v-.532l-.23-.304-.155-.38-.154-.304-.154-.38-.385-.152-.308-.152h-.154l-.23-.152-.155-.38-.154-.456-.308-.228-.539-.304-.154-.304h-.154l-.385-.836-.154-.38-.154-.304-.385-.38-.154-.152-.154-.152v-1.368l-.154-.152.154-.456v-.228l.154-.304-.154-.152v-1.673h.154l.154-.228-.154-.152v-.152l-.154-.152h-.154l-.154.152-.23.152h-.155v-.304l-.154-.38v-.152l-.154-.152.154-.152v-.38l-.154-.304.154-.304-.154-.38h.308l.154.152v-.152l.231-.304-.23-.152v-.532l-.155-.304v-.836l-.154-.228-.154-.304h-.847v.684l-.154.152v.152h-.693l-.154-.152-.23-.532-.309-.304-.154-.38-.385-.152-.154-.304-.308-.152-.231-.228-.308-.304-.308-.304-.231-.38-.154-.152-.154-.304-.154-.38v-.304l-.154-.38v-.608l.154-.38-.154-.152.154-.304.154-.38v-.684l.154-.456.154-.38v-.988l.23-.152h.309l.154-.38.154-.304v-1.368l-.308-.836-.693-1.14-1.54-2.888-.308-.609-.308-.532-.54-.684-.538-.304-.308-.38-.54-.152-.153-.152-.154-.532-.154-.152-.385-.304-.154-.38v-.304l.154-.304v-.532l.23-.152v-.38l.155-.152h.154l.154.152.154.152.385.228.308.152.154.152h.23l.155.38.308.152h.847l.385.152.308.152.308.152.385.228.154.152h1.001l.154.152.23.152h.155l.308.152v-.152l.154-.152.231-.152.154-.152-.154-.228-.385-.304-.693-.304-.462-.532h-.154l-.385-.152-.308-.228-.154-.152v-.152l.154-.152v-.152l.154-.38v-.304h.154l.385.152v.152l.308.152h.308v-.152l-.154-.152v-.304h-.154v-.38l-.539.152h-.308l-.308.228H4.76l-.308-.228h-.539l-.154-.152.539-.152h.462l.847-.152.539-.152h.539l.847-.38.308.152.308.228.54.152v.304l.153.38.385.152.154.304v.684l.308.532.231.456.154.532.308.684.385.684-.23.304h-.463l-.154.152v.152l-.23.38-.155.152-.154-.152-.154-.152h-.154l-.23.152v.456l.538.228.539.152.308.152.154.304.385.228h.154v.153l.308.304v.38l.154.304v.304l.231.38h.154l.154.152h.154v-.304l-.308-.532v-.684l-.154-.304h.463l.154.152v-.305l-.154-.532-.462-.304-.385-.38-.154-.304h-.154v-.38h.154v-.304l.154.152.54.38.461.456.54.532.538.304.308.152.54.381.307.152.154.152.385.152h.308l.54.228h1.308l.54-.228.538-.152.308-.152.308-.305.232-.38.308-.456.308-.684.384-.38.154-.456.54-.532.308-.456.308-.228h1.077l.694.228.616.152.539.152h.693l.462.152.693-.152.847-.532.847-.608.847-.684.693-.532.539-.684.462-.304.539-.38h1.155l.539.228.54.152.153.152.154.152.154.38-.154.152-.154.152h-.154l-.23-.152v-.152h-.155l-.154.152-.154.152-.154.152h-.231l-.308.152-.154.228v.304l.154.152v.228l-.154.304h.308l.539-.152.308-.152.154-.228.231.228-.23.304v.684l.384-.152v-.38l.154-.456v-.38l.154-.532.154-.152h.385l.308-.152.385-.304.308-.532h.308l.539-.152h.385l.462-.152.539-.532.308-.532.154-.304.385-.152h.154l.154.152-.154.304-.539.38-.308.152v.304h-.154l-.154.228-.385.152v.152h.154v.304l.231.228.154.608v1.9l.154.152.154.532v.304l.154.152.385.152.308.228h.385l.154.304.154.304h.308l.385-.304.308-.532.154-.304-.154-.304-.154-.684-.308-.836-.385-.836-.308-.836-.154-.532-.385-.304-.154-.532.308-.532.231-.304v-1.368l-.385-1.14-.154-.836v-.684l-.154-.532-.385-.152-.462-.304v-.532l-.154-.152h-.693l-.154.152.308.152-.154.228v.152h.154v.152l.154.152v.152h-.308l-.385-.608-.154-1.368v-.684l.154-1.292.231-1.064.308-.836.308-.684.385-.456V2.72l-.154-.532v-.304l-.231-.304-.154-.38V.896h.385v.152l.154.304.154.38.154.684.154.608.231.532.462.532.693.456.539.38.462.304.693.38.308.152.385.152.462-.152h.385l.308-.152.385.152.462.304.232.152h1.463l.231.228h.154l-.385.304-.154.152-.154.38v.304l.154.304.539.684.308.532.385.304.308.38.308.152.231.152h.462l.385.152.308.38h.154l.154-.228.385-.152.154-.456-.154-.684-.154-.38-.231-.456-.308-.38-.154-.152-.154-.304h-.385V7.28l-.308-.228h-.385l.231-.152.308-.304.539-.152.154-.38.462-.304.385-.152h.847l.308.304.231.304.154.38.154.152h.308l.539.152.308.152.539.38-.693.836 2.233 1.976.308-.152.693.532-.154.304-.385-.152-1.309 1.52-.539-.38-2.387 2.888.385.304 1.54-1.292v.456l.308.152.154.532.154.304.385.228h.308v.152l-.154.304v.532h.693l.308.152.154.152.231.152h.462l.154.38 1.232-1.52.847.684 1.155-1.52 1.078.836 1.309.532.539-.532.462.304v.38l.693.456-.308.532 3.696 2.66v.38l2.927 1.824v1.141l.154.228.154-.228.385.228v.152l-.385.152-.308.152-.154.152-.386.38-.154.456h-.308l-.231.228h-.847l-.847.988.231.684 1.694 1.292-.385.532v.304l-.462.684.616.684-.847 1.14-.462-.152-.385.152h-.154l-.308.228.462.456-.154.38.539.684-.54.456 2.928 2.66.462-.152 2.387 1.368-.693.988.539.532 1.848 1.292.847-.988.539.152.462.228-1.155 1.824h-.308l-1.078 1.52 1.078.836-.231.608.539.533-.308.304v.38l-.539.532.154.304-.308.532.154.304-.308.532-.539.152h-.154v.152l-.154.152-.385.38v.304l.154.304.539.38.154.152.154.304-.154.38v.152l-.308.532v.152l-.154.304-.231.152-.154.38-.154.152-.154.152-.231-.304-.308-.152-.308-.38-.231-.152h-.154l-.462.532-.231.304-.154.38h-.154l-.308.152-.386-.38-.154-.152-.308-.152-.231-.152-.308-.228-.154-.152v-.456l-.154-.38v-.152h-.385v.152h-.154l-.308-.152-.231-.304-.308-.228-.154-.152-.385-.152h-.154l-.308.152-.385.38-.462.456-.231.38-.462.836-.385.456-.154.228-.154.152.154.304h.154l.385.38v.152l-.154.456-.231.532v.152l-.308.38.154.152v.304l.154.38h.231v.304l.154.152v.38l-.154.456-.385.152-.308.38-.154.988-.385.684v.532l-.154.152h-.539l-.154.152v.152l.385.152.616.532.539.304.308.38.847.456h.231l.693-.152h.154l.308.152-.154.532.308.152.231.152-.847 1.368-.385.532-.308.304-.231.152.539 1.064v1.293l.154.38v.456l-.154.38.154.456.693.152.385.228.462.304.154.152.231.152-.385.38-.154.456-.154.38-.154.152-.385.152h-.308l-.154.152v.228l.154.152-.154.152-.385.152-.308.152h-.539l-.154.228-.385.152-.308.152-.308.152-.385.228-.154.152-.154-.152-.154.304-.385-.152h-.462l-.693-.152-.385-.228h-.154l-.154.38-.154.456v.38l.308.456-.154.38-.154.456v.532h.308l.154-.152v.152l.231.532-.231.304-.154.684-.154.304.154.152.154.228.231.152v.152l-.231.304.385.228.154.152.154.304.154.228.231.152.154.152-.154.152v.152l-.539.228h-.308l-.385.152-.154.152-.154.152-.385-.304-.308-.152-.154.152-.154.152h-.924v.304l.385.38.308.304.231.532.154.152-.154.684-.231.304v1.216l-.308.304-1.54.836-.847.152-.308.38-.539-.38-.308-.152-.385-.152h-.308l-.154.152-.539.532-.154.152-.385-.152h-.616l-.231.304-.462-.152-.154.152-.385-.304v-.38l-.308-.152h-.693v-.532l.693-.304-.231-.152h-.616v-.38l.154-.152.462-.304.231-.152v-.532l-.539-.304h-.154l-.385-.228h-.154l-.308-.456v-.152l-.154-.228-.231-.152v-.456h-.308l-.539.152-.154-.38-.154-.456-.308-.38-.539-.608-.308-.532-.693-.38-.154.38h-.539v.836l-.154.532-.386.456-.462.532-.385.304-.308-.152-.539.152-.693.152-.308-.152-.308-.152-.54.532-.538.152h-.154l-.462.456-.693.684-.154.532-.385.152-.462-.304-.385.152v1.14l-.154.152-.154.228-.539.456v.532l-.154.532-.539.304-.308.532-.385.304-.154.304v.229l-.308-.381v-.836l-.154-.152h-.692l-.539-.152-.462-.152-.539-.38-.308-.304-.539-.836-.154-.684-.385-.532h-.462l-.385-.152-.154-.152-.154-.532-.154-.152-.231-.304-.308-.38-.308-.152-.54-.152v-.152l-.538-.228-.462-.152-.385-.152-.308.304-.308.228-.385.152h-.693l-.308.304-.308.152-.54.38-.307.152-.385.304-.309.228z" fill="#959595"/><path clip-rule="evenodd" d="M22.471 85.031l-.23-.228-.154-.304-.154-.532v-1.444l.154-.532.154-.532-1.155-2.66v-.836l.154-.304v-.836l-.154-.38-.154-.304-.154-.38v-1.976l-.231-.532v-.988l-.154-.304v-1.672l-.155-.38v-1.824l-.154-.304-.154-.533v-.304l-.23-.532-.154-.532v-.304l-.154-.38-.308-.836v-.836l.154-.304v-.152l-.154-.152v-.228l-.232-.152-.154-.152v-.152l.154-.38v-.152l.232-.304v-.38l-.232-.152v-.152l-.154-.152-.154-.152-.154-.228v-.152l-.154-.532-.23-.152-.155-.152v-2.356l-.154-.304v-.152l-.154-.38-.154-.304-.385-.38-.154-.152-.308-.456v-.532l-.23-.304-.155-.38-.154-.304-.154-.38-.385-.152-.308-.152h-.154l-.23-.152-.155-.38-.154-.456-.308-.228-.539-.304-.154-.304h-.154l-.385-.836-.154-.38-.154-.304-.385-.38-.154-.152-.154-.152v-1.368l-.154-.152.154-.456v-.228l.154-.304-.154-.152v-1.673h.154l.154-.228-.154-.152v-.152l-.154-.152h-.154l-.154.152-.23.152h-.155v-.304l-.154-.38v-.152l-.154-.152.154-.152v-.38l-.154-.304.154-.304-.154-.38h.308l.154.152v-.152l.231-.304-.23-.152v-.532l-.155-.304v-.836l-.154-.228-.154-.304h-.847v.684l-.154.152v.152h-.693l-.154-.152-.23-.532-.309-.304-.154-.38-.385-.152-.154-.304-.308-.152-.231-.228-.308-.304-.308-.304-.231-.38-.154-.152-.154-.304-.154-.38v-.304l-.154-.38v-.608l.154-.38-.154-.152.154-.304.154-.38v-.684l.154-.456.154-.38v-.988l.23-.152h.309l.154-.38.154-.304v-1.368l-.308-.836-.693-1.14-1.54-2.888-.308-.609-.308-.532-.54-.684-.538-.304-.308-.38-.54-.152-.153-.152-.154-.532-.154-.152-.385-.304-.154-.38v-.304l.154-.304v-.532l.23-.152v-.38l.155-.152h.154l.154.152.154.152.385.228.308.152.154.152h.23l.155.38.308.152h.847l.385.152.308.152.308.152.385.228.154.152h1.001l.154.152.23.152h.155l.308.152v-.152l.154-.152.231-.152.154-.152-.154-.228-.385-.304-.693-.304-.462-.532h-.154l-.385-.152-.308-.228-.154-.152v-.152l.154-.152v-.152l.154-.38v-.304h.154l.385.152v.152l.308.152h.308v-.152l-.154-.152v-.304h-.154v-.38l-.539.152h-.308l-.308.228H4.76l-.308-.228h-.539l-.154-.152.539-.152h.462l.847-.152.539-.152h.539l.847-.38.308.152.308.228.54.152v.304l.153.38.385.152.154.304v.684l.308.532.231.456.154.532.308.684.385.684-.23.304h-.463l-.154.152v.152l-.23.38-.155.152-.154-.152-.154-.152h-.154l-.23.152v.456l.538.228.539.152.308.152.154.304.385.228h.154v.153l.308.304v.38l.154.304v.304l.231.38h.154l.154.152h.154v-.304l-.308-.532v-.684l-.154-.304h.463l.154.152v-.305l-.154-.532-.462-.304-.385-.38-.154-.304h-.154v-.38h.154v-.304l.154.152.54.38.461.456.54.532.538.304.308.152.54.381.307.152.154.152.385.152h.308l.54.228h1.308l.54-.228.538-.152.308-.152.308-.305.232-.38.308-.456.308-.684.384-.38.154-.456.54-.532.308-.456.308-.228h1.077l.694.228.616.152.539.152h.693l.462.152.693-.152.847-.532.847-.608.847-.684.693-.532.539-.684.462-.304.539-.38h1.155l.539.228.54.152.153.152.154.152.154.38-.154.152-.154.152h-.154l-.23-.152v-.152h-.155l-.154.152-.154.152-.154.152h-.231l-.308.152-.154.228v.304l.154.152v.228l-.154.304h.308l.539-.152.308-.152.154-.228.231.228-.23.304v.684l.384-.152v-.38l.154-.456v-.38l.154-.532.154-.152h.385l.308-.152.385-.304.308-.532h.308l.539-.152h.385l.462-.152.539-.532.308-.532.154-.304.385-.152h.154l.154.152-.154.304-.539.38-.308.152v.304h-.154l-.154.228-.385.152v.152h.154v.304l.231.228.154.608v1.9l.154.152.154.532v.304l.154.152.385.152.308.228h.385l.154.304.154.304h.308l.385-.304.308-.532.154-.304-.154-.304-.154-.684-.308-.836-.385-.836-.308-.836-.154-.532-.385-.304-.154-.532.308-.532.231-.304v-1.368l-.385-1.14-.154-.836v-.684l-.154-.532-.385-.152-.462-.304v-.532l-.154-.152h-.693l-.154.152.308.152-.154.228v.152h.154v.152l.154.152v.152h-.308l-.385-.608-.154-1.368v-.684l.154-1.292.231-1.064.308-.836.308-.684.385-.456V2.72l-.154-.532v-.304l-.231-.304-.154-.38V.896h.385v.152l.154.304.154.38.154.684.154.608.231.532.462.532.693.456.539.38.462.304.693.38.308.152.385.152.462-.152h.385l.308-.152.385.152.462.304.232.152h1.463l.231.228h.154l-.385.304-.154.152-.154.38v.304l.154.304.539.684.308.532.385.304.308.38.308.152.231.152h.462l.385.152.308.38h.154l.154-.228.385-.152.154-.456-.154-.684-.154-.38-.231-.456-.308-.38-.154-.152-.154-.304h-.385V7.28l-.308-.228h-.385l.231-.152.308-.304.539-.152.154-.38.462-.304.385-.152h.847l.308.304.231.304.154.38.154.152h.308l.539.152.308.152.539.38-.693.836 2.233 1.976.308-.152.693.532-.154.304-.385-.152-1.309 1.52-.539-.38-2.387 2.888.385.304 1.54-1.292v.456l.308.152.154.532.154.304.385.228h.308v.152l-.154.304v.532h.693l.308.152.154.152.231.152h.462l.154.38 1.232-1.52.847.684 1.155-1.52 1.078.836 1.309.532.539-.532.462.304v.38l.693.456-.308.532 3.696 2.66v.38l2.927 1.824v1.141l.154.228.154-.228.385.228v.152l-.385.152-.308.152-.154.152-.386.38-.154.456h-.308l-.231.228h-.847l-.847.988.231.684 1.694 1.292-.385.532v.304l-.462.684.616.684-.847 1.14-.462-.152-.385.152h-.154l-.308.228.462.456-.154.38.539.684-.54.456 2.928 2.66.462-.152 2.387 1.368-.693.988.539.532 1.848 1.292.847-.988.539.152.462.228-1.155 1.824h-.308l-1.078 1.52 1.078.836-.231.608.539.533-.308.304v.38l-.539.532.154.304-.308.532.154.304-.308.532-.539.152h-.154v.152l-.154.152-.385.38v.304l.154.304.539.38.154.152.154.304-.154.38v.152l-.308.532v.152l-.154.304-.231.152-.154.38-.154.152-.154.152-.231-.304-.308-.152-.308-.38-.231-.152h-.154l-.462.532-.231.304-.154.38h-.154l-.308.152-.386-.38-.154-.152-.308-.152-.231-.152-.308-.228-.154-.152v-.456l-.154-.38v-.152h-.385v.152h-.154l-.308-.152-.231-.304-.308-.228-.154-.152-.385-.152h-.154l-.308.152-.385.38-.462.456-.231.38-.462.836-.385.456-.154.228-.154.152.154.304h.154l.385.38v.152l-.154.456-.231.532v.152l-.308.38.154.152v.304l.154.38h.231v.304l.154.152v.38l-.154.456-.385.152-.308.38-.154.988-.385.684v.532l-.154.152h-.539l-.154.152v.152l.385.152.616.532.539.304.308.38.847.456h.231l.693-.152h.154l.308.152-.154.532.308.152.231.152-.847 1.368-.385.532-.308.304-.231.152.539 1.064v1.293l.154.38v.456l-.154.38.154.456.693.152.385.228.462.304.154.152.231.152-.385.38-.154.456-.154.38-.154.152-.385.152h-.308l-.154.152v.228l.154.152-.154.152-.385.152-.308.152h-.539l-.154.228-.385.152-.308.152-.308.152-.385.228-.154.152-.154-.152-.154.304-.385-.152h-.462l-.693-.152-.385-.228h-.154l-.154.38-.154.456v.38l.308.456-.154.38-.154.456v.532h.308l.154-.152v.152l.231.532-.231.304-.154.684-.154.304.154.152.154.228.231.152v.152l-.231.304.385.228.154.152.154.304.154.228.231.152.154.152-.154.152v.152l-.539.228h-.308l-.385.152-.154.152-.154.152-.385-.304-.308-.152-.154.152-.154.152h-.924v.304l.385.38.308.304.231.532.154.152-.154.684-.231.304v1.216l-.308.304-1.54.836-.847.152-.308.38-.539-.38-.308-.152-.385-.152h-.308l-.154.152-.539.532-.154.152-.385-.152h-.616l-.231.304-.462-.152-.154.152-.385-.304v-.38l-.308-.152h-.693v-.532l.693-.304-.231-.152h-.616v-.38l.154-.152.462-.304.231-.152v-.532l-.539-.304h-.154l-.385-.228h-.154l-.308-.456v-.152l-.154-.228-.231-.152v-.456h-.308l-.539.152-.154-.38-.154-.456-.308-.38-.539-.608-.308-.532-.693-.38-.154.38h-.539v.836l-.154.532-.386.456-.462.532-.385.304-.308-.152-.539.152-.693.152-.308-.152-.308-.152-.54.532-.538.152h-.154l-.462.456-.693.684-.154.532-.385.152-.462-.304-.385.152v1.14l-.154.152-.154.228-.539.456v.532l-.154.532-.539.304-.308.532-.385.304-.154.304v.229l-.308-.381v-.836l-.154-.152h-.692l-.539-.152-.462-.152-.539-.38-.308-.304-.539-.836-.154-.684-.385-.532h-.462l-.385-.152-.154-.152-.154-.532-.154-.152-.231-.304-.308-.38-.308-.152-.54-.152v-.152l-.538-.228-.462-.152-.385-.152-.308.304-.308.228-.385.152h-.693l-.308.304-.308.152-.54.38-.307.152-.385.304-.309.228z" stroke="#fff"/></svg>