<svg width="103" height="93" fill="none" xmlns="http://www.w3.org/2000/svg"><path fill-rule="evenodd" clip-rule="evenodd" d="M102 62.76l-.308-.306-.538-.307-.999-.841-.384.153-.461-.383.691-.842-.23-.612.845-1.531-2.152-1.224-.384.383-1.307-.689.461-.689-.845-.536.384-.995-.231-.306-.307-.535.538-.307.461-.153-.154-.688-.307-.536-.231-.689v-.689l-.153-.153-.462-.153-.538-.153-.153-.536-.154-.153-.538.689-.692.842h-.461l.461-.842-.461-.153-.384.459-.308-.153-.23-.153-.308.153v.153l-.307.383-.231.306.231.536h-.385l-.307-.23-.384-.153-.308-.459-.307-.23-.231-.459-.461-.536-.538.842-2.844-1.301.999-1.913.692-.306.307-.536v-.153l-.153-.306-.308-.153.154-.383-.538-.306-.154-.383-.307-.459-.385-.689-.153-.688-.154-.536-.692-.459-.538-.153h-.461l-.538.153-.538.153-.308.536-.154.306.154.306v.536l-.154.535v.306l-.153.306-.846-.153-.538-.306-.307-.382-.231-.46-.307-.382h-.154l-.384.229-.154.153-.154-.153-.154-.382v-.689l-.153-.153-.538-.306h-.385l-.461.153-.384.153-.308-.306-.845-.536-.692-.459-.154-.383.154-.153.384-.306.308-.383.538-.153v-1.148l-.384-.382v-.306h.384l.154.153.461.306h.384l.308-.153.153-.306.385-.383.307-.153.538-.536.538-.459.308-.383V34.29l-.308-.382-.538-.306.154-.307.692.153-.538-.688.23-.536.615-.153-.154-.689.538-.153-.153-.536-.385-.459-.307-.689v-.306l.154-.688v-.689h-.538l-.308-.306-.538.306-.154-.306-.538.153-.153-.689.538-.842-1.691-.689-.692-.459-.538-1.224-.615.153-.231.535h-.615l-.23-2.066-.154-.153v-.689h-.461l-.384.536h-.462l-.23-.536-.308-.153h-.538l-.692-.459.231-.383-.692-.306-1.537 1.684-.692-.536.385-.306-.385-.153-.461.153-.538-.383-.307.383-.385-.153 1.384-2.372-.538-.154-.461.307-.385-.307-.154.154-.153.153-.385.153h-.999l-.307-.306-.231-.536h-.154l-.461-.153h-.538l-.154-.689h-.384l-.154.995h-.307l-.692-.306-.307-.306H60.8l-.461-.23-.384-.153h-.999l-.154-.536h-1.537v-.612l-.154-1.071v-.613l-.231-.382-.307-.689-.999-1.99-.538-1.53-.154-.536-.154-.995-2.383-1.531h-.153l-.385.23-.999.153-.846.153-1.152-.536-.231-.459-.461-.153-.692-.23-.692-.153-.692-.306-.845-.535-.615-.46-.538-.688-.538-.689-.308-.842-.384-.153v-.842L42.353 1h-1.23l-1.46.535-.692.536-.538.459-.846.842h-.691l-.692-.153-.308-.153-.538-.153-.461.153-.692-.153h-.307l-.231-.842h-.615l-.384.153-.461.459-.692.383-.384.536h-.615v-.23h-1.538l-1.076-.306-.845-.383-.154.23.538.842.308.688.384.842.154.842-.154.612-.231 1.072v.459l.231.383.461.459.538.382-.154.46h-.384l-.692-.153-1.46.688-.231 1.378-.153.995-.154.842-.308.306-.538.382-1.153.46-.845.382h-.692l-.384.612v.383l-.154.842-.307 1.99.307.382.308.689.384.459-.384.383-.308.306-.307.153-.231.536.231.459.153.536.308.153.384.536.154.688.154.689h.845l.384.306.154.689v1.301l.308.842.384 1.071.154.995.153.842-.153.842v.842l-.385.306-.461.382-.538.307-.461.153-.538.535-.384.307-.308.688-.307.153-.538-.306-.308.536-.384.459-.308.383-.384.153-.154.459-.153.383-.154.153.154.535-.308.46-.231.382-.153.689-.154.306h-.307v-.306l-.385.153-.153.459-.846.383.307.842-1.153.459.539.383.153.459.461-.153.539.382.538.46.614.382.539.306.538.153v1.072l.153.306-.384.689-.154.689-.461-.23v.536l.846.995.461-.307v.46l.154.535.23.536.308.306.307.306.384.383v.153l-.153.306v.383l-.231.153-.307.382v1.148l.307 1.148-.154.383-.307.459-.384.383-.462.153h-.538l-.307.153h-.385l-.307.153-.154.383v.842l-.153.459-.231.382-.154.153-.461.307h-.384l-.308.229-.384.153-.461-.153-.231-.229-.154.229h-.307l-.154-.229-.538-.153h-.154l-.384-.154h-.845l-.154-.153h-.308l-.538-.153-.153-.382-.308-.306-.23-.383-1.691-.153-.308.383-.538-.23H6.918l-.153.383-.385.688-.307 2.143-1.384-.612-.461.459.308.383-.846 1.837-.307-.154h-.385l-.461-.382-.384.382-.154.307-.307.841-.692.536v.459l.461.153.384.23.538.459h.462l.538.153.461.536.538.689.307.306.538.229.308.153.23.307 1.461.841v.689l-.154.689.154.459.23.689.154.842.154.382.154.307.384.153-1.384 3.214v2.219l-.153.842-.154.306-.231.153.231.383-.231.689-.153.689-.154.459v.688l.692.307.307.229.384-.229.462-.153.384-.307 1.845 1.148-.154.153h-.538l-.154.383-.154.689-.384.459v.842l.538.383.538.153.846.153.461.382.845.306.538.307 1.153.535.385.153.307.383.154.306.154.536v.306l.23.306.308-.153.691-.153v-.995l.154-.153v-.536l.154-.688.384-.46.846-.535.692-.536.307-.153.692-.153.461-.153h1.384l.538.153.461.306.384.383.308.153h.384l.615-.153.692-.23.384-.153v-.995l1.307-.536.538.23.461.612.23.383.308.306.538.153.461.689.384.535.846.689.461.153.538-.306.308-.842.845-.229.538-.153.692-.995.307-.536-1.691-.995 2.383-3.52.692.153.307.306.385.383v.459l.845.842-1.691 3.061 1.307.536.846-.536 1.076 2.219 2.306-.153.384-.842.845-.688 1.691 3.214 1.999 1.454.23-.306.308-.306-.154-.689-.692-.995-.307-.383.461-.459-1.691-2.755.308-.153.384-.689.154-.306h.384l.461-.536.154-.153.692-.153h.153l.231-.689 1.153.154.307.153.385.229.307-.229.154-.153.231-.154.307.154v.382l.307.153v.306l-.307.153-.307.23.307.612.154.23.384.153h.307l.154.153h.692l.154-.153.23-.383v-.153l-.384-.153-.154-.153.154-.383-.307-.153-.385-.306-.461-.382-.231-.307v-.535l.385-.153.692.382.461.306.23.307.154.229h.692l.307-.229.692.229.154.153.307.153.538.306h.308l.23-.153.154.153h.692l.307.383h.308l.538-.153h.538l.999.153h2.229l.461-.153.385-.23.153-.153.308-.306.384-.153.461-.382.385-.307.307-.153h.308l.538.153.307-.153 3.92 3.138-.307.383.692 1.99.307-.153.154 1.224.384.459v.536l.154.153v.306l.154.23.153.842 5.458-4.439.691-.153.462.153.691.229h1.153l.692-.229.538-.153.692-.306.692-.383.461-.459.384-.536.154-.536.154-.612v-.842l-.154-1.071-.384-.995-.462-.842-.384-.306-.154-.536v-.306l2.537-3.367 2.921-3.061 2.69-3.215h.308l4.304.689 3.843-1.837.154-.229v-2.526l1.23-.306.307-.383-.154-.995.154-.153.846-.153.691-.153.539.306.307.153.154-.306.538-.382z" fill="#959595"/><path clip-rule="evenodd" d="M102.219 63.156l-.308-.306-.538-.307-.999-.841-.384.153-.461-.383.691-.842-.23-.612.845-1.531-2.152-1.224-.384.383-1.307-.689.46-.689-.844-.536.384-.995-.231-.306-.307-.535.538-.307.46-.153-.153-.688-.307-.536-.231-.689v-.689l-.153-.153-.462-.153-.538-.153-.153-.536-.154-.153-.538.689-.692.842h-.461l.46-.842-.46-.153-.384.459-.308-.153-.23-.153-.308.153v.153l-.307.383-.231.306.23.536h-.384l-.307-.23-.384-.153-.308-.459-.307-.23-.231-.459-.461-.536-.538.842-2.844-1.301.999-1.913.692-.306.307-.536v-.153l-.153-.306-.308-.153.154-.383-.538-.306-.154-.383-.307-.459-.385-.689-.153-.688-.154-.536-.692-.459-.538-.153h-.461l-.538.153-.538.153-.308.536-.154.306.154.306v.536l-.154.535v.306l-.153.306-.846-.153-.538-.306-.307-.382-.231-.46-.307-.382h-.154l-.384.229-.154.153-.154-.153-.154-.382v-.689l-.153-.153-.538-.306h-.385l-.461.153-.384.153-.308-.306-.845-.536-.692-.459-.154-.383.154-.153.384-.306.308-.383.538-.153v-1.148l-.384-.382v-.306h.383l.155.153.46.306h.385l.308-.153.153-.306.385-.383.307-.153.538-.536.538-.459.308-.383v-1.301l-.308-.382-.538-.306.154-.307.692.153-.538-.688.23-.536.615-.153-.154-.689.538-.153-.153-.536-.385-.459-.307-.689v-.306l.154-.688v-.689h-.538l-.308-.306-.538.306-.154-.306-.538.153-.153-.689.538-.842-1.691-.689-.692-.459-.538-1.224-.615.153-.231.535h-.615l-.23-2.066-.154-.153v-.689h-.461l-.384.536h-.462l-.23-.536-.308-.153h-.538l-.692-.459.23-.383-.691-.306-1.537 1.684-.692-.536.385-.306-.385-.153-.461.153-.538-.383-.307.383-.385-.153 1.384-2.372-.538-.154-.461.307-.385-.307-.154.154-.153.153-.385.153h-.999l-.307-.306-.231-.536H64.4l-.461-.153h-.538l-.154-.689h-.384l-.154.995h-.307l-.692-.306-.307-.306h-.385l-.461-.23-.384-.153h-.998l-.154-.536h-1.537v-.612l-.154-1.071v-.613l-.231-.382-.307-.689-1-1.99-.537-1.53-.154-.536-.154-.995-2.383-1.531h-.153l-.385.23-1 .153-.845.153-1.152-.536-.231-.459-.461-.153-.692-.23-.692-.153-.692-.306-.845-.535-.615-.46-.538-.688-.538-.689-.308-.842-.384-.153v-.842l-.461-.229h-1.23l-1.46.535-.692.536-.538.459-.846.842h-.691l-.692-.153-.308-.153-.538-.153-.461.153-.692-.153h-.307l-.231-.842h-.615l-.384.153-.461.459-.692.383-.384.536h-.615v-.23h-1.538l-1.076-.306-.845-.383-.154.23.538.842.308.688.384.842.154.842-.154.612-.231 1.072v.459l.23.383.462.459.538.382-.154.46h-.384l-.692-.153-1.46.688-.231 1.378-.153.995-.154.842-.308.306-.538.382-1.153.46-.845.382h-.692l-.384.612v.383l-.154.842-.307 1.99.307.382.308.689.384.459-.384.383-.308.306-.307.153-.231.536.23.459.154.536.308.153.384.536.154.688.154.689h.845l.384.306.154.689v1.301l.308.842.384 1.071.154.995.153.842-.153.842v.842l-.385.306-.461.382-.538.307-.461.153-.538.535-.384.307-.308.688-.307.153-.538-.306-.308.536-.384.459-.308.383-.384.153-.154.459-.153.383-.154.153.154.535-.308.46-.231.382-.153.689-.154.306h-.307v-.306l-.385.153-.153.459-.846.383.307.842-1.153.459.539.383.153.459.46-.153.54.382.538.46.614.382.539.306.538.153v1.072l.153.306-.384.689-.154.689-.461-.23v.536l.846.995.46-.307v.46l.155.535.23.536.308.306.307.306.384.383v.153l-.153.306v.383l-.231.153-.307.382v1.148l.307 1.148-.154.383-.307.459-.384.383-.462.153h-.538l-.307.153h-.385l-.307.153-.154.383v.842l-.153.459-.231.382-.154.153-.461.307h-.384l-.308.229-.384.153-.461-.153-.231-.229-.154.229h-.307l-.154-.229-.538-.153h-.154l-.384-.154h-.845l-.154-.153h-.308l-.538-.153-.153-.382-.308-.306-.23-.383-1.691-.153-.308.383-.538-.23H7.137l-.153.383-.385.688-.307 2.143-1.384-.612-.461.459.308.383-.846 1.837-.307-.154h-.385l-.461-.382-.384.382-.154.307-.307.841-.692.536v.459l.46.153.385.23.538.459h.462l.538.153.46.536.539.689.307.306.538.229.308.153.23.307 1.46.841v.689l-.153.689.154.459.23.689.154.842.154.382.154.307.384.153-1.384 3.214v2.219l-.153.842-.154.306-.231.153.23.383-.23.689-.153.689-.154.459v.688l.692.307.307.229.384-.229.462-.153.384-.307 1.845 1.148-.154.153h-.538l-.154.383-.154.689-.384.459v.842l.538.383.538.153.846.153.46.382.846.306.538.307 1.153.535.385.153.307.383.154.306.154.536v.306l.23.306.308-.153.69-.153v-.995l.155-.153v-.536l.154-.688.384-.46.846-.535.692-.536.307-.153.692-.153.46-.153h1.385l.538.153.46.306.385.383.308.153h.384l.615-.153.692-.23.384-.153v-.995l1.307-.536.538.23.46.612.23.383.309.306.538.153.46.689.385.535.846.689.46.153.539-.306.308-.842.845-.229.538-.153.692-.995.307-.536-1.691-.995 2.383-3.52.692.153.307.306.385.383v.459l.845.842-1.691 3.061 1.307.536.846-.536 1.076 2.219 2.306-.153.384-.842.845-.688 1.69 3.214 2 1.454.23-.306.308-.306-.154-.689-.692-.995-.307-.383.46-.459-1.69-2.755.308-.153.384-.689.154-.306h.384l.46-.536.155-.153.692-.153h.153l.23-.689 1.154.154.307.153.385.229.307-.229.154-.153.23-.154.308.154v.382l.307.153v.306l-.307.153-.307.23.307.612.154.23.384.153h.307l.154.153h.692l.154-.153.23-.383v-.153l-.384-.153-.154-.153.154-.383-.307-.153-.385-.306-.461-.382-.231-.307v-.535l.385-.153.692.382.46.306.23.307.155.229h.692l.307-.229.692.229.154.153.307.153.538.306h.308l.23-.153.154.153h.692l.307.383h.308l.538-.153h.537l1 .153h2.229l.46-.153.386-.23.153-.153.308-.306.384-.153.46-.382.386-.307.307-.153h.308l.538.153.307-.153 3.92 3.138-.307.383.692 1.99.307-.153.154 1.224.384.459v.536l.154.153v.306l.154.23.153.842 5.458-4.439.69-.153.463.153.69.229h1.154l.692-.229.538-.153.692-.306.692-.383.46-.459.385-.536.154-.536.154-.612v-.842l-.154-1.071-.384-.995-.462-.842-.384-.306-.154-.536v-.306l2.537-3.367 2.92-3.061 2.69-3.215h.309l4.304.689 3.843-1.837.154-.229v-2.526l1.23-.306.307-.383-.154-.995.154-.153.846-.153.691-.153.539.306.307.153.154-.306.538-.382z" stroke="#fff"/></svg>