<svg width="136" height="42" xmlns="http://www.w3.org/2000/svg"><g transform="translate(1 1)" fill="none" fill-rule="evenodd"><rect stroke="#FFF" fill="#000" x="-.5" y="-.5" width="134.333" height="41" rx="3.556"/><path d="M51.318 30.311h2.17l-4.75-13.152h-2.196L41.794 30.31h2.096l1.212-3.49h5.013l1.203 3.49zm-3.782-10.764h.155l1.905 5.56h-3.974l1.914-5.56zm11.703.674c-1.349 0-2.515.675-3.117 1.805h-.146v-1.64H54.09v13.143h1.96v-4.722h.154c.52 1.048 1.64 1.668 3.054 1.668 2.506 0 4.101-1.978 4.101-5.131 0-3.154-1.595-5.123-4.12-5.123zm-.556 8.495c-1.64 0-2.67-1.294-2.67-3.363 0-2.078 1.03-3.373 2.68-3.373 1.658 0 2.652 1.267 2.652 3.364 0 2.105-.994 3.372-2.662 3.372zm10.72-8.495c-1.35 0-2.516.675-3.117 1.805h-.146v-1.64h-1.887v13.143h1.96v-4.722h.155c.52 1.048 1.64 1.668 3.053 1.668 2.507 0 4.102-1.978 4.102-5.131 0-3.154-1.595-5.123-4.12-5.123zm-.556 8.495c-1.64 0-2.67-1.294-2.67-3.363 0-2.078 1.03-3.373 2.679-3.373 1.659 0 2.652 1.267 2.652 3.364 0 2.105-.993 3.372-2.661 3.372zm8.824-1.941c.146 2.351 2.105 3.855 5.022 3.855 3.117 0 5.068-1.577 5.068-4.092 0-1.978-1.112-3.072-3.81-3.7l-1.45-.356c-1.713-.401-2.406-.94-2.406-1.878 0-1.185 1.076-1.96 2.69-1.96 1.53 0 2.588.757 2.779 1.97h1.987c-.118-2.216-2.069-3.774-4.74-3.774-2.87 0-4.785 1.558-4.785 3.9 0 1.933 1.085 3.082 3.464 3.638l1.695.41c1.741.41 2.507 1.011 2.507 2.014 0 1.167-1.203 2.014-2.844 2.014-1.76 0-2.98-.793-3.154-2.041h-2.023zm11.776-8.796v2.452h-1.631v1.65h1.631v5.605c0 1.914.866 2.68 3.045 2.68.382 0 .738-.046 1.048-.1v-1.632c-.274.027-.429.046-.73.046-.975 0-1.403-.456-1.403-1.495V22.08h2.224v-1.65h-2.224v-2.452h-1.96zm9.043 10.783c-1.705 0-2.662-1.25-2.662-3.418 0-2.151.957-3.41 2.662-3.41 1.695 0 2.661 1.259 2.661 3.41 0 2.16-.966 3.418-2.661 3.418zm0 1.74c2.898 0 4.675-1.94 4.675-5.158 0-3.2-1.786-5.15-4.675-5.15-2.899 0-4.685 1.95-4.685 5.15 0 3.217 1.777 5.159 4.685 5.159zm5.57-.19h1.959V24.45c0-1.394 1.048-2.333 2.525-2.333.328 0 .93.064 1.084.119v-1.933c-.21-.054-.583-.082-.866-.082-1.294 0-2.388.711-2.67 1.686h-.146v-1.522h-1.887v9.926zm9.98-8.45c1.45 0 2.397 1.012 2.443 2.57h-5.013c.11-1.55 1.121-2.57 2.57-2.57zm2.434 5.77c-.365.774-1.176 1.203-2.36 1.203-1.569 0-2.58-1.103-2.644-2.844v-.11h7.009v-.683c0-3.117-1.668-5.004-4.43-5.004-2.798 0-4.575 2.014-4.575 5.186s1.74 5.123 4.584 5.123c2.27 0 3.856-1.094 4.303-2.872h-1.887zM30.52 20.227c-.03-3.18 2.602-4.726 2.723-4.798-1.49-2.173-3.801-2.47-4.613-2.493-1.94-.205-3.822 1.16-4.81 1.16-1.008 0-2.53-1.14-4.17-1.107-2.112.032-4.087 1.255-5.17 3.152-2.235 3.87-.568 9.557 1.574 12.684 1.071 1.533 2.323 3.243 3.961 3.183 1.603-.066 2.202-1.022 4.136-1.022 1.917 0 2.479 1.022 4.15.982 1.72-.026 2.803-1.538 3.837-3.084 1.238-1.754 1.735-3.485 1.755-3.574-.04-.013-3.34-1.273-3.374-5.083m-3.156-9.349c.862-1.078 1.452-2.545 1.288-4.033-1.248.055-2.808.863-3.707 1.917-.795.93-1.505 2.452-1.322 3.885 1.402.104 2.841-.708 3.74-1.769" fill="#FFF"/><path d="M45.93 13.438c1.437 0 2.418-.76 2.657-2.053h-.968c-.195.755-.816 1.202-1.684 1.202-1.155 0-1.884-.925-1.884-2.387 0-1.45.738-2.383 1.88-2.383.846 0 1.519.525 1.688 1.328h.963c-.164-1.306-1.237-2.179-2.651-2.179-1.754 0-2.874 1.25-2.874 3.234 0 1.996 1.111 3.238 2.874 3.238zm4.707-.105v-2.105h.035l1.806 2.105h1.176l-2.092-2.422 2.014-2.144h-1.12l-1.784 1.953h-.035V8.767H49.7v4.566h.937zm5.093.078c.6 0 1.177-.32 1.441-.829h.022v.751h.898v-3.146c0-.916-.707-1.502-1.814-1.502-1.128 0-1.831.608-1.883 1.432h.885c.082-.408.421-.668.964-.668.572 0 .915.304.915.811v.352l-1.25.074c-1.085.06-1.697.551-1.697 1.35 0 .82.63 1.375 1.52 1.375zm.26-.742c-.498 0-.833-.26-.833-.66 0-.39.317-.637.877-.677l1.124-.069v.36c0 .595-.512 1.046-1.167 1.046zm7.043.664V8.767h-.938v1.871c-.195.204-.555.343-1.02.343-.59 0-.894-.356-.894-.925V8.767h-.937v1.359c0 .998.594 1.654 1.68 1.654.494 0 .854-.126 1.11-.326h.061v1.88h.938zm2.61.078c.599 0 1.176-.32 1.441-.829h.022v.751h.898v-3.146c0-.916-.707-1.502-1.814-1.502-1.129 0-1.832.608-1.884 1.432h.886c.082-.408.42-.668.963-.668.573 0 .916.304.916.811v.352l-1.25.074c-1.085.06-1.697.551-1.697 1.35 0 .82.63 1.375 1.52 1.375zm.26-.742c-.499 0-.833-.26-.833-.66 0-.39.317-.637.877-.677l1.124-.069v.36c0 .595-.512 1.046-1.168 1.046zm5.332.664V9.51h1.428v-.743h-3.798v.743h1.428v3.823h.942zm4.182 0c1.055 0 1.736-.612 1.736-1.58 0-.963-.681-1.575-1.736-1.575h-.868v-1.41h-.938v4.565h1.806zm-.083-.738h-.785v-1.684h.785c.534 0 .886.335.886.842 0 .504-.347.842-.886.842zm7.031.738c.99 0 1.606-.512 1.606-1.315 0-.564-.39-.972-.98-1.05v-.035c.437-.082.776-.516.776-.99 0-.729-.538-1.176-1.428-1.176h-2.075v4.566h2.101zm-.317-2.669h-.855V9.45h.95c.452 0 .7.217.7.603 0 .408-.265.612-.795.612zm.17 1.988h-1.025v-1.333h.916c.616 0 .925.217.925.66 0 .439-.291.673-.816.673z" fill="#FFF" fill-rule="nonzero"/></g></svg>