<svg width="62" height="64" xmlns="http://www.w3.org/2000/svg"><path d="M57.806 0a4.134 4.134 0 014.13 4.129v51.613a4.134 4.134 0 01-4.13 4.129v3.097c0 .57-.462 1.032-1.032 1.032h-3.097c-.39 0-.748-.22-.923-.57l-1.779-3.559h-2.459v-2.065h9.29a2.067 2.067 0 002.065-2.064V4.129a2.067 2.067 0 00-2.065-2.064H44.387v21.677h-2.064V2.065h-13.42a2.067 2.067 0 00-2.064 2.064v1.032h-2.065V4.13A4.134 4.134 0 0128.904 0zM6.946 37.167a7.226 7.226 0 017.506 7.22v3.57c2.827-.77 6.951-1.505 12.387-1.505 5.435 0 9.56.735 12.387 1.505v-3.468c0-3.975 3.186-7.261 7.103-7.327a7.226 7.226 0 017.348 7.225 7.237 7.237 0 01-6.193 7.152v4.203a4.134 4.134 0 01-4.13 4.129v3.097c0 .57-.461 1.032-1.031 1.032h-3.097a1.03 1.03 0 01-.923-.57l-1.78-3.559H17.154l-1.78 3.558a1.03 1.03 0 01-.922.571h-3.097c-.57 0-1.032-.462-1.032-1.032V59.87a4.134 4.134 0 01-4.13-4.13v-4.2a7.23 7.23 0 01-6.188-7.434 7.252 7.252 0 016.94-6.94zm7.9 22.704h-2.459v2.064h1.427l1.032-2.064zm26.444 0h-2.459l1.033 2.064h1.426v-2.064zm14.452 0h-2.459l1.032 2.064h1.427v-2.064zm-9.379-20.644c-2.797.046-5.073 2.407-5.073 5.262v4.105c1.628.567 2.483 1.037 2.57 1.087l-1.011 1.8c-.051-.03-5.455-2.965-16.01-2.965-10.556 0-15.96 2.936-16.013 2.966l-1.01-1.801c.089-.05.944-.52 2.571-1.087v-4.207a5.161 5.161 0 00-5.364-5.157 5.178 5.178 0 00-4.955 4.955 5.161 5.161 0 005.158 5.363c.57 0 1.032.463 1.032 1.033v5.16a2.067 2.067 0 002.065 2.065h33.032a2.067 2.067 0 002.064-2.064V50.58c0-.57.463-1.033 1.033-1.033a5.161 5.161 0 10-.089-10.321zM7.226 41.29a3.097 3.097 0 110 6.194 3.097 3.097 0 010-6.194zm39.226 0a3.097 3.097 0 110 6.194 3.097 3.097 0 010-6.194zM7.226 43.355a1.032 1.032 0 100 2.064 1.032 1.032 0 000-2.064zm39.226 0a1.032 1.032 0 100 2.064 1.032 1.032 0 000-2.064zM22.71 42.323v2.064h-2.065v-2.064h2.065zm10.322 0v2.064h-2.064v-2.064h2.064zm-5.161-5.162v2.065h-2.065V37.16h2.065zm-10.323 0v2.065h-2.064V37.16h2.064zm20.646 0v2.065h-2.065V37.16h2.065zm5.16-11.355a4.134 4.134 0 014.13 4.13v5.16h-2.065v-5.16a2.067 2.067 0 00-2.064-2.065H10.323a2.067 2.067 0 00-2.065 2.064v5.162H6.194v-5.162a4.134 4.134 0 014.129-4.129zM22.71 32v2.065h-2.065V32h2.065zm10.322 0v2.065h-2.064V32h2.064zM18.581 5.161v2.065h8.258c.537 0 .984.411 1.028.946L28.9 20.56a1.032 1.032 0 01-1.029 1.118h-9.29v2.065h-2.065v-2.065h-9.29a1.032 1.032 0 01-1.029-1.118L7.23 8.172a1.032 1.032 0 011.03-.946h8.257V5.16h2.065zm7.308 4.13H9.208l-.86 10.322h18.401L25.89 9.29z" fill="#F7F8FA"/></svg>