<svg width="137" height="42" xmlns="http://www.w3.org/2000/svg" xmlns:xlink="http://www.w3.org/1999/xlink"><defs><linearGradient x1="50%" y1="0%" x2="50%" y2="38.913%" id="b"><stop stop-color="#FBDA09" offset="0%"/><stop stop-color="#FFBC00" offset="100%"/></linearGradient><linearGradient x1="37.516%" y1="58.476%" x2="54.821%" y2="39.083%" id="c"><stop stop-color="#01E2FF" offset="0%"/><stop stop-color="#01C4FF" offset="100%"/></linearGradient><linearGradient x1="20.281%" y1="32.433%" x2="83.82%" y2="69.755%" id="e"><stop stop-color="#28D781" offset="0%"/><stop stop-color="#02F076" offset="100%"/></linearGradient><linearGradient x1="74.488%" y1="35.169%" x2="10.108%" y2="68.753%" id="f"><stop stop-color="#F2414E" offset="0%"/><stop stop-color="#E02554" offset="100%"/></linearGradient><path d="M10.455 2.83c.763-1.34 2.002-1.337 2.763 0L24.08 21.928c.763 1.342.122 2.429-1.42 2.429H1.013c-1.547 0-2.18-1.092-1.42-2.429L10.455 2.83z" id="a"/></defs><g transform="translate(1.111 1)" fill="none" fill-rule="evenodd"><rect stroke="#FFF" fill="#000" x="-.5" y="-.5" width="134.333" height="41" rx="4.444"/><path d="M101.04 18.4l.024.005c.28.057 2.876.669 2.876 3.82 0 3.331-2.9 3.825-2.9 3.825H96V18.4h5.04zm-.636 1.85h-3.426v4.106h3.426c.1-.003 1.552-.071 1.552-2.053 0-2.053-1.557-2.053-1.557-2.053z" fill="#FFF"/><path fill="#FFF" d="M95.556 18.4h1.778v12.444h-1.778zm9.422 0h1.778v12.444h-1.778zm6.527 4.178c3.003 0 3.586 2.012 3.616 2.785l.001.055v5.422h-1.777v-.885c-.49.404-1.273.784-2.51.861-2.832.177-2.833-2.408-2.833-2.582v-.023c-.007-.286-.067-2.27 2.113-2.594 1.596-.238 2.713.158 3.23.409v-.365c-.126-.484-.52-1.375-1.698-1.375-1.619 0-1.976.875-1.976.875l-1.481-.875.012-.023c.11-.204.988-1.685 3.303-1.685zm-1.831 5.712c-.12 1.924 3.285 1 3.59-.364 0-.433-.046-.637-.046-.637s-3.425-.923-3.544 1.001zm7.393-5.446l2.28 5.417 2.263-5.373h1.778l-4.81 11.423H116.8l1.658-3.939-3.17-7.528h1.779zm-29.251-.266c2.98 0 3.76 3.175 3.76 3.175l-5.623 2.324s.363 1.285 2.054 1.294c1.323.007 2.07-1.173 2.07-1.173l1.427.966s-1.151 1.861-3.509 1.861c-2.897 0-4.173-2.533-4.173-4.178 0-1.585 1.013-4.27 3.994-4.27zm-.172 1.64c-2.295.42-2.006 2.427-2.006 2.427l3.798-1.55s-.707-1.076-1.792-.878zM81.156 18.4h1.881v12.418h-1.881zm-5.338 4.18c1.572-.045 2.328 1.043 2.328 1.043v-.775l1.738.015v7.835c0 2.002-1.192 4.115-3.998 4.115s-3.712-2.486-3.712-2.486l1.597-.671s.487 1.532 2.198 1.532c1.95 0 2.177-1.773 2.177-2.38v-.85s-.674 1.055-2.35 1.055c-1.816 0-3.974-1.556-3.974-4.209 0-2.652 2.032-4.17 3.996-4.225zm.127 1.653c-1.268 0-2.296 1.161-2.296 2.594 0 1.432 1.028 2.594 2.296 2.594 1.268 0 2.296-1.162 2.296-2.594 0-1.433-1.028-2.594-2.296-2.594zm-9.135-1.655a4.227 4.227 0 014.23 4.222 4.227 4.227 0 01-4.231 4.222 4.227 4.227 0 01-4.232-4.222 4.227 4.227 0 014.232-4.222zm-.028 1.656c-1.314 0-2.379 1.149-2.379 2.566 0 1.417 1.065 2.566 2.379 2.566s2.379-1.149 2.379-2.566c0-1.417-1.065-2.566-2.38-2.566zm-9.128-1.656a4.227 4.227 0 014.232 4.222 4.227 4.227 0 01-4.232 4.222 4.227 4.227 0 01-4.232-4.222 4.227 4.227 0 014.232-4.222zm-.028 1.656c-1.313 0-2.378 1.149-2.378 2.566 0 1.417 1.065 2.566 2.378 2.566 1.314 0 2.379-1.149 2.379-2.566 0-1.417-1.065-2.566-2.379-2.566zm-10.899-.318h5.587l-.055 1.766h-5.532z"/><path d="M46.644 17.956c1.892 0 3.483.66 4.57 1.805l-1.277 1.276c-.798-.814-1.93-1.26-3.238-1.26a4.724 4.724 0 00-4.73 4.719 4.724 4.724 0 004.73 4.719c2.612 0 4.467-1.507 4.463-4.72.004-.198 0-.392-.014-.58h1.63l.003.067c.602 4.41-2.337 6.985-5.921 7.053l-.216.001c-3.62-.005-6.555-2.928-6.555-6.54s2.935-6.54 6.555-6.54z" fill="#FFF"/><g transform="translate(9.134 7.271)"><mask id="d" fill="#fff"><use xlink:href="#a"/></mask><use fill="url(#b)" transform="rotate(90 11.836 13.094)" xlink:href="#a"/><path fill="url(#c)" mask="url(#d)" d="M.555.542l12.426 12.35L.395 25.73z"/><path fill="url(#e)" mask="url(#d)" d="M-2-2l14.98 14.896 4.453-4.249z"/><path fill="url(#f)" mask="url(#d)" d="M12.981 12.893l6.818 6.872-20.368 6.872z"/></g><path d="M43.264 14.326c1.437 0 2.417-.76 2.656-2.053h-.968c-.195.756-.816 1.203-1.684 1.203-1.154 0-1.883-.925-1.883-2.387 0-1.45.737-2.383 1.879-2.383.846 0 1.519.525 1.688 1.328h.964c-.165-1.307-1.237-2.179-2.652-2.179-1.754 0-2.873 1.25-2.873 3.234 0 1.996 1.11 3.237 2.873 3.237zm4.707-.104v-2.105h.034l1.806 2.105h1.176L48.895 11.8l2.014-2.144h-1.12l-1.784 1.953h-.034V9.656h-.938v4.566h.938zm5.093.078c.599 0 1.176-.32 1.44-.829h.022v.751h.899v-3.146c0-.916-.708-1.502-1.814-1.502-1.129 0-1.832.607-1.884 1.432h.885c.083-.408.421-.668.964-.668.573 0 .916.303.916.811v.352l-1.25.074c-1.085.06-1.697.55-1.697 1.35 0 .82.629 1.375 1.519 1.375zm.26-.742c-.499 0-.833-.26-.833-.66 0-.39.317-.638.877-.677l1.124-.07v.361c0 .595-.512 1.046-1.168 1.046zm7.042.664V9.656h-.938v1.87c-.195.205-.555.344-1.02.344-.59 0-.894-.356-.894-.925V9.656h-.937v1.359c0 .998.595 1.653 1.68 1.653.494 0 .855-.125 1.11-.325h.061v1.88h.938zm2.61.078c.6 0 1.177-.32 1.441-.829h.022v.751h.899v-3.146c0-.916-.708-1.502-1.815-1.502-1.128 0-1.831.607-1.883 1.432h.885c.082-.408.421-.668.964-.668.572 0 .915.303.915.811v.352l-1.25.074c-1.085.06-1.697.55-1.697 1.35 0 .82.63 1.375 1.52 1.375zm.26-.742c-.498 0-.833-.26-.833-.66 0-.39.317-.638.877-.677l1.124-.07v.361c0 .595-.512 1.046-1.167 1.046zm5.333.664v-3.824h1.428v-.742h-3.798v.742h1.428v3.824h.942zm4.181 0c1.055 0 1.736-.612 1.736-1.58 0-.963-.681-1.575-1.736-1.575h-.868v-1.41h-.937v4.565h1.805zm-.082-.738h-.786V11.8h.786c.534 0 .885.335.885.842 0 .504-.347.842-.885.842zm7.03.738c.99 0 1.606-.512 1.606-1.315 0-.564-.39-.972-.98-1.05v-.035c.438-.082.776-.516.776-.99 0-.729-.538-1.176-1.428-1.176h-2.074v4.566h2.1zm-.316-2.669h-.855v-1.215h.95c.451 0 .699.217.699.603 0 .408-.265.612-.794.612zm.169 1.988h-1.024v-1.333h.915c.617 0 .925.217.925.66 0 .438-.291.673-.816.673z" fill="#FFF" fill-rule="nonzero"/></g></svg>