<svg width="265" height="32" viewBox="0 0 265 32" fill="none" xmlns="http://www.w3.org/2000/svg">
<path d="M1.89442 31.2264H0.913722C0.586026 31.2264 0.424171 31.052 0.424171 30.6968V23.3096C0.424171 22.8136 0.602769 22.5656 0.955979 22.5656H1.79396C2.02279 22.5656 2.16391 22.6392 2.23886 22.7928C2.3138 22.9416 2.41347 23.4632 2.54184 24.3488C3.07763 27.7712 4.10457 29.4848 6.01095 29.4848C7.00759 29.4848 7.79773 29.0496 8.36302 28.1928C8.93629 27.3288 9.21854 26.2808 9.21854 25.0568C9.21854 23.7896 8.91955 22.6144 8.30482 21.5344C7.69807 20.4504 6.51804 18.9904 4.7775 17.148C3.42686 15.7416 2.4629 14.6448 1.89362 13.8624C1.31047 13.0566 0.847172 12.17 0.518254 11.2304C0.170625 10.2424 0 9.1712 0 7.9912C0 5.8232 0.548552 4.044 1.64087 2.6448C2.73798 1.2456 4.06789 0.5504 5.64658 0.5504C6.36496 0.5504 7.13755 0.7528 7.96437 1.1584C8.33033 1.3488 8.58388 1.436 8.71703 1.436C8.84141 1.436 8.98652 1.3824 9.14439 1.2744C9.30226 1.1792 9.4976 1.1336 9.7344 1.1336H10.4616C10.8395 1.1336 11.0308 1.308 11.0308 1.6632V8.152C11.0308 8.4792 10.8897 8.64 10.5987 8.64H9.68896C9.45614 8.64 9.30226 8.5784 9.2321 8.4544C9.16114 8.3344 9.03277 7.8544 8.84939 7.0352C8.23067 4.204 7.22526 2.7808 5.83713 2.7808C5.08527 2.7808 4.48728 3.0952 4.03441 3.7248C3.58153 4.3488 3.3527 5.0768 3.3527 5.9008C3.3527 6.8528 3.61901 7.8248 4.15002 8.8264C4.68262 9.828 5.73747 11.136 7.32492 12.7496C9.36047 14.8312 10.7653 16.652 11.5427 18.224C12.3273 19.7968 12.7132 21.5056 12.7132 23.3472C12.7132 25.8304 12.0658 27.8496 10.7566 29.3968C9.45694 30.9528 7.90218 31.7312 6.10822 31.7312C5.30533 31.7312 4.57419 31.52 3.5026 31.1064C3.16215 30.9568 2.91657 30.8872 2.77146 30.8872C2.63831 30.8872 2.47247 30.9488 2.26437 31.0816C2.11448 31.1808 1.9901 31.2264 1.89442 31.2264ZM27.2386 31.2264H13.764C13.4531 31.2264 13.2912 31.0688 13.2912 30.7544V29.8936C13.2912 29.6208 13.5065 29.3184 13.9394 28.9912C14.3174 28.6856 14.5167 28.2176 14.5167 27.576V4.3904C14.5167 3.708 14.2759 3.1944 13.7856 2.8592C13.4571 2.6352 13.2952 2.3752 13.2952 2.0728V1.1336C13.2952 0.8856 13.4571 0.7656 13.7688 0.7656H23.8819C24.0645 0.7656 24.405 0.7448 24.92 0.7032C25.3769 0.6664 25.6639 0.6456 25.7891 0.6456C26.2165 0.6456 26.4365 0.7656 26.4365 0.9976V6.7616C26.4365 7.0592 26.4078 7.2376 26.3488 7.2952C26.2954 7.3576 26.1256 7.3864 25.8465 7.3864H25.1194C24.8036 7.3864 24.625 7.2048 24.5884 6.836C24.4425 5.8224 24.1849 4.9448 23.811 4.2248C23.441 3.5008 22.6892 3.1408 21.5626 3.1408H19.0829V14.2224H19.9839C20.55 14.2224 20.9319 14.1152 21.144 13.904C21.3513 13.6848 21.6128 13.0104 21.9253 11.876C22.033 11.508 22.1031 11.3096 22.1446 11.268C22.1861 11.2312 22.3025 11.2104 22.5026 11.2104H23.3661C23.7073 11.2104 23.8772 11.3712 23.8772 11.6984V19.0848C23.8772 19.3992 23.7153 19.5528 23.4036 19.5528H22.5026C22.3033 19.5528 22.1613 19.5072 22.0824 19.4032C22.0075 19.304 21.9038 19.0024 21.7754 18.4976C21.5299 17.5704 21.2763 17.0032 21.0068 16.7968C20.7278 16.5976 20.3498 16.4944 19.8643 16.4944H19.0789V28.8968H21.734C22.7147 28.8968 23.3956 28.6648 23.7775 28.2008C24.1602 27.7376 24.6298 26.4672 25.1943 24.3904C25.3275 23.9264 25.5643 23.6864 25.9047 23.6864H26.7483C27.0768 23.6864 27.2386 23.848 27.2386 24.1744V31.2264ZM41.8382 23.7608C41.7099 26.1944 41.1119 28.1064 40.0443 29.5088C38.9719 30.912 37.5838 31.6112 35.8847 31.6112C33.4417 31.6112 31.4851 30.2912 30.0101 27.6512C28.5391 25.0112 27.7999 21.1416 27.7999 16.0512C27.7999 11.028 28.5143 7.1504 29.9519 4.432C31.3855 1.7128 33.2296 0.352 35.49 0.352C36.4165 0.352 37.4466 0.6624 38.5772 1.296C38.7351 1.3784 38.8555 1.416 38.9344 1.416C39.0261 1.416 39.1545 1.3408 39.3251 1.1792C39.416 1.0432 39.5284 0.9728 39.6528 0.96H40.7794C41.0242 0.96 41.1534 1.1504 41.1534 1.5272V7.9496C41.1534 8.3176 41.0282 8.504 40.7786 8.504H39.9103C39.6321 8.504 39.4495 8.4296 39.3498 8.2848C39.2502 8.14 39.117 7.7464 38.9472 7.1088C38.1499 4.0928 37.0934 2.5824 35.785 2.5824C35.0037 2.5824 34.4137 2.9752 33.9943 3.7536C33.5749 4.5392 33.2552 6.0208 33.0303 8.1976C32.8083 10.3975 32.6973 12.6073 32.6978 14.8184C32.6978 19.6976 32.9769 23.2808 33.5247 25.5608C34.0732 27.8456 35.0372 28.9872 36.4165 28.9872C38.0622 28.9872 39.1505 27.1664 39.6656 23.5208L41.8382 23.7608ZM50.1853 31.6152C47.4473 31.6152 45.4078 30.2496 44.062 27.5064C42.7193 24.7664 42.0463 20.972 42.0463 16.1304C42.0463 11.2888 42.7241 7.4488 44.0819 4.6136C45.4365 1.776 47.4059 0.356 49.994 0.356C52.4162 0.356 54.3401 1.66 55.7609 4.2744C57.1865 6.8984 57.8969 10.7672 57.8969 15.8984C57.8969 21.1288 57.1945 25.0648 55.7865 27.684C54.3736 30.308 52.5079 31.6152 50.1853 31.6152ZM49.9701 29.5048C50.5553 29.5048 51.1038 29.124 51.5894 28.3664C52.0797 27.6096 52.4377 25.532 52.645 22.1424C52.8571 18.7504 52.956 15.6384 52.956 12.8032C52.956 10.2416 52.7989 8.144 52.4872 6.4888C52.1762 4.8376 51.831 3.7736 51.461 3.2984C51.0951 2.8224 50.6175 2.5824 50.0442 2.5824C49.5618 2.5824 49.1217 2.764 48.735 3.1328C48.3491 3.4928 48.0461 4.1464 47.8261 5.0984C47.6092 6.0456 47.4226 7.8952 47.256 10.6472C47.0905 13.5023 47.0089 16.3617 47.0112 19.2216C47.0112 22.9168 47.252 25.5528 47.7384 27.1296C48.2327 28.7104 48.9774 29.5048 49.9701 29.5048ZM70.5439 17.256V4.3944C70.5439 3.724 70.2944 3.224 69.7961 2.88C69.4596 2.6608 69.289 2.392 69.289 2.0776V1.216C69.289 0.9096 69.4556 0.7648 69.7961 0.7648H74.2419C74.5329 0.7648 74.678 0.8976 74.678 1.1744V2.0728C74.678 2.3704 74.5114 2.6432 74.1837 2.8752C73.6726 3.2312 73.4151 3.7312 73.4151 4.3856V30.7328C73.4151 31.1512 73.2237 31.3616 72.841 31.3616H71.9815C71.5828 31.3616 71.3038 31.1552 71.1547 30.7328L62.995 9.3808V27.576C62.995 28.2584 63.2477 28.768 63.7548 29.1064C64.0873 29.3304 64.2539 29.5912 64.2539 29.8928V30.7744C64.2539 31.0808 64.0873 31.2216 63.7468 31.2216H59.3552C59.0642 31.2216 58.9231 31.0848 58.9231 30.812V29.8928C58.9231 29.6072 59.0929 29.3464 59.4381 29.1064C59.9285 28.7544 60.186 28.2424 60.186 27.576V4.3904C60.186 3.72 59.9285 3.2192 59.4381 2.88C59.0929 2.656 58.9231 2.388 58.9231 2.0776V1.2128C58.9231 0.9104 59.0929 0.7656 59.4334 0.7656H63.589C63.888 0.7656 64.0913 0.7984 64.1997 0.8736C64.3034 0.948 64.407 1.1176 64.5107 1.3944L70.5439 17.256ZM76.0159 2.0736V1.0552C76.0159 0.8568 76.157 0.7656 76.4648 0.7656H81.5748C84.4579 0.7656 86.8968 1.9368 88.875 4.2832C90.8563 6.6248 91.841 10.428 91.841 15.696C91.841 18.4104 91.542 21.0096 90.948 23.48C90.35 25.9544 89.394 27.8664 88.0729 29.2112C86.7557 30.56 84.5328 31.2264 81.4129 31.2264H76.3603C76.1283 31.2264 76.0119 31.1144 76.0119 30.8904V29.8936C76.0119 29.608 76.1698 29.3472 76.4983 29.1072C76.9799 28.7392 77.2286 28.2304 77.2286 27.5768V4.3904C77.2286 3.72 77.0133 3.236 76.5764 2.9384C76.2025 2.6608 76.0159 2.3752 76.0159 2.0736ZM81.7741 3.0952V28.9544C83.0873 28.9544 84.1055 28.64 84.8238 28.0152C85.547 27.3864 86.066 26.0168 86.3945 23.8976C86.727 21.7872 86.8849 19.3536 86.8849 16.6144C86.8849 13.6472 86.7557 11.2968 86.5149 9.5584C86.2654 7.8256 85.9496 6.5176 85.5797 5.636C85.2057 4.7504 84.7409 4.1296 84.1924 3.7656C83.6438 3.3936 82.8417 3.1736 81.7741 3.0952ZM108.518 3.116V14.616H109.815C110.326 14.616 110.683 14.504 110.891 14.272C111.091 14.0448 111.294 13.5856 111.51 12.8944C111.664 12.3856 111.771 12.092 111.834 12.0216C111.897 11.9512 112.046 11.9176 112.291 11.9176H113.16C113.5 11.9176 113.671 12.0792 113.671 12.3856V19.1432C113.671 19.4696 113.537 19.6312 113.259 19.6312H112.291C112.07 19.6312 111.921 19.5944 111.85 19.5072C111.775 19.424 111.681 19.1888 111.568 18.8112C111.319 17.9344 111.044 17.4048 110.758 17.2144C110.481 17.0268 110.153 16.9272 109.819 16.9288H108.522V27.564C108.522 28.2424 108.768 28.756 109.266 29.0912C109.607 29.3104 109.777 29.5792 109.777 29.8776V30.7584C109.777 31.0568 109.607 31.2096 109.266 31.2096H103.129C102.839 31.2096 102.698 31.0736 102.698 30.796V29.872C102.698 29.5864 102.868 29.3264 103.209 29.0864C103.707 28.7344 103.961 28.2296 103.961 27.5584V4.3704C103.961 3.7 103.695 3.1912 103.172 2.84C102.814 2.62 102.644 2.36 102.644 2.0616V1.176C102.644 0.8904 102.785 0.7456 103.076 0.7456H113.263C113.566 0.7456 114.045 0.7216 114.697 0.6672C115.054 0.6256 115.261 0.6088 115.328 0.6088C115.644 0.6088 115.835 0.6464 115.902 0.7288C115.964 0.808 116.001 0.9768 116.001 1.2384V7.072C116.001 7.4112 115.81 7.5768 115.428 7.5768H114.659C114.423 7.5768 114.269 7.5312 114.198 7.4328C114.128 7.3288 114.049 7.0104 113.957 6.46C113.741 5.148 113.38 4.2544 112.869 3.7992C112.349 3.3392 111.589 3.1112 110.596 3.1112H108.518V3.116ZM122.711 16.9416V27.56C122.711 28.2384 122.96 28.752 123.455 29.0872C123.8 29.3064 123.966 29.5752 123.966 29.8736V30.7544C123.966 31.0528 123.8 31.2056 123.455 31.2056H117.322C117.031 31.2056 116.89 31.0696 116.89 30.792V29.8688C116.89 29.584 117.061 29.3232 117.401 29.0832C117.9 28.7312 118.149 28.2264 118.149 27.5552V4.3712C118.149 3.7008 117.9 3.2 117.401 2.8608C117.065 2.6368 116.89 2.368 116.89 2.0576V1.192C116.89 0.8944 117.061 0.7448 117.401 0.7448H122.558C125.47 0.7448 127.684 1.3952 129.209 2.7024C130.73 4.0144 131.486 5.8968 131.486 8.3672C131.486 12.2984 129.658 14.8392 125.998 15.9856C127.077 16.5112 127.888 17.0992 128.445 17.7616C129.005 18.4232 129.438 19.3912 129.733 20.6704L131.17 26.8816C131.353 27.676 131.536 28.2136 131.711 28.4952C131.889 28.7808 132.18 29.0416 132.583 29.2896C132.699 29.364 132.762 29.488 132.762 29.6576V30.7752C132.762 31.0648 132.616 31.2056 132.329 31.2056H128.407C128.025 31.2056 127.784 30.9992 127.68 30.5768L124.988 19.8056C124.705 18.6176 124.382 17.848 124.037 17.496C123.687 17.14 123.247 16.9584 122.711 16.9416ZM122.711 3.116V14.616C124.128 14.616 125.171 14.1736 125.84 13.284C126.509 12.3984 126.845 10.8128 126.845 8.5496C126.845 6.3232 126.509 4.8664 125.831 4.1672C125.15 3.4632 124.111 3.116 122.711 3.116ZM139.472 27.56C139.472 28.2384 139.716 28.752 140.22 29.0872C140.556 29.3064 140.731 29.5752 140.731 29.8736V30.7544C140.731 31.0528 140.56 31.2056 140.22 31.2056H134.079C133.788 31.2056 133.647 31.0696 133.647 30.792V29.8688C133.647 29.584 133.812 29.3232 134.158 29.0832C134.656 28.7312 134.906 28.2264 134.906 27.5552V4.3712C134.906 3.7008 134.661 3.2 134.158 2.8608C133.817 2.6368 133.647 2.368 133.647 2.0576V1.192C133.647 0.8944 133.812 0.7448 134.158 0.7448H140.29C140.577 0.7448 140.727 0.8856 140.727 1.1544V2.0568C140.727 2.3552 140.556 2.624 140.216 2.86C139.713 3.212 139.468 3.712 139.468 4.3704V27.56H139.472ZM156.199 31.2056H142.729C142.409 31.2056 142.251 31.048 142.251 30.7336V29.8728C142.251 29.6 142.467 29.2976 142.903 28.9752C143.281 28.6728 143.473 28.2016 143.473 27.5592V4.3704C143.473 3.688 143.236 3.1832 142.745 2.84C142.417 2.62 142.251 2.36 142.251 2.0616V1.1176C142.251 0.8696 142.409 0.7456 142.729 0.7456H152.837C153.016 0.7456 153.369 0.7296 153.88 0.688C154.338 0.6504 154.628 0.6256 154.744 0.6256C155.176 0.6256 155.396 0.7456 155.396 0.9816V6.7464C155.396 7.044 155.368 7.2216 155.306 7.28C155.243 7.3376 155.081 7.3664 154.802 7.3664H154.075C153.76 7.3664 153.581 7.1848 153.544 6.8168C153.398 5.8024 153.141 4.9288 152.767 4.2056C152.393 3.4808 151.641 3.1208 150.511 3.1208H148.035V14.2072H148.936C149.501 14.2072 149.892 14.0992 150.104 13.884C150.311 13.6688 150.569 12.9944 150.884 11.8568C150.989 11.4888 151.068 11.2896 151.097 11.2528C151.134 11.2112 151.258 11.1904 151.45 11.1904H152.318C152.658 11.1904 152.833 11.352 152.833 11.6784V19.0608C152.833 19.3752 152.675 19.5368 152.359 19.5368H151.45C151.258 19.5368 151.117 19.4872 151.042 19.388C150.959 19.2888 150.864 18.9864 150.727 18.4776C150.494 17.5504 150.236 16.984 149.962 16.7768C149.684 16.5784 149.306 16.4744 148.819 16.4744H148.035V28.872H150.685C151.67 28.872 152.356 28.644 152.737 28.176C153.12 27.7128 153.585 26.4472 154.15 24.3696C154.283 23.9016 154.52 23.6616 154.857 23.6616H155.704C156.033 23.6616 156.199 23.8272 156.199 24.1544V31.2056ZM168.659 17.232V4.3736C168.659 3.7112 168.409 3.2024 167.911 2.8632C167.566 2.6392 167.4 2.3752 167.4 2.06V1.196C167.4 0.8936 167.566 0.744 167.911 0.744H172.352C172.643 0.744 172.788 0.8848 172.788 1.1536V2.056C172.788 2.3544 172.626 2.6232 172.299 2.8592C171.788 3.2112 171.525 3.7112 171.525 4.3696V30.7168C171.525 31.1344 171.339 31.3408 170.956 31.3408H170.093C169.697 31.3408 169.419 31.1344 169.266 30.7168L161.105 9.36V27.56C161.105 28.2376 161.359 28.7512 161.862 29.0864C162.198 29.3056 162.364 29.5744 162.364 29.8728V30.7536C162.364 31.052 162.194 31.2048 161.857 31.2048H157.465C157.17 31.2048 157.033 31.0688 157.033 30.7912V29.868C157.033 29.5832 157.204 29.3224 157.549 29.0824C158.044 28.7304 158.292 28.2256 158.292 27.5544V4.3712C158.292 3.7008 158.04 3.2 157.549 2.8608C157.204 2.6368 157.033 2.368 157.033 2.0576V1.192C157.033 0.8944 157.204 0.7448 157.549 0.7448H161.699C161.999 0.7448 162.198 0.7824 162.302 0.8568C162.41 0.9272 162.518 1.1048 162.622 1.3696L168.659 17.232ZM173.919 2.0568V1.0344C173.919 0.84 174.073 0.7448 174.372 0.7448H179.486C182.374 0.7448 184.805 1.916 186.786 4.2624C188.764 6.6088 189.753 10.4072 189.753 15.6752C189.753 18.3896 189.458 20.9848 188.859 23.4592C188.265 25.9336 187.305 27.8456 185.989 29.1904C184.671 30.5392 182.452 31.2064 179.328 31.2064H174.272C174.035 31.2064 173.919 31.0944 173.919 30.8704V29.8736C173.919 29.588 174.077 29.3272 174.409 29.0872C174.895 28.7192 175.136 28.2136 175.136 27.56V4.3704C175.136 3.7 174.924 3.22 174.488 2.9176C174.109 2.6448 173.919 2.3592 173.919 2.0568ZM179.681 3.0752V28.9336C180.998 28.9336 182.012 28.6192 182.731 27.9944C183.454 27.3656 183.978 25.992 184.301 23.8816C184.63 21.7624 184.796 19.3376 184.796 16.5936C184.796 13.6272 184.667 11.2808 184.422 9.5424C184.172 7.8048 183.857 6.4968 183.487 5.6112C183.113 4.7344 182.648 4.1096 182.103 3.7408C181.551 3.3728 180.745 3.1536 179.681 3.0752ZM206.75 11.6736V5.5776C206.75 4.0176 206.272 3.6744 205.362 3.6744C204.407 3.6744 203.924 4.0184 203.924 5.5784V9.3808C203.924 11.5824 211.354 18.2408 211.354 21.3608V26.8064C211.354 30.8288 208.187 31.996 205.316 31.996C202.495 31.996 199.325 30.8288 199.325 26.8064V19.7184H203.92V26.4176C203.92 27.9776 204.403 28.3216 205.358 28.3216C206.272 28.3216 206.746 27.9816 206.746 26.4176V23.1776C206.746 18.8496 199.321 14.612 199.321 9.592V5.1888C199.321 1.1672 202.491 0 205.312 0C208.183 0 211.349 1.1672 211.349 5.1888V11.6736H206.75ZM224.865 0.608V4.6304H220.83V31.396H216.231V4.6264H212.188V0.608H224.865ZM225.741 5.1888C225.741 1.1672 228.907 0 231.732 0C234.599 0 237.769 1.1672 237.769 5.1888V26.8104C237.769 30.8328 234.599 32 231.732 32C228.911 32 225.741 30.8328 225.741 26.8112V5.1888ZM230.341 26.4176C230.341 27.9776 230.814 28.3216 231.774 28.3216C232.684 28.3216 233.166 27.9816 233.166 26.4176V5.5776C233.166 4.0176 232.688 3.6744 231.774 3.6744C230.814 3.6744 230.341 4.0184 230.341 5.5784V26.4176ZM240.204 31.392V0.608H246.278C249.972 0.608 252.228 1.904 252.228 5.88V10.2504C252.228 12.5424 251.58 14.4424 247.67 14.8768V14.9632C249.843 15.3072 252.228 15.9192 252.228 18.6792C252.228 22.7848 252.452 29.836 252.797 31.3912H248.193C247.849 29.7904 247.629 23.2192 247.629 19.6352C247.629 17.7736 246.93 17.1192 244.807 17.1192V31.3912L240.204 31.392ZM244.807 13.3576H245.68C247.284 13.3576 247.629 12.4936 247.629 11.372V5.7888C247.629 4.6256 246.93 4.2784 245.896 4.2784H244.807V13.3576ZM264.921 0.608V4.6304H259.275V12.4104H264.696V16.4328H259.275V27.3688H265V31.392H254.671V0.608H264.921Z" fill="black"/>
</svg>
