<svg width="24" height="24" viewBox="0 0 24 24" fill="none" xmlns="http://www.w3.org/2000/svg">
<path d="M5 19C5.55228 19 6 18.5523 6 18C6 17.4477 5.55228 17 5 17V19ZM1 16H0H1ZM6.19 7C6.74228 7 7.19 6.55228 7.19 6C7.19 5.44772 6.74228 5 6.19 5V7ZM15.0001 5C14.4478 5 14.0001 5.44772 14.0001 6C14.0001 6.55228 14.4478 7 15.0001 7V5ZM13.8101 17C13.2578 17 12.8101 17.4477 12.8101 18C12.8101 18.5523 13.2578 19 13.8101 19V17ZM5 17H3V19H5V17ZM3 17C2.44772 17 2 16.5523 2 16H0C0 17.6569 1.34315 19 3 19V17ZM2 16V8H0V16H2ZM2 8C2 7.44772 2.44772 7 3 7V5C1.34315 5 0 6.34315 0 8H2ZM3 7H6.19V5H3V7ZM15.0001 7H17.0001V5H15.0001V7ZM17.0001 7C17.5523 7 18.0001 7.44772 18.0001 8H20.0001C20.0001 6.34315 18.6569 5 17.0001 5V7ZM18.0001 8V16H20.0001V8H18.0001ZM18.0001 16C18.0001 16.5523 17.5523 17 17.0001 17V19C18.6569 19 20.0001 17.6569 20.0001 16H18.0001ZM17.0001 17H13.8101V19H17.0001V17Z" fill="#333333"/>
<path d="M23 13V11" stroke="#333333" stroke-width="2" stroke-linecap="round" stroke-linejoin="round"/>
<path d="M11 6L7 12H13L9 18" stroke="#333333" stroke-width="2" stroke-linecap="round" stroke-linejoin="round"/>
</svg>
