<svg width="25" height="24" viewBox="0 0 25 24" fill="none" xmlns="http://www.w3.org/2000/svg">
<path fill-rule="evenodd" clip-rule="evenodd" d="M22.65 14.39L12 22.13L1.34999 14.39C1.0571 14.1746 0.936029 13.7952 1.04999 13.45L2.26999 9.66999L4.70999 2.15999C4.73365 2.0988 4.77133 2.044 4.81999 1.99999C4.98422 1.84998 5.23575 1.84998 5.39999 1.99999C5.45137 2.04966 5.48923 2.11161 5.50999 2.17999L7.94999 9.66999H16.05L18.49 2.15999C18.5137 2.0988 18.5513 2.044 18.6 1.99999C18.7642 1.84998 19.0158 1.84998 19.18 1.99999C19.2314 2.04966 19.2692 2.11161 19.29 2.17999L21.73 9.68999L23 13.45C23.1037 13.8062 22.9615 14.1883 22.65 14.39Z" stroke="#333333" stroke-width="2" stroke-linecap="round" stroke-linejoin="round"/>
</svg>
