<svg width="24" height="24" viewBox="0 0 24 24" fill="none" xmlns="http://www.w3.org/2000/svg">
<path fill-rule="evenodd" clip-rule="evenodd" d="M12.89 1.45L20.89 5.45C21.5697 5.78773 21.9996 6.48105 22 7.24V16.77C21.9996 17.5289 21.5697 18.2223 20.89 18.56L12.89 22.56C12.3267 22.8419 11.6634 22.8419 11.1 22.56L3.10005 18.56C2.42104 18.2179 1.99476 17.5203 2.00005 16.76V7.24C2.00045 6.48105 2.43039 5.78773 3.11005 5.45L11.11 1.45C11.6707 1.17141 12.3294 1.17141 12.89 1.45Z" stroke="#333333" stroke-width="2" stroke-linecap="round" stroke-linejoin="round"/>
<path d="M2.31995 6.15997L11.9999 11L21.6799 6.15997" stroke="#333333" stroke-width="2" stroke-linecap="round" stroke-linejoin="round"/>
<path d="M12 22.76V11" stroke="#333333" stroke-width="2" stroke-linecap="round" stroke-linejoin="round"/>
<path d="M7 3.5L17 8.5" stroke="#333333" stroke-width="2" stroke-linecap="round" stroke-linejoin="round"/>
</svg>
