<svg width="24" height="24" viewBox="0 0 24 24" fill="none" xmlns="http://www.w3.org/2000/svg">
<path d="M14.0499 6L14.2414 5.01851C13.8098 4.93429 13.3738 5.14198 13.1672 5.53022C12.9605 5.91847 13.0319 6.39612 13.3428 6.70711L14.0499 6ZM17.9999 9.95L17.2928 10.6571C17.6038 10.9681 18.0815 11.0394 18.4697 10.8328C18.858 10.6262 19.0657 10.1902 18.9814 9.75851L17.9999 9.95ZM14.0499 2L14.1604 1.00611C13.7381 0.959211 13.3324 1.18417 13.1485 1.5671C12.9646 1.95004 13.0427 2.40736 13.3433 2.70755L14.0499 2ZM21.9999 9.94L21.2933 10.6476C21.5938 10.9477 22.0513 11.0253 22.434 10.8409C22.8167 10.6565 23.0411 10.2505 22.9937 9.82834L21.9999 9.94ZM20.9999 20.92H19.9999L19.9999 20.9241L20.9999 20.92ZM18.8199 22.92L18.7119 23.9142C18.7179 23.9148 18.7239 23.9154 18.7299 23.9159L18.8199 22.92ZM10.1899 19.85L10.7341 19.0109L10.7263 19.006L10.1899 19.85ZM4.18994 13.85L5.03399 13.3137L5.02922 13.3063L4.18994 13.85ZM1.11994 5.18L0.123998 5.27C0.124469 5.2752 0.12498 5.2804 0.125531 5.2856L1.11994 5.18ZM3.10994 3V2L3.109 2L3.10994 3ZM6.10994 3V4.00005L6.11978 3.99995L6.10994 3ZM8.10994 4.72L9.1014 4.58924L9.1001 4.58005L8.10994 4.72ZM8.80994 7.53L7.87304 7.87961L7.87389 7.88186L8.80994 7.53ZM8.35994 9.64L9.06706 10.3471L9.07099 10.3431L8.35994 9.64ZM7.08994 10.91L6.38283 10.2029C6.06452 10.5212 5.99813 11.013 6.22065 11.4043L7.08994 10.91ZM13.0899 16.91L12.5956 17.7793C12.987 18.0018 13.4787 17.9354 13.797 17.6171L13.0899 16.91ZM14.3599 15.64L13.6568 14.9289L13.6528 14.9329L14.3599 15.64ZM16.4699 15.19L16.1181 16.1261L16.1203 16.1269L16.4699 15.19ZM19.2799 15.89L19.4196 14.8998L19.4107 14.8986L19.2799 15.89ZM13.8584 6.98149C15.4568 7.29335 16.7066 8.5431 17.0184 10.1415L18.9814 9.75851C18.5137 7.36092 16.639 5.48629 14.2414 5.01851L13.8584 6.98149ZM18.707 9.24289L14.757 5.29289L13.3428 6.70711L17.2928 10.6571L18.707 9.24289ZM13.9395 2.99389C17.6547 3.40661 20.5888 6.33703 21.0062 10.0517L22.9937 9.82834C22.4719 5.18505 18.8043 1.52202 14.1604 1.00611L13.9395 2.99389ZM22.7066 9.23245L14.7566 1.29245L13.3433 2.70755L21.2933 10.6476L22.7066 9.23245ZM19.9999 17.92V20.92H21.9999V17.92H19.9999ZM19.9999 20.9241C20.0011 21.2056 19.8835 21.4746 19.676 21.665L21.028 23.1387C21.6505 22.5677 22.0034 21.7607 21.9999 20.9159L19.9999 20.9241ZM19.676 21.665C19.4685 21.8553 19.1904 21.9494 18.9099 21.9241L18.7299 23.9159C19.5712 23.992 20.4056 23.7098 21.028 23.1387L19.676 21.665ZM18.928 21.9259C16.0063 21.6084 13.1998 20.61 10.734 19.011L9.64584 20.689C12.3741 22.4583 15.4793 23.5629 18.7119 23.9142L18.928 21.9259ZM10.7263 19.006C8.434 17.5494 6.49055 15.6059 5.03395 13.3137L3.34593 14.3863C4.96 16.9264 7.11354 19.0799 9.65362 20.694L10.7263 19.006ZM5.02922 13.3063C3.4246 10.8293 2.42601 8.00921 2.11435 5.0744L0.125531 5.2856C0.470361 8.53278 1.57524 11.6531 3.35066 14.3937L5.02922 13.3063ZM2.11588 5.09C2.09062 4.81044 2.18402 4.53313 2.37326 4.32581L0.896147 2.97743C0.328406 3.59938 0.0482082 4.43131 0.123998 5.27L2.11588 5.09ZM2.37326 4.32581C2.56251 4.11849 2.83018 4.00026 3.11088 4L3.109 2C2.26689 2.00079 1.46389 2.35548 0.896147 2.97743L2.37326 4.32581ZM3.10994 4H6.10994V2H3.10994V4ZM6.11978 3.99995C6.62171 3.99501 7.04953 4.36294 7.11978 4.85995L9.1001 4.58005C8.88935 3.089 7.60589 1.98523 6.1001 2.00005L6.11978 3.99995ZM7.11853 4.85076C7.25501 5.8856 7.50813 6.90167 7.87304 7.8796L9.74684 7.1804C9.43465 6.34378 9.21812 5.47454 9.10135 4.58924L7.11853 4.85076ZM7.87389 7.88186C8.01126 8.2473 7.9234 8.65926 7.64889 8.93686L9.07099 10.3431C9.89452 9.51035 10.1581 8.27445 9.74599 7.17814L7.87389 7.88186ZM7.65283 8.93289L6.38283 10.2029L7.79705 11.6171L9.06705 10.3471L7.65283 8.93289ZM6.22065 11.4043C7.73317 14.0643 9.93563 16.2668 12.5956 17.7793L13.5842 16.0407C11.2372 14.7061 9.29382 12.7628 7.95923 10.4157L6.22065 11.4043ZM13.797 17.6171L15.067 16.3471L13.6528 14.9329L12.3828 16.2029L13.797 17.6171ZM15.0631 16.3511C15.3407 16.0765 15.7526 15.9887 16.1181 16.1261L16.8218 14.2539C15.7255 13.8418 14.4896 14.1054 13.6568 14.9289L15.0631 16.3511ZM16.1203 16.1269C17.0983 16.4918 18.1143 16.7449 19.1492 16.8814L19.4107 14.8986C18.5254 14.7818 17.6562 14.5653 16.8195 14.2531L16.1203 16.1269ZM19.1402 16.8802C19.643 16.9511 20.0128 17.3876 20.0002 17.8952L21.9996 17.9448C22.0374 16.422 20.928 15.1126 19.4196 14.8998L19.1402 16.8802Z" fill="#333333"/>
</svg>
