<svg width="24" height="24" viewBox="0 0 24 24" fill="none" xmlns="http://www.w3.org/2000/svg">
<path d="M23 4V10H17" stroke="#333333" stroke-width="2" stroke-linecap="round" stroke-linejoin="round"/>
<path d="M1 20V14H7" stroke="#333333" stroke-width="2" stroke-linecap="round" stroke-linejoin="round"/>
<path d="M2.56729 8.66641C2.38305 9.18705 2.65577 9.75848 3.17641 9.94272C3.69706 10.127 4.26849 9.85425 4.45273 9.3336L2.56729 8.66641ZM18.36 5.64L17.6527 6.34693C17.6601 6.35432 17.6676 6.3616 17.6752 6.36875L18.36 5.64ZM22.3152 10.7288C22.7177 11.1069 23.3506 11.0873 23.7288 10.6848C24.107 10.2823 24.0873 9.64944 23.6848 9.27125L22.3152 10.7288ZM1.68478 13.2712C1.2823 12.8931 0.649439 12.9127 0.271247 13.3152C-0.106945 13.7177 -0.0872558 14.3506 0.315223 14.7288L1.68478 13.2712ZM5.64 18.36L6.34728 17.6531C6.3399 17.6457 6.33239 17.6384 6.32478 17.6312L5.64 18.36ZM21.4327 15.3336C21.617 14.813 21.3442 14.2415 20.8236 14.0573C20.3029 13.873 19.7315 14.1458 19.5473 14.6664L21.4327 15.3336ZM4.45273 9.3336C5.36907 6.7441 7.54985 4.80579 10.229 4.19961L9.78761 2.24891C6.4387 3.00665 3.71272 5.42953 2.56729 8.66641L4.45273 9.3336ZM10.229 4.19961C12.9081 3.59342 15.7109 4.40413 17.6527 6.34693L19.0673 4.93307C16.64 2.50457 13.1365 1.49118 9.78761 2.24891L10.229 4.19961ZM17.6752 6.36875L22.3152 10.7288L23.6848 9.27125L19.0448 4.91125L17.6752 6.36875ZM0.315223 14.7288L4.95522 19.0888L6.32478 17.6312L1.68478 13.2712L0.315223 14.7288ZM4.93272 19.0669C7.36 21.4954 10.8635 22.5088 14.2124 21.7511L13.771 19.8004C11.0919 20.4066 8.28911 19.5959 6.34728 17.6531L4.93272 19.0669ZM14.2124 21.7511C17.5613 20.9934 20.2873 18.5705 21.4327 15.3336L19.5473 14.6664C18.6309 17.2559 16.4502 19.1942 13.771 19.8004L14.2124 21.7511Z" fill="#333333"/>
</svg>
