<?xml version="1.0" encoding="UTF-8"?>
<svg width="70px" height="70px" viewBox="0 0 70 70" version="1.1" xmlns="http://www.w3.org/2000/svg" xmlns:xlink="http://www.w3.org/1999/xlink">
    <!-- Generator: Sketch 47 (45396) - http://www.bohemiancoding.com/sketch -->
    <title>49605</title>
    <desc>Created with Sketch.</desc>
    <defs></defs>
    <g id="Review+" stroke="none" stroke-width="1" fill="none" fill-rule="evenodd">
        <g id="WILD_FISH_review_1440" transform="translate(-235.000000, -1109.000000)" fill-rule="nonzero" fill="#ED812B">
            <g id="Group-34" transform="translate(165.000000, 1049.000000)">
                <g id="49605" transform="translate(70.000000, 60.000000)">
                    <path d="M35.1140664,29.2060666 C38.0474231,29.1965627 40.38371,26.841268 40.3730879,23.9012027 C40.3613478,20.9611374 38.0211475,18.6192599 35.0866728,18.6170237 C32.1275997,18.6142285 29.7644782,20.998035 29.7873994,23.9649348 C29.8092025,26.893819 32.1717649,29.2183658 35.1140664,29.2060666 Z" id="Shape"></path>
                    <path d="M66.2765957,0 L3.72340426,0 C1.66734043,0 0,1.66659574 0,3.72340426 L0,66.2765957 C0,68.3334043 1.66734043,70 3.72340426,70 L66.2765957,70 C68.3334043,70 70,68.3334043 70,66.2765957 L70,3.72340426 C70,1.66659574 68.3334043,0 66.2765957,0 Z M34.6873491,13.4043049 C40.6686684,13.4193994 45.4709428,18.3133586 45.4413129,24.3628825 C45.4094468,30.2720839 40.5289049,35.062059 34.5570895,35.0419331 C28.6445338,35.0218071 23.796417,30.1205802 23.8299603,24.1985206 C23.8651807,18.2116107 28.7166518,13.3864152 34.6873491,13.4043049 Z M47.339455,39.3580865 C46.0167331,40.7171469 44.4245472,41.6988458 42.6557001,42.3859233 C40.9835695,43.0321898 39.1515493,43.3597954 37.337978,43.5767084 C37.6119144,43.8752433 37.7410559,44.0200383 37.9110084,44.192786 C40.3730824,46.6666002 42.8452195,49.1303514 45.2989077,51.6114333 C46.1341345,52.456164 46.3107956,53.5043903 45.849576,54.4877664 C45.3458683,55.5639455 44.2193743,56.2700308 43.1135654,56.1939994 C42.4136297,56.1448027 41.867993,55.796512 41.3838522,55.3095759 C39.5255565,53.4395401 37.6320404,51.6047247 35.8128785,49.7017047 C35.2834543,49.147123 35.0285257,49.250548 34.5600384,49.7330117 C32.6911206,51.6572757 30.7931321,53.5519099 28.8828444,55.4353631 C28.0246964,56.2817709 27.0044228,56.4332745 26.0076294,55.9508109 C24.9498991,55.4381583 24.2779162,54.3586249 24.3299082,53.2723829 C24.3656876,52.538904 24.7268366,51.9787318 25.2305443,51.4755832 C27.6657837,49.043139 30.0954327,46.6045452 32.5261997,44.1676286 C32.6877663,44.006621 32.8375928,43.8338733 33.0718365,43.5834171 C29.757205,43.2373626 26.768502,42.4222618 24.2108297,40.4208483 C23.893846,40.1720692 23.5656813,39.931676 23.2749732,39.6532671 C22.155747,38.577647 22.0433771,37.3471691 22.9294778,36.0775573 C23.686437,34.9918743 24.9599621,34.7000481 26.2821249,35.3233934 C26.5387308,35.44359 26.7824783,35.5950937 27.0161629,35.7566603 C31.7837759,39.0327171 38.3342123,39.1238429 43.1202741,35.9053687 C43.5937928,35.5436607 44.1008549,35.2440077 44.6889797,35.0952993 C45.8322453,34.801796 46.8955661,35.2205274 47.5094075,36.2201161 C48.2121384,37.3589092 48.2026345,38.4725449 47.339455,39.3580865 Z" id="Shape"></path>
                </g>
            </g>
        </g>
    </g>
</svg>