<?xml version="1.0" encoding="UTF-8"?>
<svg width="80px" height="80px" viewBox="0 0 80 80" version="1.1" xmlns="http://www.w3.org/2000/svg" xmlns:xlink="http://www.w3.org/1999/xlink">
    <!-- Generator: Sketch 47 (45396) - http://www.bohemiancoding.com/sketch -->
    <title>49665</title>
    <desc>Created with Sketch.</desc>
    <defs></defs>
    <g id="Review+" stroke="none" stroke-width="1" fill="none" fill-rule="evenodd">
        <g id="WILD_FISH_review_1440" transform="translate(-906.000000, -792.000000)" fill-rule="nonzero" fill="#3B5998">
            <g id="Group-32" transform="translate(841.000000, 732.000000)">
                <g id="49665" transform="translate(65.000000, 60.000000)">
                    <path d="M75.7446809,0 L4.25531915,0 C1.90553191,0 0,1.90553191 0,4.25531915 L0,75.7446809 C0,78.0944681 1.90553191,80 4.25531915,80 L75.7446809,80 C78.0953191,80 80,78.0944681 80,75.7446809 L80,4.25531915 C80,1.90553191 78.0953191,0 75.7446809,0 Z M52.9660734,23.2998932 L48.2588269,23.3018475 C44.5691169,23.3018475 43.8544962,25.055502 43.8544962,27.6293092 L43.8544962,33.303932 L52.6559919,33.303932 L52.6533861,42.1920682 L43.8544962,42.1920682 L43.8544962,65 L34.67517,65 L34.67517,42.1920682 L27,42.1920682 L27,33.303932 L34.67517,33.303932 L34.67517,26.7492248 C34.67517,19.1424551 39.3218334,15 46.1064961,15 L52.9660734,15.0110743 L52.9660734,23.2998932 Z" id="Shape"></path>
                </g>
            </g>
        </g>
    </g>
</svg>