<?xml version="1.0" encoding="UTF-8"?>
<svg width="126px" height="42px" viewBox="0 0 126 42" version="1.1" xmlns="http://www.w3.org/2000/svg" xmlns:xlink="http://www.w3.org/1999/xlink">
    <!-- Generator: Sketch 46.2 (44496) - http://www.bohemiancoding.com/sketch -->
    <title>Group</title>
    <desc>Created with Sketch.</desc>
    <defs></defs>
    <g id="Index+" stroke="none" stroke-width="1" fill="none" fill-rule="evenodd" opacity="0.518190299">
        <g id="WILD_FISH_index_1440" transform="translate(-671.000000, -3122.000000)">
            <g id="Banner" transform="translate(165.000000, 2960.000000)">
                <g id="Apple-App-Store---Large" transform="translate(507.000000, 161.000000)">
                    <g id="Group" transform="translate(0.000000, 2.000000)">
                        <rect id="Rectangle-3" stroke="#5D5D5D" x="-0.5" y="-0.5" width="125" height="41" rx="2"></rect>
                        <path d="M14.0058587,5 C12.8980535,5 12,6.01307658 12,7.26763978 L12,30.7323602 C12,31.9847431 12.8970601,33 14.0058587,33 L23.9941413,33 C25.1019465,33 26,31.9869234 26,30.7323602 L26,7.26763978 C26,6.01525691 25.1029399,5 23.9941413,5 L14.0058587,5 L14.0058587,5 Z M13.3125,8.67213115 L13.3125,29.3278689 L24.6875,29.3278689 L24.6875,8.67213115 L13.3125,8.67213115 L13.3125,8.67213115 Z M19,32.0819672 C19.4832492,32.0819672 19.875,31.6709499 19.875,31.1639344 C19.875,30.6569189 19.4832492,30.2459016 19,30.2459016 C18.5167508,30.2459016 18.125,30.6569189 18.125,31.1639344 C18.125,31.6709499 18.5167508,32.0819672 19,32.0819672 L19,32.0819672 Z M17.25,6.83606557 C17.25,7.08957333 17.4003906,7.29508197 17.5983891,7.29508197 L20.4016109,7.29508197 C20.5940209,7.29508197 20.75,7.08215932 20.75,6.83606557 C20.75,6.58255782 20.5996094,6.37704918 20.4016109,6.37704918 L17.5983891,6.37704918 C17.4059791,6.37704918 17.25,6.58997182 17.25,6.83606557 Z" id="iPhone-Vector" fill="#5D5D5D"></path>
                        <text id="Available-on-the" font-family="ProximaNova-Regular, Proxima Nova" font-size="10" font-weight="normal" letter-spacing="0.199999988" fill="#606060">
                            <tspan x="34.1025641" y="15.2307692">Available on the</tspan>
                        </text>
                        <path d="M44.5024664,34.0769231 L44.2983649,33.4970891 C44.1622965,33.1105312 44.0061294,32.6652231 43.829859,32.1611516 C43.6535886,31.6570801 43.4974216,31.211772 43.3613532,30.8252141 L43.1572516,30.2453801 L37.8320563,30.2453801 L36.4868414,34.0769231 L34.7334235,34.0769231 L39.6689704,20.689716 L41.3203375,20.689716 L46.2558844,34.0769231 L44.5024664,34.0769231 Z M40.4204352,22.8513371 L40.2070563,23.4543645 C40.064803,23.8563847 39.8900814,24.3542639 39.6828864,24.9480168 L39.0613043,26.7292668 C38.8541093,27.3230198 38.6793877,27.8208989 38.5371344,28.2229192 L38.3237555,28.8259465 L42.6655524,28.8259465 L40.5688727,22.8513371 L40.4204352,22.8513371 Z M52.1143946,23.899677 C53.3884895,23.899677 54.4074409,24.3697244 55.1712793,25.3098332 C55.9351178,26.2499421 56.3170313,27.5054634 56.3170313,29.0764348 C56.3170313,30.6412213 55.9351178,31.8951964 55.1712793,32.8383977 C54.4074409,33.781599 53.3884895,34.2531926 52.1143946,34.2531926 C51.403128,34.2531926 50.7722749,34.1047566 50.2218164,33.8078801 C49.6713579,33.5110036 49.2600665,33.0997122 48.9879297,32.5739934 L48.8394922,32.5739934 L48.8394922,37.4167668 L47.2437891,37.4167668 L47.2437891,24.0759465 L48.7652735,24.0759465 L48.7652735,25.7458684 L48.913711,25.7458684 C49.2353271,25.1706702 49.679089,24.7191773 50.2450098,24.3913762 C50.8109306,24.0635751 51.4340526,23.899677 52.1143946,23.899677 Z M51.7340235,32.8152043 C52.6555775,32.8152043 53.3745645,32.4843157 53.8910059,31.8225285 C54.4074473,31.1607414 54.6656641,30.245386 54.6656641,29.0764348 C54.6656641,27.9074836 54.4074473,26.9921282 53.8910059,26.330341 C53.3745645,25.6685539 52.65867,25.3376653 51.7433008,25.3376653 C50.8403015,25.3376653 50.1228608,25.6731925 49.5909571,26.3442571 C49.0590534,27.0153216 48.7931055,27.9260384 48.7931055,29.0764348 C48.7931055,30.2206462 49.0590534,31.1298168 49.5909571,31.8039739 C50.1228608,32.4781309 50.8372091,32.8152043 51.7340235,32.8152043 Z M62.5373578,23.899677 C63.8114527,23.899677 64.8304041,24.3697244 65.5942426,25.3098332 C66.358081,26.2499421 66.7399945,27.5054634 66.7399945,29.0764348 C66.7399945,30.6412213 66.358081,31.8951964 65.5942426,32.8383977 C64.8304041,33.781599 63.8114527,34.2531926 62.5373578,34.2531926 C61.8260912,34.2531926 61.1952382,34.1047566 60.6447797,33.8078801 C60.0943212,33.5110036 59.6830297,33.0997122 59.410893,32.5739934 L59.2624555,32.5739934 L59.2624555,37.4167668 L57.6667523,37.4167668 L57.6667523,24.0759465 L59.1882367,24.0759465 L59.1882367,25.7458684 L59.3366742,25.7458684 C59.6582904,25.1706702 60.1020522,24.7191773 60.667973,24.3913762 C61.2338938,24.0635751 61.8570159,23.899677 62.5373578,23.899677 Z M62.1569867,32.8152043 C63.0785408,32.8152043 63.7975278,32.4843157 64.3139691,31.8225285 C64.8304105,31.1607414 65.0886273,30.245386 65.0886273,29.0764348 C65.0886273,27.9074836 64.8304105,26.9921282 64.3139691,26.330341 C63.7975278,25.6685539 63.0816332,25.3376653 62.1662641,25.3376653 C61.2632648,25.3376653 60.545824,25.6731925 60.0139203,26.3442571 C59.4820166,27.0153216 59.2160688,27.9260384 59.2160688,29.0764348 C59.2160688,30.2206462 59.4820166,31.1298168 60.0139203,31.8039739 C60.545824,32.4781309 61.2601723,32.8152043 62.1569867,32.8152043 Z M71.8608234,30.5793645 C71.9474124,31.7359458 72.4437453,32.6605785 73.3498371,33.3532903 C74.2559288,34.0460021 75.4171314,34.3923528 76.8334796,34.3923528 C78.3673415,34.3923528 79.5842076,34.0289938 80.4841144,33.3022649 C81.3840213,32.575536 81.8339679,31.596786 81.8339679,30.3659856 C81.8339679,29.3825822 81.5324573,28.6002007 80.9294269,28.0188176 C80.3263966,27.4374345 79.3321845,26.9735719 77.9467609,26.627216 L76.545882,26.2561223 C75.6243279,26.0210951 74.9640969,25.7396851 74.5651691,25.411884 C74.1662413,25.0840829 73.9667804,24.6573294 73.9667804,24.1316106 C73.9667804,23.4512686 74.2373669,22.9070032 74.778548,22.4987981 C75.3197291,22.0905929 76.0356236,21.8864934 76.9262531,21.8864934 C77.7612182,21.8864934 78.4461886,22.0797695 78.9811847,22.4663274 C79.5161809,22.8528853 79.8424309,23.3894196 79.9599445,24.0759465 L81.6391437,24.0759465 C81.5711095,22.9935843 81.1010621,22.1060607 80.2289875,21.4133489 C79.3569128,20.7206371 78.2745668,20.3742864 76.9819171,20.3742864 C75.5655689,20.3742864 74.4229208,20.7252757 73.5539386,21.4272649 C72.6849564,22.1292541 72.2504718,23.0492481 72.2504718,24.1872746 C72.2504718,25.1397534 72.5256969,25.9020341 73.0761554,26.4741399 C73.6266139,27.0462456 74.5079528,27.486915 75.7201984,27.7961614 L77.436507,28.2414739 C78.3580611,28.4703161 79.0353004,28.773373 79.4682453,29.1506535 C79.9011901,29.5279341 80.1176593,30.0010739 80.1176593,30.5700871 C80.1176593,31.2318743 79.8223335,31.7807783 79.231673,32.2168157 C78.6410125,32.652853 77.8941938,32.8708684 76.9911945,32.8708684 C76.0387158,32.8708684 75.2532419,32.6636765 74.6347492,32.2492864 C74.0162565,31.8348963 73.6544437,31.2782612 73.5493,30.5793645 L71.8608234,30.5793645 Z M83.9165992,21.4875676 L83.9165992,24.0759465 L82.3023413,24.0759465 L82.3023413,25.411884 L83.9165992,25.411884 L83.9165992,31.4792668 C83.9165992,32.4317455 84.1407994,33.1151697 84.5892066,33.5295598 C85.0376138,33.9439499 85.7751552,34.1511418 86.8018531,34.1511418 C86.9626612,34.1511418 87.1203744,34.1434108 87.2749976,34.1279485 C87.4296208,34.1124862 87.5842416,34.089293 87.7388648,34.0583684 L87.7388648,32.7131535 C87.5904265,32.7255234 87.4651837,32.7348007 87.3631324,32.7409856 C87.2610811,32.7471705 87.1389306,32.7502629 86.9966773,32.7502629 C86.4771434,32.7502629 86.0998686,32.617289 85.8648413,32.3513371 C85.6298141,32.0853853 85.5123023,31.6586317 85.5123023,31.0710637 L85.5123023,25.411884 L87.7388648,25.411884 L87.7388648,24.0759465 L85.5123023,24.0759465 L85.5123023,21.4875676 L83.9165992,21.4875676 Z M92.9665155,34.2531926 C91.5439824,34.2531926 90.4198888,33.7908763 89.5942011,32.8662297 C88.7685134,31.9415832 88.3556757,30.6783308 88.3556757,29.0764348 C88.3556757,27.4683538 88.7685134,26.2035553 89.5942011,25.2820012 C90.4198888,24.3604471 91.5439824,23.899677 92.9665155,23.899677 C94.3890487,23.899677 95.5131423,24.3604471 96.33883,25.2820012 C97.1645177,26.2035553 97.5773554,27.4683538 97.5773554,29.0764348 C97.5773554,30.6783308 97.1645177,31.9415832 96.33883,32.8662297 C95.5131423,33.7908763 94.3890487,34.2531926 92.9665155,34.2531926 Z M92.9665155,32.8152043 C93.9128093,32.8152043 94.6426198,32.4874081 95.1559687,31.8318059 C95.6693176,31.1762037 95.9259882,30.2577558 95.9259882,29.0764348 C95.9259882,27.8889289 95.6693176,26.9689348 95.1559687,26.316425 C94.6426198,25.6639153 93.9128093,25.3376653 92.9665155,25.3376653 C92.0202218,25.3376653 91.2904113,25.6639153 90.7770624,26.316425 C90.2637135,26.9689348 90.0070429,27.8889289 90.0070429,29.0764348 C90.0070429,30.2577558 90.2637135,31.1762037 90.7770624,31.8318059 C91.2904113,32.4874081 92.0202218,32.8152043 92.9665155,32.8152043 Z M98.9270765,34.0769231 L100.52278,34.0769231 L100.52278,27.8796575 C100.52278,27.1745758 100.770173,26.5932014 101.264967,26.1355168 C101.759761,25.6778322 102.387522,25.4489934 103.148268,25.4489934 C103.309076,25.4489934 103.503898,25.4598168 103.732741,25.4814641 C103.961583,25.5031113 104.106926,25.523212 104.168776,25.5417668 L104.168776,23.9460637 C104.069817,23.9336938 103.944574,23.9228704 103.793043,23.913593 C103.641513,23.9043156 103.500808,23.899677 103.370924,23.899677 C102.709137,23.899677 102.118485,24.0542978 101.598951,24.3635442 C101.079418,24.6727905 100.745437,25.0717123 100.596998,25.5603215 L100.448561,25.5603215 L100.448561,24.0759465 L98.9270765,24.0759465 L98.9270765,34.0769231 Z M108.71918,25.3098332 C107.921325,25.3098332 107.265732,25.5788735 106.752383,26.1169621 C106.239035,26.6550508 105.95144,27.3663067 105.889591,28.2507512 L111.400333,28.2507512 C111.381778,27.3663067 111.1282,26.6550508 110.639591,26.1169621 C110.150981,25.5788735 109.510851,25.3098332 108.71918,25.3098332 Z M111.353946,31.4885442 L112.949649,31.4885442 C112.708437,32.348249 112.219835,33.0239421 111.483829,33.5156438 C110.747823,34.0073455 109.832467,34.2531926 108.737735,34.2531926 C107.352311,34.2531926 106.254503,33.7877839 105.444278,32.8569524 C104.634053,31.9261209 104.228946,30.6690534 104.228946,29.0857121 C104.228946,27.5147407 104.637145,26.2576732 105.453555,25.3144719 C106.269966,24.3712706 107.364681,23.899677 108.737735,23.899677 C110.086049,23.899677 111.146748,24.3496237 111.919864,25.2495305 C112.69298,26.1494373 113.079532,27.3755807 113.079532,28.9279973 L113.079532,29.540302 L105.889591,29.540302 L105.889591,29.6145207 C105.932885,30.604109 106.212749,31.3895829 106.72919,31.970966 C107.245632,32.5523492 107.927509,32.8430364 108.774844,32.8430364 C109.418077,32.8430364 109.956157,32.7270707 110.389102,32.495136 C110.822047,32.2632012 111.143658,31.927674 111.353946,31.4885442 Z" id="App-Store" fill="#606060"></path>
                    </g>
                </g>
            </g>
        </g>
    </g>
</svg>