<svg width="19" height="11" viewBox="0 0 19 11" xmlns="http://www.w3.org/2000/svg"><title>149099</title><g fill-rule="nonzero" fill="gray"><path d="M15.886 2.975c-3.7-3.7-9.717-3.7-13.415 0L0 5.445l2.532 2.532c1.85 1.85 4.278 2.774 6.708 2.774 2.43 0 4.858-.924 6.708-2.773l2.47-2.47-2.532-2.532zm-.38 4.562c-3.455 3.455-9.078 3.455-12.534 0L.88 5.445l2.03-2.03c3.457-3.457 9.08-3.457 12.536 0l2.092 2.09-2.03 2.032z"/><path d="M8.89 2.977c-1.202 0-2.18.977-2.18 2.178 0 .172.14.31.312.31s.312-.138.312-.31c0-.858.697-1.555 1.555-1.555.17 0 .31-.14.31-.312 0-.17-.14-.31-.31-.31z"/><path d="M9.2 1.422c-2.23 0-4.044 1.814-4.044 4.044 0 2.23 1.814 4.045 4.044 4.045 2.23 0 4.045-1.814 4.045-4.044 0-2.23-1.814-4.044-4.045-4.044zm0 7.466c-1.887 0-3.422-1.535-3.422-3.422 0-1.887 1.535-3.422 3.422-3.422 1.887 0 3.422 1.535 3.422 3.422 0 1.887-1.535 3.422-3.422 3.422z"/></g></svg>