<svg width="79" height="52" viewBox="0 0 79 52" xmlns="http://www.w3.org/2000/svg"><path d="M77.195 44.463C78.38 42.538 79 40.367 79 38.103c0-12.155-10.507-22.045-23.422-22.045h-16.93c-2.443-1.33-5.037-2.856-6.26-4.24l-2.423-2.74.06-.046c2.064-1.616 2.346-4.512.63-6.455-1.72-1.943-4.795-2.208-6.86-.592-1 .783-1.615 1.886-1.734 3.105-.01.125-.018.25-.02.372-1.358-.22-2.808.097-3.95.99-2.063 1.617-2.345 4.513-.627 6.456 1.717 1.943 4.794 2.208 6.858.592l.06-.047 2.423 2.74c.067.076.134.158.202.244-2.887.576-5.597 1.798-7.9 3.582-1.194-.43-2.196-.88-2.914-1.372l-3.065-2.095c.015-.02.03-.04.046-.058.765-.99 1.073-2.203.87-3.412-.205-1.21-.897-2.27-1.95-2.99-1.053-.72-2.34-1.01-3.625-.817-1.284.192-2.412.843-3.177 1.834-.764.99-1.072 2.202-.868 3.412.02.122.046.243.077.362-.13.01-.26.025-.39.044-1.285.192-2.413.844-3.177 1.834-.764.99-1.073 2.203-.87 3.412.205 1.21.898 2.27 1.95 2.99 1.053.72 2.34 1.01 3.625.818 1.285-.192 2.413-.844 3.177-1.835l.045-.06 3.066 2.096c.67.458 1.385 1.15 2.13 2.002-1.117 2.28-1.684 4.72-1.684 7.262 0 9.588 8.286 17.39 18.473 17.39H46.92c.138 0 .27-.025.392-.066 1.145.794 2.534 1.23 4.014 1.23H74.13c2.685 0 4.87-2.056 4.87-4.584 0-1.258-.727-2.36-1.805-2.953zM32.35 14.783c.57.626 1.2 1.246 1.867 1.857h-3.374l-.123.002 1.63-1.86zm-7.074-3.73c-.24-.272-.61-.418-.983-.39-.376.03-.714.227-.906.532-.164.26-.344.466-.55.627-1.08.847-2.692.707-3.592-.31-.9-1.018-.752-2.535.33-3.38 1.08-.848 2.692-.71 3.592.308.41.464 1.14.527 1.633.14.275-.214.417-.525.418-.838 0-.246-.088-.494-.27-.698-.434-.493-.64-1.116-.578-1.754.062-.64.385-1.217.91-1.627 1.08-.847 2.69-.708 3.59.31.9 1.018.753 2.535-.328 3.38-.206.162-.453.292-.755.396-.354.122-.622.398-.72.74-.097.343-.012.71.23.98l3.31 3.745c.015.018.033.037.05.055l-2.023 1.584c-.016-.02-.032-.038-.05-.057l-3.308-3.743zm-8.905 14.37c-.023-.033-.05-.065-.08-.096-.413-.496-.823-.957-1.23-1.374l1.87-2.426c2.493 1.067 5.928 1.928 9.513 2.826 5.266 1.32 10.712 2.683 13.764 4.768 3.898 2.664 4.767 7.815 1.938 11.484-1.37 1.777-3.394 2.946-5.698 3.29-2.305.345-4.614-.176-6.502-1.466-3.052-2.084-6.117-6.535-9.082-10.84-1.547-2.244-3.044-4.417-4.492-6.165zm-7.273-5.868c-.2-.137-.44-.208-.68-.208-.127 0-.253.02-.375.058-.356.115-.632.385-.738.725-.09.29-.212.53-.37.735-.4.52-.99.86-1.663.96-.672.102-1.346-.05-1.898-.427-.55-.377-.914-.933-1.02-1.566-.107-.634.054-1.268.454-1.787.4-.52.992-.86 1.664-.96.673-.102 1.348.05 1.9.427.517.354 1.242.245 1.62-.242.148-.194.22-.418.22-.64 0-.338-.166-.67-.48-.885-.55-.376-.913-.933-1.02-1.566-.107-.634.055-1.27.455-1.788.4-.52.99-.86 1.664-.96.672-.1 1.346.05 1.898.427.55.376.914.932 1.02 1.566.108.633-.054 1.268-.454 1.787-.157.203-.363.386-.628.557-.31.2-.5.53-.504.886-.004.354.174.69.48.897l4.187 2.86c.02.015.04.03.062.043l-1.546 2.004-.06-.044-4.19-2.86zM74.13 49.817H51.326c-1.457 0-2.78-.638-3.633-1.75-.852-1.113-1.076-2.497-.615-3.798.202-.573-.126-1.19-.734-1.38-.607-.192-1.264.117-1.466.69-.607 1.713-.43 3.52.473 5.073H30.844c-8.91 0-16.156-6.82-16.156-15.206 0-1.82.332-3.578.987-5.25 1.04 1.382 2.13 2.96 3.243 4.58 3.08 4.47 6.265 9.094 9.666 11.418 1.957 1.337 4.227 1.98 6.478 1.98 3.424 0 6.802-1.488 8.962-4.29 3.58-4.642 2.48-11.16-2.453-14.53-3.402-2.324-9.06-3.74-14.53-5.11-1.843-.463-3.643-.914-5.268-1.38 2.662-1.702 5.815-2.624 9.07-2.624h7.39c.076.008.152.008.228 0h17.118c11.636 0 21.102 8.91 21.102 19.863 0 2.125-.66 4.15-1.912 5.894h-14.24c-.035 0-.056 0-.074-.05-.018-.05 0-.062.027-.08l1.98-1.398c.512-.363.616-1.047.232-1.53-.385-.48-1.11-.58-1.624-.218L59.09 42.12c-.84.592-1.168 1.58-.836 2.517.332.937 1.224 1.542 2.273 1.542h14.845c.722.003 1.31.556 1.31 1.236 0 1.324-1.146 2.4-2.552 2.4z" fill-rule="nonzero" fill="#FFF"/></svg>