<svg width="19" height="16" viewBox="0 0 19 16" xmlns="http://www.w3.org/2000/svg"><path d="M17.034 1.292C16.168.43 14.97 0 13.444 0c-.424 0-.855.075-1.295.224-.44.15-.85.35-1.23.604-.377.254-.703.49-.976.714-.273.222-.532.458-.777.708-.246-.25-.505-.486-.778-.708-.274-.223-.6-.46-.978-.714C7.034.575 6.624.373 6.184.224 5.744.074 5.314 0 4.89 0 3.362 0 2.165.43 1.3 1.292.432 2.152 0 3.347 0 4.875c0 .465.08.945.24 1.437.16.493.343.914.548 1.26.204.348.436.686.696 1.016.26.33.448.557.567.682.12.125.214.216.283.27l6.384 6.272c.122.125.272.188.45.188.177 0 .327-.063.45-.188l6.374-6.25c1.562-1.59 2.343-3.152 2.343-4.687 0-1.528-.433-2.722-1.3-3.583zM15.1 8.582l-5.933 5.824-5.944-5.833C1.947 7.273 1.31 6.04 1.31 4.875c0-.563.073-1.06.22-1.49.146-.43.334-.772.562-1.026.23-.254.507-.46.834-.62.328-.16.648-.268.962-.323.314-.056.648-.084 1.002-.084.355 0 .737.09 1.146.266.41.176.786.398 1.13.665.345.268.64.518.886.75.245.233.45.447.613.64.123.154.29.23.502.23.21 0 .378-.076.5-.23.165-.193.37-.407.615-.64.245-.232.54-.482.885-.75.344-.267.72-.49 1.13-.666.41-.178.792-.267 1.146-.267.355 0 .69.028 1.003.084.314.055.634.163.962.322.327.16.605.366.833.62.23.253.417.595.564 1.025.146.43.22.927.22 1.49 0 1.166-.64 2.403-1.924 3.708z" fill-rule="nonzero" fill="#1A1A1A"/></svg>