<svg width="34" height="20" viewBox="0 0 34 20" xmlns="http://www.w3.org/2000/svg"><title>166039</title><path d="M30.714 5.833c-.654 0-1.964.655-1.964 1.31 0-.458-.64-.916-1.25-1.15-.262-.1-.518-.16-.714-.16h-2.62c0 1.637 1.365 3.272 3.334 3.773v.81c0 1.612-1.306 2.917-2.917 2.917-1.61 0-2.916-1.305-2.916-2.916V4.25c0-2.347-1.903-4.25-4.25-4.25H4.25C1.903 0 0 1.903 0 4.25v8.167c0 .17.01.336.03.5h7.887c1.148 0 2.083-.935 2.083-2.084h1.667c0 2.068-1.683 3.75-3.75 3.75H.594c.74 1.247 2.1 2.084 3.656 2.084h7.417C11.667 18.507 13.16 20 15 20v-3.333h10.75c2.347 0 4.25-1.903 4.25-4.25v-2.81c1.97-.502 3.333-2.137 3.333-3.774h-2.62zm-19.88 3.334c-.46 0-.834-.373-.834-.834 0-.46.373-.833.833-.833.46 0 .834.373.834.833 0 .46-.373.834-.834.834z" fill-rule="nonzero" fill="#E6E6E6"/></svg>