<?xml version="1.0" encoding="UTF-8"?>
<svg width="56px" height="46px" viewBox="0 0 56 46" version="1.1" xmlns="http://www.w3.org/2000/svg" xmlns:xlink="http://www.w3.org/1999/xlink">
    <!-- Generator: Sketch 47 (45396) - http://www.bohemiancoding.com/sketch -->
    <title>352762</title>
    <desc>Created with Sketch.</desc>
    <defs></defs>
    <g id="Delivery_Payment_Guarantee+" stroke="none" stroke-width="1" fill="none" fill-rule="evenodd">
        <g id="WILD_FISH_delivery_1440" transform="translate(-889.000000, -390.000000)" fill-rule="nonzero" fill="#CF1A3A">
            <g id="352762" transform="translate(889.000000, 390.000000)">
                <path d="M55.0280374,19.9046729 L55.0280374,17.2679486 C55.0280374,17.2268925 55.0257804,17.1864813 55.0213738,17.1463925 C55.0206215,17.1391916 55.0190093,17.1322056 55.0181495,17.1250047 C55.0140654,17.0919019 55.0091215,17.059014 55.0021355,17.0268785 C55.0003084,17.0183879 54.9976215,17.0102196 54.9956869,17.001729 C54.9883785,16.9709907 54.9803178,16.9407897 54.9705374,16.9110187 C54.9673131,16.9010234 54.9633364,16.8913505 54.9596822,16.8814626 C54.9497944,16.8540561 54.9394766,16.826972 54.9276542,16.8006402 C54.9259346,16.796771 54.9247523,16.7925794 54.9229252,16.7887103 L49.7543738,5.5526729 L49.7543738,1.21781776 C49.7543738,0.584780374 49.2410654,0.071364486 48.6079206,0.071364486 L6.42011682,0.071364486 C5.78697196,0.071364486 5.27366355,0.584780374 5.27366355,1.21781776 L5.27366355,5.55278037 L0.104897196,16.7887103 C0.103070093,16.7925794 0.10188785,16.796771 0.100168224,16.8006402 C0.0882383178,16.826972 0.0780280374,16.8540561 0.0681401869,16.8814626 C0.0645934579,16.8913505 0.0606168224,16.9010234 0.0572850467,16.9110187 C0.0475046729,16.9406822 0.0396588785,16.9709907 0.0322429907,17.001729 C0.0302009346,17.0101121 0.0275140187,17.0183879 0.0256869159,17.0268785 C0.0187009346,17.059014 0.0137570093,17.0919019 0.0096728972,17.1250047 C0.00881308411,17.1322056 0.00730841121,17.1391916 0.00644859813,17.1463925 C0.00225700935,17.1863738 0,17.2268925 0,17.2678411 L0,19.9046729 C0,23.0532009 2.27893458,25.6776729 5.27366355,26.2201075 L5.27366355,43.635729 L1.14645327,43.635729 C0.513308411,43.635729 0,44.1489299 0,44.7821822 C0,45.4152196 0.513308411,45.9286355 1.14645327,45.9286355 L6.42011682,45.9286355 L11.0056075,45.9286355 L20.1771262,45.9286355 L48.6081355,45.9286355 L53.8816916,45.9286355 C54.5148364,45.9286355 55.0281449,45.4152196 55.0281449,44.7821822 C55.0281449,44.1490374 54.5149439,43.635729 53.8816916,43.635729 L49.7545888,43.635729 L49.7545888,26.2201075 C52.7491028,25.6776729 55.0280374,23.0532009 55.0280374,19.9046729 Z M52.0924206,16.1214953 L44.2073972,16.1214953 L41.676,6.95029907 L47.8735327,6.95029907 L52.0924206,16.1214953 Z M33.9290841,17.1628364 L32.9895234,6.95029907 L39.2974346,6.95029907 L41.8288318,16.1214953 L37.5333131,16.1214953 C36.9002757,16.1214953 36.3868598,16.6346963 36.3868598,17.2679486 C36.3868598,17.9012009 36.9002757,18.4144019 37.5333131,18.4144019 L42.1881262,18.4144019 L42.1881262,19.9046729 C42.1881262,22.1803832 40.3367336,24.0317757 38.0610234,24.0317757 C35.7853131,24.0317757 33.9339206,22.1803832 33.9339206,19.9046729 L33.9339206,17.2679486 C33.9338131,17.2328037 33.9323084,17.1977664 33.9290841,17.1628364 Z M7.56646262,2.36427103 L47.4616822,2.36427103 L47.4616822,4.65728505 L7.56646262,4.65728505 L7.56646262,2.36427103 Z M27.6682477,16.1214953 L23.496972,16.1214953 L24.340771,6.95029907 L30.6870514,6.95029907 L31.6411215,17.3205047 L31.6411215,19.9046729 C31.6411215,22.1803832 29.7896215,24.0317757 27.5139112,24.0317757 C25.2382009,24.0317757 23.3868084,22.1803832 23.3868084,19.9046729 L23.3868084,18.4142944 L27.6683551,18.4142944 C28.3015,18.4142944 28.8148084,17.9010935 28.8148084,17.2678411 C28.8148084,16.6345888 28.3013925,16.1214953 27.6682477,16.1214953 Z M20.3725187,18.4142944 L21.0937944,18.4142944 L21.0937944,19.9046729 C21.0937944,22.1803832 19.2424019,24.0317757 16.9666916,24.0317757 C14.6909813,24.0317757 12.8395888,22.1803832 12.8395888,19.9046729 L12.8395888,17.4232523 L15.7301729,6.95029907 L22.0380841,6.95029907 L21.1945,16.1214953 L20.3725187,16.1214953 C19.7394813,16.1214953 19.2260654,16.6346963 19.2260654,17.2679486 C19.2260654,17.9012009 19.7394813,18.4142944 20.3725187,18.4142944 Z M2.29279907,19.9046729 L2.29279907,18.4142944 L5.39607944,18.4142944 C6.02911682,18.4142944 6.54253271,17.9010935 6.54253271,17.2678411 C6.54253271,16.6345888 6.02911682,16.1214953 5.39607944,16.1214953 L2.93561682,16.1214953 L7.15461215,6.95029907 L13.3516075,6.95029907 L10.5881682,16.9628224 C10.5607617,17.0622383 10.5468972,17.164771 10.5468972,17.2678411 L10.5468972,19.9046729 C10.5468972,22.1803832 8.69571963,24.0317757 6.4202243,24.0317757 C4.14429907,24.0317757 2.29279907,22.1803832 2.29279907,19.9046729 Z M19.0305654,36.1838364 L17.8842196,36.1838364 C17.2510748,36.1838364 16.7377664,36.6972523 16.7377664,37.3302897 C16.7377664,37.9634346 17.2510748,38.476743 17.8842196,38.476743 L19.0305654,38.476743 L19.0305654,43.635729 L12.1519533,43.635729 L12.1519533,31.0246355 L19.0305654,31.0246355 L19.0305654,36.1838364 Z M47.4616822,43.635729 L21.323472,43.635729 L21.323472,29.8781822 C21.323472,29.2451449 20.8100561,28.731729 20.1770187,28.731729 L11.0055,28.731729 C10.3723551,28.731729 9.85904673,29.2451449 9.85904673,29.8781822 L9.85904673,43.635729 L7.56646262,43.635729 L7.56646262,26.2201075 C9.26975234,25.9116495 10.740785,24.929743 11.6931355,23.5599533 C12.8536682,25.2291729 14.7841636,26.3246822 16.9666916,26.3246822 C19.1492196,26.3246822 21.079715,25.2290654 22.2402477,23.5598458 C23.4007804,25.2291729 25.3312757,26.3246822 27.5138037,26.3246822 C29.6963318,26.3246822 31.6269346,25.2290654 32.7874673,23.5598458 C33.948,25.2291729 35.8784953,26.3246822 38.0610234,26.3246822 C40.2435514,26.3246822 42.1740467,25.2290654 43.3345794,23.5598458 C44.2870374,24.929743 45.7581776,25.911757 47.4616822,26.2201075 L47.4616822,43.635729 Z M48.608028,24.0317757 C46.3323178,24.0317757 44.4809252,22.1803832 44.4809252,19.9046729 L44.4809252,18.4142944 L52.7351308,18.4142944 L52.7351308,19.9046729 C52.7352383,22.1803832 50.8838458,24.0317757 48.608028,24.0317757 Z" id="Shape"></path>
                <path d="M44.0221075,28.7320514 L24.7629393,28.7320514 C24.1299019,28.7320514 23.616486,29.2454673 23.616486,29.8785047 L23.616486,40.1963692 C23.616486,40.8294065 24.1297944,41.3425 24.7629393,41.3425 L44.0221075,41.3425 C44.6551449,41.3425 45.1685607,40.8291916 45.1685607,40.1960467 L45.1685607,29.8787196 C45.1685607,29.8406729 45.1665187,29.8026262 45.1628645,29.7647944 C45.1612523,29.7491028 45.158243,29.7340561 45.1560935,29.7185794 C45.1530841,29.6969766 45.1505047,29.6753738 45.1462056,29.6538785 C45.1426589,29.6356075 45.1376075,29.6179813 45.1330935,29.6002477 C45.128472,29.5817617 45.1244953,29.5633832 45.1189065,29.5451121 C45.1136402,29.5275935 45.1069766,29.5105047 45.100743,29.4933084 C45.0942944,29.4753598 45.0883832,29.4570888 45.0808598,29.4392477 C45.0741963,29.4233411 45.0665654,29.4080794 45.0591495,29.3924953 C45.0506589,29.3741168 45.0423832,29.3556308 45.0328178,29.3375748 C45.024972,29.3228505 45.0160514,29.308986 45.0074533,29.2947991 C44.9969206,29.2769579 44.9867103,29.2587944 44.9751028,29.2412757 C44.964785,29.226014 44.9533925,29.2117196 44.9424299,29.1968879 C44.9310374,29.1816262 44.9205047,29.1661495 44.9082523,29.1513178 C44.8878318,29.1263832 44.866014,29.1029533 44.8436589,29.0798458 C44.8398972,29.0759766 44.8365654,29.0715701 44.8326963,29.0677009 C44.8290421,29.0640467 44.8250654,29.0609299 44.8210888,29.0572757 C44.7977664,29.0347056 44.774014,29.0125654 44.7488645,28.9920374 C44.7345701,28.9803224 44.7195234,28.9701121 44.7047991,28.9591495 C44.6894299,28.9476495 44.6744907,28.9358271 44.6586916,28.9251869 C44.6418178,28.9137944 44.6241916,28.9041215 44.6069953,28.8939112 C44.5920561,28.8850981 44.5776542,28.8757477 44.5623925,28.8676869 C44.5449813,28.8583364 44.5268178,28.8503832 44.5089766,28.8418925 C44.4929626,28.8343692 44.477271,28.8263084 44.4607196,28.8195374 C44.4434159,28.8123364 44.4256822,28.8065327 44.4080561,28.8002991 C44.3904299,28.7938505 44.3728037,28.7870794 44.3547477,28.7815981 C44.337229,28.7763318 44.3191729,28.7724626 44.3015467,28.7679486 C44.2829533,28.7633271 44.2647897,28.7580607 44.2459813,28.7544065 C44.2254533,28.7504299 44.2049252,28.7478505 44.1843972,28.7450561 C44.1677383,28.7426916 44.1517243,28.7395748 44.1349579,28.7378551 C44.0976636,28.7340935 44.0599393,28.7320514 44.0221075,28.7320514 Z M25.909285,39.0497009 L25.909285,31.0246355 L25.9093925,31.0246355 L34.7694439,31.0246355 L34.276986,31.5170935 C33.8293458,31.9647336 33.8293458,32.6906308 34.276986,33.138486 C34.5008598,33.3622523 34.794271,33.474243 35.0875748,33.474243 C35.3810935,33.474243 35.6742897,33.3622523 35.8981636,33.1383785 L38.0119065,31.0246355 L41.2544766,31.0246355 L33.2296262,39.0497009 L25.909285,39.0497009 Z M42.8757617,39.0497009 L36.4721963,39.0497009 L42.8757617,32.646028 L42.8757617,39.0497009 L42.8757617,39.0497009 Z" id="Shape"></path>
                <path d="M31.6155421,34.178215 L31.116528,34.677229 C30.6688879,35.1249766 30.6688879,35.8507664 31.1166355,36.2986215 C31.3404019,36.5223879 31.6338131,36.6343785 31.9271168,36.6343785 C32.2204206,36.6343785 32.5139393,36.5223879 32.7377056,36.298514 L33.2368271,35.7995 C33.6844673,35.3517523 33.6844673,34.6259626 33.2367196,34.1781075 C32.7892944,33.7303598 32.0632897,33.7304673 31.6155421,34.178215 Z" id="Shape"></path>
            </g>
        </g>
    </g>
</svg>