<svg width="59" height="40" viewBox="0 0 59 40" xmlns="http://www.w3.org/2000/svg"><path d="M48.55 29c-1.468 0-2.86.574-3.912 1.613C43.588 31.663 43 33.033 43 34.5s.574 2.836 1.638 3.887C45.7 39.427 47.082 40 48.548 40 51.557 40 54 37.53 54 34.5S51.556 29 48.55 29zm-.502 9C46.392 38 45 36.632 45 35s1.392-3 3.048-3C49.68 32 51 33.344 51 35s-1.32 3-2.952 3zm2-26.694c-.214-.2-.498-.306-.794-.306h-6.07c-.65 0-1.184.53-1.184 1.176v9.648c0 .647.533 1.176 1.183 1.176h9.634c.65 0 1.183-.53 1.183-1.176v-6.46c0-.33-.142-.646-.39-.87l-3.563-3.188zM51 21h-7v-7h4.264L51 16.435V21zm-31.45 8c-1.468 0-2.86.574-3.912 1.613C14.588 31.663 14 33.033 14 34.5s.574 2.836 1.638 3.887C16.7 39.427 18.082 40 19.548 40 22.557 40 25 37.53 25 34.5S22.556 29 19.55 29zm-1.502 9C16.392 38 15 36.632 15 35s1.392-3 3.048-3C19.68 32 21 33.344 21 35s-1.32 3-2.952 3zm-7.246-8.12H8.395v-2.82c0-.583-.54-1.06-1.197-1.06C6.538 26 6 26.477 6 27.06v3.88c0 .583.54 1.06 1.198 1.06h3.604c.66 0 1.198-.477 1.198-1.06 0-.583-.54-1.06-1.198-1.06zM17 24.5c0-.825-.54-1.5-1.203-1.5H1.203C.54 23 0 23.675 0 24.5S.54 26 1.203 26h14.594C16.46 26 17 25.34 17 24.5zM4.19 19.9l14.595.1c.66 0 1.203-.638 1.215-1.435.012-.81-.53-1.464-1.19-1.464L4.214 17h-.012C3.543 17 3 17.638 3 18.435c-.012.81.53 1.464 1.19 1.464zM6.204 15h14.594C21.46 15 22 14.325 22 13.5s-.54-1.5-1.203-1.5H6.203C5.54 12 5 12.675 5 13.5S5.54 15 6.203 15zm52.352-2.186l-8.613-7.062c-.216-.18-.48-.274-.77-.274H39.044V1.19c0-.654-.542-1.19-1.203-1.19H7.204C6.54 0 6 .536 6 1.19V9.91c0 .655.54 1.19 1.203 1.19.662 0 1.203-.535 1.203-1.19V2.382H36.65v28.236h-9.864c-.66 0-1.203.536-1.203 1.19 0 .656.542 1.192 1.203 1.192h14.688c.66 0 1.203-.536 1.203-1.19 0-.656-.542-1.192-1.203-1.192h-2.418V7.86h9.695l7.844 6.43-.084 16.304h-1.25c-.663 0-1.204.536-1.204 1.19 0 .656.54 1.192 1.203 1.192h2.44c.662 0 1.204-.524 1.204-1.18L59 13.744c-.012-.357-.168-.703-.445-.93z" fill-rule="nonzero" fill="#FFF"/></svg>