<svg width="40" height="20" viewBox="0 0 40 20" xmlns="http://www.w3.org/2000/svg"><title>166026</title><g fill-rule="nonzero" fill="#E6E6E6"><path d="M29.747 5.934c.283-1.43-.514-2.932-1.78-3.57-1.765-.888-4.708-.096-6.037.342l-.063-.02c-1.424 2.08-2.26 4.6-2.26 7.314 0 2.713.836 5.232 2.26 7.314l.063-.02c1.33.438 4.272 1.23 6.037.34 1.266-.636 2.063-2.14 1.78-3.568-.116-.28-.346-.964-.362-1.017-.29-.967-.446-1.99-.446-3.05 0-1.06.155-2.083.445-3.05.016-.052.246-.736.362-1.016zM6.797 3.922C2.042 6.308 0 9.804 0 9.804s2.042 3.496 6.797 5.882c1.607-1.47 2.615-3.563 2.615-5.882 0-2.32-1.008-4.41-2.615-5.882zm-2.09 5.882c-.65 0-1.178-.515-1.178-1.15 0-.637.526-1.153 1.176-1.153.65 0 1.176.517 1.176 1.153s-.526 1.15-1.176 1.15z"/><path d="M19.606 2.153c-.627-.488-1.4-1.06-1.948-1.357C14.172-1.1 12.218.78 11.256 2.4c-.79.184-1.536.406-2.236.66 1.627 1.85 2.617 4.28 2.617 6.94s-.99 5.09-2.617 6.94c.7.254 1.444.476 2.236.66.962 1.62 2.916 3.5 6.402 1.604.547-.298 1.32-.87 1.948-1.357h.002c-1.384-2.29-2.182-4.977-2.182-7.847s.798-5.557 2.182-7.846h-.002zM35.686 5.49l-3.795.95c-.58 1.126-.91 2.403-.91 3.756 0 1.353.33 2.63.91 3.757l3.796.95s3.53-1.178 3.53-4.707c0-3.53-3.53-4.706-3.53-4.706z"/></g></svg>