<svg width="15" height="15" viewBox="0 0 15 15" xmlns="http://www.w3.org/2000/svg"><title>126483</title><path d="M14.008.97c-1.29-1.292-3.386-1.292-4.675 0L.76 9.54c-.066.066-.108.153-.12.245L.003 14.49c-.02.133.03.268.12.36.08.08.193.128.305.128.018 0 .037 0 .056-.003l2.834-.383c.236-.032.402-.25.37-.486-.032-.236-.25-.402-.485-.37l-2.272.307.444-3.28 3.453 3.452c.08.08.19.128.303.128.112 0 .223-.045.303-.128l8.572-8.57c.626-.625.97-1.454.97-2.34 0-.883-.344-1.712-.97-2.335zm-4.51 1.053l1.44 1.44-7.822 7.822-1.44-1.44L9.5 2.024zm-4.362 11.28L3.73 11.894l7.82-7.823L12.96 5.48l-7.822 7.822zm8.422-8.44L10.115 1.42c.437-.36.983-.558 1.557-.558.655 0 1.267.255 1.73.715.463.46.715 1.075.715 1.73 0 .577-.198 1.12-.56 1.557z" fill-rule="nonzero" fill="gray"/></svg>