<svg width="14" height="12" viewBox="0 0 14 12" xmlns="http://www.w3.org/2000/svg"><path d="M13.063 2.488c-.625-.768-1.474-1.375-2.547-1.82C9.443.223 8.27 0 7 0 5.73 0 4.557.223 3.484.668 2.41 1.113 1.564 1.72.938 2.488.312 3.258 0 4.094 0 5c0 .78.236 1.513.707 2.195.47.683 1.116 1.256 1.934 1.72-.057.208-.124.405-.203.593-.078.188-.148.34-.21.46-.063.12-.148.254-.254.4-.107.145-.188.248-.243.308-.054.06-.144.16-.27.297-.124.138-.205.228-.24.27-.007.002-.027.026-.064.07l-.054.066-.047.07c-.026.038-.038.063-.036.074.002.01-.003.036-.016.078-.013.04-.012.073.004.093v.008c.02.09.062.16.125.215.062.055.133.082.21.082h.04c.338-.042.635-.1.89-.172 1.365-.35 2.563-.98 3.594-1.89.39.04.77.062 1.133.062 1.27 0 2.443-.223 3.516-.668 1.073-.445 1.922-1.052 2.547-1.82C13.688 6.744 14 5.906 14 5c0-.906-.312-1.743-.937-2.512zm-.88 4.504c-.544.615-1.278 1.103-2.203 1.465C9.056 8.82 8.062 9 7 9c-.318 0-.656-.02-1.016-.063L5.54 8.89l-.337.298c-.64.562-1.357 1.007-2.148 1.336.24-.422.42-.87.547-1.344l.21-.75-.68-.39c-.676-.386-1.2-.843-1.573-1.372C1.185 6.14 1 5.583 1 5c0-.713.272-1.377.816-1.992.545-.615 1.28-1.103 2.204-1.465C4.944 1.18 5.938 1 7 1c1.063 0 2.056.18 2.98.543.925.362 1.66.85 2.204 1.465C12.728 3.622 13 4.286 13 5c0 .713-.272 1.378-.816 1.992z" fill-rule="nonzero" fill="#AEAEAE"/></svg>