<?xml version="1.0" encoding="UTF-8"?>
<svg width="51px" height="43px" viewBox="0 0 51 43" version="1.1" xmlns="http://www.w3.org/2000/svg" xmlns:xlink="http://www.w3.org/1999/xlink">
    <!-- Generator: Sketch 47 (45396) - http://www.bohemiancoding.com/sketch -->
    <title>352801</title>
    <desc>Created with Sketch.</desc>
    <defs></defs>
    <g id="Delivery_Payment_Guarantee+" stroke="none" stroke-width="1" fill="none" fill-rule="evenodd">
        <g id="WILD_FISH_payment_1440" transform="translate(-937.000000, -406.000000)" fill-rule="nonzero" fill="#CF1A3A">
            <g id="352801" transform="translate(937.000000, 406.000000)">
                <path d="M46.7303354,0 L4.26996342,0 C1.91549202,0 0,1.93811362 0,4.32016622 L0,27.9296574 C0,30.3119116 1.91549202,32.2500252 4.26996342,32.2500252 L18.7134506,32.2500252 L17.2629361,36.65263 C15.8909138,37.0124171 14.8750955,38.2756024 14.8750955,39.7746145 L14.8750955,40.8499446 L11.6874896,40.8499446 C11.1007893,40.8499446 10.6249543,41.331374 10.6249543,41.9249723 C10.6249543,42.5185706 11.1007893,43 11.6874896,43 L16.5370811,43 L16.5372803,43 L34.4631181,43 L39.3128092,43 C39.8995096,43 40.3753445,42.5185706 40.3753445,41.9249723 C40.3753445,41.331374 39.8995096,40.8499446 39.3128092,40.8499446 L36.125303,40.8499446 L36.125303,39.7746145 C36.125303,38.2757032 35.1090862,37.0125179 33.7371635,36.65263 L32.2868482,32.2500252 L46.7303354,32.2500252 C49.0846076,32.2500252 51,30.3120124 51,27.9296574 L51,4.32016622 C51.0000996,1.93811362 49.0847072,0 46.7303354,0 Z M32.9375975,38.6996876 C33.5236006,38.6996876 34.000332,39.1818224 34.000332,39.7746145 L34.000332,40.8499446 L17.000166,40.8499446 L17.000166,39.7746145 C17.000166,39.1818224 17.4766982,38.6996876 18.0626017,38.6996876 L32.9375975,38.6996876 Z M19.5367237,36.5497329 L20.953371,32.2500252 L30.0467286,32.2500252 L31.4633759,36.5497329 L19.5367237,36.5497329 Z M48.8751287,27.9296574 C48.8751287,29.1263274 47.9129998,30.0999698 46.7303354,30.0999698 L30.8127262,30.0999698 L20.1876722,30.0999698 L4.27006303,30.0999698 C3.08739861,30.0999698 2.12507056,29.1263274 2.12507056,27.9296574 L2.12507056,26.8749874 L42.4868681,26.8749874 C43.0736681,26.8749874 43.5494034,26.393558 43.5494034,25.7999597 C43.5494034,25.2063614 43.0737677,24.724932 42.4868681,24.724932 L2.12507056,24.724932 L2.12507056,4.32016622 C2.12507056,3.1234962 3.08739861,2.14995465 4.27006303,2.14995465 L46.7303354,2.14995465 C47.9061268,2.14995465 48.8629763,3.1125111 48.874033,4.29970774 L8.68336462,4.29970774 C8.09666425,4.29970774 7.62082934,4.78113713 7.62082934,5.37473545 C7.62082934,5.96843455 8.09666425,6.44976317 8.68336462,6.44976317 L48.8751287,6.44976317 L48.8751287,27.9296574 Z" id="Shape"></path>
                <path d="M19.2688092,18.0732005 L19.2697955,18.0732005 C19.3508673,18.5629278 19.7414319,18.9497564 20.2343718,18.9843668 L28.2563322,19.5451803 L28.2565294,19.5429005 C28.8059828,19.5821741 29.2958653,19.1642582 29.3658907,18.5826164 L30.0392202,13.0011135 L30.2410119,11.3274813 L31.6407323,11.3347349 C32.2190836,11.336911 32.6902268,10.845733 32.692298,10.2380815 C32.6947637,9.63032636 32.2274669,9.13510697 31.6488198,9.13293087 L29.3222974,9.12122135 C28.7868491,9.11894162 28.3436175,9.53944806 28.2787206,10.0841998 L27.9600554,12.7247481 L27.4111938,17.2749843 L21.1952001,16.8400741 L20.6146791,13.4188221 L24.7920438,13.4188221 C25.373058,13.4188221 25.8442012,12.9240172 25.8442012,12.3136715 C25.8442012,11.7030149 25.373058,11.2081063 24.7920438,11.2081063 L19.3593492,11.2081063 L19.3593492,11.209039 C19.299581,11.209039 19.239221,11.2144274 19.1783679,11.2252043 C18.6064274,11.3300719 18.2238516,11.9026984 18.3234653,12.5034071 L19.2688092,18.0732005 Z" id="Shape"></path>
                <path d="M22.2307692,19.5454545 C21.5105944,19.5454545 20.9230769,20.1308501 20.9230769,20.8483016 C20.9230769,21.5661196 21.5105944,22.1515152 22.2307692,22.1515152 C22.950944,22.1515152 23.5384615,21.5661196 23.5384615,20.8483016 C23.5383389,20.1307279 22.950944,19.5454545 22.2307692,19.5454545 Z" id="Shape"></path>
                <path d="M27.4616611,19.5454545 C26.7414187,19.5454545 26.1538462,20.1308501 26.1538462,20.8483016 C26.1538462,21.5661196 26.7414187,22.1515152 27.4616611,22.1515152 C28.1819034,22.1515152 28.7692308,21.5661196 28.7692308,20.8483016 C28.7692308,20.1307279 28.1819034,19.5454545 27.4616611,19.5454545 Z" id="Shape"></path>
                <path d="M5.47058373,3.90909091 L4.99095473,3.90909091 C4.40130438,3.90909091 3.92307692,4.49262665 3.92307692,5.21212121 C3.92307692,5.93173793 4.40130438,6.51515152 4.99095473,6.51515152 L5.47058373,6.51515152 C6.06023408,6.51515152 6.53846154,5.93186008 6.53846154,5.21212121 C6.53846154,4.4925045 6.06033419,3.90909091 5.47058373,3.90909091 Z" id="Shape"></path>
                <path d="M45.5409855,27.3636364 L45.9974761,27.3636364 C46.5935146,27.3636364 47.0769231,26.7801006 47.0769231,26.0606061 C47.0769231,25.3411115 46.5935146,24.7575758 45.9974761,24.7575758 L45.5409855,24.7575758 C44.9449469,24.7575758 44.4615385,25.3411115 44.4615385,26.0606061 C44.4615385,26.7802228 44.9449469,27.3636364 45.5409855,27.3636364 Z" id="Shape"></path>
            </g>
        </g>
    </g>
</svg>