<svg width="16" height="16" viewBox="0 0 16 16" xmlns="http://www.w3.org/2000/svg"><title>481486</title><g fill-rule="nonzero" fill="none"><path d="M4.267 7.467c0-.197-.16-.356-.356-.356-.195 0-.354.16-.354.357 0 .933 1.03 2.215 1.147 2.36.07.084.172.13.275.13.08 0 .16-.028.225-.082.152-.125.174-.35.05-.5-.38-.465-.986-1.394-.986-1.908zM12.09 7.11c-.198 0-.357.16-.357.357 0 .513-.605 1.442-.986 1.908-.124.15-.102.375.05.5.066.054.146.08.225.08.103 0 .205-.044.275-.13.118-.143 1.147-1.425 1.147-2.358 0-.197-.16-.356-.355-.356zM7.822 7.11c-.196 0-.355.16-.355.357V9.6c0 .197.16.356.355.356.197 0 .356-.16.356-.356V7.467c0-.197-.16-.356-.356-.356z" fill="#AEAEAE"/><path d="M12 1.455c-.22 0-.45.03-.69.073C10.51.595 9.324 0 8 0S5.49.595 4.69 1.528c-.24-.044-.47-.073-.69-.073-2.206 0-4 1.794-4 4C0 6.965.852 8.34 2.19 9.02l-.007 5.495c0 .396.154.77.434 1.05S3.27 16 3.667 16h8.668c.818 0 1.483-.665 1.483-1.484V9.014C15.15 8.334 16 6.96 16 5.454c0-2.205-1.794-4-4-4zm1.09 13.06c0 .418-.34.758-.756.758H3.667c-.202 0-.392-.08-.535-.222-.143-.142-.222-.332-.222-.535l.002-1.424h10.18v1.426zm.226-6.067c-.02.008-.037.017-.054.028-.046.028-.084.066-.112.11-.028.042-.047.092-.055.145-.003.02-.004.042-.004.062v3.572H2.914l.005-3.567c0-.02 0-.04-.004-.06-.007-.055-.028-.106-.057-.15-.028-.042-.064-.078-.108-.106-.02-.01-.038-.02-.058-.028C1.498 7.93.727 6.755.727 5.455.727 3.65 2.195 2.182 4 2.182c.07 0 .145.008.218.014-.368.64-.582 1.378-.582 2.168 0 .2.163.363.364.363.2 0 .364-.162.364-.363C4.364 2.36 5.994.727 8 .727c2.005 0 3.636 1.632 3.636 3.637 0 .2.163.363.364.363.2 0 .364-.162.364-.363 0-.79-.214-1.528-.582-2.168.073-.006.147-.014.218-.014 1.805 0 3.273 1.468 3.273 3.273 0 1.295-.768 2.47-1.957 2.993z" fill="gray"/></g></svg>