<svg width="15" height="16" viewBox="0 0 15 16" xmlns="http://www.w3.org/2000/svg"><g fill-rule="nonzero" fill="#000"><path d="M7.77 15.058h4.22c1.146 0 2.076-.922 2.076-2.05V2.965c0-1.132-.934-2.05-2.077-2.05H7.7c-.258 0-.464-.204-.464-.458 0-.255.206-.458.464-.458h4.287c1.657 0 3.002 1.332 3.002 2.966v10.04c0 1.638-1.348 2.967-3.003 2.967H7.77c-.257 0-.463-.204-.463-.458s.21-.457.464-.457z"/><path d="M.137 7.664l2.945-2.908c.182-.18.473-.18.655 0 .182.18.182.468 0 .647l-2.155 2.13h9.4c.26 0 .465.203.465.457s-.206.457-.464.457h-9.4l2.154 2.13c.182.18.182.467 0 .647-.09.088-.21.135-.326.135-.115 0-.236-.045-.325-.136L.14 8.314c-.185-.182-.185-.473-.003-.65z"/></g></svg>