<?xml version="1.0" encoding="UTF-8"?>
<svg width="15px" height="15px" viewBox="0 0 15 15" version="1.1" xmlns="http://www.w3.org/2000/svg" xmlns:xlink="http://www.w3.org/1999/xlink">
    <!-- Generator: Sketch 46.2 (44496) - http://www.bohemiancoding.com/sketch -->
    <title>Shape</title>
    <desc>Created with Sketch.</desc>
    <defs></defs>
    <g id="Catalog-+-Category+" stroke="none" stroke-width="1" fill="none" fill-rule="evenodd">
        <g id="WILD_FISH_category_popup1_320" transform="translate(-285.000000, -20.000000)" fill-rule="nonzero" fill="#CF1A3A">
            <path d="M293.963998,27.4997701 L299.69869,21.7670964 C300.100437,21.3632353 300.100437,20.7066887 299.69869,20.3028958 C299.29483,19.8990347 298.636243,19.8990347 298.234496,20.3028958 L292.499804,26.0355695 L286.767088,20.3028958 C286.363229,19.8990347 285.706685,19.8990347 285.302894,20.3028958 C284.899103,20.7067568 284.899035,21.3633035 285.302894,21.7670964 L291.035542,27.4997701 L285.302894,33.2344876 C284.899035,33.6362367 284.899035,34.2948953 285.302894,34.6986882 C285.706754,35.1004373 286.363297,35.1004373 286.767088,34.6986882 L292.499736,28.9639707 L298.234427,34.6986882 C298.636175,35.1004373 299.29483,35.1004373 299.698621,34.6986882 C300.100369,34.2948272 300.100369,33.6362367 299.698621,33.2344876 L293.963998,27.4997701 Z" id="Shape"></path>
        </g>
    </g>
</svg>