<?xml version="1.0" encoding="UTF-8"?>
<svg width="15px" height="12px" viewBox="0 0 15 12" version="1.1" xmlns="http://www.w3.org/2000/svg" xmlns:xlink="http://www.w3.org/1999/xlink">
    <!-- Generator: Sketch 47 (45396) - http://www.bohemiancoding.com/sketch -->
    <title>151917</title>
    <desc>Created with Sketch.</desc>
    <defs></defs>
    <g id="Order+" stroke="none" stroke-width="1" fill="none" fill-rule="evenodd">
        <g id="WILD_FISH_Order_samovivoz_1440" transform="translate(-302.000000, -727.000000)" fill-rule="nonzero" fill="#808080">
            <g id="Group-12" transform="translate(186.000000, 715.000000)">
                <g id="151917" transform="translate(116.000000, 12.000000)">
                    <path d="M14.281,11.22325 L4.23,11.22325 C3.81575,11.22325 3.48,10.8875 3.48,10.47325 C3.48,10.059 3.81575,9.72325 4.23,9.72325 L14.28075,9.72325 C14.695,9.72325 15.03075,10.059 15.03075,10.47325 C15.03075,10.8875 14.69525,11.22325 14.281,11.22325 Z M14.281,6.5155 L4.23,6.5155 C3.81575,6.5155 3.48,6.17975 3.48,5.7655 C3.48,5.35125 3.81575,5.0155 4.23,5.0155 L14.28075,5.0155 C14.695,5.0155 15.03075,5.35125 15.03075,5.7655 C15.031,6.17975 14.69525,6.5155 14.281,6.5155 Z M14.281,1.80775 L4.23,1.80775 C3.81575,1.80775 3.48,1.472 3.48,1.05775 C3.48,0.6435 3.81575,0.30775 4.23,0.30775 L14.28075,0.30775 C14.695,0.30775 15.03075,0.6435 15.03075,1.05775 C15.03075,1.472 14.69525,1.80775 14.281,1.80775 Z M1.00725,2.123 C0.450961186,2.123 4.4408921e-16,1.67203881 4.4408921e-16,1.11575 C4.4408921e-16,0.559461186 0.450961186,0.1085 1.00725,0.1085 C1.56353881,0.1085 2.0145,0.559461186 2.0145,1.11575 C2.0145,1.67203881 1.56353881,2.123 1.00725,2.123 Z M1.00725,6.77275 C0.450961186,6.77275 4.4408921e-16,6.32178881 4.4408921e-16,5.7655 C4.4408921e-16,5.20921119 0.450961186,4.75825 1.00725,4.75825 C1.56353881,4.75825 2.0145,5.20921119 2.0145,5.7655 C2.0145,6.32178881 1.56353881,6.77275 1.00725,6.77275 Z M1.00725,11.4225 C0.450961186,11.4225 4.4408921e-16,10.9715388 4.4408921e-16,10.41525 C4.4408921e-16,9.85896119 0.450961186,9.408 1.00725,9.408 C1.56353881,9.408 2.0145,9.85896119 2.0145,10.41525 C2.0145,10.9715388 1.56353881,11.4225 1.00725,11.4225 Z" id="Combined-Shape"></path>
                </g>
            </g>
        </g>
    </g>
</svg>