<?xml version="1.0" encoding="UTF-8"?>
<svg width="107px" height="10px" viewBox="0 0 107 10" version="1.1" xmlns="http://www.w3.org/2000/svg" xmlns:xlink="http://www.w3.org/1999/xlink">
    <!-- Generator: Sketch 47 (45396) - http://www.bohemiancoding.com/sketch -->
    <title>Group 29</title>
    <desc>Created with Sketch.</desc>
    <defs></defs>
    <g id="Index+" stroke="none" stroke-width="1" fill="none" fill-rule="evenodd">
        <g id="Group-31" transform="translate(-103.000000, -15.000000)">
            <g id="Group-29" transform="translate(103.000000, 15.000000)">
                <path d="M0,10 L0,6.67088608 C0.873287072,6.5443038 1.39180127,6.20253165 1.65105837,4.27848101 L2.19686279,0 L8.97848271,0 L8.97848271,6.5443038 L9.79718934,6.5443038 L9.79718934,10 L7.43658522,10 L7.43658522,8.44303797 L2.34695901,8.44303797 L2.34695901,10 L0,10 Z M3.98437227,4.44303797 C3.86156627,5.39240506 3.5067934,6.06329114 2.9882792,6.5443038 L6.6315237,6.5443038 L6.6315237,1.89873418 L4.31185492,1.89873418 L3.98437227,4.44303797 Z M13.208467,8.44303797 L17.042743,3.2278481 L17.042743,8.44303797 L19.4033471,8.44303797 L19.4033471,0 L16.9745175,0 L13.2903376,4.97468354 L13.2903376,0 L10.9433786,0 L10.9433786,8.44303797 L13.208467,8.44303797 Z M29.4052131,8.44303797 L26.5260948,8.44303797 L24.1382005,5.26582278 L23.5241705,5.97468354 L23.5241705,8.44303797 L21.1772115,8.44303797 L21.1772115,0 L23.5241705,0 L23.5241705,3.46835443 L26.3214182,0 L29.2141816,0 L25.680098,3.94936709 L29.4052131,8.44303797 Z M39.0795965,8.44303797 L36.4187999,8.44303797 L35.9685113,7.2278481 L32.3798472,7.2278481 L31.9295586,8.44303797 L29.268762,8.44303797 L32.6936848,0 L35.6410286,0 L39.0795965,8.44303797 Z M35.3271911,5.32911392 L34.1673567,2.15189873 L33.0075223,5.32911392 L35.3271911,5.32911392 Z M42.1906817,8.44303797 L39.5025949,8.44303797 L41.3583299,5.34177215 C40.498688,5.06329114 39.5298851,4.27848101 39.5298851,2.81012658 C39.5298851,1.24050633 40.6897195,0 42.7091959,0 L47.2666628,0 L47.2666628,8.44303797 L44.9060587,8.44303797 L44.9060587,5.60759494 L43.7052889,5.60759494 L42.1906817,8.44303797 Z M43.0503236,3.70886076 L44.9060587,3.70886076 L44.9060587,1.89873418 L43.0503236,1.89873418 C42.4362937,1.89873418 41.9314246,2.2278481 41.9314246,2.79746835 C41.9314246,3.39240506 42.4362937,3.70886076 43.0503236,3.70886076 Z M69.5354831,8.44303797 L67.1885241,8.44303797 L67.1885241,0 L71.745991,0 C73.7927576,0 74.9116567,1.27848101 74.9116567,2.81012658 C74.9116567,4.32911392 73.7927576,5.60759494 71.745991,5.60759494 L69.5354831,5.60759494 L69.5354831,8.44303797 Z M71.4321535,3.70886076 C72.0598286,3.70886076 72.5237623,3.37974684 72.5237623,2.81012658 C72.5237623,2.2278481 72.0598286,1.89873418 71.4321535,1.89873418 L69.5354831,1.89873418 L69.5354831,3.70886076 L71.4321535,3.70886076 Z M76.0987813,0 L78.4457403,0 L78.4457403,2.83544304 L80.6562482,2.83544304 C82.7030148,2.83544304 83.8219138,4.11392405 83.8219138,5.63291139 C83.8219138,7.16455696 82.7030148,8.44303797 80.6562482,8.44303797 L76.0987813,8.44303797 L76.0987813,0 Z M80.3424106,4.73417722 L78.4457403,4.73417722 L78.4457403,6.5443038 L80.3424106,6.5443038 C80.9700857,6.5443038 81.4340195,6.21518987 81.4340195,5.63291139 C81.4340195,5.06329114 80.9700857,4.73417722 80.3424106,4.73417722 Z M86.8374832,8.44303797 L86.8374832,0 L84.4905242,0 L84.4905242,8.44303797 L86.8374832,8.44303797 Z M88.6113476,0 L95.7204502,0 L95.7204502,1.89873418 L90.9583066,1.89873418 L90.9583066,2.98734177 L93.2506852,2.98734177 C95.2565164,2.98734177 96.3344801,4.2278481 96.3344801,5.70886076 C96.3344801,7.18987342 95.2565164,8.44303797 93.2506852,8.44303797 L88.6113476,8.44303797 L88.6113476,0 Z M92.9641379,4.88607595 L90.9583066,4.88607595 L90.9583066,6.5443038 L92.9641379,6.5443038 C93.5235874,6.5443038 93.9465858,6.24050633 93.9465858,5.70886076 C93.9465858,5.18987342 93.5235874,4.88607595 92.9641379,4.88607595 Z M106.363636,8.44303797 L103.70284,8.44303797 L103.252551,7.2278481 L99.6638871,7.2278481 L99.2135985,8.44303797 L96.5528019,8.44303797 L99.9777247,0 L102.925069,0 L106.363636,8.44303797 Z M102.611231,5.32911392 L101.451397,2.15189873 L100.291562,5.32911392 L102.611231,5.32911392 Z" id="ДИКАЯ-РЫБА" fill="#033868"></path>
                <path d="M57.6530049,0.813009072 C58.5916493,1.30801349 59.0909091,1.81818182 59.0909091,1.81818182 C59.0909091,1.81818182 58.9581014,1.27127809 58.4292371,0.794781429 C59.2703484,0.836103275 60.2613535,1.09894686 60.8794082,1.98016899 C60.8794082,1.98016899 59.3804847,2.6209889 59.3804847,4.03748943 C59.3804847,5.96627556 61.1336182,7.66360735 63.6896891,7.66360735 C64.3599812,7.66360735 64.9845059,7.57874076 65.4545455,7.4900166 C65.3623682,7.7407588 64.0375215,9.09090909 61.1202894,9.09090909 C58.8452466,9.09090909 55.9911254,8.5201427 54.0677691,6.59644856 C50.8025439,3.33031928 50.9094952,0.642825841 50.9094952,0.642825841 L51.4850407,0.642825841 L51.4715514,0.15430289 C51.4715514,0.15430289 52.2343419,0 52.9971324,0 C55.3524689,0 56.87805,0.938624482 56.87805,0.938624482 C56.87805,0.938624482 57.190723,0.855495588 57.6530049,0.813009072 Z M53.1632368,1.12043076 C53.1632368,1.00377116 53.0655808,0.909090909 52.9452547,0.909090909 C52.8249287,0.909090909 52.7272727,1.00377116 52.7272727,1.12043076 C52.7272727,1.23709036 52.8249287,1.33177061 52.9452547,1.33177061 C53.0655808,1.33177061 53.1632368,1.23709036 53.1632368,1.12043076 Z M52.7272727,3.63636364 C52.7272727,3.63636364 53.6247826,3.56025512 54.1199605,2.68500713 C54.4597763,2.08435868 54.563516,1.6575421 54.5429662,0.909090909 C53.9754923,2.74848164 52.7272727,3.63636364 52.7272727,3.63636364 Z" id="Combined-Shape" fill="#CF1A3A"></path>
            </g>
        </g>
    </g>
</svg>