<?xml version="1.0" encoding="UTF-8"?>
<svg width="31px" height="24px" viewBox="0 0 31 24" version="1.1" xmlns="http://www.w3.org/2000/svg" xmlns:xlink="http://www.w3.org/1999/xlink">
    <!-- Generator: Sketch 46.2 (44496) - http://www.bohemiancoding.com/sketch -->
    <title>Group</title>
    <desc>Created with Sketch.</desc>
    <defs></defs>
    <g id="Index+" stroke="none" stroke-width="1" fill="none" fill-rule="evenodd">
        <g id="WILD_FISH_index_1440" transform="translate(-1400.000000, -120.000000)">
            <g id="Group-28" transform="translate(1386.000000, 110.000000)">
                <g id="Group" transform="translate(14.000000, 10.000000)">
                    <path d="M10.8185834,8.62661272 C12.2251857,9.59385375 12.9725095,10.5724197 12.9725095,10.5724197 C12.9725095,10.5724197 12.7563197,9.43159927 11.8849343,8.46913171 C13.4890397,8.3188239 16.1095905,8.45494441 17.5615606,10.5796694 C17.5615606,10.5796694 14.9213802,11.7381177 14.9213802,14.2988101 C14.9213802,17.7855917 18.0093221,20.8539595 22.5115453,20.8539595 C23.6921873,20.8539595 24.7922153,20.7005411 25.6201356,20.5401491 C25.4577761,20.9934308 23.1242119,23.4341779 17.985845,23.4341779 C13.9786202,23.4341779 8.95141581,22.4023695 5.56364629,18.924793 C-0.18767019,13.0204165 0.000712083788,8.16207456 0.000712083788,8.16207456 L1.01446895,8.16207456 L0.990709019,7.27894253 C0.990709019,7.27894253 2.33427629,7 3.67784356,7 C7.82649643,7 10.513631,8.69680738 10.513631,8.69680738 C10.513631,8.69680738 10.6238538,8.66673142 10.8185834,8.62661272 Z M4.71605528,8.54529103 C4.71605528,8.33439853 4.54404564,8.1632394 4.33210518,8.1632394 C4.12016472,8.1632394 3.94815508,8.33439853 3.94815508,8.54529103 C3.94815508,8.75618354 4.12016472,8.92734267 4.33210518,8.92734267 C4.54404564,8.92734267 4.71605528,8.75618354 4.71605528,8.54529103 Z M3.94815508,14.1861903 C3.94815508,14.1861903 5.89708458,14.034919 6.97235602,12.295299 C7.71026105,11.1014659 7.93553042,10.2531364 7.89090666,8.76553448 C6.65864558,12.4214593 3.94815508,14.1861903 3.94815508,14.1861903 Z" id="Combined-Shape" fill="#033868"></path>
                    <g id="icon_comment" transform="translate(19.000000, 0.000000)" fill-rule="nonzero" fill="#CF1A3A">
                        <path d="M11.1966193,2.13281894 C10.6609283,1.47438744 9.93323387,0.954247194 9.0136064,0.572538934 C8.09397893,0.190830675 7.08944401,0 6.0001189,0 C4.91081726,0 3.90630579,0.190830675 2.98665486,0.572538934 C2.06700394,0.954247194 1.33933299,1.47429362 0.803595102,2.13281894 C0.26783376,2.79129736 0,3.50890607 0,4.28571545 C0,4.95533503 0.201948391,5.5827589 0.606009359,6.16756485 C1.01007033,6.75239425 1.56246133,7.243544 2.26344038,7.6408499 C2.2142785,7.81936665 2.15625059,7.98897046 2.08926283,8.14982552 C2.02229852,8.31051639 1.96204238,8.44224022 1.90847093,8.54497355 C1.85485258,8.64756615 1.78237633,8.7614641 1.69078417,8.88636249 C1.59933275,9.01142508 1.53014021,9.0996397 1.48325347,9.15100636 C1.43641364,9.20237303 1.35941055,9.28706938 1.2521973,9.40544726 C1.14512478,9.52368441 1.07588533,9.60082823 1.0446666,9.63655034 C1.04013976,9.63882548 1.02231389,9.65878577 0.991071698,9.69692376 C0.959852963,9.73480374 0.944184957,9.75366164 0.944184957,9.75366164 L0.904006375,9.81394124 C0.881653667,9.84724748 0.871614885,9.86852125 0.873819664,9.87734037 C0.876071354,9.88634713 0.871614885,9.90865293 0.860450259,9.94428122 C0.849262177,9.9800737 0.850411477,10.0068829 0.863780882,10.0247088 L0.863780882,10.0314404 C0.881653667,10.1072941 0.91732887,10.1687231 0.970900314,10.2155863 C1.02447176,10.2623089 1.08484518,10.2857405 1.15173912,10.2857405 L1.18525645,10.2857405 C1.47551329,10.2499481 1.72995418,10.2009973 1.94867297,10.138466 C3.11837869,9.83939002 4.14521941,9.29919567 5.02912477,8.51785945 C5.36392283,8.55358157 5.68760318,8.57140744 6.00007199,8.57140744 C7.08937364,8.57140744 8.09393202,8.38060022 9.01355949,7.99877469 C9.93318696,7.61701952 10.6608814,7.09706691 11.1965723,6.43861196 C11.7323571,5.78018045 12.0002144,5.06250137 12.0002144,4.28569199 C12.0002378,3.50899989 11.732404,2.79129736 11.1966193,2.13281894 Z" id="Shape"></path>
                    </g>
                </g>
            </g>
        </g>
    </g>
</svg>