<svg xmlns="http://www.w3.org/2000/svg" viewBox="0 0 160 36"><path fill="#FFF" d="M150.559 3.273h1.211c.603 0 .666.311.666.577 0 .123.015.612.086.812h.611v-.073c-.153-.078-.177-.145-.183-.323l-.031-.587c-.021-.452-.233-.532-.441-.609.229-.123.507-.299.507-.78 0-.688-.608-.874-1.215-.874h-1.708v3.246h.497V3.273zm0-1.482h1.246c.249 0 .666.041.666.543 0 .481-.387.562-.752.562h-1.16V1.791zm-37.357 4.317h-7.162l-2.115 5.983h7.164l2.113-5.983zm35.581 23.93l5.754-15.99h-15.5c-4.815.114-6.458 5.522-6.458 5.522l-3.875 10.468h-8.221l3.874-10.929h4.698l1.761-5.407h-4.343l2.816-7.594h-7.396l-3.17 7.826h-4.58l-1.878 5.291h4.814l-4.11 10.928h-8.219l5.755-16.219h-7.165L97 30.211l-6.341.058-1.528-5.982 10.334-10.239H90.89l-8.219 7.938L88.19 6.108h-7.163l-9.043 24.045h-5.87l5.637-16.105H55.897c-4.116 0-5.87 4.487-5.87 4.487l-4.581 11.503h-5.87l5.754-15.99H32.763l1.409-4.027H21.724l1.292-3.913H0v6.672h13.152L4.471 36h7.515l7.39-19.538h4.933L17.388 36h7.514l5.865-15.855h5.402L30.07 36h10.12c.247-.176 2.151-1.542 5.08-3.718 0 0 .695 2.832 2.947 3.718h5.31c.116-.145.862-.84 4.483-3.832 0 0 .177 2.665 2.651 3.832h6.411c.144-.167 1.138-1.274 4.207-3.805L69.82 36h7.573l4.22-11.14 3.4 11.14h7.776l3.856-3.776c.6 3.133 2.809 3.683 3.454 3.776h8.545l3.97-3.661c.325 2.443 2.947 3.511 3.348 3.661h8.535l3.854-3.776c.47 3.222 3.756 3.775 3.756 3.775h5.168l3.641-3.775c.585 3.222 4.108 3.775 4.108 3.775H160v-5.962h-11.217zm-90.537.231h-5.049l3.992-10.124h5.049l-3.992 10.124zm82.671 0h-5.05l3.993-10.124h5.05l-3.993 10.124zm10.579-24.205c.8 0 1.549-.315 2.119-.888a3.035 3.035 0 00.878-2.144c0-.811-.313-1.572-.878-2.143A2.964 2.964 0 00151.496 0c-1.653 0-2.997 1.36-2.997 3.032 0 .81.313 1.571.879 2.144a2.955 2.955 0 002.118.888zm-1.911-4.965a2.662 2.662 0 011.911-.8c.721 0 1.398.283 1.911.8.507.516.789 1.202.789 1.933 0 1.507-1.21 2.734-2.7 2.734a2.673 2.673 0 01-1.911-.801 2.732 2.732 0 01-.793-1.933c.001-.73.282-1.416.793-1.933z"/></svg>