<svg xmlns="http://www.w3.org/2000/svg" viewBox="0 0 12 12"><path d="M1.541 0h8.919C11.307 0 12 .693 12 1.54v8.92c0 .847-.693 1.54-1.54 1.54H1.541A1.545 1.545 0 010 10.46V1.54C0 .693.693 0 1.541 0zm7.201 1.333a.542.542 0 00-.54.541v1.293c0 .298.243.541.54.541h1.356c.297 0 .54-.243.54-.541V1.874a.542.542 0 00-.54-.541H8.742zm1.901 3.742H9.588c.1.327.154.672.154 1.03 0 1.996-1.671 3.614-3.731 3.614-2.059 0-3.73-1.618-3.73-3.614 0-.359.055-.703.155-1.03H1.334v5.07c0 .262.214.476.477.476h8.356a.476.476 0 00.476-.476v-5.07zM6.011 3.639c-1.33 0-2.41 1.045-2.41 2.336 0 1.289 1.079 2.335 2.41 2.335 1.331 0 2.41-1.046 2.41-2.335.001-1.291-1.079-2.336-2.41-2.336z"/></svg>