<svg width="107" height="32" viewBox="0 0 107 32" fill="none" xmlns="http://www.w3.org/2000/svg">
<rect width="32" height="32" rx="8" fill="#B6E388"/>
<path d="M49.517 24.5V7.04545H53.2074V21.4574H60.6903V24.5H49.517ZM68.9808 24.7557C67.657 24.7557 66.5121 24.4744 65.5462 23.9119C64.5859 23.3437 63.8445 22.554 63.3217 21.5426C62.799 20.5256 62.5376 19.3466 62.5376 18.0057C62.5376 16.6534 62.799 15.4716 63.3217 14.4602C63.8445 13.4432 64.5859 12.6534 65.5462 12.0909C66.5121 11.5227 67.657 11.2386 68.9808 11.2386C70.3047 11.2386 71.4467 11.5227 72.407 12.0909C73.3729 12.6534 74.1172 13.4432 74.6399 14.4602C75.1626 15.4716 75.424 16.6534 75.424 18.0057C75.424 19.3466 75.1626 20.5256 74.6399 21.5426C74.1172 22.554 73.3729 23.3437 72.407 23.9119C71.4467 24.4744 70.3047 24.7557 68.9808 24.7557ZM68.9979 21.9432C69.6001 21.9432 70.103 21.7727 70.5064 21.4318C70.9098 21.0852 71.2138 20.6136 71.4183 20.017C71.6286 19.4205 71.7337 18.7415 71.7337 17.9801C71.7337 17.2188 71.6286 16.5398 71.4183 15.9432C71.2138 15.3466 70.9098 14.875 70.5064 14.5284C70.103 14.1818 69.6001 14.0085 68.9979 14.0085C68.3899 14.0085 67.8786 14.1818 67.4638 14.5284C67.0547 14.875 66.745 15.3466 66.5348 15.9432C66.3303 16.5398 66.228 17.2188 66.228 17.9801C66.228 18.7415 66.3303 19.4205 66.5348 20.017C66.745 20.6136 67.0547 21.0852 67.4638 21.4318C67.8786 21.7727 68.3899 21.9432 68.9979 21.9432ZM83.6825 29.6818C82.5064 29.6818 81.4979 29.5199 80.657 29.196C79.8217 28.8778 79.157 28.4432 78.6626 27.892C78.1683 27.3409 77.8473 26.7216 77.6996 26.0341L81.0575 25.5824C81.1598 25.8438 81.3217 26.0881 81.5433 26.3153C81.7649 26.5426 82.0575 26.7244 82.4212 26.8608C82.7905 27.0028 83.2393 27.0739 83.7678 27.0739C84.5575 27.0739 85.2081 26.8807 85.7195 26.4943C86.2365 26.1136 86.495 25.4744 86.495 24.5767V22.1818H86.3416C86.1825 22.5455 85.9439 22.8892 85.6257 23.2131C85.3075 23.5369 84.8984 23.8011 84.3984 24.0057C83.8984 24.2102 83.3018 24.3125 82.6087 24.3125C81.6257 24.3125 80.7308 24.0852 79.924 23.6307C79.1229 23.1705 78.4837 22.4687 78.0064 21.5256C77.5348 20.5767 77.299 19.3778 77.299 17.929C77.299 16.446 77.5405 15.2074 78.0234 14.2131C78.5064 13.2187 79.1484 12.4744 79.9496 11.9801C80.7564 11.4858 81.6399 11.2386 82.6001 11.2386C83.3331 11.2386 83.9467 11.3636 84.4411 11.6136C84.9354 11.858 85.3331 12.1648 85.6342 12.5341C85.9411 12.8977 86.1768 13.2557 86.3416 13.608H86.478V11.4091H90.0831V24.6278C90.0831 25.7415 89.8104 26.6733 89.2649 27.4233C88.7195 28.1733 87.9638 28.7358 86.9979 29.1108C86.0376 29.4915 84.9325 29.6818 83.6825 29.6818ZM83.7592 21.5852C84.3445 21.5852 84.8388 21.4403 85.2422 21.1506C85.6513 20.8551 85.9638 20.4347 86.1797 19.8892C86.4013 19.3381 86.5121 18.679 86.5121 17.9119C86.5121 17.1449 86.4041 16.4801 86.1882 15.9176C85.9723 15.3494 85.6598 14.9091 85.2507 14.5966C84.8416 14.2841 84.3445 14.1278 83.7592 14.1278C83.1626 14.1278 82.6598 14.2898 82.2507 14.6136C81.8416 14.9318 81.532 15.375 81.3217 15.9432C81.1115 16.5114 81.0064 17.1676 81.0064 17.9119C81.0064 18.6676 81.1115 19.321 81.3217 19.8722C81.5376 20.4176 81.8473 20.8409 82.2507 21.142C82.6598 21.4375 83.1626 21.5852 83.7592 21.5852ZM98.8871 24.7557C97.5632 24.7557 96.4183 24.4744 95.4524 23.9119C94.4922 23.3437 93.7507 22.554 93.228 21.5426C92.7053 20.5256 92.4439 19.3466 92.4439 18.0057C92.4439 16.6534 92.7053 15.4716 93.228 14.4602C93.7507 13.4432 94.4922 12.6534 95.4524 12.0909C96.4183 11.5227 97.5632 11.2386 98.8871 11.2386C100.211 11.2386 101.353 11.5227 102.313 12.0909C103.279 12.6534 104.023 13.4432 104.546 14.4602C105.069 15.4716 105.33 16.6534 105.33 18.0057C105.33 19.3466 105.069 20.5256 104.546 21.5426C104.023 22.554 103.279 23.3437 102.313 23.9119C101.353 24.4744 100.211 24.7557 98.8871 24.7557ZM98.9041 21.9432C99.5064 21.9432 100.009 21.7727 100.413 21.4318C100.816 21.0852 101.12 20.6136 101.325 20.017C101.535 19.4205 101.64 18.7415 101.64 17.9801C101.64 17.2188 101.535 16.5398 101.325 15.9432C101.12 15.3466 100.816 14.875 100.413 14.5284C100.009 14.1818 99.5064 14.0085 98.9041 14.0085C98.2962 14.0085 97.7848 14.1818 97.37 14.5284C96.9609 14.875 96.6513 15.3466 96.4411 15.9432C96.2365 16.5398 96.1342 17.2188 96.1342 17.9801C96.1342 18.7415 96.2365 19.4205 96.4411 20.017C96.6513 20.6136 96.9609 21.0852 97.37 21.4318C97.7848 21.7727 98.2962 21.9432 98.9041 21.9432Z" fill="#252525"/>
</svg>
