<svg width="43" height="43" viewBox="0 0 43 43" fill="none" xmlns="http://www.w3.org/2000/svg">
    <path d="M29.0224 15.4447H18.352C17.8772 15.4447 17.4861 15.642 17.2068 16.0083C16.9275 16.3747 16.7878 16.7975 16.7878 17.3048C16.7878 17.7839 16.9275 18.2067 17.1789 18.5449C17.4582 18.8831 17.8213 19.0522 18.3241 19.0522H24.609C26.3129 19.0522 27.6537 19.7004 28.6314 20.9687C29.5252 22.1242 29.9721 23.5334 29.9721 25.2244C29.9721 26.9154 29.5252 28.3246 28.6314 29.4802C27.6537 30.7484 26.3129 31.3967 24.609 31.3967H13.1844V27.0845H23.8828C24.3297 27.0845 24.6928 26.8873 24.9721 26.5209C25.2515 26.1545 25.3632 25.7035 25.3632 25.1962C25.3632 24.6889 25.2235 24.2662 24.9721 23.928C24.7207 23.5898 24.3576 23.4207 23.8828 23.4207H17.5978C15.8939 23.4207 14.5532 22.8006 13.5476 21.5324C12.6537 20.405 12.2068 18.9958 12.2068 17.3048C12.2068 15.642 12.6537 14.261 13.5476 13.1054C14.5532 11.8372 15.8939 11.1889 17.5978 11.1889H28.9945V15.4447H29.0224Z" fill="#fff"/>
    <path d="M39.3291 10.9061L38.4073 11.3852C38.2677 11.4698 38.2118 11.6389 38.2956 11.7798C40.223 15.3028 41.0889 19.4458 40.5302 23.8424C39.4129 32.7203 32.4576 39.7662 23.6587 40.8936C10.7258 42.5846 -0.196035 31.4239 1.70341 18.3184C2.93246 9.80696 9.5805 3.07105 17.9883 1.74642C21.1168 1.26729 24.1336 1.52095 26.871 2.39464C26.8431 2.53556 26.8431 2.6483 26.8431 2.78921C26.8431 4.33932 28.3235 5.55122 29.9157 5.0721C30.642 4.84663 31.2285 4.25477 31.452 3.52199C31.9269 1.88734 30.7258 0.421783 29.1894 0.421783C28.5749 0.421783 28.0163 0.675437 27.5693 1.07001C24.6084 0.0553949 21.3123 -0.28281 17.9045 0.224497C8.77044 1.6055 1.56374 8.90508 0.22296 18.1212C-1.81615 32.3539 10.195 44.4447 24.3012 42.331C33.3794 40.9781 40.5861 33.7067 41.9269 24.547C42.6531 19.6149 41.7034 14.9082 39.5246 10.9907C39.4967 10.9061 39.4129 10.8779 39.3291 10.9061Z" fill="#fff"/>
</svg>