<svg width="40" height="42" viewBox="0 0 40 42" xmlns="http://www.w3.org/2000/svg"><title>stove (1)</title><g fill="#006DAA"><path d="M9.573 15.043a2.735 2.735 0 1 0 0 5.47 2.735 2.735 0 0 0 0-5.47zm0 4.102a1.367 1.367 0 1 1 0-2.735 1.367 1.367 0 0 1 0 2.735zm6.837-4.102a2.735 2.735 0 1 0 0 5.47 2.735 2.735 0 0 0 0-5.47zm0 4.102a1.367 1.367 0 1 1 0-2.735 1.367 1.367 0 0 1 0 2.735zm6.838-4.102a2.735 2.735 0 1 0 0 5.47 2.735 2.735 0 0 0 0-5.47zm0 4.102a1.367 1.367 0 1 1 0-2.735 1.367 1.367 0 0 1 0 2.735zm6.837-4.102a2.735 2.735 0 1 0 0 5.47 2.735 2.735 0 0 0 0-5.47zm0 4.102a1.367 1.367 0 1 1 0-2.735 1.367 1.367 0 0 1 0 2.735z"/><path d="M32.82 6.838h6.838V2.735h-16.41v4.786c.002.743.249 1.463.701 2.052h-1.385a2.051 2.051 0 0 0-2.051 2.05v.685h-1.368v-.684a2.051 2.051 0 0 0-2.051-2.051h-.684v-5.47h1.368V2.735h-4.103V.684A.684.684 0 0 0 12.991 0h-2.735a.684.684 0 0 0-.683.684v2.051H5.47v1.368h1.368v5.47h-.684a2.051 2.051 0 0 0-2.051 2.05v.685H0v28.718h39.658V12.308h-4.102v-.684a2.051 2.051 0 0 0-2.052-2.051H32.12c.452-.589.699-1.31.702-2.052v-.683zm2.736-2.735h2.735V5.47h-2.735V4.103zm-2.735 0h1.367V5.47h-1.367V4.103zm-8.206 0h6.838V7.52a2.051 2.051 0 0 1-2.051 2.052h-2.735a2.051 2.051 0 0 1-2.052-2.052V4.103zM10.94 1.368h1.368v1.367H10.94V1.368zM8.205 4.103h6.838v2.05H8.205v-2.05zm0 3.418h6.838v2.052H8.205V7.52zM5.47 11.624c0-.378.306-.684.684-.684h10.94c.378 0 .684.306.684.684v.684H5.47v-.684zm0 2.051h28.718v8.205H5.47v-8.205zm28.718 25.983H6.154V25.983h28.034v13.675zm1.368-17.094v-8.889h2.735v25.983h-2.735V25.3a.684.684 0 0 0-.684-.684H5.47a.684.684 0 0 0-.684.684v14.36H1.368V13.674h2.735v8.89c0 .377.306.683.683.683h30.086a.684.684 0 0 0 .684-.684zM33.504 10.94c.378 0 .684.306.684.684v.684H21.88v-.684c0-.378.306-.684.684-.684h10.94z"/><path d="M10.256 27.35h19.145v1.368H10.256zm3.419 5.471h1.368v1.368h-1.368zm0 4.102h1.368v1.368h-1.368zm5.47-4.102h1.368v1.368h-1.368zm0 4.102h1.368v1.368h-1.368zm5.47-4.102h1.368v1.368h-1.368zm0 4.102h1.368v1.368h-1.368zm-8.205-2.051h1.368v1.368H16.41zm5.47 0h1.368v1.368H21.88zM24.615 0h1.368v1.368h-1.368zm2.735 0h1.368v1.368H27.35zm2.735 0h1.368v1.368h-1.368z"/></g></svg>