<svg width="65" height="64" viewBox="0 0 65 64" fill="none" xmlns="http://www.w3.org/2000/svg">
<g clip-path="url(#clip0_153_538)">
<path d="M38.0448 16.0027C39.8676 12.8118 38.7859 8.73166 35.6287 6.8894C32.4715 5.04715 28.4344 6.14043 26.6116 9.3313L7.37882 42.999C5.55602 46.1898 6.63775 50.27 9.79493 52.1122C12.9521 53.9545 16.9892 52.8612 18.812 49.6703L38.0448 16.0027Z" fill="url(#paint0_linear_153_538)"/>
<path d="M38.5557 9.34659C36.7329 6.14107 32.684 5.03592 29.5124 6.87817C26.3407 8.72043 25.2472 12.8125 27.07 16.018L46.3028 49.8402C48.1256 53.0457 52.1744 54.1508 55.3461 52.3086C58.5178 50.4663 59.6113 46.3743 57.7885 43.1688L38.5557 9.34659Z" fill="url(#paint1_linear_153_538)"/>
</g>
<defs>
<linearGradient id="paint0_linear_153_538" x1="35.6282" y1="6.88906" x2="9.38161" y2="51.8698" gradientUnits="userSpaceOnUse">
<stop stop-color="#58C0F2"/>
<stop offset="1" stop-color="#254DF1"/>
</linearGradient>
<linearGradient id="paint1_linear_153_538" x1="55.3458" y1="52.3082" x2="29.097" y2="7.11941" gradientUnits="userSpaceOnUse">
<stop stop-color="#6AE6ED"/>
<stop offset="1" stop-color="#57BEF5"/>
</linearGradient>
<clipPath id="clip0_153_538">
<rect width="52" height="47" fill="white" transform="translate(6.5 6)"/>
</clipPath>
</defs>
</svg>
