<?xml version="1.0" standalone="no"?>
<!DOCTYPE svg PUBLIC "-//W3C//DTD SVG 1.1//EN" "http://www.w3.org/Graphics/SVG/1.1/DTD/svg11.dtd">
<svg xmlns="http://www.w3.org/2000/svg">
<metadata>Copyright (C) 2018 by original authors @ fontello.com</metadata>
<defs>
<font id="fontello" horiz-adv-x="1000" >
<font-face font-family="fontello" font-weight="400" font-stretch="normal" units-per-em="1000" ascent="850" descent="-150" />
<missing-glyph horiz-adv-x="1000" />
<glyph glyph-name="arrow-left-circle-round" unicode="&#xe800;" d="M500-150c-276 0-500 224-500 500s224 500 500 500 500-224 500-500-224-500-500-500z m0 62c242 0 438 196 438 438s-196 438-438 438-437-196-437-438 195-438 437-438z m22 273c12-13 12-32 0-45-12-12-32-12-44 0l-188 188c-12 12-12 32 0 44l188 188c12 12 32 12 44 0 12-13 12-32 0-45l-165-165 165-165z m166 196c17 0 31-14 31-31s-14-31-31-31h-375c-18 0-32 14-32 31s14 31 32 31h375z" horiz-adv-x="1000" />

<glyph glyph-name="arrow-left" unicode="&#xe801;" d="M551-28c27-28 27-73 0-101-28-28-74-28-101 0l-429 429c-28 27-28 73 0 101l429 428c27 28 73 28 101 0 27-28 27-73 0-101l-379-378 379-378z m378 449c39 0 71-32 71-71s-32-71-71-71h-858c-39 0-71 32-71 71s32 71 71 71h858z" horiz-adv-x="1000" />

<glyph glyph-name="arrow-right-circle-round" unicode="&#xe802;" d="M500-150c-276 0-500 224-500 500s224 500 500 500 500-224 500-500-224-500-500-500z m0 62c242 0 438 196 438 438s-196 438-438 438-437-196-437-438 195-438 437-438z m-22 603c-12 13-12 32 0 45 12 12 32 12 44 0l188-188c12-12 12-32 0-44l-188-188c-12-12-32-12-44 0-12 13-12 32 0 45l165 165-165 165z m-165-196c-18 0-32 14-32 31s14 31 32 31h375c17 0 31-14 31-31s-14-31-31-31h-375z" horiz-adv-x="1000" />

<glyph glyph-name="arrow-right" unicode="&#xe803;" d="M6645 667c-46 30-59 93-28 139 30 45 93 58 139 27l600-400c59-39 59-127 0-166l-600-400c-46-31-109-18-139 27-31 46-18 109 28 139l475 317-475 317z m-6548-417c-53 0-97 45-97 100s44 100 97 100h7006c53 0 97-45 97-100s-44-100-97-100h-7006z" horiz-adv-x="7400" />

<glyph glyph-name="calendar" unicode="&#xe804;" d="M136 668c-25 0-45-20-45-45v-637c0-25 20-45 45-45h637c25 0 45 20 45 45v637c0 25-20 45-45 45h-637z m0 91h637c75 0 136-61 136-136v-637c0-75-61-136-136-136h-637c-75 0-136 61-136 136v637c0 75 61 136 136 136z m455 46c0 25 20 45 45 45s46-20 46-45v-182c0-25-20-46-46-46s-45 21-45 46v182z m-364 0c0 25 21 45 46 45s45-20 45-45v-182c0-25-20-46-45-46s-46 21-46 46v182z m-181-409c-26 0-46 20-46 45s20 45 46 45h818c25 0 45-20 45-45s-20-45-45-45h-818z" horiz-adv-x="909" />

<glyph glyph-name="chevron-down" unicode="&#xe805;" d="M875 152l662 661c48 49 128 49 176 0 49-48 49-128 0-176l-750-750c-48-49-128-49-176 0l-750 750c-49 48-49 128 0 176 48 49 128 49 176 0l662-661z" horiz-adv-x="1750" />

<glyph glyph-name="clock" unicode="&#xe806;" d="M500-150c-276 0-500 224-500 500 0 276 224 500 500 500 276 0 500-224 500-500 0-276-224-500-500-500z m0 91c226 0 409 183 409 409 0 226-183 409-409 409-226 0-409-183-409-409 0-226 183-409 409-409z m46 437l156-78c23-11 32-39 21-61-12-23-39-32-61-21l-182 91c-16 8-25 24-25 41v273c0 25 20 45 45 45 25 0 46-20 46-45v-245z" horiz-adv-x="1000" />

<glyph glyph-name="close" unicode="&#xe807;" d="M922 837c18 17 47 17 65 0 17-18 17-47 0-65l-909-909c-18-17-47-17-65 0-17 18-17 47 0 65l909 909z m-909-65c-17 18-17 47 0 65 18 17 47 17 65 0l909-909c17-18 17-47 0-65-18-17-47-17-65 0l-909 909z" horiz-adv-x="1000" />

<glyph glyph-name="play" unicode="&#xe808;" d="M500 829c-265 0-479-214-479-479s214-479 479-479 479 214 479 479-214 479-479 479z m0 21c276 0 500-224 500-500s-224-500-500-500-500 224-500 500 224 500 500 500z m-73-295l280-180c12-8 12-26 0-34l-280-180c-14-9-31 1-31 17v360c0 16 17 26 31 17z" horiz-adv-x="1000" />

<glyph glyph-name="filter" unicode="&#xe809;" d="M425 318l-394 466c-14 16-2 41 19 41h1000c21 0 33-25 19-41l-394-466v-418c0-19-20-31-36-22l-200 100c-9 4-14 12-14 22v318z m571 457h-892l365-432c4-4 6-10 6-16v-311l150-76v387c0 6 2 12 6 16l365 432z" horiz-adv-x="1100" />

<glyph glyph-name="icon-horse" unicode="&#xe80a;" d="M33 102c3-2 6-3 10-3 3 0 5 1 8 2 34 15 31 169 31 171 0 9-1 20-1 32-1 32-3 83 1 126 3-26 12-71 24-101 12-31 13-47 10-61-1-7-7-21-13-35-7-16-15-34-21-53-9-28-3-49 2-67 2-7 4-14 5-21 2-18 3-42 4-60 0-7 0-13 0-18 1-10-1-24-3-34l-1-6c-2-16 9-27 17-33l3-3c4-3 6-9 7-13-1-2-2-6-3-8-3-5-5-9-5-14 0-5 3-11 11-25 1-1 2-3 2-3 2-4 6-12 36-12 2 0 5 0 7 0 10 1 33 5 41 14 3 3 4 7 4 11-1 6-4 11-30 46-3 5-7 9-9 13-7 9-7 21-6 29 0 2 0 3 0 5 0 5-2 10-3 17-1 6-3 13-3 20-1 12 0 55 1 73 11-42 21-86 21-99 1-16 4-26 11-32 7-6 15-6 19-5 1-1 2-2 3-4-3-7-4-16 4-30 11-18 29-22 42-22 5 0 9 1 12 1 13 1 34 5 37 19 4 16-41 59-42 59-10 9-12 19-14 25 0 2-1 4-1 5-1 3-11 35-18 70-7 30-4 44-1 52 3 6 4 15 5 24 0 5 1 10 1 12 1 4 5 15 10 27 4 14 10 30 15 45 6 19 16 43 22 57 3-1 6-1 9-1h1c10 0 19 4 24 11 1 3 3 5 4 8 0 0 0 1 0 1 4 0 12-1 19-3 6-5 13-11 20-16 32-23 104-35 151-44 7-1 13-2 19-3 20-4 48-4 73-3-5-32-13-85-16-98-5-20-7-31-5-44 0-5-2-10-4-16-1-3-2-6-3-9-3-8-13-33-27-65-6-16-8-27-4-34 2-5 5-8 8-9 2-5 5-14 6-19-1-1-1-2-2-3-4-5-8-11-9-17 0-6 4-17 13-32 7-12 21-12 37-13 0 0 2 0 4 0 10 0 39 1 41 16 1 6 0 9-15 33l-1 2c-3 4-14 29-16 35 0 2 1 5 1 8 2 6 3 14 5 24 2 17 7 33 14 51 3 8 6 13 10 20 2 3 4 7 7 11 3 7 7 18 10 30 0-7 0-12-1-15-1-9 2-24 5-31 0-5-2-22-6-44-1-6-2-12-3-19-2-12-4-25-6-36-4-20 1-32 15-37 1 0 3-3 7-10l1-4c1 0 1 0 1-1 0 0 0 0 0 0-10-17 1-31 8-40 12-17 25-17 43-17 1 0 1 0 2 0 19 0 34 10 38 14 2 3 5 7 5 10 0 11-38 48-38 49-2 1-5 7-7 12l-2 4c-3 6-4 25-5 34 0 11 6 58 8 64 4 8 10 31 12 52 2 18 8 43 16 68 4 14 11 28 16 39 3 8 6 13 7 18 4 9 5 28 6 38 9 7 22 19 33 35 18 23 22 91 22 92 0 12 6 40 8 49 1 4 6 12 10 20 3 7 7 14 10 21 7 15 19 44 30 71 14 38 25 50 27 52 5 2 16 4 24 6 0 0 1 0 1 0 9-6 37-12 48-12 3 0 14-5 19-7 6-3 11-5 15-6 5-2 22-7 31-18 7-8 15-10 21-10 7 0 13 3 16 4 0 1 1 1 2 1l1 0c7 0 18-1 28 6 11 10 17 42 12 60-3 15-23 34-47 56-4 4-7 7-9 9-4 4-8 8-12 13-10 10-21 22-32 32-5 3-11 11-17 19-8 9-16 19-24 27 2 4 4 8 5 13 6 19-3 37-4 39-2 5-8 8-13 7-29-5-39-27-43-40-26-3-64-16-115-39-43-20-93-66-129-100-11-10-20-19-28-26-23-20-54-33-78-43-13-6-24-10-32-15-20-11-34-13-82-10-29 1-69 13-103 23-19 6-37 11-51 14-41 9-141 8-192-27-7-5-13-10-18-16-18-2-66-9-84-50-18-43-30-189-27-275 5-122 22-133 29-137z m205 144c-4-15-10-31-15-44-5-16-9-25-10-30-1-4-1-9-2-15-1-7-2-15-3-18-4-11-8-30-1-67 8-33 18-68 20-74 0 0 0-1 0-2 2-7 6-23 22-37 9-9 21-23 28-32-2 0-5-1-9-1-15-2-23-1-29 9-2 3-2 5-2 5 0 0 0 1 0 1 2 2 6 9 2 17-5 11-16 24-30 23-1 0-1-1-1-1-1 2-2 6-2 13 0 24-26 125-33 149 3 6 9 17 14 27 5 9 9 17 13 25 4 8 8 15 11 22 7 14 13 28 20 39 5 10 13 22 24 35-6-13-12-30-17-44z m61 77c-1-1-1-2-2-3 0 0-2-1-4 0-2 0-5 1-9 6 2 3 4 5 6 7 3 5 9 10 13 10 4 0 7-1 11-4-10-3-14-12-15-16z m344-173c-2-4-3-10-5-16-4-13-9-29-12-36-2-4-4-7-6-10-4-6-9-13-13-24-7-19-12-38-15-56-1-10-3-17-4-22-1-7-2-12-2-16 0-8 17-43 20-47l1-1c2-4 4-7 6-10-4 0-8-1-12 0-5 0-16 0-17 1-4 6-7 12-8 15 1 2 2 4 3 5 5 7 8 12 8 18 0 0-7 31-17 39 1 3 2 6 4 12 6 13 23 55 28 68 0 3 1 5 2 8 3 8 7 17 5 27 0 9 0 16 5 36 4 16 14 79 17 105 9 0 16 1 21 1 1-1 2-2 2-3 3-3 5-6 5-7 1-4 2-20 3-38-4-8-15-36-19-49z m-496 408c42 29 130 33 172 24 14-3 31-8 49-14 36-10 77-22 110-24 49-3 69-2 96 13 7 5 17 9 29 14 26 11 59 24 85 47 8 7 18 17 29 27 35 32 83 77 122 95 40 18 71 30 94 35 0-4 2-8 6-11 6-4 14-2 18 3 0 1 4 7 8 19 0 0 0 0 1 1 0 1 1 3 1 4 3 10 6 18 12 22 0-3 0-6-1-9-1-5-4-10-7-15-4-7-9-15-10-24-2-7 3-14 10-15 1-1 2-1 2-1 6 0 11 4 13 10 5-6 11-12 16-19 7-9 14-17 20-22 10-9 21-20 30-30 4-5 9-9 12-13 3-3 6-6 11-10 9-8 37-35 39-43 3-11-1-30-3-33-2-2-6-1-10-1l-3 0c-5 1-9-1-13-3-2-1-4-2-5-2 0 0 0 0-1 1-14 16-35 23-44 26-2 0-6 2-11 4-13 6-23 11-31 10-7 0-29 5-33 8-12 7-21 23-20 31 2 12 5 20 5 20 3 6 1 14-6 17-6 3-14 1-17-6-1-1-5-12-8-28-1-11 3-23 10-34-5-1-10-3-13-4-5-2-19-9-41-67-11-26-23-55-29-70-3-6-7-13-10-19-5-10-10-18-12-25-3-10-9-40-9-55-1-18-7-66-16-78-12-15-25-27-33-32-4-3-6-6-6-11 0-11-2-31-4-37-1-3-4-9-7-15-5-12-12-27-17-42-8-27-14-54-16-73-3-21-8-39-10-43-5-10-11-66-10-78 1-18 2-34 7-44l2-4c4-8 7-15 13-20 2-2 14-15 22-25-3-2-7-2-12-2-16 0-18 0-23 7-5 7-6 9-6 11 7 12 5 19 0 27l-1 3c-6 9-11 18-21 22 0 1 0 4 1 7 3 12 5 25 7 38 1 7 2 13 3 18 8 49 6 53 4 57-1 3-3 16-3 21 1 8 3 49 4 65 0 0 1 70-5 84-1 2-4 6-7 10-9 15-29 46-33 70-5 30 0 50 0 50 1 7-3 14-10 16-7 2-14-2-15-9-1-1-7-25-1-61 3-18 12-36 20-52-26-2-73-4-101 2-5 1-12 2-19 3-42 7-112 20-141 39-9 7-17 15-25 23-15 16-29 30-47 30-1 0-1 0-2 0-11 0-22-7-32-19-32-39-50-62-62-82-7-12-13-26-20-41-4-7-7-14-11-21-4-8-8-16-13-25-9-17-15-28-17-35-1-3-2-6-3-10-5-16-9-28-10-35-1-10-4-69-2-85 0-9 2-17 4-24 1-5 2-9 2-11l0-4c-1-10-1-29 11-45 2-4 6-8 9-13 6-8 14-19 20-27-5-1-10-3-15-3-8 0-17 1-21 1 0 1 0 1-1 2-1 2-5 8-6 11 0 1 1 2 1 3 4 8 8 16 5 25-2 7-5 18-15 27l-3 2c-6 6-8 8-8 11l1 5c1 11 4 26 3 40 0 4 0 10 0 16-1 19-2 44-4 63-1 9-4 17-6 25-5 17-9 31-2 52 5 17 13 35 20 50 7 18 13 31 15 41 3 19 2 39-12 75-13 32-22 83-24 104 0 5-1 38 9 70 0 0 0 0 0 0 6 18 16 35 32 46z m-92-54c8 18 26 26 41 30-1-3-2-6-3-8-42-26-42-120-38-223 0-12 1-23 1-32 1-63-6-118-13-139-4 12-10 41-13 108-3 88 10 229 25 264z" horiz-adv-x="1150" />

<glyph glyph-name="icon-house" unicode="&#xe80b;" d="M901 302v7h99l-181 236h-60v40c15 1 26 13 26 27v44c0 15-12 27-28 27h-116c-7 0-15-2-20-8-5-5-8-12-8-19v-44c0-15 13-27 28-27h1v-39h-461l-181-237h92v-7c0-20 10-38 27-49-3-2-7-5-10-8-11-11-18-26-17-42 0-20 10-38 26-49-3-2-6-5-9-8-13-12-19-30-17-47 2-18 12-34 27-43-4-3-7-5-10-8-13-13-19-30-17-48 2-17 11-33 26-43-3-2-6-5-9-7-17-17-21-42-12-64 9-22 30-36 54-36h691c15 0 31 6 42 17 11 11 17 26 17 42 0 19-10 38-27 49 4 2 7 5 10 7 13 13 19 30 17 48-2 18-12 33-27 43 4 2 7 5 10 8 12 12 19 30 17 47-2 18-12 34-27 43 4 3 7 5 10 8 13 13 19 30 17 48-2 17-12 33-27 43 4 2 7 5 10 8 11 11 17 25 17 41z m-260 302c-5 0-9 4-9 8v44c0 5 4 8 9 8h116c5 0 9-3 9-8v-44c0-5-4-9-9-9l-116 1z m20-19h78v-124h-78v124z m-622-257l152 198h451v-85h116v85h50l152-198h-921z m343-458h-231c-15 0-29 10-36 24-6 14-3 30 8 42 7 7 18 11 28 11h231l0-77z m0 98h-231c-16 0-31 10-37 24-6 15-3 32 9 44 7 7 18 11 28 11h231l0-79z m0 98h-231c-15-1-29 7-37 19-8 13-8 29 0 42 8 12 22 20 37 19h231l0-80z m215-197h-196v325h196v-325z m285 40c0-22-18-40-40-40h-225v79h225c22 0 40-18 40-39z m0 98c0-22-18-40-40-40h-225v80h225c22 0 40-18 40-40z m0 98c0-10-4-20-12-28-8-7-18-11-28-11h-225v79h225c22 0 40-18 40-40z m0 99c0-11-4-21-12-28-8-8-18-12-28-12h-225v49h-235v-49h-231c-16 0-31 10-37 24-6 15-3 32 9 44 7 7 17 11 28 11h691c10 0 21-4 28-12 8-7 12-17 12-28v1z m-12 70c-8-7-18-12-28-12h-691c-22 0-40 18-40 40 0 2 0 5 0 7h770c0-2 0-5 0-7 0-10-4-20-11-28z m-121 576c4-13 7-27 10-41 1-8 1-15 0-23-1-9-5-17-12-23-5-5-10-9-16-13l-4-2c-1-1-2-2-3-2-2-2-4-5-5-7-7-11-11-24-9-37-4 6-6 13-6 20-1 8 0 15 2 22 1 4 2 8 4 12 1 2 2 4 3 5l4 5c4 6 9 11 12 15 3 3 6 7 9 11 3 6 5 11 6 17 3 13 3 27 5 41z m-79 0c8-11 16-22 24-33 4-7 7-14 9-21 2-8 1-17-3-25-3-6-7-12-11-17l-3-4c-1-1-1-2-2-3-1-3-2-5-3-8-2-13 0-26 6-37-6 4-10 10-13 16-4 6-6 13-7 20 0 4 0 8 0 12 0 2 0 5 1 7 0 2 0 4 1 5 3 7 5 13 7 19 2 4 3 9 4 13 1 6 1 12 0 18-3 12-7 25-10 38z m-161-685c-35 0-65-29-65-65s30-65 65-65 65 29 65 65c0 17-7 34-19 46-12 12-29 19-46 19z m45-55h-35v35c18-4 32-18 35-35h0z m-54 35v-35h-35c4 17 18 31 35 35h0z m-35-55h35v-35c-18 4-31 18-35 35h0z m54-35v35h35c-4-17-17-31-35-35h0z" horiz-adv-x="1000" />

<glyph glyph-name="icon-leave" unicode="&#xe80c;" d="M91-128c-12 24-179 370 159 563 1 0 2 1 3 1 19 10 275 133 528 103l-2-15 2 15c8-1 14-9 13-17 0-5-3-9-6-11-12-9-121-104-103-323v-2c12-260-147-323-328-332-71-3-144 2-210 6-15 1-30 2-42 3l1 15-1-15c-6 0-11 4-13 9l-1 0z m175 536c-296-168-175-464-151-515 11-1 22-2 33-3 66-4 139-9 207-6 165 9 310 66 299 301v0c-14 180 53 283 91 326-233 17-460-93-479-102 0 0 0 0 0 0l0-1z m220-99c8 2 13 10 11 18-2 8-10 13-18 11-1 0-209-47-380-446-3-8 0-17 8-20 8-3 17 0 20 8 164 384 358 428 359 429h0z m-444-207c4-8 13-11 20-7 8 4 11 13 7 21-23 47-40 103-37 165 2 63 23 132 74 207l0 0 0 0c12 15 169 214 388 301-14-49-29-151 32-282 4-8 13-11 21-8 7 4 11 13 7 21-76 164-27 276-22 287 2 4 3 8 1 12-2 8-11 13-19 10-242-82-419-306-432-322 0-1-1-1-1-2-55-79-78-155-80-223-3-68 15-129 40-180h1z m275 119c3-8 11-13 20-10 8 2 12 11 10 19 0 0-30 93-17 154 1 8-4 16-12 18-9 2-17-4-18-12-14-70 17-169 17-170l0 1z m-35-61c-6 5-16 4-21-3-5-6-4-16 2-21 0 0 60-49 134-43 9 0 15 8 14 16 0 8-7 15-16 14-62-5-112 36-113 37z m-130-161c2-8 11-12 19-10 8 3 13 12 10 20 0 0-29 92-17 154 2 8-4 16-12 18-8 2-16-4-18-12-14-70 18-170 18-170l0 0z" horiz-adv-x="795" />

<glyph glyph-name="icon-moose" unicode="&#xe80d;" d="M1333 643c-3 12-14 18-26 14-4-2-9-5-15-9-6-4-13-8-22-12l4 6c16 22 26 48 27 69 1 11-3 24-9 30-3 4-8 6-13 6-4 0-9-2-12-5-6-6-6-15-6-23 1-18-9-31-23-48-9-11-39-20-52-20-1 0-1 0-1 0-3 1-10 9-10 31 0 16 22 43 29 51 6 8 10 12 8 20-1 5-5 9-9 10-2 1-4 1-6 1-8 0-11-3-23-18-7-9-22-28-29-33-3 2-11 11-12 23-3 15-3 25-3 45 1 7 1 15 1 24 0 9 0 35-21 35-5 0-10-2-14-6-8-8-11-26-11-38 1-8 0-11 0-12-1 0-5 0-9 1-2 0-3 0-3 0h0c-1 2-2 10-2 16 0 4 0 8 0 12-2 23-18 24-21 24-14 0-25-14-31-27-3 3-6 6-8 8-4 4-8 8-11 10-4 3-6 8-6 9-3 6-9 10-15 10-5 0-9-1-12-5-3-3-3-6-3-9-1 0-2 1-2 1-13 8-31 16-43 16-14 0-20-8-21-15-4-22 52-69 59-75 9-7 25-23 41-40 21-22 43-44 59-56 0-1 1-1 1-1-23 7-47 11-77 14l-13 2c-12 2-24 3-35 4-36 5-66 8-88 17-8 3-17 8-26 13-26 14-58 31-103 31-45 0-67-12-90-25-3-2-7-4-10-6-8-4-16-9-25-14-22-14-50-31-72-33l-4-1c-38-4-137-14-174-15l-8 0c-38 0-86-1-147-28-68-30-91-69-92-83-1-8 3-14 9-19-4-15-8-39 1-71 4-15 8-26 11-36 6-20 9-29 7-45-2-21-13-51-48-74-14-9-27-16-37-22-24-14-34-20-36-31-2-6-1-14 3-38 2-14 5-29 6-44 1-8 2-17 4-27 4-32 8-72 8-101-1-24-4-42-7-53-1-8-2-13-1-18 1-3 0-10-1-12-9-13-9-57 2-82 2-5 6-8 11-9 1 0 2 0 3 0 4 0 8 2 11 5 5 5 50 53 56 95 4 31 2 55 0 82-1 8-1 16-2 25-1 13-1 27-1 39 8-24 16-50 19-63l4-12c4-16 11-34 17-49 5-17 11-32 13-40l1-6c5-25 9-40 22-43 2-1 8-4 11-9 7-11 24-24 29-28 2-1 5-2 7-2 4-1 9-1 13-1 27 0 55 9 56 9 5 2 8 5 10 9 1 3 1 8 0 12-4 10-17 16-36 25-9 4-24 23-30 37-2 5-5 11-8 18-7 18-16 41-21 51-4 10-9 33-15 60l-5 21c-8 34 4 55 13 71 5 9 17 24 26 35 6 9 12 16 15 21 6 9 25 44 32 57 18 9 32 17 42 26 9-3 24-6 41-6 17 0 35-6 52-12 6-2 11-4 16-5 14-4 47-10 84-10 17 0 36 1 54 5 16 3 31 6 44 10 20 4 36 8 49 8-1-5-2-11-2-15-2-10-3-18-3-24 0-3 0-8 0-14 1-18 1-48 0-68-2-18-1-42 0-59 0-9 0-17 0-21-1-15-5-107-7-118-4-34-3-56 15-60l2-1c3 0 4 0 8-8 10-18 19-28 43-28 2 0 4 0 5 0 29 1 50 2 55 18 1 4 2 13-10 21-12 9-28 23-33 34-5 12-13 49-13 76-1 26 4 69 12 96 8 29 14 47 16 62 3 12 16 49 26 69 5 8 8 15 12 22 4-2 9-5 11-7 6-5 22-29 33-50 11-20 34-43 52-56 15-11 53-52 62-66 10-14 46-75 52-92 2-7 6-20 9-31 9-32 10-37 20-40 2-1 5-1 8-1 1 0 2-1 3-2 7-8 38-23 67-23 9 0 17 2 25 5 5 1 8 5 9 10 2 4 1 9-2 13 0 0-30 38-51 69-23 31-63 96-70 117-8 24-32 71-51 96-9 13-18 30-26 46-5 11-10 21-15 29-3 5-6 9-9 13-2 4-5 8-6 11 0 0 0 1 0 1 6 14 18 44 20 71 1 0 2 1 2 1 7 4 27 3 37 3 4 0 7-1 10-1 9 0 20 5 31 12 7-32 14-55 31-60 3 0 6-1 10-1 17 0 34 12 48 21 2 2 5 4 7 5 14 9 26 16 33 20 2-3 4-8 6-10 2-4 4-7 5-9 15-22 39-29 66-20 0 0 1 0 1 0 11-3 25-5 38 3 21 12 23 27 23 37 1 2 1 3 2 6 3 10 9 28 1 51-9 28-26 52-52 74-4 4-9 8-14 11-17 15-36 30-40 40l-2 4c0 0-1 0-1 0 4 1 9 2 15 4 6 0 18-4 30-7 16-5 34-11 50-12l3 0c32 0 65 25 68 40 0 4-1 8-3 11 10 8 15 23 13 33z m-1145-416c-10-12-21-27-27-38-9-17-24-45-14-89l4-20c6-30 11-52 17-65 4-9 12-31 19-47 2-7 5-14 7-18 5-14 21-37 37-48-5-1-10-1-15-1-7 6-15 13-17 16-5 10-14 16-22 20-1 5-3 15-5 22l-1 5c-2 10-7 25-13 43-6 14-11 31-15 45l-4 12c-15 55-26 92-36 110 8 12 40 37 58 51 6 4 11 8 16 12 11 9 22 17 32 23-3-7-6-12-8-15-2-4-7-10-13-18z m984 292c5-4 9-8 14-11 21-18 35-37 43-60 4-13 1-24-2-33-1-4-2-7-3-12 0-6 0-8-8-13-6-3-15 3-15 3-5 3-12 3-17 0-2-1-4-2-5-4-12-3-20 0-26 9-1 2-3 4-4 7-10 16-18 29-32 27-3 0-11-1-51-26-2-2-5-4-7-5-9-6-23-16-31-16-5 7-10 30-12 39-4 17-5 23-13 27-3 2-8 2-13 1-2-1-5-3-10-6-5-3-19-12-24-12-2 0-5 0-8 0-21 0-40 0-53-6-13-7-42-27-43-28-8-4-9-13-5-20 5-7 15-9 22-4 1 0 2 1 3 2-4-15-10-29-13-36-2-4-2-7-3-8-3-10 3-18 12-32 3-3 6-8 9-12 4-6 8-16 13-25 8-17 18-36 29-51 17-22 39-65 46-86 9-26 53-95 73-123 12-16 25-34 36-47-16 2-31 8-34 11-5 6-12 10-20 12-1 5-3 13-5 19-3 12-7 24-10 33-7 20-45 83-55 97-10 15-51 58-70 72-16 12-34 31-42 45 0 0-25 46-40 58-5 4-12 8-18 11 2 2 3 4 4 6 4 8 18 19 25 23 7 5 8 14 4 21-5 7-15 9-22 4-2-2-24-17-34-34-4-6-7-13-11-20 0 0 0 0 0 0 0 0 0 0 0 0-1-3-3-5-4-8-4-9-9-17-14-27-12-22-26-61-29-76-2-13-8-31-16-58-9-31-13-77-13-104 1-29 8-70 16-86 5-11 14-21 23-30-3 0-6 0-8 0-13-1-14 0-20 12-7 14-15 19-23 22 0 5 0 15 2 28 2 14 6 110 7 119 0 4 0 12-1 22 0 16-1 39 1 56 1 21 1 51 0 69 0 6 0 10 0 13 0 4 1 11 2 19 2 11 4 25 6 42 1 22 0 55 0 74 0 6 0 11 0 14 0 6 9 28 17 45 3 7 0 16-8 19-8 4-17 0-20-7-6-13-20-43-20-57 0-3 0-8 0-14 1-18 1-45 0-66-17 0-36-4-59-10-13-3-27-6-43-9-46-8-103-1-122 4-5 2-10 3-16 5-17 6-39 14-61 14-4 0-8 0-12 0 16 16 36 39 38 65 0 8-6 15-14 16-9 0-16-6-17-14-2-21-28-45-40-57-11-9-27-23-56-35-29-13-55-28-84-50-5-4-11-8-16-12-40-29-67-49-74-64-1-2-2-4-2-6 0 0-1 0-1 0-8-25-9-75-7-103 0-9 1-18 2-26 2-25 4-47 0-74-2-17-15-37-28-54-1 12 0 22 1 25 8 11 7 26 6 33 0 2 1 4 1 7 3 12 7 31 7 58 1 30-4 70-8 103-1 9-2 18-3 26-2 15-4 31-7 45-1 9-3 19-3 24 4 3 13 8 22 13 10 6 23 14 37 23 36 22 58 56 62 94 3 23-2 36-9 57-2 9-6 20-10 34-10 39 1 62 2 62 2 4 2 9 0 13-2 4-5 7-8 8 6 11 27 33 71 52 55 25 97 25 134 25l8 0c39 1 139 11 176 15l4 1c29 3 59 21 86 37 8 5 16 10 23 13 4 2 7 4 11 6 21 12 37 21 74 21 37 0 64-15 88-27 10-6 19-11 29-15 26-10 58-13 95-18 12-1 23-2 35-4l14-2c44-5 71-9 102-27 2-1 4-3 6-4 0 0-1-1-1-1-1-14-2-33 11-46 6-6 14-8 22-8 4 0 8 0 11 2l3-5c7-15 26-30 48-48z m77 75l-2 0c-12 0-28 5-42 9-21 7-38 12-51 7-6-2-11-3-15-4-7-2-13-4-18-7 0-1-1-1-1-2-2-1-6-3-8-3l-1 0c-3 2-2 15-1 21 0 4 0 7 0 11 0 1 0 2 0 3 0 1 0 3 0 5-4 14-11 31-40 53-14 11-36 32-55 51-17 17-34 32-44 41-8 5-15 12-22 19 9-3 18-3 26 1 0 0 0 0 0-1 2-1 5-4 9-7 11-11 22-21 34-21 6 0 13 2 18 9 2-13 8-25 29-28 13-2 21-1 28 3 1-9 1-16 3-26 4-21 21-45 42-46v0c0-41 19-53 31-57 3-1 6-1 11-1 10 0 28 3 44 9-3-6-4-13-1-19 3-3 8-10 20-10 3 0 7 1 11 1 10 2 19 5 27 9 0 0 0-1 0-1 0-2 0-4 1-6-7-6-20-13-33-13z" horiz-adv-x="1333" />

<glyph glyph-name="play-xs" unicode="&#xe80e;" d="M74 842l673-432c30-19 30-62 0-81l-673-433c-32-21-74 2-74 40v866c0 38 42 61 74 40z" horiz-adv-x="833" />

<glyph glyph-name="map-pin" unicode="&#xe80f;" d="M449-32c43 34 85 72 125 114 111 117 176 237 176 351 0 184-149 334-333 334-184 0-334-150-334-334 0-114 66-234 176-351 40-42 83-80 125-114 12-9 23-18 33-25 10 7 21 16 32 25z m185 57c-42-45-87-86-133-122-16-13-30-24-44-34-8-6-14-10-17-12-14-9-32-9-46 0-4 2-10 6-18 12-13 10-28 21-44 34-45 36-91 77-133 122-124 130-199 268-199 408 0 231 187 417 417 417 230 0 416-186 416-417 0-140-75-278-199-408z m-217 242c-92 0-167 74-167 166s75 167 167 167 166-75 166-167-74-166-166-166z m0 83c46 0 83 37 83 83s-37 84-83 84-84-38-84-84 38-83 84-83z" horiz-adv-x="833" />

<glyph glyph-name="menu" unicode="&#xe810;" d="M50 300c-28 0-50 22-50 50 0 28 22 50 50 50h1400c28 0 50-22 50-50 0-28-22-50-50-50h-1400z m0 450c-28 0-50 22-50 50s22 50 50 50h1400c28 0 50-22 50-50s-22-50-50-50h-1400z m0-900c-28 0-50 22-50 50s22 50 50 50h1400c28 0 50-22 50-50s-22-50-50-50h-1400z" horiz-adv-x="1500" />

<glyph glyph-name="minus-circle" unicode="&#xe811;" d="M500-150c-276 0-500 224-500 500s224 500 500 500 500-224 500-500-224-500-500-500z m0 62c242 0 438 196 438 438s-196 438-438 438-437-196-437-438 195-438 437-438z m-187 407c-18 0-32 14-32 31s14 31 32 31h375c17 0 31-14 31-31s-14-31-31-31h-375z" horiz-adv-x="1000" />

<glyph glyph-name="plus-circle" unicode="&#xe812;" d="M500-150c-276 0-500 224-500 500s224 500 500 500 500-224 500-500-224-500-500-500z m0 62c242 0 438 196 438 438s-196 438-438 438-437-196-437-438 195-438 437-438z m-31 626c0 17 14 31 31 31s31-14 31-31v-375c0-18-14-32-31-32s-31 14-31 32v375z m-156-219c-18 0-32 14-32 31s14 31 32 31h375c17 0 31-14 31-31s-14-31-31-31h-375z" horiz-adv-x="1000" />

<glyph glyph-name="search" unicode="&#xe813;" d="M455-59c-251 0-455 203-455 455s204 454 455 454 454-203 454-454-203-455-454-455z m0 91c200 0 363 163 363 364s-163 363-363 363-364-163-364-363 163-364 364-364z m532-104c17-18 17-47 0-65-18-17-47-17-65 0l-227 228c-18 17-18 46 0 64 18 18 47 18 64 0l228-227z" horiz-adv-x="1000" />

<glyph glyph-name="ticket" unicode="&#xe814;" d="M1730 517c22 5 39 26 39 48v163c0 66-54 120-121 120h-1518c-67 0-121-54-121-120v-756c0-66 54-120 121-120h1516c67 0 121 54 121 120v163c0 24-17 45-39 48-78 19-132 86-132 167 2 80 56 148 134 167z m-61-419v-126c0-11-10-20-21-20h-413v113h-100v-113h-1005c-11 0-21 9-21 20v756c0 11 10 20 21 20h1003v-113h100v113h413c11 0 21-9 21-20v-126c-102-41-171-139-171-252 2-113 71-211 173-252z m-536 215h100v-174h-100v174z m0 248h100v-174h-100v174z m-277-141l-152 2c-8 0-15 6-17 11l-48 145c-6 16-28 16-33 0l-49-145c-1-7-9-11-16-11l-152-2c-17 0-24-22-9-31l122-91c5-4 9-13 5-18l-46-145c-5-16 13-29 26-18l124 89c6 3 15 3 21 0l124-89c13-10 31 3 26 18l-47 145c-2 7 0 14 6 18l122 91c15 9 9 31-7 31z" horiz-adv-x="1800" />
</font>
</defs>
</svg>
