<svg width="22" height="22" viewBox="0 0 22 22" fill="none" xmlns="http://www.w3.org/2000/svg">
<path d="M3.28453 3.94068C1.66022 5.72034 0.5 8.21186 0.5 11.4153C0.5 13.7881 1.31215 16.0424 2.5884 17.822C4.09669 19.839 6.30111 21.0254 7.46133 21.5V20.6695C7.46133 20.6695 7.46133 18.7712 8.50552 17.1102C6.18508 16.9915 4.32873 14.7373 4.32873 12.1271C4.32873 11.178 4.6768 10.3475 5.25691 9.63559L5.37293 7.38136C5.37293 6.78814 5.95304 6.4322 6.53315 6.55085L8.96961 7.5C9.66575 7.38135 10.3619 7.26271 11.174 7.26271C11.9862 7.26271 12.6823 7.38135 13.3785 7.5L15.4669 6.4322C16.047 6.19491 16.6271 6.66949 16.6271 7.26271L16.7431 9.51695C17.3232 10.2288 17.6713 11.178 17.6713 12.0085C17.6713 14.6186 15.8149 16.7542 13.4945 16.9915C14.5387 18.6525 14.5387 20.5508 14.5387 20.5508V21.3814C15.6989 20.9068 17.9033 19.7203 19.4116 17.7034C20.6878 16.0424 21.5 13.6695 21.5 11.2966C21.5 8.09322 20.3398 5.60169 18.7155 3.82203C16.5111 1.5678 13.4945 0.5 10.942 0.5C8.3895 0.5 5.37293 1.5678 3.28453 3.94068Z" fill="#BEBEBE"/>
</svg>
