<svg width="23" height="18" viewBox="0 0 23 18" fill="none" xmlns="http://www.w3.org/2000/svg">
<path fill-rule="evenodd" clip-rule="evenodd" d="M2.82732 2.40778C3.06654 1.99862 3.43054 1.68005 3.86404 1.50045C8.73317 -0.500151 14.1759 -0.500151 19.0451 1.50045C19.4786 1.68005 19.8426 1.99862 20.0818 2.40778C22.2795 6.19488 23.2352 10.5949 22.8106 14.971C22.7786 15.2951 22.6724 15.6072 22.5008 15.8822C22.3291 16.1572 22.0965 16.3877 21.8217 16.5551C21.0222 17.0371 20.191 17.4625 19.3341 17.8284C18.8543 18.0359 18.3162 18.0559 17.8228 17.8847C17.3294 17.7134 16.9156 17.3629 16.6608 16.9005C16.3398 16.3097 16.0453 15.7026 15.7771 15.0795C12.9296 15.718 9.9795 15.718 7.13201 15.0795C6.86351 15.7016 6.56894 16.3086 6.24833 16.9005C5.99347 17.3629 5.57967 17.7134 5.08631 17.8847C4.59296 18.0559 4.05479 18.0359 3.57506 17.8284C2.71808 17.4625 1.88689 17.0371 1.08737 16.5551C0.812565 16.3877 0.580038 16.1572 0.40834 15.8822C0.236642 15.6072 0.130525 15.2951 0.0984548 14.971C-0.326113 10.5949 0.62961 6.19488 2.82732 2.40778ZM9.81855 8.18754C9.81731 8.51091 9.72028 8.82666 9.53973 9.09493C9.35917 9.3632 9.10317 9.57195 8.80407 9.69484C8.50496 9.81773 8.17615 9.84923 7.85915 9.78539C7.54214 9.72154 7.25117 9.56521 7.02295 9.33611C6.79473 9.10702 6.63951 8.81544 6.57688 8.49819C6.51425 8.18094 6.54701 7.85225 6.67105 7.55361C6.79508 7.25497 7.00482 6.99978 7.27377 6.82025C7.54273 6.64072 7.85884 6.5449 8.18221 6.5449C8.39795 6.54374 8.61177 6.5855 8.81123 6.66772C9.01069 6.74994 9.19182 6.87099 9.34408 7.02383C9.49634 7.17668 9.6167 7.35826 9.69815 7.55804C9.7796 7.75782 9.82053 7.9718 9.81855 8.18754ZM16.0836 9.09493C16.2641 8.82666 16.3612 8.51091 16.3624 8.18754C16.3644 7.9718 16.3235 7.75782 16.242 7.55804C16.1606 7.35826 16.0402 7.17668 15.8879 7.02383C15.7357 6.87099 15.5546 6.74994 15.3551 6.66772C15.1556 6.5855 14.9418 6.54374 14.7261 6.5449C14.4027 6.5449 14.0866 6.64072 13.8176 6.82025C13.5487 6.99978 13.3389 7.25497 13.2149 7.55361C13.0909 7.85225 13.0581 8.18094 13.1207 8.49819C13.1834 8.81544 13.3386 9.10702 13.5668 9.33611C13.795 9.56521 14.086 9.72154 14.403 9.78539C14.72 9.84923 15.0488 9.81773 15.3479 9.69484C15.647 9.57195 15.903 9.3632 16.0836 9.09493Z" fill="#BEBEBE"/>
</svg>
