<svg width="107" height="36" viewBox="0 0 107 36" fill="none" xmlns="http://www.w3.org/2000/svg">
<rect y="2" width="32" height="32" rx="6.00421" fill="white"/>
<path d="M54.048 22.4H59.304V26H49.344V9.08H54.048V22.4ZM67.3971 26.168C66.0531 26.168 64.8451 25.888 63.7731 25.328C62.7171 24.768 61.8851 23.968 61.2771 22.928C60.6691 21.888 60.3651 20.664 60.3651 19.256C60.3651 17.864 60.6691 16.648 61.2771 15.608C61.9011 14.568 62.7411 13.768 63.7971 13.208C64.8691 12.648 66.0771 12.368 67.4211 12.368C68.7651 12.368 69.9651 12.648 71.0211 13.208C72.0931 13.768 72.9331 14.568 73.5411 15.608C74.1651 16.648 74.4771 17.864 74.4771 19.256C74.4771 20.648 74.1651 21.872 73.5411 22.928C72.9331 23.968 72.0931 24.768 71.0211 25.328C69.9491 25.888 68.7411 26.168 67.3971 26.168ZM67.3971 22.088C68.0531 22.088 68.5971 21.848 69.0291 21.368C69.4771 20.872 69.7011 20.168 69.7011 19.256C69.7011 18.344 69.4771 17.648 69.0291 17.168C68.5971 16.688 68.0611 16.448 67.4211 16.448C66.7811 16.448 66.2451 16.688 65.8131 17.168C65.3811 17.648 65.1651 18.344 65.1651 19.256C65.1651 20.184 65.3731 20.888 65.7891 21.368C66.2051 21.848 66.7411 22.088 67.3971 22.088ZM81.3589 12.368C82.2709 12.368 83.0629 12.552 83.7349 12.92C84.4229 13.288 84.9509 13.784 85.3189 14.408V12.536H90.0229V25.856C90.0229 27.12 89.7829 28.256 89.3029 29.264C88.8229 30.288 88.0709 31.104 87.0469 31.712C86.0389 32.32 84.7589 32.624 83.2069 32.624C81.1269 32.624 79.4629 32.136 78.2149 31.16C76.9669 30.184 76.2549 28.856 76.0789 27.176H80.7109C80.8069 27.608 81.0469 27.944 81.4309 28.184C81.8149 28.424 82.3109 28.544 82.9189 28.544C84.5189 28.544 85.3189 27.648 85.3189 25.856V24.128C84.9509 24.752 84.4229 25.248 83.7349 25.616C83.0629 25.984 82.2709 26.168 81.3589 26.168C80.2869 26.168 79.3109 25.888 78.4309 25.328C77.5669 24.768 76.8789 23.968 76.3669 22.928C75.8709 21.872 75.6229 20.648 75.6229 19.256C75.6229 17.864 75.8709 16.648 76.3669 15.608C76.8789 14.568 77.5669 13.768 78.4309 13.208C79.3109 12.648 80.2869 12.368 81.3589 12.368ZM85.3189 19.256C85.3189 18.392 85.0789 17.712 84.5989 17.216C84.1349 16.72 83.5589 16.472 82.8709 16.472C82.1669 16.472 81.5829 16.72 81.1189 17.216C80.6549 17.696 80.4229 18.376 80.4229 19.256C80.4229 20.12 80.6549 20.808 81.1189 21.32C81.5829 21.816 82.1669 22.064 82.8709 22.064C83.5589 22.064 84.1349 21.816 84.5989 21.32C85.0789 20.824 85.3189 20.136 85.3189 19.256ZM98.9674 26.168C97.6234 26.168 96.4154 25.888 95.3434 25.328C94.2874 24.768 93.4554 23.968 92.8474 22.928C92.2394 21.888 91.9354 20.664 91.9354 19.256C91.9354 17.864 92.2394 16.648 92.8474 15.608C93.4714 14.568 94.3114 13.768 95.3674 13.208C96.4394 12.648 97.6474 12.368 98.9914 12.368C100.335 12.368 101.535 12.648 102.591 13.208C103.663 13.768 104.503 14.568 105.111 15.608C105.735 16.648 106.047 17.864 106.047 19.256C106.047 20.648 105.735 21.872 105.111 22.928C104.503 23.968 103.663 24.768 102.591 25.328C101.519 25.888 100.311 26.168 98.9674 26.168ZM98.9674 22.088C99.6234 22.088 100.167 21.848 100.599 21.368C101.047 20.872 101.271 20.168 101.271 19.256C101.271 18.344 101.047 17.648 100.599 17.168C100.167 16.688 99.6314 16.448 98.9914 16.448C98.3514 16.448 97.8154 16.688 97.3834 17.168C96.9514 17.648 96.7354 18.344 96.7354 19.256C96.7354 20.184 96.9434 20.888 97.3594 21.368C97.7754 21.848 98.3114 22.088 98.9674 22.088Z" fill="white"/>
</svg>
