<svg width="60" height="60" viewBox="0 0 60 60" xmlns="http://www.w3.org/2000/svg"><title>chat (1)</title><g fill="#006DAA"><path d="M56.687 33.052A21.457 21.457 0 0 0 60 21.562C60 9.672 50.327 0 38.437 0a21.519 21.519 0 0 0-11.252 3.166 1.172 1.172 0 1 0 1.225 1.998 19.177 19.177 0 0 1 10.028-2.82c10.597 0 19.218 8.621 19.218 19.218 0 3.844-1.13 7.553-3.27 10.727-.283.42-.259.965.033 1.356l1.284 4.792-5.154-1.381a1.171 1.171 0 0 0-.983.177 19.087 19.087 0 0 1-11.128 3.548c-2.29 0-4.528-.4-6.658-1.186A16.233 16.233 0 0 0 20.406 28.22a19.14 19.14 0 0 1-1.187-6.657c0-3.59.995-7.09 2.879-10.124a1.172 1.172 0 0 0-1.991-1.236 21.511 21.511 0 0 0-3.232 11.36c0 2.107.303 4.177.9 6.173a16.308 16.308 0 0 0-1.603-.08C7.255 27.657 0 34.912 0 43.829c0 3.2.926 6.273 2.681 8.92L1.427 57.43a1.172 1.172 0 0 0 1.435 1.435L7.66 57.58A16.1 16.1 0 0 0 16.172 60c3.08 0 6.076-.87 8.664-2.515a1.172 1.172 0 0 0-1.257-1.978 13.783 13.783 0 0 1-7.407 2.15c-2.742 0-5.393-.802-7.665-2.318a1.171 1.171 0 0 0-.953-.157l-3.338.894.869-3.243c.09-.338.025-.699-.178-.984a13.732 13.732 0 0 1-2.563-8.02C2.344 36.202 8.547 30 16.172 30 23.797 30 30 36.203 30 43.828c0 1.629-.28 3.222-.832 4.737a1.172 1.172 0 1 0 2.202.803 16.134 16.134 0 0 0 .894-7.142c1.996.597 4.066.899 6.174.899 4.32 0 8.468-1.265 12.028-3.665l6.591 1.766a1.172 1.172 0 0 0 1.436-1.435l-1.806-6.74z"/><path d="M47.321 20.557a1.172 1.172 0 0 0-1.612-.383l-.153.094a1.172 1.172 0 1 0 1.232 1.994l.15-.093c.551-.34.723-1.061.383-1.612zm-15.75.25a1.172 1.172 0 0 0-1.612-.383l-.153.095a1.172 1.172 0 1 0 1.232 1.993l.15-.092c.551-.34.723-1.062.383-1.613zm8.25 0a1.172 1.172 0 0 0-1.612-.383l-.153.095a1.172 1.172 0 1 0 1.232 1.993l.15-.092c.551-.34.723-1.062.383-1.613zM10.555 43a1.18 1.18 0 0 0-.828-.344c-.309 0-.61.126-.829.343a1.18 1.18 0 0 0-.343.829c0 .308.125.61.343.829.218.217.52.343.829.343.308 0 .61-.126.828-.343a1.18 1.18 0 0 0 .344-.829c0-.308-.126-.61-.344-.829zM17 43a1.18 1.18 0 0 0-.828-.344c-.308 0-.61.126-.829.343a1.18 1.18 0 0 0-.343.829c0 .308.126.61.343.829.218.217.52.343.829.343.308 0 .61-.126.829-.343a1.18 1.18 0 0 0 .343-.829c0-.308-.126-.61-.343-.829zm6.446 0a1.18 1.18 0 0 0-.829-.344c-.308 0-.61.126-.828.343a1.18 1.18 0 0 0-.344.829c0 .308.126.61.344.829.218.217.52.343.828.343.308 0 .61-.126.829-.343a1.18 1.18 0 0 0 .343-.829c0-.308-.125-.61-.343-.829zm5.245 9.398a1.18 1.18 0 0 0-.828-.344c-.31 0-.611.126-.829.344a1.18 1.18 0 0 0-.343.828c0 .309.125.61.343.829.218.218.52.343.829.343.308 0 .61-.125.828-.343a1.18 1.18 0 0 0 .343-.829c0-.308-.125-.61-.343-.828zM24.887 6.277a1.178 1.178 0 0 0-1.657 0 1.176 1.176 0 0 0 0 1.658 1.177 1.177 0 0 0 1.657 0 1.18 1.18 0 0 0 .344-.829c0-.309-.126-.61-.344-.83z"/></g></svg>