<svg width="60" height="50" viewBox="0 0 60 50" xmlns="http://www.w3.org/2000/svg"><title>shop (3)</title><g fill="#006DAA"><path d="M59.883 21.66v-2.869c0-.044-.002-.088-.007-.132l-.004-.023a1.188 1.188 0 0 0-.017-.107l-.007-.027a1.218 1.218 0 0 0-.028-.099l-.011-.032a1.25 1.25 0 0 0-.035-.088l-.005-.013-5.625-12.227V1.325c0-.689-.559-1.247-1.248-1.247H6.986c-.688 0-1.247.558-1.247 1.247v4.718L.114 18.27l-.005.013a1.195 1.195 0 0 0-.035.088l-.012.032a1.43 1.43 0 0 0-.027.099l-.007.027a.918.918 0 0 0-.017.107l-.004.023a1.267 1.267 0 0 0-.007.132v2.87c0 3.426 2.48 6.282 5.739 6.872v18.953H1.248a1.248 1.248 0 1 0 0 2.495h57.388a1.248 1.248 0 0 0 0-2.495h-4.492V28.533c3.259-.59 5.739-3.446 5.739-6.872zm-3.195-4.116h-8.58l-2.755-9.98h6.744l4.591 9.98zm-19.765 1.133L35.9 7.564h6.865l2.754 9.98h-4.674a1.248 1.248 0 0 0 0 2.495h5.065v1.622a4.496 4.496 0 0 1-4.49 4.491 4.496 4.496 0 0 1-4.492-4.491v-2.87c0-.038-.002-.076-.005-.114zM8.234 2.573h43.415v2.495H8.234V2.573zm21.875 14.97H25.57l.918-9.98h6.907l1.038 11.286v2.812a4.496 4.496 0 0 1-4.492 4.491 4.496 4.496 0 0 1-4.49-4.491v-1.622h4.658a1.248 1.248 0 1 0 0-2.495zm-7.94 2.496h.786v1.622a4.496 4.496 0 0 1-4.491 4.491 4.496 4.496 0 0 1-4.492-4.491v-2.7l3.146-11.397h6.864l-.918 9.98h-.894a1.248 1.248 0 0 0 0 2.495zM2.496 21.66v-1.622h3.377a1.248 1.248 0 0 0 0-2.495H3.195l4.59-9.98h6.745l-3.008 10.895c-.03.109-.045.22-.045.332v2.87a4.496 4.496 0 0 1-4.49 4.491 4.496 4.496 0 0 1-4.492-4.491zM20.71 39.376h-1.248a1.248 1.248 0 0 0 0 2.495h1.248v5.615h-7.486V33.762h7.486v5.614zm30.94 8.11H23.204V32.514c0-.689-.559-1.247-1.248-1.247h-9.98c-.69 0-1.248.558-1.248 1.247v14.972H8.234V28.533a6.997 6.997 0 0 0 4.49-2.894 6.982 6.982 0 0 0 5.74 3.008 6.982 6.982 0 0 0 5.738-3.009 6.982 6.982 0 0 0 5.74 3.01 6.983 6.983 0 0 0 5.738-3.01 6.982 6.982 0 0 0 5.74 3.01 6.982 6.982 0 0 0 5.738-3.01 6.996 6.996 0 0 0 4.491 2.895v18.953zm1.247-21.334a4.496 4.496 0 0 1-4.492-4.491v-1.622h8.983v1.622a4.496 4.496 0 0 1-4.491 4.491z"/><path d="M47.906 31.267H26.948c-.69 0-1.248.559-1.248 1.248v11.228c0 .689.559 1.247 1.248 1.247h20.958c.689 0 1.248-.559 1.248-1.248V32.515a1.29 1.29 0 0 0-.007-.124c-.001-.017-.005-.034-.007-.05l-.01-.07-.015-.06-.015-.06-.02-.056-.022-.058c-.007-.018-.015-.034-.023-.051l-.029-.06-.028-.047c-.011-.019-.022-.039-.035-.058l-.035-.048c-.013-.017-.024-.034-.038-.05a1.266 1.266 0 0 0-.07-.078l-.012-.013-.012-.011a1.255 1.255 0 0 0-.079-.071l-.048-.036-.05-.037-.056-.034c-.017-.01-.032-.02-.049-.028a.768.768 0 0 0-.058-.028l-.053-.025c-.018-.008-.038-.014-.057-.02a.675.675 0 0 0-.058-.021c-.019-.006-.039-.01-.058-.015l-.06-.015-.067-.01-.054-.008a1.225 1.225 0 0 0-.123-.006zm-19.71 11.228v-8.733h9.641l-.536.536a1.248 1.248 0 0 0 1.764 1.764l2.3-2.3h3.53l-8.734 8.733h-7.966zm18.463 0H39.69l6.969-6.969v6.969z"/><path d="M34.405 37.194l-.543.543a1.248 1.248 0 0 0 1.764 1.764l.543-.543a1.248 1.248 0 0 0-1.764-1.764z"/></g></svg>