<svg width="60" height="60" viewBox="0 0 60 60" xmlns="http://www.w3.org/2000/svg"><title>review</title><g fill="#006DAA"><path d="M17.63 36.563a1.79 1.79 0 0 1 2.394.751l3.31 6.128a1.172 1.172 0 0 0 2.203-.557v-8.947a1.172 1.172 0 0 0-2.344 0v4.311l-1.107-2.048a4.122 4.122 0 0 0-5.511-1.73 4.127 4.127 0 0 0-2.162 4.67l2.146 8.893a16.05 16.05 0 0 0 2.657 5.734l4.203 5.751a1.17 1.17 0 0 0 1.637.255 1.172 1.172 0 0 0 .255-1.638l-4.203-5.75a13.716 13.716 0 0 1-2.27-4.902l-2.146-8.892a1.794 1.794 0 0 1 .939-2.03zm26.459-4.995a3.96 3.96 0 0 0-1.91.488 3.996 3.996 0 0 0-3.726-2.564c-.732 0-1.418.199-2.009.544a3.994 3.994 0 0 0-3.626-2.33c-.587 0-1.144.13-1.646.357v-5.602c0-2.2-1.79-3.99-3.99-3.99s-3.99 1.79-3.99 3.99v2.031a1.172 1.172 0 0 0 2.344 0v-2.031c0-.908.739-1.646 1.646-1.646.908 0 1.646.738 1.646 1.646v16.536a1.172 1.172 0 0 0 2.344 0v-7.3c0-.908.738-1.647 1.646-1.647.907 0 1.646.739 1.646 1.646v7.3a1.172 1.172 0 0 0 2.343 0v-5.515c0-.907.739-1.646 1.646-1.646.908 0 1.646.739 1.646 1.646v5.516a1.172 1.172 0 0 0 2.344 0v-3.44c0-.907.738-1.646 1.646-1.646.907 0 1.646.739 1.646 1.646v9.889c0 2.634-.4 5.245-1.189 7.76l-1.653 5.27a1.172 1.172 0 0 0 2.237.702l1.653-5.271a28.247 28.247 0 0 0 1.295-8.461v-9.889c0-2.2-1.79-3.989-3.99-3.989zM59.902 6.214a1.96 1.96 0 0 0-1.593-1.342l-3.59-.52-1.606-3.253A1.96 1.96 0 0 0 51.344 0a1.96 1.96 0 0 0-1.769 1.1l-1.604 3.253-3.59.523a1.96 1.96 0 0 0-1.592 1.343 1.96 1.96 0 0 0 .5 2.022l2.598 2.531-.612 3.575a1.96 1.96 0 0 0 .785 1.93 1.965 1.965 0 0 0 2.078.15l3.21-1.69 3.21 1.688a1.96 1.96 0 0 0 2.078-.151 1.96 1.96 0 0 0 .784-1.93l-.614-3.575 2.597-2.532a1.961 1.961 0 0 0 .499-2.023zM55.03 9.227a1.972 1.972 0 0 0-.567 1.747l.52 3.026-2.719-1.428a1.972 1.972 0 0 0-1.836 0l-2.717 1.43.518-3.027a1.973 1.973 0 0 0-.568-1.746l-2.2-2.142 3.04-.443a1.973 1.973 0 0 0 1.484-1.08l1.359-2.753 1.36 2.753c.287.582.842.985 1.485 1.079l3.039.44-2.198 2.144zM38.556 6.214a1.96 1.96 0 0 0-1.593-1.342l-3.59-.52-1.605-3.253A1.96 1.96 0 0 0 29.998 0a1.96 1.96 0 0 0-1.769 1.1l-1.604 3.253-3.59.523a1.96 1.96 0 0 0-1.591 1.343 1.96 1.96 0 0 0 .5 2.022l2.597 2.531-.612 3.575a1.96 1.96 0 0 0 .785 1.93 1.965 1.965 0 0 0 2.078.15l3.21-1.69 3.21 1.687a1.96 1.96 0 0 0 2.078-.15 1.96 1.96 0 0 0 .785-1.93l-.614-3.575 2.596-2.532a1.96 1.96 0 0 0 .499-2.023zm-4.871 3.013a1.972 1.972 0 0 0-.567 1.747l.52 3.026-2.718-1.428a1.972 1.972 0 0 0-1.837 0l-2.717 1.43.518-3.027a1.973 1.973 0 0 0-.568-1.746l-2.199-2.142 3.039-.443a1.973 1.973 0 0 0 1.485-1.08l1.358-2.753 1.36 2.753c.287.582.842.985 1.485 1.079l3.039.44-2.198 2.144zM17.21 6.214a1.96 1.96 0 0 0-1.593-1.342l-3.59-.52-1.605-3.253A1.96 1.96 0 0 0 8.652 0a1.96 1.96 0 0 0-1.769 1.1L5.28 4.353l-3.589.523A1.96 1.96 0 0 0 .098 6.219a1.96 1.96 0 0 0 .5 2.022l2.597 2.531-.612 3.575a1.961 1.961 0 0 0 .786 1.93 1.965 1.965 0 0 0 2.077.15l3.21-1.69 3.211 1.688a1.96 1.96 0 0 0 2.078-.151 1.961 1.961 0 0 0 .784-1.93l-.614-3.575 2.597-2.532a1.961 1.961 0 0 0 .498-2.023zm-4.87 3.013a1.972 1.972 0 0 0-.568 1.747l.52 3.026-2.718-1.428a1.972 1.972 0 0 0-1.836 0l-2.718 1.43.518-3.026a1.972 1.972 0 0 0-.568-1.747L2.771 7.087l3.039-.443a1.973 1.973 0 0 0 1.485-1.08l1.358-2.753 1.36 2.753c.287.582.842.985 1.485 1.079l3.04.44-2.199 2.144z"/><path d="M25.193 28.492a1.18 1.18 0 0 0-.828-.344c-.309 0-.611.126-.829.344a1.18 1.18 0 0 0-.343.828c0 .309.125.61.343.829.218.218.52.343.829.343.308 0 .61-.125.828-.343a1.18 1.18 0 0 0 .343-.829c0-.308-.125-.61-.343-.828z"/></g></svg>