<svg width="24" height="20" xmlns="http://www.w3.org/2000/svg"><path d="M1.146 4.347h21.172c1.205 0 1.145-.974 1.145-2.174S23.524 0 22.32 0H1.146C-.058 0 0 .972 0 2.173c0 1.2-.058 2.174 1.146 2.174zm21.172 3.3H1.146C-.059 7.647 0 8.62 0 9.82c0 1.2-.058 2.174 1.146 2.174h21.172c1.205 0 1.146-.974 1.146-2.174 0-1.201.059-2.174-1.146-2.174zm0 7.647H1.146C-.059 15.294 0 16.267 0 17.47c0 1.2-.058 2.173 1.146 2.173h21.172c1.205 0 1.146-.973 1.146-2.173 0-1.202.059-2.175-1.146-2.175z" fill="#10496A"/></svg>