<svg width="35" height="27" xmlns="http://www.w3.org/2000/svg"><g fill="#FFF" opacity=".503"><path d="M29.407 26.89H4.633A4.638 4.638 0 0 1 0 22.259V8.946a4.638 4.638 0 0 1 4.633-4.633h3.038a4.64 4.64 0 0 1 4.604-4.11h9.49a4.64 4.64 0 0 1 4.604 4.11h3.038a4.638 4.638 0 0 1 4.633 4.633v13.311a4.637 4.637 0 0 1-4.633 4.634zM4.633 5.703a3.247 3.247 0 0 0-3.244 3.244v13.311a3.247 3.247 0 0 0 3.244 3.244h24.774a3.248 3.248 0 0 0 3.244-3.244V8.946a3.247 3.247 0 0 0-3.244-3.244h-3.703a.695.695 0 0 1-.694-.695v-.171a3.248 3.248 0 0 0-3.244-3.244h-9.491A3.247 3.247 0 0 0 9.03 4.836v.171a.695.695 0 0 1-.694.695H4.633z"/><path d="M17.02 22.896c-4.596 0-8.336-3.74-8.336-8.336 0-4.597 3.74-8.337 8.336-8.337 4.597 0 8.337 3.74 8.337 8.337 0 4.597-3.74 8.336-8.337 8.336zm0-15.283a6.955 6.955 0 0 0-6.947 6.947 6.955 6.955 0 0 0 6.947 6.947 6.955 6.955 0 0 0 6.948-6.947 6.955 6.955 0 0 0-6.948-6.947z"/><path d="M17.02 20.001c-3 0-5.441-2.44-5.441-5.441 0-3 2.441-5.442 5.441-5.442s5.442 2.441 5.442 5.442c0 3-2.442 5.441-5.442 5.441zm0-9.494a4.057 4.057 0 0 0-4.052 4.052 4.057 4.057 0 0 0 4.052 4.052 4.057 4.057 0 0 0 4.053-4.052 4.057 4.057 0 0 0-4.053-4.052z"/></g></svg>