<svg width="21" height="19" xmlns="http://www.w3.org/2000/svg"><path d="M9.5 19c-1.048 0-1.9-.852-1.9-1.9s.852-1.9 1.9-1.9 1.9.852 1.9 1.9-.852 1.9-1.9 1.9zm5.067 0c-1.048 0-1.9-.852-1.9-1.9s.852-1.9 1.9-1.9c1.047 0 1.9.852 1.9 1.9s-.853 1.9-1.9 1.9zm-8.409-6.383L2.233 1.593c-.058-.163-.289-.326-.457-.326H.316A.317.317 0 0 1 0 .95V.317C0 .142.142 0 .316 0h1.46c.706 0 1.417.504 1.65 1.17l.936 2.63h15.904v.633c0 2.503-.44 4.956-1.31 7.29-.203.546-.8 1.003-1.386 1.068l-9.485 1.036a1.646 1.646 0 0 1-.177.009c-.75 0-1.498-.51-1.75-1.219zm-1.344-7.55l2.536 7.126c.077.217.361.398.598.375l9.485-1.036c.114-.013.298-.152.336-.251a19.51 19.51 0 0 0 1.22-6.214H4.815z" fill="#979797" fill-rule="evenodd"/></svg>