<svg width="16" height="15" xmlns="http://www.w3.org/2000/svg"><path d="M14.95 5.037a1.19 1.19 0 0 0 .029-.26V2.734c0-1.769-3.859-2.723-7.49-2.723C3.86.01 0 .965 0 2.734c0 .076.008.151.022.224A.338.338 0 0 0 0 3.074v1.703c0 .565.395 1.048 1.051 1.442a1.16 1.16 0 0 0-.008.484.337.337 0 0 0-.022.116v1.702c0 .157.031.306.088.45-.628.465-.769.931-.769 1.252 0 .077.008.151.022.225a.337.337 0 0 0-.022.116v1.702c0 1.769 3.86 2.723 7.49 2.723 3.63 0 7.49-.954 7.49-2.723v-2.043c0-.15-.031-.3-.09-.446.486-.357.77-.776.77-1.256V6.48c0-.375-.188-.92-1.05-1.442zM2.541 1.372C3.858.933 5.615.692 7.489.692s3.631.241 4.948.68c1.165.388 1.86.898 1.86 1.362 0 .464-.695.974-1.86 1.362-1.317.439-3.074.68-4.948.68-1.874 0-3.63-.241-4.947-.68C1.377 3.708.681 3.198.681 2.734c0-.464.696-.974 1.861-1.362zm11.756 2.55v.855c0 .393-.5.818-1.362 1.175V4.641c.549-.203 1.014-.443 1.362-.719zm-2.043.94v1.334c-.417.13-.873.24-1.361.33V5.173c.48-.085.937-.188 1.361-.31zm-2.042.416v1.36a18.9 18.9 0 0 1-1.362.137V5.413c.461-.03.918-.075 1.362-.135zm-2.043.168v1.362a21.5 21.5 0 0 1-1.361 0V5.446a20.997 20.997 0 0 0 1.361 0zm-2.042-.033v1.362c-.47-.03-.925-.076-1.362-.138v-1.36c.444.06.9.106 1.362.136zm-2.043-.241v1.355a11.98 11.98 0 0 1-1.362-.33V4.861c.425.122.882.225 1.362.31zM.681 4.777v-.855c.347.276.813.516 1.362.719v1.311C1.182 5.595.68 5.17.68 4.777zm1.021 2.89c.348.276.813.515 1.362.718v1.312c-.861-.357-1.362-.782-1.362-1.176v-.854zm.681 5.775c-.861-.357-1.362-.783-1.362-1.176v-.854c.348.275.813.515 1.362.718v1.312zm2.043.574a11.98 11.98 0 0 1-1.362-.33v-1.334c.424.121.882.224 1.362.31v1.354zm2.042.249c-.47-.03-.925-.077-1.362-.138v-1.36c.444.06.9.105 1.362.136v1.362zm2.043.033a21.5 21.5 0 0 1-1.362 0v-1.362a20.997 20.997 0 0 0 1.362 0v1.362zm2.042-.171c-.437.061-.892.107-1.362.138v-1.363c.462-.03.918-.075 1.362-.135v1.36zm2.043-.441c-.417.129-.874.24-1.362.33v-1.355c.48-.085.938-.188 1.362-.31v1.335zm2.042-1.42c0 .393-.5.819-1.361 1.176V12.13c.548-.203 1.014-.443 1.361-.718v.854zm-1.86-.68c-1.317.438-3.074.68-4.948.68-1.874 0-3.631-.242-4.948-.68-1.165-.389-1.86-.898-1.86-1.363 0-.266.23-.51.475-.694 1.14 1.12 4.148 1.716 7.014 1.716 2.291 0 4.674-.38 6.12-1.106a.482.482 0 0 1 .007.084c0 .465-.695.974-1.86 1.362zM3.744 9.94V8.607c.424.121.882.225 1.361.31v1.354c-.488-.09-.945-.2-1.361-.33zm2.042.441v-1.36c.444.06.9.106 1.362.136v1.362c-.47-.03-.925-.077-1.362-.138zm2.043.171V9.191a20.997 20.997 0 0 0 1.361 0v1.362a21.5 21.5 0 0 1-1.361 0zm2.042-.033V9.158c.462-.03.918-.076 1.362-.136v1.36c-.437.061-.892.108-1.362.138zm2.043-.249V8.916c.48-.084.937-.188 1.362-.309v1.334c-.417.13-.874.24-1.362.33zm3.404-1.75c0 .394-.5.819-1.362 1.176v-1.31c.55-.204 1.015-.443 1.362-.719v.854zm-1.861-.68c-1.316.439-3.073.68-4.947.68s-3.631-.241-4.948-.68c-1.105-.369-1.787-.846-1.854-1.29 1.462.623 3.66.949 5.78.949 2.985 0 6.123-.645 7.145-1.857.444.275.685.568.685.836 0 .464-.696.973-1.861 1.362z" fill="#979797"/></svg>