<svg width="33" height="38" xmlns="http://www.w3.org/2000/svg"><defs><filter x="-15.7%" width="131.4%" height="140%" filterUnits="objectBoundingBox" id="a"><feOffset dy="10" in="SourceAlpha" result="shadowOffsetOuter1"/><feGaussianBlur stdDeviation="2" in="shadowOffsetOuter1" result="shadowBlurOuter1"/><feColorMatrix values="0 0 0 0 0 0 0 0 0 0 0 0 0 0 0 0 0 0 0.1 0" in="shadowBlurOuter1" result="shadowMatrixOuter1"/><feMerge><feMergeNode in="shadowMatrixOuter1"/><feMergeNode in="SourceGraphic"/></feMerge></filter></defs><path d="M23.438 6.22h-4.944a6.07 6.07 0 0 0 .872-.7 3.269 3.269 0 0 0 0-4.596c-1.224-1.231-3.358-1.233-4.583 0-.677.68-2.475 3.447-2.227 5.295h-.112c.247-1.848-1.55-4.615-2.227-5.295-1.225-1.233-3.36-1.231-4.583 0a3.27 3.27 0 0 0-.001 4.597c.214.216.519.456.873.698H1.562A1.567 1.567 0 0 0 0 7.782v3.906c0 .431.35.781.781.781h.781v9.375c0 .861.702 1.563 1.563 1.563h18.75c.86 0 1.563-.702 1.563-1.563V12.47h.78c.432 0 .782-.35.782-.78V7.781c0-.861-.702-1.563-1.563-1.563zM6.741 2.025a1.66 1.66 0 0 1 1.185-.494c.445 0 .865.175 1.182.494 1.053 1.059 2.1 3.765 1.736 4.142 0 0-.065.051-.289.051-1.08 0-3.14-1.122-3.814-1.8a1.704 1.704 0 0 1 0-2.393zm4.977 19.818H3.125V12.47h8.594v9.375zm0-10.937H1.563V7.782h10.156v3.125zm4.172-8.881c.634-.636 1.734-.635 2.367 0a1.703 1.703 0 0 1 0 2.393c-.674.678-2.735 1.8-3.814 1.8-.224 0-.29-.05-.29-.051-.363-.377.684-3.083 1.737-4.142zm5.984 19.818H13.28V12.47h8.594v9.375zm1.563-10.937H13.28V7.782h10.156v3.125z" transform="translate(4)" filter="url(#a)" fill="#FFF"/></svg>