<svg width="47" height="40" xmlns="http://www.w3.org/2000/svg"><g fill="#006DAA"><path d="M43.326 22.65l-1.207-4.825a.73.73 0 0 0 .577-.713v-.778a3.067 3.067 0 0 0-3.063-3.064h-5.495v-1.605a1.51 1.51 0 0 0-1.508-1.507H22.413l6.209-2.484a.73.73 0 0 0-.542-1.354l-5.084 2.033c1.55-.994 3.082-2.088 3.665-2.853a3.401 3.401 0 0 0-.64-4.761 3.4 3.4 0 0 0-4.762.641c-.83 1.088-1.925 4.147-2.634 6.302-.709-2.155-1.804-5.214-2.634-6.302A3.401 3.401 0 0 0 11.23.739a3.401 3.401 0 0 0-.641 4.761c.583.765 2.116 1.86 3.665 2.853L9.17 6.32a.73.73 0 1 0-.542 1.354l6.21 2.484H4.62a1.51 1.51 0 0 0-1.508 1.507v13.228a.73.73 0 0 0 1.46 0V11.665c0-.026.02-.048.048-.048h28.01c.027 0 .049.022.049.048v13.228a.73.73 0 0 0 1.459 0v-.827h8.609c1.059 0 1.958.696 2.266 1.653h-2.268a.73.73 0 0 0-.73.73v1.556a2.288 2.288 0 0 0 2.286 2.286h.827V33.5H43.22a4.627 4.627 0 0 0-4.366-3.112 4.627 4.627 0 0 0-4.366 3.112h-.351v-5.495a.73.73 0 0 0-1.46 0V33.5H17.545a4.627 4.627 0 0 0-4.365-3.112A4.627 4.627 0 0 0 8.813 33.5H4.62a.049.049 0 0 1-.049-.049v-1.604h3.161a.73.73 0 0 0 0-1.46H.73a.73.73 0 0 0 0 1.46h2.383v1.604A1.51 1.51 0 0 0 4.62 34.96h3.94l-.001.048a4.625 4.625 0 0 0 4.62 4.62 4.625 4.625 0 0 0 4.62-4.62l-.002-.048h16.44l-.002.048a4.625 4.625 0 0 0 4.62 4.62 4.625 4.625 0 0 0 4.62-4.62l-.002-.048h2.384a.73.73 0 0 0 .73-.73v-7.78a3.847 3.847 0 0 0-3.261-3.798zM15.732 7.559c-2.877-1.789-3.73-2.611-3.983-2.943a1.94 1.94 0 0 1 1.539-3.112c.584 0 1.162.262 1.543.762.706.925 1.81 4.039 2.54 6.283-.492-.29-1.058-.63-1.639-.99zm4.147.99c.73-2.244 1.834-5.358 2.54-6.283a1.94 1.94 0 0 1 2.717-.366 1.94 1.94 0 0 1 .365 2.716c-.252.332-1.106 1.154-3.983 2.942-.58.361-1.147.7-1.64.99zm14.259 6.181h5.495c.885 0 1.605.72 1.605 1.605v.048h-7.1V14.73zm0 7.878v-4.766h6.481l1.192 4.766h-7.673zm-20.96 15.561a3.164 3.164 0 0 1-3.16-3.16 3.164 3.164 0 0 1 3.16-3.161 3.164 3.164 0 0 1 3.161 3.16 3.164 3.164 0 0 1-3.16 3.161zm25.677 0a3.164 3.164 0 0 1-3.161-3.16 3.164 3.164 0 0 1 3.16-3.161 3.164 3.164 0 0 1 3.162 3.16 3.164 3.164 0 0 1-3.161 3.161zm6.273-9.336h-.827a.828.828 0 0 1-.826-.827v-.827h1.653v1.654z"/><path d="M13.179 33.5a1.51 1.51 0 0 0-1.508 1.507 1.51 1.51 0 0 0 1.508 1.508 1.51 1.51 0 0 0 1.507-1.508 1.51 1.51 0 0 0-1.507-1.507zm25.676 0a1.51 1.51 0 0 0-1.508 1.507 1.51 1.51 0 0 0 1.508 1.508 1.51 1.51 0 0 0 1.507-1.508 1.51 1.51 0 0 0-1.507-1.507zm-8.559-3.112H19.403a.73.73 0 0 0 0 1.459h10.893a.73.73 0 0 0 0-1.46zm-18.674-3.113H2.286a.73.73 0 0 0 0 1.46h9.336a.73.73 0 0 0 0-1.46zm0-10.893H8.51a.73.73 0 0 0-.73.73v6.224a.73.73 0 0 0 1.46 0v-2.382h1.604a.73.73 0 0 0 0-1.46H9.24v-1.653h2.382a.73.73 0 0 0 0-1.459zm5.741 4.914a2.674 2.674 0 0 0-1.461-4.914h-1.945a.73.73 0 0 0-.73.73v6.224a.73.73 0 0 0 1.459 0v-1.604H15.9l1.34 2.009a.729.729 0 1 0 1.214-.81l-1.091-1.635zm-1.461-1.023h-1.216V17.84h1.216a1.217 1.217 0 0 1 0 2.431zm7.391 2.334h-2.382v-1.656l.048.003h1.556a.73.73 0 0 0 0-1.46H20.96l-.048.003v-1.656h2.382a.73.73 0 0 0 0-1.459h-3.112a.73.73 0 0 0-.73.73v6.224c0 .403.327.73.73.73h3.112a.73.73 0 0 0 0-1.459zm5.447 0h-2.383v-1.653h.827a.73.73 0 0 0 0-1.46h-.827v-1.653h2.383a.73.73 0 0 0 0-1.459h-3.112a.73.73 0 0 0-.73.73v6.224c0 .403.327.73.73.73h3.112a.73.73 0 0 0 0-1.459z"/></g></svg>