<svg width="40" height="25" xmlns="http://www.w3.org/2000/svg"><path d="M39.972 2.08A2.051 2.051 0 0 0 37.923.036h-.002L2.046.085a2.032 2.032 0 0 0-1.448.6A2.036 2.036 0 0 0 0 2.136l.028 20.158c0 .547.214 1.062.602 1.448.387.386.9.598 1.447.598h.002l35.875-.049A2.051 2.051 0 0 0 40 22.239l-.028-20.158zm-4.3.007L20.003 12.98 4.3 2.13l31.373-.043zm-9.043 12.95l9.294 7.208-31.873.044 9.352-7.252a1.025 1.025 0 0 0-1.256-1.62l-10.07 7.81-.026-18.16L19.42 15.07a1.023 1.023 0 0 0 1.168-.002L37.925 3.017l.026 18.208-10.067-7.807a1.025 1.025 0 0 0-1.255 1.619z" fill="#006DAA"/></svg>