<svg width="14" height="10" viewBox="0 0 14 10" xmlns="http://www.w3.org/2000/svg"><title>list</title><path d="M8.573 9.813H.945c-.314 0-.569-.294-.569-.656 0-.362.255-.656.57-.656h7.626c.315 0 .57.294.57.656 0 .362-.255.656-.57.656zm1.87-4.116H1.075c-.386 0-.699-.294-.699-.656 0-.362.313-.656.699-.656h9.368c.386 0 .699.294.699.656 0 .362-.313.656-.7.656zm1.87-4.117H1.205c-.458 0-.829-.293-.829-.655 0-.362.371-.656.829-.656h11.108c.458 0 .829.294.829.656 0 .362-.371.656-.829.656z" fill="#FFF"/></svg>