<svg width="15" height="15" xmlns="http://www.w3.org/2000/svg"><path d="M9.47 5.622a1.973 1.973 0 0 0-1.97-1.97 1.971 1.971 0 0 0 0 3.941 1.973 1.973 0 0 0 1.97-1.97zm.842 0A2.815 2.815 0 0 1 7.5 8.433a2.815 2.815 0 0 1-2.812-2.81A2.815 2.815 0 0 1 7.5 2.81a2.815 2.815 0 0 1 2.812 2.811zM14.164 7.5A6.672 6.672 0 0 0 7.5.835 6.67 6.67 0 0 0 .836 7.5c0 2.025.91 3.84 2.343 5.062l.634-1.808a.932.932 0 0 1 .417-.503 6.564 6.564 0 0 1 3.27-.874 6.56 6.56 0 0 1 3.27.874c.195.111.343.29.417.503l.634 1.808A6.646 6.646 0 0 0 14.164 7.5zm-3.135 5.642L10.3 10.97a5.596 5.596 0 0 0-2.801-.748 5.593 5.593 0 0 0-2.801.748l-.728 2.172a6.615 6.615 0 0 0 3.53 1.022 6.618 6.618 0 0 0 3.529-1.022zM7.499 15C3.366 15 0 11.635 0 7.5S3.365 0 7.5 0 15 3.364 15 7.5c0 4.135-3.365 7.5-7.5 7.5z" fill="#10496A" fill-rule="evenodd"/></svg>