<svg width="34" height="20" xmlns="http://www.w3.org/2000/svg"><g fill="none" fill-rule="evenodd"><rect fill="#006" width="33.333" height="20" rx="3"/><path d="M18.71 10.162a6.505 6.505 0 1 1-13.01 0 6.505 6.505 0 0 1 13.01 0" fill="#C00"/><path d="M20.938 3.657a6.482 6.482 0 0 0-5.024 2.372h1.315c.18.219.344.448.496.69h-2.307c-.138.22-.263.45-.375.688H18.1c.105.223.196.453.276.689h-3.607a6.476 6.476 0 0 0-.189.688h3.984a6.553 6.553 0 0 1-.188 3.444h-3.607c.08.236.171.466.275.69H18.1a6.516 6.516 0 0 1-.375.688h-2.306c.15.24.316.47.496.688h1.314a6.501 6.501 0 0 1-.657.69 6.505 6.505 0 1 0 4.367-11.327" fill="#F90"/><path d="M10.686 10.874a1.215 1.215 0 0 0-.158-.011c-.4 0-.603.137-.603.409 0 .167.099.273.253.273.288 0 .495-.274.508-.671zm.513 1.196h-.585l.013-.278c-.178.22-.416.324-.74.324-.382 0-.645-.299-.645-.733 0-.653.457-1.034 1.24-1.034.08 0 .183.007.288.02a.663.663 0 0 0 .027-.174c0-.177-.123-.244-.452-.244a2.355 2.355 0 0 0-.748.121l.098-.604c.352-.103.584-.142.845-.142.607 0 .928.273.927.787a3.44 3.44 0 0 1-.057.532c-.061.388-.193 1.222-.21 1.425zm-2.252 0H8.24l.405-2.537-.903 2.537H7.26L7.2 9.548l-.424 2.522h-.661l.552-3.3h1.015l.062 1.847.62-1.847h1.129l-.546 3.3m12.863-1.196a1.209 1.209 0 0 0-.157-.011c-.4 0-.602.137-.602.409 0 .167.098.273.253.273.287 0 .495-.274.507-.671zm.515 1.196h-.586l.014-.278c-.179.22-.417.324-.74.324-.383 0-.645-.299-.645-.733 0-.653.456-1.034 1.24-1.034.08 0 .182.007.287.02a.658.658 0 0 0 .028-.174c0-.177-.123-.244-.453-.244a2.36 2.36 0 0 0-.748.121l.099-.604c.351-.103.583-.142.844-.142.607 0 .928.273.927.787.002.138-.021.308-.057.532-.06.388-.193 1.222-.21 1.425zm-7.987-.041c-.194.06-.344.087-.508.087-.36 0-.558-.207-.558-.59-.005-.118.052-.43.097-.715l.306-1.83h.702l-.082.405h.424l-.095.645h-.426c-.081.51-.198 1.146-.199 1.23 0 .139.074.2.242.2.08 0 .143-.009.19-.026l-.093.594m2.152-.022c-.241.074-.474.11-.72.109-.786-.001-1.196-.411-1.196-1.197 0-.917.521-1.593 1.229-1.593.579 0 .948.378.948.971 0 .197-.025.39-.086.66h-1.398c-.047.39.202.552.61.552.251 0 .478-.052.73-.169l-.117.667zm-.395-1.59c.004-.057.075-.48-.326-.48-.224 0-.384.17-.449.48h.775zm-4.472-.182c0 .339.164.573.537.749.286.134.33.174.33.296 0 .167-.125.243-.405.243-.21 0-.406-.033-.633-.106l-.097.62c.16.034.304.067.735.079.745 0 1.09-.284 1.09-.897 0-.369-.144-.585-.498-.748-.296-.136-.33-.166-.33-.291 0-.145.117-.22.345-.22.139 0 .328.015.508.04l.1-.622a4.768 4.768 0 0 0-.621-.052c-.79 0-1.064.413-1.061.909m8.302-.838c.196 0 .379.051.63.178l.116-.716c-.103-.04-.467-.28-.776-.28-.472 0-.872.236-1.153.622-.41-.135-.579.139-.785.412l-.184.043c.014-.09.027-.18.023-.27h-.649c-.088.831-.245 1.672-.368 2.503l-.032.18h.706c.118-.766.183-1.256.222-1.588l.266-.148c.04-.148.164-.198.414-.192-.033.175-.05.36-.05.55 0 .878.474 1.425 1.234 1.425.195 0 .364-.026.624-.097l.124-.751c-.234.115-.426.169-.6.169-.41 0-.66-.303-.66-.804 0-.727.37-1.236.898-1.236m5.979-.627l-.157.953c-.193-.254-.4-.438-.674-.438-.357 0-.681.27-.893.668-.296-.061-.602-.165-.602-.165v.002c.024-.222.034-.357.031-.404h-.649c-.088.831-.245 1.672-.368 2.503l-.032.18h.707a76.17 76.17 0 0 0 .222-1.541c.241-.218.362-.408.606-.396a2.3 2.3 0 0 0-.171.87c0 .671.339 1.114.852 1.114.26 0 .458-.09.651-.296l-.033.25h.668l.538-3.3h-.696zm-.883 2.68c-.24 0-.363-.178-.363-.53 0-.527.228-.9.548-.9.243 0 .374.184.374.525 0 .532-.23.905-.56.905z" fill="#006"/><path fill="#FFF" d="M9.15 11.874h-.706l.404-2.536-.903 2.536h-.481l-.06-2.522-.425 2.522h-.661l.552-3.3h1.016l.028 2.043.685-2.042h1.097l-.546 3.299m1.739-1.195a1.174 1.174 0 0 0-.158-.011c-.4 0-.603.137-.603.408 0 .167.1.273.254.273.287 0 .495-.273.507-.67zm.513 1.195h-.585l.014-.278c-.179.22-.417.324-.74.324-.383 0-.645-.299-.645-.733 0-.653.456-1.034 1.24-1.034.08 0 .182.007.287.02a.666.666 0 0 0 .028-.174c0-.177-.123-.243-.453-.243a2.346 2.346 0 0 0-.748.12l.098-.603c.352-.104.584-.142.845-.142.607 0 .928.272.928.786 0 .138-.022.309-.058.532a43.594 43.594 0 0 0-.21 1.425zm9.473-3.211l-.116.716c-.252-.126-.435-.178-.63-.178-.528 0-.898.51-.898 1.237 0 .5.249.803.66.803.173 0 .365-.054.599-.17l-.124.753c-.26.07-.429.096-.624.096-.76 0-1.234-.546-1.234-1.424 0-1.18.654-2.004 1.59-2.004.309 0 .673.13.777.171m1.139 2.016a1.165 1.165 0 0 0-.157-.011c-.4 0-.603.137-.603.408 0 .167.099.273.253.273.287 0 .495-.273.507-.67zm.514 1.195h-.585l.013-.278c-.179.22-.417.324-.74.324-.383 0-.645-.299-.645-.733 0-.653.456-1.034 1.24-1.034.08 0 .182.007.287.02a.663.663 0 0 0 .028-.174c0-.177-.123-.243-.453-.243a2.347 2.347 0 0 0-.747.12l.098-.603c.351-.104.583-.142.845-.142.606 0 .927.272.927.786a3.52 3.52 0 0 1-.057.532 41.7 41.7 0 0 0-.211 1.425zm-7.988-.041a1.597 1.597 0 0 1-.506.087c-.361 0-.559-.207-.559-.589-.004-.119.053-.43.098-.715.04-.251.306-1.831.306-1.831h.702l-.082.406h.36l-.096.644h-.362c-.081.511-.197 1.146-.199 1.23 0 .14.074.2.242.2.08 0 .143-.008.19-.026l-.093.594m2.153-.021a2.404 2.404 0 0 1-.721.108c-.786 0-1.195-.41-1.195-1.197 0-.917.52-1.592 1.228-1.592.579 0 .949.378.949.971 0 .197-.026.389-.087.66H15.47c-.047.389.202.551.61.551.251 0 .478-.052.73-.169l-.116.668zm-.395-1.591c.004-.057.074-.48-.327-.48-.223 0-.383.171-.448.48h.775zm-4.473-.182c0 .34.165.573.538.75.286.134.33.174.33.295 0 .168-.126.243-.406.243a1.99 1.99 0 0 1-.632-.105l-.097.619c.16.035.303.067.734.08.746 0 1.09-.284 1.09-.897 0-.37-.144-.586-.498-.748-.296-.136-.33-.166-.33-.292 0-.145.117-.22.346-.22.138 0 .328.016.507.041l.1-.622a4.807 4.807 0 0 0-.62-.052c-.791 0-1.064.412-1.062.908m14.44 1.835h-.668l.033-.25c-.194.207-.393.296-.651.296-.514 0-.853-.442-.853-1.113 0-.893.526-1.645 1.149-1.645.274 0 .481.112.674.366l.157-.953h.696l-.537 3.299zm-1.042-.62c.329 0 .56-.373.56-.904 0-.341-.132-.527-.375-.527-.32 0-.547.374-.547.902 0 .351.122.529.362.529zm-2.06-2.064c-.088.831-.246 1.672-.368 2.503l-.033.18h.707c.252-1.64.313-1.96.71-1.92.063-.336.18-.63.268-.778-.296-.062-.461.105-.678.423.017-.138.049-.271.043-.407h-.65M17.35 9.19c-.088.831-.245 1.672-.368 2.503l-.032.18h.706c.253-1.64.314-1.96.71-1.92a2.65 2.65 0 0 1 .268-.778c-.295-.062-.461.105-.677.423.017-.138.048-.271.042-.407h-.648"/></g></svg>