<svg width="34" height="20" xmlns="http://www.w3.org/2000/svg"><path d="M0 0h34v20H0V0zm12.48 8.216c0-.784-.236-1.388-.708-1.812-.472-.424-1.128-.636-1.968-.636H6.912V14h1.38l-.012-3.276h1.644c.48 0 .884-.08 1.212-.24.328-.16.59-.362.786-.606.196-.244.338-.514.426-.81.088-.296.132-.58.132-.852zm-4.2-1.464h1.368c.408 0 .752.12 1.032.36s.42.62.42 1.14c0 .288-.04.528-.12.72a1.154 1.154 0 0 1-.768.708 1.87 1.87 0 0 1-.516.072H8.28v-3zM13.812 14h2.772c.688 0 1.262-.11 1.722-.33.46-.22.83-.52 1.11-.9.28-.38.478-.82.594-1.32.116-.5.174-1.03.174-1.59 0-.552-.052-1.076-.156-1.572a3.44 3.44 0 0 0-.552-1.302 2.775 2.775 0 0 0-1.074-.888c-.452-.22-1.026-.33-1.722-.33h-2.868V14zm1.38-7.248h1.296c.224 0 .468.032.732.096.264.064.512.206.744.426.232.22.426.54.582.96.156.42.234.986.234 1.698 0 .704-.084 1.258-.252 1.662-.168.404-.372.71-.612.918-.24.208-.494.34-.762.396a3.493 3.493 0 0 1-.702.084h-1.26v-6.24zM21.78 14h1.368v-3.744h3.144v-.96h-3.144V6.764h3.9v-.996H21.78V14z" fill="#B5B5B5" fill-rule="evenodd"/></svg>