<svg width="15" height="15" viewBox="0 0 15 15" xmlns="http://www.w3.org/2000/svg"><title>Fill 61</title><path d="M3.096.956a.55.55 0 0 0-.371.144L1.072 2.61c-.201.202-.104.61-.026.834 1.745 5.02 5.276 8.537 10.496 10.455.24.087.672.202.891-.016l1.467-1.607a.551.551 0 0 0-.017-.762l-2.298-2.297-2.102 1.46a.474.474 0 0 1-.472.041c-2.2-1.01-3.762-2.609-4.64-4.749a.478.478 0 0 1 .05-.452L5.84 3.47 3.487 1.117a.554.554 0 0 0-.39-.161m8.968 14.006c-.264 0-.55-.056-.852-.167C5.71 12.775 1.987 9.06.144 3.757c-.26-.751-.165-1.404.268-1.837L2.08.395a1.504 1.504 0 0 1 2.082.047l2.634 2.635c.163.163.186.42.055.61L5.357 5.842C6.12 7.556 7.4 8.863 9.166 9.735l2.203-1.53a.48.48 0 0 1 .61.054l2.579 2.58c.57.57.592 1.485.046 2.08l-1.48 1.623c-.28.28-.641.42-1.06.42" fill="#FFF" fill-rule="evenodd"/></svg>