<svg width="11" height="15" xmlns="http://www.w3.org/2000/svg"><g fill="#10496A"><path d="M5.281 0a5.261 5.261 0 0 0-5.26 5.261c0 .222.017.44.044.654.45 4.11 4.875 8.846 4.875 8.846a.82.82 0 0 0 .228.182l.004.002.147.047.147-.047.004-.002a.876.876 0 0 0 .228-.182s4.362-4.745 4.8-8.855a5.24 5.24 0 0 0 .044-.646A5.26 5.26 0 0 0 5.282 0zm4.284 5.807c-.336 3.15-3.293 6.845-4.245 7.97C4.343 12.65 1.344 8.964.996 5.8a4.4 4.4 0 0 1-.036-.54A4.327 4.327 0 0 1 5.28.938a4.327 4.327 0 0 1 4.323 4.323c0 .159-.011.328-.039.546z"/><path d="M5.281 2.815a2.448 2.448 0 0 0-2.445 2.446A2.448 2.448 0 0 0 5.28 7.707 2.448 2.448 0 0 0 7.727 5.26a2.448 2.448 0 0 0-2.446-2.446zm0 3.953a1.509 1.509 0 0 1-1.507-1.507c0-.83.676-1.507 1.507-1.507.83 0 1.508.675 1.508 1.507 0 .831-.676 1.507-1.508 1.507z"/></g></svg>