<svg width="34" height="40" xmlns="http://www.w3.org/2000/svg"><g fill="#006DAA"><path d="M33.242 35.607l-5.296-12.785a.638.638 0 1 0-1.18.489l4.788 11.557-4.367-1.265a.638.638 0 0 0-.736.305l-2.193 3.982-5.137-12.4c5.929-1.144 10.42-6.371 10.42-12.629C29.543 5.77 23.774 0 16.682 0S3.82 5.77 3.82 12.861c0 2.873.946 5.528 2.544 7.671L.12 35.607a.638.638 0 0 0 .767.857l5.152-1.493 2.587 4.699a.638.638 0 0 0 1.15-.064l4.947-11.945a.638.638 0 1 0-1.18-.488L9.103 37.89l-2.192-3.982a.638.638 0 0 0-.737-.305l-4.366 1.265 5.48-13.231a12.827 12.827 0 0 0 10.527 4.035l5.772 13.934a.638.638 0 0 0 1.148.064l2.588-4.699 5.151 1.493a.638.638 0 0 0 .768-.857zM5.096 12.86c0-6.388 5.197-11.584 11.585-11.584 6.388 0 11.584 5.196 11.584 11.584S23.07 24.446 16.681 24.446 5.096 19.249 5.096 12.86z"/><path d="M24.056 10.465a.638.638 0 0 0-.501-.432l-4.295-.721-2.013-3.862a.638.638 0 0 0-1.132 0l-2.013 3.862-4.295.72a.638.638 0 0 0-.35 1.077l3.051 3.108-.641 4.307a.638.638 0 0 0 .915.666l3.899-1.942 3.898 1.942a.638.638 0 0 0 .916-.665l-.641-4.308 3.05-3.108a.638.638 0 0 0 .152-.644zm-4.336 3.084a.638.638 0 0 0-.176.542l.508 3.41-3.087-1.537a.639.639 0 0 0-.569 0l-3.086 1.537.508-3.41a.638.638 0 0 0-.176-.542l-2.416-2.46 3.4-.571a.638.638 0 0 0 .461-.334l1.594-3.058 1.593 3.058a.638.638 0 0 0 .46.334l3.402.57-2.416 2.461z"/><path d="M26.35 13.505a.638.638 0 0 0-.717.549c-.592 4.469-4.44 7.839-8.952 7.839-4.98 0-9.032-4.052-9.032-9.032s4.052-9.031 9.032-9.031c4.512 0 8.36 3.37 8.952 7.838a.638.638 0 1 0 1.266-.167C26.223 6.4 21.83 2.553 16.68 2.553c-5.684 0-10.308 4.624-10.308 10.308S10.997 23.17 16.68 23.17c5.15 0 9.542-3.847 10.218-8.947a.638.638 0 0 0-.549-.717z"/></g></svg>