<svg width="80" height="80" xmlns="http://www.w3.org/2000/svg"><g fill="#FFF"><path d="M79.513 1.623A1.511 1.511 0 0 0 78.199.309a41.517 41.517 0 0 0-18.492 1.93 41.52 41.52 0 0 0-15.77 9.85L33.865 22.16l-14.54 1.875a1.52 1.52 0 0 0-.875.43L4.432 38.484a1.511 1.511 0 0 0 .794 2.555l10.599 1.963 2.083 2.082-4.434 2.401a1.511 1.511 0 0 0-.35 2.398l16.814 16.814a1.511 1.511 0 0 0 2.398-.35l2.401-4.433 2.083 2.082 1.963 10.6a1.511 1.511 0 0 0 2.555.793L55.356 61.37c.236-.236.387-.544.43-.875l1.875-14.54 10.072-10.072a41.52 41.52 0 0 0 9.85-15.77 41.522 41.522 0 0 0 1.93-18.491zM16.055 39.971l-7.453-1.38 11.621-11.623 10.143-1.308-14.31 14.31zm14.588 23.156L16.694 49.18l3.443-1.865 12.37 12.37-1.864 3.443zm22.21-3.529L41.231 71.22l-1.38-7.453 14.31-14.311-1.308 10.142zm12.742-25.85L38.22 61.122 18.7 41.6l27.375-27.375A38.48 38.48 0 0 1 60.238 5.26a18.124 18.124 0 0 0 4.968 9.355 18.125 18.125 0 0 0 9.355 4.968 38.49 38.49 0 0 1-8.966 14.163zm9.876-17.068a15.098 15.098 0 0 1-8.128-4.202 15.096 15.096 0 0 1-4.201-8.127A38.563 38.563 0 0 1 76.64 3.18c.413 4.516.01 9.118-1.17 13.499z"/><path d="M44.6 22.256c-3.575 3.575-3.575 9.391 0 12.966a9.14 9.14 0 0 0 6.483 2.681 9.142 9.142 0 0 0 6.483-2.68c3.575-3.576 3.575-9.392 0-12.967-3.575-3.575-9.392-3.575-12.967 0zm10.829 10.829a6.153 6.153 0 0 1-8.692 0 6.153 6.153 0 0 1 0-8.692 6.126 6.126 0 0 1 4.346-1.797c1.574 0 3.148.599 4.346 1.797a6.153 6.153 0 0 1 0 8.692zm-35.607 27.2a1.511 1.511 0 0 0-2.138 0L4.717 73.252a1.511 1.511 0 1 0 2.138 2.137l12.967-12.967c.59-.59.59-1.547 0-2.137zm1.994 4.132l-5.842 5.842a1.511 1.511 0 1 0 2.138 2.138l5.842-5.842a1.511 1.511 0 1 0-2.138-2.138zM13.93 72.93c-.633 0-1.21.409-1.424 1.003a1.527 1.527 0 0 0 .487 1.696 1.525 1.525 0 0 0 1.799.053c.572-.4.804-1.17.532-1.818a1.52 1.52 0 0 0-1.395-.933z"/><path d="M15.339 73.903c.095.225-.09-.225 0 0zM9.654 76.58l-.804.804a1.511 1.511 0 1 0 2.137 2.137l.805-.804a1.511 1.511 0 1 0-2.138-2.138zM8.565 63.277a1.511 1.511 0 0 0-2.138 0L.585 69.12a1.511 1.511 0 1 0 2.138 2.138l5.842-5.842c.59-.59.59-1.547 0-2.138zm2.412-.58a1.527 1.527 0 0 0 1.137-1.317 1.524 1.524 0 0 0-.825-1.496 1.52 1.52 0 0 0-1.767.3 1.529 1.529 0 0 0-.164 1.893 1.528 1.528 0 0 0 1.619.62zm3.908-3.602l.804-.805a1.511 1.511 0 1 0-2.137-2.137l-.804.805a1.511 1.511 0 1 0 2.137 2.137z"/></g></svg>