<svg width="40" height="40" xmlns="http://www.w3.org/2000/svg"><g fill="#006DAA"><path d="M34.217 32.165a2.07 2.07 0 0 0-2.069 2.069 2.07 2.07 0 0 0 2.069 2.068 2.07 2.07 0 0 0 2.068-2.068 2.07 2.07 0 0 0-2.068-2.069zm0 2.911a.843.843 0 0 1 0-1.685.843.843 0 0 1 0 1.685z"/><path d="M39.79 34.127a5.422 5.422 0 0 0-1.806-3.922l-12.34-11.13L36.555 8.164c.072-.021.143-.048.211-.084l2.363-1.247a1.14 1.14 0 0 0 .6-.846 1.14 1.14 0 0 0-.324-.985l-2.66-2.66a1.14 1.14 0 0 0-.985-.324 1.14 1.14 0 0 0-.846.6l-1.247 2.363c-.036.069-.064.14-.086.213l-5.15 5.15a.613.613 0 0 0 .867.866l4.726-4.726 1.239 1.239-12.086 12.086-1.239-1.239 5.276-5.275a.613.613 0 0 0-.867-.867l-3.828 3.828-4.166-3.757a9.405 9.405 0 0 0-2.236-9.745A9.425 9.425 0 0 0 6.087.624a.613.613 0 0 0-.214 1.006l4.812 4.812a.753.753 0 0 1 .001 1.066L7.56 10.633a.749.749 0 0 1-.533.22.749.749 0 0 1-.533-.22L1.682 5.82a.613.613 0 0 0-1.005.214 9.425 9.425 0 0 0 2.13 10.03 9.44 9.44 0 0 0 9.555 2.297l3.22 3.522a3.303 3.303 0 0 1-.604.833 3.318 3.318 0 0 1-3.545.745.613.613 0 0 0-.655.138l-7.505 7.505a5.216 5.216 0 0 0 0 7.369A5.176 5.176 0 0 0 6.958 40c1.391 0 2.7-.542 3.684-1.526l7.505-7.505a.613.613 0 0 0 .138-.655 3.318 3.318 0 0 1 .745-3.545 3.318 3.318 0 0 1 3.545-.746.613.613 0 0 0 .656-.138l1.415-1.415c.426-.426.661-.993.661-1.596 0-.603-.235-1.17-.66-1.596l-.603-.602.733-.733 12.387 11.172a4.207 4.207 0 0 1 1.4 3.043 4.207 4.207 0 0 1-1.242 3.111 4.215 4.215 0 0 1-3.097 1.243 4.208 4.208 0 0 1-3.038-1.38l-9.21-10.071a.613.613 0 1 0-.904.827l9.21 10.072a5.423 5.423 0 0 0 4.041 1.778c1.46 0 2.828-.566 3.865-1.602a5.422 5.422 0 0 0 1.6-4.01zM34.776 5.504l1.174-2.223 2.515 2.515-2.223 1.174-1.466-1.466zM12.994 17.237a.613.613 0 0 0-.666-.16 8.21 8.21 0 0 1-8.654-1.88A8.199 8.199 0 0 1 1.528 7.4l4.1 4.1c.373.373.87.58 1.4.58a1.97 1.97 0 0 0 1.399-.58l3.125-3.125c.374-.374.58-.872.58-1.4 0-.53-.206-1.026-.58-1.4l-4.1-4.1a8.198 8.198 0 0 1 7.798 2.146 8.181 8.181 0 0 1 1.814 8.827.613.613 0 0 0 .16.682l4.427 3.994-.58.58-.602-.603a2.242 2.242 0 0 0-1.596-.66c-.603 0-1.17.234-1.596.66l-1.415 1.416a.613.613 0 0 0-.138.655c.163.42.233.86.221 1.293l-2.95-3.228zm10.785 6.366l-1.147 1.147a4.544 4.544 0 0 0-4.469 1.152 4.544 4.544 0 0 0-1.152 4.469l-7.236 7.236a3.959 3.959 0 0 1-2.817 1.167 3.958 3.958 0 0 1-2.818-1.167 3.99 3.99 0 0 1 0-5.635l7.236-7.236a4.544 4.544 0 0 0 4.47-1.152 4.544 4.544 0 0 0 1.151-4.47l1.147-1.146a1.032 1.032 0 0 1 1.458 0l1.036 1.036 2.105 2.105 1.036 1.036a1.032 1.032 0 0 1 0 1.458z"/><path d="M12.604 27.05a.613.613 0 0 0-.867 0L5.93 32.858a.613.613 0 0 0 .867.867l5.806-5.806a.613.613 0 0 0 0-.867zm2.145 2.146a.613.613 0 0 0-.867 0l-5.806 5.806a.613.613 0 0 0 .867.867l5.806-5.806a.613.613 0 0 0 0-.867z"/></g></svg>