<svg width="28" height="28" xmlns="http://www.w3.org/2000/svg"><path d="M27.87 24.036l-3.837-6.42a.913.913 0 0 0-.784-.445h-2.204l-2.525-2.525.294-.294a7.337 7.337 0 0 0 7.052-1.887 7.336 7.336 0 0 0 1.712-7.615.914.914 0 0 0-1.506-.34l-3.734 3.736-2.152-.43-.43-2.153L23.49 1.93a.914.914 0 0 0-.34-1.506 7.334 7.334 0 0 0-7.614 1.712 7.322 7.322 0 0 0-2.123 4.822L7.257.801a2.742 2.742 0 0 0-3.873 0L.8 3.383a2.742 2.742 0 0 0 0 3.874l7.39 7.389-2.413 2.412a3.317 3.317 0 0 0-.299-.014A5.484 5.484 0 0 0 0 22.522 5.484 5.484 0 0 0 5.479 28a5.484 5.484 0 0 0 5.478-5.478c0-.105-.005-.204-.014-.3l3.703-3.703 2.525 2.526v2.204c0 .321.17.619.445.783l6.42 3.838a.913.913 0 0 0 1.114-.138l2.583-2.582a.913.913 0 0 0 .138-1.114zM2.093 5.966a.914.914 0 0 1 0-1.292l2.583-2.582a.917.917 0 0 1 1.29 0c7.753 7.752 7.276 7.29 7.406 7.373l-1.307 1.307L5.212 3.92A.913.913 0 0 0 3.92 5.211l6.853 6.852-1.292 1.292-7.389-7.39zm11.91 10.616H14l-4.665 4.666a.913.913 0 0 0-.259.771c.031.216.055.368.055.503a3.656 3.656 0 0 1-3.652 3.652 3.656 3.656 0 0 1-3.652-3.652 3.656 3.656 0 0 1 3.652-3.652c.118 0 .252.019.407.04.334.048.616.006.867-.245l8.577-8.577a.91.91 0 0 0 .214-.952 5.5 5.5 0 0 1 1.283-5.71 5.503 5.503 0 0 1 4.174-1.59l-2.883 2.881a.913.913 0 0 0-.25.825l.646 3.228a.913.913 0 0 0 .717.716l3.228.646a.912.912 0 0 0 .824-.25L26.165 7a5.5 5.5 0 0 1-1.59 4.173 5.5 5.5 0 0 1-5.71 1.283.913.913 0 0 0-.953.215l-3.91 3.91zm10.36 9.356l-5.365-3.207v-2.064a.913.913 0 0 0-.267-.646l-2.793-2.793 1.291-1.291 2.793 2.793a.913.913 0 0 0 .646.267h2.064l3.207 5.365-1.576 1.576z" fill="#FFF"/></svg>