<svg width="14" height="15" viewBox="0 0 14 15" xmlns="http://www.w3.org/2000/svg"><title>share-button</title><path d="M2.674 5.276c.603 0 1.13.227 1.507.603l5.352-3.09c-.075-.15-.075-.377-.075-.528C9.458.98 10.438 0 11.719 0 13 0 13.98.98 13.98 2.261c0 1.282-.98 2.262-2.261 2.262-.603 0-1.13-.227-1.508-.603L4.86 7.01c.075.15.075.377.075.528 0 .15 0 .377-.075.527l5.351 3.166a2.105 2.105 0 0 1 1.508-.603c1.206 0 2.186.98 2.186 2.186S12.925 15 11.719 15a2.188 2.188 0 0 1-2.186-2.186c0-.15 0-.301.075-.528L4.257 9.121a2.105 2.105 0 0 1-1.508.603c-1.281 0-2.261-.98-2.261-2.262 0-1.281.904-2.186 2.186-2.186z" fill="#B5B5B5"/></svg>