<svg width="15" height="15" viewBox="0 0 15 15" xmlns="http://www.w3.org/2000/svg"><title>Group 14</title><g fill="#006DAA"><path d="M11.735 10.147a.397.397 0 0 1 .794 0v3.97c0 .22-.177.398-.397.398H.882a.397.397 0 0 1-.397-.397V2.868c0-.22.178-.397.397-.397h3.97a.397.397 0 0 1 0 .794H1.28V13.72h10.456v-3.574z"/><path d="M4.472 11.09a.397.397 0 0 1-.562-.562L13.837.602a.397.397 0 1 1 .561.561L4.472 11.09z"/><path d="M13.72 1.28H7.5a.397.397 0 0 1 0-.795h6.618c.219 0 .397.178.397.397V7.5a.397.397 0 0 1-.794 0V1.28z"/></g></svg>