<svg width="64" height="40" xmlns="http://www.w3.org/2000/svg"><g fill="#006DAA"><path d="M58.785 16.958l-1.637-6.547a.99.99 0 0 0 .783-.968V8.387a4.162 4.162 0 0 0-4.156-4.156h-7.456V2.053A2.048 2.048 0 0 0 44.273.008H6.268a2.048 2.048 0 0 0-2.045 2.045V20a.99.99 0 0 0 1.98 0V2.053c0-.036.029-.066.065-.066h38.005c.037 0 .066.03.066.066V20a.99.99 0 0 0 1.98 0v-1.122h11.68a3.239 3.239 0 0 1 3.076 2.244h-3.078a.99.99 0 0 0-.99.99v2.11a3.105 3.105 0 0 0 3.102 3.102h1.121v4.355h-2.588a6.278 6.278 0 0 0-5.923-4.223 6.278 6.278 0 0 0-5.924 4.223h-.477v-7.456a.99.99 0 0 0-1.98 0v7.455H23.806a6.278 6.278 0 0 0-5.924-4.222 6.278 6.278 0 0 0-5.924 4.222h-5.69a.066.066 0 0 1-.066-.066v-2.177h4.289a.99.99 0 0 0 0-1.98H.99a.99.99 0 0 0 0 1.98h3.233v2.177c0 1.128.917 2.046 2.045 2.046h5.346l-.001.066a6.275 6.275 0 0 0 6.268 6.268 6.275 6.275 0 0 0 6.268-6.268l-.002-.066h22.305l-.002.066a6.275 6.275 0 0 0 6.269 6.268 6.275 6.275 0 0 0 6.268-6.268l-.002-.066h3.235a.99.99 0 0 0 .99-.99V22.111a5.22 5.22 0 0 0-4.425-5.153zM46.319 6.21h7.456c1.2 0 2.177.977 2.177 2.177v.066h-9.633V6.21zm0 10.689v-6.466h8.794l1.617 6.466H46.319zM17.88 38.013a4.294 4.294 0 0 1-4.289-4.289 4.294 4.294 0 0 1 4.289-4.289 4.294 4.294 0 0 1 4.289 4.29 4.294 4.294 0 0 1-4.29 4.288zm34.838 0a4.294 4.294 0 0 1-4.289-4.289 4.294 4.294 0 0 1 4.289-4.289 4.294 4.294 0 0 1 4.289 4.29 4.294 4.294 0 0 1-4.29 4.288zm8.511-12.669H60.11a1.123 1.123 0 0 1-1.122-1.121V23.1h2.243v2.243z"/><path d="M17.88 31.679a2.048 2.048 0 0 0-2.045 2.045c0 1.128.918 2.046 2.046 2.046a2.048 2.048 0 0 0 2.045-2.046 2.048 2.048 0 0 0-2.045-2.045zm34.839 0a2.048 2.048 0 0 0-2.046 2.045c0 1.128.918 2.046 2.046 2.046a2.048 2.048 0 0 0 2.045-2.046 2.048 2.048 0 0 0-2.045-2.045zm-11.613-4.223h-14.78a.99.99 0 0 0 0 1.98h14.78a.99.99 0 0 0 0-1.98zM15.77 23.233H3.1a.99.99 0 0 0 0 1.98h12.67a.99.99 0 0 0 0-1.98zM34.416 9.799a.99.99 0 0 0-1.4 0l-8.8 8.801-4.58-4.578a.99.99 0 1 0-1.4 1.4l5.28 5.278a.986.986 0 0 0 1.399 0l9.501-9.501a.99.99 0 0 0 0-1.4z"/></g></svg>