<svg width="32" height="32" xmlns="http://www.w3.org/2000/svg"><g fill="none" fill-rule="evenodd"><path d="M29.333 0H2.667A2.675 2.675 0 0 0 0 2.667v26.666C0 30.8 1.2 32 2.667 32h26.666C30.8 32 32 30.8 32 29.333V2.667C32 1.2 30.8 0 29.333 0z" fill="#2CA7E0"/><path d="M26 10.516c-.733.34-1.867.748-2.667.884.867-.544 1.667-1.768 2-2.72-.666.408-1.4.952-2.133 1.224l-.533-.544C21.933 8.544 21.2 8 20 8c-2.267 0-4 1.768-4 4.08 0 .272 0 .476.067.68H16c-4 0-6.667-.884-8.667-3.4-.333.612-.666 1.292-.666 2.04 0 1.428.866 2.652 2 3.4-.667 0-1.467-.34-2-.68 0 2.04 2.8 4.352 4.666 4.76-.666.68-3.066.068-3.333 0 .533 1.632 2.2 2.652 4 2.72-1.4 1.088-3.067 1.7-5 1.7-.333 0-.667 0-1-.068C7.8 24.388 10.333 25 12.667 25 20.2 25 24 18.948 24 13.44v-.68c.8-.612 1.467-1.428 2-2.244z" fill="#FFF"/></g></svg>