<svg width="32" height="32" xmlns="http://www.w3.org/2000/svg"><g fill="none" fill-rule="evenodd"><path d="M29.333 0H2.667A2.675 2.675 0 0 0 0 2.667v26.666C0 30.8 1.2 32 2.667 32h26.666C30.8 32 32 30.8 32 29.333V2.667C32 1.2 30.8 0 29.333 0z" fill="#54769B"/><path d="M16.67 22c.665 0 .665-.933.665-1.333 0-.667.666-1.334 1.331-1.334.666 0 1.797 1.134 2.662 2 .666.667.666.667 1.331.667h1.997s1.331-.067 1.331-1.333c0-.4-.466-1.134-1.996-2.667-1.332-1.333-1.997-.667 0-3.333 1.198-1.667 2.13-3.134 1.996-3.534-.133-.4-3.527-1.066-3.993-.466-1.331 2-1.597 2.466-1.997 3.333-.665 1.333-.732 2-1.33 2-.6 0-.666-1.267-.666-2 0-2.2.332-3.733-.666-4h-1.997c-1.065 0-1.996.667-1.996.667s-.8.666-.666.666c.2 0 1.331-.266 1.331.667v1.333s0 2.667-.665 2.667c-.666 0-1.997-2.667-3.328-4.667-.533-.8-.666-.666-1.331-.666H6.686c-.666 0-.732.4-.666.666 1.331 3.334 2.263 5.4 4.792 8.067 2.33 2.4 3.86 2.533 5.192 2.6h.665z" fill="#FFF"/></g></svg>