<svg width="15" height="15" xmlns="http://www.w3.org/2000/svg"><g fill="#979797"><path d="M14.298 7.552V5.447c0-.714-.554-1.294-1.253-1.35L11.09.68A1.345 1.345 0 0 0 9.24.183l-6.7 3.902H1.362C.61 4.085 0 4.696 0 5.447v8.17c0 .751.61 1.362 1.362 1.362h11.574c.751 0 1.362-.61 1.362-1.362v-2.105a1.02 1.02 0 0 0 .68-.959V8.511a1.02 1.02 0 0 0-.68-.959zm-2.044-3.467H9.286l2.226-1.295.742 1.295zM11.174 2.2l-3.24 1.886H6.588l4.248-2.473.337.587zM9.584.772a.668.668 0 0 1 .915.248v.001L5.236 4.085H3.892L9.584.772zm4.033 12.845a.68.68 0 0 1-.68.681H1.361a.682.682 0 0 1-.681-.68V5.446a.68.68 0 0 1 .68-.68h11.575a.68.68 0 0 1 .681.68V7.49h-2.042a2.045 2.045 0 0 0-2.043 2.042c0 1.126.916 2.043 2.043 2.043h2.042v2.042zm.681-3.064a.34.34 0 0 1-.34.34h-2.383a1.362 1.362 0 0 1 0-2.723h2.383a.34.34 0 0 1 .34.34v2.043z"/><path d="M11.575 8.851a.682.682 0 0 0 0 1.362.682.682 0 0 0 0-1.362z"/></g></svg>