<svg width="39" height="40" xmlns="http://www.w3.org/2000/svg"><g fill="#006DAA"><path d="M37.468 23.43h-.599v-5.393a2.53 2.53 0 0 0-1.073-2.068v-.734a1.933 1.933 0 0 0-1.932-1.932h-.447l1.71-2.509a1.848 1.848 0 0 0-.485-2.565L23.038.321a1.833 1.833 0 0 0-1.383-.288 1.834 1.834 0 0 0-1.182.774L10.457 15.504H7.67l.672-6.807a.202.202 0 0 1 .127-.17 4.333 4.333 0 0 0 2.114-1.717.2.2 0 0 1 .19-.089l4.371.432a.57.57 0 0 0 .112-1.134l-4.371-.432a1.334 1.334 0 0 0-1.264.611 3.186 3.186 0 0 1-1.554 1.263c-.48.18-.809.611-.86 1.124l-.683 6.92h-.726L6.86 4.737a.706.706 0 0 1 .772-.633l8.834.872a.57.57 0 0 0 .112-1.134L7.745 2.97a1.848 1.848 0 0 0-2.018 1.656l-.858 8.677H3.41a1.933 1.933 0 0 0-1.93 1.932v.5A2.536 2.536 0 0 0 0 18.037v19.43A2.536 2.536 0 0 0 2.534 40h31.802a2.536 2.536 0 0 0 2.533-2.533v-5.392h.599c.707 0 1.281-.575 1.281-1.281V24.71c0-.707-.574-1.282-1.281-1.282zm-3.604-8.987c.437 0 .792.355.792.792v.29a2.54 2.54 0 0 0-.32-.02h-2.418l.723-1.062h1.223zM21.414 1.45A.702.702 0 0 1 22 1.14c.14 0 .277.042.396.123L34 9.171c.321.22.405.66.186.981l-3.648 5.352h-.875l1.788-2.624c.29-.425.314-.967.062-1.413a3.185 3.185 0 0 1-.381-1.966 1.333 1.333 0 0 0-.577-1.28l-6.015-4.1a1.333 1.333 0 0 0-1.402-.068 3.186 3.186 0 0 1-1.97.364 1.35 1.35 0 0 0-1.292.575l-7.164 10.512h-.876L21.415 1.45zm.252 9.679a4.703 4.703 0 0 0-4.686 4.376h-2.889l6.726-9.87a.203.203 0 0 1 .193-.088 4.333 4.333 0 0 0 2.679-.495.201.201 0 0 1 .209.013l6.015 4.1a.202.202 0 0 1 .088.189c-.12.918.065 1.867.52 2.674a.202.202 0 0 1-.012.211l-2.225 3.266H26.35a4.703 4.703 0 0 0-4.685-4.376zm3.542 4.376h-7.085a3.562 3.562 0 0 1 3.543-3.236 3.562 3.562 0 0 1 3.542 3.236zm-22.59-.27c0-.436.355-.79.792-.79h1.347l-.105 1.06H2.618v-.27zm-1.477 2.803c0-.768.625-1.393 1.393-1.393h31.802c.768 0 1.393.625 1.393 1.393v1.582H1.141v-1.582zm34.588 19.43c0 .768-.625 1.393-1.393 1.393H2.534a1.395 1.395 0 0 1-1.393-1.393v-1.582h3.073a.57.57 0 1 0 0-1.14H1.141V20.76h34.588v2.67H30.31a4.328 4.328 0 0 0-3.888 2.436l-.008.015c-.006.012-.01.025-.017.037a4.298 4.298 0 0 0-.215.551v.002a4.328 4.328 0 0 0 4.129 5.605h5.418v2.67H7.864a.57.57 0 1 0 0 1.14h27.865v1.582zm1.88-6.673a.142.142 0 0 1-.141.141H30.31a3.186 3.186 0 0 1-2.868-4.562 3.186 3.186 0 0 1 2.869-1.804h7.157c.078 0 .141.064.141.142v6.083z"/><path d="M30.444 25.44a2.315 2.315 0 0 0-2.313 2.312 2.315 2.315 0 0 0 2.313 2.313 2.315 2.315 0 0 0 2.312-2.313 2.315 2.315 0 0 0-2.312-2.312zm0 3.485a1.174 1.174 0 0 1-1.173-1.173 1.174 1.174 0 0 1 2.345 0c0 .647-.526 1.173-1.172 1.173z"/></g></svg>