<?xml version="1.0" encoding="UTF-8"?>
<svg width="32px" height="27px" viewBox="0 0 32 27" version="1.1" xmlns="http://www.w3.org/2000/svg" xmlns:xlink="http://www.w3.org/1999/xlink">
    <!-- Generator: Sketch 46.2 (44496) - http://www.bohemiancoding.com/sketch -->
    <title>Shape</title>
    <desc>Created with Sketch.</desc>
    <defs></defs>
    <g id="Index+" stroke="none" stroke-width="1" fill="none" fill-rule="evenodd">
        <g id="WILD_FISH_index_1440" transform="translate(-542.000000, -1923.000000)" fill-rule="nonzero" fill="#3A6390">
            <g id="Catalog2" transform="translate(40.000000, 1863.000000)">
                <g id="Group-58" transform="translate(0.000000, 40.000000)">
                    <g id="Group-6" transform="translate(480.000000, 0.000000)">
                        <path d="M53.9769375,37.278 C53.8306875,35.0881875 53.001125,33.06625 51.6411875,31.5846875 C50.273875,30.0950625 48.5325,29.3155625 46.7166875,29.3755625 L46.6783125,29.13725 C48.3474375,28.6658125 49.9524375,27.89075 51.438,26.6191875 L50.0983125,25.054 C48.9673125,26.0220625 47.7395625,26.6505625 46.43875,27.058125 C46.0198125,24.3693125 44.30325,22.126875 41.66825,20.914625 C39.9971875,20.145875 38.1199375,19.8771875 36.2395,20.1375625 C34.230625,20.4156875 32.3095625,21.2989375 30.684125,22.6915625 L29.770625,23.47425 L30.6845625,24.2564375 C33.327,26.517875 35.83025,26.5723125 38.0388125,26.62025 C39.7841875,26.6581875 41.352375,26.6930625 43.01925,27.687375 C41.568125,27.810375 40.0605625,27.803625 38.52225,27.7966875 C35.376625,27.783 32.123875,27.768125 29.2884375,29.0018125 C26.0525625,30.4096875 23.817125,33.2650625 22.454375,37.7308125 L22,39.2198125 L23.548125,39.055875 C27.2465,38.66425 29.427875,36.0471875 31.3523125,33.7381875 C32.9710625,31.7960625 34.3706875,30.116875 36.3734375,29.8614375 C36.6478125,29.857125 36.92475,29.8554375 37.203,29.854625 C36.219,30.0598125 35.25775,30.511625 34.373,31.1975 C32.7835,32.429625 31.62625,34.2835625 31.1143125,36.417625 C30.60225,38.55175 30.7925625,40.7289375 31.6500625,42.548125 C32.5439375,44.4444375 34.0491875,45.73175 35.8885,46.1729375 C36.339875,46.28125 36.796125,46.334 37.251125,46.334 C39.138375,46.334 41.00575,45.42625 42.4339375,43.812 C42.45825,43.83925 42.4824375,43.86675 42.5070625,43.8935625 C43.82575,45.3301875 45.492375,46.1063125 47.237625,46.10625 C47.368625,46.10625 47.500375,46.101875 47.6320625,46.0930625 C49.5194375,45.9668125 51.2195625,44.9505 52.419125,43.2313125 C53.570125,41.5820625 54.1231875,39.46775 53.9769375,37.278 Z M29.7696875,32.419125 C28.3300625,34.146375 26.9530625,35.7985 25.0436875,36.5780625 C26.2163125,33.700125 27.852625,31.873375 30.110375,30.891 C30.57325,30.6895625 31.0526875,30.526875 31.5466875,30.3955625 C30.9251875,31.032875 30.34425,31.72975 29.7696875,32.419125 Z M38.0835625,24.5605625 C36.318375,24.522125 34.7523125,24.488125 33.08425,23.467625 C34.14975,22.78525 35.3186875,22.344875 36.522125,22.17825 C38.012375,21.9718125 39.4940625,22.1821875 40.8071875,22.7863125 C42.2576875,23.453625 43.3394375,24.5289375 43.9405,25.8426875 C41.845875,24.64225 39.876625,24.5995 38.0835625,24.5605625 Z M40.1713125,38.2004375 C40.2634375,39.578625 40.626375,40.890125 41.221625,42.0425 C39.926875,43.7506875 38.0755,44.5790625 36.369125,44.1695 C35.14975,43.877 34.1356875,42.98925 33.513625,41.6696875 C32.85525,40.2729375 32.714625,38.578375 33.117625,36.89825 C33.9295,33.5136875 36.709125,31.2685 39.314,31.8933125 C40.041,32.06775 40.6998125,32.457 41.2465625,33.0293125 C40.4265,34.540375 40.04725,36.3431875 40.1713125,38.2004375 Z M40.4760625,30.0993125 L40.56,29.854375 C41.935125,29.8371875 43.3110625,29.773 44.6606875,29.5675625 L44.6986875,29.8033125 C43.87825,30.135875 43.1235,30.655 42.4681875,31.341125 C41.87975,30.791875 41.2085,30.372875 40.4760625,30.0993125 Z M47.494875,44.0374375 C47.410375,44.043125 47.3264375,44.045875 47.2425625,44.045875 C44.6750625,44.04575 42.4516875,41.4260625 42.2270625,38.0630625 C42.1118125,36.339125 42.535,34.69225 43.418625,33.425875 C44.253375,32.2294375 45.4021875,31.5245 46.6533125,31.441 C46.736875,31.435375 46.82025,31.432625 46.903625,31.432625 C48.067875,31.432625 49.2028125,31.975 50.123375,32.9779375 C51.1675625,34.1155625 51.8060625,35.6915 51.9211875,37.4154375 C52.1533125,40.888 50.167625,43.85875 47.494875,44.0374375 Z" id="Shape"></path>
                    </g>
                </g>
            </g>
        </g>
    </g>
</svg>