<?xml version="1.0" encoding="UTF-8"?>
<svg width="30px" height="19px" viewBox="0 0 30 19" version="1.1" xmlns="http://www.w3.org/2000/svg" xmlns:xlink="http://www.w3.org/1999/xlink">
    <!-- Generator: Sketch 46.2 (44496) - http://www.bohemiancoding.com/sketch -->
    <title>Shape</title>
    <desc>Created with Sketch.</desc>
    <defs></defs>
    <g id="Index+" stroke="none" stroke-width="1" fill="none" fill-rule="evenodd">
        <g id="WILD_FISH_index_1440" transform="translate(-459.000000, -1939.000000)" fill-rule="nonzero" fill="#3A6390">
            <g id="Catalog2" transform="translate(40.000000, 1863.000000)">
                <g id="Group-58" transform="translate(0.000000, 40.000000)">
                    <g id="Group-55" transform="translate(0.000000, 10.000000)">
                        <g id="Group-54" transform="translate(24.000000, 26.000000)">
                            <g id="Group-21">
                                <g id="Group-5" transform="translate(377.000000, 0.000000)">
                                    <path d="M47.5223265,12.3146199 C47.0268879,10.5290058 46.2163031,8.85222222 45.7669464,7.99403509 C46.0808645,6.83725146 44.8885253,5.62906433 44.4749581,5.21040936 C43.6655429,4.39111111 42.5458353,3.53356725 41.479578,2.91631579 C40.6546072,2.43912281 39.6939639,2.00865497 38.7924435,1.70900585 C38.4158937,1.20327485 37.6979405,0.796725146 36.6436715,0.49497076 C35.5609815,0.185087719 34.187882,0 32.9707475,0 C31.7536715,0 30.3805721,0.18497076 29.297882,0.49497076 C28.243613,0.796725146 27.5256598,1.20333333 27.1490516,1.70912281 C26.2477066,2.00865497 25.2871803,2.43912281 24.4616247,2.91654971 C23.3957183,3.53362573 22.2761277,4.39116959 21.466654,5.21046784 C21.0529113,5.62929825 19.8596949,6.83818713 20.1744902,7.99461988 C19.7251335,8.85304094 18.9147242,10.5294737 18.419344,12.3146784 C17.7127943,14.8611696 17.8997534,16.7347953 18.975192,17.8839181 C19.5867125,18.5369591 20.3512739,18.8779532 21.1976481,18.8779532 C21.2672388,18.8779532 21.3374727,18.875614 21.408116,18.8710526 C23.4548411,18.7369006 25.4242563,16.6727485 26.4560107,15.3940936 C26.6453674,15.4472515 26.8467709,15.4754386 27.0624435,15.4754386 C27.7906891,15.4754386 28.6729698,15.1710526 29.7357768,14.555731 C29.7825019,14.528655 29.8287592,14.501462 29.8743148,14.474152 C30.5058353,15.0007602 31.5220926,15.2584211 32.9706891,15.2584211 C34.4199288,15.2584211 35.4364201,15.0005848 36.0674142,14.4742105 C36.1131452,14.5015789 36.1595195,14.5288889 36.2064785,14.5560234 C37.2696949,15.1711111 38.1519756,15.4753216 38.8798119,15.4753216 C39.0952505,15.4753216 39.2964785,15.447193 39.4854844,15.3940351 C40.5170633,16.6727485 42.4863616,18.7367836 44.5331452,18.8709942 C44.6039639,18.8756725 44.6740809,18.8779532 44.74373,18.8779532 C45.5899288,18.8779532 46.3547242,18.5368421 46.9663031,17.8838012 C48.0418587,16.7348538 48.2289347,14.8611111 47.5223265,12.3146199 Z M21.2805136,16.9223392 C20.9344902,16.9450292 20.663613,16.829883 20.400923,16.5492982 C19.8389932,15.9488304 19.8034961,14.6304094 20.3012739,12.8367836 C20.6012154,11.755614 21.032385,10.7126316 21.408116,9.90520468 C21.9501627,10.6221637 22.576537,11.4115789 23.0546657,11.9971345 C23.8696364,12.9952047 24.4742563,13.6905263 24.9295195,14.1783041 C23.8020926,15.578538 22.3560692,16.8518129 21.2805136,16.9223392 Z M28.7571803,12.8656725 C27.7913323,13.4249708 27.2385838,13.5291228 27.0434376,13.522924 C26.7730867,13.3051462 25.9655429,12.4867251 24.412385,10.5716374 C23.2384084,9.12409357 22.3826774,7.96327485 22.1058353,7.53175439 C22.3471218,6.97239766 23.762268,5.57777778 25.4396949,4.60672515 C25.9154259,4.33163743 26.4567125,4.06935673 26.9959522,3.84865497 C27.2313323,5.2174269 27.6763616,7.28795322 27.9490516,8.49497076 C28.4187008,10.574152 28.7560692,11.881462 29.0053089,12.7166082 C28.9253674,12.7663743 28.8427943,12.8160819 28.7571803,12.8656725 Z M34.7871218,12.9979532 C34.6171803,13.1098246 34.0884084,13.3054386 32.970806,13.3054386 C31.8543733,13.3054386 31.3257183,13.1101754 31.1546657,12.9974854 C30.6523265,11.8716959 28.9671803,4.30584795 28.8039054,2.79397661 C29.2860107,2.4371345 31.1204551,1.95298246 32.970806,1.95298246 C34.8208645,1.95298246 36.6548996,2.43701754 37.1374727,2.79380117 C36.9726189,4.3148538 35.2889932,11.8735088 34.7871218,12.9979532 Z M38.8982914,13.5229825 C38.7026189,13.5292398 38.1506306,13.4245029 37.1848996,12.865848 C37.0992856,12.8162573 37.016654,12.7664912 36.936537,12.7167251 C37.1857768,11.8815789 37.5231452,10.574152 37.9927943,8.49508772 C38.2654259,7.2880117 38.7104551,5.21748538 38.9457768,3.84871345 C39.4850166,4.06947368 40.0261861,4.33163743 40.5016247,4.60666667 C42.179461,5.57795322 43.5947242,6.97274854 43.8359522,7.5319883 C43.5599873,7.96204678 42.7041394,9.12333333 41.5294025,10.5717544 C39.9761277,12.4869006 39.1685838,13.3052632 38.8982914,13.5229825 Z M45.5408645,16.5490643 C45.2779405,16.8298246 45.0071803,16.9450877 44.6610984,16.9222222 C43.5854844,16.8516374 42.1394025,15.5784211 41.0121511,14.1781287 C41.4674142,13.6904678 42.0720341,12.9950292 42.8870049,11.997076 C43.365192,11.4115205 43.9916247,10.6219298 44.5336715,9.90508772 C44.909461,10.7125146 45.3406306,11.7555556 45.6405721,12.8367251 C46.1382329,14.6302924 46.1027943,15.9487135 45.5408645,16.5490643 Z" id="Shape"></path>
                                </g>
                            </g>
                        </g>
                    </g>
                </g>
            </g>
        </g>
    </g>
</svg>