<?xml version="1.0" encoding="UTF-8"?>
<svg width="32px" height="24px" viewBox="0 0 32 24" version="1.1" xmlns="http://www.w3.org/2000/svg" xmlns:xlink="http://www.w3.org/1999/xlink">
    <!-- Generator: Sketch 46.2 (44496) - http://www.bohemiancoding.com/sketch -->
    <title>cheese</title>
    <desc>Created with Sketch.</desc>
    <defs></defs>
    <g id="Index+" stroke="none" stroke-width="1" fill="none" fill-rule="evenodd">
        <g id="WILD_FISH_index_1440" transform="translate(-362.000000, -1935.000000)" fill-rule="nonzero" fill="#3A6390">
            <g id="Catalog2" transform="translate(40.000000, 1863.000000)">
                <g id="Group-58" transform="translate(0.000000, 40.000000)">
                    <g id="cheese" transform="translate(322.000000, 32.000000)">
                        <path d="M31.966875,10.6289375 C30.75825,5.9431875 27.79925,3.3333125 25.5296875,1.9690625 C23.0821875,0.497875 20.914625,0.1295 20.8235625,0.1144375 L20.4914375,0.059875 L0,10.242875 L0,23.1900625 L32,23.1900625 L32,10.757125 L31.966875,10.6289375 Z M20.7954375,2.2393125 C21.4085,2.38375 22.854875,2.796125 24.4545625,3.7578125 C26.8765,5.2136875 28.5819375,7.25775 29.5389375,9.8461875 L5.4880625,9.8461875 L20.7954375,2.2393125 Z M21.21925,11.9330625 C20.84525,12.631625 20.1084375,13.1081875 19.2621875,13.1081875 C18.415875,13.1081875 17.6789375,12.63175 17.305,11.9330625 L21.21925,11.9330625 Z M21.9195625,21.103125 C22.25025,20.4644375 22.9170625,20.0266875 23.6845625,20.0266875 C24.452,20.0266875 25.1188125,20.4644375 25.4495,21.103125 L21.9195625,21.103125 Z M29.9130625,21.103125 L27.654375,21.103125 C27.239625,19.293875 25.6178125,17.9396875 23.684625,17.9396875 C21.7513125,17.9396875 20.1295,19.29375 19.7148125,21.103125 L2.0869375,21.103125 L2.0869375,11.9330625 L15.0850625,11.9330625 C15.55275,13.8045 17.247875,15.195125 19.2621875,15.195125 C21.2764375,15.195125 22.971375,13.8045 23.4390625,11.9330625 L29.913,11.9330625 L29.913,21.103125 L29.9130625,21.103125 Z" id="Shape"></path>
                        <path d="M7.3234375,13.1080625 C5.4204375,13.1080625 3.872125,14.6563125 3.872125,16.5593125 C3.872125,18.4623125 5.420375,20.0105625 7.3234375,20.0105625 C9.2264375,20.0105625 10.7746875,18.4623125 10.7746875,16.5593125 C10.7746875,14.6563125 9.2264375,13.1080625 7.3234375,13.1080625 Z M7.3234375,17.9236875 C6.5711875,17.9236875 5.9590625,17.311625 5.9590625,16.559375 C5.9590625,15.807125 6.571125,15.1950625 7.3234375,15.1950625 C8.0756875,15.1950625 8.68775,15.807125 8.68775,16.559375 C8.68775,17.3116875 8.0756875,17.9236875 7.3234375,17.9236875 Z" id="Shape"></path>
                    </g>
                </g>
            </g>
        </g>
    </g>
</svg>