<?xml version="1.0" encoding="UTF-8"?>
<svg width="35px" height="24px" viewBox="0 0 35 24" version="1.1" xmlns="http://www.w3.org/2000/svg" xmlns:xlink="http://www.w3.org/1999/xlink">
    <!-- Generator: Sketch 46.2 (44496) - http://www.bohemiancoding.com/sketch -->
    <title>chicken</title>
    <desc>Created with Sketch.</desc>
    <defs></defs>
    <g id="Index+" stroke="none" stroke-width="1" fill="none" fill-rule="evenodd">
        <g id="WILD_FISH_index_1440" transform="translate(-830.000000, -1935.000000)" fill-rule="nonzero" fill="#3A6390">
            <g id="Catalog2" transform="translate(40.000000, 1863.000000)">
                <g id="Group-58" transform="translate(0.000000, 40.000000)">
                    <g id="chicken" transform="translate(790.000000, 32.000000)">
                        <path d="M31.8279883,10.759082 C31.8279883,10.1188281 31.6735645,9.50243164 31.3831738,8.95179688 L35,5.33503906 L33.3703809,3.70541992 L29.7527344,7.32306641 C29.1485059,7.00587891 28.4775586,6.85958984 27.8114648,6.88255859 C26.9383789,6.12417969 25.9836035,5.46936523 24.9601953,4.92392578 L28.2295508,1.65450195 L26.5999316,0.0248828125 L22.692168,3.9327832 C21.4390723,3.49637695 20.1111914,3.20352539 18.7273926,3.06291016 C13.3115527,2.5134375 7.93467773,5.43176758 4.70859375,8.34681641 C1.71623047,11.0506348 0,14.1608496 0,16.8797754 C0,19.4484473 1.05088867,21.3076172 3.12347656,22.4057422 C4.69669922,23.239248 6.84414063,23.6273926 9.88168945,23.6273926 L24.7139648,23.6273926 C31.1905371,23.6273926 32.55,19.9655859 32.55,16.8937207 C32.55,15.2442773 32.2280273,13.6308594 31.5944727,12.0896289 C31.7477344,11.6689453 31.8279883,11.2202344 31.8279883,10.759082 Z M29.0615527,9.64393555 C29.3593945,9.94177734 29.5233887,10.3377832 29.5233887,10.759082 C29.5233887,11.1803125 29.3593262,11.5763867 29.0614844,11.8742285 C27.4793066,13.4564062 27.114541,14.5456445 26.8215527,15.4209863 C26.6259766,16.0051172 26.5079883,16.3577148 26.0192871,16.846416 C24.8722852,17.9933496 23.0061426,17.9934863 21.8590723,16.846416 C20.7121387,15.6994824 20.7121387,13.8332031 21.8590723,12.6862695 C22.3477051,12.1975684 22.7003711,12.0795117 23.2845703,11.8839355 C24.1598438,11.5908789 25.249082,11.2261133 26.8313281,9.64400391 C27.4461523,9.02911133 28.4466602,9.02911133 29.0615527,9.64393555 Z M29.0619629,20.1510449 C28.1777344,20.9285645 26.7148438,21.322793 24.7138965,21.322793 L9.88168945,21.322793 C7.27125,21.322793 5.41351562,21.0108691 4.20239258,20.3693164 C2.88989258,19.6739648 2.30459961,18.5977832 2.30459961,16.8797754 C2.30459961,14.8417773 3.78095703,12.2911523 6.25378906,10.0566211 C7.95518555,8.51921875 9.96604492,7.26085938 12.0687793,6.41785156 C14.3012598,5.52282227 16.5230762,5.15532227 18.4945605,5.35561523 C21.0662402,5.61681641 23.4061133,6.47958008 25.3512793,7.87240234 C25.3004199,7.91820313 25.2504492,7.96537109 25.2015723,8.01431641 C24.002959,9.21292969 23.298584,9.44876953 22.5527832,9.69848633 C21.8726074,9.92625977 21.1016504,10.1843848 20.2293848,11.056582 C18.1838672,13.1020996 18.1838672,16.4304492 20.2293848,18.4759668 C21.2202539,19.4669043 22.5377441,20.0126172 23.9391113,20.0126172 C25.3404102,20.0126172 26.6579688,19.4669043 27.6487695,18.4759668 C28.5209668,17.6037695 28.7790918,16.8327441 29.0068652,16.1525684 C29.1906152,15.6035742 29.3674609,15.0767969 29.9258203,14.3589551 C30.137666,15.1877441 30.2452637,16.0352637 30.2452637,16.8937891 C30.245332,18.3853906 29.8582129,19.4508398 29.0619629,20.1510449 Z" id="Shape"></path>
                        <path d="M11.3644727,9.32182617 C10.1182129,9.99885742 8.97018555,10.9285449 8.13175781,11.9393066 L9.90561523,13.4106055 C11.2861328,11.7461914 13.6746777,10.4730664 15.2255469,10.5693164 L15.370332,8.26929688 C13.839082,8.1728418 12.3463184,8.78848633 11.3644727,9.32182617 Z" id="Shape"></path>
                    </g>
                </g>
            </g>
        </g>
    </g>
</svg>