<?xml version="1.0" encoding="UTF-8"?>
<svg width="30px" height="30px" viewBox="0 0 30 30" version="1.1" xmlns="http://www.w3.org/2000/svg" xmlns:xlink="http://www.w3.org/1999/xlink">
    <!-- Generator: Sketch 46.2 (44496) - http://www.bohemiancoding.com/sketch -->
    <title>fish</title>
    <desc>Created with Sketch.</desc>
    <defs></defs>
    <g id="Index+" stroke="none" stroke-width="1" fill="none" fill-rule="evenodd">
        <g id="WILD_FISH_index_1440" transform="translate(-635.000000, -1932.000000)" fill-rule="nonzero" fill="#3A6390">
            <g id="Catalog2" transform="translate(40.000000, 1863.000000)">
                <g id="Group-58" transform="translate(0.000000, 40.000000)">
                    <g id="Group-55" transform="translate(0.000000, 10.000000)">
                        <g id="fish" transform="translate(595.000000, 19.000000)">
                            <circle id="Oval" cx="22.4077148" cy="3.50427734" r="1"></circle>
                            <path d="M29.7629718,2.83043547 L29.5938117,2.08986906 L27.9523663,2.04768156 L27.9101788,0.40623625 L27.1696124,0.237076094 C25.3730695,-0.173255937 22.8384796,-0.0455801562 20.3895538,0.578501875 C18.5654132,1.04338469 16.0553742,1.97338469 13.7650031,3.81615813 C11.5193976,3.87404875 8.18676087,5.38260344 6.40621399,7.16320891 C5.92726868,7.64215422 5.69330384,8.2545175 5.72957337,8.93426359 C5.77679993,9.81984953 6.29289368,10.8173495 7.26344056,11.8990488 C7.45404603,12.1115097 7.64306946,12.3055136 7.81685853,12.4757284 C7.22652649,14.3107675 7.01676087,16.0547519 7.07875306,17.5637167 C4.43535462,17.3716464 1.51187806,18.3293613 0.477756963,19.5026425 C0.0231866508,20.0183261 -0.11527038,20.6303378 0.0980108695,21.181705 C0.499905401,22.2205136 1.60498353,22.4188534 2.67379212,22.6106894 C3.77019837,22.8075058 5.0130304,23.0305136 5.99119446,24.0087363 C6.96935853,24.9869589 7.19242493,26.2296738 7.38924134,27.3261386 C7.58101868,28.3948886 7.77941712,29.5000253 8.81816712,29.9019198 C8.98797181,29.9676034 9.16357728,29.9999472 9.34041321,29.9999472 C9.73750306,29.9999472 10.1404523,29.8367636 10.4972882,29.5221738 C11.6705695,28.4879941 12.6283429,25.5648105 12.436214,22.9211777 C12.6047882,22.9280917 12.7762921,22.9316659 12.9505499,22.9316659 C14.3360577,22.9316073 15.8944171,22.7073105 17.5245538,22.1828964 C17.7013312,22.364537 17.905589,22.5642831 18.1299445,22.7655527 C19.2115851,23.7360995 20.2091437,24.2521933 21.0947296,24.2994198 C21.1404327,24.3018808 21.1858429,24.3030527 21.2309015,24.3030527 C21.8561554,24.3030527 22.4190656,24.0693808 22.8657843,23.622662 C24.6640851,21.8244198 26.1850031,18.4432089 26.2142999,16.1974863 C28.0372101,13.9172519 28.9591242,11.424498 29.4214288,9.61037688 C30.0455695,7.16156828 30.1732452,4.62697844 29.7629718,2.83043547 Z M7.68320618,8.83025969 C7.67652649,8.70609953 7.70447571,8.63186125 7.78961243,8.54666594 C8.61033509,7.72606047 9.89594056,6.94688078 11.1736359,6.42393156 C10.0773468,7.75623625 9.23488587,9.12088469 8.60717103,10.4655527 C8.10953431,9.88606047 7.70652649,9.26731047 7.68320618,8.83025969 Z M21.4823859,22.2394394 C21.3973077,22.3245175 21.3229523,22.3521152 21.1994367,22.3459042 C20.7567609,22.3227597 20.1227765,21.9043417 19.5329132,21.393287 C20.8985577,20.7560214 22.2847687,19.8975058 23.6368195,18.7763144 C23.1139874,20.0798495 22.3200421,21.4017831 21.4823859,22.2394394 Z M27.5256867,9.12727141 C27.3448077,9.8370175 27.0854132,10.6627792 26.7156281,11.5360019 C24.6221906,11.2781308 22.6735382,10.3309628 21.1713117,8.82861906 C20.1066632,7.76397063 19.330882,6.50432219 18.8654718,5.08465422 L17.0064679,5.69408781 C17.568382,7.40818938 18.5041827,8.92822844 19.7879718,10.2120175 C21.4352179,11.8592636 23.5277179,12.9526816 25.7917804,13.3716855 C25.249671,14.2876816 24.5717999,15.204498 23.7245343,16.051705 C21.8263898,17.9497909 19.594671,19.3846347 17.2705499,20.2011386 C15.2588507,20.9078378 13.1866827,21.1419198 11.4356085,20.8600253 L9.97410462,20.6248886 L10.3307648,22.0615488 C10.5994757,23.1438925 10.5514874,24.5449863 10.1991632,25.9053573 C9.97170228,26.7838534 9.68582337,27.3843808 9.46381165,27.7312558 C9.40808899,27.5006894 9.35717103,27.2164511 9.31480774,26.9804355 C9.09191712,25.7384238 8.78658509,24.03733 7.37453431,22.6252792 C5.96248353,21.2132284 4.26138978,20.9078964 3.01937806,20.6850058 C2.78336243,20.6426425 2.49918274,20.5916073 2.26855774,20.5360019 C2.61543274,20.3139902 3.21596009,20.0281113 4.09445618,19.8006503 C5.45482728,19.4482675 6.85586243,19.4002792 7.93826478,19.6690488 L9.37498353,20.0257089 L9.13984681,18.564205 C8.85806946,16.8131894 9.0920929,14.7409628 9.79873353,12.7292636 C10.6151788,10.4051425 12.0500226,8.17342375 13.9481671,6.27527922 C16.2069562,4.01649016 18.9604523,2.96145109 20.8727179,2.47400969 C22.9501007,1.94455656 24.7646906,1.88238859 25.994632,2.02190031 L26.0443195,3.95531828 L27.9777374,4.00500578 C28.1173077,5.23541594 28.0550812,7.04994719 27.5256867,9.12727141 Z" id="Shape"></path>
                        </g>
                    </g>
                </g>
            </g>
        </g>
    </g>
</svg>