<?xml version="1.0" encoding="UTF-8"?>
<svg width="25px" height="30px" viewBox="0 0 25 30" version="1.1" xmlns="http://www.w3.org/2000/svg" xmlns:xlink="http://www.w3.org/1999/xlink">
    <!-- Generator: Sketch 46.2 (44496) - http://www.bohemiancoding.com/sketch -->
    <title>peach</title>
    <desc>Created with Sketch.</desc>
    <defs></defs>
    <g id="Index+" stroke="none" stroke-width="1" fill="none" fill-rule="evenodd">
        <g id="WILD_FISH_index_1440" transform="translate(-179.000000, -1932.000000)" fill-rule="nonzero" fill="#3A6390">
            <g id="Catalog2" transform="translate(40.000000, 1863.000000)">
                <g id="Group-58" transform="translate(0.000000, 40.000000)">
                    <g id="peach" transform="translate(139.000000, 29.000000)">
                        <path d="M7.69148438,11.8992773 C6.59478516,12.4477148 5.81308594,13.4690039 5.35054688,14.2293164 C4.76449219,15.1924219 4.34683594,16.2901758 4.17433594,17.3202539 L6.07998047,17.6392969 C6.35947266,15.9699023 7.47005859,14.1701953 8.555625,13.6274414 L7.69148438,11.8992773 Z" id="Shape"></path>
                        <path d="M22.1016211,11.0694727 C20.8654688,9.58107422 19.3388672,8.55738281 17.6690039,8.07005859 C18.175957,7.61666016 18.6195117,7.07226563 18.9929297,6.43851563 C19.9963477,4.73572266 20.2678711,2.82105469 20.4138281,1.79244141 C20.43,1.67841797 20.4444141,1.57640625 20.458125,1.48816406 L20.6899219,0 L19.2406055,0.409980469 C19.1547656,0.434238281 19.0551562,0.460898437 18.9440625,0.490722656 C17.9406445,0.759902344 16.0728516,1.26087891 14.5038867,2.46287109 C13.5708398,3.17759766 12.8842383,4.04132813 12.4530469,5.02945312 C11.2142578,3.29455078 9.6965625,2.65640625 9.60146484,2.61779297 L8.87425781,4.40789062 L8.86769531,4.40519531 C8.96226563,4.44527344 11.0071875,5.34398437 11.8074609,8.09490234 C11.0468555,7.86416016 10.2570703,7.74433594 9.45292969,7.74433594 C6.90621094,7.74433594 4.52291016,8.92523437 2.74201172,11.0694727 C1.00423828,13.1617969 0.0472265625,15.9329297 0.0472265625,18.8721094 C0.0472265625,21.8112891 1.00423828,24.5824219 2.74201172,26.6747461 C4.52291016,28.8189844 6.90621094,29.9998828 9.45292969,29.9998828 C10.4761523,29.9998828 11.4755273,29.8081641 12.4235742,29.4362109 C13.3774219,29.8103906 14.3735156,29.9998828 15.3907617,29.9998828 C17.9374805,29.9998828 20.3207813,28.8189844 22.1016797,26.6747461 C23.8394531,24.5824219 24.7964648,21.8112891 24.7964648,18.8721094 C24.7964648,15.9329297 23.8393945,13.1618555 22.1016211,11.0694727 Z M15.67875,3.99673828 C16.5047461,3.36398437 17.4852539,2.95828125 18.309668,2.68769531 C18.1406836,3.53876953 17.8565039,4.56117187 17.3282812,5.45771484 C16.5384961,6.79804687 15.3933984,7.54716797 13.8431836,7.73144531 C13.8385547,6.17009766 14.4437695,4.94279297 15.67875,3.99673828 Z M15.3905859,28.0678125 C15.1901953,28.0678125 14.9908594,28.0575586 14.7927539,28.0382227 C14.847832,27.9932813 14.9026172,27.9476953 14.9570508,27.9011719 C16.4963672,26.5867383 17.6511328,24.7790625 18.296543,22.6737891 L16.4491992,22.1074805 C15.9116602,23.860957 14.9617969,25.3562695 13.7023828,26.431875 C12.4491211,27.5020898 10.9796484,28.0677539 9.45287109,28.0677539 C5.33197266,28.0677539 1.97923828,23.9425781 1.97923828,18.8720508 C1.97923828,13.8015234 5.33185547,9.67634766 9.45287109,9.67634766 C11.3405273,9.67634766 13.1444531,10.549043 14.5323633,12.1337695 L15.9858398,10.8607031 C15.6123633,10.4342578 15.2135156,10.0490039 14.7936328,9.70576172 C14.9915039,9.68648437 15.1904883,9.67634766 15.3905273,9.67634766 C19.5114258,9.67634766 22.8641602,13.8015234 22.8641602,18.8720508 C22.8641602,23.9425781 19.5116016,28.0678125 15.3905859,28.0678125 Z" id="Shape"></path>
                    </g>
                </g>
            </g>
        </g>
    </g>
</svg>