<?xml version="1.0" encoding="UTF-8"?>
<svg width="34px" height="29px" viewBox="0 0 34 29" version="1.1" xmlns="http://www.w3.org/2000/svg" xmlns:xlink="http://www.w3.org/1999/xlink">
    <!-- Generator: Sketch 46.2 (44496) - http://www.bohemiancoding.com/sketch -->
    <title>tomato</title>
    <desc>Created with Sketch.</desc>
    <defs></defs>
    <g id="Index+" stroke="none" stroke-width="1" fill="none" fill-rule="evenodd">
        <g id="WILD_FISH_index_1440" transform="translate(-79.000000, -1932.000000)" fill-rule="nonzero" fill="#3A6390">
            <g id="Catalog2" transform="translate(40.000000, 1863.000000)">
                <g id="Group-58" transform="translate(0.000000, 40.000000)">
                    <g id="tomato" transform="translate(39.000000, 29.000000)">
                        <path d="M30.306103,6.64159353 C28.0718507,4.48872465 24.9771673,3.4776142 21.3580703,3.71699159 C20.0778826,3.80174341 18.9476411,4.02803608 18.1088585,4.24396724 L18.1088585,0 L15.8914735,0 L15.8914735,4.24403366 C15.0526909,4.0281025 13.9224494,3.80180983 12.6422617,3.71705801 C9.02250071,3.47787988 5.9284813,4.48879107 3.69422899,6.64165995 C1.24973318,8.99710959 0.0067331928,11.7288281 2.6119454e-05,14.7609639 C-0.00641532722,17.7083478 1.17980696,20.2576108 2.17610618,21.8771277 C3.55776329,24.1231838 5.27802799,25.7808257 7.43504934,26.9446356 C9.99861231,28.3276976 13.1273624,29 17,29 C20.872704,29 24.0015205,28.3276976 26.5649507,26.9446356 C28.7220384,25.7808257 30.4422367,24.1232502 31.8238938,21.8771277 C32.820193,20.2576108 34.0064153,17.7083478 33.9999739,14.7609639 C33.9935988,11.7288281 32.7505989,8.99710959 30.306103,6.64159353 Z M11.5866613,5.89948376 C11.864042,5.89941734 12.1469344,5.90838403 12.4350729,5.92618456 C14.7656813,6.07024937 16.5753958,6.77190941 16.5916654,6.77835214 L16.9999336,6.93888909 L17.4070729,6.77901634 C17.4250027,6.77190941 19.2347172,6.07024937 21.5653919,5.92618456 C22.4420263,5.87198591 23.2692542,5.900945 24.0461458,6.0113349 L20.7430782,8.03940075 L20.9851305,10.3982378 L17.0001328,9.01185481 L13.0150687,10.3982378 L13.257121,8.03940075 L9.95332296,6.01080354 C10.4751465,5.93674533 11.0197476,5.89948376 11.5866613,5.89948376 Z M29.9355538,20.714912 C28.7637418,22.6198353 27.3169397,24.0189709 25.512405,24.9925541 C23.2805433,26.1966808 20.4961118,26.7820396 17.0001328,26.7820396 C13.5041538,26.7820396 10.7197223,26.1966808 8.48779423,24.9925541 C6.68325947,24.0189709 5.23652383,22.6197689 4.06464538,20.714912 C0.25024644,14.5142803 3.15919048,10.2367046 5.23260583,8.23885978 C5.80191019,7.69029765 6.43642589,7.23804441 7.13349667,6.88183438 L10.9089149,9.20002245 L10.4534316,13.6374709 L17.0001328,11.3601311 L23.5467012,13.6375373 L23.0912179,9.20008887 L26.8667025,6.88183438 C27.5637069,7.23804441 28.1982226,7.69036407 28.767527,8.2389262 C33.59828,12.8933685 31.5728766,18.0533329 29.9355538,20.714912 Z" id="Shape"></path>
                        <path d="M7,12.1061905 L5.64345584,11 C4.73035311,12.9231989 4.88523225,15.9771675 5.51001194,18 L6.99100486,17.2144681 C6.46579375,15.5143006 6.46981286,13.2227895 7,12.1061905 Z" id="Shape"></path>
                    </g>
                </g>
            </g>
        </g>
    </g>
</svg>