<svg width="80" height="80" viewBox="0 0 80 80" fill="none" xmlns="http://www.w3.org/2000/svg">
<rect width="80" height="80" rx="40" fill="#E3FADA"/>
<path d="M56.6666 38.4667V40.0001C56.6645 43.5941 55.5008 47.0912 53.3488 49.9698C51.1969 52.8484 48.1721 54.9542 44.7255 55.9732C41.279 56.9923 37.5954 56.8699 34.224 55.6244C30.8527 54.3788 27.9743 52.0769 26.0182 49.0618C24.062 46.0468 23.1329 42.4802 23.3694 38.8939C23.6059 35.3077 24.9953 31.8939 27.3304 29.1618C29.6655 26.4298 32.8212 24.5257 36.3269 23.7336C39.8326 22.9416 43.5004 23.304 46.7833 24.7667M56.6666 26.6667L39.9999 43.3501L34.9999 38.3501" stroke="#23C16B" stroke-width="1.5" stroke-linecap="round" stroke-linejoin="round"/>
</svg>
