<svg width="200" height="170" viewBox="0 0 200 170" fill="none" xmlns="http://www.w3.org/2000/svg">
<path fill-rule="evenodd" clip-rule="evenodd" d="M12.6079 90.5227H10.497C10.4777 90.3497 10.4488 90.1626 10.4102 89.9607C10.3717 89.7591 10.3427 89.6104 10.3235 89.5144C10.1886 88.5348 10.0824 87.9008 10.0054 87.613C9.85109 87.0943 9.61014 86.7102 9.28244 86.4605C8.95485 86.2109 8.45366 86.0861 7.77887 86.0861H5.52315V93.0579C5.94743 93.0386 6.56428 93.0482 7.3739 93.0867C9.12827 93.1635 10.3622 93.3459 11.0754 93.6341C13.1766 94.46 14.2945 96.1501 14.4295 98.7046C14.5067 100.433 14.2128 101.749 13.5478 102.652C12.8827 103.554 12.0875 104.164 11.1622 104.481C10.2365 104.798 9.40783 104.956 8.67511 104.956H0V103.429H1.93751V86.1147H0V84.559H12.6079V90.5227ZM5.52315 103.343C7.04616 103.593 8.17887 103.501 8.92102 103.069C9.66328 102.637 10.1211 102.051 10.2945 101.312C10.4681 100.572 10.5354 99.7226 10.497 98.7621C10.4584 97.8019 10.3427 97.0192 10.1499 96.4143C9.95716 95.8093 9.49464 95.3435 8.7621 95.0168C8.02938 94.6905 6.94981 94.5943 5.52315 94.7289V103.343ZM25.8229 95.7371L29.0906 86.1437H27.2398V84.559H33.3991V86.1437H31.9247L26.7482 100.059C26.2085 101.576 25.5338 102.824 24.7242 103.804C23.9146 104.783 22.8637 105.302 21.572 105.36C20.8588 105.417 20.1552 105.263 19.4612 104.898C18.7672 104.534 18.2178 104.015 17.8128 103.343C17.4082 102.671 17.2057 101.922 17.2057 101.096C17.225 100.347 17.4468 99.761 17.8707 99.3385C18.2948 98.9158 18.7576 98.7046 19.2588 98.7046C19.6636 98.6662 20.0106 98.743 20.2999 98.935C20.5888 99.1271 20.8347 99.3816 21.0372 99.6986C21.2397 100.015 21.3602 100.356 21.3988 100.721C21.4372 101.163 21.3602 101.566 21.1673 101.931C21.0902 102.066 20.9938 102.2 20.8782 102.335C20.7624 102.469 20.6758 102.584 20.6179 102.68C20.5601 102.815 20.5313 102.968 20.5313 103.141C20.6083 103.602 20.9072 103.833 21.4275 103.833C22.353 103.852 23.2687 102.594 24.1748 100.059L17.5239 86.1437H15.8754V84.559H23.3073V86.1437H21.4565L25.8229 95.7371ZM39.7899 96.3134V103.429H41.7274V104.956H34.2378V103.429H36.1752V86.1147H34.2378V84.559H40.3105C42.7973 84.559 44.8263 84.8856 46.3976 85.5386C47.9686 86.1915 48.7639 87.8338 48.7832 90.465C48.8218 94.3639 46.5565 96.3134 41.9877 96.3134H39.7899ZM39.7899 94.7C43.1057 95.3146 44.7637 93.8839 44.7637 90.4074C44.7637 89.4664 44.6769 88.6643 44.5035 88.002C44.33 87.3392 43.8769 86.7919 43.1441 86.3596C42.4118 85.9276 41.2937 85.8169 39.7899 86.0284V94.7ZM63.9357 86.1147V103.429H65.9021V104.956H58.4125V103.429H60.3789V95.334C58.8945 95.1993 57.8777 95.4252 57.3281 96.0109C56.7788 96.5968 56.4269 97.4081 56.2728 98.4452L55.839 101.989C55.7425 102.757 55.4919 103.473 55.0871 104.135C54.6823 104.798 53.9207 105.187 52.8027 105.302C51.9738 105.436 51.0967 105.321 50.1712 104.956V103.401C51.0194 103.42 51.5592 103.29 51.7906 103.012C52.0219 102.733 52.1665 102.2 52.2243 101.413L52.5136 98.7335C52.6097 97.7154 52.9183 96.8656 53.4389 96.1838C53.9593 95.502 54.9039 94.9882 56.2728 94.6425C55.9644 94.5465 55.6944 94.4695 55.4632 94.4118C55.3087 94.335 55.0774 94.2439 54.7689 94.1384C54.4605 94.0327 54.1907 93.9319 53.9593 93.8357C52.475 93.0867 51.7135 91.7518 51.6749 89.8312C51.6556 87.6225 52.3833 86.1915 53.8582 85.5386C55.333 84.8856 56.7933 84.559 58.2392 84.559H65.9021V86.1147H63.9357ZM60.3789 86.0572C58.9716 85.8268 57.9017 85.9082 57.169 86.3021C56.4365 86.6957 55.9835 87.2 55.8101 87.8145C55.6365 88.4291 55.5498 89.1301 55.5498 89.9177C55.5498 92.8562 57.1595 94.1144 60.3789 93.6917V86.0572ZM78.2495 104.956H70.9916V103.429H72.9579V86.0572C71.8783 85.8651 71.0591 86.1244 70.5 86.835C70.2878 87.1038 70.1143 87.6898 69.9793 88.5925C69.9023 89.0724 69.8541 89.4183 69.8348 89.6296C69.777 89.9752 69.7288 90.513 69.6902 91.243H67.4347V84.559H81.7774V91.243H79.5797C79.5411 90.6859 79.4832 90.1481 79.4062 89.6296C79.3291 89.0919 79.2809 88.7461 79.2618 88.5925C79.1266 87.6898 78.9532 87.1038 78.7411 86.835C78.1629 86.1244 77.3434 85.8651 76.2831 86.0572V103.429H78.2495V104.956ZM88.8333 97.5234L94.8481 87.1807V86.1147H92.9106V84.559H100.342V86.1147H98.376V103.429H100.342V104.956H92.9106V103.429H94.8481V91.4157L88.8333 101.643V103.429H90.7998V104.956H83.3679V103.429H85.3054V86.1147H83.3679V84.559H90.7998V86.1147H88.8333V97.5234ZM115.639 86.1147V103.429H117.606V104.956H110.116V103.429H112.083V95.334C110.598 95.1993 109.581 95.4252 109.032 96.0109C108.483 96.5968 108.131 97.4081 107.977 98.4452L107.543 101.989C107.446 102.757 107.196 103.473 106.791 104.135C106.386 104.798 105.625 105.187 104.507 105.302C103.678 105.436 102.8 105.321 101.875 104.956V103.401C102.723 103.42 103.263 103.29 103.494 103.012C103.726 102.733 103.87 102.2 103.928 101.413L104.217 98.7335C104.314 97.7154 104.622 96.8656 105.143 96.1838C105.663 95.502 106.608 94.9882 107.977 94.6425C107.668 94.5465 107.398 94.4695 107.167 94.4118C107.013 94.335 106.781 94.2439 106.473 94.1384C106.164 94.0327 105.894 93.9319 105.663 93.8357C104.179 93.0867 103.417 91.7518 103.379 89.8312C103.359 87.6225 104.087 86.1915 105.562 85.5386C107.037 84.8856 108.497 84.559 109.943 84.559H117.606V86.1147H115.639ZM112.083 86.0572C110.676 85.8268 109.606 85.9082 108.873 86.3021C108.14 86.6957 107.687 87.2 107.514 87.8145C107.34 88.4291 107.254 89.1301 107.254 89.9177C107.254 92.8562 108.863 94.1144 112.083 93.6917V86.0572ZM197.961 120.022C188.154 142.178 165.943 156.997 140.981 156.997C116.019 156.997 93.8088 142.178 84.0014 120.022C88.261 147.558 112.149 168.642 140.981 168.642C169.813 168.642 193.701 147.558 197.961 120.022ZM199.985 110.039C199.993 110.425 200 110.812 200 111.201C200 143.675 173.576 170 140.981 170C108.386 170 81.9624 143.675 81.9624 111.201C81.9624 110.812 81.9695 110.425 81.9771 110.039C88.7044 136.255 112.57 155.638 140.981 155.638C169.392 155.638 193.258 136.255 199.985 110.039ZM140.001 2.7587C139.325 4.06015 139.555 6.40498 139.633 7.82053C139.776 10.4305 139.82 12.9456 138.81 15.4184C138.079 17.2096 137.341 18.4926 137.967 20.4669C138.157 21.0673 138.527 21.7006 138.811 22.266C139.597 23.8283 140.114 25.4113 139.279 27.0841C138.658 28.3286 137.384 29.1186 135.985 29.1186C133.954 29.1186 132.307 27.4773 132.307 25.4543V25.3621L132.319 25.2708C132.474 24.1406 132.892 23.4516 133.474 22.5163C133.769 22.0416 133.966 21.6713 133.992 21.1007C134.046 19.9079 133.327 18.4051 132.895 17.306C132.708 16.8307 132.534 16.3547 132.391 15.8733C132.311 16.0374 132.247 16.2174 132.2 16.4156C132.071 16.9613 132.073 17.5661 132.084 18.1239C132.104 19.1227 132.166 20.109 131.955 21.0958C131.663 22.4633 131.176 23.4977 130.579 24.7379C129.876 26.1985 129.586 27.234 129.586 28.8814C129.586 35.1515 134.688 40.2339 140.981 40.2339C147.275 40.2339 152.376 35.1517 152.376 28.8814C152.376 27.3493 152.018 26.1001 151.358 24.7324C150.768 23.5119 150.025 22.3467 149.738 21.0053C149.471 19.7535 149.653 18.5767 150.177 17.4161C150.329 17.0794 150.136 16.4517 149.801 15.8156C149.678 16.1942 149.516 16.5765 149.316 16.9706C148.316 18.9405 147.7 19.6366 148.454 21.9685C148.828 23.1261 149.655 24.1633 149.655 25.4543C149.655 27.4775 148.008 29.1186 145.977 29.1186C143.947 29.1186 142.299 27.4775 142.299 25.4543C142.299 24.4698 142.929 22.4543 143.285 21.5479L143.303 21.5012L143.325 21.4562C144.927 18.119 145.49 14.9991 144.025 11.5228C142.911 8.8777 140.922 6.57507 140.2 3.78027C140.112 3.43866 140.046 3.09834 140.001 2.7587ZM141.517 0C135.471 2.01997 139.989 8.92566 137.547 14.9067C136.747 16.8677 135.894 18.4391 136.667 20.8761C137.22 22.6207 139.03 24.5332 138.059 26.4794C137.68 27.2384 136.893 27.7601 135.985 27.7601C134.707 27.7601 133.67 26.7276 133.67 25.4543C133.925 23.5922 135.268 23.0641 135.354 21.1618C135.471 18.5814 133.234 16.0561 133.391 13.2702C129.534 15.0649 131.157 18.3037 130.621 20.8132C129.938 24.012 128.223 24.8632 128.223 28.8814C128.223 35.9012 133.935 41.5922 140.981 41.5922C148.027 41.5922 153.74 35.9012 153.74 28.8814C153.74 23.4 149.657 21.8736 151.42 17.9741C152.201 16.2488 149.95 13.0076 148.506 12.5678C149.707 16.842 145.51 17.2928 147.156 22.3849C147.462 23.3307 148.292 24.609 148.292 25.4543C148.292 26.7276 147.256 27.7601 145.977 27.7601C144.699 27.7601 143.663 26.7276 143.663 25.4543C143.663 25.1938 143.954 23.5728 144.555 22.0421C150.21 10.261 139.657 7.19949 141.517 0ZM146.269 113.324C146.269 123.725 146.269 134.127 146.269 144.529C166.233 142.098 182.567 127.977 188.167 109.244C181.027 109.244 173.885 109.244 166.744 109.244V105.164H189.203C189.297 104.713 189.384 104.26 189.466 103.805H165.38V110.603C172.354 110.603 179.328 110.603 186.302 110.603C180.488 127.662 165.541 140.21 147.633 142.969C147.633 132.634 147.633 122.299 147.633 111.964H140.811V144.897C141.267 144.891 141.721 144.878 142.174 144.86V113.324H146.269ZM125.795 109.244C125.795 117.575 125.795 125.907 125.795 134.239C117.056 131.074 109.674 125.095 104.749 117.403C109.035 117.403 113.32 117.403 117.606 117.403V118.762H107.331C111.687 124.711 117.607 129.393 124.431 132.248C124.431 125.032 124.431 117.818 124.431 110.603C114.272 110.603 104.113 110.603 93.9532 110.603C99.7672 127.662 114.713 140.21 132.621 142.969C132.621 132.634 132.621 122.299 132.621 111.964H139.444V144.896C138.988 144.888 138.534 144.875 138.08 144.856V113.324H133.985C133.985 123.725 133.985 134.127 133.985 144.529C114.021 142.098 97.6875 127.977 92.0874 109.244C103.323 109.244 114.559 109.244 125.795 109.244ZM189.875 101.085C189.819 101.54 189.758 101.993 189.69 102.444C181.131 102.444 172.572 102.444 164.013 102.444V110.603H155.823C155.823 117.818 155.823 125.032 155.823 132.248C162.648 129.393 168.568 124.711 172.924 118.762H162.649V117.403C166.935 117.403 171.22 117.403 175.506 117.403C170.581 125.095 163.199 131.074 154.46 134.239C154.46 125.907 154.46 117.575 154.46 109.244H162.649V101.085C171.724 101.085 180.8 101.085 189.875 101.085ZM189.69 87.4869C189.757 87.938 189.819 88.3911 189.875 88.8457C180.8 88.8457 171.724 88.8457 162.649 88.8457V80.6869H154.46C154.46 72.3551 154.46 64.0239 154.46 55.6922C163.199 58.8577 170.581 64.8358 175.506 72.5275C171.22 72.5275 166.935 72.5275 162.649 72.5275V71.1685H172.924C168.568 65.2194 162.648 60.5383 155.823 57.6828C155.823 64.8981 155.823 72.1127 155.823 79.328H164.013V87.4869C172.572 87.4869 181.131 87.4869 189.69 87.4869ZM125.795 80.6869C125.795 72.3551 125.795 64.0239 125.795 55.6922C117.056 58.8577 109.674 64.8358 104.749 72.5275C109.035 72.5275 113.32 72.5275 117.606 72.5275V71.1685H107.331C111.687 65.2194 117.607 60.5383 124.431 57.6828C124.431 64.8981 124.431 72.1127 124.431 79.328C114.272 79.328 104.113 79.328 93.9532 79.328C99.7672 62.269 114.713 49.7206 132.621 46.9615V80.6869H133.985C133.985 68.9253 133.985 57.1641 133.985 45.4019C114.021 47.832 97.6875 61.9537 92.0874 80.6869C103.323 80.6869 114.559 80.6869 125.795 80.6869ZM189.466 86.1255C189.384 85.6708 189.297 85.2171 189.203 84.7667H166.744V80.6869C173.885 80.6869 181.027 80.6869 188.167 80.6869C182.567 61.9537 166.233 47.832 146.269 45.4019C146.269 57.1641 146.269 68.9253 146.269 80.6869H147.633V46.9615C165.541 49.7206 180.488 62.269 186.302 79.328C179.782 79.328 173.263 79.328 166.744 79.328H165.38V86.1255H189.466ZM149.001 80.6869H150.364V50.2494C164.727 53.4984 176.534 63.4387 182.314 76.6072H158.554V62.0326C161.677 63.7698 164.526 65.9347 167.023 68.4484H162.649V69.8074H170.292L167.993 67.4925C165.397 64.8799 162.44 62.6379 159.219 60.8461L157.19 59.7171V77.9662H184.399L183.563 76.0626C177.551 62.3639 165.308 52.2366 150.666 48.9239L149.001 48.5476V80.6869ZM162.649 120.123V121.482H167.023C164.526 123.996 161.677 126.161 158.554 127.898V113.324H182.314C176.534 126.492 164.726 136.43 150.364 139.68V109.244C143.54 109.244 136.715 109.244 129.89 109.244V139.68C115.528 136.43 103.721 126.492 97.9408 113.324H121.701V127.898C118.579 126.161 115.729 123.996 113.232 121.482H117.606V120.123H109.963L112.262 122.438C114.857 125.051 117.815 127.292 121.036 129.085L123.065 130.214V111.964H95.8558L96.6913 113.868C102.704 127.567 114.947 137.693 129.588 141.005L131.254 141.381V110.603C137.17 110.603 143.085 110.603 149.001 110.603V141.381L150.667 141.005C165.308 137.693 177.551 127.567 183.564 113.868L184.399 111.964H157.19V130.214L159.219 129.085C162.44 127.293 165.397 125.051 167.993 122.438L170.292 120.123H162.649ZM117.606 69.8074V68.4484H113.232C115.729 65.9347 118.579 63.7698 121.701 62.0326V76.6072H97.9408C103.721 63.4387 115.528 53.5001 129.89 50.2512V80.6869H131.254V48.5492L129.588 48.9257C114.947 52.2384 102.704 62.3639 96.6913 76.0626L95.8558 77.9662H123.065V59.7171L121.036 60.8461C117.815 62.6385 114.857 64.8799 112.262 67.4925L109.963 69.8074H117.606ZM138.08 80.6869H139.444V45.0337C138.988 45.0396 138.534 45.0526 138.08 45.0708C138.08 56.9428 138.08 68.8149 138.08 80.6869ZM140.811 80.6869H142.174C142.174 68.816 142.174 56.9453 142.174 45.0743C141.721 45.0562 141.267 45.0424 140.811 45.035V80.6869Z" fill="white"/>
<path fill-rule="evenodd" clip-rule="evenodd" d="M167.902 93.3257H168.889V97.6382C168.889 97.7776 169.021 97.8842 169.177 97.8842H170.05C170.206 97.8842 170.329 97.7776 170.329 97.6382V92.2927C170.329 92.1533 170.231 92.0468 170.041 92.0468H166.766C166.577 92.0468 166.478 92.1533 166.478 92.2927L166.396 95.7032C166.379 96.3346 166.001 96.6052 165.581 96.6052C165.425 96.6052 165.359 96.7609 165.359 96.8921V97.5972C165.359 97.753 165.441 97.8842 165.606 97.8842H165.993C167.145 97.8842 167.811 97.1216 167.844 95.6705L167.902 93.3257H168.889H167.902ZM179.553 97.5972V96.8921C179.553 96.7527 179.462 96.6052 179.306 96.6052H177.01V95.5803H178.936C179.1 95.5803 179.182 95.4328 179.182 95.2934V94.5883C179.182 94.4243 179.108 94.3013 178.936 94.3013H177.01V93.3257H179.306C179.479 93.3257 179.553 93.1699 179.553 93.0388V92.3337C179.553 92.178 179.47 92.0468 179.306 92.0468H175.858C175.726 92.0468 175.57 92.1533 175.57 92.2927V97.6382C175.57 97.7776 175.71 97.8842 175.858 97.8842H179.306C179.462 97.8842 179.553 97.753 179.553 97.5972ZM188.603 93.0388V92.3337C188.603 92.178 188.521 92.0468 188.356 92.0468H184.53C184.365 92.0468 184.283 92.178 184.283 92.3337V93.0388C184.283 93.1699 184.357 93.3257 184.53 93.3257H185.723V97.6382C185.723 97.7776 185.855 97.8842 186.011 97.8842H186.875C187.032 97.8842 187.163 97.7776 187.163 97.6382V93.3257H188.356C188.529 93.3257 188.603 93.1699 188.603 93.0388ZM150.364 101.085H154.459V88.8457H150.364V101.085ZM158.553 84.7667L158.554 105.164C154.459 105.164 150.365 105.164 146.27 105.164L146.269 84.7667C150.364 84.7667 154.459 84.7667 158.553 84.7667ZM133.985 101.085H138.08V88.8457H133.985V101.085ZM129.89 105.164C129.89 98.3646 129.89 91.5659 129.89 84.7667C133.985 84.7667 138.079 84.7667 142.174 84.7667C142.174 91.5659 142.174 98.3646 142.174 105.164C138.079 105.164 133.985 105.164 129.89 105.164ZM121.701 84.7667H125.795V105.164H121.701V84.7667ZM20.3592 77.1937C20.3592 76.2318 19.6187 75.5374 18.5952 75.5374H16.802C16.635 75.5374 16.5479 75.6314 16.5479 75.7543V80.47C16.5479 80.5928 16.6642 80.6869 16.802 80.6869H17.5643C17.7022 80.6869 17.8183 80.5928 17.8183 80.47V78.8498H18.5952C19.6261 78.8498 20.3592 78.1557 20.3592 77.1937ZM19.0889 77.1937C19.0889 77.4901 18.8564 77.7144 18.5371 77.7144H17.8183V76.6728H18.5371C18.8564 76.6728 19.0889 76.8971 19.0889 77.1937ZM26.9338 80.4338V79.8117C26.9338 79.689 26.8541 79.5587 26.7162 79.5587H24.6906V78.6546H26.3894C26.5346 78.6546 26.6072 78.5244 26.6072 78.4014V77.7795C26.6072 77.6348 26.5419 77.5263 26.3894 77.5263H24.6906V76.6658H26.7162C26.8686 76.6658 26.9338 76.5281 26.9338 76.4126V75.7904C26.9338 75.6531 26.8612 75.5374 26.7162 75.5374H23.6743C23.5583 75.5374 23.4203 75.6314 23.4203 75.7543V80.47C23.4203 80.5928 23.5436 80.6869 23.6743 80.6869H26.7162C26.8541 80.6869 26.9338 80.5711 26.9338 80.4338ZM33.2616 80.2675C33.298 80.2386 33.3125 80.1951 33.3125 80.1519C33.3125 80.0867 33.2833 80.0217 33.2326 79.9711L32.71 79.4574C32.6592 79.4068 32.6011 79.3851 32.5356 79.3851C32.4847 79.3851 32.4413 79.4068 32.4051 79.4357C32.2816 79.5443 32.1727 79.6021 31.9549 79.6021C31.737 79.6021 31.57 79.5298 31.454 79.3851C31.3088 79.2042 31.2581 78.8934 31.2581 78.228C31.2581 77.3384 31.3015 77.0343 31.454 76.8392C31.5629 76.6945 31.737 76.6222 31.9549 76.6222C32.1727 76.6222 32.2744 76.6658 32.4266 76.8103C32.4486 76.8322 32.4921 76.8392 32.543 76.8392C32.6011 76.8392 32.6737 76.8247 32.7244 76.7741L33.2399 76.2606C33.2907 76.21 33.3125 76.1522 33.3125 76.0943C33.3125 76.0437 33.2907 75.993 33.2544 75.9568C32.9204 75.6459 32.4992 75.4939 31.9549 75.4939C31.367 75.4939 30.8804 75.6893 30.5104 76.0727C30.111 76.4849 29.9874 76.926 29.9874 77.9314V78.1122C29.9874 78.6546 30.0238 79.0378 30.0529 79.2623C30.0964 79.5587 30.2708 79.9058 30.5104 80.1519C30.8804 80.535 31.3741 80.7305 31.9621 80.7305C32.5139 80.7305 32.9204 80.5786 33.2616 80.2675ZM37.7165 80.47V76.6658H39.0667V80.47C39.0667 80.5928 39.1829 80.6869 39.3209 80.6869H40.0904C40.2283 80.6869 40.3371 80.5928 40.3371 80.47V75.7543C40.3371 75.6314 40.2501 75.5374 40.0831 75.5374H36.7001C36.5331 75.5374 36.446 75.6314 36.446 75.7543V80.47C36.446 80.5928 36.5623 80.6869 36.7001 80.6869H37.4623C37.6005 80.6869 37.7165 80.5928 37.7165 80.47ZM47.4709 75.7904C47.4927 75.7472 47.4999 75.7038 47.4999 75.6749C47.4999 75.5736 47.42 75.5374 47.2893 75.5374H46.3893C46.1786 75.5374 46.1352 75.617 46.0842 75.7543L45.4092 77.642L44.6468 75.7543C44.5889 75.617 44.5526 75.5374 44.3421 75.5374H43.4564C43.3257 75.5374 43.2387 75.5736 43.2387 75.6749C43.2387 75.7038 43.2458 75.7472 43.2675 75.7904L44.7775 79.0597C44.7267 79.2623 44.6106 79.5587 44.2186 79.5587H44.0082C43.8557 79.5587 43.7902 79.6961 43.7902 79.8117V80.4338C43.7902 80.5711 43.8628 80.6869 44.0082 80.6869H44.4945C45.1549 80.6869 45.5761 80.2386 45.7723 79.783L47.4709 75.7904ZM54.2487 79.0306C54.2487 78.0687 53.6026 77.3745 52.5209 77.3745H51.657V76.6658H53.7261C53.8784 76.6658 53.944 76.5281 53.944 76.4126V75.7904C53.944 75.6531 53.8713 75.5374 53.7261 75.5374H50.6406C50.4737 75.5374 50.3867 75.6314 50.3867 75.7543V80.47C50.3867 80.5928 50.5028 80.6869 50.6406 80.6869H52.5209C53.6099 80.6869 54.2487 79.9926 54.2487 79.0306ZM52.9784 79.0306C52.9784 79.3272 52.7823 79.5515 52.4629 79.5515H51.657V78.5099H52.4629C52.7823 78.5099 52.9784 78.7342 52.9784 79.0306ZM59.1972 76.6658H60.0683V80.47C60.0683 80.5928 60.1845 80.6869 60.3223 80.6869H61.092C61.2298 80.6869 61.3387 80.5928 61.3387 80.47V75.7543C61.3387 75.6314 61.2515 75.5374 61.0845 75.5374H58.1953C58.0283 75.5374 57.9411 75.6314 57.9411 75.7543L57.8687 78.7632C57.8542 79.32 57.5202 79.5587 57.15 79.5587C57.0121 79.5587 56.9538 79.6961 56.9538 79.8117V80.4338C56.9538 80.5711 57.0264 80.6869 57.1716 80.6869H57.5129C58.5293 80.6869 59.1175 80.0143 59.1463 78.7342L59.1972 76.6658H60.0683H59.1972ZM68.741 80.47V75.7543C68.741 75.6314 68.6538 75.5374 68.4869 75.5374H67.8482C67.6738 75.5374 67.5868 75.6241 67.5287 75.7183L65.975 78.3436V75.7543C65.975 75.6314 65.859 75.5374 65.7209 75.5374H64.9588C64.8208 75.5374 64.7047 75.6314 64.7047 75.7543V80.47C64.7047 80.5928 64.7918 80.6869 64.9588 80.6869H65.6049C65.7792 80.6869 65.8661 80.6003 65.9242 80.5062L67.4705 77.8808V80.47C67.4705 80.5928 67.5794 80.6869 67.7175 80.6869H68.4869C68.6248 80.6869 68.741 80.5928 68.741 80.47ZM76.3102 80.4194L74.6478 77.6203L76.2375 75.7472C76.2738 75.7038 76.2958 75.6676 76.2958 75.6314C76.2958 75.5736 76.245 75.5374 76.136 75.5374H75.0688C74.902 75.5374 74.8582 75.5374 74.6913 75.74L73.3628 77.3601V75.7543C73.3628 75.6314 73.2757 75.5374 73.1087 75.5374H72.361C72.1939 75.5374 72.107 75.6314 72.107 75.7543V80.47C72.107 80.5928 72.2232 80.6869 72.361 80.6869H73.1087C73.2468 80.6869 73.3628 80.5928 73.3628 80.47V79.074L73.7983 78.5752L74.8657 80.47C74.9165 80.5641 74.9889 80.6869 75.2213 80.6869H76.1651C76.2375 80.6869 76.3682 80.6869 76.3682 80.5786C76.3682 80.5424 76.3539 80.4917 76.3102 80.4194ZM81.6288 78.8644H80.7286L81.1934 77.4901L81.6288 78.8644ZM83.4438 80.4338L81.716 75.7183C81.6579 75.5591 81.5853 75.5374 81.4401 75.5374H80.8811C80.7504 75.5374 80.6707 75.5591 80.6197 75.6893L78.8849 80.4338C78.8703 80.4773 78.8631 80.5205 78.8631 80.5496C78.8631 80.6507 78.9429 80.6869 79.0735 80.6869H79.8867C80.0971 80.6869 80.1479 80.6073 80.1915 80.47L80.373 79.9203H81.9629L82.137 80.47C82.1807 80.6146 82.2315 80.6869 82.4419 80.6869H83.2552C83.3855 80.6869 83.4656 80.6507 83.4656 80.5496C83.4656 80.5205 83.4581 80.4773 83.4438 80.4338Z" fill="#FFB300"/>
</svg>
