<svg width="320" height="409" viewBox="0 0 320 409" fill="none" xmlns="http://www.w3.org/2000/svg">
<path fill-rule="evenodd" clip-rule="evenodd" d="M187.854 364.726H198.996V331.324H187.854V364.726ZM210.136 320.191L210.139 375.859C198.996 375.859 187.856 375.859 176.714 375.859L176.712 320.191C187.854 320.191 198.994 320.191 210.136 320.191ZM143.287 364.726H154.429V331.324H143.287V364.726ZM132.145 375.859C132.145 357.302 132.145 338.747 132.145 320.191C143.287 320.191 154.428 320.191 165.57 320.191C165.57 338.747 165.57 357.302 165.57 375.859C154.428 375.859 143.287 375.859 132.145 375.859ZM109.863 320.191H121.003V375.859H109.863V320.191Z" fill="#FFB300"/>
<path fill-rule="evenodd" clip-rule="evenodd" d="M34.3056 263.357H28.5615C28.5088 262.885 28.4303 262.375 28.3255 261.824C28.2203 261.274 28.1418 260.868 28.0898 260.606C27.7218 257.932 27.4333 256.202 27.2236 255.416C26.8039 254.001 26.1481 252.953 25.2566 252.271C24.3652 251.59 23.0012 251.249 21.165 251.249H15.028V270.276C16.1819 270.224 17.8609 270.25 20.0636 270.355C24.8369 270.565 28.1943 271.063 30.1352 271.849C35.8525 274.103 38.8942 278.716 39.2619 285.687C39.4719 290.405 38.6716 293.995 36.8626 296.459C35.0532 298.923 32.8889 300.587 30.371 301.452C27.8533 302.316 25.5979 302.749 23.6042 302.749H0V298.582H5.27157V251.328H0V247.082H34.3056V263.357ZM15.028 298.346C19.1716 299.027 22.2539 298.778 24.2733 297.599C26.2927 296.419 27.5381 294.821 28.0106 292.803C28.4828 290.785 28.666 288.465 28.5615 285.844C28.4563 283.224 28.1418 281.088 27.6173 279.437C27.0923 277.785 25.8336 276.514 23.841 275.623C21.8473 274.732 18.9096 274.469 15.028 274.837V298.346ZM70.2626 277.588L79.1536 251.406H74.1178V247.082H90.8775V251.406H86.8651L72.7806 289.383C71.3121 293.524 69.4759 296.931 67.2732 299.604C65.0698 302.277 62.2107 303.693 58.6968 303.85C56.7551 304.007 54.8409 303.588 52.9527 302.592C51.0638 301.596 49.5693 300.18 48.4679 298.346C47.3667 296.512 46.8157 294.467 46.8157 292.213C46.8682 290.169 47.4712 288.57 48.6251 287.417C49.7793 286.264 51.0378 285.687 52.4018 285.687C53.5037 285.583 54.4479 285.792 55.2346 286.316C56.0209 286.84 56.69 287.535 57.241 288.4C57.7919 289.265 58.1198 290.194 58.2243 291.191C58.3295 292.396 58.1198 293.497 57.5946 294.493C57.3848 294.861 57.1231 295.227 56.8086 295.594C56.4933 295.961 56.2574 296.275 56.1004 296.538C55.9431 296.905 55.8644 297.323 55.8644 297.796C56.0736 299.054 56.8871 299.682 58.303 299.682C60.821 299.735 63.3129 296.302 65.778 289.383L47.6811 251.406H43.1956V247.082H63.4174V251.406H58.3815L70.2626 277.588ZM108.266 279.161V298.582H113.538V302.749H93.1589V298.582H98.4312V251.328H93.1589V247.082H109.683C116.449 247.082 121.97 247.973 126.245 249.755C130.521 251.537 132.684 256.019 132.737 263.2C132.841 273.841 126.678 279.161 114.246 279.161H108.266ZM108.266 274.758C117.288 276.435 121.8 272.531 121.8 263.043C121.8 260.474 121.564 258.286 121.091 256.478C120.62 254.669 119.387 253.175 117.393 251.996C115.4 250.817 112.358 250.514 108.266 251.092V274.758ZM173.966 251.328V298.582H179.316V302.749H158.938V298.582H164.288V276.488C160.249 276.121 157.482 276.737 155.987 278.335C154.492 279.935 153.535 282.149 153.115 284.979L151.935 294.651C151.672 296.748 150.991 298.7 149.889 300.509C148.788 302.316 146.716 303.378 143.674 303.693C141.418 304.059 139.031 303.745 136.513 302.749V298.503C138.821 298.556 140.29 298.202 140.919 297.442C141.549 296.682 141.943 295.227 142.099 293.078L142.887 285.766C143.149 282.988 143.988 280.668 145.404 278.807C146.821 276.947 149.391 275.545 153.115 274.601C152.276 274.339 151.542 274.129 150.912 273.972C150.492 273.762 149.863 273.514 149.023 273.225C148.185 272.937 147.45 272.661 146.821 272.399C142.781 270.355 140.71 266.712 140.605 261.47C140.552 255.442 142.532 251.537 146.545 249.755C150.558 247.973 154.532 247.082 158.466 247.082H179.316V251.328H173.966ZM164.288 251.17C160.459 250.541 157.548 250.764 155.554 251.839C153.561 252.913 152.328 254.289 151.856 255.966C151.384 257.643 151.148 259.557 151.148 261.706C151.148 269.726 155.528 273.159 164.288 272.006V251.17ZM212.913 302.749H193.165V298.582H198.515V251.17C195.577 250.646 193.349 251.354 191.827 253.293C191.25 254.027 190.778 255.626 190.41 258.089C190.201 259.4 190.07 260.344 190.017 260.92C189.86 261.863 189.728 263.331 189.624 265.323H183.486V247.082H222.513V265.323H216.532C216.428 263.803 216.27 262.335 216.061 260.92C215.851 259.452 215.719 258.509 215.667 258.089C215.3 255.626 214.827 254.027 214.251 253.293C212.677 251.354 210.448 250.646 207.563 251.17V298.582H212.913V302.749ZM241.711 282.464L258.077 254.236V251.328H252.805V247.082H273.027V251.328H267.676V298.582H273.027V302.749H252.805V298.582H258.077V265.795L241.711 293.707V298.582H247.062V302.749H226.84V298.582H232.112V251.328H226.84V247.082H247.062V251.328H241.711V282.464ZM314.65 251.328V298.582H320V302.749H299.622V298.582H304.972V276.488C300.933 276.121 298.166 276.737 296.671 278.335C295.176 279.935 294.219 282.149 293.799 284.979L292.618 294.651C292.357 296.748 291.674 298.7 290.573 300.509C289.472 302.316 287.399 303.378 284.357 303.693C282.102 304.059 279.715 303.745 277.197 302.749V298.503C279.505 298.556 280.974 298.202 281.604 297.442C282.233 296.682 282.626 295.227 282.784 293.078L283.57 285.766C283.832 282.988 284.672 280.668 286.088 278.807C287.505 276.947 290.075 275.545 293.799 274.601C292.96 274.339 292.225 274.129 291.596 273.972C291.176 273.762 290.547 273.514 289.708 273.225C288.868 272.937 288.134 272.661 287.505 272.399C283.466 270.355 281.394 266.712 281.288 261.47C281.236 255.442 283.217 251.537 287.229 249.755C291.242 247.973 295.216 247.082 299.149 247.082H320V251.328H314.65ZM304.972 251.17C301.143 250.541 298.232 250.764 296.238 251.839C294.245 252.913 293.012 254.289 292.54 255.966C292.068 257.643 291.832 259.557 291.832 261.706C291.832 269.726 296.212 273.159 304.972 272.006V251.17Z" fill="white"/>
<path fill-rule="evenodd" clip-rule="evenodd" d="M79.3311 223.492C79.3311 220.866 77.3158 218.971 74.5312 218.971H69.6519C69.1977 218.971 68.9605 219.228 68.9605 219.563V232.433C68.9605 232.768 69.277 233.025 69.6519 233.025H71.7263C72.1017 233.025 72.4177 232.768 72.4177 232.433V228.012H74.5312C77.3361 228.012 79.3311 226.117 79.3311 223.492ZM75.8746 223.492C75.8746 224.3 75.2422 224.913 74.3732 224.913H72.4177V222.07H74.3732C75.2422 222.07 75.8746 222.682 75.8746 223.492ZM97.2202 232.335V230.636C97.2202 230.301 97.0033 229.945 96.6278 229.945H91.1168V227.479H95.7391C96.1343 227.479 96.3314 227.123 96.3314 226.788V225.09C96.3314 224.695 96.1539 224.399 95.7391 224.399H91.1168V222.051H96.6278C97.0426 222.051 97.2202 221.676 97.2202 221.36V219.662C97.2202 219.287 97.0231 218.971 96.6278 218.971H88.351C88.0353 218.971 87.6596 219.228 87.6596 219.563V232.433C87.6596 232.768 87.9959 233.025 88.351 233.025H96.6278C97.0033 233.025 97.2202 232.709 97.2202 232.335ZM114.438 231.88C114.537 231.802 114.577 231.683 114.577 231.565C114.577 231.387 114.497 231.209 114.359 231.071L112.937 229.67C112.798 229.532 112.641 229.472 112.462 229.472C112.324 229.472 112.206 229.532 112.107 229.61C111.771 229.906 111.475 230.065 110.882 230.065C110.29 230.065 109.836 229.867 109.52 229.472C109.125 228.979 108.986 228.13 108.986 226.314C108.986 223.887 109.105 223.057 109.52 222.524C109.816 222.129 110.29 221.931 110.882 221.931C111.475 221.931 111.752 222.051 112.166 222.445C112.226 222.504 112.344 222.524 112.483 222.524C112.641 222.524 112.838 222.485 112.976 222.347L114.379 220.945C114.517 220.807 114.577 220.649 114.577 220.491C114.577 220.353 114.517 220.215 114.419 220.116C113.51 219.267 112.364 218.852 110.882 218.852C109.283 218.852 107.958 219.386 106.952 220.432C105.865 221.557 105.529 222.761 105.529 225.505V225.999C105.529 227.479 105.628 228.524 105.708 229.137C105.825 229.945 106.3 230.893 106.952 231.565C107.958 232.61 109.302 233.144 110.903 233.144C112.403 233.144 113.51 232.729 114.438 231.88ZM126.56 232.433V222.051H130.233V232.433C130.233 232.768 130.55 233.025 130.925 233.025H133.019C133.394 233.025 133.69 232.768 133.69 232.433V219.563C133.69 219.228 133.453 218.971 132.999 218.971H123.794C123.34 218.971 123.102 219.228 123.102 219.563V232.433C123.102 232.768 123.419 233.025 123.794 233.025H125.868C126.244 233.025 126.56 232.768 126.56 232.433ZM153.101 219.662C153.16 219.544 153.18 219.425 153.18 219.347C153.18 219.07 152.962 218.971 152.607 218.971H150.158C149.585 218.971 149.466 219.188 149.328 219.563L147.492 224.715L145.417 219.563C145.259 219.188 145.16 218.971 144.587 218.971H142.178C141.822 218.971 141.585 219.07 141.585 219.347C141.585 219.425 141.604 219.544 141.664 219.662L145.773 228.584C145.634 229.137 145.318 229.945 144.251 229.945H143.679C143.264 229.945 143.086 230.321 143.086 230.636V232.335C143.086 232.709 143.283 233.025 143.679 233.025H145.002C146.799 233.025 147.945 231.802 148.479 230.558L153.101 219.662ZM171.543 228.505C171.543 225.879 169.785 223.985 166.842 223.985H164.491V222.051H170.121C170.536 222.051 170.713 221.676 170.713 221.36V219.662C170.713 219.287 170.516 218.971 170.121 218.971H161.726C161.271 218.971 161.034 219.228 161.034 219.563V232.433C161.034 232.768 161.351 233.025 161.726 233.025H166.842C169.805 233.025 171.543 231.13 171.543 228.505ZM168.087 228.505C168.087 229.314 167.553 229.927 166.683 229.927H164.491V227.084H166.683C167.553 227.084 168.087 227.696 168.087 228.505ZM185.007 222.051H187.378V232.433C187.378 232.768 187.694 233.025 188.069 233.025H190.163C190.538 233.025 190.835 232.768 190.835 232.433V219.563C190.835 219.228 190.597 218.971 190.143 218.971H182.282C181.827 218.971 181.59 219.228 181.59 219.563L181.393 227.775C181.353 229.295 180.444 229.945 179.437 229.945C179.062 229.945 178.904 230.321 178.904 230.636V232.335C178.904 232.709 179.101 233.025 179.496 233.025H180.425C183.19 233.025 184.79 231.189 184.87 227.696L185.007 222.051ZM210.976 232.433V219.563C210.976 219.228 210.738 218.971 210.284 218.971H208.546C208.072 218.971 207.835 219.208 207.677 219.465L203.45 226.63V219.563C203.45 219.228 203.134 218.971 202.759 218.971H200.684C200.31 218.971 199.993 219.228 199.993 219.563V232.433C199.993 232.768 200.23 233.025 200.684 233.025H202.443C202.917 233.025 203.154 232.788 203.312 232.532L207.519 225.367V232.433C207.519 232.768 207.816 233.025 208.191 233.025H210.284C210.66 233.025 210.976 232.768 210.976 232.433ZM231.572 232.295L227.048 224.656L231.373 219.544C231.472 219.425 231.532 219.326 231.532 219.228C231.532 219.07 231.394 218.971 231.098 218.971H228.194C227.739 218.971 227.621 218.971 227.167 219.524L223.552 223.945V219.563C223.552 219.228 223.315 218.971 222.86 218.971H220.826C220.371 218.971 220.135 219.228 220.135 219.563V232.433C220.135 232.768 220.45 233.025 220.826 233.025H222.86C223.236 233.025 223.552 232.768 223.552 232.433V228.623L224.737 227.262L227.641 232.433C227.779 232.689 227.977 233.025 228.609 233.025H231.176C231.373 233.025 231.729 233.025 231.729 232.729C231.729 232.631 231.69 232.493 231.572 232.295ZM246.043 228.051H243.594L244.858 224.3L246.043 228.051ZM250.981 232.335L246.28 219.465C246.122 219.03 245.925 218.971 245.53 218.971H244.009C243.653 218.971 243.436 219.03 243.297 219.386L238.577 232.335C238.538 232.453 238.517 232.571 238.517 232.65C238.517 232.927 238.735 233.025 239.09 233.025H241.302C241.875 233.025 242.014 232.808 242.132 232.433L242.626 230.933H246.952L247.426 232.433C247.545 232.828 247.682 233.025 248.255 233.025H250.468C250.823 233.025 251.041 232.927 251.041 232.65C251.041 232.571 251.021 232.453 250.981 232.335Z" fill="#FFB300"/>
<path d="M135.294 396.281H137.981V408.051C137.981 408.431 138.34 408.722 138.765 408.722H141.139C141.564 408.722 141.9 408.431 141.9 408.051V393.461C141.9 393.081 141.631 392.79 141.116 392.79H132.204C131.689 392.79 131.421 393.081 131.421 393.461L131.196 402.77C131.152 404.493 130.122 405.231 128.98 405.231C128.554 405.231 128.375 405.657 128.375 406.014V407.939C128.375 408.364 128.599 408.722 129.047 408.722H130.099C133.234 408.722 135.048 406.641 135.137 402.68L135.294 396.281H137.981H135.294ZM166.997 407.939V406.014C166.997 405.634 166.751 405.231 166.325 405.231H160.078V402.434H165.318C165.766 402.434 165.99 402.032 165.99 401.651V399.727C165.99 399.279 165.788 398.944 165.318 398.944H160.078V396.281H166.325C166.796 396.281 166.997 395.856 166.997 395.498V393.574C166.997 393.148 166.773 392.79 166.325 392.79H156.944C156.586 392.79 156.161 393.081 156.161 393.461V408.051C156.161 408.431 156.541 408.722 156.944 408.722H166.325C166.751 408.722 166.997 408.364 166.997 407.939ZM191.625 395.498V393.574C191.625 393.148 191.401 392.79 190.953 392.79H180.541C180.093 392.79 179.87 393.148 179.87 393.574V395.498C179.87 395.856 180.071 396.281 180.541 396.281H183.788V408.051C183.788 408.431 184.146 408.722 184.572 408.722H186.923C187.349 408.722 187.707 408.431 187.707 408.051V396.281H190.953C191.424 396.281 191.625 395.856 191.625 395.498Z" fill="#FFB300"/>
<path fill-rule="evenodd" clip-rule="evenodd" d="M166.534 140.423C166.534 153.313 166.534 166.201 166.534 179.091C191.198 176.08 211.377 158.581 218.295 135.368C209.474 135.368 200.651 135.368 191.828 135.368V130.313H219.575C219.691 129.754 219.799 129.193 219.899 128.628H190.143V137.052H191.828C199.883 137.052 207.936 137.052 215.99 137.052C208.808 158.19 190.343 173.74 168.219 177.159C168.219 164.913 168.219 152.668 168.219 140.423V138.739H159.79V179.548C160.353 179.54 160.915 179.524 161.475 179.502V140.423H166.534ZM220.176 126.942C220.26 126.383 220.336 125.821 220.405 125.258H207.005V120.203H220.812C220.836 119.643 220.852 119.082 220.862 118.518H205.32V126.942H220.176ZM220.862 116.831C220.852 116.268 220.836 115.707 220.812 115.147H207.005V110.092H220.405C220.336 109.528 220.259 108.967 220.176 108.408H205.32V116.831H220.862ZM219.899 106.721C219.799 106.158 219.691 105.596 219.575 105.037H191.828V99.9821C200.651 99.9821 209.474 99.9821 218.295 99.9821C211.377 76.7691 191.198 59.2701 166.534 56.2588C166.534 70.8334 166.534 85.4075 166.534 99.9821H168.219V58.1912C190.343 61.6101 208.808 77.1599 215.99 98.2979C207.936 98.2979 199.883 98.2979 191.828 98.2979H190.143V106.721H219.899ZM169.908 99.9821H171.593V62.2653C189.337 66.2916 203.923 78.6089 211.064 94.9268H181.711V76.8666C185.568 79.0195 189.088 81.7016 192.173 84.8168H186.77V86.5003H196.211L193.371 83.632C190.165 80.3948 186.512 77.6164 182.533 75.3965L180.026 73.9969V96.6103H213.64L212.607 94.2513C205.179 77.2769 190.055 64.728 171.966 60.6232L169.908 60.1568V99.9821ZM186.77 88.1872V89.8713C192.064 89.8713 197.358 89.8713 202.653 89.8713C196.569 80.3401 187.449 72.9323 176.652 69.0097C176.652 79.3342 176.652 89.6576 176.652 99.9821H186.77V110.092H201.946V115.147H186.77V116.831H203.631V108.408H188.455V98.2979H178.337C178.337 89.3574 178.337 80.4173 178.337 71.4768C186.769 75.0149 194.082 80.815 199.463 88.1872H186.77ZM186.77 118.518V120.203H201.946V125.258H186.77V135.368H176.652C176.652 145.692 176.652 156.016 176.652 166.34C187.449 162.419 196.569 155.01 202.653 145.479C197.358 145.479 192.064 145.479 186.77 145.479V147.163H199.463C194.082 154.534 186.769 160.336 178.337 163.873C178.337 154.933 178.337 145.993 178.337 137.052H188.455V126.942H203.631V118.518H186.77ZM186.77 148.85V150.533H192.173C189.088 153.648 185.568 156.331 181.711 158.483V140.423H211.064C203.924 156.741 189.337 169.056 171.593 173.083V135.368C163.162 135.368 154.731 135.368 146.299 135.368V173.083C128.556 169.056 113.969 156.741 106.828 140.423H136.182V158.483C132.324 156.331 128.804 153.648 125.719 150.533H131.123V148.85H121.681L124.521 151.718C127.727 154.955 131.381 157.733 135.36 159.954L137.867 161.352V138.739H104.252L105.285 141.098C112.713 158.073 127.838 170.62 145.925 174.725L147.984 175.191V137.052C155.292 137.052 162.6 137.052 169.908 137.052V175.191L171.967 174.725C190.054 170.62 205.18 158.073 212.608 141.097L213.64 138.739H180.026V161.352L182.533 159.954C186.512 157.733 190.165 154.955 193.371 151.718L196.211 148.85H186.77ZM131.123 147.163V145.479C125.829 145.479 120.534 145.479 115.239 145.479C121.323 155.01 130.443 162.419 141.24 166.34C141.24 156.016 141.24 145.692 141.24 135.368H131.123V125.258H115.947V120.203H131.123V118.518H114.262V126.942H129.438V137.052H139.555C139.555 145.993 139.555 154.933 139.555 163.873C131.123 160.336 123.81 154.534 118.429 147.163H131.123ZM131.123 116.831V115.147H115.947V110.092H131.123V99.9821H141.24C141.24 89.6576 141.24 79.3342 141.24 69.0097C130.443 72.9323 121.323 80.3401 115.239 89.8713C120.534 89.8713 125.829 89.8713 131.123 89.8713V88.1872H118.429C123.81 80.815 131.123 75.0149 139.555 71.4768C139.555 80.4173 139.555 89.3574 139.555 98.2979H129.438V108.408H114.262V116.831H131.123ZM131.123 86.5003V84.8168H125.719C128.804 81.7016 132.324 79.0195 136.182 76.8666V94.9268H106.828C113.969 78.6089 128.556 66.2936 146.299 62.2676V99.9821H147.984V60.159L145.925 60.6255C127.838 64.7302 112.713 77.2769 105.285 94.2513L104.252 96.6103H137.867V73.9969L135.36 75.3965C131.381 77.6172 127.727 80.3948 124.521 83.632L121.681 86.5003H131.123ZM149.673 99.9821H151.358C151.358 85.4075 151.358 70.8334 151.358 56.2588C126.694 59.2701 106.515 76.7691 99.5967 99.9821C108.419 99.9821 117.242 99.9821 126.064 99.9821V105.037H98.318C98.2021 105.596 98.0938 106.157 97.9936 106.721H127.749V98.2979H126.064C118.01 98.2979 109.956 98.2979 101.902 98.2979C109.084 77.1599 127.549 61.6101 149.673 58.1912V99.9821ZM97.7162 108.408C97.632 108.967 97.5562 109.528 97.4874 110.092H110.888V115.147H97.0803C97.0573 115.707 97.0397 116.268 97.0305 116.831H112.573V108.408H97.7162ZM97.0305 118.518C97.0397 119.082 97.0573 119.643 97.0803 120.203H110.888V125.258H97.4874C97.5562 125.821 97.6328 126.383 97.7162 126.942H112.573V118.518H97.0305ZM97.9936 128.628C98.0938 129.192 98.2021 129.754 98.318 130.313H126.064V135.368C117.242 135.368 108.419 135.368 99.5967 135.368C106.515 158.581 126.694 176.08 151.358 179.091C151.358 166.201 151.358 153.313 151.358 140.423H156.417V179.497C156.977 179.52 157.539 179.536 158.102 179.546V138.739H149.673V140.423C149.673 152.668 149.673 164.913 149.673 177.159C127.549 173.74 109.084 158.19 101.902 137.052C109.956 137.052 118.01 137.052 126.064 137.052H127.749V128.628H97.9936ZM156.417 99.9821H158.102V55.8023C157.539 55.81 156.977 55.8253 156.417 55.8486C156.417 70.5593 156.417 85.2707 156.417 99.9821ZM159.79 99.9821H161.475C161.475 85.2722 161.475 70.5627 161.475 55.8528C160.915 55.8302 160.353 55.8134 159.79 55.8035V99.9821Z" fill="white"/>
<path fill-rule="evenodd" clip-rule="evenodd" d="M171.592 125.258H176.651V110.092H171.592V125.258ZM181.709 105.037L181.71 130.313C176.651 130.313 171.593 130.313 166.534 130.313L166.533 105.037C171.592 105.037 176.651 105.037 181.709 105.037ZM151.356 125.258H156.416V110.092H151.356V125.258ZM146.298 130.313C146.298 121.888 146.298 113.462 146.298 105.037C151.357 105.037 156.415 105.037 161.474 105.037C161.474 113.462 161.474 121.888 161.474 130.313C156.415 130.313 151.357 130.313 146.298 130.313ZM136.18 105.037H141.239V130.313H136.18V105.037Z" fill="#FFB300"/>
<path fill-rule="evenodd" clip-rule="evenodd" d="M230.394 148.723C218.278 176.178 190.839 194.54 160.001 194.54C129.162 194.54 101.724 176.178 89.6076 148.723C94.8702 182.844 124.382 208.97 160.001 208.97C195.62 208.97 225.132 182.844 230.394 148.723ZM232.895 136.353C232.905 136.832 232.913 137.312 232.913 137.793C232.913 178.033 200.269 210.653 160.001 210.653C119.732 210.653 87.0884 178.033 87.0884 137.793C87.0884 137.312 87.0976 136.832 87.1065 136.353C95.4178 168.839 124.901 192.857 160.001 192.857C195.1 192.857 224.584 168.839 232.895 136.353Z" fill="white"/>
<path fill-rule="evenodd" clip-rule="evenodd" d="M158.79 3.41809C158.845 3.83901 158.928 4.26072 159.036 4.68436C159.927 8.14724 162.384 11.0009 163.761 14.2787C165.571 18.5856 164.875 22.4518 162.896 26.587L162.869 26.643L162.847 26.7006C162.407 27.8243 161.629 30.3214 161.629 31.5413C161.629 34.0483 163.664 36.0816 166.173 36.0816C168.682 36.0816 170.717 34.0483 170.717 31.5413C170.717 29.942 169.695 28.6563 169.233 27.2218C168.302 24.3325 169.062 23.4696 170.298 21.0287C170.544 20.5404 170.744 20.0671 170.896 19.5977C171.311 20.3861 171.55 21.1633 171.362 21.5808C170.714 23.0187 170.489 24.477 170.819 26.0285C171.173 27.6909 172.092 29.1345 172.82 30.647C173.636 32.3416 174.079 33.8897 174.079 35.7879C174.079 43.5577 167.776 49.8551 160 49.8551C152.226 49.8551 145.923 43.557 145.923 35.7879C145.923 33.7466 146.282 32.4636 147.15 30.6539C147.888 29.117 148.489 27.8347 148.849 26.1409C149.11 24.9175 149.034 23.6956 149.009 22.4583C148.995 21.7667 148.993 21.0176 149.152 20.3413C149.21 20.0958 149.289 19.8726 149.388 19.6692C149.565 20.2656 149.781 20.8555 150.012 21.4447C150.545 22.8062 151.433 24.6685 151.366 26.1463C151.335 26.8535 151.09 27.3123 150.726 27.9007C150.007 29.0596 149.492 29.9133 149.3 31.3139L149.284 31.427V31.5413C149.284 34.0483 151.319 36.0816 153.828 36.0816C155.557 36.0816 157.131 35.1032 157.899 33.5608C158.93 31.4879 158.29 29.5268 157.32 27.5907C156.969 26.8899 156.512 26.105 156.277 25.3616C155.504 22.9148 156.416 21.3247 157.319 19.1053C158.566 16.0415 158.512 12.9248 158.335 9.69061C158.239 7.9369 157.954 5.03075 158.79 3.41809ZM160.663 3.43323e-05C153.194 2.50279 158.775 11.0598 155.759 18.4713C154.769 20.901 153.717 22.8482 154.671 25.8686C155.355 28.0297 157.59 30.4001 156.39 32.8115C155.923 33.7524 154.951 34.3989 153.828 34.3989C152.249 34.3989 150.969 33.1189 150.969 31.5413C151.284 29.2343 152.943 28.5798 153.049 26.2223C153.194 23.0249 150.429 19.8958 150.624 16.4434C145.859 18.6675 147.864 22.6804 147.202 25.79C146.359 29.7539 144.239 30.8089 144.239 35.7879C144.239 44.4864 151.296 51.5389 160 51.5389C168.706 51.5389 175.762 44.4864 175.762 35.7879C175.762 28.9958 170.719 27.104 172.898 22.2724C173.862 20.1344 171.081 16.118 169.298 15.5729C170.78 20.8694 165.596 21.4278 167.629 27.7379C168.007 28.9101 169.032 30.4941 169.032 31.5413C169.032 33.1189 167.753 34.3989 166.173 34.3989C164.594 34.3989 163.314 33.1189 163.314 31.5413C163.314 31.2187 163.674 29.2096 164.415 27.3128C171.402 12.7145 158.365 8.92101 160.663 3.43323e-05Z" fill="white"/>
</svg>
