<svg width="580" height="514" viewBox="0 0 580 514" fill="none" xmlns="http://www.w3.org/2000/svg">
<path fill-rule="evenodd" clip-rule="evenodd" d="M198.455 514H187.567V481.712H8.31731C7.5686 478.102 6.8698 474.47 6.22188 470.824H198.455V514ZM220.249 514H209.365V459.922H111.322V405.463H220.249V416.351H122.205V449.033H220.249V514ZM580 42.6651V54.936C542.932 35.5634 502.468 22.0279 459.907 15.4463V285.625H449.019V2.95324C495.632 8.64834 539.766 22.359 580 42.6651ZM394.547 0C390.909 0.0511936 387.282 0.150362 383.659 0.300743V285.625H394.547V0ZM580 67.2847V79.7096C549.651 62.6172 516.625 49.7144 481.707 41.7853V285.625H470.819V28.1532L484.115 31.1689C517.926 38.8472 550.135 51.0955 580 67.2847ZM580 252.941V263.826H536.184V117.63L552.379 126.677C561.887 131.986 571.107 137.789 580 144.053V157.491C569.525 149.705 558.529 142.582 547.072 136.183V252.941H580ZM580 117.8C559.54 104.724 537.562 93.8123 514.389 85.3877V285.625H579.754V350.987H580V274.737H525.273V101.336C544.492 109.407 562.811 119.298 580 130.813V117.8ZM580 209.371V220.259H579.754V209.371H580ZM580 198.465V187.581H579.754V198.465H580ZM580 383.669V394.552H579.754V383.669H580ZM580 405.463V416.351H579.754V405.463H580ZM580 449.033V514H579.754V449.033H580ZM0 405.463C0.0591888 409.104 0.17247 412.732 0.321243 416.351H89.5229V449.033H2.95178C3.39651 452.676 3.89098 456.308 4.4301 459.922H100.411V405.463H0ZM0 394.552H100.411V340.098H4.4301C3.88617 343.712 3.39651 347.339 2.95178 350.987H89.5229V383.669H0.321243C0.17247 387.287 0.0591888 390.911 0 394.552ZM220.249 394.552V383.669H122.205V350.987H220.249V285.625H285.611V85.3877C215.859 110.746 156.942 158.639 117.635 220.259H220.249V209.371H138.245C173.011 161.709 220.254 124.21 274.727 101.336V274.737H209.365V340.098H111.322V394.552H220.249ZM220.249 198.465V187.581H185.34C205.27 167.442 228.013 150.1 252.931 136.183V252.941H63.2977C109.431 147.447 203.666 67.8283 318.293 41.798V285.625H329.181V28.1664L315.88 31.1816C199.031 57.7207 101.314 138.835 53.3263 248.575L46.6553 263.826H263.819V117.63L247.626 126.677C221.917 141.035 198.315 158.993 177.599 179.922L159.25 198.465H220.249ZM340.092 285.625H350.975V2.95324C191.639 22.4212 61.2758 135.553 16.579 285.625H187.567V318.307H8.31731C7.5686 321.916 6.8698 325.545 6.22188 329.191H198.455V274.737H187.567H31.4716C77.8738 138.079 197.163 37.5491 340.092 15.4463V285.625ZM405.453 285.625H416.336V0.328084C412.718 0.182502 409.089 0.0737564 405.453 0.0097644V285.625ZM481.708 449.033H514.391V350.987H481.708V449.033ZM547.068 318.307L547.073 481.712H449.03L449.02 318.307H547.068ZM350.976 449.033H383.66V350.987H350.976V449.033ZM318.294 481.712V318.307H416.337V481.712H318.294ZM252.932 318.307H285.612V481.712H252.932V318.307Z" fill="#2462BA"/>
</svg>
