<svg width="415" height="825" viewBox="0 0 415 825" fill="none" xmlns="http://www.w3.org/2000/svg">
<path fill-rule="evenodd" clip-rule="evenodd" d="M151.213 51.6396C139.497 63.3553 120.503 63.3553 108.787 51.6396C97.0711 39.9239 97.0711 20.9289 108.787 9.2132C120.503 -2.50253 139.497 -2.50253 151.213 9.2132C162.929 20.9289 162.929 39.9239 151.213 51.6396ZM278.421 306.27L278.493 306.198C290.208 294.482 309.203 294.482 320.919 306.198L405.772 391.051C406.704 391.983 407.562 392.961 408.346 393.979C416.182 404.146 416.605 418.185 409.616 428.771C408.518 430.434 407.236 432.013 405.772 433.477L320.919 518.33C320.187 519.062 319.426 519.749 318.641 520.389C310.685 526.878 300.178 528.673 290.811 525.774C286.304 524.379 282.06 521.898 278.492 518.33L214.853 454.691L172.427 497.117L236.066 560.756C237.53 562.221 238.812 563.799 239.91 565.463C247.599 577.107 246.317 592.932 236.066 603.183L151.294 687.955L151.213 688.036C145.35 693.9 137.662 696.828 129.977 696.823C124.226 696.818 118.477 695.171 113.493 691.88C111.829 690.782 110.251 689.5 108.787 688.036L108.743 687.992L23.9342 603.183C12.2184 591.467 12.2184 572.472 23.9342 560.756L87.5737 497.117L45.1471 454.69L-18.4117 518.249L-18.4657 518.303L-18.4927 518.33C-28.744 528.581 -44.5685 529.863 -56.213 522.174C-57.8765 521.076 -59.4547 519.795 -60.9192 518.33L-60.9999 518.249L-145.772 433.477C-148.908 430.341 -151.205 426.683 -152.662 422.783C-155.287 415.756 -155.187 407.942 -152.362 400.975C-150.897 397.364 -148.701 393.98 -145.772 391.051L-60.9905 306.27L-60.9189 306.198C-53.1808 298.46 -42.2672 295.833 -32.3728 298.316C-27.2868 299.593 -22.4701 302.22 -18.4925 306.198L45.1471 369.838L87.5734 327.411L23.9339 263.772C16.6116 256.449 13.8657 246.284 15.6963 236.829C16.7946 231.156 19.5404 225.739 23.9338 221.345L23.9846 221.295L108.697 136.582L108.786 136.492C114.759 130.52 122.623 127.592 130.45 127.709C130.78 127.714 131.109 127.724 131.439 127.74C138.63 128.083 145.721 131.001 151.213 136.492L151.299 136.579L236.066 221.345C236.869 222.149 237.618 222.987 238.311 223.855C244.698 231.845 246.408 242.343 243.44 251.676C242.033 256.1 239.575 260.263 236.066 263.772L172.426 327.411L214.853 369.838L278.421 306.27ZM257.279 412.264L299.706 454.691L342.132 412.264L299.706 369.838L257.279 412.264ZM172.426 412.264L130 369.838L87.5735 412.264L130 454.691L172.426 412.264ZM2.72072 412.264L-39.7055 369.838L-82.1321 412.264L-39.7058 454.69L2.72072 412.264ZM130 284.985L172.426 242.559L130 200.132L87.5735 242.558L130 284.985ZM87.5736 581.97L130 624.396L172.426 581.97L130 539.543L87.5736 581.97ZM108.787 815.315C120.503 827.031 139.497 827.031 151.213 815.315C162.929 803.599 162.929 784.604 151.213 772.889C139.497 761.173 120.503 761.173 108.787 772.889C97.0711 784.604 97.0711 803.599 108.787 815.315Z" fill="#FCF6E7"/>
</svg>
