<svg width="180" height="140" viewBox="0 0 180 140" fill="none" xmlns="http://www.w3.org/2000/svg">
<rect width="20" height="60" rx="10" transform="matrix(1 0 0 -1 120 60)" fill="#FFB300"/>
<rect width="20" height="60" rx="10" transform="matrix(1 0 0 -1 120 140)" fill="#FFB300"/>
<rect width="20" height="60" rx="10" transform="matrix(1 0 0 -1 40 60)" fill="#FFB300"/>
<rect width="20" height="100" rx="10" transform="matrix(1 0 0 -1 80 100)" fill="#FFB300"/>
<rect width="20" height="60" rx="10" transform="matrix(0 1 1 0 80 0)" fill="#FFB300"/>
<rect width="20" height="60" rx="10" transform="matrix(0 1 1 0 80 80)" fill="#FFB300"/>
<rect width="20" height="100" rx="10" transform="matrix(0 1 1 0 40 40)" fill="#FFB300"/>
<rect width="20" height="60" rx="10" transform="matrix(0 1 1 0 0 0)" fill="#FFB300"/>
<circle r="10" transform="matrix(1 0 0 -1 50 90)" fill="#FFB300"/>
</svg>
