<svg width="271" height="283" viewBox="0 0 271 283" fill="none" xmlns="http://www.w3.org/2000/svg">
<rect x="141.421" y="42.4264" width="20" height="60" rx="10" transform="rotate(45 141.421 42.4264)" fill="#D7E4F8"/>
<rect x="226.273" y="127.279" width="20" height="60" rx="10" transform="rotate(45 226.273 127.279)" fill="#D7E4F8"/>
<rect x="84.8525" y="98.995" width="20" height="60" rx="10" transform="rotate(45 84.8525 98.995)" fill="#D7E4F8"/>
<rect x="169.705" y="70.7107" width="20" height="140" rx="10" transform="rotate(45 169.705 70.7107)" fill="#D7E4F8"/>
<rect x="197.989" y="98.995" width="20" height="140" rx="10" transform="rotate(45 197.989 98.995)" fill="#D7E4F8"/>
<rect x="169.705" y="183.848" width="20" height="60" rx="10" transform="rotate(45 169.705 183.848)" fill="#D7E4F8"/>
<rect x="127.278" y="56.5685" width="20" height="60" rx="10" transform="rotate(-45 127.278 56.5685)" fill="#D7E4F8"/>
<circle cx="141.421" cy="14.1421" r="10" transform="rotate(45 141.421 14.1421)" fill="#D7E4F8"/>
<circle cx="141.421" cy="268.701" r="10" transform="rotate(45 141.421 268.701)" fill="#D7E4F8"/>
<rect x="183.848" y="113.137" width="20" height="60" rx="10" transform="rotate(-45 183.848 113.137)" fill="#D7E4F8"/>
<rect x="70.71" y="113.137" width="20" height="140" rx="10" transform="rotate(-45 70.71 113.137)" fill="#D7E4F8"/>
<rect x="98.9941" y="84.8528" width="20" height="140" rx="10" transform="rotate(-45 98.9941 84.8528)" fill="#D7E4F8"/>
<rect x="42.4258" y="141.421" width="20" height="60" rx="10" transform="rotate(-45 42.4258 141.421)" fill="#D7E4F8"/>
<rect x="98.9941" y="197.99" width="20" height="60" rx="10" transform="rotate(-45 98.9941 197.99)" fill="#D7E4F8"/>
</svg>
