<?xml version="1.0" encoding="UTF-8"?>
<svg width="70px" height="70px" viewBox="0 0 70 70" version="1.1" xmlns="http://www.w3.org/2000/svg" xmlns:xlink="http://www.w3.org/1999/xlink">
    <!-- Generator: Sketch 47 (45396) - http://www.bohemiancoding.com/sketch -->
    <title>49469</title>
    <desc>Created with Sketch.</desc>
    <defs></defs>
    <g id="Review+" stroke="none" stroke-width="1" fill="none" fill-rule="evenodd">
        <g id="WILD_FISH_review_1440" transform="translate(-1135.000000, -275.000000)" fill-rule="nonzero" fill="#597DA3">
            <g id="Group-33" transform="translate(1065.000000, 214.000000)">
                <g id="49469" transform="translate(70.000000, 61.000000)">
                    <path d="M66.2765957,0 L3.72340426,0 C1.66659574,0 0,1.66734043 0,3.72340426 L0,66.2765957 C0,68.3326596 1.66659574,70 3.72340426,70 L66.2765957,70 C68.3334043,70 70,68.3326596 70,66.2765957 L70,3.72340426 C70,1.66734043 68.3334043,0 66.2765957,0 Z M52.2569643,38.9868996 C53.8846628,40.6037867 55.6057537,42.1262477 57.0676328,43.9132314 C57.714392,44.7022723 58.3243024,45.5171835 58.7887238,46.4349286 C59.4500954,47.7439605 58.8528914,49.1816965 57.7004149,49.2586604 L50.5492151,49.2567201 C48.7029654,49.4112945 47.2328271,48.6545913 45.9926759,47.3694894 C45.0047481,46.3443829 44.0860705,45.2500737 43.1337208,44.191336 C42.7455382,43.75607 42.3338487,43.3466741 41.847191,43.0232967 C40.872605,42.3791289 40.0257189,42.5757423 39.465999,43.6111969 C38.8967493,44.6654073 38.7652374,45.8347401 38.7131408,47.0098937 C38.6337254,48.7270279 38.1254667,49.175229 36.4336006,49.2547798 C32.8186107,49.4281101 29.3872292,48.8693139 26.1998119,47.0150677 C23.3859647,45.3787779 21.2099822,43.067276 19.3141773,40.4530929 C15.6191366,35.3547243 12.7894064,29.7583544 10.2481129,24.0015893 C9.67568655,22.7048458 10.0943646,22.0108779 11.497794,21.9843609 C13.8332426,21.9371478 16.168056,21.9436153 18.5003281,21.9817739 C19.4507718,21.9966492 20.0791066,22.5502714 20.4431469,23.4621958 C21.7042638,26.6215933 23.2519115,29.6277099 25.1896477,32.4152234 C25.7061656,33.1570512 26.233484,33.8975855 26.9831656,34.4221037 C27.8116273,35.0015961 28.4431387,34.8108034 28.8338626,33.8697751 C29.0835446,33.2695866 29.1915496,32.6318863 29.2449168,31.9903054 C29.4304312,29.7939259 29.4526675,27.5975464 29.1324645,25.4095747 C28.9323377,24.0410414 28.1750322,23.1569275 26.8344999,22.8982255 C26.1521626,22.7662875 26.2519084,22.5088791 26.5835472,22.1124184 C27.1591502,21.4255647 27.7017163,21.0012935 28.7792247,21.0012935 L36.8611732,21 C38.1356319,21.2535279 38.4189861,21.8356073 38.5924294,23.1414054 L38.6000533,32.2819919 C38.5867115,32.7877542 38.8484647,34.2856385 39.7404587,34.616777 C40.4539269,34.856723 40.9272428,34.2739969 41.3541801,33.8122139 C43.2906457,31.7199619 44.670568,29.2487116 45.9075426,26.6920896 C46.4520147,25.5647958 46.92406,24.3967566 47.3814928,23.2280705 C47.7201202,22.3633593 48.2499798,21.9377946 49.2080475,21.9533167 L56.9882174,21.9617245 C57.2169338,21.9617245 57.4513681,21.9643115 57.6781786,22.00247 C58.9882153,22.232068 59.347173,22.8063863 58.942472,24.1089506 C58.3046074,26.1546363 57.0625502,27.8594821 55.8478119,29.5682085 C54.5498463,31.395291 53.1642061,33.1622253 51.8757703,34.9983623 C50.6953395,36.682512 50.790638,37.5284674 52.2569643,38.9868996 Z" id="Shape"></path>
                </g>
            </g>
        </g>
    </g>
</svg>