<?xml version="1.0" encoding="UTF-8"?>
<svg width="40px" height="31px" viewBox="0 0 40 31" version="1.1" xmlns="http://www.w3.org/2000/svg" xmlns:xlink="http://www.w3.org/1999/xlink">
    <!-- Generator: Sketch 48.2 (47327) - http://www.bohemiancoding.com/sketch -->
    <title>Combined Shape</title>
    <desc>Created with Sketch.</desc>
    <defs></defs>
    <g id="WILD_FISH_recipe_1440-Copy" stroke="none" stroke-width="1" fill="none" fill-rule="evenodd" transform="translate(-1030.000000, -1961.000000)">
        <g id="Group-36" transform="translate(-35.000000, 1633.000000)" fill="#00B4AD">
            <g id="Group-29" transform="translate(370.000000, 90.000000)">
                <g id="Group-5" transform="translate(411.000000, 62.000000)">
                    <g id="Group-4" transform="translate(38.000000, 0.000000)">
                        <g id="Group">
                            <g id="logo" transform="translate(15.000000, 20.000000)">
                                <path d="M247.896903,158.978201 C250.093792,160.749144 251.260993,162.540821 251.260993,162.540821 C251.260993,162.540821 250.923339,160.452068 249.562374,158.689865 C252.067731,158.414664 256.160613,158.66389 258.428359,162.554095 C258.428359,162.554095 254.304818,164.675123 254.304818,169.363551 C254.304818,175.747576 259.127691,181.365517 266.159446,181.365517 C268.003421,181.365517 269.72149,181.08462 271.014569,180.790955 C270.76099,181.620878 267.116334,186.089696 259.091024,186.089696 C252.832377,186.089696 244.980685,184.200535 239.689529,177.833364 C230.706889,167.022912 231.001112,158.127668 231.001112,158.127668 L232.584439,158.127668 L232.54733,156.510722 C232.54733,156.510722 234.645768,156 236.744206,156 C243.22374,156 247.420616,159.106722 247.420616,159.106722 C247.420616,159.106722 247.592767,159.051655 247.896903,158.978201 Z M238.365727,158.829307 C238.365727,158.443179 238.097075,158.1298 237.766058,158.1298 C237.435041,158.1298 237.166389,158.443179 237.166389,158.829307 C237.166389,159.215435 237.435041,159.528814 237.766058,159.528814 C238.097075,159.528814 238.365727,159.215435 238.365727,158.829307 Z M237.166389,169.157353 C237.166389,169.157353 240.210306,168.880387 241.889709,165.695279 C243.042199,163.509464 243.394034,161.956239 243.324339,159.232556 C241.399743,165.926268 237.166389,169.157353 237.166389,169.157353 Z" id="Combined-Shape"></path>
                            </g>
                        </g>
                    </g>
                </g>
            </g>
        </g>
    </g>
</svg>