<?xml version="1.0" encoding="UTF-8"?>
<svg width="126px" height="42px" viewBox="0 0 126 42" version="1.1" xmlns="http://www.w3.org/2000/svg" xmlns:xlink="http://www.w3.org/1999/xlink">
    <!-- Generator: Sketch 46.2 (44496) - http://www.bohemiancoding.com/sketch -->
    <title>Google Play - Large</title>
    <desc>Created with Sketch.</desc>
    <defs></defs>
    <g id="Index+" stroke="none" stroke-width="1" fill="none" fill-rule="evenodd" opacity="0.518190299">
        <g id="WILD_FISH_index_1440" transform="translate(-822.000000, -3122.000000)">
            <g id="Banner" transform="translate(165.000000, 2960.000000)">
                <g id="Google-Play---Large" transform="translate(658.000000, 163.000000)">
                    <rect id="Rectangle-4" stroke="#5D5D5D" x="-0.5" y="-0.5" width="125" height="41" rx="2"></rect>
                    <g id="Text" transform="translate(35.313059, 17.805405)">
                        <g id="Google" transform="translate(0.000000, 0.286744)" fill="#575757">
                            <path d="M48.713587,10.9544645 L47.9024394,11.7169236 C47.7154834,11.8196202 47.52903,11.9388484 47.3430792,12.0235104 C46.7796985,12.2784984 46.2067689,12.3426211 45.6976657,12.3426211 C45.1558955,12.3426211 44.3065526,12.3080549 43.4406248,11.6833594 C42.2369702,10.8377411 41.7107796,9.38546173 41.7107796,8.11953903 C41.7107796,5.49852298 43.8512243,4.21306289 45.5966492,4.21306289 C46.2072715,4.21306289 46.833976,4.36535434 47.3435818,4.68646888 C48.1909145,5.2445369 48.4100349,5.9704261 48.5316568,6.35967103 L44.5442681,7.96524374 L43.2385918,8.06643741 C43.6612529,10.2150494 45.1197105,11.4649414 46.7314518,11.4649414 C47.5365686,11.4649414 48.1341241,11.2034409 48.6824277,10.9329232 C48.6819251,10.9334242 48.7919879,10.8763149 48.713587,10.9544645 L48.713587,10.9544645 Z M46.308288,6.67978365 C46.6324455,6.56255931 46.8003038,6.46086469 46.8003038,6.22591505 C46.8003038,5.55062268 46.0338849,4.77113091 45.1192079,4.77113091 C44.4412413,4.77113091 43.1697397,5.29713757 43.1697397,7.12313213 C43.1697397,7.40817764 43.2034119,7.71175863 43.2210018,8.01533962 L46.308288,6.67978365 L46.308288,6.67978365 Z" id="Shape"></path>
                            <path d="M40.3774619,10.8232133 C40.3774619,11.4804711 40.4950633,11.5826667 41.0524132,11.6337645 C41.3428985,11.6678297 41.6323787,11.6833594 41.9193461,11.7169236 L41.292139,12.089136 L38.3033564,12.089136 C38.6953609,11.5821657 38.7627052,11.5320699 38.7627052,11.1939227 L38.7627052,10.8167008 L38.7561718,0.765965892 L37.4364235,0.765965892 L38.7064174,0.155798164 L41.1318192,0.155798164 C40.6061312,0.458878193 40.4493294,0.644232922 40.3814825,1.23536422 L40.3774619,10.8232133 L40.3774619,10.8232133 Z" id="Shape"></path>
                            <path d="M35.7422608,5.04265054 C36.1312498,5.36176124 36.9444077,6.03855648 36.9444077,7.32351562 C36.9444077,8.57541147 36.2362869,9.16554085 35.5221352,9.72410983 C35.3030148,9.94403071 35.0472068,10.1824871 35.0472068,10.5511927 C35.0472068,10.9249079 35.3035174,11.1277962 35.4879605,11.2790857 L36.100593,11.7504879 C36.8454015,12.3771872 37.5243733,12.9517869 37.5243733,14.1190207 C37.5243733,15.7095647 35.9804789,17.3126326 33.0630612,17.3126326 C30.605495,17.3126326 29.41742,16.1464007 29.41742,14.8955068 C29.41742,14.2863409 29.7209722,13.424191 30.724604,12.8340616 C31.77598,12.1933354 33.2007654,12.1076714 33.9631637,12.0575756 C33.7249457,11.7509888 33.4530554,11.4298743 33.4530554,10.9058715 C33.4530554,10.6193231 33.5394974,10.4484961 33.622924,10.2471107 C33.4374757,10.2646443 33.2505198,10.2826788 33.0806512,10.2826788 C31.2819539,10.2826788 30.2647527,8.94511901 30.2647527,7.62659565 C30.2647527,6.8491077 30.6205721,5.98695773 31.3513085,5.36126029 C32.3182528,4.56774166 33.4711479,4.43097993 34.3873326,4.43097993 L37.8822029,4.43097993 L36.7956471,5.04265054 L35.7422608,5.04265054 L35.7422608,5.04265054 Z M34.5401139,12.5475132 C34.4014046,12.5294787 34.317978,12.5294787 34.1501197,12.5294787 C33.9963333,12.5294787 33.0801486,12.562542 32.3705201,12.7999964 C31.9951004,12.9367581 30.9100523,13.3410318 30.9100523,14.5423309 C30.9100523,15.7406241 32.0815424,16.604277 33.8943117,16.604277 C35.5221352,16.604277 36.3870578,15.8262881 36.3870578,14.7787834 C36.3865553,13.9166334 35.8271951,13.4617629 34.5401139,12.5475132 L34.5401139,12.5475132 Z M35.0281091,9.33536586 C35.4201136,8.94561997 35.4542883,8.40658838 35.4542883,8.10000164 C35.4542883,6.88417481 34.7270698,4.99055083 33.3173616,4.99055083 C32.877613,4.99055083 32.4011768,5.21097267 32.1307943,5.55062268 C31.8443295,5.90279667 31.7583901,6.35967103 31.7583901,6.79901183 C31.7583901,7.93117855 32.4202745,9.80877186 33.8777269,9.80877186 C34.3023983,9.80877186 34.7597369,9.60287782 35.0281091,9.33536586 L35.0281091,9.33536586 Z" id="Shape"></path>
                            <path d="M25.2274957,12.3080549 C22.5317113,12.3080549 21.089336,10.2150494 21.089336,8.32092444 C21.089336,6.10718783 22.9026078,4.21306289 25.481796,4.21306289 C27.9750447,4.21306289 29.536529,6.15878658 29.536529,8.20169626 C29.536529,10.1965139 27.9931372,12.3080549 25.2274957,12.3080549 L25.2274957,12.3080549 Z M27.3483402,10.9404376 C27.7584371,10.3994022 27.8579459,9.72410983 27.8579459,9.06585007 C27.8579459,7.57700073 27.1463071,4.73756667 25.0430526,4.73756667 C24.4836924,4.73756667 23.9203117,4.95548372 23.5142353,5.31166537 C22.8518483,5.90329763 22.7337444,6.64621942 22.7337444,7.37561532 C22.7337444,9.04581172 23.5614768,11.8005838 25.6169873,11.8005838 C26.280882,11.8005838 26.9578435,11.4804711 27.3483402,10.9404376 L27.3483402,10.9404376 Z" id="Shape"></path>
                            <path d="M16.2018448,12.3080549 C13.5055579,12.3080549 12.0651929,10.2150494 12.0651929,8.32092444 C12.0651929,6.10718783 13.8789673,4.21306289 16.4571503,4.21306289 C18.9488913,4.21306289 20.5088679,6.15878658 20.5088679,8.20169626 C20.5093705,10.1965139 18.967989,12.3080549 16.2018448,12.3080549 L16.2018448,12.3080549 Z M18.3231919,10.9404376 C18.7302734,10.3994022 18.8317925,9.72410983 18.8317925,9.06585007 C18.8317925,7.57700073 18.1181434,4.73756667 16.0168992,4.73756667 C15.4555287,4.73756667 14.8981788,4.95548372 14.4910973,5.31166537 C13.8277052,5.90329763 13.7101038,6.64621942 13.7101038,7.37561532 C13.7101038,9.04581172 14.5413543,11.8005838 16.5933467,11.8005838 C17.2557337,11.8005838 17.9316901,11.4804711 18.3231919,10.9404376 L18.3231919,10.9404376 Z" id="Shape"></path>
                            <path d="M10.9876833,11.7214323 L8.71405756,12.2399246 C7.79284714,12.3847016 6.96561727,12.5124461 6.08963813,12.5124461 C1.70371158,12.5124461 0.033169606,9.29428724 0.033169606,6.77646869 C0.033169606,3.70058211 2.40077588,0.849625999 6.45500636,0.849625999 C7.31289299,0.849625999 8.13861516,0.97536664 8.89045956,1.17925684 C10.0820525,1.51339631 10.6388999,1.92418247 10.9876833,2.16564457 L9.66692988,3.41603755 L9.11008256,3.54027532 L9.50711269,2.90906732 C8.96936302,2.38556545 7.98080824,1.41921607 6.10471522,1.41921607 C3.59638941,1.41921607 1.70371158,3.31985348 1.70371158,6.09466386 C1.70371158,9.07486732 3.86476167,11.8782324 7.3294778,11.8782324 C8.34768419,11.8782324 8.87186448,11.6743422 9.34779807,11.4839778 L9.34779807,8.92908833 L6.94752476,9.05783473 L8.22003146,8.37653086 L11.5887568,8.37653086 L11.1771521,8.77178729 C11.0655816,8.86596753 11.0510071,8.89802889 11.0198478,9.02427049 C11.0032629,9.1685466 10.9881859,9.6274248 10.9881859,9.78873351 L10.9881859,11.7214323 L10.9876833,11.7214323 Z" id="Shape"></path>
                        </g>
                        <g id="Play" transform="translate(51.977714, 0.997505)" fill="#434343">
                            <path d="M1.62436979,10.3158406 L1.62436979,14.6220818 L0.766483166,14.6220818 L0.766483166,3.66511252 L1.62436979,3.66511252 L1.62436979,4.91249975 C2.18272483,4.10645716 3.20394664,3.46673286 4.39051391,3.46673286 C6.51738926,3.46673286 7.95071829,5.07531133 7.95071829,7.62168454 C7.95071829,10.1510251 6.51738926,11.7931678 4.39051391,11.7931678 C3.27078842,11.7936688 2.26765912,11.2180672 1.62436979,10.3158406 L1.62436979,10.3158406 Z M7.0290053,7.6221855 C7.0290053,5.70301262 6.02537343,4.23921122 4.24577381,4.23921122 C3.14062285,4.23921122 2.08371858,5.10536886 1.62436979,5.8598127 L1.62436979,9.36702474 C2.08371858,10.1234724 3.14062285,11.0206895 4.24577381,11.0206895 C6.02537343,11.0206895 7.0290053,9.54436413 7.0290053,7.6221855 L7.0290053,7.6221855 Z" id="Shape"></path>
                            <polygon id="Shape" points="9.12220847 11.5962911 9.12220847 0.639822772 9.97959253 0.639822772 9.97959253 11.5962911 9.12220847 11.5962911"></polygon>
                            <path d="M19.6058143,13.9132252 C19.7887497,13.9943805 20.1018506,14.0449773 20.3008683,14.0449773 C20.8255511,14.0449773 21.1909194,13.8310679 21.5190974,13.0751212 L22.1447968,11.6624176 L18.765015,3.66511252 L19.7219079,3.66511252 L22.6207304,10.5953755 L25.4914091,3.66511252 L26.4618713,3.66511252 L22.3402965,13.3401284 C21.9126096,14.3370363 21.2396686,14.8164538 20.3154428,14.8164538 C20.0380243,14.8164538 19.672656,14.7668588 19.4580587,14.7017342 L19.6058143,13.9132252 L19.6058143,13.9132252 Z" id="Shape"></path>
                            <path d="M17.1000013,11.572746 C17.0427083,11.2977197 16.9994873,11.0557566 16.9678254,10.8528683 C16.9411892,10.650982 16.9266147,10.444587 16.9266147,10.2346853 C16.6321088,10.6650088 16.2154785,11.0231943 15.6832571,11.305735 C15.1505331,11.5892776 14.6449479,11.7290451 13.9503964,11.7290451 C13.1146229,11.7290451 12.4663078,11.524153 12.0029385,11.1083573 C11.5415794,10.6930625 11.3093922,10.1304858 11.3093922,9.41862349 C11.3093922,8.70776306 11.6456114,8.1306586 12.3160395,7.68931397 C12.9864676,7.24596549 13.8534005,7.02604461 14.9253818,7.02604461 L16.9261121,7.02604461 L16.9261121,6.04015784 C16.9261121,5.4725716 16.7316176,5.02671834 16.3446389,4.70259804 C15.9556499,4.3789787 15.4098591,4.21466424 14.7017383,4.21466424 C14.0549309,4.21466424 13.5302481,4.3644509 13.1307051,4.65600888 C12.7346801,4.95357836 12.5356625,5.32228398 12.5356625,5.76663437 L11.6576731,5.76663437 L11.6395805,5.72405288 C11.6074161,5.12540721 11.8828243,4.59940054 12.467313,4.1460329 C13.0487862,3.69266525 13.8116872,3.46472903 14.749985,3.46472903 C15.6847648,3.46472903 16.4416349,3.68915854 17.0125541,4.13701564 C17.5824683,4.58036411 17.8684305,5.22109032 17.8684305,6.05869331 L17.8684305,9.97168192 C17.8684305,10.2527198 17.8814973,10.5242394 17.9171798,10.7887456 C17.9533648,11.0537528 18.0111603,11.318259 18.0880535,11.5737479 L17.1000013,11.5737479 L17.1000013,11.572746 Z M14.0559361,10.9495534 C14.7846623,10.9495534 15.30834,10.7872427 15.8440794,10.4661282 C16.3757982,10.1465165 16.7371459,9.73021981 16.9271173,9.22625534 L16.9271173,7.70334081 L14.9168381,7.70334081 C14.1489115,7.70334081 13.5131607,7.87266486 13.0131038,8.21481967 C12.5120417,8.5554716 12.2577414,8.96776063 12.2577414,9.44717813 C12.2577414,9.89904291 12.4185637,10.2612361 12.7387007,10.5352605 C13.0588376,10.8122907 13.4970785,10.9495534 14.0559361,10.9495534 L14.0559361,10.9495534 Z" id="Shape"></path>
                        </g>
                    </g>
                    <g id="Get-It-On" transform="translate(35.313059, 8.524324)" fill="#4B4B4B">
                        <path d="M0.0123257941,2.94614803 C0.0123257941,1.22555663 1.29472196,0.119279321 2.88988515,0.119279321 C3.95863421,0.119279321 4.65709588,0.627112308 5.09312085,1.25012919 L4.31197365,1.70113812 C4.01615459,1.29108346 3.49795766,0.971640131 2.88988515,0.971640131 C1.80521527,0.971640131 0.998902899,1.79123752 0.998902899,2.94614803 C0.998902899,4.08518875 1.80470169,4.92065592 2.88988515,4.92065592 C3.44916806,4.92065592 3.94219982,4.66673943 4.18871571,4.42920465 L4.18871571,3.58503469 L2.54476291,3.58503469 L2.54476291,2.74137666 L5.14242403,2.74137666 L5.14242403,4.7814114 C4.60830628,5.37985571 3.83537627,5.78120759 2.88988515,5.78120759 C1.29472196,5.78120759 0.0123257941,4.6590605 0.0123257941,2.94614803 L0.0123257941,2.94614803 Z" id="Shape"></path>
                        <polygon id="Shape" points="6.33186316 5.67472648 6.33186316 0.208866793 10.0881489 0.208866793 10.0881489 1.05303675 7.2932751 1.05303675 7.2932751 2.46237568 10.0311421 2.46237568 10.0311421 3.30654563 7.2932751 3.30654563 7.2932751 4.83106845 10.0881489 4.83106845 10.0881489 5.67472648 6.33186316 5.67472648"></polygon>
                        <polygon id="Shape" points="12.7500069 5.67472648 12.7500069 1.05354868 11.0896197 1.05354868 11.0896197 0.209378722 15.3723196 0.209378722 15.3723196 1.05354868 13.712446 1.05354868 13.712446 5.67472648"></polygon>
                        <polygon id="Shape" points="18.7151777 5.67472648 18.7151777 0.208866793 19.6765896 0.208866793 19.6765896 5.67472648"></polygon>
                        <polygon id="Shape" points="22.3553955 5.67472648 22.3553955 1.05354868 20.6950083 1.05354868 20.6950083 0.209378722 24.9777082 0.209378722 24.9777082 1.05354868 23.317321 1.05354868 23.317321 5.67472648"></polygon>
                        <path d="M28.0822676,2.94614803 C28.0822676,1.3151441 29.2414059,0.119279321 30.8858722,0.119279321 C32.5210942,0.119279321 33.6889632,1.31565603 33.6889632,2.94614803 C33.6889632,4.57664003 32.5210942,5.77301673 30.8858722,5.77301673 C29.2408923,5.77301673 28.0822676,4.57664003 28.0822676,2.94614803 L28.0822676,2.94614803 Z M32.7023861,2.94614803 C32.7023861,1.81529816 31.9869765,0.971640131 30.8858722,0.971640131 C29.7760372,0.971640131 29.0688447,1.81529816 29.0688447,2.94614803 C29.0688447,4.06829511 29.7760372,4.92065592 30.8858722,4.92065592 C31.9869765,4.92065592 32.7023861,4.06829511 32.7023861,2.94614803 L32.7023861,2.94614803 Z" id="Shape"></path>
                        <polygon id="Shape" points="38.6346881 5.67472648 35.7740767 1.76615303 35.7740767 5.67472648 34.8126648 5.67472648 34.8126648 0.208866793 35.7992419 0.208866793 38.6023329 3.99508935 38.6023329 0.208866793 39.5642584 0.208866793 39.5642584 5.67472648"></polygon>
                    </g>
                    <path d="M9.61910394,31.995639 C9.22856188,31.8904429 8.97435897,31.5027041 8.97435897,30.9026958 L8.97435897,11.0973042 C8.97435897,10.5416051 9.1895963,10.1668265 9.53078904,10.0305642 L9.53078904,10.0305642 L19.2635661,21.0678276 L9.61910394,31.995639 L9.61910394,31.995639 Z M10.9588907,31.575234 L22.6740827,24.9354564 L19.8206812,21.6996128 L10.9588907,31.575234 L10.9588907,31.575234 Z M22.7547546,17.1120809 L11.2028263,10.563314 L19.8375729,20.4174401 L22.7547546,17.1120809 L22.7547546,17.1120809 Z M23.5385435,17.5564095 L28.0639529,20.1218557 C28.920785,20.6075923 28.9286208,21.3905942 28.0639529,21.8806589 L23.4240551,24.5103973 L20.3976615,21.0566232 L23.5385435,17.5564095 L23.5385435,17.5564095 Z" id="google-play" fill="#5D5D5D"></path>
                </g>
            </g>
        </g>
    </g>
</svg>