<svg width="18" height="16" viewBox="0 0 18 16" xmlns="http://www.w3.org/2000/svg"><title>4295</title><g fill-rule="nonzero" fill="#FFF"><path d="M6.5 13c-.828 0-1.5.67-1.5 1.5S5.672 16 6.5 16 8 15.33 8 14.5 7.328 13 6.5 13zM13.5 13c-.83 0-1.5.67-1.5 1.5s.67 1.5 1.5 1.5c.828 0 1.5-.67 1.5-1.5s-.672-1.5-1.5-1.5zM17.06 4.406H8.735c-.417 0-.754.33-.754.74 0 .407.337.74.754.74l7.367-.002-.466 1.552h-7.49c-.387 0-.7.31-.7.688 0 .38.313.686.7.686l7.076.003-.44 1.45H6.34l-.56-4.38-.536-4.267C5.2 1.278 4.95 1 4.614.916l-3.56-.89C.602-.087.142.18.026.624c-.115.444.158.895.61 1.008l3.004.752 1.17 8.61S4.85 12 5.78 12h9.33c.782 0 .933-.8.933-.8l1.85-5.388s.548-1.406-.832-1.406z"/></g></svg>