<?xml version="1.0" encoding="UTF-8"?>
<svg width="15px" height="13px" viewBox="0 0 15 13" version="1.1" xmlns="http://www.w3.org/2000/svg" xmlns:xlink="http://www.w3.org/1999/xlink">
    <!-- Generator: Sketch 47 (45396) - http://www.bohemiancoding.com/sketch -->
    <title>25246</title>
    <desc>Created with Sketch.</desc>
    <defs></defs>
    <g id="Cabinet+" stroke="none" stroke-width="1" fill="none" fill-rule="evenodd">
        <g id="WILD_FISH_cab_orders_1440" transform="translate(-195.000000, -394.000000)" fill-rule="nonzero" fill="#808080">
            <g id="Group-17" transform="translate(195.000000, 206.000000)">
                <g id="Group-5" transform="translate(0.000000, 184.000000)">
                    <g id="25246" transform="translate(0.000000, 4.000000)">
                        <path d="M14.610765,0.389016393 C14.3663661,0.144617486 14.0725683,0.022431694 13.7293989,0.022431694 L1.24811475,0.022431694 C0.90489071,0.022431694 0.611147541,0.144590164 0.366584699,0.389016393 C0.12215847,0.633469945 0,0.927213115 0,1.27046448 L0,10.7560656 C0,11.0993989 0.12215847,11.3931694 0.366584699,11.6375956 C0.611147541,11.8820219 0.90489071,12.004235 1.24811475,12.004235 L13.7293989,12.004235 C14.0725683,12.004235 14.3663388,11.8820219 14.610765,11.6375956 C14.8551639,11.3931967 14.9774863,11.0994262 14.9774863,10.7560656 L14.9774863,1.27046448 C14.9774863,0.927213115 14.8551639,0.633469945 14.610765,0.389016393 Z M13.9048087,10.9318579 C13.8554372,10.9810383 13.7969126,11.0057104 13.7293989,11.0057104 L1.24811475,11.0057104 C1.18054645,11.0057104 1.12202186,10.9810383 1.07262295,10.9316667 C1.02325137,10.8821311 0.99852459,10.8237705 0.99852459,10.7560656 L0.99852459,6.01333333 L13.9789071,6.01333333 L13.9789071,10.7562568 C13.9788798,10.8239617 13.9542077,10.8822951 13.9048087,10.9318579 Z M13.9788798,3.01773224 L0.998497268,3.01773224 L0.998497268,1.27035519 C0.998497268,1.20275956 1.02314208,1.14437158 1.07259563,1.09486339 C1.12202186,1.04560109 1.18054645,1.02087432 1.24808743,1.02087432 L13.7293716,1.02087432 C13.7968852,1.02087432 13.8554098,1.0454918 13.9047814,1.09486339 C13.9541803,1.14437158 13.9788525,1.20275956 13.9788525,1.27035519 L13.9788525,3.01773224 L13.9788798,3.01773224 Z" id="Shape"></path>
                        <rect id="Rectangle-path" x="1.99704918" y="9.00871585" width="1.99696721" height="1"></rect>
                        <rect id="Rectangle-path" x="4.99256831" y="9.00871585" width="2.99546448" height="1"></rect>
                    </g>
                </g>
            </g>
        </g>
    </g>
</svg>