<svg width="22" height="19" viewBox="0 0 22 19" xmlns="http://www.w3.org/2000/svg"><path d="M6.887 15.2c-.95 0-1.722.85-1.722 1.9 0 1.05.77 1.9 1.722 1.9.95 0 1.722-.85 1.722-1.9 0-1.05-.772-1.9-1.723-1.9zm.574-6.333h12.054V7.6H7.46v1.267zm0-5.7h13.775v1.266H7.46V3.167zM16.07 15.2c.95 0 1.722.85 1.722 1.9 0 1.05-.77 1.9-1.722 1.9-.95 0-1.722-.85-1.722-1.9 0-1.05.77-1.9 1.722-1.9zM5.74 10.767L3.456 0H0v1.267h2.566l2.025 9.5c0 1.748 1.286 3.166 2.87 3.166h10.906v-1.266H7.46c-.95 0-1.72-.85-1.72-1.9z" fill-rule="nonzero" fill="#000"/></svg>