<svg width="19" height="22" viewBox="0 0 19 22" xmlns="http://www.w3.org/2000/svg"><path d="M8.92 12h.154c1.405-.023 2.542-.498 3.38-1.407 1.847-2 1.54-5.432 1.507-5.76C13.84 2.375 12.633 1.2 11.636.65c-.743-.41-1.61-.632-2.58-.65h-.081c-.533 0-1.578.083-2.58.632-1.007.55-2.235 1.725-2.355 4.2-.034.33-.34 3.76 1.505 5.76.834.91 1.97 1.385 3.376 1.408zm-3.6-7.05c0-.015.004-.03.004-.038.16-3.307 2.6-3.662 3.645-3.662H9.025c1.295.027 3.496.535 3.645 3.662 0 .013 0 .027.006.037.004.03.34 3.167-1.185 4.818-.603.655-1.41.978-2.468.987h-.048c-1.055-.01-1.866-.332-2.465-.987-1.52-1.642-1.195-4.792-1.19-4.82zM19 17.56c.003.233.008 1.426-.223 2.02-.047.117-.134.216-.24.283-.14.085-3.465 2.137-9.03 2.137-5.565 0-8.89-2.048-9.03-2.137-.11-.067-.194-.166-.24-.282-.245-.598-.24-1.792-.236-2.024v-.014c.006-.036.006-.07.006-.112.028-.88.088-2.95 2.095-3.617.015-.004.03-.01.048-.013 2.095-.514 3.82-1.677 3.84-1.69.28-.192.67-.125.868.147.2.273.13.65-.152.84-.08.05-1.92 1.293-4.223 1.865-1.077.372-1.197 1.485-1.23 2.504 0 .04-.004.076-.004.112-.01.402.023 1.024.097 1.382.754.41 3.71 1.837 8.16 1.837 4.468 0 7.405-1.422 8.154-1.833.074-.358.102-.98.097-1.382-.004-.035-.004-.07-.004-.11-.033-1.02-.153-2.134-1.23-2.505-2.304-.572-4.145-1.81-4.224-1.865-.282-.192-.35-.567-.152-.84.198-.273.587-.34.87-.148.018.014 1.752 1.176 3.838 1.69l.047.014c2.006.662 2.066 2.732 2.094 3.617 0 .04.005.076.005.112v.013z" fill-rule="nonzero" fill="#1A1A1A"/></svg>