<?xml version="1.0" encoding="UTF-8"?>
<svg width="25px" height="25px" viewBox="0 0 25 25" version="1.1" xmlns="http://www.w3.org/2000/svg" xmlns:xlink="http://www.w3.org/1999/xlink">
    <!-- Generator: Sketch 46.2 (44496) - http://www.bohemiancoding.com/sketch -->
    <title>Combined Shape</title>
    <desc>Created with Sketch.</desc>
    <defs></defs>
    <g id="Cart+" stroke="none" stroke-width="1" fill="none" fill-rule="evenodd">
        <g id="WILD_FISH_Cart_1440" transform="translate(-996.000000, -618.000000)" fill="#FAC917">
            <path d="M1020.67881,631.88056 C1021.26958,632.674574 1021.01864,633.791316 1020.14555,634.262602 L1019.57569,634.575085 C1018.95354,634.913181 1018.61895,635.604742 1018.74965,636.29118 L1018.86989,636.921268 C1019.05288,637.884331 1018.3314,638.785921 1017.33284,638.84227 L1016.67933,638.878129 C1015.96831,638.913988 1015.36185,639.395519 1015.17364,640.071711 L1015.00112,640.691554 C1014.73448,641.634126 1013.68887,642.14127 1012.7635,641.767315 L1012.15704,641.521427 C1011.4983,641.255048 1010.74023,641.429219 1010.2697,641.956854 L1009.841,642.438385 C1009.18749,643.181173 1008.02163,643.186295 1007.35244,642.458876 L1006.91851,641.982468 C1006.44275,641.459955 1005.67945,641.29603 1005.02594,641.572654 L1004.42471,641.823665 C1003.50457,642.212988 1002.4485,641.726334 1002.17141,640.783763 L1001.98843,640.169042 C1001.78976,639.497972 1001.17285,639.026686 1000.46183,638.99595 L999.808318,638.970337 C998.809755,638.929356 998.072596,638.038011 998.239895,637.074949 L998.349684,636.44486 C998.46993,635.753299 998.124877,635.066861 997.497508,634.73901 L996.922419,634.436773 C996.038873,633.97061 995.772241,632.85899 996.34733,632.059853 L996.723752,631.537341 C997.13677,630.963602 997.126314,630.200324 996.708068,629.63683 L996.32119,629.11944 C995.730417,628.330549 995.981365,627.213806 996.854454,626.737398 L997.424314,626.424915 C998.046456,626.086819 998.381053,625.395258 998.250351,624.70882 L998.130105,624.078732 C997.947122,623.115669 998.668597,622.214079 999.66716,622.15773 L1000.32067,622.121871 C1001.03169,622.086012 1001.63815,621.604481 1001.82636,620.928289 L1001.99888,620.308446 C1002.26552,619.365874 1003.31113,618.85873 1004.2365,619.232685 L1004.84296,619.478573 C1005.5017,619.744952 1006.25977,619.570781 1006.7303,619.043146 L1007.159,618.561615 C1007.81774,617.818827 1008.9836,617.813705 1009.64756,618.541124 L1010.08149,619.017532 C1010.55725,619.540045 1011.32055,619.70397 1011.97406,619.427346 L1012.57529,619.176335 C1013.49543,618.787012 1014.5515,619.273666 1014.82859,620.216237 L1015.01157,620.830958 C1015.21024,621.502028 1015.82715,621.973314 1016.53817,622.00405 L1017.19168,622.029663 C1018.19024,622.070644 1018.9274,622.961989 1018.76011,623.925051 L1018.65032,624.55514 C1018.53007,625.246701 1018.87512,625.933139 1019.50249,626.26099 L1020.07758,626.563227 C1020.96113,627.02939 1021.22776,628.14101 1020.65267,628.940147 L1020.27625,629.462659 C1019.86323,630.036398 1019.87369,630.799676 1020.29193,631.36317 L1020.67881,631.88056 Z M1008.15549,626.993442 C1008.15549,626.993442 1006.58223,626 1004.15329,626 C1003.36667,626 1002.58004,626.163314 1002.58004,626.163314 L1002.59395,626.680368 L1002.00042,626.680368 C1002.00042,626.680368 1001.89012,629.524815 1005.25739,632.981692 C1007.24085,635.017733 1010.18416,635.621833 1012.5303,635.621833 C1015.53869,635.621833 1016.90494,634.192832 1017,633.927446 C1016.51527,634.021352 1015.87123,634.111175 1015.17999,634.111175 C1012.54404,634.111175 1010.73612,632.314716 1010.73612,630.273285 C1010.73612,628.774059 1012.28189,628.095814 1012.28189,628.095814 C1010.99844,626.217698 1008.15549,626.993442 1008.15549,626.993442 Z" id="Combined-Shape"></path>
        </g>
    </g>
</svg>