<svg width="37" height="15" viewBox="0 0 37 15" xmlns="http://www.w3.org/2000/svg"><title>166054</title><path d="M35.824 7.244c0-4.5 1.17-7.202 1.17-7.202-1.506 0-4.273 4.41-5.136 5.852h-3.69c.192-.584.503-1.127.92-1.583.08-.09.168-.176.257-.26L28.12 2.73c-.125.117-.248.24-.363.367-.72.79-1.217 1.76-1.452 2.797h-3.13c.235-1.037.733-2.01 1.454-2.8.114-.127.237-.25.363-.367l-1.223-1.32c-.163.15-.322.31-.47.473-1.024 1.12-1.7 2.527-1.96 4.014h-3.13c.26-1.492.937-2.902 1.963-4.026.148-.163.307-.323.47-.475L19.422.073c-.2.186-.396.382-.578.582-1.327 1.453-2.18 3.298-2.456 5.24h-2.882V.94C3.6.942 0 7.244 0 7.244s3.6 6.302 13.504 6.302V8.594h2.88c.31 2.212 1.39 4.296 3.037 5.822l1.225-1.32c-1.283-1.19-2.14-2.79-2.438-4.502h3.132c.296 1.707 1.152 3.304 2.43 4.488l1.224-1.32c-.913-.846-1.547-1.963-1.82-3.168h3.13c.273 1.203.906 2.32 1.817 3.164l1.225-1.32c-.544-.505-.947-1.145-1.177-1.844h3.69c.863 1.44 3.63 5.852 5.136 5.852 0 0-1.17-2.7-1.17-7.202zm-29.522 0c-.498 0-.9-.403-.9-.9s.402-.9.9-.9c.497 0 .9.403.9.9s-.403.9-.9.9z" fill-rule="nonzero" fill="#CF1A3A"/></svg>