<svg width="59" height="60" viewBox="0 0 59 60" xmlns="http://www.w3.org/2000/svg"><g fill-rule="nonzero" fill="#FFF"><path d="M59 58.466V21.524c0-.38-.482-.86-.953-1.215L48.31 13.3V5.558c0-.76-.642-1.277-1.286-1.277H35.927L30.273.193c-.383-.257-1.027-.257-1.423 0L23.197 4.28H12.1c-.768 0-1.287.638-1.287 1.277v7.658L.953 20.32C.37 20.678 0 21.144 0 21.537v37.188C0 59.448.58 59.95 1.188 60H57.7c.83-.012 1.3-.65 1.3-1.534zM56.55 23.82v32.35L35.26 39.26l21.29-15.44zm-.952-2.247l-7.287 5.265v-10.58l7.288 5.315zM29.506 2.61L31.77 4.27h-4.54l2.276-1.657zm16.232 4.223v21.87L29.506 40.438l-16.23-11.733V6.834h32.462zM2.462 23.82l21.29 15.44-21.29 17.01V23.82zm8.363 3.116l-7.472-5.4 7.472-5.388v10.788zm-6.05 30.622L25.82 40.756l2.907 2.11c.556.418.977.418 1.546 0l2.908-2.11L54.35 57.558H4.775z"/><path d="M21 13h17v2H21zM21 21h17v2H21zM21 28h17v2H21z"/></g></svg>