<?xml version="1.0" encoding="UTF-8"?>
<svg width="50px" height="50px" viewBox="0 0 50 50" version="1.1" xmlns="http://www.w3.org/2000/svg" xmlns:xlink="http://www.w3.org/1999/xlink">
    <!-- Generator: Sketch 47 (45396) - http://www.bohemiancoding.com/sketch -->
    <title>352776</title>
    <desc>Created with Sketch.</desc>
    <defs></defs>
    <g id="Delivery_Payment_Guarantee+" stroke="none" stroke-width="1" fill="none" fill-rule="evenodd">
        <g id="WILD_FISH_payment_1440" transform="translate(-718.000000, -402.000000)" fill-rule="nonzero" fill="#CF1A3A">
            <g id="352776" transform="translate(718.000000, 402.000000)">
                <path d="M48.6727658,17.1584856 L32.8401447,1.32535251 C31.985457,0.470724271 30.8457107,0 29.6306713,0 C28.4157296,0 27.2758856,0.47052895 26.4211979,1.32515718 L1.32529329,26.4222807 C0.47070324,27.2770066 0,28.4167062 0,29.6317999 C0,30.8468935 0.47070324,31.9867885 1.32529329,32.841319 L3.27763752,34.7937505 C3.27783283,34.7938482 3.27793049,34.7940435 3.2781258,34.7942388 C3.27832111,34.7944341 3.27851643,34.7946294 3.27871174,34.7948248 L16.3998087,47.916508 L14.5830114,47.916508 C14.0078159,47.916508 13.5414096,48.3828375 13.5414096,48.9581563 C13.5414096,49.5333775 14.0078159,49.9998047 14.5830114,49.9998047 L20.3631886,49.9998047 C20.3645558,49.9998047 20.3658253,49.9999023 20.3671925,49.9999023 C20.3685597,49.9999023 20.3698292,49.9998047 20.3711964,49.9998047 L35.4154383,50 C35.9906338,50 36.4570402,49.5335728 36.4570402,48.9583516 C36.4570402,48.3830328 35.9906338,47.9167033 35.4154383,47.9167033 L24.3349669,47.916508 L48.6728634,23.577524 C50.4423951,21.8077179 50.4423951,18.9280964 48.6727658,17.1584856 Z M47.1997186,22.1044109 L22.1036187,47.2016321 C21.6433647,47.661809 21.0281301,47.9155314 20.3710011,47.916508 L20.3630909,47.916508 C19.7061572,47.9154337 19.0911179,47.661809 18.6310592,47.2016321 L5.48779431,34.0576823 L29.5888744,9.95533002 C29.9956128,9.54857347 29.9956128,8.88897353 29.5888744,8.48221697 C29.1820384,8.07546042 28.5226632,8.07546042 28.1157295,8.48231464 L4.01464942,32.5846669 L2.79824287,31.368206 C2.3372076,30.9071501 2.08330129,30.2905209 2.08330129,29.6318975 C2.08330129,28.9732742 2.3372076,28.3565473 2.79834053,27.8953937 L27.8942451,2.7983679 C28.355378,2.33731203 28.9720774,2.08339437 29.6306713,2.08339437 C30.2892652,2.08339437 30.9059646,2.33731203 31.3670975,2.79846556 L37.0021575,8.43367964 L12.9007844,32.5363249 C12.494046,32.9429838 12.494046,33.6025837 12.9007844,34.0095356 C13.1042024,34.212865 13.370804,34.3145298 13.637308,34.3145298 C13.903812,34.3145298 14.1704136,34.2127674 14.3738316,34.0094379 L38.4752047,9.90689035 L47.1997186,18.631501 C48.157043,19.5889659 48.1569454,21.1469461 47.1997186,22.1044109 Z" id="Shape"></path>
                <path d="M24.7173949,30.0444899 C24.3405731,29.6676645 23.7296966,29.667755 23.3526033,30.0444899 L15.7588068,37.638268 C15.381985,38.0150934 15.381985,38.6260663 15.7588068,39.0030726 C15.947263,39.1915306 16.1942554,39.2857143 16.4411574,39.2857143 C16.6880594,39.2857143 16.9350518,39.1914401 17.123508,39.0030726 L24.7173045,31.4092945 C25.0942168,31.0322881 25.0942168,30.4213153 24.7173949,30.0444899 Z" id="Shape"></path>
                <path d="M21.0640079,38.3620776 L18.1239279,41.3020522 C17.7682145,41.6577528 17.7682145,42.23456 18.1239279,42.590346 C18.3018273,42.7681536 18.534984,42.8571429 18.7680552,42.8571429 C19.0012973,42.8571429 19.2342832,42.7681536 19.4121826,42.590346 L22.3522626,39.6503715 C22.707976,39.2946709 22.707976,38.7178636 22.3522626,38.3620776 C21.9965492,38.0062916 21.4199775,38.0062916 21.0640079,38.3620776 Z" id="Shape"></path>
                <path d="M25.7044097,34.8114004 L25.2877286,35.2279733 C24.9041058,35.6114892 24.9041058,36.2333098 25.2876365,36.6170099 C25.4793559,36.8088139 25.7308379,36.9047619 25.9821357,36.9047619 C26.2334335,36.9047619 26.4848234,36.8088139 26.6765427,36.6170099 L27.0932238,36.200437 C27.4768466,35.8169211 27.4768466,35.1951005 27.0933158,34.8114925 C26.7099693,34.4279766 26.0879404,34.4278845 25.7044097,34.8114004 Z" id="Shape"></path>
                <path d="M39.5801535,15.7836991 C39.3832886,15.5868306 39.1162412,15.4761905 38.8377758,15.4761905 C38.5593103,15.4761905 38.2923614,15.5868306 38.095398,15.7836991 L33.6408364,20.2382429 C33.4439714,20.4352098 33.3333333,20.7021635 33.3333333,20.980634 C33.3333333,21.2591046 33.4439714,21.5261567 33.6408364,21.7230252 L36.6105442,24.6924914 C36.815579,24.8975299 37.0842997,25 37.3529219,25 C37.621741,25 37.8902648,24.8974315 38.0952996,24.6924914 L42.5496644,20.2381445 C42.9596357,19.8281658 42.9596357,19.1633408 42.5496644,18.7533621 L39.5801535,15.7836991 Z M37.3528235,22.4654164 L35.8679696,20.980634 L38.8376773,18.010971 L40.3224328,19.4958517 L37.3528235,22.4654164 Z" id="Shape"></path>
                <path d="M30.7440885,7.14285714 C30.995568,7.14285714 31.2469555,7.04691653 31.438673,6.8550353 L31.85535,6.43821844 C32.2387849,6.05464012 32.2386928,5.43277552 31.8550737,5.04938135 C31.4715467,4.66598718 30.8495239,4.66607925 30.4660889,5.04965757 L30.0494119,5.46647443 C29.665977,5.85005274 29.6660691,6.47191735 30.0496882,6.85531152 C30.2414977,7.04710067 30.492701,7.14285714 30.7440885,7.14285714 Z" id="Shape"></path>
                <path d="M10.2281318,34.8115127 L9.8114548,35.2281736 C9.42792777,35.6115938 9.42792777,36.2335005 9.8114548,36.6171968 C10.0032644,36.8089069 10.2546518,36.9047619 10.5059472,36.9047619 C10.7572426,36.9047619 11.00863,36.8089069 11.2004396,36.6171968 L11.6171166,36.2005359 C12.0006437,35.8169316 12.0006437,35.1950249 11.6171166,34.8115127 C11.2334975,34.4279085 10.6117509,34.4279085 10.2281318,34.8115127 Z" id="Shape"></path>
            </g>
        </g>
    </g>
</svg>