<svg width="29" height="18" viewBox="0 0 29 18" xmlns="http://www.w3.org/2000/svg"><path d="M12.334 1.78c1.563 1.033 2.393 2.077 2.393 2.077s-.24-1.218-1.208-2.245c1.78-.16 4.693-.015 6.307 2.253 0 0-2.934 1.236-2.934 3.97 0 3.72 3.43 6.996 8.434 6.996 1.312 0 2.535-.163 3.455-.334-.18.484-2.774 3.09-8.484 3.09-4.453 0-10.04-1.102-13.804-4.814C.104 6.47.312 1.284.312 1.284H1.44L1.412.342S2.906.044 4.4.044c4.61 0 7.595 1.81 7.595 1.81s.122-.03.34-.074zm-6.782-.087c0-.225-.19-.407-.426-.407s-.427.182-.427.407c0 .226.19.408.426.408.235 0 .426-.18.426-.407zM4.7 7.713s2.165-.16 3.36-2.017c.82-1.274 1.07-2.18 1.02-3.767C7.71 5.83 4.7 7.713 4.7 7.713z" fill="#CF1A3A" fill-rule="evenodd"/></svg>