<?xml version="1.0" encoding="UTF-8"?>
<svg width="38px" height="45px" viewBox="0 0 38 45" version="1.1" xmlns="http://www.w3.org/2000/svg" xmlns:xlink="http://www.w3.org/1999/xlink">
    <!-- Generator: Sketch 47 (45396) - http://www.bohemiancoding.com/sketch -->
    <title>352788</title>
    <desc>Created with Sketch.</desc>
    <defs></defs>
    <g id="Delivery_Payment_Guarantee+" stroke="none" stroke-width="1" fill="none" fill-rule="evenodd">
        <g id="WILD_FISH_payment_1440" transform="translate(-505.000000, -405.000000)" fill-rule="nonzero" fill="#CF1A3A">
            <g id="352788" transform="translate(505.000000, 405.000000)">
                <path d="M27.8719556,32.3461495 C27.1036426,31.8178287 26.1557038,31.5524904 25.239165,31.2959648 C25.0391507,31.2399479 24.8398246,31.1841929 24.6445418,31.1259947 C23.5232572,30.7916388 22.804238,30.1318268 22.7210493,29.3606792 C22.6537756,28.7369903 23.0239527,28.1353765 23.7108836,27.7514605 C23.8560983,27.6704019 24.0177443,27.6098478 24.1908319,27.5670063 L24.1908319,28.9513724 C24.1908319,29.4652963 24.601614,29.8821069 25.108489,29.8821069 C25.6151919,29.8821069 26.0261461,29.4652963 26.0261461,28.9513724 L26.0261461,27.6350641 C26.5618404,27.7689985 27.0836842,27.9849512 27.5110696,28.2470611 C27.944649,28.5133592 28.5088184,28.3726191 28.7712028,27.9327735 C29.0335872,27.4930152 28.8949106,26.9208059 28.4613312,26.6545951 C27.7823148,26.2376972 26.9224683,25.8952267 26.0262321,25.7302301 L26.0262321,25.0611693 C26.0262321,24.5472454 25.615278,24.1304348 25.108575,24.1304348 C24.6017861,24.1304348 24.1909179,24.5472454 24.1909179,25.0611693 L24.1909179,25.6738643 C23.7095071,25.7427074 23.2464202,25.8858033 22.8254008,26.1210391 C21.4874986,26.8688028 20.748521,28.1875541 20.8967466,29.5630204 C21.0631241,31.1066244 22.2706945,32.3584522 24.1270854,32.9118148 C24.1479901,32.9180098 24.1697551,32.9241175 24.1908319,32.9303125 L24.1908319,37.3125389 C23.4314657,37.1841888 22.8031197,36.8579475 22.6018149,36.4648699 C22.3684219,36.0086207 21.8146618,35.8307105 21.3648232,36.0673424 C20.9149845,36.3040615 20.7394881,36.8658003 20.9727951,37.3221368 C21.5308565,38.4131562 22.8255729,39.0277708 24.1907459,39.1846528 L24.1907459,40.156222 C24.1907459,40.6701459 24.601528,41.0869565 25.108403,41.0869565 C25.6151059,41.0869565 26.0260601,40.6701459 26.0260601,40.156222 L26.0260601,39.1174676 C26.2163533,39.0800357 26.402087,39.0335296 26.5802503,38.9765529 C28.0195791,38.5164645 29.0901934,37.2463134 29.3074132,35.740752 C29.5052769,34.3695612 28.9686363,33.1005444 27.8719556,32.3461495 Z M27.4914553,35.4713128 C27.37549,36.2752678 26.8013414,36.9542755 26.0286409,37.2012033 C26.0278666,37.2014651 26.0270064,37.2016396 26.0261461,37.2020758 L26.0261461,33.4848966 C26.3347273,33.6005077 26.6152635,33.7310391 26.8420325,33.8868741 C27.5629443,34.3828237 27.5364478,35.1600791 27.4914553,35.4713128 Z" id="Shape"></path>
                <path d="M25.5328813,20.6251172 C25.2147021,20.6251172 24.8990053,20.6372461 24.5868546,20.6608008 L24.5868546,4.4531543 C24.5868546,3.4744043 23.8949988,2.09337891 20.5996413,1.07235352 C18.3675111,0.380917969 15.4176383,0 12.2934716,0 C9.16930497,0 6.21952073,0.380917969 3.9873019,1.07235352 C0.691767091,2.09337891 0,3.4744043 0,4.4531543 L0,32.8127344 C0,33.7913965 0.691767091,35.1724219 3.9873019,36.1933594 C6.21952073,36.8848828 9.16939363,37.2658008 12.2934716,37.2658008 C12.8889605,37.2658008 13.4844493,37.2509473 14.0723139,37.2228223 C15.8588692,41.7694043 20.3221543,45 25.5327927,45 C32.3113655,45 37.826087,39.5328516 37.826087,32.8127344 C37.8261756,26.0924414 32.3114541,20.6251172 25.5328813,20.6251172 Z M4.55140724,2.86198242 C6.60596348,2.22547852 9.3553897,1.8749707 12.2934716,1.8749707 C15.2313762,1.8749707 17.9809797,2.22547852 20.035536,2.86198242 C22.2068495,3.53469727 22.695599,4.25416992 22.695599,4.4531543 C22.695599,4.65222656 22.2068495,5.37161133 20.035536,6.04441406 C17.9809797,6.68083008 15.2315535,7.03133789 12.2934716,7.03133789 C9.3553897,7.03133789 6.60587482,6.68083008 4.55140724,6.04432617 C2.37991639,5.37161133 1.89125559,4.65222656 1.89125559,4.4531543 C1.89125559,4.25425781 2.37991639,3.53478516 4.55140724,2.86198242 Z M1.89125559,6.96585938 C2.43302013,7.27092773 3.11902471,7.56500977 3.9873019,7.83395508 C6.21952073,8.52547852 9.16939363,8.90630859 12.2934716,8.90630859 C15.4175496,8.90630859 18.3675111,8.52539062 20.5996413,7.83404297 C21.4679185,7.56509766 22.1538344,7.27101563 22.695599,6.96594727 L22.695599,9.18 C22.695599,9.37889648 22.2068495,10.0983691 20.035536,10.7711719 C17.9808911,11.4075879 15.2315535,11.7580957 12.2934716,11.7580957 C10.9299732,11.7580957 9.5987449,11.6819824 8.33675534,11.532041 C7.81848411,11.4699023 7.3473768,11.8371973 7.28531901,12.3512695 C7.22317256,12.8653418 7.59312567,13.3321289 8.11166286,13.3936523 C9.44803312,13.5524707 10.854972,13.6330664 12.2935603,13.6330664 C15.4177269,13.6330664 18.3675998,13.2521484 20.5996413,12.5607129 C21.4679185,12.2917676 22.1538344,11.9976855 22.695599,11.6927051 L22.695599,18.6329883 C22.695599,18.8320605 22.2068495,19.5514453 20.035536,20.224248 C17.9809797,20.860752 15.2315535,21.2111719 12.2934716,21.2111719 C9.3553897,21.2111719 6.60578617,20.860752 4.55140724,20.224248 C2.37991639,19.5515332 1.89116693,18.8320605 1.89116693,18.6329883 L1.89116693,16.4192871 C2.43293147,16.7242676 3.11893605,17.0184375 3.98721324,17.2873828 C6.21943208,17.9789062 9.16930497,18.3597363 12.293383,18.3597363 C14.1545848,18.3597363 15.9369733,18.2272852 17.5910795,17.9659863 C18.1069571,17.8845996 18.4584701,17.4040137 18.3762879,16.8927539 C18.2941056,16.3813184 17.8081045,16.0330957 17.2936454,16.1143945 C15.759488,16.3566211 14.0304693,16.4846777 12.293383,16.4846777 C9.35547835,16.4846777 6.60578617,16.1341699 4.55131859,15.497666 C2.37982773,14.8249512 1.89107828,14.1055664 1.89107828,13.906582 L1.89107828,6.96585938 L1.89125559,6.96585938 Z M12.2934716,35.3908301 C9.35556701,35.3908301 6.60587482,35.0403223 4.55140724,34.4038184 C2.37991639,33.7311035 1.89116693,33.0117188 1.89116693,32.8127344 L1.89116693,30.5987695 C2.43293147,30.90375 3.11893605,31.1979199 3.98721324,31.4668652 C6.21934342,32.1583887 9.16930497,32.5393066 12.293383,32.5393066 C12.6097891,32.5393066 12.9267271,32.5349121 13.2425126,32.5269141 C13.2402962,32.6221875 13.2390551,32.7172852 13.2390551,32.8127344 C13.2390551,32.9194336 13.2405622,33.0256055 13.2433105,33.1316895 C13.244197,33.1646484 13.2458814,33.1977832 13.2471226,33.230918 C13.2496049,33.3038672 13.2519986,33.3769043 13.2558107,33.4494141 C13.2578497,33.4894043 13.2610413,33.5293945 13.2634349,33.569209 C13.267513,33.6345117 13.2714138,33.7000781 13.2763784,33.7651172 C13.2798359,33.8092383 13.2843573,33.8532715 13.288258,33.8972168 C13.2937546,33.9578613 13.2988079,34.0185938 13.305191,34.0789746 C13.3102442,34.1266113 13.3161841,34.1741602 13.3217693,34.2215332 C13.3283296,34.2776953 13.3346241,34.3339453 13.3418937,34.3899316 C13.3486314,34.4417871 13.3563443,34.4935547 13.3637912,34.5451465 C13.3710609,34.5958594 13.3781532,34.646748 13.386132,34.6972852 C13.3950861,34.7538867 13.404838,34.8103125 13.41459,34.8668262 C13.4222142,34.9116504 13.4298385,34.9565625 13.437906,35.0012988 C13.4492537,35.0630859 13.4615766,35.1246973 13.4738108,35.1863965 C13.4813464,35.2244531 13.488882,35.2625977 13.4967722,35.3004785 C13.5014709,35.323418 13.5057263,35.346709 13.5107796,35.3698242 C13.1071379,35.3837988 12.7003048,35.3908301 12.2934716,35.3908301 Z M14.3275488,27.7998926 C14.3271942,27.8008594 14.3266622,27.8015625 14.3263076,27.8025293 C14.2930624,27.8757422 14.2607037,27.9492188 14.2287882,28.0231348 C14.2197455,28.0441406 14.2103482,28.0649707 14.2014828,28.0860645 C14.1867662,28.1206934 14.1727589,28.155498 14.158397,28.1903027 C13.8341007,28.9716504 13.5888837,29.7931641 13.4339166,30.6454395 C13.055098,30.6575684 12.6738859,30.6643359 12.293383,30.6643359 C9.35530105,30.6643359 6.60578617,30.3138281 4.55131859,29.6773242 C2.37982773,29.0046094 1.89107828,28.2851367 1.89107828,28.0861523 L1.89107828,21.1456055 L1.89116693,21.1456055 C2.43293147,21.4505859 3.11893605,21.7447559 3.98721324,22.0137012 C6.21934342,22.7051367 9.16921632,23.0860547 12.293383,23.0860547 C14.7829643,23.0860547 17.1605757,22.8435645 19.1536947,22.3954102 C18.0436581,23.0642578 17.037524,23.9077441 16.1812151,24.9013477 C15.9338704,25.1884863 15.7014197,25.486084 15.4833309,25.7927344 C14.4549446,25.8887109 13.381788,25.937666 12.293383,25.937666 C10.9298846,25.937666 9.59865625,25.8615527 8.33666669,25.7116113 C7.81839546,25.6499121 7.34728815,26.0166797 7.28523036,26.5308398 C7.22308391,27.0449121 7.59303701,27.5116992 8.11157421,27.5732227 C9.44794447,27.732041 10.8548833,27.8126367 12.2934716,27.8126367 C12.9866572,27.8126367 13.6730164,27.7914551 14.3487371,27.7542773 C14.3417334,27.7695703 14.3345524,27.7846875 14.3275488,27.7998926 Z M25.5328813,43.1250293 C20.8740254,43.1250293 16.9207667,40.0731152 15.6003541,35.8802051 C15.5843078,35.8292285 15.5693252,35.7779004 15.5540767,35.726748 C15.5285444,35.6409668 15.5041645,35.5547461 15.4807599,35.4680859 C15.4651568,35.4099023 15.449997,35.351543 15.435369,35.2931836 C15.4234008,35.2450195 15.4109892,35.1970313 15.3996415,35.1484277 C15.3766801,35.0499902 15.3552258,34.9512012 15.3350127,34.8519727 C15.3267679,34.8114551 15.3191437,34.7707617 15.3113421,34.7300684 C15.2949411,34.6438477 15.279604,34.5573633 15.265508,34.470791 C15.2610753,34.4437207 15.2561107,34.4168262 15.2519439,34.389668 C15.2347451,34.2793652 15.2198512,34.168623 15.2063758,34.0577051 C15.202475,34.0254492 15.1988402,33.9931934 15.1952054,33.9609375 C15.1832371,33.8533594 15.1723327,33.7456934 15.1637332,33.6377637 C15.1629353,33.6282715 15.1620488,33.6189551 15.1612509,33.6094629 C15.1522082,33.4926563 15.1457365,33.375498 15.1406832,33.2580762 C15.1393534,33.2286328 15.1382895,33.1991895 15.1373143,33.1697461 C15.1331476,33.050918 15.1303993,32.932002 15.1303993,32.8127344 C15.1303993,32.6697363 15.1343001,32.5276172 15.1400626,32.3860254 C15.1410378,32.3629102 15.1416584,32.3395313 15.1427222,32.316416 C15.1487507,32.1887109 15.1577934,32.0616211 15.1684319,31.9351465 C15.1718007,31.895332 15.1752582,31.8555176 15.179159,31.8158789 C15.1899748,31.7035547 15.202741,31.5917578 15.2170143,31.4805762 C15.2249045,31.4203711 15.2336812,31.3606055 15.2425466,31.300752 C15.2506141,31.2458203 15.2596568,31.1911523 15.2685222,31.1364844 C15.2905971,31.003418 15.3143564,30.8710547 15.3416618,30.739834 C15.3419277,30.738252 15.342371,30.7366699 15.3427256,30.7350879 C16.1223488,26.9713477 18.9769187,23.9493164 22.6643928,22.8991113 C22.6795526,22.8948926 22.6944465,22.890498 22.7095177,22.8862793 C22.7948028,22.8624609 22.8807972,22.8396973 22.9670575,22.8178125 C23.0654634,22.793291 23.1644899,22.7696484 23.2642257,22.7477637 C23.3022582,22.7393262 23.3405568,22.7309766 23.3789439,22.7228906 C23.509354,22.6958203 23.6407392,22.6705957 23.7730996,22.6482715 C24.3452724,22.5512402 24.9332257,22.4999121 25.5330586,22.4999121 C31.2686172,22.4999121 35.9350087,27.1262109 35.9350087,32.8125586 C35.9348314,38.4989063 31.2684399,43.1250293 25.5328813,43.1250293 Z" id="Shape"></path>
                <path d="M4.70587605,12.9080903 C4.87074672,12.9459295 5.03950726,12.9827272 5.21135975,13.0182232 C5.29414417,13.0354071 5.37702834,13.0434783 5.45851614,13.0434783 C5.93986269,13.0434783 6.37632612,12.7571674 6.49262328,12.3317367 C6.62856927,11.8344463 6.27548871,11.3352465 5.70387721,11.2169556 C5.54908031,11.1849311 5.39717587,11.1518652 5.24866261,11.1178447 C4.68004332,10.9873168 4.09825831,11.2824799 3.94854817,11.7768196 C3.7985388,12.2712461 4.13765572,12.777736 4.70587605,12.9080903 Z" id="Shape"></path>
                <path d="M19.9343359,17.6086957 C20.0308505,17.6086957 20.1291843,17.5964776 20.2263692,17.5710305 C20.4272497,17.5183667 20.6296623,17.4616583 20.8280533,17.4025063 C21.3622348,17.2431667 21.6485231,16.7327913 21.4673667,16.2626088 C21.2863061,15.7925106 20.7063569,15.5406513 20.1720797,15.6999909 C19.9977215,15.7520648 19.8198206,15.801948 19.6430687,15.8481236 C19.1024721,15.9898524 18.7948319,16.4903692 18.9557853,16.966113 C19.0881098,17.3564992 19.4941796,17.6086957 19.9343359,17.6086957 Z" id="Shape"></path>
                <path d="M5.70326013,25.5642598 C5.54826063,25.5322277 5.39595416,25.4991539 5.24723843,25.4652121 C4.67960511,25.3357816 4.09720994,25.6311019 3.94809523,26.1259065 C3.79908026,26.6204508 4.13890221,27.1267141 4.70723372,27.2564918 C4.87200797,27.2940796 5.04047268,27.3306257 5.2120294,27.3661301 C5.29461601,27.3831444 5.37730236,27.3913043 5.45849257,27.3913043 C5.94014804,27.3913043 6.37662026,27.1046649 6.49272028,26.6789592 C6.62846952,26.1813767 6.27498288,25.6822317 5.70326013,25.5642598 Z" id="Shape"></path>
            </g>
        </g>
    </g>
</svg>