<svg width="26" height="23" viewBox="0 0 26 23" xmlns="http://www.w3.org/2000/svg"><title>Shape</title><path d="M10.594 18.032c-.545 2.556-3.03 4.468-5.196 4.468C1.112 22.5.5 20.056.5 20.056c4.388 0 5.242-1.175 5.306-1.223h-3.47c.613-3.055 5.92-3.055 7.144-3.055.454 0 .83-.33.904-.764-2.703-.353-4.396-1.258-5.407-2.06-.386.352-1.056.762-2.156.922-.2.402-.615.68-1.096.68-.676 0-1.224-.548-1.224-1.223s.548-1.222 1.224-1.222c.424 0 .797.215 1.017.54.7-.116 1.117-.356 1.35-.548-.305-.36-.427-.602-.427-.602s.122-.242.427-.602c-.233-.192-.65-.432-1.35-.55-.22.327-.592.54-1.016.54C1.048 10.89.5 10.343.5 9.67c0-.676.548-1.224 1.224-1.224.48 0 .896.278 1.097.68 1.1.16 1.77.57 2.157.923 1.01-.803 2.704-1.708 5.407-2.06-.073-.434-.45-.765-.904-.765-1.225 0-6.53 0-7.143-3.055h3.47C5.74 4.12 4.886 2.944.5 2.944.5 2.944 1.112.5 5.398.5c2.166 0 4.65 1.912 5.196 4.468 1.218.428 2.118 1.536 2.238 2.865h.933V6.55c0-.842-.686-1.528-1.53-1.528V3.8c1.52 0 2.755 1.234 2.755 2.75v1.283h.918V6.55c0-1.516 1.236-2.75 2.755-2.75v1.222c-.844 0-1.53.686-1.53 1.528v1.283c.495 0 .945.197 1.275.515.33-.318.78-.515 1.276-.515.637 0 1.198.325 1.528.817l2.86-1.428S25.5 8.396 25.5 11.5c0 3.104-1.43 4.278-1.43 4.278l-2.858-1.427c-.33.493-.89.817-1.528.817-.496 0-.945-.197-1.276-.515-.33.318-.78.515-1.275.515v1.283c0 .842.686 1.528 1.53 1.528V19.2c-1.52 0-2.755-1.234-2.755-2.75v-1.283h-.918v1.283c0 1.516-1.236 2.75-2.755 2.75v-1.222c.844 0 1.53-.686 1.53-1.528v-1.283h-.933c-.12 1.33-1.02 2.437-2.238 2.865z" fill-rule="nonzero" fill="#E6E6E6"/></svg>