<svg width="44" height="20" viewBox="0 0 44 20" xmlns="http://www.w3.org/2000/svg"><title>166073</title><path d="M44 2c-1.896 0-5.588 7.188-5.968 7.936C35.356 9 31.208 7.6 27.016 6.396c.075-1.4.352-5.396.352-5.396-3.09.393-4.644 2.57-5.36 4.074l-.013-.003L14 0l-1.658 4.145C3.35 5.142 0 11 0 11s2.206 3.858 7.844 5.846C9.744 15.593 11 13.44 11 11h2c0 2.558-1.073 4.87-2.792 6.51 1.423.307 3.016.49 4.792.49.178 0 .363-.005.555-.013.54.75 1.268 1.454 2.245 2.013l.887-2.385c1.763-.305 3.758-.77 5.812-1.314.99 1.296 2.585 2.674 5.003 2.982l-.907-4.14c3.634-1.087 7.098-2.26 9.436-3.078C38.412 12.812 42.104 20 44 20c0 0-2-4-2-9s2-9 2-9zM7 11c-.552 0-1-.448-1-1s.448-1 1-1 1 .448 1 1-.448 1-1 1z" fill-rule="nonzero" fill="#E6E6E6"/></svg>