<svg width="15" height="18" viewBox="0 0 15 18" xmlns="http://www.w3.org/2000/svg"><title>289597</title><g fill-rule="nonzero" fill="#CF1A3A"><path d="M3.675.11c-.147-.147-.384-.147-.53 0-.074.073-.11.17-.11.265V3.75h-.75V.375c0-.096-.037-.192-.11-.265-.146-.147-.384-.147-.53 0-.074.073-.11.17-.11.265V3.75h-.75V.375C.785.28.75.183.675.11.53-.037.29-.037.145.11.07.183.035.28.035.375V6s.494.394 1.123.61l.002.89s-.75 6.75-.75 9c0 .75.375 1.5 1.5 1.5s1.5-.75 1.5-1.5c0-2.25-.75-9-.75-9v-.888C3.29 6.396 3.784 6 3.784 6V.374c0-.096-.037-.192-.11-.265zM2.66 16.5c0 .235-.055.43-.154.55-.11.132-.31.2-.596.2-.285 0-.486-.068-.596-.2-.1-.12-.154-.315-.154-.55 0-2.184.738-8.85.745-8.918l.005-.04.005.04c.007.067.745 6.734.745 8.917zm.375-10.894c-.3.182-.74.394-1.125.394s-.826-.212-1.125-.394V4.5h2.25v1.106zM9.784 4.05C9.784 2.186 8.777 0 7.534 0c-1.242 0-2.25 2.186-2.25 4.05 0 1.468.626 2.298 1.498 2.585l.003.865s-.75 6.75-.75 9c0 .75.374 1.5 1.5 1.5 1.124 0 1.5-.75 1.5-1.5 0-2.25-.75-9-.75-9v-.865c.873-.285 1.5-1.116 1.5-2.585zm-1.5 12.45c0 .235-.054.43-.154.55-.11.132-.31.2-.596.2-.285 0-.485-.068-.595-.2-.1-.12-.155-.315-.155-.55 0-2.184.738-8.85.745-8.918l.004-.04.005.04c.006.067.745 6.734.745 8.917zm.29-10.91c-.25.272-.6.41-1.04.41-.44 0-.788-.138-1.04-.41-.3-.327-.46-.86-.46-1.54 0-.8.215-1.69.574-2.377.356-.68.722-.923.926-.923.205 0 .57.242.926.923.36.688.574 1.576.574 2.377 0 .68-.16 1.213-.46 1.54zM13.595 9.744c.178-.03.314-.184.314-.37 0-.207-.17-.375-.376-.375V.244S13.308.002 13 .002c-.667 0-1.716 1.128-1.716 8.247l.745.75h.004c-.207 0-.374.167-.374.374 0 .185.133.338.31.37-.193 1.927-.498 5.217-.498 6.755 0 .75.446 1.5 1.312 1.5.866 0 1.313-.75 1.313-1.5 0-1.54-.307-4.828-.502-6.756zm-1.118-7.548c.105-.474.212-.798.307-1.017v7.07h-.443l-.305-.31c.01-2.52.16-4.452.442-5.744zm.697 14.872c-.096.123-.22.18-.39.18s-.293-.057-.39-.18c-.108-.138-.172-.35-.172-.57 0-1.517.31-4.842.5-6.748h.12c.192 1.906.505 5.23.505 6.75 0 .217-.065.43-.173.568z"/></g></svg>