<svg width="18" height="19" viewBox="0 0 18 19" xmlns="http://www.w3.org/2000/svg"><title>Group 2</title><path d="M12.73 12.495l4.438 4.722c.25.266.242.687-.02.943-.124.123-.29.19-.462.19-.18 0-.355-.074-.48-.21l-4.45-4.734c-1.193.917-2.643 1.424-4.168 1.424C3.76 14.83.65 11.648.65 7.74S3.76.65 7.588.65s6.94 3.182 6.94 7.09c0 1.782-.652 3.463-1.798 4.755zm-.73-.242c1.162-1.192 1.827-2.8 1.827-4.513 0-3.525-2.8-6.39-6.24-6.39-3.437 0-6.237 2.865-6.237 6.39 0 3.525 2.8 6.39 6.238 6.39 1.47 0 2.86-.524 3.973-1.467l.23-.195.21-.215zm.042.437l-.228-.243-.023.02-.024.025 4.892 5.204c-.01-.01-.01-.024 0-.035.007-.006.018-.01.028-.01.01 0 .023.005.03.012l-4.674-4.972zm-4.454.798c3.092 0 5.61-2.577 5.61-5.748 0-3.17-2.518-5.748-5.61-5.748-3.092 0-5.61 2.577-5.61 5.748 0 3.17 2.518 5.748 5.61 5.748zm0 .7c-3.482 0-6.31-2.894-6.31-6.448 0-3.554 2.828-6.448 6.31-6.448 3.482 0 6.31 2.894 6.31 6.448 0 3.554-2.828 6.448-6.31 6.448z" fill-rule="nonzero" fill="#1A1A1A"/></svg>