<?xml version="1.0" encoding="UTF-8"?>
<svg width="14px" height="18px" viewBox="0 0 14 18" version="1.1" xmlns="http://www.w3.org/2000/svg" xmlns:xlink="http://www.w3.org/1999/xlink">
    <!-- Generator: Sketch 47 (45396) - http://www.bohemiancoding.com/sketch -->
    <title>151880</title>
    <desc>Created with Sketch.</desc>
    <defs></defs>
    <g id="Order+" stroke="none" stroke-width="1" fill="none" fill-rule="evenodd">
        <g id="WILD_FISH_Order_samovivoz_1440" transform="translate(-198.000000, -724.000000)" fill-rule="nonzero" fill="#808080">
            <g id="Group-12" transform="translate(186.000000, 715.000000)">
                <g id="151880" transform="translate(12.000000, 9.000000)">
                    <path d="M7.20575,0.004 C7.1805,0.0015 7.155,0 7.129,0 L7.07675,0.00075 L7.0295,0 C7.00375,0 6.97825,0.00125 6.95325,0.004 C3.226,0.098 0.20425,3.189 0.20425,6.92475 C0.20425,11.726 5.54575,16.15875 6.61625,16.9985 C6.752,17.10525 6.91575,17.1585 7.07925,17.1585 C7.24275,17.1585 7.40625,17.10525 7.54225,16.9985 C8.613,16.15875 13.95425,11.726 13.95425,6.92475 C13.95425,3.189 10.93325,0.098 7.20575,0.004 Z M7.07925,15.4395 C5.641,14.22275 1.70425,10.5595 1.70425,6.92475 C1.70425,3.9815 4.0985,1.549 7.0415,1.50225 C7.0535,1.50225 7.06525,1.50175 7.07725,1.501 L7.0795,1.501 C7.08,1.501 7.081,1.501 7.082,1.501 C7.09375,1.50175 7.1055,1.50225 7.1175,1.50225 C10.06025,1.549 12.45475,3.9815 12.45475,6.92475 C12.45425,10.5595 8.5175,14.22275 7.07925,15.4395 Z" id="Shape"></path>
                    <path d="M7.12925,3.47375 C5.37825,3.47375 3.95875,4.89325 3.95875,6.6445 C3.95875,8.39525 5.37825,9.81475 7.12925,9.81475 C8.88025,9.81475 10.29975,8.39525 10.29975,6.6445 C10.2995,4.893 8.88025,3.47375 7.12925,3.47375 Z M7.12925,8.3145 C6.20825,8.3145 5.45875,7.56525 5.45875,6.64425 C5.45875,5.723 6.20825,4.9735 7.12925,4.9735 C8.0505,4.9735 8.79975,5.723 8.79975,6.64425 C8.7995,7.56525 8.05025,8.3145 7.12925,8.3145 Z" id="Shape"></path>
                </g>
            </g>
        </g>
    </g>
</svg>