<svg width="16" height="16" viewBox="0 0 16 16" xmlns="http://www.w3.org/2000/svg"><g fill-rule="nonzero" fill="#BFBFBF"><path d="M14.44 5.274c-.737-1.722-1.99-2.974-3.726-3.715C9.846 1.19 8.938 1 7.988 1s-1.85.187-2.717.56c-1.72.738-2.98 1.99-3.72 3.714-.37.864-.55 1.77-.55 2.718 0 .95.18 1.863.55 2.727.74 1.723 2 2.982 3.72 3.72.868.373 1.77.56 2.718.56.95 0 1.858-.19 2.725-.56 1.736-.74 2.99-2 3.728-3.72.373-.868.56-1.778.56-2.728 0-.95-.187-1.852-.56-2.718zm-1.116 5.813c-.55.942-1.303 1.69-2.25 2.244-.943.55-1.976.828-3.085.828-.836 0-1.632-.16-2.39-.49-.757-.33-1.412-.763-1.96-1.31-.547-.548-.982-1.21-1.308-1.968-.325-.757-.482-1.563-.482-2.398 0-1.11.273-2.138.82-3.078.547-.944 1.3-1.693 2.242-2.244.94-.552 1.967-.828 3.076-.828 1.11 0 2.143.278 3.085.828.948.553 1.7 1.302 2.25 2.244.552.942.827 1.968.827 3.078 0 1.11-.273 2.146-.826 3.095z" stroke="#BFBFBF" stroke-width=".3"/><path d="M8.586 8.102V4.1c0-.24-.22-.433-.472-.433-.236 0-.447.193-.447.432v4.064c0 .008.016.04.016.062-.016.14.024.255.122.348l2.433 2.31c.163.155.464.155.626 0 .187-.178.175-.436 0-.603L8.586 8.103z"/></g></svg>