<?xml version="1.0" encoding="UTF-8"?>
<svg width="54px" height="45px" viewBox="0 0 54 45" version="1.1" xmlns="http://www.w3.org/2000/svg" xmlns:xlink="http://www.w3.org/1999/xlink">
    <!-- Generator: Sketch 47 (45396) - http://www.bohemiancoding.com/sketch -->
    <title>352769</title>
    <desc>Created with Sketch.</desc>
    <defs></defs>
    <g id="Delivery_Payment_Guarantee+" stroke="none" stroke-width="1" fill="none" fill-rule="evenodd">
        <g id="WILD_FISH_delivery_1440" transform="translate(-541.000000, -391.000000)" fill-rule="nonzero" fill="#CF1A3A">
            <g id="352769" transform="translate(541.000000, 391.000000)">
                <path d="M48.2247547,18.1093458 L48.2247547,16.8927687 C48.2247547,15.0375701 46.7155724,13.5282827 44.8602687,13.5282827 L33.6448598,13.5282827 L33.6448598,7.92042056 C33.6448598,7.30103972 33.1428154,6.79889019 32.5233294,6.79889019 L29.1587383,6.79889019 L29.1587383,3.43492991 C29.1587383,2.81554907 28.6565888,2.31339953 28.0372079,2.31339953 L12.801764,2.31339953 L10.8867407,0.398481308 C10.4489369,-0.0394275701 9.73882009,-0.0394275701 9.30080607,0.398481308 L2.90008178,6.79889019 L1.12153037,6.79889019 C0.502149533,6.79899533 0,7.30103972 0,7.92042056 L0,39.3224299 C0,39.9417056 0.502149533,40.4439603 1.12153037,40.4439603 L5.72025701,40.4439603 C5.88900701,41.2722547 6.2411215,42.0346262 6.73191589,42.6869159 L4.48591121,42.6869159 C3.86653037,42.6869159 3.36448598,43.1891706 3.36448598,43.8084463 C3.36448598,44.427722 3.86653037,44.9299766 4.48601636,44.9299766 L11.2146729,44.9299766 C11.2175117,44.9299766 11.2201402,44.9295561 11.222979,44.9295561 C13.9271846,44.9256659 16.1888551,42.9978154 16.7092991,40.4440654 L32.5233294,40.4440654 L37.1228972,40.4440654 C37.2916472,41.2723598 37.6438668,42.0347313 38.1346612,42.687021 L35.8885514,42.687021 C35.2692757,42.687021 34.767021,43.1891706 34.767021,43.8085514 C34.767021,44.4279322 35.2691706,44.9300818 35.8885514,44.9300818 L42.6172079,44.9300818 C42.6200467,44.9300818 42.6227804,44.9296612 42.6256192,44.9296612 C45.3298248,44.925771 47.5914953,42.9979206 48.1119393,40.4441706 L52.7102453,40.4441706 C53.3296262,40.4441706 53.8317757,39.942021 53.8317757,39.3226402 L53.8317757,29.2290771 L53.8317757,24.7428505 C53.8317757,21.4148481 51.4026168,18.6451402 48.2247547,18.1093458 Z M26.9157827,4.55646028 L26.9157827,6.79899533 L17.287465,6.79899533 L15.0448248,4.55646028 L26.9157827,4.55646028 L26.9157827,4.55646028 Z M10.0937734,2.77748832 L11.5434463,4.22705607 C11.543972,4.22758178 11.5446028,4.22821262 11.5451285,4.22873832 L14.1153855,6.79899533 L6.07226636,6.79899533 L10.0937734,2.77748832 Z M11.2148832,42.6867056 C9.35957944,42.6867056 7.85029206,41.1775234 7.85029206,39.3224299 C7.85029206,37.4671262 9.35957944,35.9577336 11.2148832,35.9577336 C13.0699766,35.9577336 14.5791589,37.4671262 14.5791589,39.3224299 C14.5790537,41.1775234 13.0698715,42.6867056 11.2148832,42.6867056 Z M31.4017991,14.6498131 L31.4017991,33.7150935 L23.7746145,33.7150935 C23.1552336,33.7150935 22.6530841,34.217243 22.6530841,34.8366238 C22.6530841,35.4560047 23.1551285,35.9581542 23.7746145,35.9581542 L31.4017991,35.9581542 L31.4017991,38.2011098 L16.7092991,38.2011098 C16.1883294,35.644521 13.9227687,33.7149883 11.2148832,33.7149883 C8.50699766,33.7149883 6.2411215,35.6446262 5.72015187,38.2011098 L2.24295561,38.2011098 L2.24295561,20.2571495 L6.72876168,20.2571495 C7.34803738,20.2571495 7.85029206,19.7551051 7.85029206,19.1356192 C7.85029206,18.5162383 7.34814252,18.0140888 6.72876168,18.0140888 L2.24295561,18.0140888 L2.24295561,15.7712383 L15.7005841,15.7712383 C16.319965,15.7712383 16.8221145,15.2691939 16.8221145,14.6497079 C16.8221145,14.0303271 16.3200701,13.5281776 15.7005841,13.5281776 L2.24295561,13.5281776 L2.24295561,9.04174065 L3.36375,9.04174065 C3.36438084,9.04174065 3.36501168,9.04174065 3.36553738,9.04174065 L31.4017991,9.04174065 L31.4017991,14.6498131 Z M37.1228972,38.2010047 L33.6448598,38.2010047 L33.6448598,35.9580491 L38.1344509,35.9580491 C37.6435514,36.6104439 37.2915421,37.3727103 37.1228972,38.2010047 Z M45.9816939,39.3261098 C45.9796963,41.1796262 44.47125,42.6867056 42.6174182,42.6867056 C40.7622196,42.6867056 39.2528271,41.1775234 39.2528271,39.3224299 C39.2528271,37.469965 40.7574883,35.9626752 42.6087967,35.9579439 L42.6172079,35.9579439 C42.6182593,35.9579439 42.6192056,35.9578388 42.6201519,35.9578388 C44.4728271,35.9593107 45.9796963,37.4661799 45.9816939,39.3188551 C45.9816939,39.3201168 45.9815888,39.3211682 45.9815888,39.3224299 C45.9815888,39.3236916 45.9816939,39.3248481 45.9816939,39.3261098 Z M51.5888201,38.2010047 L48.1119393,38.2010047 C47.5908645,35.6444159 45.3253037,33.7148832 42.6174182,33.7148832 C42.6144743,33.7148832 42.6116355,33.7150935 42.6087967,33.7150935 L33.6447547,33.7150935 L33.6447547,15.7713435 L44.8602687,15.7713435 C45.4787033,15.7713435 45.9817991,16.2744393 45.9817991,16.8928738 L45.9817991,18.0142991 L38.1314019,18.0142991 C37.5121262,18.0142991 37.0098715,18.5163435 37.0098715,19.1358294 L37.0098715,29.2290771 C37.0098715,29.8484579 37.512021,30.3506075 38.1314019,30.3506075 L51.5888201,30.3506075 L51.5888201,38.2010047 L51.5888201,38.2010047 Z M41.495993,20.2571495 L41.495993,28.1074416 L39.2529322,28.1074416 L39.2529322,20.2571495 L41.495993,20.2571495 Z M51.5888201,28.1074416 L43.7389486,28.1074416 L43.7389486,20.2571495 L47.1033294,20.2571495 C49.5766472,20.2571495 51.5888201,22.2693224 51.5888201,24.7427453 L51.5888201,28.1074416 Z" id="Shape"></path>
                <path d="M19.387535,35.9580491 L20.0875584,35.9580491 C20.7068341,35.9580491 21.2090888,35.4558995 21.2090888,34.8365187 C21.2090888,34.2171379 20.7069393,33.7149883 20.0875584,33.7149883 L19.387535,33.7149883 C18.7681542,33.7149883 18.2660047,34.2171379 18.2660047,34.8365187 C18.2660047,35.4558995 18.7682593,35.9580491 19.387535,35.9580491 Z" id="Shape"></path>
                <path d="M19.387535,15.7713435 L20.0875584,15.7713435 C20.7068341,15.7713435 21.2090888,15.2692991 21.2090888,14.6498131 C21.2090888,14.0304322 20.7069393,13.5282827 20.0875584,13.5282827 L19.387535,13.5282827 C18.7681542,13.5282827 18.2660047,14.0303271 18.2660047,14.6498131 C18.2661098,15.2691939 18.7682593,15.7713435 19.387535,15.7713435 Z" id="Shape"></path>
            </g>
        </g>
    </g>
</svg>