<svg width="33" height="20" viewBox="0 0 33 20" xmlns="http://www.w3.org/2000/svg"><title>502531</title><g fill-rule="nonzero" fill="#E6E6E6"><path d="M29.71 9.988c1.426-1.132 2.342-2.88 2.342-4.845 0-.26-.016-.518-.048-.77-.253-.035-.512-.054-.776-.054-2.8 0-5.124 2.03-5.585 4.696-1.072-1.372-3.826-3.485-7.075-5.025L20.89.45c-5.074-1.64-7.97 1.735-7.97 1.735l.004.002c-.607-.09-1.21-.138-1.8-.138-.743 0-1.45.095-2.124.267 1.604 2.204 2.476 4.885 2.476 7.67 0 2.787-.872 5.468-2.476 7.672.673.17 1.38.267 2.123.267.59 0 1.194-.05 1.8-.138h-.002s2.896 3.376 7.97 1.737l-2.322-3.543c3.25-1.54 6.003-3.652 7.075-5.024.46 2.667 2.786 4.697 5.585 4.697.264 0 .523-.02.777-.054.03-.252.047-.51.047-.77 0-1.963-.916-3.713-2.343-4.845z"/><path d="M6.737 3C2.43 5.102 0 9.998 0 9.998s2.43 4.896 6.737 6.998c1.577-1.96 2.44-4.427 2.44-6.998 0-2.57-.863-5.037-2.44-6.998zM5.643 9.23c-.51 0-.926-.415-.926-.927 0-.51.415-.926.926-.926.512 0 .926.415.926.926 0 .512-.415.926-.927.926z"/></g></svg>