<?xml version="1.0" encoding="UTF-8"?>
<svg width="141px" height="15px" viewBox="0 0 141 15" version="1.1" xmlns="http://www.w3.org/2000/svg" xmlns:xlink="http://www.w3.org/1999/xlink">
    <!-- Generator: Sketch 46.2 (44496) - http://www.bohemiancoding.com/sketch -->
    <title>Group 4</title>
    <desc>Created with Sketch.</desc>
    <defs></defs>
    <g id="Page-1" stroke="none" stroke-width="1" fill="none" fill-rule="evenodd">
        <g id="Group-4">
            <path d="M0,15 L0,10.3392405 C1.15766517,10.1620253 1.84502886,9.6835443 2.18871071,6.98987342 L2.91225144,1 L11.902245,1 L11.902245,10.1620253 L12.9875561,10.1620253 L12.9875561,15 L9.85824246,15 L9.85824246,12.8202532 L3.11122514,12.8202532 L3.11122514,15 L0,15 Z M5.28184734,7.22025316 C5.11905067,8.54936709 4.6487492,9.48860759 3.9613855,10.1620253 L8.79101988,10.1620253 L8.79101988,3.65822785 L5.71597178,3.65822785 L5.28184734,7.22025316 Z M17.5096857,12.8202532 L22.5925593,5.51898734 L22.5925593,12.8202532 L25.721873,12.8202532 L25.721873,1 L22.5021167,1 L17.6182168,7.96455696 L17.6182168,1 L14.5069917,1 L14.5069917,12.8202532 L17.5096857,12.8202532 Z M38.9807569,12.8202532 L35.1640795,12.8202532 L31.9985888,8.3721519 L31.1846055,9.36455696 L31.1846055,12.8202532 L28.0733804,12.8202532 L28.0733804,1 L31.1846055,1 L31.1846055,5.8556962 L34.8927518,1 L38.7275176,1 L34.0425914,6.52911392 L38.9807569,12.8202532 Z M51.8055164,12.8202532 L48.2782553,12.8202532 L47.6813342,11.1189873 L42.9240539,11.1189873 L42.3271328,12.8202532 L38.7998717,12.8202532 L43.3400898,1 L47.2472097,1 L51.8055164,12.8202532 Z M46.8311738,8.46075949 L45.2936498,4.01265823 L43.7561257,8.46075949 L46.8311738,8.46075949 Z M55.9296985,12.8202532 L52.3662604,12.8202532 L54.8262989,8.47848101 C53.6867223,8.08860759 52.4024375,6.98987342 52.4024375,4.93417722 C52.4024375,2.73670886 53.9399615,1 56.6170622,1 L62.6586273,1 L62.6586273,12.8202532 L59.5293137,12.8202532 L59.5293137,8.85063291 L57.9375241,8.85063291 L55.9296985,12.8202532 Z M57.0692752,6.19240506 L59.5293137,6.19240506 L59.5293137,3.65822785 L57.0692752,3.65822785 C56.2552919,3.65822785 55.5860167,4.11898734 55.5860167,4.9164557 C55.5860167,5.74936709 56.2552919,6.19240506 57.0692752,6.19240506 Z M92.1790892,12.8202532 L89.067864,12.8202532 L89.067864,1 L95.1094291,1 C97.8227069,1 99.3059654,2.78987342 99.3059654,4.93417722 C99.3059654,7.06075949 97.8227069,8.85063291 95.1094291,8.85063291 L92.1790892,8.85063291 L92.1790892,12.8202532 Z M94.6933932,6.19240506 C95.525465,6.19240506 96.1404747,5.73164557 96.1404747,4.93417722 C96.1404747,4.11898734 95.525465,3.65822785 94.6933932,3.65822785 L92.1790892,3.65822785 L92.1790892,6.19240506 L94.6933932,6.19240506 Z M100.879666,1 L103.990892,1 L103.990892,4.96962025 L106.921232,4.96962025 C109.634509,4.96962025 111.117768,6.75949367 111.117768,8.88607595 C111.117768,11.0303797 109.634509,12.8202532 106.921232,12.8202532 L100.879666,12.8202532 L100.879666,1 Z M106.505196,7.6278481 L103.990892,7.6278481 L103.990892,10.1620253 L106.505196,10.1620253 C107.337267,10.1620253 107.952277,9.70126582 107.952277,8.88607595 C107.952277,8.08860759 107.337267,7.6278481 106.505196,7.6278481 Z M115.11533,12.8202532 L115.11533,1 L112.004105,1 L112.004105,12.8202532 L115.11533,12.8202532 Z M117.466838,1 L126.890956,1 L126.890956,3.65822785 L120.578063,3.65822785 L120.578063,5.18227848 L123.616934,5.18227848 C126.275946,5.18227848 127.704939,6.91898734 127.704939,8.99240506 C127.704939,11.0658228 126.275946,12.8202532 123.616934,12.8202532 L117.466838,12.8202532 L117.466838,1 Z M123.237075,7.84050633 L120.578063,7.84050633 L120.578063,10.1620253 L123.237075,10.1620253 C123.978704,10.1620253 124.539448,9.73670886 124.539448,8.99240506 C124.539448,8.26582278 123.978704,7.84050633 123.237075,7.84050633 Z M141,12.8202532 L137.472739,12.8202532 L136.875818,11.1189873 L132.118538,11.1189873 L131.521616,12.8202532 L127.994355,12.8202532 L132.534573,1 L136.441693,1 L141,12.8202532 Z M136.025657,8.46075949 L134.488133,4.01265823 L132.950609,8.46075949 L136.025657,8.46075949 Z" id="ДИКАЯ-РЫБА" fill="#033868"></path>
            <g id="Page-1" transform="translate(65.000000, 0.000000)">
                <g id="Group-3"></g>
                <path d="M10.3396226,1.28576779 C11.4239173,2.03137605 12,2.78571429 12,2.78571429 C12,2.78571429 11.8333477,1.90630043 11.1616308,1.16437184 C12.3981729,1.04850544 14.4182529,1.15343541 15.5375199,2.79130279 C15.5375199,2.79130279 13.5023081,3.68430526 13.5023081,5.65824283 C13.5023081,8.3460663 15.8826817,10.711351 19.3532694,10.711351 C20.2633801,10.711351 21.1113487,10.5930867 21.7495601,10.4694469 C21.6244035,10.8188639 19.8255501,12.7003403 15.8645841,12.7003403 C12.7755714,12.7003403 8.90029618,11.9049596 6.28879722,9.22423199 C1.85533239,4.67277923 2.00054892,0.927673504 2.00054892,0.927673504 L2.78201441,0.927673504 L2.76369882,0.246901574 C2.76369882,0.246901574 3.79940225,0.0318756955 4.83510569,0.0318756955 C8.03313985,0.0318756955 10.1045467,1.33987811 10.1045467,1.33987811 C10.1045467,1.33987811 10.1895132,1.31669373 10.3396226,1.28576779 Z M5.63542248,1.22308009 C5.63542248,1.06051131 5.50282697,0.928571429 5.33945037,0.928571429 C5.17607377,0.928571429 5.04347826,1.06051131 5.04347826,1.22308009 C5.04347826,1.38564887 5.17607377,1.51758875 5.33945037,1.51758875 C5.50282697,1.51758875 5.63542248,1.38564887 5.63542248,1.22308009 Z M5.04347826,5.57142857 C5.04347826,5.57142857 6.54583175,5.45481945 7.37471643,4.11381449 C7.94353855,3.19353527 8.11718989,2.53959129 8.08279117,1.39285714 C7.13288933,4.21106651 5.04347826,5.57142857 5.04347826,5.57142857 Z" id="Combined-Shape" fill="#CF1A3A"></path>
            </g>
        </g>
    </g>
</svg>