<?xml version="1.0" encoding="UTF-8"?>
<svg width="41px" height="37px" viewBox="0 0 41 37" version="1.1" xmlns="http://www.w3.org/2000/svg" xmlns:xlink="http://www.w3.org/1999/xlink">
    <!-- Generator: Sketch 48.2 (47327) - http://www.bohemiancoding.com/sketch -->
    <title>Shape</title>
    <desc>Created with Sketch.</desc>
    <defs></defs>
    <g id="WILD_FISH_recipe_1440-Copy" stroke="none" stroke-width="1" fill="none" fill-rule="evenodd" transform="translate(-836.000000, -2618.000000)">
        <g id="Group-35" transform="translate(41.000000, 2405.000000)" fill="#00B4AD" fill-rule="nonzero">
            <g id="Group-31" transform="translate(739.000000, 191.000000)">
                <g id="Group-30" transform="translate(36.000000, 0.000000)">
                    <g id="coins" transform="translate(20.000000, 22.000000)">
                        <path d="M40.8813926,12.2666667 C40.8139259,11.1006519 39.4271111,10.1895111 36.6534815,9.4944 C36.7468444,9.28995556 36.7993185,9.07733333 36.8,8.85653333 L36.8,4.08888889 L36.7884148,4.08888889 C36.5444444,0.117214815 20.2693037,0 18.4,0 C16.5306963,0 0.255555556,0.117214815 0.0115851852,4.08888889 L0,4.08888889 L0,4.17748148 L0,8.85857778 C0.00340740741,10.1533926 1.6744,11.1667556 4.16044444,11.9211556 C4.12637037,12.0342815 4.10592593,12.1494519 4.09911111,12.2666667 L4.08888889,12.2666667 L4.08888889,12.3552593 L4.08888889,17.0281778 C1.41066667,17.717837 0.0729185185,18.6160296 0.00681481481,19.762963 L0,19.762963 L0,19.8515556 L0,24.5326519 C0.00204444444,25.4342519 0.815051852,26.1988741 2.1453037,26.8360593 C2.09487407,26.9744 2.06352593,27.1154667 2.05466667,27.2599407 L2.04444444,27.2599407 L2.04444444,27.3485333 L2.04444444,32.0296296 C2.0498963,34.296237 7.15351111,35.7034963 12.8241185,36.3604444 C12.8656889,36.3686222 12.9038519,36.3856593 12.9481481,36.3856593 C12.9610963,36.3856593 12.972,36.3788444 12.9849481,36.378163 C14.0780444,36.5015111 15.1888593,36.5976 16.2880889,36.6664296 C16.3112593,36.6691556 16.3317037,36.6800593 16.3555556,36.6800593 C16.3685037,36.6800593 16.3787259,36.6732444 16.3909926,36.672563 C17.7866667,36.7570667 19.1598519,36.8 20.4444444,36.8 C21.729037,36.8 23.1022222,36.7570667 24.4978963,36.6718815 C24.510163,36.672563 24.5210667,36.6793778 24.5333333,36.6793778 C24.5571852,36.6793778 24.5776296,36.6677926 24.6008,36.6657481 C25.7000296,36.5969185 26.8108444,36.5015111 27.9039407,36.3774815 C27.9168889,36.3774815 27.9277926,36.3842963 27.9407407,36.3842963 C27.985037,36.3842963 28.0232,36.3672593 28.0647704,36.3590815 C33.7353778,35.7021333 38.8383111,34.2941926 38.8444444,32.0269037 L38.8444444,27.2592593 L38.8335407,27.2592593 C38.785837,26.423763 38.0736889,25.7266074 36.6671111,25.1439407 C36.7529778,24.9469926 36.8,24.7425481 36.8,24.5306074 L36.8,20.0764444 C39.2465185,19.3240889 40.8854815,18.3175407 40.8888889,17.0343111 L40.8888889,12.2666667 L40.8813926,12.2666667 Z M35.363437,24.7520889 L35.1310519,24.9558519 C34.7732741,25.2713778 34.1769778,25.5896296 33.3925926,25.8962963 L33.3925926,22.6469926 C34.2028741,22.3648593 34.8925333,22.0520593 35.437037,21.7092741 L35.437037,24.5292444 C35.437037,24.599437 35.4111407,24.6744 35.363437,24.7520889 Z M20.1214222,27.9189333 C20.0219259,27.9216593 19.9217481,27.9230222 19.8215704,27.9250667 C19.5782815,27.929837 19.3288593,27.9312 19.082163,27.9332444 L19.082163,24.5292444 C19.2695704,24.5272 19.4569778,24.5244741 19.6443852,24.5210667 C19.6805037,24.5203852 19.7166222,24.5197037 19.7527407,24.5190222 C20.4389926,24.5060741 21.1252444,24.4849481 21.8080889,24.4536 L21.8080889,27.856237 C21.6622519,27.8637333 21.5157333,27.8705481 21.3678519,27.8766815 C20.9576,27.8950815 20.5432593,27.9087111 20.1214222,27.9189333 Z M17.1453926,27.9284741 C16.8332741,27.9230222 16.5225185,27.9155259 16.2138074,27.9059852 C16.1756444,27.9046222 16.1374815,27.9032593 16.0993185,27.9018963 C15.7279111,27.8896296 15.3592296,27.8739556 14.9932741,27.856237 L14.9932741,24.4542815 C15.6761185,24.4863111 16.3623704,24.507437 17.0486222,24.5197037 C17.0847407,24.5203852 17.1208593,24.5210667 17.1562963,24.5217481 C17.3437037,24.5251556 17.5311111,24.5278815 17.7185185,24.5299259 L17.7185185,27.9359704 C17.5863111,27.9346074 17.4541037,27.9346074 17.3225778,27.932563 C17.2626074,27.9312 17.2046815,27.9291556 17.1453926,27.9284741 Z M4.83647407,26.3746963 C4.81398519,26.3678815 4.79285926,26.3617481 4.77037037,26.3556148 L4.77037037,23.0633778 C5.40687407,23.2351111 6.09108148,23.3918519 6.81481481,23.5342815 L6.81481481,26.8605926 C6.18921481,26.7277037 5.612,26.588 5.08657778,26.4448889 C5.00343704,26.421037 4.91757037,26.3985481 4.83647407,26.3746963 Z M19.2007407,32.0180444 C19.3881481,32.0214519 19.5755556,32.0241778 19.762963,32.0262222 L19.762963,35.4329481 C18.8211556,35.4240889 17.9120593,35.3968296 17.037037,35.3538963 L17.037037,31.9512593 C17.7198815,31.9832889 18.4061333,32.0044148 19.0923852,32.0166815 C19.1285037,32.0166815 19.1646222,32.017363 19.2007407,32.0180444 Z M21.7965037,32.016 C22.4827556,32.0030519 23.1690074,31.9819259 23.8518519,31.9505778 L23.8518519,35.3532148 C22.9768296,35.3961481 22.0677333,35.4234074 21.1259259,35.4322667 L21.1259259,32.0255407 C21.3133333,32.0234963 21.5007407,32.0207704 21.6881481,32.017363 C21.7242667,32.017363 21.7603852,32.0166815 21.7965037,32.016 Z M27.2592593,31.7079704 L27.2592593,35.0922074 C26.6043556,35.161037 25.9228741,35.2216889 25.2148148,35.271437 L25.2148148,31.8728889 C25.905837,31.8279111 26.5886815,31.7727111 27.2592593,31.7079704 Z M28.6222222,31.5607704 C29.3248296,31.4762667 30.0069926,31.3801778 30.6666667,31.2731852 L30.6666667,34.6192593 C30.0247111,34.7323852 29.3425481,34.8366519 28.6222222,34.9313778 L28.6222222,31.5607704 Z M32.0296296,31.0298963 C32.753363,30.8874667 33.4375704,30.7307259 34.0740741,30.5589926 L34.0740741,33.8512296 C33.4668741,34.0263704 32.7833481,34.1960593 32.0296296,34.3562074 L32.0296296,31.0298963 Z M8.85925926,31.0298963 L8.85925926,34.3562074 C8.10554074,34.1960593 7.42201481,34.0263704 6.81481481,33.8512296 L6.81481481,30.5589926 C7.45131852,30.7307259 8.13552593,30.8881481 8.85925926,31.0298963 Z M10.2222222,31.2738667 C10.8818963,31.3808593 11.5640593,31.4769481 12.2666667,31.5614519 L12.2666667,34.9320593 C11.5463407,34.8373333 10.8641778,34.7330667 10.2222222,34.6199407 L10.2222222,31.2738667 Z M13.6296296,31.7079704 C14.3002074,31.7727111 14.9830519,31.8279111 15.6740741,31.8735704 L15.6740741,35.2721185 C14.9660148,35.2223704 14.2845333,35.1617185 13.6296296,35.0928889 L13.6296296,31.7079704 Z M11.9388741,27.6327111 C11.869363,27.6258963 11.8005333,27.6184 11.7317037,27.6115852 C11.682637,27.6068148 11.6342519,27.6006815 11.5851852,27.5959111 L11.5851852,24.2123556 C12.255763,24.2770963 12.9386074,24.3322963 13.6296296,24.3779556 L13.6296296,27.7737778 C13.0571852,27.7328889 12.4915556,27.6865481 11.9388741,27.6327111 Z M10.2222222,24.0644741 L10.2222222,27.4350815 C9.5018963,27.3403556 8.81973333,27.2360889 8.17777778,27.122963 L8.17777778,23.7768889 C8.83745185,23.8838815 9.51961481,23.9806519 10.2222222,24.0644741 Z M23.624237,27.7417481 C23.4743111,27.7533333 23.3230222,27.7649185 23.1703704,27.7758222 L23.1703704,24.3772741 C23.8613926,24.3316148 24.544237,24.2770963 25.2148148,24.2116741 L25.2148148,27.5959111 C24.7936593,27.6402074 24.362963,27.6817778 23.9206815,27.7178963 C23.8218667,27.7267556 23.7230519,27.7342519 23.624237,27.7417481 Z M26.5777778,27.4350815 L26.5777778,24.0644741 C27.2803852,23.9799704 27.9625481,23.8838815 28.6222222,23.7768889 L28.6222222,27.122963 C27.9802667,27.2360889 27.2981037,27.341037 26.5777778,27.4350815 Z M29.9851852,23.5336 C30.7089185,23.3911704 31.3931259,23.2344296 32.0296296,23.0626963 L32.0296296,26.3549333 C31.4224296,26.5300741 30.7389037,26.699763 29.9851852,26.8599111 L29.9851852,23.5336 Z M20.6659259,20.4205926 C20.1534519,20.4076444 19.652563,20.3878815 19.1605333,20.3640296 C19.1339556,20.3626667 19.1073778,20.3613037 19.0814815,20.3606222 L19.0814815,16.9579852 C19.7643259,16.9900148 20.4505778,17.0111407 21.1368296,17.0234074 C21.1729481,17.0240889 21.2090667,17.0247704 21.2445037,17.0254519 C21.4319111,17.0288593 21.6193185,17.0315852 21.8067259,17.0336296 L21.8067259,20.4362667 C21.4748444,20.4328593 21.140237,20.4314963 20.8165333,20.424 C20.7667852,20.422637 20.7156741,20.4219556 20.6659259,20.4205926 Z M4.77037037,10.6815407 L4.77037037,7.3893037 C5.40687407,7.56103704 6.09108148,7.71777778 6.81481481,7.86020741 L6.81481481,11.1865185 C6.73099259,11.1688 6.64444444,11.1510815 6.56266667,11.133363 C6.20011852,11.0536296 5.84642963,10.9704889 5.50841481,10.8825778 C5.25081481,10.8164741 5.00616296,10.7490074 4.77037037,10.6815407 Z M17.1562963,8.84767407 C17.3437037,8.85108148 17.5311111,8.85380741 17.7185185,8.85585185 L17.7185185,12.2584889 C16.8012444,12.2496296 15.8894222,12.2257778 14.9925926,12.1808 L14.9925926,8.78088889 C15.675437,8.81291852 16.3616889,8.83404444 17.0479407,8.84631111 C17.0840593,8.84631111 17.1201778,8.84699259 17.1562963,8.84767407 Z M19.7520593,8.84562963 C20.4383111,8.83268148 21.124563,8.81155556 21.8074074,8.78020741 L21.8074074,12.1801185 C21.6915556,12.1855704 21.5804741,12.1937481 21.4639407,12.1992 C21.4544,12.1998815 21.4448593,12.1998815 21.434637,12.200563 C20.977363,12.2210074 20.5112296,12.236 20.038963,12.2469037 C19.965363,12.2489481 19.891763,12.2496296 19.818163,12.2516741 C19.5755556,12.2564444 19.3274963,12.2571259 19.0814815,12.2598519 L19.0814815,8.85585185 C19.2688889,8.85380741 19.4562963,8.85108148 19.6437037,8.84767407 C19.6798222,8.84699259 19.7159407,8.84631111 19.7520593,8.84562963 Z M35.2809778,9.18773333 L35.2618963,9.18364444 L35.013837,9.3765037 C34.6540148,9.65659259 34.1013333,9.94008889 33.3925926,10.2140444 L33.3925926,6.97223704 C34.2028741,6.6901037 34.8925333,6.3773037 35.437037,6.03451852 L35.437037,8.85448889 C35.437037,8.95807407 35.3825185,9.06983704 35.2809778,9.18773333 Z M26.5777778,11.7569185 L26.5777778,8.3904 C27.2803852,8.3058963 27.9625481,8.20980741 28.6222222,8.10281481 L28.6222222,11.443437 C27.9761778,11.5579259 27.2960593,11.6628741 26.5777778,11.7569185 Z M29.9851852,11.1810667 L29.9851852,7.86020741 C30.7089185,7.71777778 31.3931259,7.56103704 32.0296296,7.3893037 L32.0296296,10.6740444 C31.4190222,10.8519111 30.7314074,11.0216 29.9851852,11.1810667 Z M25.2148148,8.5376 L25.2148148,11.9177481 C24.5565037,11.9872593 23.8750222,12.0479111 23.1703704,12.0983407 L23.1703704,8.7032 C23.8613926,8.65754074 24.544237,8.60234074 25.2148148,8.5376 Z M11.5851852,11.9191111 L11.5851852,8.5376 C12.255763,8.60234074 12.9386074,8.65754074 13.6296296,8.7032 L13.6296296,12.0956148 C12.9358815,12.0458667 12.2516741,11.9893037 11.5851852,11.9191111 Z M10.2222222,8.3904 L10.2222222,11.7576 C10.0872889,11.7398815 9.9469037,11.7255704 9.81333333,11.7071704 C9.7261037,11.6949037 9.64296296,11.6819556 9.5570963,11.6696889 C9.1632,11.6131259 8.77816296,11.5524741 8.40062222,11.4890963 C8.32497778,11.4761481 8.25205926,11.4625185 8.17777778,11.4495704 L8.17777778,8.1034963 C8.83745185,8.20980741 9.51961481,8.30657778 10.2222222,8.3904 Z M17.5495111,20.2665778 C17.4575111,20.259763 17.3648296,20.2529481 17.2735111,20.2461333 C16.837363,20.2120593 16.411437,20.1745778 15.9957333,20.1330074 C15.9064593,20.1241481 15.8171852,20.1146074 15.7285926,20.1057481 C15.7101926,20.1037037 15.6924741,20.1009778 15.6740741,20.0996148 L15.6740741,16.7153778 C16.3446519,16.7801185 17.0274963,16.8353185 17.7185185,16.8809778 L17.7185185,20.2774815 C17.6633185,20.2733926 17.6047111,20.2706667 17.5495111,20.2665778 Z M13.046963,19.7575111 C12.7770963,19.7145778 12.5235852,19.668237 12.2666667,19.6232593 L12.2666667,16.2812741 C12.9263407,16.3882667 13.6085037,16.4843556 14.3111111,16.5688593 L14.3111111,19.9394667 C13.8940444,19.8842667 13.485837,19.8270222 13.0939852,19.7656889 C13.0783111,19.7622815 13.062637,19.7595556 13.046963,19.7575111 Z M10.9037037,16.0373037 L10.9037037,19.358163 C10.1506667,19.1966519 9.46782222,19.0249185 8.85925926,18.8463704 L8.85925926,15.5664 C9.49576296,15.7381333 10.1799704,15.8955556 10.9037037,16.0373037 Z M7.4962963,15.1500148 L7.4962963,18.3877333 C6.42500741,17.9740741 5.73398519,17.5515556 5.5090963,17.1753778 L5.46343704,17.0990519 C5.45934815,17.0779259 5.45253333,17.055437 5.45185185,17.0343111 L5.45185185,14.2122963 C5.99635556,14.5550815 6.68601481,14.8678815 7.4962963,15.1500148 Z M23.8409481,17.0234074 C24.5272,17.0104593 25.2134519,16.9893333 25.8962963,16.9579852 L25.8962963,20.3572148 C25.0008296,20.4015111 24.0903704,20.4260444 23.1703704,20.4355852 L23.1703704,17.0336296 C23.3577778,17.0315852 23.5451852,17.0288593 23.7325926,17.0254519 C23.7687111,17.0247704 23.8048296,17.0240889 23.8409481,17.0234074 Z M32.6477333,19.6382519 C32.348563,19.6900444 32.0466667,19.7411556 31.7365926,19.7881778 C31.5587259,19.815437 31.3767704,19.8413333 31.1941333,19.8672296 C31.0217185,19.891763 30.8424889,19.9128889 30.6673481,19.9353778 L30.6673481,16.5681778 C31.3699556,16.4836741 32.0521185,16.3875852 32.7117926,16.2805926 L32.7117926,19.6266667 C32.6899852,19.6307556 32.6688593,19.6348444 32.6477333,19.6382519 Z M28.0334222,20.220237 C27.7792296,20.241363 27.5168593,20.2549926 27.2592593,20.2733926 L27.2592593,16.8809778 C27.9502815,16.8353185 28.6331259,16.7808 29.3037037,16.7153778 L29.3037037,20.0962074 C28.907763,20.1377778 28.5125037,20.1793481 28.1056593,20.2134222 C28.0811259,20.2154667 28.0579556,20.2181926 28.0334222,20.220237 Z M35.8213926,18.9424593 C35.4820148,19.0371852 35.1228741,19.1257778 34.756237,19.2123259 C34.5865481,19.2518519 34.4134519,19.2913778 34.2362667,19.3295407 C34.1837926,19.3411259 34.1279111,19.3513481 34.0747556,19.3629333 L34.0747556,16.0379852 C34.7984889,15.8955556 35.4826963,15.7388148 36.1192,15.5670815 L36.1192,18.8593185 C36.0210667,18.8865778 35.9222519,18.9145185 35.8213926,18.9424593 Z M39.5184296,12.310963 C39.4557333,12.7736889 38.4069333,13.3890667 36.5349037,13.9676444 C34.1238222,14.7125037 30.3511407,15.3946667 25.5698667,15.6059259 C25.3252148,15.6161481 25.0812444,15.6263704 24.8318222,15.6345481 C24.6280593,15.641363 24.4236148,15.6474963 24.215763,15.6529481 C23.6514963,15.6652148 23.0790519,15.6740741 22.4888889,15.6740741 C21.8987259,15.6740741 21.3262815,15.6652148 20.7620148,15.6522667 C20.5548444,15.6474963 20.3504,15.6406815 20.1459556,15.6338667 C19.8958519,15.6263704 19.6518815,15.6154667 19.4079111,15.6052444 C14.626637,15.3939852 10.8532741,14.7118222 8.44287407,13.966963 C6.58583704,13.3931556 5.53908148,12.7825481 5.46139259,12.3218667 C5.4648,12.3089185 5.4648,12.2980148 5.47297778,12.2816593 C5.51931852,12.2932444 5.57111111,12.3027852 5.61813333,12.3143704 C5.88459259,12.3777481 6.15786667,12.4390815 6.43591111,12.4976889 C7.79001481,12.789363 9.29063704,13.028563 10.8893926,13.2112 C10.8948444,13.2112 10.8989333,13.2139259 10.9037037,13.2139259 C10.9050667,13.2139259 10.9064296,13.2132444 10.9071111,13.2132444 C11.9961185,13.3372741 13.1260148,13.4347259 14.2858963,13.5035556 C14.2947556,13.5035556 14.3022519,13.5083259 14.3111111,13.5083259 C14.3158815,13.5083259 14.3192889,13.5056 14.3240593,13.5056 C15.1588741,13.5546667 16.0045926,13.5907852 16.8605333,13.6098667 C17.3845926,13.6228148 17.8991111,13.6296296 18.4,13.6296296 C18.7577778,13.6296296 19.1244148,13.6255407 19.4944593,13.6187259 C24.4461037,13.5424 29.0352,12.9536 32.2286222,12.0410963 C32.3758222,11.9995259 32.5196148,11.9565926 32.661363,11.9136593 C32.7479111,11.8870815 32.8365037,11.8611852 32.9203259,11.8346074 C33.1670222,11.7555556 33.4034963,11.6744593 33.6317926,11.5899556 C33.6713185,11.574963 33.7088,11.5599704 33.7483259,11.5449778 C33.9411852,11.4720593 34.1265481,11.3964148 34.3037333,11.3194074 C34.3548444,11.2969185 34.4073185,11.2751111 34.4570667,11.2526222 C34.645837,11.167437 34.8284741,11.0802074 34.9974815,10.9895704 C35.0738074,10.949363 35.1399111,10.9077926 35.2114667,10.8669037 C35.2932444,10.8198815 35.3750222,10.7721778 35.4506667,10.7237926 C35.4936,10.6965333 35.5447111,10.670637 35.5856,10.6433778 C38.6365926,11.3050963 39.4407407,12.0288296 39.5184296,12.310963 Z M18.4,1.36296296 C29.6369481,1.36296296 35.3205037,3.13208889 35.4268148,4.1474963 C35.3443556,4.60817778 34.2982815,5.21674074 32.4460148,5.78918519 C30.0349333,6.53404444 26.2622519,7.21620741 21.4809778,7.42746667 C21.2363259,7.43768889 20.9923556,7.44791111 20.7429333,7.45608889 C20.5391704,7.4629037 20.3347259,7.46903704 20.1268741,7.47448889 C19.5626074,7.48743704 18.990163,7.4962963 18.4,7.4962963 C17.809837,7.4962963 17.2373926,7.48743704 16.6731259,7.47448889 C16.4659556,7.46971852 16.2615111,7.4629037 16.0570667,7.45608889 C15.806963,7.44859259 15.5629926,7.43768889 15.3190222,7.42746667 C10.5377481,7.21620741 6.76438519,6.53404444 4.35398519,5.78918519 C2.50103704,5.21674074 1.45564444,4.60817778 1.37318519,4.1474963 C1.4794963,3.13208889 7.16305185,1.36296296 18.4,1.36296296 Z M1.36296296,8.85653333 L1.36296296,6.03451852 C1.90746667,6.3773037 2.59712593,6.6901037 3.40740741,6.97223704 L3.40740741,10.2351704 C2.08192593,9.73837037 1.36432593,9.24020741 1.36296296,8.85653333 Z M4.66405926,18.2875556 C4.67428148,18.2984593 4.68995556,18.308 4.70017778,18.3189037 C5.63312593,19.2607111 7.56512593,20.0008 9.97007407,20.5528 C10.0252741,20.5657481 10.0838815,20.5780148 10.139763,20.590963 C10.3162667,20.6304889 10.4954963,20.6693333 10.6767704,20.7068148 C12.8854519,21.177037 15.5221037,21.5170963 18.3945481,21.6854222 C18.3965926,21.6854222 18.3979556,21.6861037 18.3993185,21.6861037 C18.4006815,21.6861037 18.401363,21.6854222 18.4020444,21.6854222 C19.3247704,21.7392593 20.2686222,21.7767407 21.232237,21.7930963 C21.6588444,21.8019556 22.078637,21.8074074 22.4888889,21.8074074 C22.9591111,21.8074074 23.4416,21.8019556 23.9322667,21.7903704 C24.8236444,21.7719704 25.7020741,21.7351704 26.568237,21.6847407 C26.5716444,21.6847407 26.5743704,21.6867852 26.5777778,21.6867852 C26.5839111,21.6867852 26.5886815,21.6833778 26.5948148,21.6833778 C29.4747556,21.5136889 32.1768296,21.1702222 34.461837,20.6761481 C33.9670815,20.9351111 33.2896889,21.2029333 32.4460148,21.4639407 C29.9006815,22.2503704 25.8356444,22.9666074 20.6693333,23.1328889 C20.516,23.1376593 20.3647111,23.1431111 20.2093333,23.1472 C20.0423704,23.1512889 19.8726815,23.1540148 19.7029926,23.1574222 C19.2743407,23.164237 18.842963,23.1703704 18.4,23.1703704 C17.809837,23.1703704 17.2373926,23.1615111 16.6731259,23.148563 C16.4659556,23.1437926 16.2615111,23.1369778 16.0570667,23.130163 C15.806963,23.1226667 15.5629926,23.111763 15.3190222,23.1015407 C10.5377481,22.8902815 6.76438519,22.2081185 4.35398519,21.4632593 C2.47991111,20.884 1.43111111,20.2679407 1.37045926,19.8052148 C1.4461037,19.5489778 2.13508148,18.9077037 4.66405926,18.2875556 Z M1.36296296,24.5306074 L1.36296296,21.7085926 C1.90746667,22.0513778 2.59712593,22.3641778 3.40740741,22.6463111 L3.40740741,25.8962963 L3.01828148,25.7450074 L3.0101037,25.7531852 C1.94017778,25.3095407 1.36432593,24.8740741 1.36296296,24.5306074 Z M3.40740741,32.0269037 L3.40740741,29.2048889 C3.95191111,29.5476741 4.64157037,29.8604741 5.45185185,30.1426074 L5.45185185,33.4055407 C4.12637037,32.9087407 3.40877037,32.4105778 3.40740741,32.0269037 Z M35.437037,33.4055407 L35.437037,30.1432889 C36.2473185,29.8611556 36.9369778,29.5483556 37.4814815,29.2055704 L37.4814815,32.0255407 C37.4808,32.4092148 36.7625185,32.9080593 35.437037,33.4055407 Z M37.4726222,27.3117333 C37.3983407,27.7730963 36.3515852,28.3850667 34.4904593,28.960237 C32.0793778,29.7050963 28.3066963,30.3872593 23.5254222,30.5985185 C23.2807704,30.6087407 23.0368,30.618963 22.7873778,30.6271407 C22.5836148,30.6339556 22.3791704,30.6400889 22.1713185,30.6455407 C21.6070519,30.6578074 21.0346074,30.6666667 20.4444444,30.6666667 C19.8542815,30.6666667 19.2811556,30.6578074 18.7162074,30.6448593 C18.5110815,30.6400889 18.3086815,30.6332741 18.1062815,30.6264593 C17.8548148,30.6182815 17.6094815,30.6080593 17.3634667,30.597837 C12.5821926,30.3865778 8.80951111,29.7044148 6.39842963,28.9595556 C4.59591111,28.4027852 3.55460741,27.8112593 3.42376296,27.3546667 C3.62684444,27.4255407 3.83742222,27.4943704 4.05345185,27.561837 C4.07525926,27.5686519 4.09706667,27.5754667 4.11887407,27.5816 C4.30287407,27.638163 4.49096296,27.6926815 4.68382222,27.745837 C4.75674074,27.7662815 4.83034074,27.7867259 4.90462222,27.8064889 C5.01365926,27.8357926 5.12542222,27.8637333 5.23718519,27.8923556 C7.71914074,28.5281778 10.8873481,28.978637 14.3077037,29.181037 C14.3090667,29.181037 14.3097481,29.1817185 14.3111111,29.1817185 C14.3117926,29.1817185 14.3124741,29.181037 14.3131556,29.181037 C15.3694519,29.2437333 16.448237,29.2825778 17.5386074,29.2955259 C17.8289185,29.3009778 18.1171852,29.3037037 18.4,29.3037037 C18.7754963,29.3037037 19.1598519,29.2989333 19.5489778,29.2921185 C20.5432593,29.275763 21.5245926,29.238963 22.4841185,29.1817185 C22.486163,29.1817185 22.4875259,29.1830815 22.4895704,29.1830815 C22.4929778,29.1830815 22.4950222,29.181037 22.4984296,29.181037 C23.6671704,29.1108444 24.7984296,29.0106667 25.8853926,28.8859556 C25.8894815,28.8859556 25.8928889,28.888 25.8969778,28.888 C25.9119704,28.888 25.924237,28.8805037 25.9392296,28.8791407 C27.1495407,28.739437 28.2971556,28.5677037 29.3623111,28.3680296 C29.5817481,28.3278222 29.7977778,28.2862519 30.011763,28.2433185 C30.0594667,28.2337778 30.1071704,28.224237 30.1548741,28.2140148 C32.1672889,27.801037 33.9091556,27.2660741 35.1044741,26.6029926 C35.1698963,26.5675556 35.2312296,26.5307556 35.2932444,26.494637 C35.3688889,26.4496593 35.4411259,26.404 35.5113185,26.3576593 C35.5767407,26.3154074 35.6523852,26.2745185 35.7123556,26.2315852 C37.0576,26.7113481 37.4283259,27.1406815 37.4726222,27.3117333 Z M37.4814815,18.4129481 L37.4814815,15.1506963 C38.291763,14.868563 38.9814222,14.555763 39.5259259,14.2129778 L39.5259259,17.0329481 C39.5252444,17.4166222 38.806963,17.9154667 37.4814815,18.4129481 Z" id="Shape"></path>
                    </g>
                </g>
            </g>
        </g>
    </g>
</svg>