<?xml version="1.0" encoding="UTF-8"?>
<svg width="25px" height="25px" viewBox="0 0 25 25" version="1.1" xmlns="http://www.w3.org/2000/svg" xmlns:xlink="http://www.w3.org/1999/xlink">
    <!-- Generator: Sketch 46.2 (44496) - http://www.bohemiancoding.com/sketch -->
    <title>down-arrow-inside-circle copy 3</title>
    <desc>Created with Sketch.</desc>
    <defs></defs>
    <g id="Index+" stroke="none" stroke-width="1" fill="none" fill-rule="evenodd">
        <g id="WILD_FISH_index_1440" transform="translate(-1211.000000, -3278.000000)" fill-rule="nonzero" fill="#484848">
            <g id="Recipes" transform="translate(165.000000, 3277.000000)">
                <g id="Reciepes">
                    <g id="down-arrow-inside-circle-copy-3" transform="translate(1058.500000, 13.500000) rotate(90.000000) translate(-1058.500000, -13.500000) translate(1046.000000, 1.000000)">
                        <path d="M18.3881579,10.8552632 L12.8289474,16.4144737 C12.6973684,16.5460526 12.5328947,16.6118421 12.3684211,16.6118421 C12.2039474,16.6118421 12.0394737,16.5460526 11.9078947,16.4144737 L6.61184211,11.1184211 C6.34868421,10.8552632 6.34868421,10.4605263 6.61184211,10.1973684 C6.875,9.93421053 7.26973684,9.93421053 7.53289474,10.1973684 L12.3684211,15.0328947 L17.4671053,9.93421053 C17.7302632,9.67105263 18.125,9.67105263 18.3881579,9.93421053 C18.6513158,10.1644737 18.6513158,10.5921053 18.3881579,10.8552632 Z M25,12.5 C25,19.4078947 19.4078947,25 12.5,25 C5.59210526,25 0,19.4078947 0,12.5 C0,5.59210526 5.59210526,0 12.5,0 C19.4078947,0 25,5.59210526 25,12.5 Z M23.6842105,12.5 C23.6842105,6.31578947 18.6842105,1.31578947 12.5,1.31578947 C6.31578947,1.31578947 1.31578947,6.31578947 1.31578947,12.5 C1.31578947,18.6842105 6.31578947,23.6842105 12.5,23.6842105 C18.6842105,23.6842105 23.6842105,18.6842105 23.6842105,12.5 Z" id="Down_Arrow"></path>
                    </g>
                </g>
            </g>
        </g>
    </g>
</svg>