<?xml version="1.0" encoding="UTF-8"?>
<svg width="23px" height="30px" viewBox="0 0 23 30" version="1.1" xmlns="http://www.w3.org/2000/svg" xmlns:xlink="http://www.w3.org/1999/xlink">
    <!-- Generator: Sketch 48.2 (47327) - http://www.bohemiancoding.com/sketch -->
    <title>path26</title>
    <desc>Created with Sketch.</desc>
    <defs></defs>
    <g id="WILD_FISH_recipe_1440-Copy" stroke="none" stroke-width="1" fill="none" fill-rule="evenodd" transform="translate(-936.000000, -1365.000000)">
        <g id="Group-36" transform="translate(40.000000, 1193.000000)" fill="#00B4AD" fill-rule="nonzero">
            <g id="Group-29" transform="translate(370.000000, 90.000000)">
                <g id="Group-5" transform="translate(411.000000, 62.000000)">
                    <g id="Group-4" transform="translate(38.000000, 0.000000)">
                        <g id="Group-Copy" transform="translate(53.000000, 0.000000)">
                            <path d="M46.1488142,24.5853035 C45.6632786,23.33748 44.9559552,22.5971446 44.2066719,21.8986022 C43.4573886,21.2000599 42.1266615,20.5253994 41.0237164,20.2925519 C40.226479,20.0895567 39.0575971,20 37.5590305,20 L25.9061767,20 L25.9061767,33.8514377 L24,33.8514377 L24,36.9560703 L25.9061767,36.9560703 L25.9061767,38.2158347 L24,38.2158347 L24,41.3204673 L25.9061767,41.3204673 L25.9061767,49.9 L29.2449831,49.9 L29.2449831,41.3204673 L41.2095387,41.3204673 L41.2095387,38.2158347 L29.2449831,38.2158347 L29.2449831,36.9560703 L29.4547824,36.9560703 L37.8227782,36.9560703 C41.0416992,36.9560703 43.3494918,36.0605032 44.7881157,34.3171326 C46.1608027,32.6513778 47,31.1945887 47,28.6392372 C47,27.1585663 46.5863956,25.7973043 46.1428199,24.5793331 L46.1488142,24.5853035 Z M42.4029588,32.3704906 C41.5284591,33.3315053 40.3728702,33.8 38.349028,33.8 L29.5852916,33.8 L29.3666667,33.8 L29.3666667,23.0666667 L38.2803173,23.0666667 C39.7045026,23.0666667 40.691438,23.1567618 41.1973985,23.3309457 C42.0344197,23.8414848 42.6902945,24.2379034 43.1775157,25.108823 C43.6834763,26.0157806 43.9333333,27.0909159 43.9333333,28.3162097 C43.9333333,30.0640552 43.2274871,31.4395076 42.3967124,32.3704906 L42.4029588,32.3704906 Z" id="path26"></path>
                        </g>
                    </g>
                </g>
            </g>
        </g>
    </g>
</svg>