<svg width="32" height="38" viewBox="0 0 32 38" xmlns="http://www.w3.org/2000/svg"><title>Group 12</title><g fill="#FDCE34"><path d="M16.503 36.053l-.02-.005.059.016-.04-.01zm-1.006 0l-.039.01.06-.015-.02.005zM29.993 8.256c-2.352-.93-6.959-2.934-13.954-6.066a1165.932 1165.932 0 0 1-7.05 3.101l-.295.128C5.707 6.718 3.439 7.681 2.007 8.251 2.201 25.95 6.175 33.167 16 35.918c9.825-2.75 13.799-9.965 13.993-27.662zM0 6.864C2.05 6.236 16.042 0 16.042 0 25.314 4.157 30.634 6.445 32 6.864c0 20.64-5.026 28.26-15.958 31.114C5.026 35.124 0 27.503 0 6.864z"/><path d="M25.087 13.173l.756 1.851c-4.687 1.914-8.62 5.178-11.813 9.813l-.752 1.091-.844-1.022c-2.573-3.122-4.502-5.385-5.783-6.784l1.475-1.35c1.166 1.274 2.84 3.226 5.024 5.86 3.27-4.388 7.252-7.546 11.937-9.46z"/></g></svg>