<svg width="110" height="120" viewBox="0 0 110 120" xmlns="http://www.w3.org/2000/svg" xmlns:xlink="http://www.w3.org/1999/xlink"><title>icon</title><defs><path d="M50 48.766c13.306-22.95 50-17.33 50 17.808C100 101.714 50 120 50 120S0 101.713 0 66.574s36.694-40.758 50-17.808z" id="a"/><circle id="b" cx="25" cy="25" r="25"/></defs><g fill="none" fill-rule="evenodd"><path opacity=".5" d="M0 0h120v120H0z"/><use fill="#FFF" xlink:href="#a"/><path stroke="#FDCE34" stroke-width="2" d="M50 118.931l.199-.077c.45-.175.974-.386 1.565-.632 1.693-.704 3.58-1.547 5.614-2.529 5.81-2.806 11.621-6.156 17.04-10.041C89.806 94.615 99 81.562 99 66.574c0-15.8-7.708-26.597-19.271-29.722-10.943-2.957-22.716 1.812-28.864 12.415L50 50.76l-.865-1.492c-6.148-10.603-17.92-15.372-28.864-12.415C8.708 39.977 1 50.773 1 66.574c0 14.988 9.193 28.041 24.583 39.078 5.418 3.885 11.228 7.235 17.04 10.041 2.033.982 3.92 1.825 5.613 2.53a73.898 73.898 0 0 0 1.764.708z"/><path stroke="#FDCE34" stroke-width="2" d="M14 80h30l4 10 5-21 4 11 29.148.297"/><g transform="translate(60)"><use fill="#FFF" xlink:href="#b"/><circle stroke="#319018" stroke-width="2" cx="25" cy="25" r="24"/></g><path d="M73 22.667c2.006 2.466 5.117 6.096 9.333 10.889C87.23 26.228 93.453 21.042 101 18" stroke="#319018" stroke-width="2"/></g></svg>