<svg width="40" height="40" viewBox="0 0 40 40" xmlns="http://www.w3.org/2000/svg" xmlns:xlink="http://www.w3.org/1999/xlink"><title>icon</title><defs><path id="a" d="M28 10h12v30H28z"/><path id="b" d="M0 0h30v40H0z"/></defs><g fill="none" fill-rule="evenodd"><path d="M0 0h40v40H0z"/><use fill="#FFF" xlink:href="#a"/><path stroke="#FDCE34" stroke-width="2" d="M29 11h10v28H29z"/><use fill="#FFF" xlink:href="#b"/><path stroke="#FDCE34" stroke-width="2" d="M1 1h28v38H1z"/><path d="M22.5 27H24l-1-1v2l1-1h-1.5zm-2 0H20v.5V26l-1 1h1.5zm-.5 3v2l1-1h-2l1 1v-2zm-4.5-3H17l-1-1v2l1-1h-1.5zm0 0H13v.5V26l-1 1h3.5zM13 30v2l1-1h-2l1 1v-2zm-4.5-3H10l-1-1v2l1-1H8.5zm0 0H6v.5V26l-1 1h3.5zM6 30v2l1-1H5l1 1v-2zm16.5-13H24l-1-1v2l1-1h-1.5zm-2 0H20v.5V16l-1 1h1.5zm-.5 3v2l1-1h-2l1 1v-2zm-4.5-3H17l-1-1v2l1-1h-1.5zm0 0H13v.5V16l-1 1h3.5zM13 20v2l1-1h-2l1 1v-2zm-4.5-3H10l-1-1v2l1-1H8.5zm0 0H6v.5V16l-1 1h3.5zM6 20v2l1-1H5l1 1v-2zM22.5 7H24l-1-1v2l1-1h-1.5zm-2 0H20v.5V6l-1 1h1.5zm-.5 3v2l1-1h-2l1 1v-2zm-4.5-3H17l-1-1v2l1-1h-1.5zm0 0H13v.5V6l-1 1h3.5zM13 10v2l1-1h-2l1 1v-2zM8.5 7H10L9 6v2l1-1H8.5zm0 0H6v.5V6L5 7h3.5zM6 10v2l1-1H5l1 1v-2z" stroke="#FDCE34" stroke-width="2"/></g></svg>