<svg width="120" height="120" viewBox="0 0 120 120" xmlns="http://www.w3.org/2000/svg" xmlns:xlink="http://www.w3.org/1999/xlink"><title>Group 9</title><defs><path id="a" d="M10 38h100v50H10z"/><path id="b" d="M20 50h34v20H20z"/><path id="c" d="M20 50h22v20H20z"/><path id="d" d="M88 50h13v20H88z"/><path id="e" d="M4 82h112v9H4z"/><path id="f" d="M20 10h50v20H20z"/><path id="g" d="M62 50h20v41H62z"/><path id="h" d="M40 0l80 40H0z"/><circle id="i" cx="25" cy="25" r="25"/></defs><g fill="none" fill-rule="evenodd"><g transform="translate(0 29)"><use fill="#FFF" xlink:href="#a"/><path stroke="#FDCE34" stroke-width="2" d="M11 39h98v48H11z"/></g><g transform="translate(0 29)"><use fill="#FFF" xlink:href="#b"/><path stroke="#FDCE34" stroke-width="2" d="M21 51h32v18H21z"/></g><g transform="translate(0 29)"><use fill="#FFF" xlink:href="#c"/><path stroke="#FDCE34" stroke-width="2" d="M21 51h20v18H21z"/></g><g transform="translate(0 29)"><use fill="#FFF" xlink:href="#d"/><path stroke="#FDCE34" stroke-width="2" d="M89 51h11v18H89z"/></g><g transform="translate(0 29)"><use fill="#FFF" xlink:href="#e"/><path stroke="#FDCE34" stroke-width="2" d="M5 83h110v7H5z"/></g><g transform="matrix(-1 0 0 1 90 29)"><use fill="#FFF" xlink:href="#f"/><path stroke="#FDCE34" stroke-width="2" d="M21 11h48v18H21z"/></g><g transform="translate(0 29)"><use fill="#FFF" xlink:href="#g"/><path stroke="#FDCE34" stroke-width="2" d="M63 51h18v39H63z"/></g><g transform="matrix(-1 0 0 1 120 29)"><use fill="#FFF" xlink:href="#h"/><path stroke="#FDCE34" stroke-width="2" d="M40.197 1.217L2.414 39h113.35L40.197 1.217z"/></g><g transform="translate(70)"><use fill="#FFF" xlink:href="#i"/><circle stroke="#319018" stroke-width="2" cx="25" cy="25" r="24"/></g><path d="M83 22.667c2.006 2.466 5.117 6.096 9.333 10.889C97.23 26.228 103.453 21.042 111 18" stroke="#319018" stroke-width="2"/></g></svg>