<svg width="32" height="38" viewBox="0 0 32 38" xmlns="http://www.w3.org/2000/svg" xmlns:xlink="http://www.w3.org/1999/xlink"><title>icon</title><defs><path d="M32 12H0V9.597A5.5 5.5 0 0 1 2.72 4.85L11 0h10l8.28 4.851A5.5 5.5 0 0 1 32 9.597V12zm-5.5 17h-21 21z" id="a"/><rect id="b" x="11" y="19" width="10" height="13" rx="5"/><path d="M12.547 24.586A2.998 2.998 0 0 1 10 26a2.998 2.998 0 0 1-2.547-1.414A8.003 8.003 0 0 1 2 17v-5a8 8 0 1 1 16 0v5a8.003 8.003 0 0 1-5.453 7.586z" id="c"/><path d="M14.537 7.217C11.784 12.205 2.165 5.928 2.38 14.895c.013.522-1.798-3.083-1.53-6.585.268-3.501 2.09-6.274 5.078-7.43 3.721-1.438 7.435-.97 8.61 1.935 5.127 0 6.054 6.56 2.937 11.331 0-6.92-2.937-6.929-2.937-6.929z" id="d"/></defs><g fill="none" fill-rule="evenodd"><g transform="translate(0 26)"><use fill="#FFF" xlink:href="#a"/><path stroke="#FDCE34" stroke-width="2" d="M31 11V9.597a4.5 4.5 0 0 0-2.225-3.883L20.729 1H11.27L3.225 5.714A4.5 4.5 0 0 0 1 9.597V11h30zm-4.5 17v2h-21v-2h21z"/></g><use fill="#FFF" xlink:href="#b"/><rect stroke="#FDCE34" stroke-width="2" x="12" y="20" width="8" height="11" rx="4"/><g transform="translate(6)"><use fill="#FFF" xlink:href="#c"/><path stroke="#FDCE34" stroke-width="2" d="M11.699 24.057l.19-.305.34-.114A7.003 7.003 0 0 0 17 17v-5a7 7 0 0 0-14 0v5c0 3.03 1.944 5.69 4.771 6.638l.34.114.19.305a2 2 0 0 0 3.398 0z"/><ellipse fill="#FDCE34" cx="13" cy="15.5" rx="1" ry="1.5"/><ellipse fill="#FDCE34" cx="7" cy="15.5" rx="1" ry="1.5"/><use fill="#FFF" xlink:href="#d"/><path stroke="#FDCE34" stroke-width="2" d="M18.077 10.247c.77-3.412-.602-6.432-3.54-6.432h-.674l-.253-.625C12.74 1.04 9.783.462 6.288 1.814c-2.575.995-4.199 3.395-4.442 6.573-.069.902.012 1.875.208 2.846A4.284 4.284 0 0 1 3.728 9.45c1.174-.691 2.256-.848 4.825-.94l.23-.009c2.987-.11 4.162-.467 4.879-1.766l.286-.518.592.001c.642.002 1.473.331 2.229 1.223.576.68 1.019 1.607 1.308 2.807z"/></g></g></svg>