<svg width="100" height="120" viewBox="0 0 100 120" xmlns="http://www.w3.org/2000/svg" xmlns:xlink="http://www.w3.org/1999/xlink"><title>icon</title><defs><path id="a" d="M0 20h80v100H0z"/><circle id="b" cx="25" cy="25" r="25"/></defs><g fill="none" fill-rule="evenodd"><path opacity=".5" d="M0 0h120v120H0z"/><use fill="#FFF" xlink:href="#a"/><path stroke="#FDCE34" stroke-width="2" d="M1 21h78v98H1z"/><path fill="#FDCE34" d="M15 43h50v2H15zm0 10h50v2H15zm0 10h50v2H15zm0 10h50v2H15zm0 10h40v2H15z"/><g transform="translate(50)"><use fill="#FFF" xlink:href="#b"/><circle stroke="#319018" stroke-width="2" cx="25" cy="25" r="24"/></g><path d="M63 22.667c2.006 2.466 5.117 6.096 9.333 10.889C77.23 26.228 83.453 21.042 91 18" stroke="#319018" stroke-width="2"/></g></svg>