<svg width="38" height="46" viewBox="0 0 38 46" fill="none" xmlns="http://www.w3.org/2000/svg">
<rect width="38" height="35" rx="12" fill="black"/>
<path d="M13.5233 10.2391C13.2327 10.4664 12.8652 10.5718 12.4984 10.533C12.1316 10.4942 11.7943 10.3143 11.5576 10.0312C11.4283 10.1374 11.2977 10.2434 11.1658 10.349C11.3762 10.6077 11.4892 10.9322 11.4852 11.2657C11.4811 11.5993 11.3603 11.9209 11.1437 12.1744C10.9271 12.428 10.6285 12.5974 10.2999 12.6533C9.97127 12.7091 9.63351 12.6477 9.34546 12.4799C9.2584 12.6215 9.1753 12.7661 9.09418 12.9126C9.38036 13.0832 9.59765 13.3489 9.70819 13.6634C9.81873 13.9779 9.8155 14.3213 9.69907 14.6337C9.58264 14.946 9.36039 15.2076 9.07106 15.3728C8.78172 15.538 8.44364 15.5963 8.11575 15.5376C8.08112 15.702 8.05145 15.8664 8.02572 16.0327C8.3535 16.0951 8.64896 16.2708 8.86052 16.529C9.07208 16.7873 9.1863 17.1117 9.18324 17.4456C9.18018 17.7795 9.06003 18.1018 8.84376 18.3561C8.6275 18.6104 8.32886 18.7806 8 18.837C8.02374 19.0043 8.05243 19.1707 8.08508 19.3321C8.41372 19.2767 8.75135 19.3389 9.03875 19.5078C9.32615 19.6767 9.54498 19.9414 9.65686 20.2556C9.76874 20.5698 9.76653 20.9134 9.65062 21.2262C9.5347 21.5389 9.3125 21.8008 9.02295 21.966C9.10078 22.1145 9.18354 22.2601 9.27126 22.4026C9.56229 22.2405 9.90092 22.1856 10.2282 22.2475C10.5555 22.3094 10.8507 22.4843 11.0625 22.7416C11.2743 22.9989 11.3893 23.3224 11.3873 23.6558C11.3854 23.9892 11.2668 24.3114 11.052 24.5662C11.1757 24.6771 11.3023 24.786 11.4319 24.891C11.6494 24.6379 11.9487 24.4692 12.2778 24.4144C12.6068 24.3596 12.9446 24.4222 13.2323 24.5913C13.5199 24.7603 13.7391 25.0251 13.8516 25.3394C13.9641 25.6537 13.9627 25.9975 13.8478 26.3109C14.0008 26.3736 14.1568 26.4321 14.3158 26.4862C14.4332 26.1734 14.6569 25.912 14.9475 25.7476C15.2382 25.5832 15.5774 25.5264 15.9057 25.587C16.234 25.6477 16.5305 25.822 16.7434 26.0794C16.9562 26.3369 17.0718 26.661 17.07 26.9952C17.2372 27.0011 17.4044 27.0021 17.5646 26.9952C17.5686 26.6612 17.6896 26.3392 17.9066 26.0854C18.1236 25.8316 18.4228 25.6623 18.7519 25.6068C19.081 25.5514 19.4191 25.6135 19.7072 25.7821C19.9952 25.9508 20.2149 26.2155 20.3278 26.5298C20.4881 26.477 20.6467 26.4205 20.8036 26.3604C20.692 26.0459 20.6948 25.702 20.8113 25.3892C20.9278 25.0764 21.1507 24.8147 21.4409 24.6501C21.731 24.4854 22.0698 24.4284 22.3978 24.4889C22.7258 24.5495 23.022 24.7237 23.2344 24.9811C23.366 24.8821 23.4956 24.7722 23.6212 24.6623C23.4095 24.4037 23.2953 24.0788 23.2987 23.7445C23.3021 23.4102 23.4228 23.0878 23.6398 22.8335C23.8568 22.5793 24.1561 22.4096 24.4855 22.354C24.8149 22.2984 25.1533 22.3605 25.4415 22.5294C25.5293 22.3888 25.6137 22.2452 25.6948 22.0987C25.4067 21.929 25.1874 21.6633 25.0755 21.348C24.9636 21.0327 24.9661 20.6881 25.0828 20.3745C25.1994 20.061 25.4226 19.7985 25.7133 19.6333C26.0039 19.468 26.3434 19.4104 26.6722 19.4707C26.7069 19.3063 26.7365 19.1419 26.7623 18.9756C26.5107 18.9271 26.2769 18.8117 26.0854 18.6415C25.8939 18.4712 25.7518 18.2524 25.674 18.0082H24.7688C24.6653 19.4948 24.1156 20.9156 23.1916 22.0842C22.2677 23.2529 21.0127 24.115 19.5909 24.5577C18.1691 25.0004 16.6469 25.0029 15.2237 24.565C13.8005 24.1271 12.5426 23.2691 11.6148 22.1035C10.687 20.9379 10.1325 19.5191 10.0241 18.0327C9.91559 16.5464 10.2582 15.0619 11.0069 13.7738C11.7557 12.4856 12.8757 11.4538 14.2202 10.8136C15.5648 10.1733 17.0712 9.95446 18.5421 10.1856V9.30238C18.2959 9.18702 18.0878 9.00361 17.9423 8.77379C17.7968 8.54396 17.72 8.2773 17.721 8.00522C17.5538 7.99928 17.3866 7.9973 17.2263 8.00522C17.2221 8.33914 17.1009 8.66099 16.8839 8.91458C16.6668 9.16817 16.3676 9.33738 16.0386 9.39268C15.7095 9.44799 15.3715 9.38586 15.0836 9.21715C14.7956 9.04844 14.5761 8.78387 14.4632 8.46963C14.3029 8.52211 14.1456 8.58152 13.9883 8.64192C14.0855 8.92129 14.0933 9.22405 14.0104 9.50803C13.9276 9.79201 13.7584 10.0431 13.5263 10.2262L13.5233 10.2391Z" fill="white"/>
<path d="M22.9097 17.4398H21.6187V13.5573H20.2148V12.4285H24.3066V13.5573H22.9097V17.4418V17.4398ZM27.6489 17.5299C26.868 17.5299 26.2774 17.3372 25.8771 16.9517C25.4767 16.5662 25.2766 16.0526 25.2766 15.4109V12.4285H26.5904V15.3664C26.5843 15.5017 26.6054 15.637 26.6525 15.764C26.6996 15.8911 26.7716 16.0074 26.8644 16.106C27.0464 16.2942 27.3086 16.3883 27.6489 16.3883C27.9892 16.3883 28.2425 16.2892 28.4255 16.106C28.5183 16.0074 28.5904 15.8911 28.6374 15.764C28.6845 15.637 28.7056 15.5017 28.6996 15.3664V12.4285H30.0005V15.399C30.0005 16.0447 29.8026 16.5605 29.4069 16.9467C29.0112 17.3329 28.4245 17.5257 27.6469 17.525L27.6489 17.5299Z" fill="white"/>
<path fill-rule="evenodd" clip-rule="evenodd" d="M16.8779 11.2799C16.9057 11.4213 16.9706 11.5527 17.0659 11.6608C17.1611 11.7688 17.2834 11.8496 17.4201 11.8948C17.5567 11.9397 17.7027 11.9481 17.8435 11.9193C17.9844 11.8904 18.1153 11.8253 18.2234 11.7304C18.3301 11.6351 18.4099 11.5135 18.455 11.3776C18.5 11.2418 18.5087 11.0965 18.4802 10.9562C18.4517 10.816 18.3869 10.6857 18.2924 10.5783C18.1979 10.4709 18.0769 10.3902 17.9414 10.3441C17.8051 10.2989 17.6593 10.2902 17.5185 10.3189C17.3778 10.3476 17.247 10.4126 17.1391 10.5075C17.0309 10.6023 16.9497 10.724 16.9039 10.8604C16.858 10.9968 16.849 11.1429 16.8779 11.2838V11.2799Z" fill="#FAA821"/>
<path fill-rule="evenodd" clip-rule="evenodd" d="M13.0091 13.0899C13.1497 13.2029 13.3237 13.2663 13.504 13.2703C13.6843 13.2743 13.8609 13.2186 14.0063 13.1118C14.1518 13.0051 14.258 12.8533 14.3084 12.68C14.3589 12.5067 14.3508 12.3215 14.2854 12.1533C14.22 11.9851 14.1009 11.8432 13.9467 11.7496C13.7925 11.656 13.6117 11.6159 13.4324 11.6357C13.2532 11.6554 13.0854 11.7338 12.9552 11.8587C12.825 11.9836 12.7396 12.148 12.7123 12.3264C12.6909 12.4686 12.7071 12.6138 12.7591 12.7477C12.8112 12.8816 12.8974 12.9996 13.0091 13.0899Z" fill="#FAA821"/>
<path fill-rule="evenodd" clip-rule="evenodd" d="M17.927 12.8771C17.9538 13.0094 18.0233 13.1292 18.125 13.218C18.2266 13.3067 18.3546 13.3595 18.4892 13.3681C18.6238 13.3767 18.7575 13.3406 18.8696 13.2655C18.9816 13.1903 19.0658 13.0803 19.1091 12.9525C19.1524 12.8246 19.1524 12.6861 19.1091 12.5582C19.0658 12.4304 18.9816 12.3204 18.8695 12.2453C18.7574 12.1702 18.6237 12.1341 18.4891 12.1427C18.3545 12.1513 18.2265 12.2041 18.1249 12.2929C18.0435 12.3642 17.9823 12.4558 17.9476 12.5584C17.9129 12.661 17.9058 12.7709 17.927 12.8771Z" fill="#FAA821"/>
<path fill-rule="evenodd" clip-rule="evenodd" d="M14.8369 13.6375C14.9206 13.7055 15.021 13.7499 15.1275 13.7663C15.2341 13.7827 15.3431 13.7703 15.4434 13.7306C15.5429 13.6898 15.6303 13.624 15.697 13.5395C15.7638 13.455 15.8076 13.3547 15.8242 13.2484C15.8401 13.1418 15.8277 13.0329 15.7883 12.9326C15.7489 12.8324 15.6838 12.7442 15.5997 12.677C15.5155 12.6098 15.4152 12.566 15.3088 12.5498C15.2023 12.5336 15.0935 12.5458 14.9932 12.5849C14.8934 12.6253 14.8058 12.691 14.739 12.7755C14.6722 12.8601 14.6285 12.9606 14.6123 13.0671C14.5962 13.1736 14.6085 13.2824 14.648 13.3826C14.6874 13.4827 14.7526 13.5707 14.8369 13.6375Z" fill="#FAA821"/>
<path fill-rule="evenodd" clip-rule="evenodd" d="M16.1131 14.304C16.176 14.3549 16.2513 14.3881 16.3312 14.4003C16.4112 14.4125 16.493 14.4031 16.5682 14.3733C16.644 14.3439 16.7108 14.295 16.7616 14.2315C16.8124 14.1679 16.8455 14.092 16.8574 14.0115C16.8694 13.931 16.8598 13.8487 16.8297 13.7731C16.7996 13.6975 16.7499 13.6313 16.6859 13.5811C16.6229 13.5304 16.5476 13.4973 16.4677 13.4851C16.3878 13.4729 16.306 13.4821 16.2308 13.5118C16.1549 13.5411 16.0882 13.5901 16.0374 13.6536C15.9866 13.7172 15.9535 13.7931 15.9415 13.8736C15.9296 13.9541 15.9391 14.0363 15.9693 14.1119C15.9994 14.1875 16.049 14.2538 16.1131 14.304Z" fill="#FAA821"/>
<path fill-rule="evenodd" clip-rule="evenodd" d="M18.4726 14.2069C18.4932 14.3061 18.5459 14.3956 18.6225 14.4618C18.6992 14.5279 18.7955 14.5669 18.8965 14.5727C18.9975 14.5785 19.0976 14.5509 19.1813 14.494C19.265 14.4371 19.3277 14.3542 19.3595 14.258C19.3914 14.1619 19.3907 14.058 19.3576 13.9623C19.3245 13.8666 19.2607 13.7845 19.1763 13.7287C19.0918 13.6729 18.9914 13.6466 18.8904 13.6537C18.7895 13.6609 18.6937 13.7011 18.618 13.7683C18.5573 13.8221 18.5118 13.891 18.4863 13.968C18.4608 14.045 18.456 14.1275 18.4726 14.2069Z" fill="#FAA821"/>
<path fill-rule="evenodd" clip-rule="evenodd" d="M16.8659 14.9089C16.9118 14.9444 16.9661 14.9672 17.0235 14.9753C17.0809 14.9833 17.1394 14.9763 17.1932 14.9548C17.247 14.9333 17.2943 14.8981 17.3305 14.8527C17.3666 14.8074 17.3902 14.7533 17.3991 14.696C17.407 14.6382 17.3999 14.5792 17.3784 14.525C17.3569 14.4707 17.3218 14.4228 17.2765 14.3861C17.2306 14.3496 17.1759 14.3259 17.118 14.3173C17.06 14.3087 17.0009 14.3156 16.9464 14.3372C16.8919 14.3587 16.8441 14.3943 16.8077 14.4403C16.7714 14.4862 16.7478 14.541 16.7393 14.599C16.7316 14.6568 16.7389 14.7156 16.7604 14.7699C16.7819 14.8241 16.8168 14.872 16.8619 14.9089H16.8659Z" fill="#FAA821"/>
<path fill-rule="evenodd" clip-rule="evenodd" d="M18.6651 15.1544C18.6798 15.226 18.7176 15.2906 18.7727 15.3385C18.8278 15.3863 18.8972 15.4146 18.97 15.4189C19.0428 15.4233 19.115 15.4035 19.1755 15.3626C19.2359 15.3217 19.2812 15.262 19.3042 15.1927C19.3273 15.1235 19.3269 15.0485 19.3031 14.9795C19.2792 14.9105 19.2333 14.8513 19.1725 14.811C19.1116 14.7708 19.0392 14.7518 18.9664 14.7569C18.8936 14.7621 18.8246 14.7911 18.77 14.8396C18.7263 14.8781 18.6935 14.9275 18.6751 14.9828C18.6567 15.0381 18.6532 15.0974 18.6651 15.1544Z" fill="#FAA821"/>
<path fill-rule="evenodd" clip-rule="evenodd" d="M17.3242 15.4772C17.3609 15.5069 17.4047 15.5264 17.4513 15.5336C17.4979 15.5408 17.5456 15.5355 17.5895 15.5183C17.6335 15.5011 17.672 15.4726 17.7014 15.4357C17.7307 15.3987 17.7497 15.3546 17.7565 15.3079C17.7643 15.2611 17.7592 15.213 17.7418 15.1689C17.7244 15.1248 17.6953 15.0862 17.6576 15.0574C17.621 15.0273 17.577 15.0076 17.5302 15.0002C17.4834 14.9929 17.4355 14.9983 17.3915 15.0158C17.3477 15.0333 17.3093 15.062 17.28 15.099C17.2508 15.136 17.2317 15.18 17.2247 15.2266C17.2177 15.2733 17.223 15.321 17.2401 15.3649C17.2572 15.4089 17.2855 15.4476 17.3222 15.4772H17.3242Z" fill="#FAA821"/>
<path fill-rule="evenodd" clip-rule="evenodd" d="M15.3282 15.8763C15.3718 15.8753 15.4149 15.8658 15.4548 15.8481C15.4948 15.8305 15.5309 15.8052 15.5611 15.7736C15.5912 15.742 15.6149 15.7048 15.6307 15.6641C15.6465 15.6233 15.6542 15.5799 15.6532 15.5362C15.6522 15.4925 15.6426 15.4494 15.625 15.4094C15.6074 15.3694 15.5821 15.3333 15.5506 15.3031C15.519 15.2729 15.4818 15.2492 15.4411 15.2334C15.4004 15.2176 15.357 15.2099 15.3134 15.2109C15.2252 15.2129 15.1414 15.2498 15.0805 15.3136C15.0195 15.3774 14.9864 15.4628 14.9884 15.551C14.9903 15.6393 15.0272 15.7231 15.091 15.7841C15.1547 15.8451 15.24 15.8783 15.3282 15.8763Z" fill="#FAA821"/>
<path fill-rule="evenodd" clip-rule="evenodd" d="M14.3614 15.902C14.443 15.9017 14.5229 15.8791 14.5927 15.8367C14.6624 15.7943 14.7192 15.7337 14.7572 15.6614C14.7953 15.5902 14.8142 15.5103 14.8119 15.4295C14.8097 15.3487 14.7864 15.27 14.7443 15.201C14.7023 15.1327 14.6431 15.0767 14.5726 15.0385C14.5022 15.0002 14.423 14.9812 14.3429 14.9832C14.2628 14.9852 14.1846 15.0082 14.1162 15.0499C14.0477 15.0916 13.9914 15.1505 13.9528 15.2208C13.9144 15.2921 13.8954 15.3723 13.8976 15.4532C13.8999 15.5342 13.9234 15.6132 13.9657 15.6822C14.0075 15.7513 14.0669 15.8081 14.1378 15.8467C14.2088 15.8854 14.2887 15.9044 14.3693 15.902H14.3614Z" fill="#FAA821"/>
<path fill-rule="evenodd" clip-rule="evenodd" d="M16.0466 16.0179C16.094 16.0163 16.1401 16.0024 16.1805 15.9776C16.2209 15.9528 16.2542 15.9179 16.2771 15.8763C16.2989 15.8348 16.3095 15.7883 16.3079 15.7414C16.3064 15.6946 16.2926 15.6489 16.2681 15.6089C16.2435 15.569 16.209 15.5361 16.1679 15.5135C16.1268 15.491 16.0806 15.4795 16.0337 15.4803C15.9865 15.4815 15.9404 15.4951 15.9001 15.5198C15.8598 15.5445 15.8267 15.5793 15.8041 15.6209C15.7816 15.6624 15.7704 15.7092 15.7716 15.7565C15.7728 15.8038 15.7864 15.8499 15.8111 15.8902C15.8354 15.9307 15.87 15.9639 15.9114 15.9866C15.9528 16.0092 15.9994 16.0204 16.0466 16.0189V16.0179Z" fill="#FAA821"/>
<path fill-rule="evenodd" clip-rule="evenodd" d="M17.613 16.0021C17.6411 16.0247 17.6746 16.0394 17.7102 16.0448C17.7458 16.0501 17.7822 16.046 17.8157 16.0327C17.8492 16.0194 17.8786 15.9975 17.9008 15.9692C17.9231 15.9408 17.9374 15.9071 17.9424 15.8714C17.9483 15.8361 17.9445 15.7999 17.9314 15.7666C17.9184 15.7333 17.8965 15.7042 17.8682 15.6823C17.8402 15.6597 17.8066 15.645 17.771 15.6396C17.7354 15.6342 17.699 15.6384 17.6655 15.6517C17.6321 15.665 17.6027 15.6869 17.5804 15.7152C17.5582 15.7436 17.5438 15.7773 17.5388 15.813C17.533 15.8483 17.5368 15.8845 17.5498 15.9178C17.5629 15.9511 17.5847 15.9802 17.613 16.0021Z" fill="#FAA821"/>
<path fill-rule="evenodd" clip-rule="evenodd" d="M18.6537 15.8873C18.6633 15.9335 18.6848 15.9764 18.7161 16.0117C18.7474 16.0471 18.7875 16.0736 18.8322 16.0886C18.8769 16.1036 18.9248 16.1066 18.9711 16.0974C19.0173 16.0881 19.0604 16.0669 19.0959 16.0358C19.1313 16.0043 19.1578 15.964 19.1727 15.919C19.1877 15.874 19.1905 15.8259 19.181 15.7794C19.1715 15.733 19.1499 15.6899 19.1185 15.6544C19.0871 15.6189 19.0468 15.5923 19.0019 15.5773C18.9571 15.5621 18.909 15.559 18.8626 15.5684C18.8162 15.5778 18.7732 15.5993 18.7378 15.6308C18.7029 15.6627 18.6769 15.7031 18.6621 15.748C18.6474 15.7929 18.6445 15.8409 18.6537 15.8873Z" fill="#FAA821"/>
<path fill-rule="evenodd" clip-rule="evenodd" d="M12.961 16.21C13.0964 16.207 13.227 16.1594 13.3326 16.0746C13.4382 15.9898 13.5129 15.8724 13.5451 15.7408C13.5773 15.6092 13.5652 15.4706 13.5107 15.3465C13.4562 15.2224 13.3624 15.1198 13.2437 15.0545C13.125 14.9892 12.9882 14.965 12.8543 14.9855C12.7204 15.006 12.5971 15.0701 12.5033 15.1679C12.4096 15.2657 12.3507 15.3917 12.3358 15.5264C12.3209 15.6611 12.3507 15.797 12.4208 15.913C12.4768 16.0057 12.5562 16.0819 12.6511 16.1341C12.7459 16.1862 12.8528 16.2124 12.961 16.21Z" fill="#FAA821"/>
<path fill-rule="evenodd" clip-rule="evenodd" d="M16.6081 16.2359C16.6439 16.2345 16.6788 16.2238 16.7093 16.2049C16.7399 16.186 16.765 16.1595 16.7822 16.128C16.8 16.0965 16.8088 16.0608 16.8078 16.0246C16.8067 15.9885 16.7958 15.9534 16.7763 15.923C16.7583 15.8919 16.7323 15.8662 16.7009 15.8488C16.6696 15.8313 16.634 15.8228 16.5982 15.824C16.5624 15.8253 16.5276 15.8358 16.4971 15.8545C16.4666 15.8733 16.4414 15.8996 16.4241 15.9309C16.4054 15.9618 16.3955 15.9973 16.3955 16.0334C16.3955 16.0695 16.4054 16.105 16.4241 16.1359C16.4426 16.1666 16.4689 16.192 16.5004 16.2094C16.5318 16.2268 16.5672 16.2355 16.6031 16.2349L16.6081 16.2359Z" fill="#FAA821"/>
<path fill-rule="evenodd" clip-rule="evenodd" d="M18.5349 16.4734C18.5419 16.5086 18.558 16.5414 18.5817 16.5684C18.6054 16.5954 18.6359 16.6157 18.6699 16.6272C18.7039 16.6386 18.7404 16.6409 18.7756 16.6337C18.8108 16.6265 18.8435 16.6101 18.8703 16.5862C18.8968 16.562 18.9165 16.5313 18.9276 16.4972C18.9387 16.463 18.9406 16.4265 18.9334 16.3914C18.9261 16.3562 18.9098 16.3236 18.886 16.2966C18.8623 16.2697 18.832 16.2494 18.7981 16.2377C18.7644 16.2262 18.7283 16.224 18.6934 16.2313C18.6586 16.2386 18.6264 16.2552 18.6002 16.2793C18.573 16.3037 18.5527 16.3348 18.5414 16.3696C18.5301 16.4044 18.5282 16.4416 18.5359 16.4773L18.5349 16.4734Z" fill="#FAA821"/>
<path fill-rule="evenodd" clip-rule="evenodd" d="M11.2062 16.9676C11.4197 16.9571 11.6207 16.8635 11.7662 16.7067C11.9117 16.5499 11.9901 16.3424 11.9848 16.1284C11.9795 15.9145 11.8909 15.7111 11.7378 15.5618C11.5848 15.4124 11.3794 15.3288 11.1656 15.3289C10.9521 15.3394 10.7511 15.433 10.6056 15.5898C10.4601 15.7466 10.3817 15.9541 10.387 16.1681C10.3923 16.382 10.4809 16.5853 10.634 16.7347C10.787 16.8841 10.9924 16.9677 11.2062 16.9676Z" fill="#FAA821"/>
<path fill-rule="evenodd" clip-rule="evenodd" d="M15.9777 17.0626C16.0057 17.0388 16.0266 17.0077 16.038 16.9727C16.0493 16.9377 16.0507 16.9002 16.042 16.8645C16.0346 16.8293 16.0183 16.7965 15.9945 16.7694C15.9708 16.7424 15.9405 16.7219 15.9065 16.71C15.8727 16.6992 15.8367 16.6973 15.802 16.7045C15.7673 16.7118 15.7351 16.7281 15.7086 16.7516C15.6814 16.776 15.6611 16.8072 15.6498 16.842C15.6385 16.8768 15.6366 16.9139 15.6443 16.9497C15.6519 16.9849 15.6683 17.0175 15.692 17.0446C15.7157 17.0716 15.746 17.0921 15.7799 17.1041C15.8136 17.115 15.8496 17.1169 15.8843 17.1096C15.919 17.1023 15.9512 17.0861 15.9777 17.0626Z" fill="#FAA821"/>
<path fill-rule="evenodd" clip-rule="evenodd" d="M15.4124 17.2547C15.4478 17.2234 15.4743 17.1833 15.489 17.1384C15.5038 17.0935 15.5064 17.0455 15.4965 16.9992C15.4862 16.9536 15.4643 16.9114 15.4329 16.8767C15.4015 16.8421 15.3618 16.816 15.3174 16.8012C15.2727 16.7861 15.2247 16.7832 15.1785 16.7927C15.1322 16.8023 15.0894 16.824 15.0543 16.8557C15.0194 16.8873 14.9932 16.9275 14.9785 16.9723C14.9638 17.0171 14.9609 17.0649 14.9702 17.1111C14.9795 17.1575 15.0009 17.2007 15.0322 17.2362C15.0635 17.2717 15.1035 17.2983 15.1484 17.3134C15.1932 17.3284 15.2412 17.3314 15.2876 17.322C15.3339 17.3125 15.377 17.2911 15.4124 17.2597V17.2547Z" fill="#FAA821"/>
<path fill-rule="evenodd" clip-rule="evenodd" d="M14.773 17.6111C14.8167 17.5725 14.8494 17.523 14.8678 17.4676C14.8862 17.4123 14.8898 17.353 14.878 17.2959C14.8663 17.2388 14.8397 17.1857 14.8009 17.1421C14.7622 17.0986 14.7126 17.066 14.6573 17.0477C14.6022 17.0288 14.5431 17.025 14.486 17.0366C14.429 17.0483 14.3761 17.075 14.3328 17.1141C14.2716 17.1736 14.2357 17.2545 14.2326 17.3399C14.2296 17.4253 14.2595 17.5086 14.3163 17.5724C14.373 17.6362 14.4522 17.6757 14.5373 17.6825C14.6224 17.6894 14.7068 17.6631 14.773 17.6091V17.6111Z" fill="#FAA821"/>
<path fill-rule="evenodd" clip-rule="evenodd" d="M16.0309 18.1003C16.0368 18.0651 16.033 18.0288 16.0199 17.9955C16.0069 17.9622 15.985 17.9331 15.9568 17.9112C15.9296 17.8888 15.8969 17.874 15.8621 17.8685C15.8273 17.8629 15.7917 17.8667 15.7589 17.8795C15.7257 17.8934 15.6966 17.9155 15.6743 17.9438C15.652 17.972 15.6372 18.0054 15.6313 18.0409C15.6258 18.0764 15.6298 18.1126 15.6428 18.1461C15.6559 18.1795 15.6775 18.2089 15.7055 18.2313C15.7335 18.2537 15.7669 18.2683 15.8023 18.2736C15.8377 18.279 15.8739 18.2749 15.9073 18.2618C15.9408 18.2483 15.9702 18.2264 15.9926 18.1981C16.015 18.1697 16.0295 18.1361 16.0349 18.1003H16.0309Z" fill="#FAA821"/>
<path fill-rule="evenodd" clip-rule="evenodd" d="M14.05 18.2519C14.097 18.2124 14.1356 18.1638 14.1635 18.1091C14.1915 18.0545 14.2083 17.9948 14.2129 17.9335C14.2175 17.8723 14.2099 17.8107 14.1904 17.7524C14.1709 17.6942 14.1401 17.6404 14.0995 17.5943C14.059 17.5481 14.0097 17.5105 13.9545 17.4837C13.8993 17.4569 13.8393 17.4414 13.778 17.438C13.7167 17.4347 13.6554 17.4437 13.5976 17.4644C13.5399 17.4852 13.4868 17.5172 13.4416 17.5588C13.3946 17.5983 13.356 17.6468 13.328 17.7015C13.3001 17.7562 13.2833 17.8159 13.2786 17.8772C13.274 17.9384 13.2817 18 13.3012 18.0582C13.3206 18.1165 13.3515 18.1703 13.392 18.2164C13.4325 18.2626 13.4818 18.3002 13.5371 18.327C13.5923 18.3538 13.6523 18.3693 13.7136 18.3726C13.7748 18.3759 13.8362 18.367 13.8939 18.3462C13.9517 18.3255 14.0048 18.2934 14.05 18.2519Z" fill="#FAA821"/>
<path fill-rule="evenodd" clip-rule="evenodd" d="M15.7227 18.6073C15.7297 18.5604 15.7242 18.5125 15.7069 18.4683C15.6895 18.4242 15.6608 18.3854 15.6237 18.3558C15.5872 18.3259 15.5434 18.3063 15.4967 18.2992C15.4501 18.292 15.4024 18.2976 15.3586 18.3152C15.3149 18.3326 15.2765 18.3611 15.2471 18.3979C15.2178 18.4348 15.1986 18.4786 15.1914 18.5251C15.1845 18.5719 15.1899 18.6196 15.2071 18.6636C15.2243 18.7076 15.2528 18.7463 15.2896 18.7759C15.3265 18.8054 15.3704 18.8248 15.417 18.8321C15.4637 18.8393 15.5114 18.8342 15.5555 18.8173C15.5989 18.7996 15.637 18.7709 15.6662 18.7342C15.6953 18.6974 15.7144 18.6537 15.7217 18.6073H15.7227Z" fill="#FAA821"/>
<path fill-rule="evenodd" clip-rule="evenodd" d="M16.7371 18.8588C16.7182 18.8283 16.6918 18.8032 16.6605 18.7858C16.6291 18.7685 16.5938 18.7595 16.558 18.7598C16.5222 18.7615 16.4874 18.7723 16.457 18.7911C16.4265 18.81 16.4013 18.8364 16.3839 18.8677C16.3659 18.8989 16.3564 18.9342 16.3564 18.9702C16.3564 19.0062 16.3659 19.0415 16.3839 19.0727C16.4019 19.1039 16.4281 19.1297 16.4596 19.1471C16.4912 19.1646 16.5269 19.1731 16.5629 19.1717C16.5987 19.1704 16.6335 19.1599 16.664 19.1411C16.6946 19.1224 16.7197 19.0961 16.7371 19.0648C16.7557 19.0338 16.7656 18.9984 16.7656 18.9623C16.7656 18.9261 16.7557 18.8907 16.7371 18.8598V18.8588Z" fill="#FAA821"/>
<path fill-rule="evenodd" clip-rule="evenodd" d="M17.7652 18.9864C17.7316 18.9754 17.6956 18.9734 17.6609 18.9805C17.6262 18.9876 17.594 19.0036 17.5674 19.027C17.5409 19.0512 17.5211 19.0819 17.5101 19.1161C17.499 19.1503 17.497 19.1867 17.5043 19.2219C17.5116 19.257 17.5279 19.2897 17.5516 19.3166C17.5753 19.3436 17.6056 19.3639 17.6396 19.3756C17.6736 19.3868 17.7099 19.3888 17.745 19.3815C17.78 19.3742 17.8125 19.3577 17.8392 19.3338C17.8658 19.3099 17.8858 19.2794 17.8969 19.2454C17.9081 19.2114 17.9101 19.175 17.9027 19.1399C17.8956 19.1047 17.8793 19.0719 17.8555 19.045C17.8317 19.0181 17.8012 18.9979 17.7672 18.9864H17.7652Z" fill="#FAA821"/>
<path fill-rule="evenodd" clip-rule="evenodd" d="M13.1711 19.3886C13.2719 19.2991 13.3404 19.1788 13.366 19.0463C13.3916 18.9139 13.3727 18.7767 13.3125 18.656C13.2522 18.5353 13.1539 18.4379 13.0327 18.3789C12.9115 18.3199 12.7742 18.3025 12.6422 18.3295C12.5101 18.3565 12.3906 18.4264 12.3023 18.5283C12.2139 18.6301 12.1616 18.7583 12.1535 18.893C12.1453 19.0276 12.1818 19.1612 12.2572 19.273C12.3326 19.3848 12.4428 19.4686 12.5706 19.5114C12.6726 19.5457 12.7819 19.5525 12.8874 19.5309C12.9928 19.5093 13.0907 19.4602 13.1711 19.3886Z" fill="#FAA821"/>
<path fill-rule="evenodd" clip-rule="evenodd" d="M15.4587 19.2934C15.4677 19.2355 15.4611 19.1763 15.4395 19.1218C15.418 19.0673 15.3822 19.0195 15.336 18.9835C15.2901 18.9474 15.2354 18.9239 15.1776 18.9155C15.1197 18.907 15.0607 18.914 15.0063 18.9355C14.952 18.957 14.9042 18.9925 14.8678 19.0382C14.8314 19.084 14.8076 19.1386 14.7988 19.1964C14.7912 19.2542 14.7985 19.3131 14.82 19.3673C14.8414 19.4215 14.8764 19.4694 14.9215 19.5063C14.9674 19.5428 15.022 19.5665 15.08 19.5751C15.1379 19.5837 15.1971 19.5769 15.2516 19.5553C15.306 19.5337 15.3539 19.4981 15.3902 19.4522C15.4266 19.4062 15.4502 19.3514 15.4587 19.2934Z" fill="#FAA821"/>
<path fill-rule="evenodd" clip-rule="evenodd" d="M16.8268 19.45C16.8028 19.4095 16.7684 19.3763 16.7271 19.3538C16.6859 19.3313 16.6393 19.3204 16.5924 19.3222C16.5449 19.3231 16.4986 19.3367 16.4581 19.3614C16.4176 19.3861 16.3844 19.4211 16.3619 19.4628C16.3397 19.5045 16.3288 19.5513 16.3302 19.5985C16.3316 19.6458 16.3452 19.6918 16.3698 19.7322C16.3938 19.7726 16.4282 19.8058 16.4695 19.8283C16.5107 19.8508 16.5573 19.8617 16.6042 19.8599C16.6516 19.859 16.698 19.8455 16.7385 19.8207C16.779 19.796 16.8122 19.761 16.8347 19.7193C16.8576 19.6778 16.8689 19.6309 16.8675 19.5835C16.8661 19.5362 16.8521 19.49 16.8268 19.45Z" fill="#FAA821"/>
<path fill-rule="evenodd" clip-rule="evenodd" d="M18.2158 19.3806C18.1708 19.365 18.1226 19.3616 18.0758 19.3707C18.0291 19.3797 17.9856 19.4009 17.9497 19.4321C17.9148 19.464 17.8888 19.5044 17.8741 19.5493C17.8593 19.5942 17.8564 19.6422 17.8656 19.6885C17.8746 19.7353 17.8958 19.7788 17.927 19.8147C17.9583 19.8506 17.9984 19.8776 18.0434 19.8929C18.0884 19.9083 18.1366 19.9116 18.1833 19.9023C18.2299 19.8931 18.2733 19.8716 18.309 19.8402C18.3447 19.8088 18.3715 19.7685 18.3867 19.7234C18.4019 19.6783 18.4049 19.63 18.3954 19.5834C18.386 19.5368 18.3644 19.4934 18.3328 19.4578C18.3013 19.4222 18.2609 19.3956 18.2158 19.3806Z" fill="#FAA821"/>
<path fill-rule="evenodd" clip-rule="evenodd" d="M18.8422 19.7579C18.7872 19.739 18.728 19.7352 18.671 19.7468C18.6139 19.7585 18.561 19.7852 18.5178 19.8243C18.4628 19.8728 18.4255 19.9381 18.4114 20.01C18.3974 20.0819 18.4075 20.1565 18.4402 20.2221C18.4728 20.2877 18.5262 20.3407 18.592 20.3728C18.6579 20.4049 18.7325 20.4144 18.8042 20.3997C18.876 20.385 18.9409 20.3471 18.9888 20.2917C19.0368 20.2363 19.0652 20.1666 19.0695 20.0934C19.0738 20.0203 19.0539 19.9477 19.0128 19.887C18.9717 19.8264 18.9118 19.781 18.8422 19.7579Z" fill="#FAA821"/>
<path fill-rule="evenodd" clip-rule="evenodd" d="M15.3219 20.2521C15.333 20.1723 15.3231 20.091 15.2931 20.0162C15.2632 19.9415 15.2143 19.8758 15.1512 19.8258C15.0881 19.7758 15.0131 19.7431 14.9335 19.7311C14.854 19.719 14.7727 19.7279 14.6976 19.757C14.6217 19.7863 14.555 19.8352 14.5042 19.8988C14.4534 19.9623 14.4203 20.0382 14.4083 20.1187C14.3964 20.1992 14.4059 20.2815 14.4361 20.3571C14.4662 20.4327 14.5158 20.499 14.5799 20.5491C14.6429 20.5998 14.7182 20.633 14.7981 20.6451C14.878 20.6573 14.9597 20.6481 15.035 20.6184C15.1101 20.5884 15.176 20.5392 15.2263 20.4758C15.2767 20.4124 15.3096 20.337 15.3219 20.257V20.2521Z" fill="#FAA821"/>
<path fill-rule="evenodd" clip-rule="evenodd" d="M17.0675 20.1422C17.0367 20.093 16.9938 20.0524 16.9428 20.0245C16.8919 19.9966 16.8347 19.9823 16.7766 19.9828C16.7181 19.9837 16.6608 20 16.6105 20.0301C16.5602 20.0602 16.5188 20.103 16.4903 20.1542C16.4618 20.2055 16.4473 20.2633 16.4483 20.3219C16.4492 20.3805 16.4656 20.4379 16.4958 20.4881C16.5259 20.5384 16.5687 20.5799 16.6199 20.6083C16.6712 20.6367 16.729 20.6511 16.7875 20.6501C16.8461 20.6491 16.9034 20.6326 16.9536 20.6024C17.0037 20.5721 17.0451 20.5292 17.0734 20.4779C17.1019 20.4268 17.1162 20.369 17.1148 20.3105C17.1134 20.252 17.0964 20.1949 17.0655 20.1452L17.0675 20.1422Z" fill="#FAA821"/>
<path fill-rule="evenodd" clip-rule="evenodd" d="M19.7583 20.0648C19.6818 20.0391 19.5999 20.0341 19.5208 20.0503C19.4418 20.0665 19.3684 20.1033 19.3081 20.1569C19.2477 20.2109 19.2024 20.2798 19.1769 20.3568C19.1514 20.4338 19.1465 20.5161 19.1627 20.5956C19.1784 20.6748 19.2147 20.7485 19.268 20.8092C19.3213 20.8699 19.3896 20.9154 19.4662 20.9412C19.5427 20.9669 19.6247 20.9719 19.7037 20.9558C19.7828 20.9396 19.8563 20.9028 19.9166 20.8491C19.9769 20.795 20.0221 20.7261 20.0477 20.6491C20.0732 20.5722 20.0781 20.4899 20.062 20.4104C20.0464 20.3311 20.0101 20.2573 19.9567 20.1966C19.9034 20.1359 19.8349 20.0904 19.7583 20.0648Z" fill="#FAA821"/>
<path fill-rule="evenodd" clip-rule="evenodd" d="M12.3147 21.0976C12.4495 20.9781 12.5411 20.8175 12.5754 20.6405C12.6097 20.4636 12.5848 20.2803 12.5044 20.119C12.424 19.9577 12.2927 19.8275 12.1308 19.7485C11.969 19.6695 11.7856 19.6462 11.6091 19.6821C11.4327 19.718 11.273 19.8112 11.1548 19.9472C11.0367 20.0833 10.9667 20.2545 10.9556 20.4344C10.9446 20.6143 10.9932 20.7928 11.0938 20.9423C11.1945 21.0917 11.3416 21.2038 11.5123 21.261C11.6486 21.3066 11.7945 21.3155 11.9353 21.2869C12.0762 21.2582 12.207 21.1929 12.3147 21.0976Z" fill="#FAA821"/>
<path fill-rule="evenodd" clip-rule="evenodd" d="M21.1796 20.257C21.0776 20.2224 20.9682 20.2156 20.8627 20.2372C20.7572 20.2587 20.6593 20.308 20.5791 20.3798C20.4782 20.4693 20.4097 20.5896 20.3842 20.7221C20.3586 20.8545 20.3774 20.9917 20.4377 21.1124C20.4979 21.233 20.5963 21.3304 20.7175 21.3895C20.8387 21.4485 20.9759 21.4658 21.108 21.4388C21.2401 21.4118 21.3595 21.342 21.4479 21.2401C21.5362 21.1382 21.5885 21.01 21.5967 20.8754C21.6048 20.7407 21.5684 20.6072 21.493 20.4954C21.4176 20.3835 21.3074 20.2998 21.1796 20.257Z" fill="#FAA821"/>
<path fill-rule="evenodd" clip-rule="evenodd" d="M17.5714 20.969C17.5291 20.901 17.4698 20.8453 17.3994 20.8073C17.3289 20.7694 17.2498 20.7505 17.1698 20.7526C17.0898 20.7547 17.0117 20.7777 16.9434 20.8193C16.875 20.8609 16.8187 20.9197 16.78 20.9898C16.7416 21.0611 16.7225 21.1412 16.7248 21.2222C16.727 21.3032 16.7505 21.3821 16.7929 21.4512C16.8347 21.5203 16.8941 21.5771 16.965 21.6157C17.0359 21.6543 17.1158 21.6734 17.1965 21.671C17.2773 21.6688 17.3561 21.6453 17.4249 21.6029C17.4938 21.5605 17.5502 21.5008 17.5886 21.4296C17.6271 21.3584 17.6461 21.2784 17.6437 21.1975C17.6414 21.1166 17.6178 21.0378 17.5754 20.969H17.5714Z" fill="#FAA821"/>
<path fill-rule="evenodd" clip-rule="evenodd" d="M23.0888 20.147C22.9181 20.0898 22.7333 20.0905 22.563 20.1491C22.3928 20.2076 22.2465 20.3208 22.147 20.4709C22.0475 20.6211 22.0003 20.8 22.0127 20.9798C22.025 21.1595 22.0963 21.3302 22.2154 21.4653C22.3346 21.6005 22.4949 21.6925 22.6716 21.7271C22.8483 21.7618 23.0314 21.7371 23.1927 21.657C23.354 21.5768 23.4843 21.4457 23.5636 21.2839C23.6428 21.1221 23.6665 20.9386 23.631 20.762C23.6029 20.6207 23.5379 20.4894 23.4427 20.3814C23.3475 20.2734 23.2254 20.1925 23.0888 20.147Z" fill="#FAA821"/>
<path fill-rule="evenodd" clip-rule="evenodd" d="M15.3769 21.6868C15.392 21.5802 15.3791 21.4714 15.3396 21.3713C15.3 21.2711 15.2352 21.183 15.1514 21.1155C15.0677 21.0474 14.9673 21.0029 14.8607 20.9867C14.754 20.9705 14.645 20.9832 14.5449 21.0234C14.4455 21.0635 14.3583 21.1289 14.292 21.2131C14.2257 21.2974 14.1825 21.3975 14.1668 21.5036C14.1511 21.6097 14.1634 21.7181 14.2025 21.818C14.2416 21.9179 14.3061 22.0058 14.3896 22.073C14.4731 22.141 14.5733 22.1854 14.6798 22.2016C14.7863 22.2178 14.8951 22.2052 14.9951 22.1651C15.095 22.1249 15.1827 22.0594 15.2497 21.975C15.3166 21.8907 15.3605 21.7903 15.3769 21.6838V21.6868Z" fill="#FAA821"/>
<path fill-rule="evenodd" clip-rule="evenodd" d="M18.5381 22.0294C18.4967 21.9591 18.4418 21.8978 18.3765 21.849C18.3112 21.8002 18.2369 21.7649 18.1579 21.7452C18.0789 21.7254 17.9967 21.7215 17.9162 21.7339C17.8356 21.7462 17.7583 21.7744 17.6888 21.8169C17.6193 21.8593 17.5589 21.9152 17.5111 21.9813C17.4634 22.0474 17.4292 22.1223 17.4107 22.2017C17.3921 22.281 17.3895 22.3633 17.403 22.4437C17.4166 22.5242 17.4459 22.6011 17.4894 22.67C17.5755 22.8065 17.7119 22.9037 17.869 22.9405C18.026 22.9772 18.1913 22.9507 18.329 22.8666C18.4667 22.7825 18.5658 22.6475 18.6049 22.4909C18.644 22.3342 18.62 22.1684 18.5381 22.0294Z" fill="#FAA821"/>
<path fill-rule="evenodd" clip-rule="evenodd" d="M15.8158 23.5484C15.8424 23.3701 15.8096 23.188 15.7224 23.0303C15.6351 22.8726 15.4983 22.7481 15.3331 22.6762C15.168 22.6042 14.9837 22.5889 14.809 22.6324C14.6342 22.676 14.4787 22.776 14.3665 22.9171C14.2543 23.0581 14.1918 23.2322 14.1886 23.4125C14.1854 23.5927 14.2417 23.769 14.3488 23.9139C14.4559 24.0589 14.6078 24.1644 14.7809 24.2141C14.954 24.2639 15.1387 24.2551 15.3063 24.189C15.4398 24.1363 15.5572 24.0494 15.6466 23.9369C15.7361 23.8245 15.7944 23.6905 15.8158 23.5484Z" fill="#FAA821"/>
<path fill-rule="evenodd" clip-rule="evenodd" d="M20.0696 23.1721C19.9755 23.0182 19.8333 22.8996 19.665 22.8348C19.4967 22.77 19.3118 22.7626 19.1388 22.8137C18.9659 22.8649 18.8147 22.9717 18.7086 23.1176C18.6025 23.2635 18.5474 23.4404 18.552 23.6208C18.5566 23.8012 18.6205 23.9751 18.7339 24.1154C18.8472 24.2558 19.0037 24.3548 19.179 24.3971C19.3542 24.4394 19.5386 24.4226 19.7034 24.3493C19.8682 24.2761 20.0042 24.1505 20.0904 23.992C20.1591 23.8655 20.1933 23.7232 20.1896 23.5792C20.186 23.4353 20.1446 23.2949 20.0696 23.1721Z" fill="#FAA821"/>
<path fill-rule="evenodd" clip-rule="evenodd" d="M14.7831 11.8423C14.8772 11.9962 15.0194 12.1148 15.1877 12.1796C15.356 12.2444 15.5409 12.2518 15.7138 12.2007C15.8868 12.1495 16.038 12.0427 16.1441 11.8968C16.2502 11.7509 16.3052 11.574 16.3007 11.3936C16.2961 11.2132 16.2322 11.0393 16.1188 10.899C16.0055 10.7586 15.849 10.6596 15.6737 10.6173C15.4984 10.575 15.3141 10.5918 15.1493 10.665C14.9845 10.7383 14.8485 10.8639 14.7623 11.0224C14.6938 11.149 14.6597 11.2913 14.6634 11.4351C14.667 11.579 14.7083 11.7194 14.7831 11.8423Z" fill="#FAA821"/>
<path fill-rule="evenodd" clip-rule="evenodd" d="M16.3147 12.9849C16.356 13.0551 16.411 13.1164 16.4762 13.1652C16.5415 13.214 16.6158 13.2493 16.6949 13.2691C16.7739 13.2889 16.8561 13.2927 16.9366 13.2804C17.0171 13.2681 17.0944 13.2399 17.1639 13.1974C17.2335 13.1549 17.2939 13.099 17.3416 13.033C17.3894 12.9669 17.4235 12.892 17.4421 12.8126C17.4606 12.7332 17.4632 12.6509 17.4497 12.5705C17.4362 12.4901 17.4068 12.4132 17.3633 12.3442C17.2772 12.2077 17.1409 12.1106 16.9838 12.0738C16.8267 12.037 16.6615 12.0635 16.5238 12.1477C16.3861 12.2318 16.287 12.3668 16.2478 12.5234C16.2087 12.68 16.2327 12.8458 16.3147 12.9849Z" fill="#FAA821"/>
<path fill-rule="evenodd" clip-rule="evenodd" d="M17.282 14.0524C17.3246 14.1211 17.3843 14.1775 17.4552 14.2162C17.5261 14.2549 17.6059 14.2745 17.6866 14.2732C17.768 14.2718 17.8475 14.2487 17.917 14.2065C17.9866 14.1642 18.0436 14.1042 18.0824 14.0326C18.1202 13.9611 18.139 13.8811 18.1369 13.8003C18.1348 13.7195 18.1119 13.6405 18.0705 13.5711C18.0282 13.5032 17.9689 13.4474 17.8984 13.4095C17.828 13.3715 17.7488 13.3527 17.6688 13.3548C17.5888 13.3569 17.5108 13.3799 17.4424 13.4215C17.3741 13.4631 17.3177 13.5218 17.279 13.5919C17.2408 13.6631 17.2217 13.743 17.2238 13.8237C17.2259 13.9045 17.249 13.9833 17.2909 14.0524H17.282Z" fill="#FAA821"/>
<path fill-rule="evenodd" clip-rule="evenodd" d="M13.6725 14.7605C13.7749 14.7948 13.8846 14.8014 13.9904 14.7798C14.0962 14.7582 14.1944 14.7091 14.2753 14.6374C14.3561 14.5658 14.4167 14.4741 14.451 14.3716C14.4852 14.2691 14.4919 14.1594 14.4704 14.0534C14.4488 13.9475 14.3998 13.8492 14.3282 13.7682C14.2567 13.6873 14.1651 13.6266 14.0627 13.5923C13.9603 13.558 13.8507 13.5512 13.7448 13.5728C13.639 13.5943 13.5407 13.6433 13.4598 13.7149C13.3794 13.7868 13.3192 13.8786 13.2853 13.981C13.2513 14.0835 13.2448 14.193 13.2663 14.2988C13.2878 14.4046 13.3366 14.5029 13.4079 14.5839C13.4792 14.6649 13.5704 14.7258 13.6725 14.7605Z" fill="#FAA821"/>
<path fill-rule="evenodd" clip-rule="evenodd" d="M11.7662 14.8703C11.9369 14.9275 12.1218 14.9268 12.292 14.8682C12.4623 14.8097 12.6085 14.6965 12.708 14.5464C12.8075 14.3962 12.8548 14.2173 12.8424 14.0375C12.83 13.8578 12.7588 13.6871 12.6396 13.552C12.5205 13.4168 12.3602 13.3248 12.1835 13.2902C12.0068 13.2555 11.8236 13.2802 11.6624 13.3603C11.5011 13.4405 11.3707 13.5716 11.2915 13.7334C11.2123 13.8952 11.1886 14.0787 11.2241 14.2553C11.2528 14.3964 11.3179 14.5274 11.4131 14.6353C11.5082 14.7432 11.63 14.8242 11.7662 14.8703Z" fill="#FAA821"/>
<path fill-rule="evenodd" clip-rule="evenodd" d="M15.0938 14.9495C15.1703 14.9757 15.2523 14.981 15.3314 14.9648C15.4106 14.9486 15.484 14.9116 15.544 14.8574C15.6195 14.7903 15.6709 14.7001 15.69 14.6009C15.7092 14.5016 15.6951 14.3987 15.6499 14.3083C15.6047 14.2178 15.531 14.1448 15.4401 14.1006C15.3493 14.0564 15.2464 14.0434 15.1474 14.0636C15.0484 14.0839 14.9589 14.1362 14.8926 14.2126C14.8264 14.289 14.7872 14.3851 14.7811 14.486C14.775 14.587 14.8024 14.6871 14.8589 14.7709C14.9154 14.8547 14.998 14.9175 15.0938 14.9495Z" fill="#FAA821"/>
<path fill-rule="evenodd" clip-rule="evenodd" d="M17.7862 14.8722C17.8168 14.9216 17.8597 14.9623 17.9107 14.9902C17.9616 15.0181 18.0189 15.0324 18.077 15.0317C18.1355 15.0302 18.1925 15.0133 18.2424 14.9827C18.2922 14.9521 18.3331 14.9089 18.361 14.8574C18.3896 14.8064 18.4041 14.7486 18.4028 14.6901C18.4016 14.6316 18.3848 14.5745 18.354 14.5247C18.308 14.4493 18.2339 14.3953 18.1481 14.3746C18.0623 14.3539 17.9718 14.3682 17.8965 14.4143C17.8212 14.4604 17.7673 14.5345 17.7466 14.6204C17.7259 14.7063 17.7401 14.7969 17.7862 14.8722Z" fill="#FAA821"/>
<path fill-rule="evenodd" clip-rule="evenodd" d="M16.0138 15.2565C16.069 15.2749 16.128 15.2785 16.185 15.2668C16.242 15.2551 16.2949 15.2286 16.3384 15.19C16.3819 15.1513 16.4145 15.1019 16.4329 15.0467C16.4512 14.9915 16.4548 14.9324 16.4431 14.8753C16.4313 14.8184 16.4048 14.7655 16.3662 14.7219C16.3277 14.6783 16.2785 14.6455 16.2235 14.6268C16.1682 14.6081 16.1089 14.6044 16.0516 14.616C15.9944 14.6276 15.9413 14.6542 15.8976 14.693C15.8539 14.7318 15.8212 14.7814 15.8029 14.8369C15.7846 14.8924 15.7812 14.9518 15.7932 15.009C15.8051 15.066 15.8317 15.1188 15.8704 15.1623C15.9091 15.2057 15.9586 15.2382 16.0138 15.2565Z" fill="#FAA821"/>
<path fill-rule="evenodd" clip-rule="evenodd" d="M16.6375 15.6367C16.6823 15.6518 16.7302 15.6548 16.7765 15.6452C16.8227 15.6356 16.8656 15.6139 16.9007 15.5823C16.936 15.5504 16.9623 15.5098 16.9769 15.4645C16.9915 15.4192 16.9939 15.3709 16.9839 15.3244C16.9739 15.2778 16.9517 15.2348 16.9197 15.1996C16.8878 15.1644 16.847 15.1382 16.8017 15.1238C16.7568 15.1087 16.7087 15.1058 16.6623 15.1154C16.6159 15.1249 16.5729 15.1466 16.5376 15.1783C16.5025 15.2103 16.4765 15.2509 16.4621 15.2961C16.4476 15.3414 16.4453 15.3896 16.4553 15.436C16.4653 15.4824 16.4873 15.5253 16.5191 15.5606C16.5509 15.5958 16.5914 15.6221 16.6365 15.6367H16.6375Z" fill="#FAA821"/>
<path fill-rule="evenodd" clip-rule="evenodd" d="M18.0238 15.5645C18.0483 15.6047 18.083 15.6378 18.1243 15.6602C18.1657 15.6826 18.2123 15.6937 18.2593 15.6923C18.3067 15.6911 18.3529 15.6775 18.3934 15.6528C18.4338 15.6282 18.4671 15.5933 18.4898 15.5516C18.5117 15.5098 18.5224 15.4631 18.521 15.4159C18.5196 15.3688 18.5062 15.3228 18.4819 15.2823C18.4576 15.2419 18.4229 15.2088 18.3815 15.1864C18.3401 15.1639 18.2935 15.1529 18.2464 15.1546C18.1991 15.1559 18.153 15.1696 18.1125 15.1943C18.0721 15.2189 18.0388 15.2537 18.0159 15.2952C17.9933 15.3368 17.9821 15.3836 17.9835 15.4309C17.9849 15.4782 17.9988 15.5244 18.0238 15.5645Z" fill="#FAA821"/>
<path fill-rule="evenodd" clip-rule="evenodd" d="M17.0851 16.0328C17.1187 16.0444 17.1548 16.0468 17.1896 16.0397C17.2244 16.0325 17.2567 16.0161 17.283 15.9922C17.3097 15.9682 17.3298 15.9376 17.3411 15.9034C17.3524 15.8693 17.3545 15.8327 17.3473 15.7975C17.3401 15.7622 17.3238 15.7295 17.3 15.7025C17.2762 15.6755 17.2458 15.6552 17.2117 15.6437C17.1781 15.6326 17.1421 15.6306 17.1074 15.6377C17.0727 15.6448 17.0405 15.6609 17.0139 15.6843C16.9871 15.7083 16.967 15.7389 16.9557 15.773C16.9444 15.8072 16.9423 15.8437 16.9495 15.879C16.9567 15.9143 16.973 15.947 16.9968 15.974C17.0206 16.001 17.051 16.0213 17.0851 16.0328Z" fill="#FAA821"/>
<path fill-rule="evenodd" clip-rule="evenodd" d="M18.1165 16.1556C18.1345 16.1869 18.1607 16.2126 18.1923 16.2301C18.2238 16.2475 18.2595 16.256 18.2956 16.2546C18.3314 16.2531 18.3663 16.2424 18.3968 16.2235C18.4273 16.2046 18.4524 16.1781 18.4697 16.1467C18.4857 16.1154 18.4934 16.0805 18.492 16.0453C18.4906 16.0102 18.4801 15.976 18.4616 15.9461C18.443 15.9162 18.4171 15.8916 18.3863 15.8747C18.3555 15.8578 18.3208 15.8492 18.2857 15.8496C18.2499 15.8509 18.2151 15.8615 18.1846 15.8802C18.1541 15.8989 18.1289 15.9252 18.1116 15.9566C18.0929 15.9875 18.083 16.0229 18.083 16.0591C18.083 16.0952 18.0929 16.1306 18.1116 16.1615L18.1165 16.1556Z" fill="#FAA821"/>
<path fill-rule="evenodd" clip-rule="evenodd" d="M15.6182 16.5814C15.6511 16.5684 15.6812 16.549 15.7066 16.5244C15.7321 16.4998 15.7524 16.4704 15.7665 16.4379C15.7806 16.4054 15.7882 16.3704 15.7888 16.335C15.7894 16.2995 15.783 16.2643 15.77 16.2314C15.757 16.1984 15.7377 16.1683 15.7131 16.1428C15.6885 16.1174 15.6591 16.097 15.6266 16.0829C15.5941 16.0688 15.5592 16.0612 15.5238 16.0606C15.4884 16.06 15.4532 16.0664 15.4203 16.0794C15.3768 16.097 15.3386 16.1256 15.3095 16.1624C15.2804 16.1992 15.2613 16.2429 15.2541 16.2893C15.2469 16.336 15.2522 16.3837 15.2692 16.4278C15.2863 16.4718 15.3147 16.5105 15.3515 16.5401C15.3883 16.5697 15.4322 16.5891 15.4788 16.5964C15.5254 16.6036 15.5732 16.5984 15.6172 16.5814H15.6182Z" fill="#FAA821"/>
<path fill-rule="evenodd" clip-rule="evenodd" d="M16.2182 16.5942C16.2514 16.5802 16.2804 16.5581 16.3027 16.5299C16.325 16.5017 16.3399 16.4683 16.3459 16.4328C16.3519 16.3974 16.3482 16.361 16.3351 16.3275C16.322 16.294 16.3001 16.2647 16.2717 16.2427C16.2441 16.2211 16.2114 16.2069 16.1767 16.2015C16.1421 16.1961 16.1066 16.1998 16.0738 16.212C16.0406 16.2259 16.0115 16.248 15.9892 16.2763C15.9669 16.3045 15.9521 16.3379 15.9462 16.3734C15.9401 16.4089 15.9438 16.4453 15.9569 16.4788C15.97 16.5123 15.9919 16.5416 16.0204 16.5635C16.048 16.5851 16.0807 16.5992 16.1153 16.6046C16.1499 16.61 16.1854 16.6064 16.2182 16.5942Z" fill="#FAA821"/>
<path fill-rule="evenodd" clip-rule="evenodd" d="M14.898 16.6943C14.9524 16.6726 15.0002 16.6371 15.0366 16.5913C15.0731 16.5454 15.0969 16.4908 15.1057 16.4329C15.1133 16.375 15.106 16.3162 15.0846 16.262C15.0631 16.2077 15.0282 16.1599 14.983 16.1229C14.937 16.0867 14.8823 16.0631 14.8243 16.0546C14.7663 16.0461 14.7071 16.0529 14.6526 16.0744C14.598 16.0957 14.5501 16.1311 14.5138 16.177C14.4774 16.223 14.454 16.2778 14.4458 16.3358C14.4374 16.3937 14.4444 16.4527 14.466 16.5071C14.4875 16.5614 14.523 16.6091 14.5688 16.6454C14.6145 16.6817 14.6691 16.7053 14.7268 16.7139C14.7846 16.7225 14.8436 16.7157 14.898 16.6943Z" fill="#FAA821"/>
<path fill-rule="evenodd" clip-rule="evenodd" d="M13.9979 17.0498C14.0732 17.0204 14.1395 16.9716 14.1899 16.9083C14.2403 16.845 14.273 16.7695 14.2848 16.6894C14.2958 16.6094 14.286 16.5279 14.2564 16.4528C14.2268 16.3777 14.1783 16.3115 14.1156 16.2606C14.0525 16.2101 13.9772 16.1771 13.8973 16.1651C13.8173 16.1531 13.7357 16.1625 13.6605 16.1923C13.5844 16.2214 13.5174 16.2702 13.4664 16.3337C13.4154 16.3973 13.3822 16.4733 13.3702 16.5539C13.3582 16.6346 13.3679 16.7169 13.3982 16.7926C13.4286 16.8682 13.4785 16.9345 13.5428 16.9845C13.6057 17.0354 13.681 17.0686 13.761 17.0808C13.8409 17.093 13.9227 17.0836 13.9979 17.0538V17.0498Z" fill="#FAA821"/>
<path fill-rule="evenodd" clip-rule="evenodd" d="M15.915 17.5854C15.931 17.5541 15.9387 17.5192 15.9373 17.484C15.9359 17.4489 15.9254 17.4147 15.9069 17.3848C15.8883 17.3549 15.8624 17.3303 15.8316 17.3134C15.8008 17.2965 15.7661 17.2879 15.731 17.2883C15.6954 17.2898 15.6608 17.3004 15.6304 17.3192C15.6001 17.3379 15.5751 17.3641 15.5579 17.3953C15.5392 17.4262 15.5293 17.4616 15.5293 17.4978C15.5293 17.5339 15.5392 17.5693 15.5579 17.6003C15.5764 17.631 15.6027 17.6564 15.6341 17.6738C15.6656 17.6911 15.701 17.6999 15.7369 17.6993C15.7726 17.6976 15.8072 17.6868 15.8375 17.6679C15.8679 17.649 15.8928 17.6227 15.91 17.5913L15.915 17.5854Z" fill="#FAA821"/>
<path fill-rule="evenodd" clip-rule="evenodd" d="M12.787 17.8152C12.913 17.7659 13.0193 17.6765 13.0893 17.5606C13.1593 17.4447 13.1891 17.309 13.1742 17.1744C13.1592 17.0398 13.1003 16.9139 13.0066 16.8163C12.9128 16.7186 12.7895 16.6547 12.6557 16.6344C12.522 16.6141 12.3853 16.6385 12.2668 16.7039C12.1483 16.7694 12.0548 16.8721 12.0006 16.9962C11.9464 17.1203 11.9347 17.2588 11.9672 17.3902C11.9998 17.5216 12.0747 17.6387 12.1805 17.7231C12.2644 17.7908 12.3647 17.835 12.4713 17.8512C12.5778 17.8674 12.6868 17.855 12.787 17.8152Z" fill="#FAA821"/>
<path fill-rule="evenodd" clip-rule="evenodd" d="M15.4478 17.9598C15.4699 17.9181 15.4808 17.8713 15.4794 17.8241C15.478 17.7769 15.4644 17.7308 15.4399 17.6905C15.4158 17.6499 15.3812 17.6166 15.3397 17.5941C15.2983 17.5716 15.2515 17.5608 15.2044 17.5627C15.1571 17.5638 15.111 17.5774 15.0706 17.6021C15.0303 17.6267 14.9972 17.6617 14.9747 17.7033C14.9522 17.7449 14.9411 17.7918 14.9425 17.8391C14.9439 17.8864 14.9578 17.9325 14.9828 17.9727C15.0069 18.0129 15.0414 18.046 15.0826 18.0685C15.1239 18.0909 15.1703 18.102 15.2173 18.1004C15.2646 18.0992 15.3108 18.0855 15.3512 18.0608C15.3917 18.0362 15.425 18.0013 15.4478 17.9598Z" fill="#FAA821"/>
<path fill-rule="evenodd" clip-rule="evenodd" d="M14.9671 18.5083C14.9948 18.4569 15.0086 18.3992 15.0072 18.3409C15.0059 18.2826 14.9893 18.2256 14.9592 18.1756C14.9111 18.1044 14.8374 18.0545 14.7535 18.0364C14.6696 18.0182 14.5819 18.0331 14.5087 18.078C14.4355 18.123 14.3825 18.1944 14.3606 18.2775C14.3387 18.3606 14.3497 18.449 14.3913 18.5241C14.4217 18.574 14.4647 18.6149 14.5159 18.6427C14.5672 18.6705 14.6249 18.6843 14.6832 18.6826C14.7418 18.6816 14.799 18.6649 14.8489 18.6343C14.8989 18.6036 14.9397 18.5601 14.9671 18.5083Z" fill="#FAA821"/>
<path fill-rule="evenodd" clip-rule="evenodd" d="M16.3187 18.541C16.3115 18.5058 16.2951 18.4731 16.2714 18.4462C16.2476 18.4193 16.2172 18.399 16.1832 18.3875C16.1496 18.3759 16.1135 18.3735 16.0787 18.3806C16.0439 18.3878 16.0116 18.4042 15.9853 18.4281C15.9588 18.4523 15.9391 18.483 15.928 18.5172C15.917 18.5513 15.915 18.5878 15.9223 18.6229C15.9296 18.6581 15.9459 18.6908 15.9696 18.7177C15.9933 18.7447 16.0236 18.765 16.0575 18.7766C16.0912 18.7882 16.1274 18.7904 16.1622 18.7831C16.197 18.7757 16.2292 18.7592 16.2554 18.7351C16.2828 18.7108 16.3032 18.6796 16.3146 18.6448C16.3259 18.61 16.3276 18.5728 16.3197 18.537L16.3187 18.541Z" fill="#FAA821"/>
<path fill-rule="evenodd" clip-rule="evenodd" d="M11.3971 19.1301C11.5644 19.0641 11.7053 18.9447 11.798 18.7903C11.8906 18.636 11.9297 18.4553 11.9093 18.2765C11.889 18.0976 11.8102 17.9304 11.6852 17.8009C11.5602 17.6714 11.396 17.5868 11.2181 17.5602C11.0402 17.5336 10.8585 17.5666 10.7012 17.6539C10.5439 17.7412 10.4197 17.878 10.348 18.0431C10.2763 18.2082 10.261 18.3924 10.3046 18.5671C10.3481 18.7418 10.448 18.8972 10.5888 19.0093C10.7013 19.0982 10.8351 19.1562 10.9769 19.1773C11.1186 19.1985 11.2635 19.1823 11.3971 19.1301Z" fill="#FAA821"/>
<path fill-rule="evenodd" clip-rule="evenodd" d="M18.2507 18.7787C18.2147 18.7797 18.1796 18.7902 18.149 18.8091C18.1184 18.8281 18.0933 18.8547 18.0762 18.8865C18.0591 18.9182 18.0507 18.9539 18.0519 18.9899C18.053 19.0259 18.0635 19.061 18.0825 19.0916C18.1005 19.1229 18.1267 19.1486 18.1583 19.1661C18.1898 19.1835 18.2255 19.192 18.2616 19.1906C18.2972 19.1891 18.3318 19.1785 18.3621 19.1598C18.3924 19.1411 18.4174 19.1149 18.4347 19.0837C18.4526 19.0523 18.4617 19.0166 18.4608 18.9805C18.4599 18.9444 18.4492 18.9092 18.4297 18.8787C18.4112 18.8479 18.3849 18.8226 18.3535 18.8052C18.322 18.7878 18.2866 18.779 18.2507 18.7797V18.7787Z" fill="#FAA821"/>
<path fill-rule="evenodd" clip-rule="evenodd" d="M17.2413 19.0122C17.2132 18.9897 17.1797 18.9749 17.1441 18.9696C17.1084 18.9642 17.072 18.9684 17.0386 18.9816C17.0051 18.9949 16.9757 19.0168 16.9535 19.0452C16.9312 19.0735 16.9169 19.1072 16.9119 19.1429C16.906 19.1782 16.9098 19.2144 16.9229 19.2477C16.9359 19.281 16.9578 19.3102 16.986 19.3321C17.0141 19.3546 17.0477 19.3693 17.0833 19.3747C17.1189 19.3801 17.1553 19.3759 17.1888 19.3626C17.2222 19.3494 17.2516 19.3274 17.2739 19.2991C17.2961 19.2708 17.3105 19.237 17.3155 19.2014C17.3213 19.1661 17.3175 19.1298 17.3045 19.0965C17.2914 19.0632 17.2696 19.0341 17.2413 19.0122Z" fill="#FAA821"/>
<path fill-rule="evenodd" clip-rule="evenodd" d="M16.2005 19.1272C16.1909 19.081 16.1694 19.0381 16.138 19.0027C16.1067 18.9674 16.0667 18.9409 16.022 18.9259C15.9772 18.9109 15.9293 18.9079 15.8831 18.9171C15.8368 18.9264 15.7938 18.9476 15.7583 18.9787C15.7229 19.0105 15.6966 19.0512 15.682 19.0965C15.6674 19.1417 15.665 19.1901 15.675 19.2366C15.6851 19.2831 15.7072 19.3262 15.7392 19.3614C15.7712 19.3966 15.8119 19.4227 15.8572 19.4372C15.902 19.4525 15.9501 19.4556 15.9965 19.4462C16.0429 19.4368 16.086 19.4152 16.1213 19.3837C16.1562 19.3518 16.1822 19.3114 16.1969 19.2665C16.2117 19.2216 16.2146 19.1736 16.2054 19.1272H16.2005Z" fill="#FAA821"/>
<path fill-rule="evenodd" clip-rule="evenodd" d="M18.8061 18.9965C18.759 18.9985 18.7131 19.0125 18.6729 19.0373C18.6327 19.0621 18.5996 19.0968 18.5766 19.1381C18.5545 19.1795 18.5436 19.2259 18.545 19.2729C18.5464 19.3198 18.56 19.3655 18.5845 19.4055C18.609 19.4456 18.6436 19.4785 18.6847 19.501C18.7258 19.5236 18.7721 19.535 18.819 19.5341C18.8662 19.5329 18.9123 19.5193 18.9526 19.4946C18.9929 19.4699 19.026 19.4351 19.0486 19.3935C19.0711 19.352 19.0823 19.3052 19.0811 19.2579C19.0799 19.2107 19.0663 19.1645 19.0416 19.1242C19.0173 19.0837 18.9827 19.0505 18.9413 19.0278C18.8999 19.0052 18.8533 18.994 18.8061 18.9955V18.9965Z" fill="#FAA821"/>
<path fill-rule="evenodd" clip-rule="evenodd" d="M14.5081 19.3629C14.5463 19.2916 14.5652 19.2117 14.5629 19.1309C14.5607 19.0502 14.5373 18.9714 14.4953 18.9024C14.4532 18.8341 14.3941 18.7781 14.3236 18.7399C14.2532 18.7016 14.174 18.6826 14.0939 18.6846C14.0138 18.6866 13.9356 18.7096 13.8672 18.7513C13.7987 18.793 13.7424 18.8519 13.7038 18.9222C13.6654 18.9935 13.6464 19.0737 13.6486 19.1547C13.6509 19.2356 13.6744 19.3146 13.7167 19.3837C13.759 19.4516 13.8183 19.5074 13.8888 19.5453C13.9592 19.5833 14.0384 19.6021 14.1184 19.6C14.1983 19.5979 14.2764 19.5749 14.3448 19.5333C14.4131 19.4917 14.4695 19.433 14.5081 19.3629Z" fill="#FAA821"/>
<path fill-rule="evenodd" clip-rule="evenodd" d="M23.648 18.0469C23.4345 18.0574 23.2335 18.151 23.0881 18.3078C22.9426 18.4646 22.8641 18.6721 22.8694 18.8861C22.8747 19.1 22.9633 19.3034 23.1164 19.4528C23.2695 19.6021 23.4748 19.6857 23.6886 19.6856C23.9021 19.6751 24.1031 19.5815 24.2486 19.4247C24.3941 19.2679 24.4726 19.0604 24.4673 18.8464C24.462 18.6325 24.3733 18.4292 24.2203 18.2798C24.0672 18.1304 23.8618 18.0468 23.648 18.0469Z" fill="#FAA821"/>
<path fill-rule="evenodd" clip-rule="evenodd" d="M19.5257 19.138C19.4673 19.1394 19.4102 19.1563 19.3603 19.1869C19.3104 19.2175 19.2696 19.2608 19.2418 19.3123C19.2072 19.3765 19.1948 19.4503 19.2064 19.5224C19.2179 19.5944 19.2529 19.6606 19.3059 19.7107C19.3588 19.7608 19.4268 19.792 19.4993 19.7996C19.5718 19.8071 19.6447 19.7906 19.7068 19.7524C19.7689 19.7143 19.8168 19.6567 19.8429 19.5887C19.8691 19.5206 19.8721 19.4458 19.8514 19.3758C19.8308 19.3058 19.7877 19.2446 19.7289 19.2017C19.67 19.1587 19.5986 19.1363 19.5257 19.138Z" fill="#FAA821"/>
<path fill-rule="evenodd" clip-rule="evenodd" d="M17.5273 19.5371C17.49 19.5083 17.446 19.4894 17.3994 19.4823C17.3529 19.4752 17.3053 19.4801 17.2611 19.4965C17.2174 19.5138 17.179 19.5423 17.1499 19.5792C17.1207 19.616 17.1017 19.6599 17.0949 19.7064C17.0878 19.7531 17.093 19.8009 17.1101 19.8449C17.1272 19.8889 17.1555 19.9277 17.1923 19.9573C17.2291 19.9869 17.273 20.0063 17.3196 20.0135C17.3663 20.0208 17.414 20.0156 17.458 19.9986C17.5018 19.981 17.5402 19.9524 17.5695 19.9154C17.5987 19.8784 17.6178 19.8344 17.6248 19.7877C17.6318 19.7411 17.6265 19.6934 17.6094 19.6494C17.5923 19.6055 17.5639 19.5667 17.5273 19.5371Z" fill="#FAA821"/>
<path fill-rule="evenodd" clip-rule="evenodd" d="M21.8928 18.8053C21.7574 18.8083 21.6268 18.8559 21.5212 18.9408C21.4156 19.0256 21.3409 19.1429 21.3087 19.2746C21.2765 19.4062 21.2885 19.5448 21.343 19.6689C21.3975 19.793 21.4914 19.8956 21.61 19.9609C21.7287 20.0261 21.8656 20.0504 21.9994 20.0299C22.1333 20.0094 22.2567 19.9453 22.3504 19.8475C22.4442 19.7497 22.5031 19.6237 22.518 19.4889C22.5329 19.3542 22.503 19.2184 22.4329 19.1024C22.3769 19.0097 22.2975 18.9334 22.2027 18.8813C22.1079 18.8291 22.001 18.8029 21.8928 18.8053Z" fill="#FAA821"/>
<path fill-rule="evenodd" clip-rule="evenodd" d="M20.4917 19.1124C20.4102 19.1134 20.3306 19.1362 20.261 19.1786C20.1913 19.2209 20.1344 19.2811 20.096 19.353C20.0578 19.4244 20.0389 19.5045 20.0412 19.5854C20.0435 19.6664 20.0668 19.7453 20.1088 19.8144C20.1511 19.8824 20.2104 19.9381 20.2809 19.9761C20.3514 20.014 20.4305 20.0329 20.5105 20.0308C20.5905 20.0287 20.6685 20.0057 20.7369 19.9641C20.8053 19.9225 20.8616 19.8637 20.9003 19.7936C20.9387 19.7223 20.9577 19.6422 20.9555 19.5612C20.9532 19.4802 20.9297 19.4013 20.8874 19.3322C20.8456 19.2631 20.7862 19.2063 20.7153 19.1677C20.6443 19.1291 20.5645 19.11 20.4838 19.1124H20.4917Z" fill="#FAA821"/>
<path fill-rule="evenodd" clip-rule="evenodd" d="M16.1882 19.8598C16.1766 19.8028 16.1501 19.7498 16.1116 19.7062C16.0731 19.6626 16.0238 19.6298 15.9686 19.6113C15.9133 19.5926 15.854 19.5889 15.7968 19.6005C15.7395 19.6121 15.6864 19.6387 15.6427 19.6775C15.599 19.7163 15.5664 19.7659 15.548 19.8214C15.5297 19.8769 15.5263 19.9363 15.5383 19.9935C15.5499 20.0506 15.5764 20.1036 15.6151 20.1472C15.6538 20.1908 15.7032 20.2234 15.7585 20.2418C15.8138 20.2602 15.8729 20.2636 15.9299 20.2519C15.987 20.2401 16.0399 20.2135 16.0834 20.1747C16.1273 20.1363 16.1601 20.0869 16.1786 20.0315C16.197 19.9762 16.2004 19.9169 16.1882 19.8598Z" fill="#FAA821"/>
<path fill-rule="evenodd" clip-rule="evenodd" d="M17.9913 20.1055C17.9451 20.0699 17.8906 20.0467 17.8329 20.0382C17.7752 20.0297 17.7163 20.0362 17.6619 20.057C17.6074 20.0785 17.5595 20.114 17.5231 20.1599C17.4866 20.2058 17.4628 20.2604 17.4541 20.3184C17.4465 20.3763 17.4538 20.4351 17.4752 20.4893C17.4967 20.5436 17.5317 20.5914 17.5768 20.6283C17.6226 20.6648 17.6773 20.6885 17.7353 20.6971C17.7932 20.7057 17.8524 20.6989 17.9068 20.6773C17.9613 20.6557 18.0091 20.6201 18.0455 20.5742C18.0818 20.5282 18.1055 20.4735 18.114 20.4155C18.1218 20.3576 18.1146 20.2987 18.0931 20.2444C18.0716 20.1902 18.0366 20.1423 17.9913 20.1055Z" fill="#FAA821"/>
<path fill-rule="evenodd" clip-rule="evenodd" d="M14.0708 20.7332C14.1218 20.6382 14.1473 20.5316 14.1447 20.4238C14.1421 20.316 14.1115 20.2107 14.056 20.1183C13.9855 20.0025 13.8788 19.9132 13.7524 19.8642C13.626 19.8153 13.4871 19.8095 13.357 19.8477C13.227 19.8859 13.1133 19.966 13.0334 20.0755C12.9535 20.1851 12.9119 20.3179 12.9152 20.4535C12.9185 20.5891 12.9664 20.7198 13.0515 20.8254C13.1365 20.9309 13.254 21.0054 13.3858 21.0373C13.5175 21.0692 13.656 21.0567 13.7799 21.0017C13.9037 20.9467 14.006 20.8523 14.0708 20.7332Z" fill="#FAA821"/>
<path fill-rule="evenodd" clip-rule="evenodd" d="M16.3833 20.8104C16.367 20.7313 16.3303 20.6577 16.2768 20.5971C16.2234 20.5365 16.1551 20.4909 16.0786 20.4648C16.0019 20.439 15.9197 20.4339 15.8404 20.4499C15.7611 20.466 15.6874 20.5027 15.6267 20.5563C15.566 20.6099 15.5205 20.6785 15.4947 20.7553C15.4689 20.8321 15.4638 20.9143 15.4799 20.9937C15.4959 21.0731 15.5325 21.1469 15.5861 21.2076C15.6397 21.2683 15.7083 21.3139 15.785 21.3397C15.8617 21.3654 15.9439 21.3706 16.0232 21.3545C16.1025 21.3384 16.1762 21.3017 16.2369 21.2481C16.2973 21.1942 16.3426 21.1255 16.3683 21.0487C16.394 20.972 16.3991 20.8898 16.3833 20.8104Z" fill="#FAA821"/>
<path fill-rule="evenodd" clip-rule="evenodd" d="M18.7455 20.7105C18.6825 20.6598 18.6072 20.6266 18.5273 20.6145C18.4473 20.6023 18.3656 20.6115 18.2904 20.6412C18.2145 20.6705 18.1478 20.7194 18.097 20.783C18.0461 20.8466 18.0131 20.9224 18.0011 21.003C17.9891 21.0835 17.9987 21.1657 18.0288 21.2413C18.059 21.3169 18.1086 21.3832 18.1727 21.4333C18.2356 21.4841 18.3109 21.5172 18.3909 21.5294C18.4708 21.5415 18.5525 21.5323 18.6277 21.5027C18.7036 21.4733 18.7703 21.4244 18.8212 21.3608C18.872 21.2973 18.905 21.2214 18.917 21.1409C18.929 21.0604 18.9194 20.9781 18.8893 20.9025C18.8591 20.8269 18.8095 20.7607 18.7455 20.7105Z" fill="#FAA821"/>
<path fill-rule="evenodd" clip-rule="evenodd" d="M20.016 21.3799C19.9529 21.3298 19.8807 21.2927 19.8033 21.2705C19.726 21.2484 19.645 21.2418 19.5651 21.251C19.4037 21.2695 19.2563 21.3515 19.1553 21.4789C19.0542 21.6063 19.0079 21.7686 19.0265 21.9301C19.045 22.0917 19.1269 22.2392 19.2542 22.3404C19.3378 22.4082 19.438 22.4525 19.5444 22.4687C19.6508 22.4849 19.7597 22.4723 19.8596 22.4324C19.9595 22.3921 20.0471 22.3264 20.1139 22.2418C20.1807 22.1573 20.2243 22.0568 20.2405 21.9502C20.2566 21.8438 20.2443 21.735 20.2049 21.6348C20.1655 21.5346 20.1003 21.4467 20.016 21.3799Z" fill="#FAA821"/>
<path fill-rule="evenodd" clip-rule="evenodd" d="M16.9265 22.1372C16.8998 22.0049 16.8302 21.8851 16.7286 21.7964C16.6269 21.7076 16.4989 21.6548 16.3643 21.6463C16.2297 21.6377 16.096 21.6737 15.9839 21.7489C15.8719 21.824 15.7877 21.934 15.7444 22.0618C15.7011 22.1897 15.7011 22.3283 15.7444 22.4561C15.7877 22.584 15.872 22.694 15.984 22.7691C16.0961 22.8442 16.2298 22.8802 16.3644 22.8716C16.499 22.863 16.627 22.8102 16.7286 22.7215C16.81 22.6501 16.8712 22.5585 16.9059 22.4559C16.9406 22.3534 16.9477 22.2434 16.9265 22.1372Z" fill="#FAA821"/>
<path fill-rule="evenodd" clip-rule="evenodd" d="M13.8499 22.6315C13.9178 22.5048 13.9517 22.3627 13.9483 22.2189C13.9448 22.0752 13.9041 21.9348 13.8301 21.8116C13.7361 21.6573 13.5939 21.5383 13.4255 21.4731C13.2571 21.4079 13.0718 21.4002 12.8986 21.4511C12.7253 21.5021 12.5737 21.6088 12.4672 21.7548C12.3608 21.9008 12.3054 22.0779 12.3098 22.2585C12.3142 22.4392 12.378 22.6134 12.4914 22.7541C12.6047 22.8948 12.7613 22.9941 12.9368 23.0366C13.1124 23.0791 13.297 23.0624 13.4621 22.9892C13.6271 22.9159 13.7635 22.7902 13.8499 22.6315Z" fill="#FAA821"/>
<path fill-rule="evenodd" clip-rule="evenodd" d="M21.8438 21.9244C21.7032 21.8114 21.5292 21.7479 21.3489 21.744C21.1686 21.74 20.992 21.7957 20.8465 21.9024C20.7011 22.0092 20.5949 22.161 20.5444 22.3343C20.494 22.5076 20.5021 22.6927 20.5675 22.861C20.6329 23.0292 20.7519 23.1711 20.9061 23.2647C21.0604 23.3583 21.2411 23.3983 21.4204 23.3786C21.5997 23.3589 21.7674 23.2805 21.8977 23.1556C22.0279 23.0307 22.1133 22.8663 22.1406 22.6878C22.1626 22.5457 22.1468 22.4002 22.0947 22.2662C22.0426 22.1321 21.956 22.0142 21.8438 21.9244Z" fill="#FAA821"/>
<path fill-rule="evenodd" clip-rule="evenodd" d="M17.9742 23.7355C17.9461 23.5942 17.8812 23.4629 17.7859 23.3549C17.6907 23.2469 17.5686 23.1661 17.4321 23.1206C17.2955 23.0757 17.1495 23.0673 17.0086 23.0961C16.8678 23.1249 16.7368 23.19 16.6288 23.285C16.5224 23.3804 16.4428 23.5021 16.3979 23.6379C16.353 23.7736 16.3444 23.9188 16.3729 24.0589C16.4014 24.1991 16.466 24.3293 16.5604 24.4367C16.6547 24.5441 16.7755 24.625 16.9107 24.6712C17.0472 24.716 17.193 24.7244 17.3337 24.6956C17.4744 24.6667 17.6051 24.6017 17.713 24.5069C17.8215 24.4123 17.9029 24.2906 17.9488 24.1541C17.9947 24.0177 18.0034 23.8715 17.9742 23.7305V23.7355Z" fill="#FAA821"/>
<path fill-rule="evenodd" clip-rule="evenodd" d="M16.4297 17.6785C16.4638 17.8521 16.5435 18.0135 16.6605 18.1461C16.7775 18.2787 16.9276 18.3777 17.0955 18.4331C17.2633 18.4893 17.4429 18.5007 17.6165 18.4659C17.79 18.4312 17.9515 18.3516 18.0848 18.235C18.2171 18.118 18.3162 17.9681 18.3721 17.8005C18.4281 17.6329 18.4389 17.4535 18.4035 17.2804C18.3681 17.1073 18.2877 16.9465 18.1704 16.8144C18.0531 16.6823 17.9032 16.5835 17.7356 16.5279C17.5678 16.4715 17.3881 16.46 17.2145 16.4948C17.0409 16.5295 16.8794 16.6092 16.7462 16.726C16.6134 16.8422 16.5137 16.9916 16.4574 17.1589C16.4011 17.3263 16.3902 17.5056 16.4257 17.6785H16.4297Z" fill="white"/>
<path d="M19.0622 45.5L13 35L25.1244 35L19.0622 45.5Z" fill="black"/>
</svg>
