<svg width="15" height="11" fill="none" xmlns="http://www.w3.org/2000/svg"><path fill-rule="evenodd" clip-rule="evenodd" d="M4.333 4.167a2.667 2.667 0 1 1 5.334 0v.667h.667a2.333 2.333 0 0 1 0 4.667h-.067a.667.667 0 0 0 0 1.333h.067a3.667 3.667 0 0 0 .62-7.282 4 4 0 0 0-7.907 0 3.668 3.668 0 0 0 .62 7.282h.066a.667.667 0 0 0 0-1.333h-.066a2.333 2.333 0 1 1 0-4.667h.666v-.667Zm3.334.667a.667.667 0 1 0-1.333 0v3.724l-.862-.862a.667.667 0 0 0-.943.943l2 2a.667.667 0 0 0 .943 0l2-2a.667.667 0 0 0-.943-.943l-.862.862V4.834Z" fill="#FAA821"/></svg>