<svg width="25" height="24" fill="none" xmlns="http://www.w3.org/2000/svg"><path fill-rule="evenodd" clip-rule="evenodd" d="m24.133 18.37.001.002c.33.43.488 1.86-1.775 1.605-.93-.09-1.843-.302-2.717-.63a10.333 10.333 0 0 1-1.95-.996c-.908.366-1.87.58-2.848.634A7.489 7.489 0 0 1 8.833 22c-.788 0-1.57-.123-2.32-.366-.44.255-.94.504-1.492.713-1.12.424-2.049.583-2.717.63-.5.037-.853.01-1.027-.009-.382-.044-.724-.262-.872-.628a1 1 0 0 1 .124-.967c.252-.345.484-.706.704-1.072.428-.714.848-1.484.954-2.322a7.5 7.5 0 0 1 3.437-10.26 9 9 0 1 1 16.848 6.126c-.19 1.724.677 3.175 1.66 4.525h.001ZM7.333 10a7 7 0 1 1 13.272 3.111.998.998 0 0 0-.095.307c-.219 1.575.15 3.011.905 4.39a8.597 8.597 0 0 1-3.03-1.405 1 1 0 0 0-1.02-.092A7 7 0 0 1 7.333 10Zm-1.996.254a9.003 9.003 0 0 0 6.963 8.515A5.477 5.477 0 0 1 8.833 20c-.73 0-1.423-.14-2.057-.397a1.001 1.001 0 0 0-.916.086c-.439.283-.96.565-1.548.788a8.884 8.884 0 0 1-1.065.331c.333-.607.67-1.33.824-2.01.077-.337.12-.664.138-.97a1 1 0 0 0-.134-.566 5.47 5.47 0 0 1-.742-2.762c0-1.71.78-3.237 2.004-4.245Z" fill="#FAA821"/></svg>