<svg width="24" height="24" fill="none" xmlns="http://www.w3.org/2000/svg"><g clip-path="url(#a)" fill="#FAA821"><path d="M22.059 6.18c-.013-.648-.024-1.26-.024-1.853a.84.84 0 0 0-.84-.84c-3.593 0-6.329-1.032-8.609-3.25a.84.84 0 0 0-1.17 0c-2.28 2.218-5.016 3.25-8.608 3.25a.84.84 0 0 0-.84.84c0 .593-.012 1.205-.024 1.853-.115 6.03-.273 14.289 9.782 17.774a.84.84 0 0 0 .55 0C22.33 20.468 22.174 12.21 22.059 6.18ZM12 22.269c-8.623-3.133-8.493-9.995-8.377-16.057l.018-1.062c3.365-.142 6.056-1.162 8.359-3.168 2.303 2.006 4.995 3.026 8.36 3.168.004.346.01.698.018 1.061.115 6.063.246 12.925-8.378 16.057Z"/><path d="m14.895 9.082-4.055 4.054-1.73-1.73a.84.84 0 0 0-1.188 1.188l2.324 2.324a.838.838 0 0 0 1.188 0l4.648-4.648a.84.84 0 1 0-1.187-1.188Z"/></g><defs><clipPath id="a"><path fill="#fff" d="M0 0h24v24H0z"/></clipPath></defs></svg>