<svg width="24" height="24" fill="none" xmlns="http://www.w3.org/2000/svg"><path d="M9.203 18.042a.555.555 0 0 0-.628-.47 15.96 15.96 0 0 0-2.626.586.555.555 0 1 0 .342 1.055c.708-.23 1.53-.412 2.442-.543a.555.555 0 0 0 .47-.628ZM18.05 18.158a15.96 15.96 0 0 0-2.625-.586.555.555 0 1 0-.158 1.098 14.85 14.85 0 0 1 2.442.543.554.554 0 1 0 .342-1.055ZM13.327 17.371a26.26 26.26 0 0 0-2.654 0 .555.555 0 1 0 .057 1.108 25.186 25.186 0 0 1 2.57 0 .555.555 0 0 0 .027-1.108Z" fill="#A7A7A7"/><path d="M18.114.841C16.473.3 14.302 0 12 0 9.7 0 7.527.299 5.886.841c-2.348.776-2.841 1.783-2.841 2.49V20.67c0 .707.493 1.713 2.841 2.49C7.527 23.7 9.699 24 12 24c2.302 0 4.473-.299 6.114-.841 2.348-.776 2.841-1.783 2.841-2.49V3.33c0-.707-.493-1.714-2.84-2.49ZM6.234 1.895c1.532-.507 3.58-.786 5.766-.786 2.187 0 4.234.28 5.766.786 1.535.507 2.08 1.09 2.08 1.436 0 .346-.545.93-2.08 1.437-1.532.507-3.58.785-5.766.785s-4.234-.278-5.766-.785c-1.535-.507-2.08-1.09-2.08-1.437 0-.345.545-.929 2.08-1.436Zm13.612 17.14a.554.554 0 0 0-.46.98c.21.162.46.406.46.654 0 .345-.545.929-2.08 1.436-1.532.507-3.58.786-5.766.786s-4.234-.28-5.766-.785c-1.535-.508-2.08-1.092-2.08-1.437 0-.248.25-.492.46-.654a.555.555 0 0 0-.46-.98V5.02c.417.28.978.552 1.732.801 1.641.543 3.813.842 6.114.842 2.302 0 4.473-.3 6.114-.842.754-.249 1.316-.521 1.732-.8v14.014Z" fill="#A7A7A7"/></svg>