<svg width="24" height="24" fill="none" xmlns="http://www.w3.org/2000/svg"><path d="m23.883 11.317-.8-.8a.4.4 0 0 0-.283-.117h-1.2a.4.4 0 0 0-.4.4v2h-.8V10a.4.4 0 0 0-.4-.4h-2.586l-1.48-2.222A.4.4 0 0 0 15.6 7.2h-2.4v-.8H16a.4.4 0 0 0 .4-.4V4.4A.4.4 0 0 0 16 4H8a.4.4 0 0 0-.4.4V6c0 .22.18.4.4.4h2.8v.8H8.4a.4.4 0 0 0-.333.178L6.586 9.6H4.4a.4.4 0 0 0-.4.4v2.4h-.8V10a.4.4 0 0 0-.4-.4H1.2a.4.4 0 0 0-.333.178l-.8 1.2A.403.403 0 0 0 0 11.2v1.2c0 .079.024.156.067.222L.8 13.72v3.48c0 .22.18.4.4.4h1.6a.4.4 0 0 0 .4-.4v-2.4H4v2.4c0 .22.18.4.4.4h2.186l1.48 2.222A.4.4 0 0 0 8.4 20H20a.4.4 0 0 0 .4-.4V16h.8v2.8c0 .22.18.4.4.4h1.2a.4.4 0 0 0 .283-.117l.8-.8A.4.4 0 0 0 24 18v-6.4a.4.4 0 0 0-.117-.283ZM2.4 12.8v4h-.8v-3.2a.403.403 0 0 0-.067-.222L.8 12.28v-.96l.614-.92H2.4v2.4ZM4 14h-.8v-.8H4v.8Zm4.4-8.4v-.8h7.2v.8H8.4Zm4 .8v.8h-.8v-.8h.8ZM18 19.2H8.614l-1.48-2.222A.4.4 0 0 0 6.8 16.8h-2v-6.4h2a.4.4 0 0 0 .333-.178L8.614 8h6.772l1.48 2.222a.4.4 0 0 0 .334.178h.8v8.8Zm1.6-6v6h-.8v-8.8h.8v2.8Zm1.6 2h-.8v-1.6h.8v1.6Zm2 2.634-.566.566H22v-7.2h.634l.566.566v6.068Z" fill="#A7A7A7"/><path d="M15.495 12.93a.4.4 0 0 0-.295-.13h-1.9l.69-3.113a.4.4 0 0 0-.66-.382l-4.8 4.4a.4.4 0 0 0 .27.695h1.902l-.692 3.113a.4.4 0 0 0 .66.382l4.8-4.4a.4.4 0 0 0 .025-.565Zm-4.429 3.517.525-2.36a.4.4 0 0 0-.39-.487H9.828l3.105-2.847-.524 2.36a.4.4 0 0 0 .39.487h1.372l-3.106 2.847ZM6.4 12.8h-.8V16h.8v-3.2ZM6.4 11.2h-.8v.8h.8v-.8Z" fill="#A7A7A7"/></svg>