<svg width="24" height="25" fill="none" xmlns="http://www.w3.org/2000/svg"><path fill-rule="evenodd" clip-rule="evenodd" d="M10 2.999a1 1 0 0 0-1 1V5.58c-.69.28-1.337.653-1.924 1.112L5.706 5.9a1 1 0 0 0-1.367.366l-2 3.464a1 1 0 0 0 .366 1.366l1.37.79a8.062 8.062 0 0 0 0 2.223l-1.37.79a.999.999 0 0 0-.366 1.367l2 3.464a1 1 0 0 0 1.366.366l1.371-.792c.581.455 1.228.83 1.923 1.112v1.582a1 1 0 0 0 1 1h4a1 1 0 0 0 1-1v-1.582a7.997 7.997 0 0 0 1.923-1.112l1.372.792a1 1 0 0 0 1.366-.366l2-3.464a1 1 0 0 0-.366-1.366l-1.37-.791a8.067 8.067 0 0 0 0-2.222l1.37-.79a1.002 1.002 0 0 0 .366-1.367l-2-3.464a1 1 0 0 0-1.366-.366l-1.372.792A7.993 7.993 0 0 0 15 5.58V3.999a1 1 0 0 0-1-1h-4Zm1 3.29v-1.29h2v1.29a1 1 0 0 0 .714.958c.9.269 1.725.745 2.408 1.392a1 1 0 0 0 1.188.14l1.117-.646 1 1.732-1.116.645a1 1 0 0 0-.474 1.097 6.02 6.02 0 0 1 0 2.784 1 1 0 0 0 .474 1.097l1.116.645-1 1.732-1.119-.646a1 1 0 0 0-1.186.14 5.992 5.992 0 0 1-2.408 1.392 1 1 0 0 0-.715.958v1.29h-2v-1.29a1 1 0 0 0-.715-.958 5.993 5.993 0 0 1-2.407-1.392 1 1 0 0 0-1.188-.14l-1.118.646-1-1.732 1.117-.645a1 1 0 0 0 .473-1.097 6.02 6.02 0 0 1 0-2.784 1 1 0 0 0-.473-1.097l-1.117-.645 1-1.732 1.118.646a1 1 0 0 0 1.188-.14 5.993 5.993 0 0 1 2.407-1.392A1 1 0 0 0 11 6.289Zm-1 6.71a2 2 0 1 1 3.999 0 2 2 0 0 1-4 0Zm2-4a4 4 0 1 0 0 8 4 4 0 0 0 0-8Z" fill="#FAA821"/></svg>