<svg width="56" height="56" viewBox="0 0 56 56" fill="none" xmlns="http://www.w3.org/2000/svg">
<rect width="56" height="55.9988" rx="27.9994" fill="#F6B32E" fill-opacity="0.15"/>
<path fill-rule="evenodd" clip-rule="evenodd" d="M25.207 30.793C27.525 33.111 29.678 34.403 31.28 35.121C32.679 35.748 34.33 35.256 35.617 33.969L35.911 33.674L32.375 31.424C31.703 32.404 30.432 32.979 29.163 32.444C28.202 32.038 26.93 31.344 25.793 30.207C24.656 29.07 23.963 27.798 23.557 26.837C23.021 25.568 23.595 24.297 24.576 23.625L22.326 20.089L22.031 20.383C20.744 21.67 20.253 23.321 20.879 24.72C21.597 26.322 22.889 28.475 25.207 30.793ZM30.463 36.946C28.648 36.133 26.291 34.705 23.793 32.207C21.295 29.71 19.867 27.352 19.053 25.537C17.978 23.137 18.96 20.627 20.617 18.969L20.911 18.674C21.1227 18.4621 21.3794 18.3005 21.662 18.2011C21.9445 18.1017 22.2458 18.067 22.5436 18.0997C22.8414 18.1323 23.128 18.2314 23.3823 18.3897C23.6366 18.5479 23.8522 18.7613 24.013 19.014L26.843 23.464C26.918 23.582 26.9673 23.7145 26.9879 23.8528C27.0085 23.9911 26.9999 24.1322 26.9626 24.2669C26.9252 24.4017 26.8601 24.5271 26.7713 24.6351C26.6825 24.7431 26.572 24.8313 26.447 24.894L25.814 25.211C25.382 25.427 25.294 25.808 25.399 26.059C25.738 26.862 26.305 27.89 27.207 28.793C28.11 29.695 29.138 30.262 29.941 30.601C30.192 30.707 30.573 30.618 30.789 30.186L31.106 29.553C31.1686 29.4279 31.2567 29.3174 31.3647 29.2284C31.4726 29.1395 31.5981 29.0743 31.7328 29.0369C31.8676 28.9995 32.0087 28.9907 32.147 29.0112C32.2854 29.0318 32.4179 29.0811 32.536 29.156L36.986 31.987C37.2387 32.1478 37.4521 32.3634 37.6103 32.6177C37.7686 32.872 37.8677 33.1586 37.9003 33.4564C37.933 33.7542 37.8983 34.0555 37.7989 34.338C37.6995 34.6206 37.5379 34.8773 37.326 35.089L37.031 35.383C35.374 37.041 32.864 38.022 30.463 36.946Z" fill="#FAA821"/>
</svg>
