<svg width="15" height="15" viewBox="0 0 15 15" fill="none" xmlns="http://www.w3.org/2000/svg">
<path fill-rule="evenodd" clip-rule="evenodd" d="M0.292787 0.79357C0.480314 0.606099 0.734622 0.500783 0.999786 0.500783C1.26495 0.500783 1.51926 0.606099 1.70679 0.79357L6.99979 6.08657L12.2928 0.79357C12.385 0.698059 12.4954 0.621877 12.6174 0.569468C12.7394 0.517059 12.8706 0.489473 13.0034 0.488319C13.1362 0.487165 13.2678 0.512467 13.3907 0.562748C13.5136 0.613028 13.6253 0.687282 13.7192 0.781174C13.8131 0.875067 13.8873 0.986719 13.9376 1.10962C13.9879 1.23251 14.0132 1.36419 14.012 1.49697C14.0109 1.62975 13.9833 1.76097 13.9309 1.88297C13.8785 2.00498 13.8023 2.11532 13.7068 2.20757L8.41379 7.50057L13.7068 12.7936C13.8889 12.9822 13.9897 13.2348 13.9875 13.497C13.9852 13.7592 13.88 14.01 13.6946 14.1954C13.5092 14.3808 13.2584 14.486 12.9962 14.4882C12.734 14.4905 12.4814 14.3897 12.2928 14.2076L6.99979 8.91457L1.70679 14.2076C1.51818 14.3897 1.26558 14.4905 1.00339 14.4882C0.741188 14.486 0.490376 14.3808 0.304968 14.1954C0.11956 14.01 0.0143906 13.7592 0.0121121 13.497C0.00983372 13.2348 0.110629 12.9822 0.292787 12.7936L5.58579 7.50057L0.292787 2.20757C0.105316 2.02004 0 1.76573 0 1.50057C0 1.23541 0.105316 0.981097 0.292787 0.79357V0.79357Z" fill="#A7A7A7"/>
</svg>
