<svg width="20" height="20" fill="none" xmlns="http://www.w3.org/2000/svg"><path fill-rule="evenodd" clip-rule="evenodd" d="M10 0C4.477 0 0 4.477 0 10s4.477 10 10 10 10-4.477 10-10S15.523 0 10 0ZM7.801 4.699c.57-.026.751-.032 2.2-.032h-.002c1.449 0 1.63.006 2.199.032.567.026.955.116 1.295.248.351.136.648.318.945.615.296.296.479.594.615.944.131.34.221.727.248 1.295.026.569.032.75.032 2.2 0 1.447-.006 1.629-.032 2.198-.027.567-.117.955-.248 1.294-.136.35-.319.648-.615.945a2.61 2.61 0 0 1-.944.615c-.34.132-.728.222-1.296.248-.568.026-.75.032-2.198.032-1.449 0-1.63-.006-2.2-.032-.567-.026-.954-.116-1.294-.248a2.612 2.612 0 0 1-.944-.615 2.614 2.614 0 0 1-.615-.945c-.132-.339-.222-.727-.248-1.294-.026-.57-.032-.75-.032-2.199 0-1.448.006-1.63.032-2.2.025-.567.115-.954.248-1.294.136-.35.318-.648.615-.944.297-.297.594-.48.945-.615.339-.132.727-.222 1.294-.248Z" fill="#FAA821"/><path fill-rule="evenodd" clip-rule="evenodd" d="M9.522 5.628h.479c1.424 0 1.593.005 2.155.03.52.024.802.111.99.184.249.097.426.212.613.399.187.187.302.364.4.613.072.188.16.47.183.99.025.563.03.731.03 2.155 0 1.423-.005 1.592-.03 2.154-.024.52-.11.803-.184.99a1.65 1.65 0 0 1-.4.613 1.648 1.648 0 0 1-.612.399c-.188.073-.47.16-.99.184-.562.025-.731.03-2.155.03s-1.593-.005-2.155-.03c-.52-.024-.803-.111-.99-.184a1.652 1.652 0 0 1-.614-.4 1.653 1.653 0 0 1-.4-.612c-.072-.188-.16-.47-.183-.99-.025-.562-.03-.731-.03-2.155 0-1.425.005-1.593.03-2.155.024-.52.11-.802.184-.99.096-.25.212-.427.399-.614.187-.186.364-.302.613-.399.188-.073.47-.16.99-.184.493-.022.683-.028 1.677-.03v.002Zm3.326.885a.64.64 0 1 0 0 1.28.64.64 0 0 0 0-1.28ZM7.262 10a2.739 2.739 0 1 1 5.478 0 2.739 2.739 0 0 1-5.478 0Z" fill="#FAA821"/><path d="M10 8.222a1.778 1.778 0 1 1 0 3.556 1.778 1.778 0 0 1 0-3.556Z" fill="#FAA821"/></svg>