<svg width="24" height="24" fill="none" xmlns="http://www.w3.org/2000/svg"><path d="M23.357 5.108a.751.751 0 0 0-.466-.695L12.286.056a.75.75 0 0 0-.57 0L1.11 4.413a.75.75 0 0 0-.465.695v13.784a.75.75 0 0 0 .465.695l10.605 4.357c.181.074.385.076.57 0 .01-.003-.392.161 10.606-4.357a.75.75 0 0 0 .466-.695V5.108ZM12 8.716 8.093 7.11l8.445-3.684 4.169 1.712L12 8.716ZM2.146 6.29l3.372 1.385v3.908a.75.75 0 0 0 1.501 0V8.293l4.23 1.738v12.098l-9.103-3.74V6.291Zm9.855-4.728 2.603 1.069-8.445 3.684-2.864-1.177L12 1.563Zm.75 8.468 9.104-3.74v12.098l-9.103 3.74V10.03Z" fill="#FAA821"/></svg>