<svg width="24" height="25" fill="none" xmlns="http://www.w3.org/2000/svg"><path fill-rule="evenodd" clip-rule="evenodd" d="M12.625 6.219c-1.583-1.267-3.442-1.228-4.769-.95-.808.17-1.63.45-2.352.86A1 1 0 0 0 5 7v14a1 1 0 1 0 2 0v-5.37c1.376-.58 3.124-.85 4.375.15 1.583 1.267 3.442 1.228 4.768.949a9.004 9.004 0 0 0 2.152-.754c.392-.198.705-.502.705-.975v-8a1 1 0 0 0-1.495-.87c-1.439.787-3.504 1.19-4.88.089ZM7 7.629v5.869c1.881-.602 4.021-.563 5.625.72.917.734 2.058.773 3.107.553A7.061 7.061 0 0 0 17 14.369v-5.87c-.282.09-.568.166-.857.228-1.326.279-3.185.318-4.768-.948-1.251-1-2.999-.731-4.375-.151Z" fill="#FAA821"/></svg>