<svg width="23" height="17" viewBox="0 0 23 17" fill="none" xmlns="http://www.w3.org/2000/svg">
<path d="M11.9902 12.5182C11.9902 10.1485 12.8448 7.77879 14.5541 5.40909C16.2634 3.03939 18.3246 1.23636 20.7377 0L23 2.55C19.7322 4.25 17.6208 6.41364 16.6656 9.04091C16.7661 8.98939 16.9923 8.96363 17.3443 8.96363C18.1989 8.96363 18.9279 9.29848 19.5311 9.96818C20.1847 10.5864 20.5115 11.4106 20.5115 12.4409C20.5115 13.6773 20.059 14.7591 19.1541 15.6864C18.2492 16.5621 17.1934 17 15.9869 17C14.8306 17 13.8754 16.6136 13.1213 15.8409C12.3672 15.0682 11.9902 13.9606 11.9902 12.5182ZM0 12.5182C0 10.1485 0.854645 7.77879 2.56393 5.40909C4.27322 3.03939 6.33443 1.23636 8.74754 0L11.0098 2.55C7.64153 4.30152 5.53005 6.46515 4.67541 9.04091C4.72568 8.98939 4.92678 8.96363 5.27869 8.96363C6.18361 8.96363 6.9377 9.29848 7.54098 9.96818C8.19454 10.5864 8.52131 11.4106 8.52131 12.4409C8.52131 13.6773 8.06885 14.7591 7.16393 15.6864C6.25902 16.5621 5.20328 17 3.99672 17C2.84044 17 1.88525 16.6136 1.13115 15.8409C0.377049 15.0682 0 13.9606 0 12.5182Z" fill="#FAA821"/>
</svg>
