<svg width="24" height="24" fill="none" xmlns="http://www.w3.org/2000/svg"><path fill-rule="evenodd" clip-rule="evenodd" d="M11.235 3.576a.5.5 0 0 1 .416-.052L22 6.806a.5.5 0 0 1 .371.444l1.123 6.537a.5.5 0 0 1-.144.443l-7.334 7.129a.5.5 0 0 1-.485.122l-9.59-2.742a.5.5 0 0 1-.312-.262L.55 8.057a.5.5 0 0 1 .61-.692l2.595.883 7.48-4.672ZM3.676 9.277a.496.496 0 0 1-.017-.006l-1.684-.573 4.454 9.14 9.097 2.602 6.937-6.744-.944-5.498-7.802 6.068a.5.5 0 0 1-.752-.166l-1.035-2.015-8.254-2.808Zm15.633-2.275-7.74-2.455-5.733 3.58L19.31 7.003ZM6.251 9.097l6.192 2.107a.5.5 0 0 1 .284.244l.852 1.658 6.658-5.178L6.25 9.097Z" fill="#A7A7A7"/><path fill-rule="evenodd" clip-rule="evenodd" d="M4.79 10.546a.5.5 0 0 1 .664.244l2.222 4.8a.5.5 0 0 1-.908.42l-2.222-4.8a.5.5 0 0 1 .244-.664ZM20 10.5a.5.5 0 0 1 .5.5v1.8a.5.5 0 1 1-1 0V11a.5.5 0 0 1 .5-.5ZM8.1 12.358a.5.5 0 0 1 .675.208l2.223 4.2a.5.5 0 1 1-.884.468l-2.223-4.2a.5.5 0 0 1 .208-.676Zm9.678 1.142a.5.5 0 0 1 .5.5v1.2a.5.5 0 1 1-1 0V14a.5.5 0 0 1 .5-.5Zm-2.222 1.8a.5.5 0 0 1 .5.5V17a.5.5 0 1 1-1 0v-1.2a.5.5 0 0 1 .5-.5ZM11.35 3.523a.5.5 0 0 1 .627.328l2.083 6.654 2.06.51a.5.5 0 0 1-.24.97l-2.123-.525-1.486.96-.542-.84 1.347-.87-2.053-6.56a.5.5 0 0 1 .328-.627Z" fill="#A7A7A7"/></svg>