<svg width="14" height="14" fill="none" xmlns="http://www.w3.org/2000/svg"><path fill-rule="evenodd" clip-rule="evenodd" d="M5.275 8.862c1.545 1.546 2.98 2.407 4.049 2.886.933.418 2.033.09 2.891-.768l.196-.197-2.357-1.5c-.448.654-1.296 1.037-2.142.68a7.097 7.097 0 0 1-2.246-1.491 7.093 7.093 0 0 1-1.491-2.247c-.357-.846.025-1.693.68-2.141l-1.5-2.358-.197.196c-.859.858-1.186 1.959-.769 2.892.48 1.068 1.34 2.503 2.886 4.048Zm3.504 4.103c-1.21-.542-2.781-1.494-4.447-3.16-1.665-1.665-2.617-3.237-3.16-4.447C.455 3.758 1.11 2.085 2.215.98L2.41.783a1.333 1.333 0 0 1 2.068.226l1.887 2.967a.667.667 0 0 1-.264.954l-.422.211c-.288.144-.347.398-.277.565.226.536.604 1.221 1.205 1.823.602.601 1.288.98 1.823 1.205.167.071.421.012.565-.276l.212-.422a.667.667 0 0 1 .953-.265l2.967 1.888a1.333 1.333 0 0 1 .227 2.068l-.197.196c-1.105 1.105-2.778 1.76-4.379 1.042Z" fill="#FAA821"/></svg>