<svg width="16" height="16" viewBox="0 0 16 16" fill="none" xmlns="http://www.w3.org/2000/svg">
<path fill-rule="evenodd" clip-rule="evenodd" d="M10.4711 2.86183C10.596 2.98685 10.6663 3.1564 10.6663 3.33318C10.6663 3.50997 10.596 3.67952 10.4711 3.80454L6.27551 8.00008L10.4711 12.1956C10.5347 12.2571 10.5855 12.3307 10.6205 12.412C10.6554 12.4934 10.6738 12.5809 10.6746 12.6694C10.6753 12.7579 10.6585 12.8457 10.6249 12.9276C10.5914 13.0096 10.5419 13.084 10.4793 13.1466C10.4167 13.2092 10.3423 13.2587 10.2603 13.2922C10.1784 13.3257 10.0906 13.3426 10.0021 13.3418C9.91357 13.3411 9.82609 13.3227 9.74475 13.2877C9.66341 13.2528 9.58984 13.202 9.52834 13.1383L4.86144 8.47144C4.73646 8.34641 4.66624 8.17687 4.66624 8.00008C4.66624 7.8233 4.73646 7.65375 4.86144 7.52872L9.52834 2.86183C9.65337 2.73684 9.82291 2.66663 9.9997 2.66663C10.1765 2.66663 10.346 2.73684 10.4711 2.86183V2.86183Z" fill="#FAA821"/>
</svg>
