<svg width="552" height="8" viewBox="0 0 552 8" fill="none" xmlns="http://www.w3.org/2000/svg">
<g clip-path="url(#clip0_221:23045)">
<path d="M193 8H0V0H193V8Z" fill="#F7B338"/>
<path d="M33.6204 8.56342L28.4883 10.9927L2.48446 -1.31625L7.61661 -3.74557L33.6204 8.56342Z" fill="#494949"/>
<path d="M19.4407 11.436L14.3086 13.8654L-11.6952 1.55637L-6.56307 -0.872949L19.4407 11.436Z" fill="#494949"/>
<path d="M52.7142 7.97174L47.582 10.4011L21.5782 -1.90793L26.7104 -4.33725L52.7142 7.97174Z" fill="#494949"/>
<path d="M74.2943 8.57886L69.1621 11.0082L43.1583 -1.30081L48.2905 -3.73013L74.2943 8.57886Z" fill="#494949"/>
<path d="M93.3138 7.96356L88.1816 10.3929L62.1778 -1.9161L67.31 -4.34542L93.3138 7.96356Z" fill="#494949"/>
<path d="M134.911 8.14215L129.779 10.5715L103.775 -1.73751L108.908 -4.16683L134.911 8.14215Z" fill="#494949"/>
<path d="M177.316 8.71357L172.184 11.1429L146.18 -1.16611L151.312 -3.59542L177.316 8.71357Z" fill="#494949"/>
<path d="M114.163 8.07074L109.031 10.5001L83.0275 -1.80892L88.1596 -4.23824L114.163 8.07074Z" fill="#494949"/>
<path d="M155.158 7.96356L150.025 10.3929L124.022 -1.9161L129.154 -4.34542L155.158 7.96356Z" fill="#494949"/>
<path d="M197.562 8.53497L192.43 10.9643L166.426 -1.34469L171.558 -3.77402L197.562 8.53497Z" fill="#494949"/>
<path d="M213.757 6.53498L208.625 8.96429L182.621 -3.34469L187.753 -5.77401L213.757 6.53498Z" fill="#494949"/>
<path d="M44.14 8.80524L39.0078 11.2346L11.7386 -1.67343L16.8707 -4.10275L44.14 8.80524Z" fill="#F7B338"/>
<path d="M29.9622 11.6779L24.8301 14.1072L-2.43917 1.1992L2.69298 -1.23012L29.9622 11.6779Z" fill="#F7B338"/>
<path d="M63.2357 8.21356L58.1035 10.6429L30.8343 -2.2651L35.9664 -4.69442L63.2357 8.21356Z" fill="#F7B338"/>
<path d="M84.8138 8.82074L79.6816 11.2501L52.4124 -1.65792L57.5446 -4.08724L84.8138 8.82074Z" fill="#F7B338"/>
<path d="M126.411 8.99933L121.279 11.4286L94.0101 -1.47933L99.1422 -3.90865L126.411 8.99933Z" fill="#F7B338"/>
<path d="M166.55 8.49927L161.418 10.9286L134.149 -1.97939L139.281 -4.40871L166.55 8.49927Z" fill="#F7B338"/>
<path d="M105.06 8.64215L99.9277 11.0715L72.6585 -1.83651L77.7906 -4.26583L105.06 8.64215Z" fill="#F7B338"/>
<path d="M146.656 8.82068L141.523 11.25L114.254 -1.65798L119.386 -4.0873L146.656 8.82068Z" fill="#F7B338"/>
<path d="M189.06 9.39215L183.928 11.8215L156.658 -1.08651L161.791 -3.51583L189.06 9.39215Z" fill="#F7B338"/>
<path d="M205.257 7.39215L200.125 9.82147L172.856 -3.08651L177.988 -5.51583L205.257 7.39215Z" fill="#F7B338"/>
</g>
<g clip-path="url(#clip1_221:23045)">
<path d="M377 8H184V0H377V8Z" fill="#F7B338"/>
<path d="M217.62 8.56342L212.488 10.9927L186.484 -1.31625L191.617 -3.74557L217.62 8.56342Z" fill="#494949"/>
<path d="M203.441 11.436L198.309 13.8654L172.305 1.55637L177.437 -0.872949L203.441 11.436Z" fill="#494949"/>
<path d="M236.714 7.97174L231.582 10.4011L205.578 -1.90793L210.71 -4.33725L236.714 7.97174Z" fill="#494949"/>
<path d="M258.294 8.57886L253.162 11.0082L227.158 -1.30081L232.29 -3.73013L258.294 8.57886Z" fill="#494949"/>
<path d="M277.314 7.96356L272.182 10.3929L246.178 -1.9161L251.31 -4.34542L277.314 7.96356Z" fill="#494949"/>
<path d="M318.911 8.14215L313.779 10.5715L287.775 -1.73751L292.908 -4.16683L318.911 8.14215Z" fill="#494949"/>
<path d="M361.316 8.71357L356.184 11.1429L330.18 -1.16611L335.312 -3.59542L361.316 8.71357Z" fill="#494949"/>
<path d="M298.163 8.07074L293.031 10.5001L267.027 -1.80892L272.16 -4.23824L298.163 8.07074Z" fill="#494949"/>
<path d="M339.158 7.96356L334.025 10.3929L308.022 -1.9161L313.154 -4.34542L339.158 7.96356Z" fill="#494949"/>
<path d="M381.562 8.53497L376.43 10.9643L350.426 -1.34469L355.558 -3.77402L381.562 8.53497Z" fill="#494949"/>
<path d="M397.757 6.53498L392.625 8.96429L366.621 -3.34469L371.753 -5.77401L397.757 6.53498Z" fill="#494949"/>
<path d="M228.14 8.80524L223.008 11.2346L195.739 -1.67343L200.871 -4.10275L228.14 8.80524Z" fill="#F7B338"/>
<path d="M213.962 11.6779L208.83 14.1072L181.561 1.1992L186.693 -1.23012L213.962 11.6779Z" fill="#F7B338"/>
<path d="M247.236 8.21356L242.104 10.6429L214.834 -2.2651L219.966 -4.69442L247.236 8.21356Z" fill="#F7B338"/>
<path d="M268.814 8.82074L263.682 11.2501L236.412 -1.65792L241.545 -4.08724L268.814 8.82074Z" fill="#F7B338"/>
<path d="M310.411 8.99933L305.279 11.4286L278.01 -1.47933L283.142 -3.90865L310.411 8.99933Z" fill="#F7B338"/>
<path d="M350.55 8.49927L345.418 10.9286L318.149 -1.97939L323.281 -4.40871L350.55 8.49927Z" fill="#F7B338"/>
<path d="M289.06 8.64215L283.928 11.0715L256.658 -1.83651L261.791 -4.26583L289.06 8.64215Z" fill="#F7B338"/>
<path d="M330.656 8.82068L325.523 11.25L298.254 -1.65798L303.386 -4.0873L330.656 8.82068Z" fill="#F7B338"/>
<path d="M373.06 9.39215L367.928 11.8215L340.658 -1.08651L345.791 -3.51583L373.06 9.39215Z" fill="#F7B338"/>
<path d="M389.257 7.39215L384.125 9.82147L356.856 -3.08651L361.988 -5.51583L389.257 7.39215Z" fill="#F7B338"/>
</g>
<g clip-path="url(#clip2_221:23045)">
<path d="M561 8H368V0H561V8Z" fill="#F7B338"/>
<path d="M401.62 8.56342L396.488 10.9927L370.484 -1.31625L375.617 -3.74557L401.62 8.56342Z" fill="#494949"/>
<path d="M387.441 11.436L382.309 13.8654L356.305 1.55637L361.437 -0.872949L387.441 11.436Z" fill="#494949"/>
<path d="M420.714 7.97174L415.582 10.4011L389.578 -1.90793L394.71 -4.33725L420.714 7.97174Z" fill="#494949"/>
<path d="M442.294 8.57886L437.162 11.0082L411.158 -1.30081L416.29 -3.73013L442.294 8.57886Z" fill="#494949"/>
<path d="M461.314 7.96356L456.182 10.3929L430.178 -1.9161L435.31 -4.34542L461.314 7.96356Z" fill="#494949"/>
<path d="M502.911 8.14215L497.779 10.5715L471.775 -1.73751L476.908 -4.16683L502.911 8.14215Z" fill="#494949"/>
<path d="M545.316 8.71357L540.184 11.1429L514.18 -1.16611L519.312 -3.59542L545.316 8.71357Z" fill="#494949"/>
<path d="M482.163 8.07074L477.031 10.5001L451.027 -1.80892L456.16 -4.23824L482.163 8.07074Z" fill="#494949"/>
<path d="M523.158 7.96356L518.025 10.3929L492.022 -1.9161L497.154 -4.34542L523.158 7.96356Z" fill="#494949"/>
<path d="M565.562 8.53497L560.43 10.9643L534.426 -1.34469L539.558 -3.77402L565.562 8.53497Z" fill="#494949"/>
<path d="M581.757 6.53498L576.625 8.96429L550.621 -3.34469L555.753 -5.77401L581.757 6.53498Z" fill="#494949"/>
<path d="M412.14 8.80524L407.008 11.2346L379.739 -1.67343L384.871 -4.10275L412.14 8.80524Z" fill="#F7B338"/>
<path d="M397.962 11.6779L392.83 14.1072L365.561 1.1992L370.693 -1.23012L397.962 11.6779Z" fill="#F7B338"/>
<path d="M431.236 8.21356L426.104 10.6429L398.834 -2.2651L403.966 -4.69442L431.236 8.21356Z" fill="#F7B338"/>
<path d="M452.814 8.82074L447.682 11.2501L420.412 -1.65792L425.545 -4.08724L452.814 8.82074Z" fill="#F7B338"/>
<path d="M494.411 8.99933L489.279 11.4286L462.01 -1.47933L467.142 -3.90865L494.411 8.99933Z" fill="#F7B338"/>
<path d="M534.55 8.49927L529.418 10.9286L502.149 -1.97939L507.281 -4.40871L534.55 8.49927Z" fill="#F7B338"/>
<path d="M473.06 8.64215L467.928 11.0715L440.658 -1.83651L445.791 -4.26583L473.06 8.64215Z" fill="#F7B338"/>
<path d="M514.656 8.82068L509.523 11.25L482.254 -1.65798L487.386 -4.0873L514.656 8.82068Z" fill="#F7B338"/>
<path d="M557.06 9.39215L551.928 11.8215L524.658 -1.08651L529.791 -3.51583L557.06 9.39215Z" fill="#F7B338"/>
<path d="M573.257 7.39215L568.125 9.82147L540.856 -3.08651L545.988 -5.51583L573.257 7.39215Z" fill="#F7B338"/>
</g>
<defs>
<clipPath id="clip0_221:23045">
<rect width="184" height="8" fill="white" transform="matrix(1 0 0 -1 0 8)"/>
</clipPath>
<clipPath id="clip1_221:23045">
<rect width="184" height="8" fill="white" transform="matrix(1 0 0 -1 184 8)"/>
</clipPath>
<clipPath id="clip2_221:23045">
<rect width="184" height="8" fill="white" transform="matrix(1 0 0 -1 368 8)"/>
</clipPath>
</defs>
</svg>
