<svg width="24" height="16" fill="none" xmlns="http://www.w3.org/2000/svg"><path fill-rule="evenodd" clip-rule="evenodd" d="M16 2a3 3 0 1 0 0 6 3 3 0 0 0 0-6Zm-5 3a5 5 0 1 1 8.654 3.413 8.095 8.095 0 0 1 4.172 3.12 1 1 0 0 1-1.652 1.126C21.198 11.227 19.42 10 17 10c-3.834 0-6 3.074-6 5a1 1 0 1 1-2 0c0-.692.159-1.43.46-2.157a1.005 1.005 0 0 1-.21-.183C8.429 11.726 7.155 11 5.5 11c-1.653 0-2.927.726-3.748 1.66A1 1 0 0 1 .25 11.34a6.872 6.872 0 0 1 2.108-1.62 4.5 4.5 0 1 1 6.286 0 6.87 6.87 0 0 1 1.864 1.358 8.1 8.1 0 0 1 2.484-2.083A4.992 4.992 0 0 1 11.002 5ZM3 6.5a2.5 2.5 0 1 1 5 0 2.5 2.5 0 0 1-5 0Z" fill="#FAA821"/></svg>