<svg width="24" height="24" fill="none" xmlns="http://www.w3.org/2000/svg"><path d="M9.377 14h-.754c-.609 0-1.104-.496-1.104-1.105v-.255a4.84 4.84 0 0 1-.753-.312l-.18.18a1.105 1.105 0 0 1-1.563 0l-.532-.532a1.105 1.105 0 0 1 0-1.562l.18-.18a4.843 4.843 0 0 1-.312-.753h-.254C3.495 9.481 3 8.986 3 8.377v-.754c0-.609.496-1.104 1.105-1.104h.254c.083-.26.188-.51.313-.753l-.18-.18a1.105 1.105 0 0 1 0-1.563l.532-.532a1.105 1.105 0 0 1 1.562 0l.18.18c.242-.124.494-.229.753-.312v-.254c0-.61.495-1.105 1.104-1.105h.754c.609 0 1.104.496 1.104 1.105v.254c.26.083.51.188.752.313l.181-.18a1.105 1.105 0 0 1 1.563 0l.532.532a1.105 1.105 0 0 1 0 1.562l-.18.18c.124.242.229.494.311.753h.255c.61 0 1.105.495 1.105 1.104v.754c0 .609-.496 1.104-1.105 1.104h-.255c-.082.26-.187.51-.312.752l.18.181a1.105 1.105 0 0 1 0 1.563l-.532.532a1.105 1.105 0 0 1-1.562 0l-.18-.18a4.85 4.85 0 0 1-.753.312v.254c0 .61-.495 1.105-1.104 1.105Zm-2.493-2.41c.336.199.697.348 1.074.446.155.04.264.18.264.34v.52c0 .22.18.4.401.4h.754c.221 0 .401-.18.401-.4v-.52c0-.16.109-.3.264-.34a4.145 4.145 0 0 0 1.074-.446.352.352 0 0 1 .428.054l.367.368a.401.401 0 0 0 .568 0l.533-.533a.401.401 0 0 0 0-.568l-.368-.367a.352.352 0 0 1-.054-.428 4.14 4.14 0 0 0 .446-1.074.352.352 0 0 1 .34-.264h.52c.22 0 .4-.18.4-.401v-.754a.402.402 0 0 0-.4-.401h-.52c-.16 0-.3-.109-.34-.264a4.143 4.143 0 0 0-.446-1.074.352.352 0 0 1 .054-.428l.368-.367a.401.401 0 0 0 0-.568l-.533-.533a.401.401 0 0 0-.567 0l-.368.368a.351.351 0 0 1-.428.054 4.144 4.144 0 0 0-1.074-.446.352.352 0 0 1-.264-.34v-.52a.402.402 0 0 0-.401-.4h-.754a.402.402 0 0 0-.401.4v.52c0 .16-.109.3-.264.34a4.144 4.144 0 0 0-1.074.446.352.352 0 0 1-.428-.054l-.367-.368a.401.401 0 0 0-.568 0l-.533.533a.401.401 0 0 0 0 .568l.368.367c.114.114.136.29.054.428a4.143 4.143 0 0 0-.446 1.074.352.352 0 0 1-.34.264h-.52a.402.402 0 0 0-.4.401v.754c0 .221.18.401.4.401h.52c.16 0 .3.109.34.264.097.377.247.738.446 1.074a.352.352 0 0 1-.054.428l-.368.367a.401.401 0 0 0 0 .568l.533.533c.154.154.409.159.568 0l.367-.368a.353.353 0 0 1 .428-.054ZM17.782 22h-.564a.83.83 0 0 1-.829-.828v-.192a3.641 3.641 0 0 1-.564-.234l-.136.136a.828.828 0 0 1-1.171 0l-.4-.4a.828.828 0 0 1 0-1.171l.136-.136a3.633 3.633 0 0 1-.234-.564h-.191a.83.83 0 0 1-.829-.829v-.564a.83.83 0 0 1 .829-.829h.19c.063-.194.141-.383.235-.564l-.136-.135a.829.829 0 0 1 0-1.172l.4-.4a.828.828 0 0 1 1.172 0l.135.136c.181-.094.37-.172.564-.234v-.191a.83.83 0 0 1 .829-.829h.564a.83.83 0 0 1 .829.829v.19c.194.063.383.141.564.235l.136-.136a.828.828 0 0 1 1.171 0l.4.4a.828.828 0 0 1 0 1.171l-.136.136c.094.181.172.37.234.564h.192a.83.83 0 0 1 .828.829v.564a.83.83 0 0 1-.828.829h-.192c-.062.194-.14.383-.234.564l.136.136a.828.828 0 0 1 0 1.171l-.4.4a.828.828 0 0 1-1.172 0l-.135-.136c-.181.094-.37.172-.564.234v.192a.83.83 0 0 1-.829.828Zm-1.869-1.808c.252.15.523.262.806.335.116.03.197.135.197.255v.39c0 .166.136.3.302.3h.564a.302.302 0 0 0 .302-.3v-.39c0-.12.081-.225.197-.255.283-.073.554-.186.806-.335a.264.264 0 0 1 .32.041l.276.276c.12.119.31.116.426 0l.4-.4a.301.301 0 0 0 0-.425l-.276-.276a.264.264 0 0 1-.04-.321 3.11 3.11 0 0 0 .334-.806.264.264 0 0 1 .255-.197h.39a.302.302 0 0 0 .3-.302v-.564a.302.302 0 0 0-.3-.302h-.39a.264.264 0 0 1-.255-.197 3.11 3.11 0 0 0-.335-.806.264.264 0 0 1 .041-.32l.276-.276a.301.301 0 0 0 0-.426l-.4-.4a.301.301 0 0 0-.425 0l-.276.276a.264.264 0 0 1-.321.04 3.107 3.107 0 0 0-.806-.334.264.264 0 0 1-.197-.255v-.39a.302.302 0 0 0-.302-.3h-.564a.302.302 0 0 0-.302.3v.39c0 .12-.08.225-.197.255a3.108 3.108 0 0 0-.806.335.264.264 0 0 1-.32-.041l-.276-.276a.301.301 0 0 0-.426 0l-.4.4a.301.301 0 0 0 0 .425l.276.276a.264.264 0 0 1 .04.321 3.103 3.103 0 0 0-.334.806.264.264 0 0 1-.255.197h-.39a.302.302 0 0 0-.3.302v.564c0 .166.134.302.3.302h.39c.12 0 .225.08.255.197.073.283.186.554.334.806a.264.264 0 0 1-.04.32l-.276.276a.301.301 0 0 0 0 .426l.4.4c.115.116.306.12.425 0l.276-.276a.265.265 0 0 1 .321-.04Z" fill="#A7A7A7"/><path d="M9 11c-1.654 0-3-1.346-3-3s1.346-3 3-3 3 1.346 3 3-1.346 3-3 3Zm0-5.192A2.195 2.195 0 0 0 6.808 8c0 1.209.983 2.192 2.192 2.192A2.195 2.195 0 0 0 11.192 8 2.195 2.195 0 0 0 9 5.808ZM17.5 20a2.503 2.503 0 0 1-2.5-2.5c0-1.378 1.122-2.5 2.5-2.5s2.5 1.122 2.5 2.5-1.122 2.5-2.5 2.5Zm0-4.327c-1.007 0-1.827.82-1.827 1.827 0 1.007.82 1.827 1.827 1.827 1.007 0 1.827-.82 1.827-1.827 0-1.007-.82-1.827-1.827-1.827Z" fill="#A7A7A7"/></svg>