<svg width="24" height="24" fill="none" xmlns="http://www.w3.org/2000/svg"><g clip-path="url(#a)" fill="#A7A7A7"><path d="M7.583 4.404a1.6 1.6 0 1 0 0-3.2 1.6 1.6 0 0 0 0 3.2Zm0-2.4a.8.8 0 1 1 0 1.6.8.8 0 0 1 0-1.6ZM7.583 20.399a1.2 1.2 0 1 0 0 2.4 1.2 1.2 0 0 0 0-2.4Zm0 1.6a.4.4 0 1 1 0-.8.4.4 0 0 1 0 .8Z"/><path d="M9.183 5.203h-.165a2.8 2.8 0 1 0-2.869 0h-.165a2.002 2.002 0 0 0-2 2V12.8c0 .221.18.4.4.4h.425l.352 5.648a.8.8 0 0 0 .8.75h.3a2.4 2.4 0 1 0 2.648 0h.3a.8.8 0 0 0 .8-.75l.35-5.648h.424a.4.4 0 0 0 .4-.4V7.203a2.002 2.002 0 0 0-2-2ZM5.584 2.804a2 2 0 1 1 3.999 0 2 2 0 0 1-3.999 0Zm2 20.394a1.6 1.6 0 1 1 0-3.199 1.6 1.6 0 0 1 0 3.2ZM9.206 19.2v-.4.4Zm0-.4H5.96l-.35-5.598h3.948l-.35 5.598Zm1.176-6.398H4.784V7.203a1.2 1.2 0 0 1 1.2-1.2h3.199a1.2 1.2 0 0 1 1.2 1.2V12.4ZM16.38 4.404a1.6 1.6 0 1 0 0-3.2 1.6 1.6 0 0 0 0 3.2Zm0-2.4a.8.8 0 1 1 0 1.6.8.8 0 0 1 0-1.6ZM16.38 20.399a1.2 1.2 0 1 0 0 2.4 1.2 1.2 0 0 0 0-2.4Zm0 1.6a.4.4 0 1 1 0-.8.4.4 0 0 1 0 .8Z"/><path d="M17.98 5.203h-.165a2.8 2.8 0 1 0-2.869 0h-.165a2.002 2.002 0 0 0-2 2V12.8c0 .221.18.4.4.4h.425l.353 5.648a.8.8 0 0 0 .8.75h.3a2.4 2.4 0 1 0 2.647 0h.3a.8.8 0 0 0 .8-.75l.35-5.648h.424a.4.4 0 0 0 .4-.4V7.203a2.002 2.002 0 0 0-2-2Zm-3.599-2.399a2 2 0 1 1 3.999 0 2 2 0 0 1-3.999 0Zm2 20.394a1.6 1.6 0 1 1 0-3.2 1.6 1.6 0 0 1 0 3.2Zm1.624-3.999v-.4.4Zm0-.4h-3.248l-.35-5.598h3.948l-.35 5.598Zm1.175-6.398h-5.598V7.203a1.2 1.2 0 0 1 1.2-1.2h3.198a1.2 1.2 0 0 1 1.2 1.2V12.4Z"/></g><defs><clipPath id="a"><path fill="#fff" d="M0 0h24v24H0z"/></clipPath></defs></svg>