<svg width="24" height="24" fill="none" xmlns="http://www.w3.org/2000/svg"><path d="M1 9.563c-.643.93-1 1.958-1 3.037v3.2c0 4.19 5.383 7.6 12 7.6s12-3.41 12-7.6v-3.2c0-1.55-.737-2.994-2-4.197V9.54c.767.92 1.2 1.96 1.2 3.061v3.2c0 3.75-5.024 6.8-11.2 6.8-4.908 0-9.09-1.927-10.599-4.6L1 17.083A4.245 4.245 0 0 1 .8 15.8v-3.2c0-.438.069-.867.2-1.283V9.563Z" fill="#A7A7A7"/><path d="M3 6c-.774.359-2 1-2 2.918v2.987C1 15.817 5.71 19 11.5 19S22 15.817 22 11.905V8.918c0-1.281-.31-1.7-1.147-2.559 0-.13-.282.791 0 1.141.366.454.447.605.447 1.418v2.987c0 3.5-4.396 6.348-9.8 6.348-4.295 0-7.953-1.799-9.274-4.294l-.351-.856a4.207 4.207 0 0 1-.175-1.198V8.918C1.7 7.74 2.5 7 3 7V6Z" fill="#A7A7A7"/><path d="M12.13 0C7.096 0 3 2.594 3 5.783v2.434C3 11.406 7.096 14 12.13 14c5.035 0 9.13-2.594 9.13-5.783V5.783C21.26 2.594 17.166 0 12.13 0Zm8.522 8.217c0 2.853-3.823 5.174-8.522 5.174S3.61 11.071 3.61 8.217V5.783C3.609 2.93 7.43.609 12.13.609c4.7 0 8.522 2.32 8.522 5.174v2.434Z" fill="#A7A7A7"/><path d="M12.13 2.615c-3.242 0-5.782 1.391-5.782 3.168 0 1.776 2.54 3.167 5.782 3.167 3.243 0 5.783-1.391 5.783-3.167 0-1.777-2.54-3.168-5.783-3.168Zm0 5.727c-1.992 0-3.76-.593-4.62-1.433.884-.875 2.653-1.43 4.62-1.43s3.737.555 4.62 1.43c-.86.84-2.628 1.433-4.62 1.433Zm4.993-1.914C16.108 5.473 14.21 4.87 12.13 4.87c-2.08 0-3.977.603-4.993 1.558a1.34 1.34 0 0 1-.18-.645c0-1.387 2.369-2.56 5.173-2.56 2.805 0 5.174 1.173 5.174 2.56a1.34 1.34 0 0 1-.18.645Z" fill="#A7A7A7"/></svg>