<svg width="24" height="24" fill="none" xmlns="http://www.w3.org/2000/svg"><g clip-path="url(#a)" fill="#A7A7A7"><path d="M3.6 22.6A1.4 1.4 0 0 0 5 24h14a1.4 1.4 0 0 0 .2-2.786v-2.028a1.4 1.4 0 0 0 0-2.772V9.586a1.4 1.4 0 0 0 0-2.772V4.786A1.4 1.4 0 0 0 19 2h-8.6v-.8A1.2 1.2 0 0 0 9.2 0H6.8a1.2 1.2 0 0 0-1.2 1.2V2H5a1.4 1.4 0 0 0-.2 2.786v2.028a1.4 1.4 0 0 0 0 2.772v6.828a1.4 1.4 0 0 0 0 2.772v2.028A1.4 1.4 0 0 0 3.6 22.6ZM6.4 1.2c0-.22.18-.4.4-.4h2.4c.221 0 .4.18.4.4V2H6.4v-.8ZM5 22h.2a.4.4 0 0 0 .4-.4v-2.4h1.2a.4.4 0 0 0 0-.8H5a.6.6 0 1 1 0-1.2h3.8a.4.4 0 0 0 0-.8H5.6V9.6h3.2a.4.4 0 0 0 0-.8H5a.6.6 0 0 1 0-1.2h10.2a.4.4 0 0 0 0-.8H5.6v-2h9.2a.4.4 0 0 0 0-.8H5a.6.6 0 0 1 0-1.2h14A.6.6 0 1 1 19 4h-.2a.4.4 0 0 0-.4.4v2.4h-1.2a.4.4 0 0 0 0 .8H19a.6.6 0 1 1 0 1.2h-3.8a.4.4 0 0 0 0 .8h3.2v6.8h-3.2a.4.4 0 0 0 0 .8H19a.6.6 0 1 1 0 1.2H8.8a.4.4 0 0 0 0 .8h9.6v2H9.2a.4.4 0 0 0 0 .8H19a.6.6 0 1 1 0 1.2H5A.6.6 0 1 1 5 22Z"/><path d="M11.673 16.782A2.8 2.8 0 0 0 14.8 14c0-2.009-1.537-3.77-2.197-4.525a.8.8 0 0 0-1.203-.003l-.03.035c-.647.74-1.993 2.28-2.154 4.134a2.88 2.88 0 0 0 2.457 3.14Zm.299-6.748.032-.029C12.6 10.69 14 12.292 14 14a2 2 0 0 1-2.236 1.986 2.074 2.074 0 0 1-1.751-2.276c.138-1.594 1.368-3 1.959-3.676Z"/></g><defs><clipPath id="a"><path fill="#fff" d="M0 0h24v24H0z"/></clipPath></defs></svg>