<svg width="24" height="24" fill="none" xmlns="http://www.w3.org/2000/svg"><path d="m21.828 7.21-1.25-1.25a.586.586 0 0 0-.414-.17h-1.64v-.665a.586.586 0 0 0-.587-.586h-1.914v-.781A1.76 1.76 0 0 0 14.266 2H9.734a1.76 1.76 0 0 0-1.757 1.758v.781H6.062a.586.586 0 0 0-.585.586v.664H3.836a.586.586 0 0 0-.414.172l-1.25 1.25A.586.586 0 0 0 2 7.625v12.54c0 .155.062.303.172.413l1.25 1.25c.11.11.259.172.414.172h16.328a.586.586 0 0 0 .414-.172l1.25-1.25a.586.586 0 0 0 .172-.414V7.625a.586.586 0 0 0-.172-.414Zm-4.476-1.5v1.33h-1.329V5.71h1.329ZM9.148 3.759c0-.323.263-.586.586-.586h4.532c.323 0 .586.263.586.586v2.031H9.148V3.758Zm-2.5 1.953h1.329v1.328H6.648V5.711Zm14.18 14.21-.907.907H4.08l-.907-.907V7.868l.907-.907h1.398v.664c0 .324.262.586.585.586h2.5a.586.586 0 0 0 .586-.586v-.664h5.704v.664c0 .324.262.586.585.586h2.5a.586.586 0 0 0 .586-.586v-.664h1.398l.907.907V19.92Z" fill="#A7A7A7"/><path d="M18.895 13.21a.586.586 0 0 0 .525-.846c-1.183-2.38-4.495-2.53-5.905-.325h-7.14a1.838 1.838 0 0 0-1.836 1.836c0 1.012.824 1.836 1.836 1.836h7.14c1.41 2.204 4.721 2.057 5.905-.325a.586.586 0 0 0-.525-.847h-1.29l-.498-.664.498-.664h1.29Zm-2.051-.937-.938 1.25a.586.586 0 0 0 0 .704l.938 1.25c.11.147.284.234.468.234h.327a2.229 2.229 0 0 1-3.259-.847.586.586 0 0 0-.524-.325H6.375a.665.665 0 0 1 0-1.328h7.48a.586.586 0 0 0 .525-.325 2.23 2.23 0 0 1 3.259-.847h-.326a.586.586 0 0 0-.47.234Z" fill="#A7A7A7"/></svg>