<svg width="10" height="17" viewBox="0 0 10 17" fill="none" xmlns="http://www.w3.org/2000/svg">
<path fill-rule="evenodd" clip-rule="evenodd" d="M1.29358 16.207C1.1061 16.0194 1.00078 15.7651 1.00078 15.5C1.00078 15.2348 1.1061 14.9805 1.29358 14.793L7.5869 8.49997L1.29358 2.20697C1.19807 2.11472 1.12188 2.00438 1.06947 1.88237C1.01706 1.76037 0.989472 1.62915 0.988318 1.49637C0.987164 1.36359 1.01247 1.23191 1.06275 1.10902C1.11303 0.98612 1.18729 0.874467 1.28119 0.780575C1.37509 0.686682 1.48674 0.612428 1.60965 0.562147C1.73255 0.511866 1.86423 0.486565 1.99702 0.487719C2.12981 0.488872 2.26103 0.51646 2.38304 0.568869C2.50505 0.621278 2.6154 0.697458 2.70765 0.792969L9.708 7.79297C9.89548 7.9805 10.0008 8.2348 10.0008 8.49997C10.0008 8.76513 9.89548 9.01944 9.708 9.20697L2.70765 16.207C2.52012 16.3944 2.2658 16.4998 2.00062 16.4998C1.73544 16.4998 1.48112 16.3944 1.29358 16.207V16.207Z" fill="#000"/>
</svg>
