<svg width="15" height="14" fill="none" xmlns="http://www.w3.org/2000/svg"><path fill-rule="evenodd" clip-rule="evenodd" d="M1.333.333a.667.667 0 1 0 0 1.334h.314a.667.667 0 0 1 .644.491l.277 1.018L4 8.422v1.245c0 .463.156.888.42 1.227a1.666 1.666 0 1 0 2.88.773h2.066a1.666 1.666 0 1 0 3.181-.286.668.668 0 0 0-.547-1.047H6a.667.667 0 0 1-.666-.667V9h6.824a1.333 1.333 0 0 0 1.287-.982l1.09-4a1.335 1.335 0 0 0-1.288-1.685H3.72l-.144-.526A2 2 0 0 0 1.647.333h-.314ZM11 11.667a.333.333 0 1 0 0 .667.333.333 0 0 0 0-.667Zm1.157-4H5.176l-1.092-4h9.163l-1.09 4Zm-6.49 4a.333.333 0 1 0 0 .667.333.333 0 0 0 0-.667Z" fill="#FAA821"/></svg>