<svg width="56" height="56" viewBox="0 0 56 56" fill="none" xmlns="http://www.w3.org/2000/svg">
<rect width="56" height="55.9988" rx="27.9994" fill="#27AE60" fill-opacity="0.1"/>
<path fill-rule="evenodd" clip-rule="evenodd" d="M26.973 20.944C26.773 21.957 26.437 23.477 25.207 24.707C25.095 24.819 24.972 24.937 24.842 25.063C23.7 26.164 22 27.804 22 30.5C22 31.963 22.63 33.35 23.601 34.375C24.578 35.406 25.829 36 27 36H32C32.352 36 32.646 35.91 32.82 35.793C32.965 35.697 33 35.613 33 35.5C33 35.388 32.965 35.303 32.82 35.207C32.646 35.091 32.352 35 32 35H31C30.7348 35 30.4804 34.8946 30.2929 34.7071C30.1054 34.5196 30 34.2652 30 34C30 33.7348 30.1054 33.4804 30.2929 33.2929C30.4804 33.1054 30.7348 33 31 33H32.5C32.852 33 33.146 32.91 33.32 32.793C33.465 32.697 33.5 32.613 33.5 32.5C33.5 32.388 33.465 32.303 33.32 32.207C33.146 32.091 32.852 32 32.5 32H31.5C31.2348 32 30.9804 31.8946 30.7929 31.7071C30.6054 31.5196 30.5 31.2652 30.5 31C30.5 30.7348 30.6054 30.4804 30.7929 30.2929C30.9804 30.1054 31.2348 30 31.5 30H33C33.352 30 33.646 29.91 33.82 29.793C33.965 29.697 34 29.613 34 29.5C34 29.388 33.965 29.303 33.82 29.207C33.646 29.091 33.352 29 33 29H32C31.7348 29 31.4804 28.8946 31.2929 28.7071C31.1054 28.5196 31 28.2652 31 28C31 27.7348 31.1054 27.4804 31.2929 27.2929C31.4804 27.1054 31.7348 27 32 27H33C33.352 27 33.646 26.91 33.82 26.793C33.965 26.697 34 26.613 34 26.5C34 26.388 33.965 26.303 33.82 26.207C33.646 26.091 33.352 26 33 26H28.5C28.341 26 28.1843 25.9622 28.0429 25.8895C27.9015 25.8169 27.7794 25.7116 27.6868 25.5823C27.5942 25.4531 27.5338 25.3036 27.5105 25.1464C27.4872 24.9891 27.5018 24.8285 27.553 24.678V24.677L27.557 24.667L27.57 24.627L27.623 24.457C27.667 24.307 27.728 24.09 27.791 23.829C27.9431 23.2173 28.0362 22.5925 28.069 21.963C28.095 21.278 28.004 20.753 27.821 20.433C27.713 20.243 27.55 20.072 27.171 20.018C27.123 20.182 27.079 20.406 27.015 20.734L26.973 20.944ZM29.803 24C29.925 23.442 30.041 22.747 30.068 22.037C30.098 21.222 30.018 20.247 29.558 19.442C29.048 18.546 28.146 18 26.9 18C26.518 18 26.16 18.126 25.87 18.38C25.607 18.61 25.457 18.896 25.364 19.126C25.216 19.493 25.124 19.969 25.047 20.371L25.011 20.556C24.817 21.543 24.563 22.523 23.793 23.293C23.705 23.381 23.598 23.483 23.476 23.598C22.353 24.662 20 26.893 20 30.5C20 32.537 20.87 34.4 22.149 35.75C23.422 37.094 25.171 38 27 38H32C32.648 38 33.354 37.84 33.93 37.457C34.535 37.053 35 36.387 35 35.5C35 35.031 34.87 34.625 34.66 34.285C35.149 33.875 35.5 33.272 35.5 32.5C35.5 32.031 35.37 31.624 35.16 31.286C35.649 30.876 36 30.272 36 29.5C36 28.891 35.782 28.387 35.449 28C35.781 27.613 36 27.109 36 26.5C36 25.612 35.535 24.947 34.93 24.543C34.354 24.159 33.648 24 33 24H29.803Z" fill="#27AE60"/>
</svg>
