<svg width="16" height="16" viewBox="0 0 16 16" fill="none" xmlns="http://www.w3.org/2000/svg">
<path fill-rule="evenodd" clip-rule="evenodd" d="M5.52891 13.1382C5.40393 13.0131 5.33371 12.8436 5.33371 12.6668C5.33371 12.49 5.40393 12.3205 5.52891 12.1955L9.72446 7.99992L5.52891 3.80438C5.46524 3.74288 5.41445 3.66931 5.3795 3.58797C5.34456 3.50663 5.32617 3.41914 5.3254 3.33062C5.32463 3.2421 5.3415 3.15431 5.37502 3.07237C5.40855 2.99044 5.45805 2.916 5.52065 2.8534C5.58325 2.7908 5.65769 2.7413 5.73962 2.70777C5.82156 2.67425 5.90935 2.65738 5.99787 2.65815C6.08639 2.65892 6.17388 2.67731 6.25522 2.71226C6.33656 2.7472 6.41013 2.79799 6.47163 2.86166L11.1385 7.52856C11.2635 7.65359 11.3337 7.82313 11.3337 7.99992C11.3337 8.1767 11.2635 8.34625 11.1385 8.47127L6.47163 13.1382C6.3466 13.2632 6.17706 13.3334 6.00027 13.3334C5.82349 13.3334 5.65394 13.2632 5.52891 13.1382V13.1382Z" fill="#FAA821"/>
</svg>
