<svg width="22" height="22" fill="none" xmlns="http://www.w3.org/2000/svg"><path fill-rule="evenodd" clip-rule="evenodd" d="M2.724 7.452 6.29 6.194A17.999 17.999 0 0 0 4.403 9.37L2.724 7.452Zm-2.477.207 3.303 3.773-.478 1.196a1 1 0 0 0 .22 1.078l.315.314C1.903 15.94.963 17.95.051 20.683a1 1 0 0 0 1.265 1.265c2.734-.912 4.743-1.852 6.663-3.556l.314.314a1 1 0 0 0 1.078.221l1.196-.478 3.774 3.303a1 1 0 0 0 1.602-.42l2.986-8.46A13 13 0 0 0 22 4.48V1a1 1 0 0 0-1-1h-3.48a13 13 0 0 0-8.392 3.07L.668 6.057a1 1 0 0 0-.42 1.6v.002Zm2.438 11.655c.628-1.516 1.332-2.722 2.34-3.877l1.537 1.538c-1.155 1.007-2.36 1.711-3.877 2.34Zm6.556-2.488-.534-.534-3-3-.534-.534.71-1.774a15.999 15.999 0 0 1 2.708-4.47l.576-.673A11 11 0 0 1 17.52 2H20v2.48a11 11 0 0 1-3.84 8.352l-.674.576a16.004 16.004 0 0 1-4.47 2.708l-1.775.71Zm5.307 2.45-1.918-1.679a17.992 17.992 0 0 0 3.176-1.887l-1.258 3.565ZM14 7a1 1 0 1 1 2 0 1 1 0 0 1-2 0Zm1-3a3 3 0 1 0 0 6 3 3 0 0 0 0-6Z" fill="#FAA821"/></svg>