<svg width="24" height="24" fill="none" xmlns="http://www.w3.org/2000/svg"><g clip-path="url(#a)" fill="#000"><path d="m23.356 17.182-5.368-5.369a6.246 6.246 0 0 0-1.293-6.929 6.229 6.229 0 0 0-8.816 0 6.243 6.243 0 0 0 0 8.817 6.234 6.234 0 0 0 7.021 1.255l5.34 5.341a2.201 2.201 0 0 0 3.116 0 2.206 2.206 0 0 0 0-3.115ZM8.874 12.707a4.835 4.835 0 0 1 0-6.828 4.823 4.823 0 0 1 6.826 0 4.835 4.835 0 0 1 0 6.828 4.823 4.823 0 0 1-6.826 0Zm13.487 6.596a.796.796 0 0 1-1.126 0L16.133 14.2c.42-.33.793-.71 1.118-1.136l5.11 5.112c.31.31.31.816 0 1.127ZM.703 11.482h2.999a.703.703 0 0 0 0-1.406H.703a.703.703 0 0 0 0 1.406ZM.703 14.483h4.123a.703.703 0 1 0 0-1.407H.703a.703.703 0 0 0 0 1.407ZM.703 17.483h7.121a.703.703 0 0 0 0-1.407H.704a.703.703 0 1 0 0 1.407ZM16.07 19.076H.703a.703.703 0 0 0 0 1.407H16.07a.703.703 0 1 0 0-1.407Z"/></g><defs><clipPath id="a"><path fill="#fff" d="M0 0h24v24H0z"/></clipPath></defs></svg>