<svg width="20" height="20" fill="none" xmlns="http://www.w3.org/2000/svg"><path fill-rule="evenodd" clip-rule="evenodd" d="M10 0C4.477 0 0 4.477 0 10s4.477 10 10 10 10-4.477 10-10S15.523 0 10 0Zm.814 13.157c-.098.104-.29.125-.29.125h-.638s-1.407.083-2.646-1.183c-1.351-1.381-2.544-4.122-2.544-4.122s-.07-.18.005-.266c.084-.098.313-.104.313-.104l1.524-.01s.144.023.247.098a.469.469 0 0 1 .132.175s.246.612.572 1.165c.637 1.08.934 1.316 1.15 1.2.315-.168.22-1.526.22-1.526s.006-.493-.158-.713c-.128-.17-.367-.22-.473-.233-.086-.012.054-.207.237-.295.274-.131.759-.139 1.33-.133.447.004.575.031.75.073.404.096.391.403.364 1.065-.008.198-.018.428-.018.694l-.003.189c-.01.34-.02.728.207.873.117.073.403.01 1.117-1.18.338-.564.592-1.227.592-1.227s.056-.119.142-.17c.088-.051.207-.035.207-.035l1.604-.01s.482-.057.56.157c.082.224-.18.747-.836 1.605-.621.813-.924 1.113-.896 1.377.02.194.217.369.594.713.788.717.999 1.095 1.05 1.186a.588.588 0 0 0 .01.017c.352.575-.393.62-.393.62l-1.424.02s-.306.059-.709-.213c-.21-.142-.417-.374-.613-.595-.3-.337-.577-.65-.814-.575-.397.123-.385.963-.385.963s.004.18-.087.275Z" fill="#FAA821"/></svg>