<svg width="18" height="18" fill="none" xmlns="http://www.w3.org/2000/svg"><path d="M17.182 11.455a.818.818 0 0 0-.818.818v2.934l-5.149-5.149a.818.818 0 0 0-1.157 1.157l5.148 5.149h-2.933a.818.818 0 0 0 0 1.636h4.909a.818.818 0 0 0 .818-.818v-4.91a.818.818 0 0 0-.818-.817ZM.818 6.545a.818.818 0 0 0 .818-.818V2.794l5.149 5.148a.816.816 0 0 0 1.157 0 .818.818 0 0 0 0-1.157L2.794 1.637h2.933a.818.818 0 1 0 0-1.637H.818A.818.818 0 0 0 0 .82v4.908c0 .452.366.818.818.818ZM6.785 10.058l-5.148 5.149v-2.934a.818.818 0 1 0-1.637 0v4.909c0 .452.367.818.819.818h4.908a.818.818 0 0 0 0-1.636H2.794l5.148-5.149a.818.818 0 0 0-1.157-1.157ZM10.636 8.182c.21 0 .42-.08.579-.24l5.148-5.149v2.934a.818.818 0 1 0 1.637 0V.818A.818.818 0 0 0 17.18 0h-4.908a.818.818 0 0 0 0 1.636h2.933l-5.148 5.149a.818.818 0 0 0 .578 1.397Z" fill="#A7A7A7"/></svg>