<svg width="24" height="24" fill="none" xmlns="http://www.w3.org/2000/svg"><g clip-path="url(#a)" fill="#A7A7A7"><path d="M8.038 24a7.996 7.996 0 0 0 6.84-3.873l6.523-5.737c.402-.02.795-.129 1.15-.318a2.85 2.85 0 0 0 1.368-1.677v-.013c.08-.253.12-.517.12-.783a2.79 2.79 0 0 0-1.145-2.251l-1.717-4.67a3.997 3.997 0 0 0-7.636-2.2L5.62 8.377A8 8 0 0 0 8.037 24ZM17.238 8c.836 0 1.65-.264 2.327-.753l.64 1.752a2.789 2.789 0 0 0-1.187 4.297l-2.983 2.624a8.008 8.008 0 0 0-6.183-7.705l3.673-2.735a4.003 4.003 0 0 0 3.714 2.52Zm-1.277 9.05 3.63-3.192c.23.17.485.303.756.394l-4.663 4.103c.129-.426.222-.862.277-1.304Zm7.194-4.885c-.152.517-.507.951-.983 1.204a2.005 2.005 0 0 1-2.933-1.769 2.005 2.005 0 0 1 1.574-1.953 1.997 1.997 0 0 1 2.342 2.519Zm-1.287-3.29a2.818 2.818 0 0 0-.877-.061l-.785-2.142a4.01 4.01 0 0 0 .56-.79l1.102 2.993ZM17.238.798a3.2 3.2 0 1 1 0 6.4 3.2 3.2 0 0 1 0-6.4Zm-3.984 2.89a3.932 3.932 0 0 0-.016.31c.002.219.021.437.058.652L8.753 8.035A7.97 7.97 0 0 0 8.038 8a7.97 7.97 0 0 0-.616.031l5.832-4.342ZM5.93 9.115A7.2 7.2 0 1 1 .838 16 7.173 7.173 0 0 1 5.93 9.115Z"/><path d="M8.038 21.6a5.6 5.6 0 1 0 0-11.2 5.6 5.6 0 0 0 0 11.2Zm0-10.401a4.8 4.8 0 1 1 0 9.6 4.8 4.8 0 0 1 0-9.6Z"/><path d="M8.038 18a2 2 0 1 0 0-4 2 2 0 0 0 0 4Zm0-3.2a1.2 1.2 0 1 1 0 2.4 1.2 1.2 0 0 1 0-2.4ZM17.238 6.399a2.4 2.4 0 1 0 0-4.8 2.4 2.4 0 0 0 0 4.8Zm0-4a1.6 1.6 0 1 1 0 3.2 1.6 1.6 0 0 1 0-3.2ZM21.238 10.399a1.195 1.195 0 0 0-.734 2.143l.016.013c.034.024.067.047.103.069l.016.009c.182.108.389.165.6.166a1.2 1.2 0 1 0 0-2.4Zm0 1.6a.4.4 0 1 1 .001-.8.4.4 0 0 1 0 .8Z"/><path d="M17.638 3.999a.4.4 0 1 1-.8 0 .4.4 0 0 1 .8 0ZM8.438 12.8a.4.4 0 1 1-.8 0 .4.4 0 0 1 .8 0ZM8.438 19.2a.4.4 0 1 1-.8 0 .4.4 0 0 1 .8 0ZM11.638 16a.4.4 0 1 1-.8 0 .4.4 0 0 1 .8 0ZM5.238 16a.4.4 0 1 1-.8 0 .4.4 0 0 1 .8 0ZM10.583 14.02a.4.4 0 1 0-.565-.567.4.4 0 0 0 .565.566ZM6.057 18.545a.4.4 0 1 0-.565-.566.4.4 0 0 0 .565.566ZM10.018 17.98a.4.4 0 1 0 .565.565.4.4 0 0 0-.565-.565ZM6.057 14.02a.4.4 0 1 0-.565-.567.4.4 0 0 0 .565.566Z"/></g><defs><clipPath id="a"><path fill="#fff" d="M0 0h24v24H0z"/></clipPath></defs></svg>