<svg width="24" height="24" fill="none" xmlns="http://www.w3.org/2000/svg"><g clip-path="url(#a)" fill="#A7A7A7"><path d="M5.99 18.51a.502.502 0 0 1-.354-.146A8.945 8.945 0 0 1 3 12c0-2.404.937-4.664 2.637-6.363a.5.5 0 0 1 .707.707A7.946 7.946 0 0 0 4 12c0 2.137.833 4.145 2.344 5.656a.5.5 0 0 1-.354.854Z"/><path d="M3.87 20.63a.502.502 0 0 1-.354-.146A11.924 11.924 0 0 1 0 12c0-3.203 1.249-6.216 3.517-8.483a.5.5 0 0 1 .707.707A10.924 10.924 0 0 0 1 12c0 2.936 1.145 5.698 3.224 7.776a.5.5 0 0 1-.354.854ZM20.13 20.63a.5.5 0 0 1-.354-.853A10.928 10.928 0 0 0 23 12c0-2.936-1.145-5.698-3.224-7.776a.5.5 0 0 1 .707-.707A11.917 11.917 0 0 1 24 12c0 3.203-1.249 6.216-3.517 8.483a.495.495 0 0 1-.353.147Z"/><path d="M18.01 18.51a.5.5 0 0 1-.354-.853A7.95 7.95 0 0 0 20 12a7.946 7.946 0 0 0-2.344-5.656.5.5 0 0 1 .707-.707A8.938 8.938 0 0 1 21 12a8.938 8.938 0 0 1-2.637 6.363.495.495 0 0 1-.353.147ZM9.573 20a.501.501 0 0 1-.482-.633L10.844 13H7.5a.5.5 0 0 1-.4-.799l5.983-8a.5.5 0 0 1 .894.38L13.089 10h3.41a.501.501 0 0 1 .396.805l-6.926 9a.5.5 0 0 1-.396.195Zm-1.074-8h3a.502.502 0 0 1 .483.633l-1.25 4.542L15.484 11H12.5a.499.499 0 0 1-.494-.581l.653-3.982L8.499 12Z"/></g><defs><clipPath id="a"><path fill="#fff" d="M0 0h24v24H0z"/></clipPath></defs></svg>