<svg width="15" height="12" fill="none" xmlns="http://www.w3.org/2000/svg"><path fill-rule="evenodd" clip-rule="evenodd" d="M1.196 1.445A1.851 1.851 0 0 1 2.7.667h9.6c.625 0 1.17.313 1.505.778.229.32.363.712.363 1.133v6.845c0 1.032-.814 1.91-1.867 1.91H2.7c-1.054 0-1.868-.878-1.868-1.91V2.578c0-.421.134-.814.363-1.133ZM2.79 2l4.218 4.644a.667.667 0 0 0 .987 0L12.212 2H2.79ZM12.834 3.3 8.981 7.54a2 2 0 0 1-2.96 0L2.166 3.3v6.124c0 .342.261.578.533.578h9.6c.273 0 .534-.236.534-.578V3.299Z" fill="#FAA821"/></svg>