<svg width="24" height="24" fill="none" xmlns="http://www.w3.org/2000/svg"><path d="M10.998 7.353a3.322 3.322 0 1 0-2.511 3.971l.008-.002a3.3 3.3 0 0 0 2.512-3.932l-.009-.037Zm-3.257 3.122a2.387 2.387 0 0 1-.526-4.718c.174-.04.352-.06.53-.06a2.387 2.387 0 0 1 .526 4.7c-.168.038-.34.058-.512.06l-.018.018Z" fill="#A7A7A7"/><path d="M23.017 3.026a.465.465 0 0 0-.396.19L21.1 5.279a1.098 1.098 0 0 1-1.503.228 1.08 1.08 0 0 1-.228-1.508l1.433-1.945a.465.465 0 0 0-.303-.749 4.085 4.085 0 0 0-4.61 4.872l-.55.55-.344-1.518a.465.465 0 0 0-.558-.349l-1.327.303a6.02 6.02 0 0 0-.833-1.173l.726-1.15a.466.466 0 0 0-.144-.641l-2-1.261a.465.465 0 0 0-.643.144L9.49 2.235a6.03 6.03 0 0 0-1.396-.247L7.796.662A.465.465 0 0 0 7.24.313L4.911.84a.465.465 0 0 0-.363.554L4.86 2.7a6.01 6.01 0 0 0-1.172.833l-1.15-.726a.466.466 0 0 0-.642.144L.636 4.952a.465.465 0 0 0 .144.642l1.149.726c-.137.454-.22.923-.247 1.396l-1.321.335a.465.465 0 0 0-.349.558l.521 2.327c.058.25.308.407.558.349l1.327-.298c.23.423.51.816.832 1.173l-.725 1.15a.465.465 0 0 0 .162.623l2.001 1.26c.074.047.16.07.247.07h.08a.464.464 0 0 0 .288-.204l.725-1.15c.454.137.923.22 1.396.247l.089.39-1.08 1.08a4.09 4.09 0 0 0-4.341 6.09.465.465 0 0 0 .772.038l1.596-2.163c.36-.47 1.026-.57 1.508-.228.474.344.586 1.003.251 1.484l-1.521 2.066a.465.465 0 0 0 .316.726 4.058 4.058 0 0 0 3.532-1.145 4.104 4.104 0 0 0 1.112-3.722l9.408-9.404a4.09 4.09 0 0 0 4.327-6.119.464.464 0 0 0-.376-.223ZM5.996 12.904a.466.466 0 0 0-.554.191l-.67 1.066-1.214-.759.67-1.065a.465.465 0 0 0-.07-.582 5.119 5.119 0 0 1-1.07-1.508.465.465 0 0 0-.526-.26l-1.224.28-.316-1.397 1.223-.28a.465.465 0 0 0 .363-.464c-.006-.623.101-1.241.317-1.824a.466.466 0 0 0-.191-.554l-1.06-.675.762-1.214 1.066.67a.465.465 0 0 0 .581-.065 5.116 5.116 0 0 1 1.508-1.07.465.465 0 0 0 .256-.526l-.28-1.224 1.397-.317.279 1.224a.465.465 0 0 0 .465.363 5.2 5.2 0 0 1 1.824.317.466.466 0 0 0 .554-.191l.67-1.066 1.214.763-.67 1.066a.466.466 0 0 0 .07.581c.452.434.821.946 1.089 1.513a.465.465 0 0 0 .526.256l1.224-.28.372 1.638-6.263 6.245-.047-.172a.465.465 0 0 0-.465-.363 5.132 5.132 0 0 1-1.81-.317Zm16.132-5.309a3.137 3.137 0 0 1-3.085.814.464.464 0 0 0-.465.121l-9.772 9.772c-.124.12-.17.3-.12.465a3.174 3.174 0 0 1-.81 3.085c-.51.512-1.18.833-1.899.907l.996-1.349a2.005 2.005 0 1 0-3.23-2.382l-1.12 1.521a3.16 3.16 0 0 1 3.866-3.973c.166.049.345.002.465-.121l9.772-9.795c.123-.12.17-.3.12-.465a3.168 3.168 0 0 1 .81-3.085 3.131 3.131 0 0 1 1.862-.903l-.899 1.238a2.007 2.007 0 0 0 3.23 2.382L22.9 4.398a3.15 3.15 0 0 1-.772 3.197Z" fill="#A7A7A7"/></svg>