<svg width="119" height="40" viewBox="0 0 119 40" fill="none" xmlns="http://www.w3.org/2000/svg">
<g clip-path="url(#clip0)">
<path d="M12.4116 4.69058C11.8039 5.16945 11.0355 5.39146 10.2686 5.30973C9.50165 5.22801 8.79625 4.84894 8.30133 4.25258C8.03104 4.47645 7.75798 4.69962 7.48218 4.9221C7.92209 5.46709 8.15841 6.15043 8.14996 6.85307C8.14152 7.5557 7.88883 8.23307 7.43594 8.76715C6.98305 9.30123 6.35868 9.65815 5.67161 9.77573C4.98453 9.8933 4.27831 9.76408 3.67603 9.41057C3.49399 9.70883 3.32024 10.0133 3.15062 10.322C3.749 10.6814 4.20334 11.2411 4.43446 11.9035C4.66559 12.566 4.65884 13.2892 4.4154 13.9472C4.17196 14.6052 3.70725 15.1561 3.10227 15.5041C2.4973 15.852 1.79041 15.9749 1.10481 15.8513C1.03241 16.1975 0.97036 16.5437 0.916577 16.8941C1.60193 17.0256 2.2197 17.3956 2.66206 17.9395C3.10442 18.4835 3.34325 19.1668 3.33684 19.8702C3.33044 20.5736 3.07921 21.2524 2.62703 21.788C2.17484 22.3237 1.55042 22.6822 0.862793 22.8009C0.912438 23.1534 0.972423 23.5038 1.04069 23.8438C1.72785 23.7272 2.4338 23.8582 3.03473 24.2139C3.63565 24.5697 4.0932 25.1273 4.32713 25.7892C4.56107 26.451 4.55644 27.1747 4.31408 27.8335C4.07172 28.4922 3.6071 29.0439 3.00169 29.3918C3.16441 29.7047 3.33747 30.0113 3.52088 30.3116C4.1294 29.97 4.83745 29.8544 5.52179 29.9848C6.20614 30.1153 6.82345 30.4836 7.26628 31.0256C7.70912 31.5676 7.94945 32.249 7.94543 32.9513C7.94141 33.6535 7.6933 34.3321 7.24429 34.8689C7.50286 35.1025 7.76764 35.332 8.03862 35.553C8.49332 35.0198 9.11927 34.6645 9.80725 34.5491C10.4952 34.4338 11.2016 34.5656 11.803 34.9217C12.4044 35.2778 12.8627 35.8355 13.0979 36.4975C13.3331 37.1595 13.3303 37.8838 13.09 38.544C13.41 38.6761 13.7361 38.7991 14.0685 38.9131C14.3141 38.2543 14.7817 37.7036 15.3895 37.3573C15.9972 37.0111 16.7064 36.8914 17.3928 37.0192C18.0793 37.1469 18.6993 37.5141 19.1444 38.0563C19.5894 38.5986 19.8312 39.2814 19.8273 39.9852C20.1769 39.9977 20.5265 39.9998 20.8616 39.9852C20.8698 39.2817 21.1229 38.6034 21.5767 38.0689C22.0304 37.5344 22.656 37.1776 23.3441 37.0608C24.0322 36.9441 24.7391 37.0748 25.3414 37.4301C25.9436 37.7855 26.403 38.3428 26.6391 39.0049C26.9742 38.8937 27.3058 38.7748 27.6341 38.6482C27.4007 37.9856 27.4064 37.2613 27.65 36.6024C27.8937 35.9436 28.3597 35.3924 28.9664 35.0456C29.5731 34.6988 30.2815 34.5786 30.9673 34.7061C31.6531 34.8336 32.2724 35.2007 32.7165 35.7428C32.9916 35.5343 33.2626 35.3027 33.5253 35.0712C33.0826 34.5266 32.8439 33.8423 32.851 33.1381C32.8581 32.4339 33.1106 31.7547 33.5642 31.2193C34.0178 30.6838 34.6437 30.3262 35.3324 30.2091C36.0211 30.092 36.7287 30.2228 37.3315 30.5786C37.5149 30.2824 37.6914 29.98 37.861 29.6713C37.2585 29.314 36.8001 28.7542 36.5661 28.0901C36.3321 27.4261 36.3375 26.7001 36.5813 26.0396C36.8252 25.3792 37.2919 24.8264 37.8996 24.4782C38.5073 24.1301 39.2172 24.0088 39.9047 24.1358C39.9771 23.7895 40.0392 23.4433 40.093 23.0929C39.5671 22.9909 39.0781 22.7478 38.6777 22.3892C38.2773 22.0306 37.9801 21.5697 37.8176 21.0552H35.9248C35.7084 24.1867 34.559 27.1793 32.6271 29.6409C30.6953 32.1026 28.0711 33.9186 25.0983 34.851C22.1255 35.7834 18.9428 35.7887 15.9669 34.8663C12.9911 33.9439 10.3609 32.1367 8.42097 29.6816C6.48101 27.2264 5.32171 24.2377 5.09491 21.1069C4.86812 17.9761 5.58442 14.8493 7.14998 12.1359C8.71553 9.42258 11.0573 7.24926 13.8687 5.90065C16.68 4.55203 19.8297 4.09101 22.9053 4.57795V2.71749C22.3906 2.47449 21.9555 2.08817 21.6513 1.60407C21.3471 1.11997 21.1865 0.558273 21.1884 -0.0148125C20.8389 -0.0273269 20.4893 -0.0314983 20.1542 -0.0148125C20.1455 0.688544 19.892 1.36648 19.4381 1.90063C18.9842 2.43478 18.3587 2.79122 17.6707 2.9077C16.9827 3.02419 16.276 2.89333 15.6739 2.53796C15.0719 2.1826 14.6127 1.62531 14.3767 0.963392C14.0416 1.07394 13.7127 1.19908 13.3838 1.32631C13.5871 1.91476 13.6032 2.55249 13.4301 3.15067C13.2569 3.74884 12.9031 4.27766 12.4178 4.66346L12.4116 4.69058Z" fill="white"/>
<path d="M32.0371 19.8582H29.3376V11.6801H26.4023V9.3024H34.9579V11.6801H32.0371V19.8624V19.8582ZM45.1766 19.8582H42.0737L40.3155 16.3125H38.9337V19.8582H36.2363V9.3024H41.4801C42.6095 9.3024 43.499 9.63472 44.1485 10.2994C44.4701 10.6311 44.722 11.0248 44.8891 11.4571C45.0562 11.8893 45.1349 12.3511 45.1207 12.8148C45.1553 13.4984 44.9711 14.1751 44.5954 14.7451C44.2196 15.3152 43.672 15.7484 43.0335 15.9809L45.1683 19.8582H45.1766ZM41.0788 13.939C41.4128 13.9497 41.7402 13.8436 42.0055 13.6386C42.1289 13.5393 42.2274 13.4119 42.2928 13.2669C42.3582 13.122 42.3888 12.9635 42.382 12.8043C42.3883 12.6468 42.3575 12.4899 42.292 12.3467C42.2266 12.2035 42.1284 12.078 42.0055 11.9805C41.7402 11.7755 41.4128 11.6694 41.0788 11.6801H38.944V13.9431L41.0788 13.939ZM56.7998 19.8582H53.7321L53.2129 18.3398H49.0758L48.5587 19.8582H45.4972L49.4378 9.3024H52.8282L56.7833 19.8582H56.7998ZM52.4744 15.9642L51.1402 12.0013L49.806 15.9642H52.4744ZM62.1967 20.048C60.5749 20.048 59.2248 19.5391 58.1464 18.5213C57.068 17.5035 56.5288 16.1922 56.5288 14.5876C56.5288 12.9733 57.0653 11.66 58.1382 10.6477C59.211 9.63541 60.5639 9.12859 62.1967 9.1272C64.2997 9.1272 65.8222 10.072 66.764 11.9617L64.441 13.0692C64.2554 12.6266 63.9474 12.2471 63.5536 11.9763C63.1589 11.6882 62.6839 11.5334 62.1967 11.5341C61.8056 11.5221 61.4164 11.5942 61.0551 11.7456C60.6938 11.897 60.3686 12.1242 60.1012 12.4122C59.5697 13.0105 59.2758 13.7855 59.2758 14.5887C59.2758 15.3919 59.5697 16.1668 60.1012 16.7651C60.3689 17.0528 60.6941 17.2798 61.0554 17.4312C61.4166 17.5826 61.8056 17.6549 62.1967 17.6432C62.6843 17.6442 63.1596 17.4886 63.5536 17.199C63.9471 16.9287 64.2551 16.55 64.441 16.1081L66.764 17.2156C66.3643 18.0202 65.7739 18.713 65.0451 19.2325C64.2963 19.7762 63.3468 20.048 62.1967 20.048ZM77.3902 19.8582H74.0805L71.3335 15.8954L70.6281 16.7797V19.8666H67.9266V9.3024H70.6281V13.6386L73.8447 9.3024H77.173L73.1083 14.2393L77.3923 19.8582H77.3902ZM87.1704 20.048C85.5376 20.048 84.3026 19.642 83.4656 18.83C82.6285 18.0179 82.21 16.9361 82.21 15.5846V9.3024H84.957V15.4907C84.9443 15.7759 84.9885 16.0607 85.0869 16.3283C85.1853 16.5959 85.336 16.8409 85.53 17.0488C85.9106 17.4451 86.4588 17.6432 87.1704 17.6432C87.8819 17.6432 88.4115 17.4346 88.7942 17.0488C88.9882 16.8409 89.1389 16.5959 89.2373 16.3283C89.3357 16.0607 89.3799 15.7759 89.3672 15.4907V9.3024H92.0873V15.5596C92.0873 16.9195 91.6736 18.0061 90.8462 18.8196C90.0188 19.633 88.7921 20.039 87.1662 20.0376L87.1704 20.048ZM103.719 19.8582H101.112L96.6857 13.7492V19.8582H93.9966V9.3024H96.7747L101.013 15.1111V9.3024H103.729V19.8582H103.719ZM108.303 19.8582H105.614V9.3024H108.303V19.8582ZM115.224 19.8582H112.535V11.6801H109.6V9.3024H118.155V11.6801H115.234V19.8624L115.224 19.8582Z" fill="white"/>
<path fill-rule="evenodd" clip-rule="evenodd" d="M19.4254 6.88293C19.4835 7.18076 19.6191 7.45764 19.8183 7.68524C20.0175 7.91283 20.2731 8.08295 20.5589 8.17817C20.8446 8.27265 21.1498 8.29041 21.4443 8.2297C21.7389 8.16898 22.0126 8.03189 22.2386 7.83194C22.4616 7.63114 22.6286 7.37491 22.7228 7.08879C22.817 6.80266 22.8352 6.49664 22.7755 6.20122C22.7159 5.90579 22.5805 5.63129 22.3828 5.40507C22.1852 5.17885 21.9322 5.00882 21.6491 4.91192C21.364 4.81671 21.0591 4.79838 20.7648 4.85875C20.4705 4.91913 20.197 5.0561 19.9715 5.25607C19.7452 5.45563 19.5755 5.71211 19.4795 5.99936C19.3836 6.28661 19.3649 6.59437 19.4254 6.89128V6.88293Z" fill="#FAA821"/>
<path fill-rule="evenodd" clip-rule="evenodd" d="M11.3365 10.6956C11.6305 10.9337 11.9943 11.0673 12.3713 11.0756C12.7483 11.084 13.1175 10.9666 13.4216 10.7418C13.7258 10.517 13.9478 10.1972 14.0533 9.83219C14.1588 9.46713 14.1419 9.07717 14.0051 8.72282C13.8684 8.36846 13.6195 8.06951 13.297 7.87235C12.9745 7.6752 12.5966 7.59086 12.2217 7.63242C11.8469 7.67398 11.4961 7.83912 11.2238 8.10221C10.9516 8.3653 10.773 8.71165 10.7159 9.0875C10.6713 9.38683 10.7051 9.69273 10.8139 9.97483C10.9228 10.2569 11.1029 10.5054 11.3365 10.6956Z" fill="#FAA821"/>
<path fill-rule="evenodd" clip-rule="evenodd" d="M21.6178 10.2472C21.6737 10.5259 21.8192 10.7782 22.0317 10.9652C22.2442 11.1522 22.5119 11.2633 22.7933 11.2814C23.0748 11.2994 23.3543 11.2235 23.5886 11.0652C23.8229 10.907 23.999 10.6753 24.0895 10.406C24.18 10.1367 24.18 9.84479 24.0894 9.5755C23.9989 9.30621 23.8228 9.07453 23.5884 8.91632C23.3541 8.75811 23.0746 8.6822 22.7931 8.70032C22.5117 8.71845 22.244 8.82961 22.0315 9.0166C21.8614 9.16693 21.7335 9.35984 21.6609 9.57589C21.5882 9.79194 21.5734 10.0235 21.6178 10.2472Z" fill="#FAA821"/>
<path fill-rule="evenodd" clip-rule="evenodd" d="M15.1577 11.8489C15.3328 11.9921 15.5426 12.0858 15.7654 12.1202C15.9883 12.1547 16.2162 12.1287 16.4258 12.045C16.634 11.9591 16.8167 11.8204 16.9562 11.6425C17.0957 11.4645 17.1873 11.2533 17.2222 11.0292C17.2554 10.8047 17.2294 10.5754 17.147 10.3642C17.0646 10.153 16.9286 9.96733 16.7526 9.8258C16.5767 9.68428 16.3669 9.59186 16.1443 9.55781C15.9218 9.52376 15.6943 9.54927 15.4846 9.63179C15.2758 9.71683 15.0926 9.85521 14.953 10.0333C14.8133 10.2114 14.7221 10.4231 14.6882 10.6475C14.6545 10.8717 14.6803 11.1009 14.7627 11.3119C14.8452 11.5229 14.9814 11.7081 15.1577 11.8489Z" fill="#FAA821"/>
<path fill-rule="evenodd" clip-rule="evenodd" d="M17.8262 13.2527C17.9577 13.3599 18.1152 13.43 18.2824 13.4556C18.4496 13.4813 18.6205 13.4616 18.7777 13.3987C18.9364 13.3369 19.0759 13.2339 19.1822 13.1C19.2884 12.9661 19.3576 12.8063 19.3826 12.6367C19.4076 12.4671 19.3876 12.2938 19.3246 12.1346C19.2616 11.9753 19.1578 11.8358 19.0239 11.7301C18.8922 11.6233 18.7348 11.5535 18.5676 11.5278C18.4005 11.5022 18.2296 11.5216 18.0724 11.5841C17.9137 11.6459 17.7742 11.749 17.6679 11.8828C17.5617 12.0167 17.4925 12.1766 17.4675 12.3461C17.4425 12.5157 17.4625 12.689 17.5255 12.8482C17.5885 13.0075 17.6923 13.147 17.8262 13.2527Z" fill="#FAA821"/>
<path fill-rule="evenodd" clip-rule="evenodd" d="M22.7604 13.0483C22.8036 13.2571 22.9138 13.4458 23.0741 13.5851C23.2343 13.7243 23.4356 13.8065 23.6468 13.8187C23.858 13.831 24.0674 13.7727 24.2424 13.6529C24.4174 13.5331 24.5484 13.3584 24.615 13.1559C24.6817 12.9535 24.6802 12.7345 24.611 12.5329C24.5417 12.3314 24.4085 12.1585 24.2319 12.041C24.0553 11.9235 23.8452 11.868 23.6342 11.883C23.4232 11.8981 23.2229 11.9829 23.0645 12.1243C22.9376 12.2376 22.8426 12.3828 22.7892 12.545C22.7358 12.7073 22.7259 12.8809 22.7604 13.0483Z" fill="#FAA821"/>
<path fill-rule="evenodd" clip-rule="evenodd" d="M19.4003 14.527C19.4962 14.6017 19.6098 14.6499 19.7298 14.6668C19.8498 14.6838 19.9721 14.6689 20.0847 14.6236C20.1972 14.5783 20.2961 14.5042 20.3717 14.4087C20.4472 14.3131 20.4966 14.1993 20.5152 14.0786C20.5318 13.9567 20.5168 13.8326 20.4719 13.7183C20.427 13.6039 20.3536 13.5032 20.2587 13.4258C20.1628 13.349 20.0485 13.299 19.9274 13.2809C19.8062 13.2628 19.6825 13.2772 19.5686 13.3227C19.4547 13.3681 19.3547 13.4431 19.2787 13.5399C19.2027 13.6367 19.1533 13.752 19.1355 13.8742C19.1196 13.996 19.1348 14.1199 19.1797 14.2342C19.2246 14.3484 19.2977 14.4492 19.392 14.527H19.4003Z" fill="#FAA821"/>
<path fill-rule="evenodd" clip-rule="evenodd" d="M23.1625 15.0444C23.1931 15.195 23.2722 15.3313 23.3874 15.432C23.5027 15.5327 23.6477 15.5923 23.7999 15.6015C23.9522 15.6107 24.1032 15.569 24.2295 15.4828C24.3559 15.3967 24.4505 15.2709 24.4987 15.125C24.5469 14.9791 24.5461 14.8212 24.4963 14.6759C24.4465 14.5305 24.3505 14.4058 24.2232 14.321C24.096 14.2363 23.9445 14.1962 23.7924 14.2071C23.6402 14.2179 23.4959 14.2791 23.3817 14.3811C23.2903 14.4622 23.2218 14.5664 23.1833 14.6829C23.1448 14.7994 23.1376 14.9241 23.1625 15.0444Z" fill="#FAA821"/>
<path fill-rule="evenodd" clip-rule="evenodd" d="M20.3594 15.7242C20.4361 15.7868 20.5278 15.8277 20.6252 15.8429C20.7227 15.8581 20.8224 15.8471 20.9142 15.8108C21.006 15.7746 21.0867 15.7145 21.148 15.6366C21.2093 15.5588 21.2491 15.4659 21.2634 15.3676C21.2796 15.269 21.269 15.1677 21.2325 15.0748C21.1961 14.9818 21.1352 14.9006 21.0565 14.8399C20.98 14.7765 20.888 14.7349 20.7901 14.7195C20.6923 14.7041 20.5921 14.7154 20.5001 14.7523C20.4085 14.7892 20.3282 14.8496 20.267 14.9275C20.2058 15.0054 20.1659 15.0981 20.1513 15.1964C20.1366 15.2947 20.1478 15.3951 20.1835 15.4877C20.2193 15.5803 20.2785 15.6618 20.3553 15.7242H20.3594Z" fill="#FAA821"/>
<path fill-rule="evenodd" clip-rule="evenodd" d="M16.1853 16.5647C16.2766 16.5627 16.3666 16.5425 16.4501 16.5054C16.5337 16.4683 16.6091 16.415 16.6722 16.3484C16.7353 16.2819 16.7848 16.2035 16.8179 16.1177C16.8509 16.0319 16.8669 15.9403 16.8648 15.8483C16.8628 15.7563 16.8428 15.6655 16.806 15.5813C16.7692 15.4971 16.7163 15.421 16.6503 15.3573C16.5843 15.2937 16.5066 15.2438 16.4215 15.2105C16.3364 15.1772 16.2456 15.1611 16.1543 15.1631C15.97 15.1673 15.7948 15.2451 15.6674 15.3795C15.5399 15.5138 15.4707 15.6937 15.4748 15.8796C15.4789 16.0654 15.5561 16.242 15.6893 16.3705C15.8226 16.499 16.001 16.5689 16.1853 16.5647Z" fill="#FAA821"/>
<path fill-rule="evenodd" clip-rule="evenodd" d="M14.1645 16.619C14.335 16.6183 14.5022 16.5707 14.6479 16.4814C14.7937 16.3921 14.9126 16.2645 14.9919 16.1122C15.0716 15.9622 15.1111 15.7938 15.1064 15.6237C15.1017 15.4535 15.0529 15.2876 14.965 15.1423C14.8771 14.9985 14.7534 14.8805 14.6061 14.8C14.4588 14.7195 14.2932 14.6793 14.1257 14.6835C13.9582 14.6878 13.7948 14.7362 13.6517 14.824C13.5085 14.9118 13.3908 15.036 13.3101 15.184C13.2298 15.3342 13.19 15.5031 13.1947 15.6736C13.1994 15.8442 13.2485 16.0106 13.337 16.156C13.4245 16.3016 13.5487 16.4212 13.697 16.5025C13.8452 16.5839 14.0123 16.6241 14.181 16.619H14.1645Z" fill="#FAA821"/>
<path fill-rule="evenodd" clip-rule="evenodd" d="M17.688 16.863C17.787 16.8596 17.8835 16.8303 17.968 16.778C18.0525 16.7258 18.1221 16.6523 18.1699 16.5648C18.2155 16.4773 18.2378 16.3794 18.2345 16.2806C18.2312 16.1819 18.2025 16.0857 18.1511 16.0015C18.0998 15.9174 18.0276 15.8481 17.9417 15.8006C17.8558 15.7531 17.7591 15.7289 17.6611 15.7305C17.5623 15.733 17.466 15.7617 17.3817 15.8137C17.2975 15.8657 17.2283 15.9392 17.1811 16.0267C17.1339 16.1142 17.1104 16.2127 17.113 16.3123C17.1155 16.4119 17.1441 16.509 17.1957 16.594C17.2464 16.6792 17.3188 16.7493 17.4053 16.797C17.4918 16.8446 17.5894 16.8682 17.688 16.8651V16.863Z" fill="#FAA821"/>
<path fill-rule="evenodd" clip-rule="evenodd" d="M20.9625 16.8296C21.0212 16.8772 21.0913 16.9082 21.1658 16.9195C21.2403 16.9308 21.3164 16.9221 21.3864 16.8941C21.4564 16.8661 21.5177 16.8199 21.5643 16.7602C21.6108 16.7006 21.6409 16.6295 21.6513 16.5543C21.6636 16.48 21.6556 16.4037 21.6283 16.3335C21.601 16.2634 21.5553 16.202 21.4962 16.156C21.4375 16.1084 21.3673 16.0774 21.2929 16.0661C21.2184 16.0548 21.1423 16.0635 21.0723 16.0915C21.0023 16.1195 20.9409 16.1657 20.8944 16.2253C20.8478 16.285 20.8178 16.3561 20.8073 16.4313C20.7951 16.5056 20.8031 16.5819 20.8304 16.652C20.8577 16.7222 20.9033 16.7836 20.9625 16.8296Z" fill="#FAA821"/>
<path fill-rule="evenodd" clip-rule="evenodd" d="M23.1369 16.5878C23.157 16.6852 23.202 16.7756 23.2675 16.85C23.333 16.9244 23.4166 16.9802 23.5102 17.0119C23.6037 17.0435 23.7038 17.0499 23.8006 17.0304C23.8973 17.0109 23.9873 16.9662 24.0616 16.9007C24.1356 16.8343 24.191 16.7495 24.2223 16.6547C24.2535 16.5599 24.2595 16.4585 24.2395 16.3607C24.2196 16.2628 24.1745 16.172 24.1088 16.0973C24.0431 16.0226 23.959 15.9666 23.8651 15.935C23.7713 15.9029 23.6709 15.8965 23.5738 15.9162C23.4768 15.936 23.3868 15.9814 23.3127 16.0476C23.2399 16.1149 23.1854 16.1999 23.1546 16.2945C23.1239 16.3891 23.1177 16.4901 23.1369 16.5878Z" fill="#FAA821"/>
<path fill-rule="evenodd" clip-rule="evenodd" d="M11.2355 17.2677C11.5185 17.2614 11.7916 17.1611 12.0124 16.9824C12.2332 16.8037 12.3894 16.5565 12.4568 16.2792C12.5241 16.002 12.4989 15.71 12.3849 15.4487C12.271 15.1873 12.0748 14.9711 11.8266 14.8337C11.5785 14.6962 11.2923 14.6451 11.0124 14.6883C10.7326 14.7315 10.4746 14.8665 10.2786 15.0725C10.0826 15.2785 9.95944 15.544 9.92825 15.8277C9.89705 16.1115 9.95955 16.3976 10.1061 16.6419C10.2231 16.8372 10.3892 16.9978 10.5875 17.1077C10.7858 17.2175 11.0093 17.2727 11.2355 17.2677Z" fill="#FAA821"/>
<path fill-rule="evenodd" clip-rule="evenodd" d="M18.861 17.3221C18.9359 17.3191 19.0089 17.2966 19.0727 17.2568C19.1365 17.2169 19.189 17.1611 19.225 17.0947C19.2622 17.0285 19.2807 16.9532 19.2786 16.8771C19.2764 16.801 19.2536 16.7269 19.2126 16.663C19.1751 16.5974 19.1207 16.5434 19.0551 16.5067C18.9895 16.4699 18.9153 16.4519 18.8403 16.4544C18.7655 16.4571 18.6927 16.4793 18.6289 16.5188C18.5651 16.5583 18.5125 16.6137 18.4762 16.6796C18.4372 16.7448 18.4165 16.8194 18.4165 16.8955C18.4165 16.9716 18.4372 17.0463 18.4762 17.1114C18.515 17.1762 18.57 17.2296 18.6357 17.2662C18.7014 17.3028 18.7756 17.3214 18.8506 17.32L18.861 17.3221Z" fill="#FAA821"/>
<path fill-rule="evenodd" clip-rule="evenodd" d="M22.8895 17.8225C22.9041 17.8967 22.9379 17.9658 22.9874 18.0227C23.037 18.0796 23.1006 18.1223 23.1717 18.1464C23.2429 18.1706 23.3192 18.1753 23.3928 18.1602C23.4664 18.145 23.5347 18.1106 23.5908 18.0602C23.6462 18.0092 23.6875 17.9446 23.7106 17.8726C23.7337 17.8006 23.7378 17.7239 23.7226 17.6498C23.7074 17.5757 23.6733 17.5069 23.6237 17.4502C23.5741 17.3934 23.5107 17.3506 23.4398 17.3261C23.3694 17.3018 23.2938 17.2971 23.221 17.3126C23.1482 17.328 23.0808 17.3629 23.0261 17.4137C22.9691 17.465 22.9266 17.5307 22.903 17.6039C22.8794 17.6772 22.8755 17.7555 22.8916 17.8308L22.8895 17.8225Z" fill="#FAA821"/>
<path fill-rule="evenodd" clip-rule="evenodd" d="M7.56646 18.8634C8.01295 18.8412 8.43314 18.644 8.73734 18.3137C9.04153 17.9834 9.20561 17.5463 9.19454 17.0957C9.18347 16.6451 8.99813 16.2167 8.67809 15.9021C8.35804 15.5874 7.92867 15.4113 7.48165 15.4115C7.03516 15.4336 6.61496 15.6309 6.31076 15.9612C6.00656 16.2915 5.84248 16.7286 5.85355 17.1792C5.86462 17.6298 6.04998 18.0581 6.37002 18.3728C6.69007 18.6875 7.11944 18.8635 7.56646 18.8634Z" fill="#FAA821"/>
<path fill-rule="evenodd" clip-rule="evenodd" d="M17.5438 19.0634C17.6024 19.0134 17.646 18.9478 17.6698 18.8741C17.6935 18.8004 17.6964 18.7216 17.6782 18.6463C17.6628 18.572 17.6286 18.503 17.579 18.446C17.5293 18.389 17.4659 18.3459 17.3948 18.3209C17.3243 18.298 17.249 18.294 17.1765 18.3093C17.1039 18.3247 17.0366 18.3589 16.9811 18.4085C16.9242 18.4599 16.8817 18.5255 16.8581 18.5988C16.8345 18.6721 16.8305 18.7504 16.8467 18.8257C16.8625 18.8998 16.8968 18.9686 16.9464 19.0255C16.996 19.0825 17.0592 19.1257 17.1301 19.151C17.2006 19.174 17.2759 19.178 17.3485 19.1626C17.421 19.1472 17.4883 19.1131 17.5438 19.0634Z" fill="#FAA821"/>
<path fill-rule="evenodd" clip-rule="evenodd" d="M16.3616 19.4682C16.4356 19.4023 16.4909 19.3177 16.5218 19.2231C16.5527 19.1285 16.5581 19.0274 16.5374 18.93C16.5158 18.8339 16.47 18.7451 16.4044 18.672C16.3388 18.5989 16.2557 18.5441 16.163 18.5129C16.0694 18.4811 15.9692 18.4749 15.8725 18.4951C15.7758 18.5152 15.6861 18.561 15.6128 18.6276C15.5398 18.6943 15.4852 18.7789 15.4543 18.8732C15.4235 18.9676 15.4175 19.0684 15.4369 19.1657C15.4564 19.2635 15.5011 19.3543 15.5665 19.4291C15.632 19.5039 15.7158 19.56 15.8095 19.5917C15.9033 19.6234 16.0037 19.6297 16.1006 19.6098C16.1975 19.59 16.2875 19.5447 16.3616 19.4786V19.4682Z" fill="#FAA821"/>
<path fill-rule="evenodd" clip-rule="evenodd" d="M15.0254 20.2191C15.1167 20.1376 15.185 20.0334 15.2236 19.9168C15.2621 19.8002 15.2695 19.6754 15.2449 19.5551C15.2204 19.4347 15.1648 19.323 15.0838 19.2312C15.0027 19.1394 14.8991 19.0708 14.7834 19.0323C14.6682 18.9925 14.5445 18.9844 14.4252 19.009C14.3059 19.0336 14.1953 19.0899 14.1049 19.172C13.9769 19.2975 13.9019 19.4679 13.8955 19.6478C13.889 19.8276 13.9517 20.003 14.0703 20.1375C14.189 20.2719 14.3545 20.355 14.5325 20.3694C14.7104 20.3838 14.8869 20.3285 15.0254 20.2149V20.2191Z" fill="#FAA821"/>
<path fill-rule="evenodd" clip-rule="evenodd" d="M17.6556 21.2494C17.6678 21.1751 17.6599 21.0988 17.6325 21.0287C17.6052 20.9585 17.5596 20.8971 17.5004 20.8511C17.4436 20.8038 17.3753 20.7727 17.3026 20.761C17.2299 20.7492 17.1553 20.7573 17.0867 20.7843C17.0174 20.8136 16.9565 20.8602 16.9098 20.9196C16.8632 20.9791 16.8322 21.0495 16.8199 21.1243C16.8085 21.199 16.8169 21.2753 16.8441 21.3457C16.8713 21.4161 16.9165 21.478 16.975 21.5252C17.0335 21.5724 17.1034 21.6031 17.1775 21.6144C17.2516 21.6257 17.3273 21.6171 17.397 21.5894C17.467 21.5611 17.5285 21.5149 17.5753 21.4552C17.6221 21.3956 17.6526 21.3247 17.6638 21.2494H17.6556Z" fill="#FAA821"/>
<path fill-rule="evenodd" clip-rule="evenodd" d="M13.5111 21.5685C13.6093 21.4852 13.69 21.383 13.7485 21.2678C13.807 21.1526 13.8421 21.0268 13.8517 20.8978C13.8614 20.7688 13.8454 20.6391 13.8047 20.5164C13.764 20.3937 13.6994 20.2804 13.6147 20.1832C13.53 20.086 13.4269 20.0068 13.3114 19.9503C13.196 19.8938 13.0705 19.8612 12.9424 19.8542C12.8142 19.8472 12.686 19.8661 12.5652 19.9098C12.4444 19.9535 12.3335 20.021 12.2389 20.1085C12.1407 20.1918 12.06 20.294 12.0015 20.4092C11.943 20.5243 11.9079 20.6501 11.8982 20.7791C11.8886 20.9082 11.9046 21.0378 11.9453 21.1605C11.986 21.2833 12.0506 21.3965 12.1353 21.4937C12.22 21.5909 12.3231 21.6701 12.4385 21.7266C12.554 21.7831 12.6794 21.8158 12.8076 21.8228C12.9357 21.8297 13.064 21.8108 13.1848 21.7672C13.3056 21.7235 13.4165 21.6559 13.5111 21.5685Z" fill="#FAA821"/>
<path fill-rule="evenodd" clip-rule="evenodd" d="M17.0115 22.3173C17.0262 22.2184 17.0148 22.1175 16.9785 22.0245C16.9421 21.9315 16.8822 21.8497 16.8046 21.7875C16.7283 21.7244 16.6366 21.6832 16.5391 21.6682C16.4415 21.6531 16.3418 21.6648 16.2503 21.702C16.1589 21.7386 16.0785 21.7987 16.0172 21.8762C15.9559 21.9538 15.9157 22.0461 15.9007 22.1442C15.8862 22.2426 15.8975 22.3432 15.9335 22.4358C15.9695 22.5285 16.029 22.61 16.106 22.6723C16.1831 22.7345 16.2749 22.7753 16.3724 22.7906C16.47 22.8059 16.5698 22.7952 16.6619 22.7595C16.7527 22.7222 16.8324 22.6619 16.8933 22.5844C16.9542 22.507 16.9942 22.4149 17.0094 22.3173H17.0115Z" fill="#FAA821"/>
<path fill-rule="evenodd" clip-rule="evenodd" d="M19.1318 22.847C19.0924 22.7828 19.0372 22.7298 18.9717 22.6933C18.9061 22.6568 18.8323 22.6379 18.7574 22.6384C18.6825 22.642 18.6098 22.6647 18.5461 22.7045C18.4824 22.7443 18.4298 22.7998 18.3933 22.8658C18.3557 22.9314 18.3359 23.0059 18.3359 23.0817C18.3359 23.1574 18.3557 23.2319 18.3933 23.2975C18.4309 23.3634 18.4857 23.4176 18.5517 23.4544C18.6177 23.4912 18.6924 23.509 18.7677 23.5061C18.8425 23.5034 18.9153 23.4812 18.9791 23.4417C19.0429 23.4023 19.0955 23.3468 19.1318 23.2808C19.1708 23.2157 19.1915 23.1411 19.1915 23.065C19.1915 22.9889 19.1708 22.9142 19.1318 22.8491V22.847Z" fill="#FAA821"/>
<path fill-rule="evenodd" clip-rule="evenodd" d="M21.2806 23.1161C21.2102 23.0929 21.1351 23.0885 21.0625 23.1035C20.99 23.1185 20.9225 23.1523 20.8669 23.2016C20.8115 23.2526 20.7702 23.3173 20.7471 23.3892C20.724 23.4612 20.7198 23.538 20.7351 23.612C20.7503 23.6861 20.7844 23.7549 20.834 23.8116C20.8836 23.8684 20.947 23.9112 21.0179 23.9358C21.089 23.9594 21.165 23.9637 21.2383 23.9482C21.3115 23.9328 21.3795 23.8982 21.4352 23.8478C21.491 23.7975 21.5327 23.7333 21.556 23.6616C21.5793 23.5899 21.5835 23.5132 21.5681 23.4394C21.5532 23.3652 21.5191 23.2962 21.4694 23.2395C21.4196 23.1827 21.356 23.1402 21.2847 23.1161H21.2806Z" fill="#FAA821"/>
<path fill-rule="evenodd" clip-rule="evenodd" d="M11.677 23.9628C11.8878 23.7743 12.0311 23.5209 12.0845 23.2419C12.138 22.9629 12.0986 22.6739 11.9726 22.4197C11.8466 22.1656 11.641 21.9604 11.3876 21.8361C11.1341 21.7117 10.8471 21.6752 10.571 21.7321C10.2949 21.7889 10.0451 21.9361 9.86039 22.1506C9.67565 22.3652 9.56627 22.6353 9.54922 22.9189C9.53217 23.2025 9.6084 23.4839 9.76609 23.7194C9.92378 23.9549 10.1541 24.1314 10.4214 24.2215C10.6347 24.2938 10.8632 24.308 11.0837 24.2626C11.3042 24.2172 11.5089 24.1138 11.677 23.9628Z" fill="#FAA821"/>
<path fill-rule="evenodd" clip-rule="evenodd" d="M16.4576 23.7626C16.4765 23.6406 16.4626 23.5157 16.4175 23.401C16.3724 23.2862 16.2977 23.1856 16.2011 23.1098C16.105 23.0336 15.9908 22.9842 15.8698 22.9665C15.7489 22.9487 15.6254 22.9632 15.5117 23.0086C15.3981 23.054 15.2982 23.1286 15.2221 23.225C15.146 23.3215 15.0963 23.4363 15.0779 23.5582C15.062 23.68 15.0772 23.8039 15.1221 23.9182C15.167 24.0324 15.2401 24.1332 15.3344 24.211C15.4303 24.2878 15.5446 24.3378 15.6658 24.3559C15.7869 24.374 15.9107 24.3596 16.0245 24.3141C16.1384 24.2686 16.2384 24.1937 16.3144 24.0969C16.3905 24.0001 16.4399 23.8848 16.4576 23.7626Z" fill="#FAA821"/>
<path fill-rule="evenodd" clip-rule="evenodd" d="M19.3184 24.0922C19.2683 24.0071 19.1963 23.9371 19.11 23.8898C19.0237 23.8424 18.9264 23.8194 18.8282 23.8232C18.7291 23.8251 18.6322 23.8536 18.5475 23.9056C18.4629 23.9576 18.3934 24.0314 18.3462 24.1193C18.2999 24.2072 18.2771 24.3057 18.28 24.4052C18.2829 24.5047 18.3114 24.6017 18.3628 24.6867C18.4129 24.7718 18.4849 24.8418 18.5712 24.8891C18.6575 24.9365 18.7549 24.9595 18.853 24.9557C18.9522 24.9538 19.049 24.9253 19.1337 24.8733C19.2184 24.8212 19.2878 24.7475 19.335 24.6595C19.3827 24.5721 19.4064 24.4734 19.4035 24.3736C19.4005 24.2738 19.3712 24.1767 19.3184 24.0922Z" fill="#FAA821"/>
<path fill-rule="evenodd" clip-rule="evenodd" d="M22.2237 23.9462C22.1296 23.9135 22.0287 23.9063 21.931 23.9253C21.8334 23.9443 21.7424 23.989 21.6672 24.0547C21.5944 24.1219 21.5399 24.207 21.5091 24.3016C21.4784 24.3962 21.4722 24.4972 21.4914 24.5949C21.5103 24.6933 21.5546 24.7849 21.6199 24.8605C21.6852 24.9361 21.7691 24.993 21.8632 25.0255C21.9572 25.0579 22.0581 25.0647 22.1556 25.0452C22.2532 25.0257 22.3438 24.9806 22.4185 24.9144C22.4932 24.8483 22.5493 24.7634 22.581 24.6684C22.6127 24.5734 22.619 24.4717 22.5993 24.3734C22.5795 24.2752 22.5343 24.1839 22.4684 24.1089C22.4024 24.0339 22.318 23.9778 22.2237 23.9462Z" fill="#FAA821"/>
<path fill-rule="evenodd" clip-rule="evenodd" d="M23.5318 24.7409C23.4167 24.7011 23.293 24.693 23.1737 24.7176C23.0544 24.7422 22.9438 24.7985 22.8533 24.8807C22.7385 24.9828 22.6604 25.1203 22.631 25.2719C22.6017 25.4234 22.6228 25.5805 22.6911 25.7187C22.7594 25.8569 22.871 25.9685 23.0087 26.0361C23.1463 26.1038 23.3023 26.1237 23.4523 26.0928C23.6023 26.0619 23.738 25.9819 23.8383 25.8652C23.9387 25.7486 23.9979 25.6018 24.007 25.4477C24.0161 25.2935 23.9744 25.1407 23.8885 25.0129C23.8026 24.8851 23.6772 24.7895 23.5318 24.7409Z" fill="#FAA821"/>
<path fill-rule="evenodd" clip-rule="evenodd" d="M16.1721 25.7816C16.1953 25.6136 16.1746 25.4423 16.112 25.2849C16.0494 25.1274 15.9471 24.9891 15.8152 24.8838C15.6834 24.7784 15.5265 24.7096 15.3601 24.6842C15.1938 24.6587 15.0237 24.6775 14.8668 24.7387C14.7082 24.8005 14.5686 24.9036 14.4624 25.0374C14.3561 25.1713 14.287 25.3312 14.2619 25.5008C14.2369 25.6704 14.2569 25.8436 14.3199 26.0028C14.383 26.1621 14.4867 26.3017 14.6206 26.4073C14.7523 26.5142 14.9098 26.5839 15.0769 26.6096C15.244 26.6352 15.4149 26.6158 15.5722 26.5533C15.7292 26.49 15.8671 26.3865 15.9723 26.2529C16.0775 26.1194 16.1464 25.9606 16.1721 25.792V25.7816Z" fill="#FAA821"/>
<path fill-rule="evenodd" clip-rule="evenodd" d="M19.8212 25.5502C19.7567 25.4464 19.667 25.3611 19.5605 25.3023C19.454 25.2435 19.3344 25.2132 19.213 25.2144C19.0905 25.2162 18.9707 25.2506 18.8656 25.314C18.7605 25.3774 18.6738 25.4676 18.6143 25.5755C18.5547 25.6834 18.5245 25.8052 18.5265 25.9287C18.5285 26.0522 18.5627 26.1729 18.6257 26.2788C18.6887 26.3847 18.7783 26.472 18.8854 26.5319C18.9925 26.5918 19.1134 26.6222 19.2358 26.62C19.3583 26.6178 19.478 26.5831 19.5829 26.5194C19.6879 26.4558 19.7743 26.3653 19.8336 26.2573C19.8931 26.1496 19.923 26.0278 19.9201 25.9046C19.9172 25.7813 19.8816 25.6611 19.817 25.5565L19.8212 25.5502Z" fill="#FAA821"/>
<path fill-rule="evenodd" clip-rule="evenodd" d="M25.448 25.3874C25.2881 25.3333 25.1168 25.3227 24.9515 25.3568C24.7863 25.3908 24.6328 25.4683 24.5068 25.5814C24.3804 25.6951 24.2857 25.8402 24.2324 26.0024C24.179 26.1645 24.1688 26.338 24.2027 26.5053C24.2355 26.6723 24.3114 26.8275 24.4229 26.9554C24.5343 27.0832 24.6772 27.1791 24.8372 27.2333C24.9972 27.2875 25.1686 27.2981 25.334 27.264C25.4994 27.23 25.6529 27.1524 25.779 27.0393C25.9052 26.9254 25.9997 26.7802 26.0531 26.6181C26.1064 26.456 26.1168 26.2827 26.083 26.1153C26.0504 25.9482 25.9745 25.7928 25.8629 25.6649C25.7514 25.5371 25.6082 25.4413 25.448 25.3874Z" fill="#FAA821"/>
<path fill-rule="evenodd" clip-rule="evenodd" d="M9.88434 27.5628C10.1662 27.3111 10.3579 26.9727 10.4296 26.6C10.5014 26.2273 10.4491 25.8412 10.281 25.5014C10.113 25.1617 9.83844 24.8874 9.50001 24.721C9.16158 24.5546 8.77816 24.5054 8.4092 24.5811C8.04023 24.6568 7.70634 24.8531 7.45929 25.1396C7.21224 25.4261 7.06583 25.7868 7.04277 26.1657C7.0197 26.5447 7.12126 26.9207 7.33171 27.2355C7.54216 27.5503 7.84973 27.7863 8.20675 27.907C8.49174 28.003 8.79678 28.0218 9.09125 27.9614C9.38571 27.901 9.65923 27.7635 9.88434 27.5628Z" fill="#FAA821"/>
<path fill-rule="evenodd" clip-rule="evenodd" d="M28.4207 25.7921C28.2075 25.7193 27.9789 25.7049 27.7583 25.7503C27.5377 25.7958 27.333 25.8994 27.1651 26.0507C26.9543 26.2393 26.8111 26.4927 26.7576 26.7717C26.7042 27.0507 26.7435 27.3397 26.8695 27.5938C26.9955 27.848 27.2012 28.0531 27.4546 28.1775C27.708 28.3018 27.995 28.3383 28.2711 28.2815C28.5472 28.2246 28.797 28.0775 28.9817 27.8629C29.1665 27.6483 29.2759 27.3783 29.2929 27.0946C29.31 26.811 29.2337 26.5296 29.076 26.2941C28.9184 26.0586 28.688 25.8821 28.4207 25.7921Z" fill="#FAA821"/>
<path fill-rule="evenodd" clip-rule="evenodd" d="M20.8756 27.2917C20.7872 27.1485 20.6631 27.0311 20.5158 26.9512C20.3685 26.8713 20.203 26.8315 20.0358 26.836C19.8685 26.8404 19.7054 26.8888 19.5624 26.9764C19.4194 27.0641 19.3017 27.1878 19.2208 27.3355C19.1404 27.4857 19.1006 27.6545 19.1054 27.8251C19.1101 27.9957 19.1592 28.162 19.2477 28.3074C19.3351 28.453 19.4593 28.5726 19.6076 28.654C19.7559 28.7353 19.9229 28.7755 20.0917 28.7705C20.2606 28.7658 20.4253 28.7163 20.5693 28.6271C20.7132 28.5378 20.8313 28.4119 20.9116 28.2619C20.9919 28.112 21.0317 27.9434 21.0268 27.7731C21.0219 27.6027 20.9726 27.4367 20.8839 27.2917H20.8756Z" fill="#FAA821"/>
<path fill-rule="evenodd" clip-rule="evenodd" d="M32.4114 25.5606C32.0545 25.44 31.668 25.4415 31.312 25.5648C30.956 25.6882 30.6502 25.9265 30.4422 26.2428C30.2341 26.5592 30.1354 26.9359 30.1613 27.3146C30.1871 27.6933 30.3361 28.0528 30.5852 28.3374C30.8343 28.622 31.1696 28.8158 31.539 28.8888C31.9084 28.9618 32.2914 28.9099 32.6286 28.7411C32.9658 28.5723 33.2384 28.296 33.4041 27.9552C33.5697 27.6144 33.6193 27.2279 33.545 26.8558C33.4863 26.5582 33.3504 26.2816 33.1513 26.0541C32.9522 25.8267 32.697 25.6563 32.4114 25.5606Z" fill="#FAA821"/>
<path fill-rule="evenodd" clip-rule="evenodd" d="M16.2878 28.8038C16.3193 28.5792 16.2924 28.3502 16.2097 28.1393C16.127 27.9283 15.9914 27.7426 15.8162 27.6004C15.6412 27.4569 15.4314 27.3633 15.2084 27.3292C14.9854 27.2951 14.7574 27.3217 14.5481 27.4064C14.3403 27.4909 14.158 27.6286 14.0193 27.8061C13.8806 27.9836 13.7903 28.1945 13.7575 28.418C13.7247 28.6415 13.7504 28.8698 13.8321 29.0802C13.9139 29.2905 14.0488 29.4757 14.2234 29.6173C14.3981 29.7605 14.6075 29.8541 14.8302 29.8882C15.0528 29.9223 15.2804 29.8957 15.4894 29.8112C15.6982 29.7267 15.8817 29.5887 16.0217 29.411C16.1617 29.2333 16.2534 29.0219 16.2878 28.7976V28.8038Z" fill="#FAA821"/>
<path fill-rule="evenodd" clip-rule="evenodd" d="M22.8974 29.5255C22.8109 29.3776 22.696 29.2485 22.5596 29.1457C22.4231 29.0429 22.2677 28.9686 22.1025 28.9269C21.9372 28.8853 21.7654 28.8772 21.597 28.9031C21.4286 28.929 21.2671 28.9884 21.1217 29.0779C20.9763 29.1674 20.85 29.2851 20.7502 29.4243C20.6503 29.5634 20.5789 29.7212 20.5401 29.8884C20.5013 30.0557 20.4959 30.229 20.5242 30.3984C20.5524 30.5678 20.6138 30.7298 20.7047 30.875C20.8848 31.1626 21.1699 31.3672 21.4983 31.4447C21.8268 31.5221 22.1723 31.4662 22.4602 31.289C22.7481 31.1119 22.9553 30.8276 23.0371 30.4976C23.1189 30.1677 23.0688 29.8185 22.8974 29.5255Z" fill="#FAA821"/>
<path fill-rule="evenodd" clip-rule="evenodd" d="M17.2047 32.725C17.2605 32.3495 17.1919 31.9659 17.0094 31.6337C16.827 31.3015 16.5409 31.0393 16.1956 30.8878C15.8503 30.7363 15.4651 30.7039 15.0997 30.7956C14.7342 30.8873 14.409 31.0981 14.1745 31.3952C13.94 31.6923 13.8092 32.0591 13.8025 32.4387C13.7958 32.8184 13.9136 33.1897 14.1375 33.495C14.3614 33.8003 14.6789 34.0226 15.0409 34.1273C15.4029 34.2321 15.789 34.2135 16.1394 34.0745C16.4187 33.9634 16.6642 33.7803 16.8511 33.5434C17.0381 33.3066 17.1601 33.0243 17.2047 32.725Z" fill="#FAA821"/>
<path fill-rule="evenodd" clip-rule="evenodd" d="M26.0995 31.9324C25.9027 31.6082 25.6053 31.3585 25.2534 31.222C24.9016 31.0855 24.5149 31.0699 24.1533 31.1776C23.7917 31.2853 23.4755 31.5103 23.2537 31.8177C23.0318 32.125 22.9168 32.4976 22.9263 32.8776C22.9359 33.2576 23.0695 33.6239 23.3065 33.9195C23.5436 34.2151 23.8707 34.4237 24.2372 34.5127C24.6037 34.6018 24.9891 34.5665 25.3337 34.4122C25.6783 34.2579 25.9627 33.9933 26.1429 33.6594C26.2865 33.393 26.3581 33.0932 26.3505 32.7901C26.3428 32.487 26.2563 32.1912 26.0995 31.9324Z" fill="#FAA821"/>
<path fill-rule="evenodd" clip-rule="evenodd" d="M15.0468 8.06753C15.2435 8.39178 15.5409 8.64151 15.8928 8.77798C16.2447 8.91446 16.6314 8.93005 16.9929 8.82235C17.3545 8.71465 17.6707 8.48968 17.8926 8.18231C18.1144 7.87494 18.2295 7.50236 18.2199 7.12234C18.2104 6.74232 18.0767 6.3761 17.8397 6.08047C17.6027 5.78484 17.2756 5.57632 16.9091 5.48724C16.5426 5.39816 16.1571 5.4335 15.8126 5.58778C15.468 5.74206 15.1835 6.00666 15.0033 6.34055C14.8602 6.6071 14.7888 6.90685 14.7965 7.20989C14.8041 7.51292 14.8904 7.80864 15.0468 8.06753Z" fill="#FAA821"/>
<path fill-rule="evenodd" clip-rule="evenodd" d="M18.2479 10.4745C18.3344 10.6224 18.4493 10.7516 18.5858 10.8543C18.7222 10.9571 18.8776 11.0315 19.0429 11.0731C19.2081 11.1148 19.3799 11.1229 19.5483 11.0969C19.7167 11.071 19.8783 11.0116 20.0237 10.9221C20.169 10.8326 20.2953 10.7149 20.3952 10.5757C20.495 10.4366 20.5664 10.2788 20.6052 10.1116C20.644 9.94434 20.6494 9.771 20.6212 9.60164C20.5929 9.43227 20.5315 9.27026 20.4406 9.12504C20.2605 8.83745 19.9754 8.63283 19.647 8.55535C19.3186 8.47788 18.9731 8.53378 18.6851 8.71098C18.3972 8.88818 18.19 9.17245 18.1082 9.50242C18.0264 9.83238 18.0766 10.1815 18.2479 10.4745Z" fill="#FAA821"/>
<path fill-rule="evenodd" clip-rule="evenodd" d="M20.2695 12.7229C20.3586 12.8676 20.4834 12.9865 20.6317 13.068C20.78 13.1496 20.9467 13.1909 21.1156 13.188C21.2857 13.1851 21.4519 13.1366 21.5973 13.0475C21.7427 12.9584 21.862 12.832 21.943 12.6812C22.0221 12.5307 22.0613 12.3622 22.057 12.1919C22.0526 12.0217 22.0048 11.8554 21.9182 11.7092C21.8297 11.5661 21.7057 11.4487 21.5584 11.3687C21.411 11.2888 21.2456 11.2491 21.0783 11.2535C20.9111 11.2579 20.7479 11.3064 20.6049 11.394C20.462 11.4816 20.3442 11.6054 20.2633 11.753C20.1833 11.9029 20.1434 12.0712 20.1478 12.2413C20.1521 12.4114 20.2005 12.5775 20.2882 12.7229H20.2695Z" fill="#FAA821"/>
<path fill-rule="evenodd" clip-rule="evenodd" d="M12.7244 14.2143C12.9385 14.2864 13.1678 14.3004 13.389 14.2549C13.6103 14.2093 13.8157 14.1059 13.9848 13.955C14.1538 13.8041 14.2805 13.611 14.3521 13.395C14.4237 13.1791 14.4376 12.948 14.3926 12.7249C14.3476 12.5018 14.2451 12.2946 14.0954 12.1241C13.9458 11.9536 13.7543 11.8258 13.5402 11.7535C13.3261 11.6812 13.0969 11.667 12.8756 11.7124C12.6544 11.7577 12.4488 11.861 12.2796 12.0118C12.1115 12.1633 11.9857 12.3566 11.9147 12.5724C11.8438 12.7881 11.8301 13.0189 11.8751 13.2417C11.9201 13.4645 12.0221 13.6715 12.1711 13.8422C12.3202 14.0128 12.5109 14.1411 12.7244 14.2143Z" fill="#FAA821"/>
<path fill-rule="evenodd" clip-rule="evenodd" d="M8.73653 14.4456C9.09348 14.5662 9.47991 14.5647 9.83594 14.4414C10.192 14.318 10.4977 14.0797 10.7058 13.7634C10.9138 13.447 11.0126 13.0703 10.9867 12.6916C10.9608 12.3129 10.8118 11.9534 10.5627 11.6688C10.3136 11.3842 9.97839 11.1904 9.60896 11.1174C9.23953 11.0444 8.85652 11.0963 8.51933 11.2651C8.18214 11.4339 7.90959 11.7101 7.74391 12.051C7.57823 12.3918 7.52869 12.7783 7.60296 13.1504C7.66289 13.4475 7.79913 13.7235 7.99806 13.9508C8.19699 14.1781 8.45165 14.3487 8.73653 14.4456Z" fill="#FAA821"/>
<path fill-rule="evenodd" clip-rule="evenodd" d="M15.6957 14.6126C15.8555 14.6678 16.027 14.6789 16.1924 14.6448C16.3579 14.6107 16.5114 14.5326 16.6369 14.4186C16.7949 14.2773 16.9022 14.0873 16.9423 13.8781C16.9823 13.669 16.9528 13.4524 16.8583 13.2619C16.7638 13.0714 16.6097 12.9176 16.4197 12.8244C16.2297 12.7313 16.0146 12.7039 15.8076 12.7465C15.6007 12.7892 15.4134 12.8995 15.275 13.0604C15.1365 13.2212 15.0546 13.4236 15.0418 13.6363C15.029 13.8489 15.0862 14.0598 15.2044 14.2363C15.3226 14.4128 15.4953 14.5451 15.6957 14.6126Z" fill="#FAA821"/>
<path fill-rule="evenodd" clip-rule="evenodd" d="M21.3239 14.4498C21.388 14.5539 21.4777 14.6394 21.5842 14.6983C21.6908 14.7571 21.8106 14.7872 21.932 14.7856C22.0543 14.7825 22.1735 14.7469 22.2778 14.6825C22.382 14.618 22.4675 14.527 22.5257 14.4185C22.5856 14.3111 22.6158 14.1894 22.6132 14.0662C22.6107 13.9429 22.5755 13.8226 22.5112 13.7177C22.4149 13.559 22.2601 13.4453 22.0806 13.4017C21.9012 13.3581 21.712 13.3881 21.5545 13.4852C21.3971 13.5823 21.2843 13.7384 21.2411 13.9193C21.1978 14.1003 21.2276 14.2911 21.3239 14.4498Z" fill="#FAA821"/>
<path fill-rule="evenodd" clip-rule="evenodd" d="M17.618 15.2592C17.7334 15.298 17.8569 15.3054 17.976 15.2808C18.0952 15.2562 18.2058 15.2004 18.2968 15.119C18.3877 15.0376 18.4559 14.9335 18.4943 14.8172C18.5328 14.7009 18.5402 14.5764 18.5158 14.4562C18.491 14.3363 18.4356 14.2249 18.3551 14.1331C18.2745 14.0413 18.1717 13.9722 18.0566 13.9327C17.9409 13.8934 17.8169 13.8855 17.6972 13.91C17.5776 13.9345 17.4664 13.9904 17.3751 14.0722C17.2838 14.1539 17.2155 14.2585 17.1771 14.3754C17.1388 14.4923 17.1318 14.6173 17.1568 14.7378C17.1817 14.8578 17.2374 14.9691 17.3184 15.0606C17.3993 15.1521 17.5026 15.2206 17.618 15.2592Z" fill="#FAA821"/>
<path fill-rule="evenodd" clip-rule="evenodd" d="M18.9225 16.06C19.0161 16.0919 19.1163 16.098 19.213 16.0778C19.3097 16.0577 19.3994 16.012 19.4727 15.9453C19.5466 15.8782 19.6016 15.7927 19.6322 15.6973C19.6627 15.6019 19.6678 15.5 19.6468 15.4021C19.6258 15.3041 19.5795 15.2134 19.5126 15.1392C19.4457 15.0651 19.3606 15.01 19.2659 14.9796C19.172 14.9479 19.0714 14.9417 18.9744 14.9619C18.8774 14.982 18.7874 15.0277 18.7136 15.0944C18.6403 15.1617 18.5859 15.2473 18.5557 15.3426C18.5255 15.4379 18.5206 15.5394 18.5416 15.6372C18.5625 15.7349 18.6085 15.8254 18.675 15.8996C18.7415 15.9738 18.8261 16.0291 18.9204 16.06H18.9225Z" fill="#FAA821"/>
<path fill-rule="evenodd" clip-rule="evenodd" d="M21.8214 15.9079C21.8725 15.9926 21.9451 16.0622 22.0315 16.1094C22.118 16.1567 22.2154 16.18 22.3137 16.177C22.4128 16.1746 22.5094 16.1459 22.594 16.0939C22.6786 16.042 22.7482 15.9684 22.7957 15.8808C22.8414 15.7927 22.8639 15.6943 22.861 15.5949C22.8581 15.4956 22.8299 15.3987 22.7791 15.3135C22.7283 15.2284 22.6559 15.1587 22.5693 15.1114C22.4827 15.064 22.3852 15.0409 22.2868 15.0444C22.1879 15.0472 22.0914 15.076 22.0068 15.128C21.9223 15.1799 21.8527 15.2532 21.8048 15.3406C21.7575 15.4281 21.7342 15.5268 21.7371 15.6265C21.74 15.7262 21.7691 15.8233 21.8214 15.9079Z" fill="#FAA821"/>
<path fill-rule="evenodd" clip-rule="evenodd" d="M19.8587 16.8945C19.9289 16.919 20.0044 16.924 20.0772 16.9089C20.1499 16.8939 20.2174 16.8594 20.2724 16.8089C20.3284 16.7584 20.3703 16.6939 20.3939 16.6219C20.4175 16.55 20.422 16.473 20.407 16.3987C20.3919 16.3245 20.3578 16.2555 20.308 16.1986C20.2583 16.1418 20.1946 16.0991 20.1234 16.0748C20.0531 16.0516 19.9779 16.0472 19.9053 16.0622C19.8328 16.0772 19.7654 16.111 19.7097 16.1603C19.6537 16.2108 19.6118 16.2753 19.5882 16.3473C19.5646 16.4193 19.5601 16.4962 19.5751 16.5705C19.5902 16.6448 19.6243 16.7138 19.6741 16.7706C19.7238 16.8274 19.7875 16.8701 19.8587 16.8945Z" fill="#FAA821"/>
<path fill-rule="evenodd" clip-rule="evenodd" d="M22.0144 17.153C22.052 17.2189 22.1068 17.2731 22.1728 17.3099C22.2388 17.3466 22.3135 17.3645 22.3888 17.3616C22.4637 17.3584 22.5366 17.3358 22.6004 17.296C22.6641 17.2562 22.7167 17.2005 22.7529 17.1342C22.7864 17.0683 22.8024 16.9948 22.7995 16.9207C22.7965 16.8467 22.7746 16.7747 22.7359 16.7117C22.6971 16.6488 22.6429 16.597 22.5785 16.5614C22.5141 16.5257 22.4416 16.5075 22.3681 16.5085C22.2933 16.5113 22.2205 16.5334 22.1567 16.5729C22.0929 16.6124 22.0403 16.6678 22.004 16.7338C21.965 16.7989 21.9443 16.8735 21.9443 16.9496C21.9443 17.0258 21.965 17.1004 22.004 17.1655L22.0144 17.153Z" fill="#FAA821"/>
<path fill-rule="evenodd" clip-rule="evenodd" d="M16.7917 18.0499C16.8605 18.0225 16.9234 17.9817 16.9766 17.9299C17.0298 17.878 17.0724 17.8161 17.1019 17.7476C17.1314 17.6791 17.1472 17.6055 17.1485 17.5308C17.1497 17.4562 17.1364 17.3821 17.1092 17.3126C17.082 17.2432 17.0416 17.1798 16.9901 17.1262C16.9387 17.0725 16.8772 17.0296 16.8093 16.9999C16.7414 16.9701 16.6684 16.9542 16.5944 16.9529C16.5204 16.9516 16.4468 16.9651 16.378 16.9925C16.2871 17.0296 16.2072 17.0898 16.1463 17.1673C16.0854 17.2448 16.0455 17.3369 16.0305 17.4347C16.0155 17.533 16.0264 17.6336 16.0621 17.7263C16.0979 17.8191 16.1572 17.9007 16.2341 17.963C16.311 18.0254 16.4028 18.0662 16.5003 18.0814C16.5978 18.0967 16.6976 18.0858 16.7896 18.0499H16.7917Z" fill="#FAA821"/>
<path fill-rule="evenodd" clip-rule="evenodd" d="M18.0464 18.0771C18.1157 18.0476 18.1764 18.001 18.2231 17.9416C18.2697 17.8821 18.3007 17.8118 18.3133 17.7371C18.3259 17.6624 18.3181 17.5857 18.2908 17.5152C18.2635 17.4446 18.2176 17.3829 18.1581 17.3366C18.1004 17.291 18.0321 17.2612 17.9596 17.2498C17.8872 17.2385 17.8131 17.2461 17.7444 17.272C17.6751 17.3013 17.6142 17.3478 17.5675 17.4073C17.5209 17.4667 17.4899 17.5372 17.4776 17.6119C17.4649 17.6866 17.4727 17.7633 17.5 17.8339C17.5274 17.9044 17.5732 17.9661 17.6327 18.0124C17.6905 18.0578 17.7588 18.0876 17.8312 18.0989C17.9036 18.1102 17.9777 18.1027 18.0464 18.0771Z" fill="#FAA821"/>
<path fill-rule="evenodd" clip-rule="evenodd" d="M15.287 18.2876C15.4008 18.2421 15.5008 18.1673 15.577 18.0707C15.6532 17.9741 15.703 17.859 15.7214 17.737C15.7373 17.6151 15.7221 17.4912 15.6772 17.377C15.6324 17.2627 15.5593 17.1619 15.4649 17.0841C15.3687 17.0077 15.2542 16.9581 15.133 16.9402C15.0118 16.9222 14.888 16.9366 14.774 16.9819C14.66 17.0267 14.5598 17.1013 14.4838 17.1981C14.4078 17.2949 14.3587 17.4103 14.3417 17.5326C14.3242 17.6544 14.3387 17.7788 14.3838 17.8932C14.4289 18.0077 14.503 18.1081 14.5987 18.1846C14.6945 18.2611 14.8084 18.3108 14.9292 18.3289C15.05 18.347 15.1734 18.3327 15.287 18.2876Z" fill="#FAA821"/>
<path fill-rule="evenodd" clip-rule="evenodd" d="M13.4039 19.0364C13.5614 18.9745 13.6999 18.8716 13.8053 18.7383C13.9106 18.6049 13.9791 18.4458 14.0037 18.2772C14.0268 18.1087 14.0064 17.937 13.9444 17.7788C13.8824 17.6206 13.781 17.4812 13.65 17.374C13.5181 17.2675 13.3606 17.1981 13.1935 17.1729C13.0263 17.1476 12.8556 17.1673 12.6985 17.2301C12.5394 17.2914 12.3993 17.3942 12.2926 17.5281C12.186 17.6619 12.1166 17.822 12.0915 17.9918C12.0664 18.1617 12.0867 18.3352 12.1501 18.4946C12.2135 18.6539 12.3178 18.7934 12.4523 18.8987C12.5838 19.0059 12.7413 19.076 12.9085 19.1016C13.0757 19.1273 13.2467 19.1076 13.4039 19.0447V19.0364Z" fill="#FAA821"/>
<path fill-rule="evenodd" clip-rule="evenodd" d="M17.4114 20.1648C17.445 20.0988 17.461 20.0253 17.458 19.9513C17.4551 19.8772 17.4332 19.8052 17.3944 19.7423C17.3557 19.6793 17.3015 19.6275 17.2371 19.5919C17.1726 19.5563 17.1002 19.5381 17.0267 19.539C16.9523 19.5421 16.8799 19.5645 16.8165 19.6039C16.7531 19.6434 16.7008 19.6986 16.6647 19.7643C16.6256 19.8294 16.605 19.9041 16.605 19.9802C16.605 20.0563 16.6256 20.1309 16.6647 20.196C16.7035 20.2609 16.7585 20.3142 16.8242 20.3508C16.8899 20.3875 16.964 20.406 17.0391 20.4046C17.1137 20.4011 17.1861 20.3784 17.2495 20.3386C17.3129 20.2988 17.3651 20.2432 17.4011 20.1773L17.4114 20.1648Z" fill="#FAA821"/>
<path fill-rule="evenodd" clip-rule="evenodd" d="M10.8713 20.6487C11.1348 20.545 11.357 20.3565 11.5034 20.1124C11.6498 19.8683 11.7122 19.5824 11.6809 19.2989C11.6496 19.0154 11.5264 18.7503 11.3304 18.5446C11.1344 18.339 10.8766 18.2043 10.5969 18.1615C10.3172 18.1187 10.0313 18.1702 9.78365 18.308C9.53597 18.4458 9.34032 18.6622 9.22707 18.9235C9.11382 19.1849 9.0893 19.4767 9.15732 19.7535C9.22533 20.0304 9.38208 20.2769 9.60323 20.4547C9.77862 20.5974 9.98843 20.6905 10.2112 20.7246C10.434 20.7587 10.6618 20.7325 10.8713 20.6487Z" fill="#FAA821"/>
<path fill-rule="evenodd" clip-rule="evenodd" d="M16.4361 20.9532C16.4824 20.8653 16.5052 20.7668 16.5023 20.6674C16.4994 20.5679 16.4709 20.4709 16.4196 20.3859C16.3692 20.3004 16.2969 20.2303 16.2102 20.1829C16.1235 20.1356 16.0258 20.1127 15.9272 20.1169C15.8284 20.1191 15.7319 20.1477 15.6475 20.1997C15.5632 20.2517 15.494 20.3253 15.4469 20.413C15.3999 20.5006 15.3767 20.5993 15.3796 20.6989C15.3826 20.7986 15.4117 20.8957 15.4639 20.9803C15.5144 21.0652 15.5865 21.1349 15.6727 21.1822C15.7589 21.2295 15.856 21.2527 15.9541 21.2494C16.0531 21.2468 16.1497 21.2181 16.2343 21.1661C16.3188 21.1141 16.3884 21.0407 16.4361 20.9532Z" fill="#FAA821"/>
<path fill-rule="evenodd" clip-rule="evenodd" d="M15.4303 22.1086C15.4882 22.0004 15.5171 21.8789 15.5142 21.756C15.5113 21.6331 15.4767 21.5131 15.4137 21.4078C15.3132 21.2579 15.1591 21.1528 14.9837 21.1145C14.8082 21.0763 14.6249 21.1077 14.4718 21.2023C14.3188 21.2969 14.2079 21.4475 14.1621 21.6225C14.1164 21.7976 14.1394 21.9836 14.2264 22.142C14.2899 22.247 14.3797 22.3331 14.4869 22.3917C14.5941 22.4504 14.7148 22.4793 14.8366 22.4757C14.9591 22.4737 15.0788 22.4385 15.1832 22.374C15.2876 22.3094 15.3729 22.2178 15.4303 22.1086Z" fill="#FAA821"/>
<path fill-rule="evenodd" clip-rule="evenodd" d="M18.2559 22.1774C18.2407 22.1033 18.2066 22.0345 18.1569 21.9778C18.1072 21.921 18.0436 21.8784 17.9725 21.8542C17.9023 21.8296 17.8268 21.8246 17.754 21.8397C17.6812 21.8547 17.6138 21.8893 17.5588 21.9397C17.5034 21.9907 17.4621 22.0553 17.439 22.1273C17.4159 22.1993 17.4117 22.276 17.427 22.3501C17.4422 22.4242 17.4763 22.493 17.5259 22.5497C17.5755 22.6065 17.6389 22.6493 17.7098 22.6739C17.7802 22.6981 17.8558 22.7028 17.9286 22.6873C18.0014 22.6719 18.0687 22.637 18.1235 22.5862C18.1808 22.5352 18.2235 22.4695 18.2472 22.3962C18.2708 22.3228 18.2746 22.2444 18.258 22.1691L18.2559 22.1774Z" fill="#FAA821"/>
<path fill-rule="evenodd" clip-rule="evenodd" d="M7.96596 23.4185C8.31589 23.2795 8.61052 23.0279 8.80419 22.7028C8.99786 22.3777 9.07974 21.9972 9.0371 21.6204C8.99447 21.2436 8.82972 20.8915 8.56841 20.6188C8.3071 20.346 7.96383 20.1678 7.59183 20.1118C7.21984 20.0558 6.8399 20.1251 6.51095 20.309C6.18201 20.4929 5.92245 20.7811 5.7725 21.1289C5.62256 21.4767 5.59063 21.8647 5.68165 22.2326C5.77268 22.6006 5.98157 22.928 6.27594 23.1641C6.51119 23.3514 6.79091 23.4734 7.08737 23.518C7.38382 23.5627 7.68671 23.5284 7.96596 23.4185Z" fill="#FAA821"/>
<path fill-rule="evenodd" clip-rule="evenodd" d="M22.2968 22.678C22.2216 22.6802 22.1482 22.7023 22.0842 22.7422C22.0201 22.7821 21.9676 22.8382 21.932 22.9051C21.8963 22.9719 21.8787 23.047 21.8811 23.1229C21.8834 23.1987 21.9055 23.2726 21.9451 23.3371C21.9828 23.403 22.0375 23.4572 22.1035 23.494C22.1695 23.5308 22.2442 23.5486 22.3195 23.5457C22.394 23.5426 22.4664 23.5203 22.5298 23.4808C22.5932 23.4414 22.6454 23.3861 22.6815 23.3204C22.7191 23.2544 22.7379 23.1792 22.7361 23.1031C22.7343 23.027 22.7118 22.9529 22.6712 22.8887C22.6324 22.8239 22.5774 22.7705 22.5117 22.7339C22.446 22.6973 22.3719 22.6787 22.2968 22.6801V22.678Z" fill="#FAA821"/>
<path fill-rule="evenodd" clip-rule="evenodd" d="M20.1851 23.1702C20.1264 23.1227 20.0563 23.0917 19.9818 23.0804C19.9074 23.069 19.8313 23.0778 19.7613 23.1058C19.6913 23.1338 19.6299 23.18 19.5833 23.2396C19.5368 23.2993 19.5068 23.3704 19.4963 23.4455C19.4841 23.5199 19.492 23.5962 19.5193 23.6663C19.5467 23.7365 19.5923 23.7978 19.6515 23.8439C19.7102 23.8915 19.7803 23.9225 19.8548 23.9338C19.9292 23.9451 20.0053 23.9363 20.0753 23.9083C20.1453 23.8804 20.2067 23.8342 20.2532 23.7745C20.2998 23.7148 20.3298 23.6438 20.3403 23.5686C20.3525 23.4943 20.3446 23.418 20.3172 23.3478C20.2899 23.2777 20.2443 23.2163 20.1851 23.1702Z" fill="#FAA821"/>
<path fill-rule="evenodd" clip-rule="evenodd" d="M18.0094 23.4123C17.9893 23.3149 17.9443 23.2245 17.8788 23.1501C17.8133 23.0757 17.7296 23.0199 17.6361 22.9883C17.5426 22.9566 17.4424 22.9502 17.3457 22.9697C17.2489 22.9892 17.159 23.034 17.0847 23.0994C17.0108 23.1665 16.9558 23.2521 16.9253 23.3475C16.8947 23.4429 16.8897 23.5447 16.9107 23.6427C16.9317 23.7407 16.9779 23.8313 17.0448 23.9055C17.1117 23.9797 17.1968 24.0348 17.2916 24.0651C17.3852 24.0974 17.4858 24.104 17.5828 24.0842C17.6799 24.0644 17.77 24.019 17.8439 23.9525C17.9167 23.8853 17.9712 23.8002 18.002 23.7056C18.0327 23.611 18.0389 23.51 18.0197 23.4123H18.0094Z" fill="#FAA821"/>
<path fill-rule="evenodd" clip-rule="evenodd" d="M23.4573 23.137C23.3587 23.1412 23.2628 23.1708 23.1788 23.223C23.0947 23.2752 23.0254 23.3483 22.9774 23.4352C22.9312 23.5225 22.9085 23.6203 22.9114 23.7192C22.9143 23.818 22.9428 23.9143 22.994 23.9986C23.0452 24.0829 23.1174 24.1523 23.2034 24.1998C23.2893 24.2473 23.3861 24.2714 23.4842 24.2695C23.5829 24.267 23.6793 24.2383 23.7636 24.1863C23.8478 24.1343 23.917 24.0608 23.9642 23.9733C24.0114 23.8858 24.0348 23.7873 24.0323 23.6877C24.0297 23.5881 24.0012 23.491 23.9496 23.406C23.8989 23.3208 23.8265 23.2507 23.74 23.2031C23.6534 23.1554 23.5558 23.1319 23.4573 23.1349V23.137Z" fill="#FAA821"/>
<path fill-rule="evenodd" clip-rule="evenodd" d="M14.4719 23.9087C14.5516 23.7587 14.5911 23.5903 14.5864 23.4202C14.5817 23.25 14.5329 23.0841 14.445 22.9388C14.3571 22.795 14.2333 22.677 14.0861 22.5965C13.9388 22.516 13.7731 22.4758 13.6057 22.48C13.4382 22.4843 13.2747 22.5327 13.1316 22.6205C12.9885 22.7084 12.8708 22.8325 12.7901 22.9806C12.7098 23.1307 12.67 23.2996 12.6747 23.4702C12.6794 23.6408 12.7285 23.8071 12.817 23.9525C12.9055 24.0957 13.0295 24.2131 13.1768 24.293C13.3242 24.373 13.4896 24.4127 13.6569 24.4083C13.8241 24.4038 13.9873 24.3554 14.1303 24.2678C14.2732 24.1802 14.391 24.0564 14.4719 23.9087Z" fill="#FAA821"/>
<path fill-rule="evenodd" clip-rule="evenodd" d="M33.5803 21.1368C33.1338 21.1589 32.7136 21.3562 32.4094 21.6865C32.1052 22.0167 31.9411 22.4538 31.9522 22.9044C31.9633 23.355 32.1486 23.7834 32.4687 24.0981C32.7887 24.4128 33.2181 24.5888 33.6651 24.5887C34.1116 24.5665 34.5318 24.3692 34.836 24.039C35.1402 23.7087 35.3043 23.2716 35.2932 22.821C35.2821 22.3704 35.0968 21.942 34.7767 21.6273C34.4567 21.3126 34.0273 21.1366 33.5803 21.1368Z" fill="#FAA821"/>
<path fill-rule="evenodd" clip-rule="evenodd" d="M24.9622 23.4353C24.84 23.4382 24.7206 23.4737 24.6163 23.5381C24.5121 23.6026 24.4266 23.6938 24.3686 23.8023C24.2963 23.9376 24.2702 24.0931 24.2944 24.2448C24.3187 24.3965 24.3918 24.5359 24.5025 24.6415C24.6132 24.747 24.7553 24.8128 24.9069 24.8287C25.0585 24.8446 25.211 24.8097 25.3409 24.7294C25.4708 24.6491 25.5708 24.5278 25.6255 24.3844C25.6801 24.241 25.6864 24.0834 25.6433 23.9361C25.6002 23.7887 25.5101 23.6598 25.387 23.5693C25.2638 23.4787 25.1146 23.4316 24.9622 23.4353Z" fill="#FAA821"/>
<path fill-rule="evenodd" clip-rule="evenodd" d="M20.7845 24.2757C20.7066 24.215 20.6147 24.1752 20.5173 24.1602C20.4199 24.1453 20.3204 24.1556 20.2281 24.1902C20.1367 24.2266 20.0565 24.2866 19.9954 24.3643C19.9344 24.4419 19.8948 24.5344 19.8806 24.6324C19.8656 24.7307 19.8765 24.8313 19.9122 24.9241C19.948 25.0168 20.0073 25.0984 20.0842 25.1608C20.1611 25.2231 20.2529 25.2639 20.3504 25.2792C20.4479 25.2945 20.5477 25.2836 20.6397 25.2477C20.7312 25.2108 20.8116 25.1504 20.8728 25.0725C20.934 24.9945 20.9739 24.9019 20.9885 24.8036C21.0031 24.7053 20.992 24.6049 20.9562 24.5123C20.9204 24.4197 20.8613 24.3381 20.7845 24.2757Z" fill="#FAA821"/>
<path fill-rule="evenodd" clip-rule="evenodd" d="M29.9115 22.7344C29.6285 22.7407 29.3554 22.841 29.1346 23.0197C28.9138 23.1984 28.7576 23.4455 28.6902 23.7228C28.6229 24.0001 28.6481 24.292 28.7621 24.5534C28.876 24.8148 29.0722 25.0309 29.3204 25.1684C29.5685 25.3059 29.8547 25.357 30.1346 25.3138C30.4145 25.2706 30.6724 25.1355 30.8684 24.9295C31.0644 24.7235 31.1876 24.4581 31.2188 24.1743C31.25 23.8906 31.1875 23.6044 31.041 23.3601C30.9239 23.1649 30.7578 23.0042 30.5596 22.8944C30.3613 22.7845 30.1377 22.7293 29.9115 22.7344Z" fill="#FAA821"/>
<path fill-rule="evenodd" clip-rule="evenodd" d="M26.9809 23.381C26.8106 23.3831 26.644 23.4312 26.4984 23.5204C26.3529 23.6095 26.2338 23.7364 26.1534 23.8878C26.0737 24.0382 26.0342 24.2069 26.039 24.3774C26.0437 24.5478 26.0924 24.7141 26.1803 24.8598C26.2688 25.003 26.3928 25.1203 26.5401 25.2003C26.6875 25.2802 26.853 25.3199 27.0202 25.3155C27.1874 25.3111 27.3506 25.2627 27.4936 25.175C27.6365 25.0874 27.7543 24.9636 27.8352 24.816C27.9155 24.6658 27.9553 24.497 27.9506 24.3264C27.9459 24.1558 27.8968 23.9895 27.8083 23.844C27.7208 23.6984 27.5966 23.5788 27.4484 23.4975C27.3001 23.4161 27.133 23.3759 26.9643 23.381H26.9809Z" fill="#FAA821"/>
<path fill-rule="evenodd" clip-rule="evenodd" d="M17.9836 24.9556C17.9592 24.8355 17.9039 24.7239 17.8233 24.632C17.7427 24.5402 17.6396 24.4712 17.5244 24.4321C17.4087 24.3928 17.2847 24.3849 17.165 24.4094C17.0454 24.4339 16.9342 24.4898 16.8429 24.5715C16.7516 24.6533 16.6833 24.7579 16.6449 24.8748C16.6066 24.9917 16.5995 25.1167 16.6245 25.2372C16.649 25.3575 16.7044 25.4692 16.7852 25.561C16.8661 25.6528 16.9695 25.7215 17.085 25.7602C17.2006 25.7989 17.3242 25.8062 17.4435 25.7814C17.5627 25.7566 17.6734 25.7005 17.7643 25.6189C17.8561 25.538 17.9248 25.4339 17.9634 25.3173C18.0019 25.2007 18.0089 25.0759 17.9836 24.9556Z" fill="#FAA821"/>
<path fill-rule="evenodd" clip-rule="evenodd" d="M21.7553 25.473C21.6588 25.3979 21.5448 25.349 21.4242 25.3311C21.3035 25.3132 21.1804 25.3269 21.0665 25.3708C20.9526 25.4162 20.8525 25.4909 20.7763 25.5875C20.7001 25.6842 20.6503 25.7993 20.6321 25.9214C20.6162 26.0433 20.6314 26.1672 20.6763 26.2814C20.7212 26.3957 20.7943 26.4965 20.8886 26.5743C20.9845 26.6511 21.0988 26.701 21.22 26.7191C21.3411 26.7372 21.4649 26.7228 21.5787 26.6773C21.6926 26.6319 21.7926 26.557 21.8686 26.4601C21.9447 26.3633 21.9941 26.248 22.0118 26.1258C22.0281 26.004 22.0131 25.8799 21.9682 25.7656C21.9233 25.6513 21.85 25.5505 21.7553 25.473Z" fill="#FAA821"/>
<path fill-rule="evenodd" clip-rule="evenodd" d="M13.5577 26.7953C13.6644 26.5952 13.7176 26.3706 13.7121 26.1435C13.7067 25.9165 13.6428 25.6947 13.5267 25.5001C13.3793 25.2561 13.1562 25.068 12.892 24.9649C12.6277 24.8618 12.3372 24.8496 12.0653 24.93C11.7935 25.0105 11.5556 25.1792 11.3885 25.4099C11.2215 25.6407 11.1346 25.9206 11.1415 26.2061C11.1483 26.4917 11.2485 26.767 11.4264 26.9894C11.6042 27.2117 11.8499 27.3686 12.1253 27.4358C12.4007 27.5029 12.6904 27.4766 12.9494 27.3607C13.2084 27.2449 13.4222 27.0462 13.5577 26.7953Z" fill="#FAA821"/>
<path fill-rule="evenodd" clip-rule="evenodd" d="M18.3911 26.958C18.3569 26.7912 18.2802 26.6363 18.1684 26.5087C18.0567 26.381 17.9138 26.285 17.754 26.23C17.5936 26.1757 17.4218 26.1648 17.2559 26.1986C17.09 26.2324 16.9359 26.3097 16.809 26.4226C16.6821 26.5355 16.587 26.6801 16.5331 26.8418C16.4792 27.0036 16.4685 27.1768 16.502 27.344C16.5356 27.5113 16.6122 27.6667 16.7242 27.7946C16.8362 27.9225 16.9796 28.0184 17.1401 28.0727C17.3005 28.127 17.4723 28.1378 17.6381 28.1039C17.804 28.0701 17.9581 27.9928 18.0849 27.8798C18.2112 27.7664 18.3059 27.6217 18.3596 27.46C18.4134 27.2982 18.4242 27.1252 18.3911 26.958Z" fill="#FAA821"/>
<path fill-rule="evenodd" clip-rule="evenodd" d="M23.3305 26.7474C23.1988 26.6405 23.0414 26.5708 22.8743 26.5451C22.7071 26.5195 22.5363 26.5389 22.379 26.6014C22.2204 26.6632 22.0808 26.7662 21.9746 26.9001C21.8683 27.034 21.7992 27.1938 21.7741 27.3634C21.7491 27.533 21.7691 27.7063 21.8322 27.8655C21.8952 28.0248 21.9989 28.1643 22.1328 28.27C22.2646 28.3768 22.422 28.4466 22.5891 28.4722C22.7562 28.4979 22.9271 28.4785 23.0844 28.416C23.243 28.3542 23.3826 28.2511 23.4888 28.1173C23.5951 27.9834 23.6642 27.8235 23.6892 27.6539C23.7143 27.4843 23.6942 27.3111 23.6312 27.1518C23.5682 26.9926 23.4645 26.853 23.3305 26.7474Z" fill="#FAA821"/>
<path fill-rule="evenodd" clip-rule="evenodd" d="M25.987 28.1572C25.8552 28.0517 25.7042 27.9735 25.5424 27.9269C25.3807 27.8803 25.2114 27.8663 25.0443 27.8856C24.7068 27.9248 24.3986 28.0975 24.1873 28.3657C23.9761 28.634 23.8793 28.9759 23.9181 29.3162C23.9568 29.6565 24.1281 29.9674 24.3942 30.1803C24.5691 30.3232 24.7785 30.4165 25.001 30.4506C25.2236 30.4847 25.4511 30.4584 25.6601 30.3743C25.8689 30.2893 26.0521 30.1509 26.1918 29.9728C26.3314 29.7947 26.4226 29.583 26.4565 29.3585C26.4902 29.1343 26.4645 28.9051 26.382 28.6942C26.2996 28.4832 26.1633 28.298 25.987 28.1572Z" fill="#FAA821"/>
<path fill-rule="evenodd" clip-rule="evenodd" d="M19.5279 29.7528C19.4719 29.474 19.3265 29.2217 19.114 29.0347C18.9015 28.8478 18.6338 28.7366 18.3524 28.7186C18.0709 28.7005 17.7914 28.7764 17.5571 28.9347C17.3228 29.0929 17.1467 29.3246 17.0562 29.5939C16.9656 29.8632 16.9656 30.1551 17.0562 30.4244C17.1468 30.6937 17.3229 30.9254 17.5572 31.0836C17.7916 31.2418 18.0711 31.3177 18.3526 31.2996C18.634 31.2815 18.9017 31.1703 19.1141 30.9833C19.2843 30.833 19.4122 30.6401 19.4848 30.424C19.5574 30.208 19.5723 29.9764 19.5279 29.7528Z" fill="#FAA821"/>
<path fill-rule="evenodd" clip-rule="evenodd" d="M13.0947 30.7937C13.2367 30.5269 13.3076 30.2274 13.3004 29.9247C13.2931 29.6219 13.208 29.3263 13.0533 29.0667C12.8568 28.7416 12.5594 28.491 12.2073 28.3537C11.8551 28.2164 11.4679 28.2001 11.1056 28.3074C10.7433 28.4147 10.4263 28.6395 10.2037 28.947C9.98112 29.2545 9.86541 29.6275 9.87452 30.0081C9.88364 30.3887 10.0171 30.7556 10.2541 31.052C10.4912 31.3483 10.8186 31.5574 11.1856 31.647C11.5526 31.7365 11.9386 31.7014 12.2838 31.5471C12.629 31.3928 12.914 31.128 13.0947 30.7937Z" fill="#FAA821"/>
<path fill-rule="evenodd" clip-rule="evenodd" d="M29.8101 29.3044C29.5161 29.0663 29.1523 28.9327 28.7753 28.9244C28.3983 28.916 28.0291 29.0333 27.725 29.2582C27.4208 29.483 27.1988 29.8027 27.0933 30.1678C26.9878 30.5328 27.0047 30.9228 27.1415 31.2772C27.2782 31.6315 27.5271 31.9305 27.8496 32.1276C28.1721 32.3248 28.55 32.4091 28.9249 32.3675C29.2997 32.326 29.6505 32.1608 29.9228 31.8978C30.195 31.6347 30.3736 31.2883 30.4307 30.9125C30.4768 30.6131 30.4437 30.3067 30.3348 30.0243C30.2258 29.742 30.0448 29.4936 29.8101 29.3044Z" fill="#FAA821"/>
<path fill-rule="evenodd" clip-rule="evenodd" d="M21.7186 33.1191C21.6598 32.8216 21.524 32.545 21.3249 32.3175C21.1258 32.09 20.8705 31.9197 20.585 31.8239C20.2993 31.7294 19.9942 31.7117 19.6996 31.7724C19.4051 31.8331 19.1313 31.9702 18.9053 32.1701C18.6829 32.3712 18.5165 32.6275 18.4226 32.9135C18.3288 33.1995 18.3108 33.5053 18.3704 33.8005C18.43 34.0956 18.5651 34.37 18.7624 34.5962C18.9596 34.8225 19.2121 34.9927 19.4949 35.0902C19.7802 35.1845 20.085 35.2021 20.3792 35.1414C20.6734 35.0807 20.9468 34.9437 21.1725 34.7439C21.3992 34.5448 21.5693 34.2883 21.6653 34.001C21.7613 33.7136 21.7797 33.4056 21.7186 33.1087V33.1191Z" fill="#FAA821"/>
<path fill-rule="evenodd" clip-rule="evenodd" d="M18.4895 20.3608C18.5609 20.7264 18.7274 21.0663 18.972 21.3456C19.2167 21.6249 19.5306 21.8336 19.8816 21.9501C20.2325 22.0687 20.6081 22.0926 20.971 22.0194C21.3339 21.9462 21.6715 21.7785 21.9502 21.533C22.2268 21.2865 22.434 20.9708 22.551 20.6177C22.668 20.2647 22.6906 19.8868 22.6166 19.5221C22.5425 19.1575 22.3744 18.819 22.1292 18.5407C21.884 18.2624 21.5704 18.0543 21.22 17.9372C20.8691 17.8182 20.4934 17.7942 20.1305 17.8674C19.7675 17.9406 19.4299 18.1085 19.1514 18.3544C18.8737 18.5991 18.6653 18.9138 18.5475 19.2663C18.4298 19.6188 18.4069 19.9965 18.4812 20.3608H18.4895Z" fill="white"/>
</g>
<defs>
<clipPath id="clip0">
<rect width="117.273" height="40" fill="white" transform="translate(0.862793)"/>
</clipPath>
</defs>
</svg>
