<svg width="23" height="16" viewBox="0 0 23 16" fill="none" xmlns="http://www.w3.org/2000/svg">
<path d="M6.06066 11H4.89066V4.33H6.06066V11ZM10.2386 11H9.06855V5.36H7.04855V4.33H12.2586V5.36H10.2386V11ZM18.41 11H17.06L15.58 8.51H14.42V11H13.25V4.33H16.18C16.8334 4.33 17.36 4.52333 17.76 4.91C18.16 5.29667 18.36 5.8 18.36 6.42C18.36 6.98 18.2067 7.43 17.9 7.77C17.5934 8.10333 17.22 8.30667 16.78 8.38L18.41 11ZM16.02 7.48C16.3534 7.48 16.6267 7.38333 16.84 7.19C17.0534 6.99667 17.16 6.74 17.16 6.42C17.16 6.1 17.0534 5.84333 16.84 5.65C16.6267 5.45667 16.3534 5.36 16.02 5.36H14.42V7.48H16.02Z" fill="#676767"/>
<rect x="0.5" y="0.5" width="22" height="15" rx="1.5" stroke="#676767"/>
</svg>
