<svg width="118" height="40" viewBox="0 0 118 40" fill="none" xmlns="http://www.w3.org/2000/svg">
<g clip-path="url(#clip0)">
<path d="M11.5488 4.69052C10.9411 5.16939 10.1727 5.3914 9.40579 5.30967C8.63886 5.22795 7.93345 4.84888 7.43854 4.25252C7.16825 4.47639 6.89519 4.69956 6.61938 4.92204C7.0593 5.46703 7.29562 6.15037 7.28717 6.85301C7.27872 7.55564 7.02604 8.23301 6.57315 8.76709C6.12026 9.30116 5.49589 9.65809 4.80882 9.77567C4.12174 9.89324 3.41552 9.76402 2.81323 9.41051C2.6312 9.70877 2.45745 10.0133 2.28782 10.322C2.8862 10.6813 3.34054 11.241 3.57167 11.9035C3.8028 12.5659 3.79605 13.2892 3.55261 13.9471C3.30916 14.6051 2.84446 15.1561 2.23948 15.504C1.6345 15.852 0.92762 15.9748 0.242018 15.8512C0.169618 16.1975 0.107567 16.5437 0.0537845 16.8941C0.739133 17.0255 1.35691 17.3955 1.79927 17.9395C2.24163 18.4834 2.48045 19.1667 2.47405 19.8701C2.46765 20.5735 2.21642 21.2523 1.76423 21.788C1.31204 22.3236 0.687626 22.6821 0 22.8009C0.0496454 23.1533 0.109631 23.5037 0.177893 23.8437C0.865059 23.7271 1.57101 23.8582 2.17193 24.2139C2.77286 24.5696 3.23041 25.1273 3.46434 25.7891C3.69827 26.4509 3.69365 27.1747 3.45129 27.8334C3.20893 28.4922 2.74431 29.0439 2.13889 29.3917C2.30162 29.7046 2.47468 30.0112 2.65809 30.3116C3.26661 29.97 3.97466 29.8543 4.659 29.9848C5.34335 30.1152 5.96065 30.4835 6.40349 31.0255C6.84632 31.5676 7.08666 32.249 7.08264 32.9512C7.07862 33.6534 6.8305 34.332 6.38149 34.8689C6.64006 35.1025 6.90485 35.3319 7.17583 35.553C7.63053 35.0198 8.25648 34.6645 8.94445 34.5491C9.63243 34.4337 10.3388 34.5656 10.9402 34.9216C11.5416 35.2777 11.9999 35.8354 12.2351 36.4975C12.4703 37.1595 12.4675 37.8837 12.2272 38.5439C12.5472 38.676 12.8733 38.7991 13.2057 38.9131C13.4513 38.2542 13.9189 37.7035 14.5267 37.3573C15.1344 37.011 15.8436 36.8913 16.5301 37.0191C17.2165 37.1469 17.8365 37.514 18.2816 38.0563C18.7266 38.5985 18.9684 39.2813 18.9645 39.9851C19.3141 39.9977 19.6637 39.9997 19.9988 39.9851C20.007 39.2816 20.2601 38.6034 20.7139 38.0688C21.1676 37.5343 21.7932 37.1775 22.4813 37.0608C23.1694 36.944 23.8763 37.0747 24.4786 37.4301C25.0809 37.7854 25.5402 38.3428 25.7763 39.0048C26.1114 38.8936 26.4431 38.7747 26.7713 38.6482C26.5379 37.9856 26.5436 37.2612 26.7872 36.6024C27.0309 35.9435 27.497 35.3923 28.1036 35.0455C28.7103 34.6987 29.4187 34.5785 30.1045 34.706C30.7903 34.8335 31.4096 35.2006 31.8537 35.7428C32.1288 35.5342 32.3998 35.3027 32.6625 35.0712C32.2198 34.5265 31.9811 33.8422 31.9882 33.1381C31.9953 32.4339 32.2478 31.7546 32.7014 31.2192C33.155 30.6837 33.781 30.3262 34.4697 30.209C35.1583 30.0919 35.8659 30.2227 36.4687 30.5785C36.6521 30.2823 36.8286 29.9799 36.9982 29.6712C36.3957 29.314 35.9373 28.7542 35.7033 28.0901C35.4693 27.426 35.4747 26.7 35.7185 26.0396C35.9624 25.3791 36.4291 24.8263 37.0368 24.4782C37.6445 24.13 38.3544 24.0088 39.042 24.1357C39.1143 23.7895 39.1764 23.4433 39.2302 23.0929C38.7043 22.9908 38.2153 22.7477 37.8149 22.3891C37.4145 22.0305 37.1173 21.5697 36.9548 21.0551H35.062C34.8456 24.1866 33.6962 27.1792 31.7643 29.6409C29.8325 32.1026 27.2083 33.9185 24.2355 34.8509C21.2627 35.7833 18.08 35.7887 15.1041 34.8662C12.1283 33.9438 9.49814 32.1367 7.55818 29.6815C5.61822 27.2263 4.45891 24.2376 4.23212 21.1068C4.00533 17.9761 4.72163 14.8492 6.28718 12.1359C7.85274 9.42252 10.1946 7.2492 13.0059 5.90059C15.8172 4.55197 18.967 4.09095 22.0425 4.57789V2.71743C21.5278 2.47443 21.0927 2.08811 20.7885 1.60401C20.4843 1.11991 20.3237 0.558212 20.3256 -0.0148735C19.9761 -0.0273879 19.6265 -0.0315593 19.2914 -0.0148735C19.2827 0.688483 19.0293 1.36642 18.5753 1.90057C18.1214 2.43472 17.4959 2.79116 16.8079 2.90764C16.1199 3.02413 15.4132 2.89327 14.8111 2.5379C14.2091 2.18254 13.75 1.62525 13.5139 0.963331C13.1788 1.07387 12.8499 1.19902 12.521 1.32625C12.7243 1.9147 12.7404 2.55243 12.5673 3.1506C12.3941 3.74877 12.0403 4.2776 11.555 4.6634L11.5488 4.69052Z" fill="white"/>
<path d="M31.1743 19.8582H28.4748V11.6801H25.5396V9.3024H34.0951V11.6801H31.1743V19.8624V19.8582ZM44.3138 19.8582H41.2109L39.4527 16.3125H38.0709V19.8582H35.3735V9.3024H40.6173C41.7467 9.3024 42.6362 9.63472 43.2857 10.2994C43.6073 10.6311 43.8593 11.0248 44.0263 11.4571C44.1934 11.8893 44.2722 12.3511 44.2579 12.8148C44.2925 13.4984 44.1083 14.1751 43.7326 14.7451C43.3568 15.3152 42.8092 15.7484 42.1707 15.9809L44.3055 19.8582H44.3138ZM40.216 13.939C40.55 13.9497 40.8774 13.8436 41.1427 13.6386C41.2661 13.5393 41.3646 13.4119 41.43 13.2669C41.4954 13.122 41.526 12.9635 41.5192 12.8043C41.5255 12.6468 41.4947 12.4899 41.4292 12.3467C41.3638 12.2035 41.2656 12.078 41.1427 11.9805C40.8774 11.7755 40.55 11.6694 40.216 11.6801H38.0812V13.9431L40.216 13.939ZM55.937 19.8582H52.8693L52.3501 18.3398H48.213L47.6959 19.8582H44.6344L48.575 9.3024H51.9654L55.9205 19.8582H55.937ZM51.6116 15.9642L50.2774 12.0013L48.9432 15.9642H51.6116ZM61.3339 20.048C59.7121 20.048 58.362 19.5391 57.2836 18.5213C56.2052 17.5035 55.666 16.1922 55.666 14.5876C55.666 12.9733 56.2025 11.66 57.2754 10.6477C58.3483 9.63541 59.7011 9.12859 61.3339 9.1272C63.4369 9.1272 64.9594 10.072 65.9012 11.9617L63.5783 13.0692C63.3926 12.6266 63.0846 12.2471 62.6908 11.9763C62.2961 11.6882 61.8211 11.5334 61.3339 11.5341C60.9428 11.5221 60.5536 11.5942 60.1923 11.7456C59.831 11.897 59.5058 12.1242 59.2384 12.4122C58.7069 13.0105 58.413 13.7855 58.413 14.5887C58.413 15.3919 58.7069 16.1668 59.2384 16.7651C59.5061 17.0528 59.8313 17.2798 60.1926 17.4312C60.5538 17.5826 60.9428 17.6549 61.3339 17.6432C61.8215 17.6442 62.2968 17.4886 62.6908 17.199C63.0843 16.9287 63.3923 16.55 63.5783 16.1081L65.9012 17.2156C65.5015 18.0202 64.9111 18.713 64.1823 19.2325C63.4335 19.7762 62.484 20.048 61.3339 20.048ZM76.5274 19.8582H73.2177L70.4707 15.8954L69.7653 16.7797V19.8666H67.0638V9.3024H69.7653V13.6386L72.9819 9.3024H76.3102L72.2455 14.2393L76.5295 19.8582H76.5274ZM86.3076 20.048C84.6748 20.048 83.4398 19.642 82.6028 18.83C81.7657 18.0179 81.3472 16.9361 81.3472 15.5846V9.3024H84.0942V15.4907C84.0815 15.7759 84.1257 16.0607 84.2241 16.3283C84.3225 16.5959 84.4732 16.8409 84.6672 17.0488C85.0478 17.4451 85.596 17.6432 86.3076 17.6432C87.0191 17.6432 87.5487 17.4346 87.9314 17.0488C88.1254 16.8409 88.2761 16.5959 88.3745 16.3283C88.4729 16.0607 88.5171 15.7759 88.5044 15.4907V9.3024H91.2245V15.5596C91.2245 16.9195 90.8108 18.0061 89.9834 18.8196C89.156 19.633 87.9293 20.039 86.3034 20.0376L86.3076 20.048ZM102.856 19.8582H100.25L95.8229 13.7492V19.8582H93.1338V9.3024H95.9119L100.15 15.1111V9.3024H102.866V19.8582H102.856ZM107.44 19.8582H104.751V9.3024H107.44V19.8582ZM114.361 19.8582H111.672V11.6801H108.737V9.3024H117.292V11.6801H114.372V19.8624L114.361 19.8582Z" fill="white"/>
<path fill-rule="evenodd" clip-rule="evenodd" d="M18.5626 6.88299C18.6207 7.18082 18.7563 7.45771 18.9555 7.6853C19.1547 7.91289 19.4103 8.08301 19.6961 8.17823C19.9818 8.27271 20.287 8.29048 20.5815 8.22976C20.8761 8.16904 21.1498 8.03195 21.3758 7.832C21.5988 7.6312 21.7658 7.37497 21.86 7.08885C21.9542 6.80272 21.9724 6.4967 21.9127 6.20128C21.8531 5.90585 21.7177 5.63135 21.5201 5.40513C21.3224 5.17891 21.0694 5.00888 20.7863 4.91198C20.5012 4.81677 20.1963 4.79844 19.902 4.85881C19.6077 4.91919 19.3342 5.05616 19.1087 5.25613C18.8824 5.45569 18.7127 5.71217 18.6167 5.99942C18.5208 6.28667 18.5021 6.59443 18.5626 6.89134V6.88299Z" fill="white"/>
<path fill-rule="evenodd" clip-rule="evenodd" d="M10.4737 10.6956C10.7677 10.9337 11.1315 11.0673 11.5085 11.0756C11.8855 11.084 12.2547 10.9666 12.5588 10.7418C12.863 10.517 13.085 10.1972 13.1905 9.83219C13.296 9.46713 13.2791 9.07717 13.1423 8.72282C13.0056 8.36846 12.7567 8.06951 12.4342 7.87235C12.1117 7.6752 11.7338 7.59086 11.3589 7.63242C10.9841 7.67398 10.6333 7.83912 10.361 8.10221C10.0888 8.3653 9.91024 8.71165 9.85312 9.0875C9.80848 9.38683 9.84226 9.69273 9.95112 9.97483C10.06 10.2569 10.2401 10.5054 10.4737 10.6956Z" fill="white"/>
<path fill-rule="evenodd" clip-rule="evenodd" d="M20.755 10.2472C20.8109 10.5259 20.9564 10.7783 21.1689 10.9653C21.3814 11.1522 21.6491 11.2633 21.9305 11.2814C22.212 11.2995 22.4915 11.2235 22.7258 11.0653C22.9601 10.9071 23.1362 10.6754 23.2267 10.406C23.3172 10.1367 23.3172 9.84485 23.2266 9.57556C23.1361 9.30627 22.96 9.07459 22.7256 8.91638C22.4913 8.75817 22.2118 8.68226 21.9303 8.70039C21.6489 8.71851 21.3812 8.82967 21.1688 9.01666C20.9986 9.16699 20.8707 9.35991 20.7981 9.57595C20.7254 9.792 20.7106 10.0235 20.755 10.2472Z" fill="white"/>
<path fill-rule="evenodd" clip-rule="evenodd" d="M14.295 11.849C14.47 11.9922 14.6798 12.0858 14.9026 12.1203C15.1255 12.1547 15.3534 12.1288 15.563 12.045C15.7712 11.9591 15.9539 11.8205 16.0934 11.6425C16.2329 11.4646 16.3245 11.2534 16.3594 11.0293C16.3926 10.8048 16.3666 10.5755 16.2842 10.3643C16.2018 10.1531 16.0658 9.96739 15.8898 9.82586C15.7139 9.68434 15.5041 9.59192 15.2816 9.55787C15.059 9.52382 14.8315 9.54933 14.6218 9.63185C14.413 9.71689 14.2298 9.85527 14.0902 10.0334C13.9505 10.2115 13.8593 10.4231 13.8254 10.6476C13.7918 10.8718 13.8175 11.101 13.8999 11.312C13.9824 11.5229 14.1187 11.7082 14.295 11.849Z" fill="white"/>
<path fill-rule="evenodd" clip-rule="evenodd" d="M16.9634 13.2527C17.0949 13.3599 17.2524 13.43 17.4196 13.4556C17.5868 13.4813 17.7577 13.4616 17.9149 13.3987C18.0736 13.3369 18.2131 13.2339 18.3194 13.1C18.4256 12.9661 18.4948 12.8063 18.5198 12.6367C18.5448 12.4671 18.5248 12.2938 18.4618 12.1346C18.3988 11.9753 18.295 11.8358 18.1611 11.7301C18.0294 11.6233 17.872 11.5535 17.7048 11.5278C17.5377 11.5022 17.3668 11.5216 17.2096 11.5841C17.0509 11.6459 16.9114 11.749 16.8051 11.8828C16.6989 12.0167 16.6297 12.1766 16.6047 12.3461C16.5797 12.5157 16.5997 12.689 16.6627 12.8482C16.7257 13.0075 16.8295 13.147 16.9634 13.2527Z" fill="white"/>
<path fill-rule="evenodd" clip-rule="evenodd" d="M21.8977 13.0483C21.9408 13.2571 22.051 13.4458 22.2113 13.5851C22.3715 13.7243 22.5728 13.8065 22.784 13.8187C22.9953 13.831 23.2046 13.7727 23.3796 13.6529C23.5547 13.5331 23.6856 13.3584 23.7522 13.1559C23.8189 12.9535 23.8174 12.7345 23.7482 12.5329C23.6789 12.3314 23.5457 12.1585 23.3691 12.041C23.1925 11.9235 22.9824 11.868 22.7714 11.883C22.5604 11.8981 22.3601 11.9829 22.2017 12.1243C22.0748 12.2376 21.9798 12.3828 21.9264 12.545C21.873 12.7073 21.8631 12.8809 21.8977 13.0483Z" fill="white"/>
<path fill-rule="evenodd" clip-rule="evenodd" d="M18.5375 14.5269C18.6334 14.6016 18.747 14.6498 18.867 14.6667C18.987 14.6836 19.1093 14.6687 19.2219 14.6235C19.3344 14.5782 19.4334 14.5041 19.5089 14.4085C19.5844 14.313 19.6339 14.1992 19.6525 14.0785C19.669 13.9566 19.654 13.8325 19.6091 13.7181C19.5642 13.6038 19.4908 13.503 19.396 13.4256C19.3 13.3488 19.1857 13.2989 19.0646 13.2808C18.9434 13.2627 18.8197 13.2771 18.7058 13.3226C18.5919 13.368 18.492 13.4429 18.4159 13.5398C18.3399 13.6366 18.2905 13.7519 18.2727 13.8741C18.2568 13.9959 18.272 14.1198 18.3169 14.2341C18.3618 14.3483 18.4349 14.4491 18.5292 14.5269H18.5375Z" fill="white"/>
<path fill-rule="evenodd" clip-rule="evenodd" d="M22.2997 15.0444C22.3303 15.195 22.4094 15.3313 22.5246 15.432C22.6399 15.5327 22.7849 15.5923 22.9371 15.6015C23.0894 15.6107 23.2404 15.569 23.3667 15.4828C23.4931 15.3967 23.5877 15.2709 23.6359 15.125C23.6842 14.9791 23.6833 14.8212 23.6335 14.6759C23.5837 14.5305 23.4877 14.4058 23.3604 14.321C23.2332 14.2363 23.0817 14.1962 22.9296 14.2071C22.7774 14.2179 22.6331 14.2791 22.5189 14.3811C22.4275 14.4622 22.359 14.5664 22.3205 14.6829C22.282 14.7994 22.2748 14.9241 22.2997 15.0444Z" fill="white"/>
<path fill-rule="evenodd" clip-rule="evenodd" d="M19.4966 15.7243C19.5733 15.7868 19.665 15.8278 19.7624 15.843C19.8599 15.8582 19.9596 15.8471 20.0514 15.8109C20.1432 15.7747 20.2239 15.7146 20.2852 15.6367C20.3466 15.5589 20.3863 15.466 20.4006 15.3676C20.4168 15.269 20.4062 15.1678 20.3697 15.0748C20.3333 14.9819 20.2724 14.9007 20.1937 14.8399C20.1172 14.7765 20.0252 14.735 19.9273 14.7196C19.8295 14.7042 19.7293 14.7155 19.6373 14.7523C19.5457 14.7892 19.4654 14.8496 19.4042 14.9275C19.343 15.0055 19.3031 15.0982 19.2885 15.1964C19.2739 15.2947 19.285 15.3952 19.3208 15.4878C19.3565 15.5804 19.4157 15.6619 19.4925 15.7243H19.4966Z" fill="white"/>
<path fill-rule="evenodd" clip-rule="evenodd" d="M15.3225 16.5649C15.4138 16.5628 15.5038 16.5427 15.5873 16.5055C15.6709 16.4684 15.7464 16.4151 15.8095 16.3485C15.8726 16.282 15.922 16.2036 15.9551 16.1178C15.9881 16.032 16.0041 15.9404 16.0021 15.8484C16 15.7564 15.98 15.6657 15.9432 15.5814C15.9064 15.4972 15.8535 15.4211 15.7875 15.3575C15.7215 15.2938 15.6438 15.2439 15.5587 15.2106C15.4736 15.1773 15.3828 15.1612 15.2915 15.1633C15.1072 15.1674 14.932 15.2452 14.8046 15.3796C14.6772 15.5139 14.6079 15.6938 14.612 15.8797C14.6161 16.0656 14.6933 16.2422 14.8265 16.3707C14.9598 16.4992 15.1382 16.569 15.3225 16.5649Z" fill="white"/>
<path fill-rule="evenodd" clip-rule="evenodd" d="M13.3017 16.6191C13.4722 16.6184 13.6394 16.5708 13.7851 16.4815C13.9309 16.3922 14.0498 16.2646 14.1291 16.1123C14.2089 15.9623 14.2483 15.7939 14.2436 15.6238C14.2389 15.4536 14.1901 15.2877 14.1022 15.1424C14.0143 14.9986 13.8906 14.8806 13.7433 14.8001C13.596 14.7196 13.4304 14.6794 13.2629 14.6837C13.0954 14.6879 12.932 14.7363 12.7889 14.8241C12.6458 14.912 12.528 15.0361 12.4474 15.1842C12.367 15.3344 12.3272 15.5032 12.3319 15.6738C12.3366 15.8443 12.3857 16.0107 12.4742 16.1561C12.5617 16.3017 12.6859 16.4213 12.8342 16.5026C12.9825 16.584 13.1495 16.6242 13.3182 16.6191H13.3017Z" fill="white"/>
<path fill-rule="evenodd" clip-rule="evenodd" d="M16.8252 16.8631C16.9243 16.8597 17.0207 16.8304 17.1052 16.7781C17.1897 16.7258 17.2593 16.6523 17.3072 16.5648C17.3528 16.4774 17.375 16.3795 17.3717 16.2807C17.3684 16.182 17.3397 16.0858 17.2883 16.0016C17.237 15.9174 17.1648 15.8482 17.0789 15.8006C16.993 15.7531 16.8963 15.729 16.7983 15.7305C16.6995 15.7331 16.6032 15.7618 16.5189 15.8138C16.4347 15.8658 16.3655 15.9393 16.3183 16.0268C16.2711 16.1143 16.2476 16.2128 16.2502 16.3124C16.2527 16.412 16.2813 16.5091 16.3329 16.594C16.3836 16.6793 16.456 16.7494 16.5425 16.797C16.629 16.8447 16.7266 16.8682 16.8252 16.8652V16.8631Z" fill="white"/>
<path fill-rule="evenodd" clip-rule="evenodd" d="M20.0997 16.8296C20.1584 16.8772 20.2286 16.9082 20.303 16.9195C20.3775 16.9308 20.4536 16.9221 20.5236 16.8941C20.5936 16.8661 20.6549 16.8199 20.7015 16.7602C20.748 16.7006 20.7781 16.6295 20.7885 16.5543C20.8008 16.48 20.7928 16.4037 20.7655 16.3335C20.7382 16.2634 20.6925 16.202 20.6334 16.156C20.5747 16.1084 20.5045 16.0774 20.4301 16.0661C20.3556 16.0548 20.2795 16.0635 20.2095 16.0915C20.1395 16.1195 20.0781 16.1657 20.0316 16.2253C19.985 16.285 19.955 16.3561 19.9445 16.4313C19.9323 16.5056 19.9403 16.5819 19.9676 16.652C19.9949 16.7222 20.0406 16.7836 20.0997 16.8296Z" fill="white"/>
<path fill-rule="evenodd" clip-rule="evenodd" d="M22.2741 16.5878C22.2942 16.6852 22.3392 16.7756 22.4047 16.85C22.4702 16.9244 22.5538 16.9802 22.6474 17.0119C22.7409 17.0435 22.841 17.0499 22.9378 17.0304C23.0345 17.0109 23.1245 16.9662 23.1988 16.9007C23.2728 16.8343 23.3282 16.7495 23.3595 16.6547C23.3907 16.5599 23.3967 16.4585 23.3768 16.3607C23.3568 16.2628 23.3118 16.172 23.246 16.0973C23.1803 16.0226 23.0962 15.9666 23.0023 15.935C22.9085 15.9029 22.8081 15.8965 22.711 15.9162C22.614 15.936 22.524 15.9814 22.45 16.0476C22.3771 16.1149 22.3227 16.1999 22.2919 16.2945C22.2611 16.3891 22.255 16.4901 22.2741 16.5878Z" fill="white"/>
<path fill-rule="evenodd" clip-rule="evenodd" d="M10.3727 17.2677C10.6558 17.2614 10.9288 17.1611 11.1497 16.9824C11.3705 16.8037 11.5266 16.5565 11.594 16.2792C11.6613 16.002 11.6361 15.71 11.5222 15.4487C11.4082 15.1873 11.212 14.9711 10.9638 14.8337C10.7157 14.6962 10.4295 14.6451 10.1496 14.6883C9.86976 14.7315 9.61184 14.8665 9.41582 15.0725C9.21981 15.2785 9.09665 15.544 9.06545 15.8277C9.03426 16.1115 9.09675 16.3976 9.24326 16.6419C9.36033 16.8372 9.52639 16.9978 9.72468 17.1077C9.92297 17.2175 10.1465 17.2727 10.3727 17.2677Z" fill="white"/>
<path fill-rule="evenodd" clip-rule="evenodd" d="M17.9982 17.322C18.0732 17.319 18.1461 17.2965 18.2099 17.2567C18.2737 17.2169 18.3262 17.161 18.3622 17.0947C18.3994 17.0284 18.418 16.9531 18.4158 16.877C18.4136 16.8009 18.3908 16.7269 18.3498 16.6629C18.3124 16.5974 18.2579 16.5433 18.1923 16.5066C18.1267 16.4699 18.0525 16.4518 17.9775 16.4543C17.9027 16.4571 17.8299 16.4793 17.7661 16.5187C17.7023 16.5582 17.6497 16.6136 17.6134 16.6796C17.5744 16.7447 17.5537 16.8194 17.5537 16.8955C17.5537 16.9716 17.5744 17.0462 17.6134 17.1113C17.6522 17.1761 17.7072 17.2295 17.7729 17.2661C17.8387 17.3028 17.9128 17.3213 17.9878 17.3199L17.9982 17.322Z" fill="white"/>
<path fill-rule="evenodd" clip-rule="evenodd" d="M22.0267 17.8225C22.0413 17.8968 22.0751 17.9659 22.1246 18.0228C22.1742 18.0797 22.2378 18.1224 22.309 18.1465C22.3801 18.1706 22.4564 18.1754 22.53 18.1602C22.6036 18.1451 22.6719 18.1106 22.728 18.0603C22.7834 18.0093 22.8247 17.9446 22.8478 17.8727C22.8709 17.8007 22.875 17.7239 22.8598 17.6498C22.8446 17.5758 22.8105 17.507 22.7609 17.4502C22.7113 17.3935 22.6479 17.3507 22.577 17.3261C22.5066 17.3019 22.431 17.2972 22.3582 17.3126C22.2854 17.328 22.218 17.363 22.1633 17.4137C22.1063 17.4651 22.0638 17.5307 22.0402 17.604C22.0166 17.6773 22.0127 17.7556 22.0288 17.8309L22.0267 17.8225Z" fill="white"/>
<path fill-rule="evenodd" clip-rule="evenodd" d="M6.70367 18.8635C7.15015 18.8413 7.57035 18.6441 7.87454 18.3138C8.17874 17.9835 8.34282 17.5464 8.33175 17.0958C8.32068 16.6452 8.13534 16.2169 7.81529 15.9022C7.49525 15.5875 7.06588 15.4114 6.61885 15.4116C6.17237 15.4338 5.75216 15.631 5.44797 15.9613C5.14377 16.2916 4.97969 16.7287 4.99076 17.1793C5.00183 17.6299 5.18719 18.0582 5.50723 18.3729C5.82727 18.6876 6.25665 18.8637 6.70367 18.8635Z" fill="white"/>
<path fill-rule="evenodd" clip-rule="evenodd" d="M16.681 19.0636C16.7396 19.0135 16.7832 18.9479 16.807 18.8742C16.8307 18.8006 16.8337 18.7217 16.8154 18.6464C16.8 18.5722 16.7658 18.5032 16.7162 18.4461C16.6665 18.3891 16.6031 18.346 16.532 18.321C16.4615 18.2981 16.3862 18.2941 16.3137 18.3095C16.2411 18.3248 16.1738 18.359 16.1183 18.4086C16.0614 18.46 16.0189 18.5256 15.9953 18.5989C15.9717 18.6722 15.9677 18.7505 15.9839 18.8258C15.9997 18.8999 16.034 18.9687 16.0836 19.0256C16.1332 19.0826 16.1964 19.1258 16.2673 19.1512C16.3378 19.1741 16.4131 19.1781 16.4857 19.1627C16.5582 19.1474 16.6255 19.1132 16.681 19.0636Z" fill="white"/>
<path fill-rule="evenodd" clip-rule="evenodd" d="M15.4988 19.4681C15.5728 19.4022 15.6281 19.3176 15.659 19.2231C15.6899 19.1285 15.6953 19.0273 15.6746 18.93C15.653 18.8339 15.6072 18.745 15.5416 18.6719C15.476 18.5989 15.3929 18.5441 15.3002 18.5128C15.2066 18.481 15.1064 18.4749 15.0097 18.495C14.913 18.5152 14.8233 18.5609 14.75 18.6275C14.677 18.6942 14.6224 18.7789 14.5915 18.8732C14.5607 18.9675 14.5547 19.0683 14.5741 19.1657C14.5936 19.2634 14.6383 19.3543 14.7038 19.4291C14.7692 19.5039 14.853 19.5599 14.9467 19.5917C15.0405 19.6234 15.1409 19.6296 15.2378 19.6098C15.3347 19.5899 15.4247 19.5446 15.4988 19.4785V19.4681Z" fill="white"/>
<path fill-rule="evenodd" clip-rule="evenodd" d="M14.1626 20.2191C14.2539 20.1377 14.3222 20.0334 14.3608 19.9169C14.3993 19.8003 14.4067 19.6755 14.3821 19.5551C14.3576 19.4348 14.302 19.3231 14.221 19.2313C14.1399 19.1395 14.0363 19.0709 13.9206 19.0324C13.8054 18.9925 13.6818 18.9845 13.5625 19.009C13.4432 19.0336 13.3325 19.0899 13.2421 19.1721C13.1141 19.2976 13.0391 19.468 13.0327 19.6478C13.0262 19.8277 13.0889 20.0031 13.2076 20.1375C13.3262 20.272 13.4918 20.3551 13.6697 20.3695C13.8476 20.3839 14.0242 20.3285 14.1626 20.215V20.2191Z" fill="white"/>
<path fill-rule="evenodd" clip-rule="evenodd" d="M16.7928 21.2496C16.805 21.1752 16.7971 21.0989 16.7697 21.0288C16.7424 20.9586 16.6968 20.8973 16.6376 20.8512C16.5808 20.8039 16.5125 20.7728 16.4398 20.7611C16.3671 20.7494 16.2925 20.7574 16.2239 20.7844C16.1546 20.8137 16.0937 20.8603 16.047 20.9198C16.0004 20.9792 15.9694 21.0496 15.9571 21.1244C15.9457 21.1991 15.9541 21.2755 15.9813 21.3458C16.0085 21.4162 16.0537 21.4781 16.1122 21.5253C16.1708 21.5725 16.2406 21.6032 16.3147 21.6145C16.3888 21.6258 16.4645 21.6172 16.5342 21.5895C16.6042 21.5613 16.6657 21.515 16.7125 21.4554C16.7593 21.3957 16.7899 21.3248 16.8011 21.2496H16.7928Z" fill="white"/>
<path fill-rule="evenodd" clip-rule="evenodd" d="M12.6483 21.5685C12.7465 21.4852 12.8272 21.383 12.8857 21.2678C12.9442 21.1526 12.9793 21.0268 12.9889 20.8978C12.9986 20.7688 12.9826 20.6391 12.9419 20.5164C12.9012 20.3937 12.8366 20.2804 12.7519 20.1832C12.6672 20.086 12.5641 20.0068 12.4486 19.9503C12.3332 19.8938 12.2077 19.8612 12.0796 19.8542C11.9514 19.8472 11.8232 19.8661 11.7024 19.9098C11.5816 19.9535 11.4707 20.021 11.3761 20.1085C11.2779 20.1918 11.1972 20.294 11.1387 20.4092C11.0802 20.5243 11.0451 20.6501 11.0354 20.7791C11.0258 20.9082 11.0418 21.0378 11.0825 21.1605C11.1232 21.2833 11.1878 21.3965 11.2725 21.4937C11.3572 21.5909 11.4603 21.6701 11.5757 21.7266C11.6912 21.7831 11.8167 21.8158 11.9448 21.8228C12.0729 21.8297 12.2012 21.8108 12.322 21.7672C12.4428 21.7235 12.5537 21.6559 12.6483 21.5685Z" fill="white"/>
<path fill-rule="evenodd" clip-rule="evenodd" d="M16.1487 22.3174C16.1634 22.2185 16.152 22.1175 16.1157 22.0245C16.0794 21.9315 16.0194 21.8498 15.9418 21.7876C15.8655 21.7245 15.7738 21.6833 15.6763 21.6682C15.5788 21.6532 15.479 21.6649 15.3875 21.702C15.2961 21.7387 15.2157 21.7987 15.1544 21.8763C15.0931 21.9538 15.0529 22.0462 15.0379 22.1442C15.0234 22.2427 15.0347 22.3432 15.0707 22.4359C15.1067 22.5286 15.1662 22.6101 15.2432 22.6723C15.3203 22.7346 15.4121 22.7754 15.5096 22.7907C15.6072 22.806 15.707 22.7953 15.7991 22.7595C15.8899 22.7223 15.9696 22.662 16.0305 22.5845C16.0914 22.507 16.1314 22.415 16.1466 22.3174H16.1487Z" fill="white"/>
<path fill-rule="evenodd" clip-rule="evenodd" d="M18.269 22.847C18.2296 22.7828 18.1744 22.7298 18.1089 22.6933C18.0433 22.6568 17.9695 22.6379 17.8946 22.6384C17.8197 22.642 17.747 22.6647 17.6833 22.7045C17.6196 22.7443 17.567 22.7998 17.5305 22.8658C17.4929 22.9314 17.4731 23.0059 17.4731 23.0817C17.4731 23.1574 17.4929 23.2319 17.5305 23.2975C17.5682 23.3634 17.6229 23.4176 17.6889 23.4544C17.7549 23.4912 17.8296 23.509 17.9049 23.5061C17.9797 23.5034 18.0525 23.4812 18.1163 23.4417C18.1801 23.4023 18.2327 23.3468 18.269 23.2808C18.308 23.2157 18.3287 23.1411 18.3287 23.065C18.3287 22.9889 18.308 22.9142 18.269 22.8491V22.847Z" fill="white"/>
<path fill-rule="evenodd" clip-rule="evenodd" d="M20.4178 23.116C20.3474 23.0928 20.2723 23.0885 20.1997 23.1035C20.1272 23.1185 20.0598 23.1523 20.0041 23.2015C19.9487 23.2525 19.9074 23.3172 19.8843 23.3892C19.8612 23.4611 19.8571 23.5379 19.8723 23.612C19.8875 23.686 19.9216 23.7548 19.9712 23.8116C20.0208 23.8683 20.0842 23.9111 20.1551 23.9357C20.2262 23.9593 20.3022 23.9636 20.3755 23.9482C20.4487 23.9327 20.5167 23.8981 20.5725 23.8478C20.6282 23.7975 20.6699 23.7332 20.6932 23.6615C20.7165 23.5898 20.7207 23.5132 20.7053 23.4393C20.6904 23.3651 20.6563 23.2962 20.6066 23.2394C20.5568 23.1827 20.4932 23.1401 20.422 23.116H20.4178Z" fill="white"/>
<path fill-rule="evenodd" clip-rule="evenodd" d="M10.8142 23.963C11.025 23.7744 11.1683 23.521 11.2217 23.242C11.2752 22.963 11.2358 22.674 11.1098 22.4198C10.9838 22.1657 10.7782 21.9605 10.5248 21.8362C10.2714 21.7119 9.98434 21.6753 9.70823 21.7322C9.43212 21.7891 9.18234 21.9362 8.9976 22.1508C8.81285 22.3653 8.70348 22.6354 8.68643 22.919C8.66938 23.2026 8.74561 23.484 8.9033 23.7195C9.06098 23.955 9.29132 24.1315 9.5586 24.2216C9.77192 24.2939 10.0004 24.3081 10.2209 24.2627C10.4414 24.2173 10.6461 24.1139 10.8142 23.963Z" fill="white"/>
<path fill-rule="evenodd" clip-rule="evenodd" d="M15.5948 23.7627C15.6137 23.6407 15.5998 23.5159 15.5547 23.4011C15.5096 23.2863 15.4349 23.1858 15.3383 23.1099C15.2422 23.0337 15.128 22.9843 15.007 22.9666C14.8861 22.9488 14.7626 22.9634 14.649 23.0087C14.5353 23.0541 14.4354 23.1287 14.3593 23.2252C14.2832 23.3216 14.2335 23.4365 14.2151 23.5583C14.1992 23.6801 14.2144 23.8041 14.2593 23.9183C14.3042 24.0325 14.3773 24.1333 14.4716 24.2111C14.5675 24.2879 14.6818 24.3379 14.803 24.356C14.9241 24.3741 15.0479 24.3597 15.1618 24.3142C15.2756 24.2688 15.3756 24.1938 15.4516 24.097C15.5277 24.0002 15.5771 23.8849 15.5948 23.7627Z" fill="white"/>
<path fill-rule="evenodd" clip-rule="evenodd" d="M18.4557 24.0922C18.4055 24.0071 18.3335 23.9371 18.2472 23.8898C18.1609 23.8424 18.0636 23.8194 17.9654 23.8232C17.8663 23.8251 17.7694 23.8536 17.6847 23.9056C17.6001 23.9576 17.5306 24.0314 17.4834 24.1193C17.4371 24.2072 17.4143 24.3057 17.4172 24.4052C17.4201 24.5047 17.4486 24.6017 17.5 24.6867C17.5501 24.7718 17.6222 24.8418 17.7084 24.8891C17.7947 24.9365 17.8921 24.9595 17.9902 24.9557C18.0894 24.9538 18.1862 24.9253 18.2709 24.8733C18.3556 24.8212 18.425 24.7475 18.4722 24.6595C18.5199 24.5721 18.5436 24.4734 18.5407 24.3736C18.5378 24.2738 18.5084 24.1767 18.4557 24.0922Z" fill="white"/>
<path fill-rule="evenodd" clip-rule="evenodd" d="M21.3609 23.9464C21.2668 23.9136 21.1659 23.9064 21.0682 23.9254C20.9706 23.9445 20.8796 23.9891 20.8044 24.0548C20.7316 24.1221 20.6772 24.2071 20.6464 24.3017C20.6156 24.3963 20.6094 24.4973 20.6286 24.595C20.6475 24.6934 20.6918 24.7851 20.7571 24.8607C20.8224 24.9363 20.9063 24.9932 21.0004 25.0256C21.0944 25.058 21.1953 25.0648 21.2929 25.0453C21.3904 25.0258 21.4811 24.9807 21.5557 24.9146C21.6304 24.8484 21.6865 24.7635 21.7182 24.6685C21.7499 24.5735 21.7562 24.4718 21.7365 24.3735C21.7167 24.2753 21.6715 24.1841 21.6056 24.1091C21.5397 24.0341 21.4552 23.9779 21.3609 23.9464Z" fill="white"/>
<path fill-rule="evenodd" clip-rule="evenodd" d="M22.669 24.7409C22.5539 24.701 22.4302 24.693 22.3109 24.7175C22.1916 24.7421 22.081 24.7984 21.9906 24.8806C21.8757 24.9828 21.7976 25.1203 21.7682 25.2718C21.7389 25.4234 21.76 25.5804 21.8283 25.7186C21.8966 25.8568 22.0082 25.9684 22.1459 26.036C22.2835 26.1037 22.4395 26.1236 22.5895 26.0927C22.7395 26.0618 22.8752 25.9818 22.9756 25.8652C23.0759 25.7485 23.1352 25.6017 23.1442 25.4476C23.1533 25.2935 23.1116 25.1406 23.0257 25.0128C22.9398 24.885 22.8144 24.7894 22.669 24.7409Z" fill="white"/>
<path fill-rule="evenodd" clip-rule="evenodd" d="M15.3093 25.7815C15.3325 25.6135 15.3118 25.4423 15.2492 25.2848C15.1866 25.1273 15.0843 24.9891 14.9524 24.8837C14.8206 24.7784 14.6637 24.7095 14.4973 24.6841C14.331 24.6587 14.1609 24.6775 14.004 24.7387C13.8454 24.8005 13.7058 24.9035 13.5996 25.0374C13.4933 25.1712 13.4242 25.3311 13.3991 25.5007C13.3741 25.6703 13.3941 25.8435 13.4572 26.0028C13.5202 26.162 13.6239 26.3016 13.7578 26.4072C13.8896 26.5141 14.047 26.5839 14.2141 26.6095C14.3812 26.6352 14.5521 26.6158 14.7094 26.5532C14.8664 26.4899 15.0043 26.3864 15.1095 26.2529C15.2147 26.1194 15.2836 25.9605 15.3093 25.792V25.7815Z" fill="white"/>
<path fill-rule="evenodd" clip-rule="evenodd" d="M18.9584 25.5502C18.894 25.4464 18.8042 25.3611 18.6977 25.3023C18.5913 25.2435 18.4716 25.2132 18.3502 25.2144C18.2277 25.2162 18.1079 25.2506 18.0028 25.314C17.8977 25.3774 17.811 25.4676 17.7515 25.5755C17.692 25.6834 17.6617 25.8052 17.6637 25.9287C17.6657 26.0522 17.6999 26.1729 17.7629 26.2788C17.8259 26.3847 17.9155 26.472 18.0226 26.5319C18.1297 26.5918 18.2506 26.6222 18.373 26.62C18.4955 26.6178 18.6152 26.5831 18.7201 26.5194C18.8251 26.4558 18.9115 26.3653 18.9708 26.2573C19.0303 26.1496 19.0602 26.0278 19.0573 25.9046C19.0544 25.7813 19.0188 25.6611 18.9542 25.5565L18.9584 25.5502Z" fill="white"/>
<path fill-rule="evenodd" clip-rule="evenodd" d="M24.5852 25.3873C24.4253 25.3332 24.254 25.3227 24.0887 25.3567C23.9235 25.3908 23.77 25.4683 23.644 25.5813C23.5176 25.695 23.4229 25.8402 23.3696 26.0023C23.3162 26.1645 23.306 26.3379 23.3399 26.5053C23.3727 26.6722 23.4486 26.8275 23.5601 26.9553C23.6715 27.0832 23.8144 27.179 23.9745 27.2332C24.1345 27.2874 24.3058 27.298 24.4712 27.264C24.6366 27.2299 24.7901 27.1524 24.9162 27.0392C25.0424 26.9254 25.137 26.7802 25.1903 26.6181C25.2436 26.456 25.254 26.2826 25.2202 26.1152C25.1876 25.9481 25.1117 25.7927 25.0001 25.6649C24.8886 25.537 24.7454 25.4412 24.5852 25.3873Z" fill="white"/>
<path fill-rule="evenodd" clip-rule="evenodd" d="M9.02155 27.5627C9.30344 27.311 9.49511 26.9726 9.56683 26.5999C9.63856 26.2272 9.58633 25.841 9.41826 25.5013C9.25018 25.1616 8.97565 24.8873 8.63722 24.7209C8.29879 24.5545 7.91536 24.5053 7.5464 24.581C7.17744 24.6567 6.84355 24.853 6.5965 25.1395C6.34945 25.426 6.20304 25.7867 6.17997 26.1656C6.15691 26.5446 6.25847 26.9206 6.46892 27.2354C6.67937 27.5502 6.98694 27.7862 7.34395 27.9068C7.62895 28.0029 7.93399 28.0217 8.22846 27.9613C8.52292 27.9009 8.79644 27.7634 9.02155 27.5627Z" fill="white"/>
<path fill-rule="evenodd" clip-rule="evenodd" d="M27.5579 25.7921C27.3447 25.7193 27.1161 25.7049 26.8955 25.7503C26.6749 25.7958 26.4702 25.8994 26.3023 26.0507C26.0915 26.2393 25.9483 26.4927 25.8948 26.7717C25.8414 27.0507 25.8807 27.3397 26.0067 27.5938C26.1327 27.848 26.3384 28.0531 26.5918 28.1775C26.8452 28.3018 27.1322 28.3383 27.4083 28.2815C27.6844 28.2246 27.9342 28.0775 28.1189 27.8629C28.3037 27.6483 28.4131 27.3783 28.4301 27.0946C28.4472 26.811 28.3709 26.5296 28.2133 26.2941C28.0556 26.0586 27.8252 25.8821 27.5579 25.7921Z" fill="white"/>
<path fill-rule="evenodd" clip-rule="evenodd" d="M20.0128 27.2918C19.9244 27.1486 19.8003 27.0312 19.653 26.9513C19.5057 26.8713 19.3402 26.8316 19.173 26.836C19.0057 26.8405 18.8426 26.8889 18.6996 26.9765C18.5566 27.0641 18.4389 27.1879 18.358 27.3356C18.2776 27.4857 18.2378 27.6546 18.2426 27.8252C18.2473 27.9957 18.2964 28.1621 18.3849 28.3075C18.4723 28.4531 18.5965 28.5727 18.7448 28.654C18.8931 28.7354 19.0601 28.7756 19.2289 28.7705C19.3978 28.7659 19.5625 28.7164 19.7065 28.6271C19.8504 28.5379 19.9685 28.4119 20.0488 28.262C20.1291 28.1121 20.1689 27.9435 20.164 27.7731C20.1591 27.6028 20.1099 27.4368 20.0211 27.2918H20.0128Z" fill="white"/>
<path fill-rule="evenodd" clip-rule="evenodd" d="M31.5486 25.5606C31.1917 25.44 30.8052 25.4415 30.4492 25.5648C30.0932 25.6882 29.7875 25.9265 29.5794 26.2428C29.3714 26.5592 29.2726 26.9359 29.2985 27.3146C29.3243 27.6933 29.4734 28.0528 29.7224 28.3374C29.9715 28.622 30.3068 28.8158 30.6762 28.8888C31.0456 28.9618 31.4286 28.9099 31.7658 28.7411C32.103 28.5723 32.3756 28.296 32.5413 27.9552C32.7069 27.6144 32.7565 27.2279 32.6822 26.8558C32.6235 26.5582 32.4876 26.2816 32.2885 26.0541C32.0894 25.8267 31.8342 25.6563 31.5486 25.5606Z" fill="white"/>
<path fill-rule="evenodd" clip-rule="evenodd" d="M15.425 28.8038C15.4565 28.5792 15.4296 28.3502 15.3469 28.1392C15.2642 27.9283 15.1286 27.7426 14.9534 27.6003C14.7784 27.4569 14.5686 27.3632 14.3456 27.3291C14.1226 27.295 13.8947 27.3217 13.6854 27.4063C13.4775 27.4908 13.2952 27.6286 13.1565 27.806C13.0178 27.9835 12.9276 28.1945 12.8947 28.418C12.8619 28.6415 12.8876 28.8697 12.9693 29.0801C13.0511 29.2905 13.186 29.4756 13.3606 29.6172C13.5353 29.7605 13.7448 29.854 13.9674 29.8881C14.19 29.9222 14.4176 29.8957 14.6266 29.8112C14.8354 29.7266 15.0189 29.5887 15.1589 29.4109C15.2989 29.2332 15.3906 29.0218 15.425 28.7975V28.8038Z" fill="white"/>
<path fill-rule="evenodd" clip-rule="evenodd" d="M22.0346 29.5255C21.9481 29.3775 21.8332 29.2484 21.6968 29.1457C21.5603 29.0429 21.4049 28.9685 21.2397 28.9269C21.0744 28.8852 20.9026 28.8771 20.7342 28.903C20.5659 28.9289 20.4043 28.9884 20.2589 29.0779C20.1135 29.1673 19.9872 29.2851 19.8874 29.4242C19.7875 29.5634 19.7161 29.7212 19.6773 29.8884C19.6385 30.0556 19.6331 30.229 19.6614 30.3983C19.6896 30.5677 19.751 30.7297 19.8419 30.8749C20.022 31.1625 20.3071 31.3671 20.6355 31.4446C20.964 31.5221 21.3095 31.4662 21.5974 31.289C21.8853 31.1118 22.0925 30.8275 22.1743 30.4976C22.2562 30.1676 22.206 29.8184 22.0346 29.5255Z" fill="white"/>
<path fill-rule="evenodd" clip-rule="evenodd" d="M16.342 32.7249C16.3978 32.3494 16.3291 31.9658 16.1466 31.6336C15.9642 31.3014 15.6781 31.0392 15.3328 30.8877C14.9875 30.7362 14.6023 30.7037 14.2369 30.7955C13.8714 30.8872 13.5462 31.098 13.3117 31.3951C13.0772 31.6921 12.9464 32.059 12.9397 32.4386C12.933 32.8183 13.0508 33.1896 13.2747 33.4949C13.4986 33.8002 13.8161 34.0224 14.1781 34.1272C14.5401 34.232 14.9262 34.2134 15.2766 34.0743C15.5559 33.9633 15.8014 33.7802 15.9883 33.5433C16.1753 33.3065 16.2973 33.0242 16.342 32.7249Z" fill="white"/>
<path fill-rule="evenodd" clip-rule="evenodd" d="M25.2367 31.9325C25.0399 31.6083 24.7425 31.3585 24.3907 31.2221C24.0388 31.0856 23.6521 31.07 23.2905 31.1777C22.9289 31.2854 22.6127 31.5104 22.3909 31.8177C22.169 32.1251 22.054 32.4977 22.0635 32.8777C22.0731 33.2577 22.2067 33.6239 22.4438 33.9196C22.6808 34.2152 23.0079 34.4237 23.3744 34.5128C23.7409 34.6019 24.1263 34.5665 24.4709 34.4123C24.8155 34.258 25.0999 33.9934 25.2801 33.6595C25.4237 33.3931 25.4953 33.0933 25.4877 32.7901C25.48 32.487 25.3935 32.1912 25.2367 31.9325Z" fill="white"/>
<path fill-rule="evenodd" clip-rule="evenodd" d="M14.184 8.06759C14.3808 8.39184 14.6781 8.64157 15.03 8.77804C15.3819 8.91452 15.7686 8.93011 16.1302 8.82241C16.4917 8.71471 16.8079 8.48974 17.0298 8.18237C17.2516 7.875 17.3667 7.50242 17.3571 7.1224C17.3476 6.74239 17.2139 6.37617 16.9769 6.08053C16.7399 5.7849 16.4128 5.57638 16.0463 5.4873C15.6798 5.39822 15.2943 5.43356 14.9498 5.58784C14.6052 5.74212 14.3208 6.00672 14.1405 6.34061C13.9974 6.60716 13.926 6.90692 13.9337 7.20995C13.9413 7.51298 14.0276 7.8087 14.184 8.06759Z" fill="white"/>
<path fill-rule="evenodd" clip-rule="evenodd" d="M17.3851 10.4744C17.4716 10.6224 17.5865 10.7515 17.723 10.8543C17.8594 10.957 18.0148 11.0314 18.1801 11.0731C18.3453 11.1147 18.5171 11.1228 18.6855 11.0969C18.8539 11.071 19.0155 11.0115 19.1609 10.922C19.3062 10.8326 19.4325 10.7148 19.5324 10.5757C19.6322 10.4365 19.7036 10.2787 19.7424 10.1115C19.7812 9.94428 19.7866 9.77094 19.7584 9.60157C19.7301 9.43221 19.6687 9.2702 19.5778 9.12498C19.3977 8.83739 19.1127 8.63276 18.7842 8.55529C18.4558 8.47782 18.1103 8.53372 17.8223 8.71092C17.5344 8.88812 17.3272 9.17239 17.2454 9.50235C17.1636 9.83232 17.2138 10.1815 17.3851 10.4744Z" fill="white"/>
<path fill-rule="evenodd" clip-rule="evenodd" d="M19.4068 12.7229C19.4958 12.8676 19.6206 12.9865 19.7689 13.068C19.9172 13.1496 20.0839 13.1909 20.2528 13.188C20.4229 13.1851 20.5891 13.1366 20.7345 13.0475C20.8799 12.9584 20.9992 12.832 21.0802 12.6812C21.1593 12.5307 21.1985 12.3622 21.1942 12.1919C21.1898 12.0217 21.142 11.8554 21.0554 11.7092C20.9669 11.5661 20.8429 11.4487 20.6956 11.3687C20.5483 11.2888 20.3828 11.2491 20.2155 11.2535C20.0483 11.2579 19.8851 11.3064 19.7421 11.394C19.5992 11.4816 19.4814 11.6054 19.4005 11.753C19.3205 11.9029 19.2806 12.0712 19.285 12.2413C19.2893 12.4114 19.3377 12.5775 19.4254 12.7229H19.4068Z" fill="white"/>
<path fill-rule="evenodd" clip-rule="evenodd" d="M11.8616 14.2142C12.0758 14.2863 12.305 14.3002 12.5262 14.2547C12.7475 14.2092 12.9529 14.1058 13.122 13.9549C13.291 13.804 13.4177 13.6108 13.4893 13.3949C13.5609 13.179 13.5749 12.9479 13.5298 12.7248C13.4848 12.5017 13.3823 12.2945 13.2327 12.124C13.083 11.9534 12.8916 11.8256 12.6774 11.7534C12.4633 11.6811 12.2341 11.6669 12.0128 11.7123C11.7916 11.7576 11.586 11.8608 11.4168 12.0116C11.2487 12.1632 11.1229 12.3564 11.0519 12.5722C10.981 12.788 10.9673 13.0188 11.0123 13.2416C11.0573 13.4644 11.1593 13.6714 11.3083 13.842C11.4574 14.0127 11.6481 14.141 11.8616 14.2142Z" fill="white"/>
<path fill-rule="evenodd" clip-rule="evenodd" d="M7.87373 14.4456C8.23069 14.5662 8.61712 14.5647 8.97315 14.4414C9.32918 14.318 9.63492 14.0797 9.84297 13.7634C10.051 13.447 10.1498 13.0703 10.1239 12.6916C10.098 12.3129 9.94902 11.9534 9.69993 11.6688C9.45085 11.3842 9.1156 11.1904 8.74617 11.1174C8.37673 11.0444 7.99373 11.0963 7.65654 11.2651C7.31934 11.4339 7.04679 11.7101 6.88112 12.051C6.71544 12.3918 6.6659 12.7783 6.74017 13.1504C6.8001 13.4475 6.93633 13.7235 7.13527 13.9508C7.3342 14.1781 7.58885 14.3487 7.87373 14.4456Z" fill="white"/>
<path fill-rule="evenodd" clip-rule="evenodd" d="M14.8329 14.6125C14.9927 14.6677 15.1642 14.6788 15.3297 14.6447C15.4951 14.6106 15.6486 14.5325 15.7741 14.4185C15.9321 14.2771 16.0394 14.0872 16.0795 13.878C16.1195 13.6689 16.09 13.4523 15.9955 13.2618C15.901 13.0712 15.7469 12.9175 15.5569 12.8243C15.367 12.7311 15.1518 12.7038 14.9448 12.7464C14.7379 12.7891 14.5507 12.8994 14.4122 13.0602C14.2737 13.2211 14.1918 13.4235 14.179 13.6361C14.1662 13.8487 14.2234 14.0597 14.3416 14.2362C14.4598 14.4127 14.6325 14.545 14.8329 14.6125Z" fill="white"/>
<path fill-rule="evenodd" clip-rule="evenodd" d="M20.4611 14.4498C20.5252 14.5538 20.6149 14.6394 20.7214 14.6982C20.828 14.7571 20.9478 14.7871 21.0692 14.7856C21.1915 14.7824 21.3107 14.7469 21.415 14.6824C21.5192 14.618 21.6047 14.5269 21.6629 14.4185C21.7228 14.311 21.753 14.1893 21.7504 14.0661C21.7479 13.9429 21.7127 13.8226 21.6484 13.7177C21.5522 13.5589 21.3973 13.4452 21.2179 13.4016C21.0384 13.358 20.8492 13.388 20.6917 13.4851C20.5343 13.5822 20.4215 13.7384 20.3783 13.9193C20.335 14.1002 20.3648 14.291 20.4611 14.4498Z" fill="white"/>
<path fill-rule="evenodd" clip-rule="evenodd" d="M16.7553 15.2592C16.8706 15.2979 16.9941 15.3053 17.1132 15.2807C17.2324 15.2561 17.343 15.2003 17.434 15.1189C17.5249 15.0375 17.5931 14.9335 17.6315 14.8171C17.67 14.7008 17.6774 14.5763 17.653 14.4562C17.6282 14.3362 17.5728 14.2248 17.4923 14.133C17.4117 14.0412 17.3089 13.9721 17.1938 13.9327C17.0781 13.8933 16.9541 13.8855 16.8345 13.91C16.7148 13.9344 16.6037 13.9904 16.5123 14.0721C16.421 14.1538 16.3527 14.2584 16.3143 14.3753C16.276 14.4922 16.269 14.6172 16.294 14.7377C16.3189 14.8578 16.3746 14.9691 16.4556 15.0606C16.5365 15.1521 16.6398 15.2205 16.7553 15.2592Z" fill="white"/>
<path fill-rule="evenodd" clip-rule="evenodd" d="M18.0597 16.06C18.1533 16.0918 18.2536 16.0979 18.3502 16.0778C18.4469 16.0576 18.5366 16.0119 18.6099 15.9453C18.6838 15.8782 18.7388 15.7926 18.7694 15.6972C18.7999 15.6018 18.805 15.5 18.784 15.402C18.763 15.304 18.7167 15.2133 18.6498 15.1392C18.5829 15.065 18.4978 15.01 18.4031 14.9796C18.3092 14.9478 18.2086 14.9417 18.1116 14.9618C18.0146 14.982 17.9246 15.0277 17.8508 15.0943C17.7775 15.1617 17.7231 15.2473 17.6929 15.3425C17.6627 15.4378 17.6579 15.5394 17.6788 15.6371C17.6997 15.7349 17.7457 15.8253 17.8122 15.8995C17.8787 15.9738 17.9633 16.0291 18.0576 16.06H18.0597Z" fill="white"/>
<path fill-rule="evenodd" clip-rule="evenodd" d="M20.9586 15.908C21.0098 15.9927 21.0823 16.0623 21.1687 16.1095C21.2552 16.1568 21.3526 16.1801 21.4509 16.1771C21.55 16.1747 21.6466 16.1461 21.7312 16.0941C21.8158 16.0421 21.8854 15.9686 21.9329 15.8809C21.9786 15.7928 22.0011 15.6944 21.9982 15.5951C21.9953 15.4957 21.9671 15.3988 21.9163 15.3136C21.8655 15.2286 21.7931 15.1588 21.7065 15.1115C21.6199 15.0642 21.5224 15.0411 21.424 15.0445C21.3251 15.0473 21.2286 15.0761 21.144 15.1281C21.0595 15.18 20.9899 15.2533 20.9421 15.3407C20.8947 15.4283 20.8714 15.5269 20.8743 15.6266C20.8772 15.7263 20.9063 15.8234 20.9586 15.908Z" fill="white"/>
<path fill-rule="evenodd" clip-rule="evenodd" d="M18.9959 16.8945C19.0661 16.919 19.1416 16.924 19.2144 16.9089C19.2872 16.8939 19.3546 16.8594 19.4096 16.8089C19.4656 16.7584 19.5075 16.6939 19.5311 16.6219C19.5547 16.55 19.5592 16.473 19.5442 16.3987C19.5291 16.3245 19.495 16.2555 19.4453 16.1986C19.3955 16.1418 19.3319 16.0991 19.2606 16.0748C19.1903 16.0516 19.1151 16.0472 19.0425 16.0622C18.97 16.0772 18.9026 16.111 18.8469 16.1603C18.7909 16.2108 18.749 16.2753 18.7254 16.3473C18.7018 16.4193 18.6973 16.4962 18.7123 16.5705C18.7274 16.6448 18.7615 16.7138 18.8113 16.7706C18.861 16.8274 18.9247 16.8701 18.9959 16.8945Z" fill="white"/>
<path fill-rule="evenodd" clip-rule="evenodd" d="M21.1516 17.1531C21.1892 17.2189 21.244 17.2732 21.31 17.3099C21.376 17.3467 21.4507 17.3646 21.526 17.3616C21.6009 17.3585 21.6738 17.3359 21.7376 17.2961C21.8014 17.2563 21.8539 17.2005 21.8901 17.1343C21.9236 17.0684 21.9397 16.9948 21.9367 16.9208C21.9337 16.8468 21.9118 16.7748 21.8731 16.7118C21.8343 16.6488 21.7801 16.597 21.7157 16.5614C21.6513 16.5258 21.5788 16.5076 21.5053 16.5086C21.4305 16.5113 21.3577 16.5335 21.2939 16.573C21.2301 16.6124 21.1775 16.6678 21.1412 16.7338C21.1022 16.799 21.0815 16.8736 21.0815 16.9497C21.0815 17.0258 21.1022 17.1005 21.1412 17.1656L21.1516 17.1531Z" fill="white"/>
<path fill-rule="evenodd" clip-rule="evenodd" d="M15.9289 18.05C15.9978 18.0226 16.0606 17.9818 16.1138 17.9299C16.167 17.8781 16.2096 17.8161 16.2391 17.7476C16.2686 17.6792 16.2844 17.6055 16.2857 17.5309C16.2869 17.4563 16.2736 17.3821 16.2464 17.3127C16.2192 17.2433 16.1788 17.1799 16.1273 17.1262C16.0759 17.0726 16.0145 17.0296 15.9466 16.9999C15.8787 16.9702 15.8056 16.9542 15.7316 16.953C15.6576 16.9517 15.584 16.9651 15.5152 16.9925C15.4243 17.0296 15.3444 17.0899 15.2835 17.1674C15.2226 17.2449 15.1827 17.337 15.1677 17.4347C15.1527 17.5331 15.1636 17.6336 15.1993 17.7264C15.2351 17.8191 15.2944 17.9007 15.3713 17.9631C15.4482 18.0254 15.54 18.0663 15.6375 18.0815C15.735 18.0968 15.8348 18.0859 15.9268 18.05H15.9289Z" fill="white"/>
<path fill-rule="evenodd" clip-rule="evenodd" d="M17.1836 18.0769C17.2529 18.0475 17.3136 18.0009 17.3603 17.9414C17.4069 17.882 17.4379 17.8117 17.4505 17.737C17.4631 17.6623 17.4553 17.5856 17.428 17.515C17.4007 17.4445 17.3548 17.3828 17.2953 17.3365C17.2376 17.2909 17.1693 17.261 17.0968 17.2497C17.0244 17.2384 16.9503 17.246 16.8816 17.2718C16.8123 17.3011 16.7514 17.3477 16.7047 17.4072C16.6581 17.4666 16.6271 17.537 16.6148 17.6118C16.6021 17.6865 16.6099 17.7632 16.6372 17.8338C16.6646 17.9043 16.7104 17.966 16.7699 18.0123C16.8277 18.0577 16.896 18.0875 16.9684 18.0988C17.0408 18.1101 17.1149 18.1026 17.1836 18.0769Z" fill="white"/>
<path fill-rule="evenodd" clip-rule="evenodd" d="M14.4242 18.2876C14.538 18.242 14.638 18.1672 14.7142 18.0706C14.7904 17.974 14.8402 17.8589 14.8586 17.7369C14.8746 17.6151 14.8593 17.4912 14.8145 17.3769C14.7696 17.2627 14.6965 17.1619 14.6021 17.0841C14.5059 17.0077 14.3914 16.958 14.2702 16.9401C14.149 16.9222 14.0252 16.9366 13.9112 16.9819C13.7972 17.0267 13.697 17.1013 13.621 17.198C13.545 17.2948 13.496 17.4103 13.4789 17.5325C13.4614 17.6544 13.4759 17.7788 13.521 17.8932C13.5661 18.0076 13.6402 18.1081 13.7359 18.1845C13.8317 18.261 13.9456 18.3108 14.0664 18.3288C14.1872 18.3469 14.3106 18.3327 14.4242 18.2876Z" fill="white"/>
<path fill-rule="evenodd" clip-rule="evenodd" d="M12.5411 19.0363C12.6986 18.9744 12.8371 18.8716 12.9425 18.7382C13.0478 18.6049 13.1163 18.4458 13.1409 18.2771C13.164 18.1086 13.1436 17.9369 13.0816 17.7787C13.0197 17.6205 12.9182 17.4811 12.7872 17.374C12.6553 17.2675 12.4978 17.1981 12.3307 17.1728C12.1635 17.1475 11.9928 17.1673 11.8357 17.2301C11.6766 17.2913 11.5365 17.3942 11.4299 17.528C11.3232 17.6619 11.2538 17.8219 11.2287 17.9918C11.2037 18.1616 11.2239 18.3351 11.2873 18.4945C11.3507 18.6539 11.455 18.7933 11.5895 18.8986C11.721 19.0059 11.8785 19.0759 12.0457 19.1016C12.2129 19.1272 12.3839 19.1076 12.5411 19.0446V19.0363Z" fill="white"/>
<path fill-rule="evenodd" clip-rule="evenodd" d="M16.5486 20.1648C16.5822 20.0989 16.5982 20.0253 16.5953 19.9513C16.5923 19.8773 16.5704 19.8053 16.5316 19.7423C16.4929 19.6793 16.4387 19.6276 16.3743 19.5919C16.3098 19.5563 16.2374 19.5381 16.1639 19.5391C16.0895 19.5422 16.0171 19.5646 15.9537 19.604C15.8903 19.6434 15.838 19.6987 15.8019 19.7644C15.7628 19.8295 15.7422 19.9041 15.7422 19.9802C15.7422 20.0563 15.7628 20.131 15.8019 20.1961C15.8407 20.2609 15.8957 20.3143 15.9614 20.3509C16.0271 20.3875 16.1012 20.4061 16.1763 20.4047C16.2509 20.4012 16.3233 20.3784 16.3867 20.3386C16.4501 20.2988 16.5023 20.2433 16.5383 20.1773L16.5486 20.1648Z" fill="white"/>
<path fill-rule="evenodd" clip-rule="evenodd" d="M10.0085 20.6486C10.272 20.5449 10.4942 20.3563 10.6406 20.1123C10.787 19.8682 10.8494 19.5823 10.8181 19.2988C10.7868 19.0153 10.6636 18.7502 10.4676 18.5445C10.2716 18.3388 10.0138 18.2042 9.73409 18.1614C9.45441 18.1186 9.16854 18.1701 8.92086 18.3079C8.67318 18.4457 8.47753 18.662 8.36428 18.9234C8.25103 19.1848 8.22651 19.4765 8.29452 19.7534C8.36254 20.0303 8.51929 20.2767 8.74044 20.4546C8.91582 20.5973 9.12564 20.6904 9.34843 20.7245C9.57123 20.7586 9.79901 20.7324 10.0085 20.6486Z" fill="white"/>
<path fill-rule="evenodd" clip-rule="evenodd" d="M15.5733 20.9533C15.6196 20.8654 15.6424 20.7669 15.6395 20.6674C15.6366 20.568 15.6081 20.471 15.5568 20.386C15.5064 20.3005 15.4341 20.2304 15.3474 20.183C15.2607 20.1356 15.163 20.1128 15.0645 20.1169C14.9656 20.1192 14.8691 20.1478 14.7848 20.1998C14.7004 20.2518 14.6312 20.3254 14.5841 20.413C14.5371 20.5007 14.5139 20.5994 14.5169 20.699C14.5198 20.7987 14.5489 20.8957 14.6011 20.9804C14.6516 21.0653 14.7237 21.1349 14.8099 21.1823C14.8961 21.2296 14.9933 21.2528 15.0913 21.2495C15.1903 21.2468 15.2869 21.2181 15.3715 21.1662C15.4561 21.1142 15.5256 21.0408 15.5733 20.9533Z" fill="white"/>
<path fill-rule="evenodd" clip-rule="evenodd" d="M14.5675 22.1086C14.6254 22.0004 14.6543 21.8789 14.6514 21.756C14.6485 21.6331 14.6139 21.5131 14.5509 21.4078C14.4504 21.2579 14.2964 21.1528 14.1209 21.1145C13.9454 21.0763 13.7621 21.1077 13.609 21.2023C13.456 21.2969 13.3451 21.4475 13.2994 21.6225C13.2536 21.7976 13.2766 21.9836 13.3636 22.142C13.4271 22.247 13.517 22.3331 13.6241 22.3917C13.7313 22.4504 13.852 22.4793 13.9738 22.4757C14.0963 22.4737 14.216 22.4385 14.3204 22.374C14.4248 22.3094 14.5102 22.2178 14.5675 22.1086Z" fill="white"/>
<path fill-rule="evenodd" clip-rule="evenodd" d="M17.3931 22.1776C17.3779 22.1034 17.3438 22.0346 17.2941 21.9779C17.2444 21.9212 17.1808 21.8786 17.1097 21.8543C17.0395 21.8298 16.964 21.8247 16.8912 21.8398C16.8184 21.8548 16.751 21.8894 16.696 21.9398C16.6406 21.9908 16.5993 22.0554 16.5762 22.1274C16.5531 22.1994 16.5489 22.2762 16.5642 22.3502C16.5794 22.4243 16.6135 22.4931 16.6631 22.5499C16.7127 22.6066 16.7761 22.6494 16.847 22.674C16.9174 22.6982 16.993 22.7029 17.0658 22.6875C17.1386 22.6721 17.2059 22.6371 17.2607 22.5864C17.318 22.5353 17.3608 22.4696 17.3844 22.3963C17.408 22.3229 17.4118 22.2445 17.3952 22.1692L17.3931 22.1776Z" fill="white"/>
<path fill-rule="evenodd" clip-rule="evenodd" d="M7.10317 23.4187C7.4531 23.2796 7.74773 23.028 7.9414 22.7029C8.13506 22.3778 8.21694 21.9973 8.17431 21.6205C8.13168 21.2438 7.96693 20.8917 7.70562 20.6189C7.44431 20.3461 7.10103 20.1679 6.72904 20.1119C6.35704 20.0559 5.9771 20.1252 5.64816 20.3091C5.31922 20.493 5.05965 20.7812 4.90971 21.129C4.75977 21.4768 4.72783 21.8648 4.81886 22.2328C4.90988 22.6007 5.11878 22.9281 5.41315 23.1642C5.64839 23.3515 5.92812 23.4735 6.22458 23.5182C6.52103 23.5628 6.82392 23.5285 7.10317 23.4187Z" fill="white"/>
<path fill-rule="evenodd" clip-rule="evenodd" d="M21.434 22.678C21.3588 22.6802 21.2854 22.7023 21.2214 22.7421C21.1573 22.782 21.1048 22.8382 21.0692 22.905C21.0335 22.9718 21.016 23.047 21.0183 23.1228C21.0206 23.1987 21.0427 23.2726 21.0823 23.3371C21.12 23.4029 21.1748 23.4572 21.2407 23.4939C21.3067 23.5307 21.3814 23.5486 21.4568 23.5456C21.5312 23.5425 21.6036 23.5202 21.667 23.4807C21.7304 23.4413 21.7826 23.3861 21.8187 23.3204C21.8563 23.2543 21.8751 23.1792 21.8733 23.1031C21.8715 23.0269 21.849 22.9528 21.8084 22.8886C21.7696 22.8238 21.7146 22.7704 21.6489 22.7338C21.5832 22.6972 21.5091 22.6787 21.434 22.6801V22.678Z" fill="white"/>
<path fill-rule="evenodd" clip-rule="evenodd" d="M19.3223 23.1704C19.2636 23.1228 19.1935 23.0918 19.119 23.0805C19.0446 23.0692 18.9685 23.0779 18.8985 23.1059C18.8285 23.1339 18.7671 23.1801 18.7205 23.2398C18.674 23.2994 18.644 23.3705 18.6335 23.4457C18.6213 23.52 18.6292 23.5963 18.6566 23.6664C18.6839 23.7366 18.7295 23.798 18.7887 23.844C18.8474 23.8916 18.9175 23.9226 18.992 23.9339C19.0664 23.9452 19.1425 23.9364 19.2125 23.9085C19.2825 23.8805 19.3439 23.8343 19.3905 23.7746C19.437 23.715 19.467 23.6439 19.4775 23.5687C19.4897 23.4944 19.4818 23.4181 19.4545 23.3479C19.4271 23.2778 19.3815 23.2164 19.3223 23.1704Z" fill="white"/>
<path fill-rule="evenodd" clip-rule="evenodd" d="M17.1466 23.4124C17.1265 23.315 17.0815 23.2246 17.016 23.1502C16.9505 23.0758 16.8668 23.02 16.7733 22.9883C16.6798 22.9567 16.5796 22.9503 16.4829 22.9698C16.3862 22.9893 16.2962 23.034 16.2219 23.0995C16.148 23.1666 16.093 23.2522 16.0625 23.3475C16.0319 23.4429 16.0269 23.5448 16.0479 23.6428C16.0689 23.7407 16.1152 23.8314 16.182 23.9056C16.2489 23.9798 16.334 24.0348 16.4288 24.0652C16.5225 24.0975 16.623 24.104 16.72 24.0842C16.8171 24.0645 16.9072 24.019 16.9811 23.9526C17.0539 23.8853 17.1084 23.8003 17.1392 23.7057C17.17 23.6111 17.1761 23.51 17.1569 23.4124H17.1466Z" fill="white"/>
<path fill-rule="evenodd" clip-rule="evenodd" d="M22.5945 23.1369C22.4959 23.1411 22.4 23.1707 22.316 23.2229C22.232 23.2751 22.1626 23.3482 22.1146 23.4351C22.0684 23.5223 22.0457 23.6202 22.0486 23.719C22.0515 23.8179 22.08 23.9142 22.1312 23.9985C22.1824 24.0828 22.2546 24.1522 22.3406 24.1997C22.4265 24.2472 22.5233 24.2712 22.6214 24.2694C22.7201 24.2669 22.8165 24.2382 22.9008 24.1862C22.985 24.1342 23.0542 24.0607 23.1014 23.9732C23.1486 23.8857 23.1721 23.7872 23.1695 23.6876C23.1669 23.588 23.1384 23.4909 23.0868 23.4059C23.0361 23.3207 22.9637 23.2506 22.8772 23.2029C22.7906 23.1553 22.6931 23.1317 22.5945 23.1348V23.1369Z" fill="white"/>
<path fill-rule="evenodd" clip-rule="evenodd" d="M13.6091 23.9087C13.6888 23.7587 13.7283 23.5903 13.7236 23.4202C13.7189 23.25 13.6701 23.0841 13.5822 22.9388C13.4943 22.795 13.3705 22.677 13.2233 22.5965C13.076 22.516 12.9103 22.4758 12.7429 22.48C12.5754 22.4843 12.4119 22.5327 12.2688 22.6205C12.1257 22.7084 12.008 22.8325 11.9273 22.9806C11.847 23.1307 11.8072 23.2996 11.8119 23.4702C11.8166 23.6408 11.8657 23.8071 11.9542 23.9525C12.0427 24.0957 12.1667 24.2131 12.3141 24.293C12.4614 24.373 12.6268 24.4127 12.7941 24.4083C12.9613 24.4038 13.1245 24.3554 13.2675 24.2678C13.4104 24.1802 13.5282 24.0564 13.6091 23.9087Z" fill="white"/>
<path fill-rule="evenodd" clip-rule="evenodd" d="M32.7175 21.1367C32.271 21.1589 31.8508 21.3561 31.5466 21.6864C31.2424 22.0167 31.0783 22.4538 31.0894 22.9044C31.1005 23.355 31.2858 23.7833 31.6059 24.098C31.9259 24.4127 32.3553 24.5888 32.8023 24.5886C33.2488 24.5664 33.669 24.3692 33.9732 24.0389C34.2774 23.7086 34.4415 23.2715 34.4304 22.8209C34.4193 22.3703 34.234 21.9419 33.9139 21.6273C33.5939 21.3126 33.1645 21.1365 32.7175 21.1367Z" fill="white"/>
<path fill-rule="evenodd" clip-rule="evenodd" d="M24.0995 23.4353C23.9772 23.4382 23.8578 23.4737 23.7536 23.5381C23.6493 23.6026 23.5638 23.6938 23.5058 23.8023C23.4335 23.9376 23.4074 24.0931 23.4317 24.2448C23.4559 24.3965 23.529 24.5359 23.6397 24.6415C23.7504 24.747 23.8925 24.8128 24.0441 24.8287C24.1957 24.8446 24.3482 24.8097 24.4781 24.7294C24.608 24.6491 24.708 24.5278 24.7627 24.3844C24.8173 24.241 24.8236 24.0834 24.7805 23.9361C24.7374 23.7887 24.6473 23.6598 24.5242 23.5693C24.4011 23.4787 24.2518 23.4316 24.0995 23.4353Z" fill="white"/>
<path fill-rule="evenodd" clip-rule="evenodd" d="M19.9217 24.2757C19.8438 24.215 19.7519 24.1752 19.6545 24.1602C19.5571 24.1453 19.4576 24.1556 19.3653 24.1902C19.2739 24.2266 19.1937 24.2866 19.1326 24.3643C19.0716 24.4419 19.032 24.5344 19.0178 24.6324C19.0028 24.7307 19.0137 24.8313 19.0494 24.9241C19.0852 25.0168 19.1445 25.0984 19.2214 25.1608C19.2983 25.2231 19.3901 25.2639 19.4876 25.2792C19.5851 25.2945 19.6849 25.2836 19.7769 25.2477C19.8684 25.2108 19.9488 25.1504 20.01 25.0725C20.0712 24.9945 20.1111 24.9019 20.1257 24.8036C20.1404 24.7053 20.1292 24.6049 20.0934 24.5123C20.0577 24.4197 19.9985 24.3381 19.9217 24.2757Z" fill="white"/>
<path fill-rule="evenodd" clip-rule="evenodd" d="M29.0487 22.7344C28.7657 22.7408 28.4926 22.841 28.2718 23.0197C28.051 23.1984 27.8948 23.4456 27.8275 23.7229C27.7601 24.0002 27.7854 24.2921 27.8993 24.5535C28.0132 24.8148 28.2095 25.031 28.4576 25.1684C28.7057 25.3059 28.9919 25.357 29.2718 25.3138C29.5517 25.2707 29.8096 25.1356 30.0056 24.9296C30.2016 24.7236 30.3248 24.4582 30.356 24.1744C30.3872 23.8907 30.3247 23.6045 30.1782 23.3602C30.0611 23.1649 29.8951 23.0043 29.6968 22.8945C29.4985 22.7846 29.2749 22.7294 29.0487 22.7344Z" fill="white"/>
<path fill-rule="evenodd" clip-rule="evenodd" d="M26.1181 23.381C25.9478 23.3831 25.7812 23.4313 25.6357 23.5204C25.4901 23.6096 25.371 23.7365 25.2906 23.8879C25.2109 24.0383 25.1714 24.207 25.1762 24.3775C25.1809 24.5479 25.2296 24.7142 25.3175 24.8598C25.406 25.003 25.53 25.1204 25.6774 25.2003C25.8247 25.2803 25.9902 25.32 26.1574 25.3156C26.3246 25.3112 26.4878 25.2627 26.6308 25.1751C26.7737 25.0875 26.8915 24.9637 26.9724 24.816C27.0527 24.6658 27.0925 24.497 27.0878 24.3264C27.0831 24.1559 27.034 23.9895 26.9455 23.8441C26.8581 23.6985 26.7338 23.5789 26.5856 23.4976C26.4373 23.4162 26.2703 23.376 26.1015 23.381H26.1181Z" fill="white"/>
<path fill-rule="evenodd" clip-rule="evenodd" d="M17.1208 24.9557C17.0964 24.8355 17.0411 24.724 16.9605 24.6321C16.8799 24.5402 16.7769 24.4713 16.6616 24.4322C16.5459 24.3928 16.4219 24.385 16.3022 24.4095C16.1826 24.4339 16.0714 24.4899 15.9801 24.5716C15.8888 24.6533 15.8205 24.7579 15.7821 24.8748C15.7438 24.9917 15.7367 25.1167 15.7617 25.2373C15.7862 25.3575 15.8416 25.4692 15.9224 25.561C16.0033 25.6528 16.1067 25.7216 16.2222 25.7603C16.3378 25.799 16.4614 25.8063 16.5807 25.7815C16.6999 25.7567 16.8106 25.7006 16.9015 25.619C16.9933 25.5381 17.062 25.434 17.1006 25.3174C17.1391 25.2008 17.1461 25.0759 17.1208 24.9557Z" fill="white"/>
<path fill-rule="evenodd" clip-rule="evenodd" d="M20.8925 25.473C20.796 25.3979 20.682 25.349 20.5614 25.3311C20.4408 25.3132 20.3176 25.3269 20.2037 25.3708C20.0898 25.4162 19.9897 25.4909 19.9135 25.5875C19.8373 25.6842 19.7875 25.7993 19.7693 25.9214C19.7534 26.0433 19.7686 26.1672 19.8135 26.2814C19.8584 26.3957 19.9315 26.4965 20.0258 26.5743C20.1217 26.6511 20.236 26.701 20.3572 26.7191C20.4783 26.7372 20.6021 26.7228 20.7159 26.6773C20.8298 26.6319 20.9298 26.557 21.0058 26.4601C21.0819 26.3633 21.1313 26.248 21.149 26.1258C21.1654 26.004 21.1503 25.8799 21.1054 25.7656C21.0605 25.6513 20.9872 25.5505 20.8925 25.473Z" fill="white"/>
<path fill-rule="evenodd" clip-rule="evenodd" d="M12.6949 26.7952C12.8016 26.5951 12.8548 26.3706 12.8493 26.1435C12.8439 25.9164 12.78 25.6946 12.6639 25.5C12.5165 25.256 12.2934 25.0679 12.0292 24.9648C11.7649 24.8618 11.4744 24.8495 11.2025 24.93C10.9307 25.0105 10.6928 25.1791 10.5257 25.4099C10.3587 25.6406 10.2719 25.9205 10.2787 26.2061C10.2855 26.4917 10.3857 26.767 10.5636 26.9893C10.7415 27.2117 10.9872 27.3686 11.2625 27.4357C11.5379 27.5029 11.8276 27.4765 12.0866 27.3607C12.3456 27.2449 12.5594 27.0461 12.6949 26.7952Z" fill="white"/>
<path fill-rule="evenodd" clip-rule="evenodd" d="M17.5283 26.958C17.4941 26.7913 17.4174 26.6364 17.3056 26.5087C17.1939 26.3811 17.051 26.285 16.8912 26.2301C16.7308 26.1757 16.559 26.1649 16.3931 26.1987C16.2273 26.2325 16.0731 26.3097 15.9462 26.4226C15.8194 26.5355 15.7242 26.6801 15.6703 26.8419C15.6164 27.0036 15.6057 27.1768 15.6393 27.3441C15.6728 27.5113 15.7494 27.6667 15.8614 27.7946C15.9734 27.9226 16.1168 28.0185 16.2773 28.0728C16.4377 28.1271 16.6095 28.1379 16.7754 28.104C16.9412 28.0701 17.0953 27.9929 17.2222 27.8799C17.3485 27.7665 17.4432 27.6217 17.4969 27.46C17.5506 27.2983 17.5614 27.1253 17.5283 26.958Z" fill="white"/>
<path fill-rule="evenodd" clip-rule="evenodd" d="M22.4677 26.7474C22.336 26.6406 22.1786 26.5708 22.0115 26.5452C21.8444 26.5195 21.6735 26.5389 21.5162 26.6014C21.3576 26.6632 21.218 26.7663 21.1118 26.9002C21.0055 27.034 20.9364 27.1939 20.9113 27.3635C20.8863 27.5331 20.9063 27.7063 20.9694 27.8656C21.0324 28.0248 21.1361 28.1644 21.27 28.27C21.4018 28.3769 21.5592 28.4467 21.7263 28.4723C21.8934 28.498 22.0643 28.4785 22.2216 28.416C22.3802 28.3543 22.5198 28.2512 22.626 28.1173C22.7323 27.9835 22.8014 27.8236 22.8264 27.654C22.8515 27.4844 22.8314 27.3112 22.7684 27.1519C22.7054 26.9927 22.6017 26.8531 22.4677 26.7474Z" fill="white"/>
<path fill-rule="evenodd" clip-rule="evenodd" d="M25.1242 28.1572C24.9924 28.0517 24.8414 27.9735 24.6796 27.9269C24.5179 27.8803 24.3486 27.8663 24.1815 27.8856C23.844 27.9248 23.5358 28.0975 23.3245 28.3657C23.1133 28.634 23.0165 28.9759 23.0553 29.3162C23.0941 29.6565 23.2653 29.9674 23.5314 30.1803C23.7063 30.3232 23.9157 30.4165 24.1383 30.4506C24.3608 30.4847 24.5883 30.4584 24.7974 30.3743C25.0061 30.2893 25.1893 30.1509 25.329 29.9728C25.4686 29.7947 25.5599 29.583 25.5937 29.3585C25.6274 29.1343 25.6017 28.9051 25.5192 28.6942C25.4368 28.4832 25.3005 28.298 25.1242 28.1572Z" fill="white"/>
<path fill-rule="evenodd" clip-rule="evenodd" d="M18.6651 29.7529C18.6092 29.4742 18.4637 29.2218 18.2512 29.0349C18.0387 28.8479 17.771 28.7368 17.4896 28.7187C17.2081 28.7006 16.9286 28.7766 16.6943 28.9348C16.46 29.093 16.2839 29.3248 16.1934 29.5941C16.1028 29.8634 16.1029 30.1553 16.1934 30.4245C16.284 30.6938 16.4601 30.9255 16.6945 31.0837C16.9288 31.2419 17.2083 31.3179 17.4898 31.2997C17.7712 31.2816 18.0389 31.1704 18.2513 30.9835C18.4215 30.8331 18.5494 30.6402 18.622 30.4241C18.6947 30.2081 18.7095 29.9766 18.6651 29.7529Z" fill="white"/>
<path fill-rule="evenodd" clip-rule="evenodd" d="M12.2319 30.7937C12.3739 30.5269 12.4448 30.2274 12.4376 29.9247C12.4303 29.6219 12.3452 29.3263 12.1905 29.0667C11.994 28.7416 11.6967 28.491 11.3445 28.3537C10.9923 28.2164 10.6051 28.2001 10.2428 28.3074C9.88052 28.4147 9.56351 28.6395 9.34091 28.947C9.11832 29.2545 9.00261 29.6275 9.01173 30.0081C9.02085 30.3887 9.15429 30.7556 9.39134 31.052C9.6284 31.3483 9.95582 31.5574 10.3228 31.647C10.6898 31.7365 11.0758 31.7014 11.421 31.5471C11.7662 31.3928 12.0512 31.128 12.2319 30.7937Z" fill="white"/>
<path fill-rule="evenodd" clip-rule="evenodd" d="M28.9473 29.3045C28.6533 29.0664 28.2895 28.9328 27.9125 28.9245C27.5355 28.9161 27.1663 29.0335 26.8622 29.2583C26.558 29.4831 26.336 29.8029 26.2305 30.1679C26.125 30.533 26.1419 30.9229 26.2787 31.2773C26.4154 31.6316 26.6644 31.9306 26.9868 32.1277C27.3093 32.3249 27.6872 32.4092 28.0621 32.3677C28.4369 32.3261 28.7877 32.161 29.06 31.8979C29.3322 31.6348 29.5108 31.2884 29.5679 30.9126C29.614 30.6132 29.5809 30.3068 29.472 30.0245C29.363 29.7421 29.182 29.4937 28.9473 29.3045Z" fill="white"/>
<path fill-rule="evenodd" clip-rule="evenodd" d="M20.8558 33.1191C20.797 32.8216 20.6612 32.545 20.4621 32.3175C20.263 32.09 20.0077 31.9197 19.7222 31.8239C19.4365 31.7294 19.1314 31.7117 18.8368 31.7724C18.5423 31.8331 18.2685 31.9702 18.0425 32.1701C17.8201 32.3712 17.6537 32.6275 17.5598 32.9135C17.466 33.1995 17.448 33.5053 17.5076 33.8005C17.5672 34.0956 17.7023 34.37 17.8996 34.5962C18.0968 34.8225 18.3494 34.9927 18.6321 35.0902C18.9174 35.1845 19.2222 35.2021 19.5164 35.1414C19.8106 35.0807 20.084 34.9437 20.3097 34.7439C20.5364 34.5448 20.7065 34.2883 20.8025 34.001C20.8985 33.7136 20.9169 33.4056 20.8558 33.1087V33.1191Z" fill="white"/>
<path fill-rule="evenodd" clip-rule="evenodd" d="M17.6267 20.3608C17.6981 20.7264 17.8646 21.0663 18.1092 21.3456C18.3539 21.6249 18.6678 21.8336 19.0188 21.9501C19.3697 22.0687 19.7453 22.0926 20.1082 22.0194C20.4711 21.9462 20.8087 21.7785 21.0874 21.533C21.364 21.2865 21.5712 20.9708 21.6882 20.6177C21.8052 20.2647 21.8278 19.8868 21.7538 19.5221C21.6797 19.1575 21.5116 18.819 21.2664 18.5407C21.0212 18.2624 20.7076 18.0543 20.3572 17.9372C20.0063 17.8182 19.6307 17.7942 19.2677 17.8674C18.9047 17.9406 18.5671 18.1085 18.2886 18.3544C18.0109 18.5991 17.8025 18.9138 17.6847 19.2663C17.567 19.6188 17.5441 19.9965 17.6184 20.3608H17.6267Z" fill="white"/>
</g>
<defs>
<clipPath id="clip0">
<rect width="117.273" height="40" fill="white"/>
</clipPath>
</defs>
</svg>
