<svg width="40" height="62" viewBox="0 0 40 62" xmlns="http://www.w3.org/2000/svg"><title>logo</title><g fill="none" fill-rule="evenodd"><path d="M4.21 36.35a23.36 23.36 0 0 0 2.472 1.683c.772.449 1.701.858 2.79 1.228l-2.48 15.446-6.923-4.3L4.21 36.348zm9.107-30.785l1.467.223-4.058 25.936C9.4 30.92 8.516 30.347 8.076 30c-.439-.346-.96-.803-1.565-1.37l6.806-23.066zM18.982.123l.079 33.838a24.774 24.774 0 0 1-2.61-.262 26.344 26.344 0 0 1-2.625-.589L17.456.048l1.526.075zM16.09 25.549v4.32h1.64v-4.32h-1.64zm-3.084 14.823c.847.216 1.75.39 2.708.523.96.132 2.042.24 3.25.322v20.838l-7.93-4.722 1.972-16.96zm1.221 5.736v5.81h2.756v-5.81h-2.756z" fill="#FDCE34"/><path d="M35.79 36.35a23.36 23.36 0 0 1-2.472 1.683c-.772.449-1.701.858-2.79 1.228l2.48 15.446 6.923-4.3-4.142-14.058zM26.683 5.565l-1.467.223 4.058 25.936c1.327-.803 2.21-1.377 2.65-1.723.439-.346.96-.803 1.565-1.37L26.683 5.565zM21.018.123l-.079 33.838c.99-.053 1.859-.14 2.61-.262a26.344 26.344 0 0 0 2.625-.589L22.544.048l-1.526.075zm2.893 25.426v4.32h-1.64v-4.32h1.64zm3.083 14.823c-.847.216-1.75.39-2.708.523-.96.132-2.042.24-3.25.322v20.838l7.93-4.722-1.972-16.96zm-1.221 5.736v5.81h-2.756v-5.81h2.756z" fill="#319018"/><path d="M8.397 32.26a19.05 19.05 0 0 0 5.033 2.23c1.817.514 3.722.86 5.713 1.04v4.247c-2.107-.068-4.286-.41-6.537-1.028-2.25-.619-4.278-1.508-6.082-2.67l1.873-3.818zm23.355-.007a19.05 19.05 0 0 1-5.033 2.23c-1.817.514-3.82.81-6.011.891v4.246a24.38 24.38 0 0 0 6.835-.879c2.25-.618 4.278-1.508 6.082-2.669 3.46-2.389 5.122-5.077 4.986-8.064-.136-2.986-2.056-5.58-5.759-7.778h-.715c2.441 1.798 3.606 3.812 3.493 6.042-.112 2.23-1.405 4.224-3.878 5.981zM6.034 30.301l1.395 1.257-2.136 3.522a6.36 6.36 0 0 1-1.094-.91 16.98 16.98 0 0 1-.907-1.027L6.034 30.3zM4.72 27.76l.33.8.493.827-3.069 2.52c-.175-.221-.343-.571-.507-1.05-.163-.48-.252-1.083-.266-1.81l3.019-1.288zm-2.336-2.583h2.234l-.043.777-.031.564-2.927 1.042a14.78 14.78 0 0 1 .362-1.39c.11-.33.245-.662.405-.993z" fill="#FDCE34"/></g></svg>