<?xml version="1.0" encoding="UTF-8"?>
<svg width="40px" height="62px" viewBox="0 0 40 62" version="1.1" xmlns="http://www.w3.org/2000/svg" xmlns:xlink="http://www.w3.org/1999/xlink">
    <!-- Generator: Sketch 49 (51002) - http://www.bohemiancoding.com/sketch -->
    <title>logo</title>
    <desc>Created with Sketch.</desc>
    <defs></defs>
    <g id="Symbols" stroke="none" stroke-width="1" fill="none" fill-rule="evenodd">
        <g id="header" transform="translate(-40.000000, -20.000000)">
            <g id="logo">
                <g transform="translate(40.000000, 20.000000)">
                    <g id="atom/logo">
                        <g id="logo">
                            <g id="Group-3" fill="#FDCE34">
                                <path d="M4.21062825,36.3492454 C5.08682106,37.0232819 5.91064729,37.5845687 6.68210695,38.0331057 C7.4535666,38.4816427 8.38341641,38.8909512 9.47165636,39.2610313 L6.99269114,54.7071123 L0.0685744889,50.4063757 L4.21062825,36.3492454 Z" id="Rectangle"></path>
                                <path d="M13.3171957,5.56469233 L14.7839039,5.78815602 L10.726257,31.7236235 C9.39905419,30.9208201 8.51578063,30.3465296 8.07643633,30.0007521 C7.63709202,29.6549747 7.1152375,29.1983316 6.51087276,28.630823 L13.3171957,5.56469233 Z" id="Rectangle-2"></path>
                                <path d="M18.9820742,0.122742105 L19.06073,33.9605715 C18.0718955,33.9077374 17.2019953,33.8204902 16.4510293,33.6988298 C15.7000634,33.5771695 14.8251142,33.3810477 13.8261816,33.1104645 L17.4559458,0.0482542096 L18.9820742,0.122742105 Z M16.0893855,25.5493482 L16.0893855,29.8696462 L17.7281192,29.8696462 L17.7281192,25.5493482 L16.0893855,25.5493482 Z" id="Combined-Shape"></path>
                                <path d="M13.0061134,40.3724395 C13.8527912,40.5884425 14.7555687,40.7625184 15.7144457,40.894667 C16.6733227,41.0268157 17.7563462,41.1341351 18.9635162,41.2166252 L18.9635162,62.0552059 L11.0338219,57.332728 L13.0061134,40.3724395 Z M14.2271881,46.1080074 L14.2271881,51.9180633 L16.9832402,51.9180633 L16.9832402,46.1080074 L14.2271881,46.1080074 Z" id="Combined-Shape"></path>
                            </g>
                            <g id="Group-3-Copy" transform="translate(30.000000, 31.500000) scale(-1, 1) translate(-30.000000, -31.500000) translate(20.000000, 0.000000)" fill="#319018">
                                <path d="M4.21062825,36.3492454 C5.08682106,37.0232819 5.91064729,37.5845687 6.68210695,38.0331057 C7.4535666,38.4816427 8.38341641,38.8909512 9.47165636,39.2610313 L6.99269114,54.7071123 L0.0685744889,50.4063757 L4.21062825,36.3492454 Z" id="Rectangle"></path>
                                <path d="M13.3171957,5.56469233 L14.7839039,5.78815602 L10.726257,31.7236235 C9.39905419,30.9208201 8.51578063,30.3465296 8.07643633,30.0007521 C7.63709202,29.6549747 7.1152375,29.1983316 6.51087276,28.630823 L13.3171957,5.56469233 Z" id="Rectangle-2"></path>
                                <path d="M18.9820742,0.122742105 L19.06073,33.9605715 C18.0718955,33.9077374 17.2019953,33.8204902 16.4510293,33.6988298 C15.7000634,33.5771695 14.8251142,33.3810477 13.8261816,33.1104645 L17.4559458,0.0482542096 L18.9820742,0.122742105 Z M16.0893855,25.5493482 L16.0893855,29.8696462 L17.7281192,29.8696462 L17.7281192,25.5493482 L16.0893855,25.5493482 Z" id="Combined-Shape"></path>
                                <path d="M13.0061134,40.3724395 C13.8527912,40.5884425 14.7555687,40.7625184 15.7144457,40.894667 C16.6733227,41.0268157 17.7563462,41.1341351 18.9635162,41.2166252 L18.9635162,62.0552059 L11.0338219,57.332728 L13.0061134,40.3724395 Z M14.2271881,46.1080074 L14.2271881,51.9180633 L16.9832402,51.9180633 L16.9832402,46.1080074 L14.2271881,46.1080074 Z" id="Combined-Shape"></path>
                            </g>
                            <path d="M8.39683041,32.2605414 C9.93506313,33.2334751 11.6127664,33.9767111 13.4299401,34.4902494 C15.2471139,35.0037877 17.1515969,35.3506133 19.1433892,35.5307263 L19.1433892,39.7765363 C17.0362248,39.7094043 14.8572364,39.3667296 12.6064239,38.7485124 C10.3556115,38.1302951 8.32813576,37.2406678 6.52399682,36.0796305 L8.39683041,32.2605414 Z" id="Rectangle-4" fill="#FDCE34"></path>
                            <path d="M27.5741946,32.2532588 C29.1124273,33.2261925 30.7901306,33.9694286 32.6073043,34.4829669 C34.4244781,34.9965052 36.4282783,35.2936722 38.618705,35.3744679 L38.618705,39.620278 C36.3129062,39.6524631 34.0346006,39.3594471 31.7837881,38.7412298 C29.5329757,38.1230125 27.5055,37.2333853 25.701361,36.072348 C22.2409832,33.6830006 20.5789942,30.9949966 20.715394,28.008336 C20.8517938,25.0216754 22.7714517,22.4287569 26.4743677,20.2295804 L27.1892654,20.2295804 C24.7478702,22.0278432 23.583501,24.0420201 23.6961578,26.2721111 C23.8088147,28.502202 25.1014936,30.495918 27.5741946,32.2532588 Z" id="Rectangle-4-Copy" fill="#FDCE34" transform="translate(29.663170, 29.926124) scale(-1, 1) translate(-29.663170, -29.926124) "></path>
                            <path d="M6.03351955,30.3012308 L7.42929024,31.5578632 L5.29299547,35.0802359 C4.88794365,34.8123481 4.52331561,34.5088249 4.19911132,34.1696663 C3.87490703,33.8305077 3.57249171,33.4881686 3.29186537,33.1426489 L6.03351955,30.3012308 Z" id="Rectangle-5" fill="#FDCE34"></path>
                            <path d="M4.719698,27.7593921 L5.05000546,28.5592209 L5.54344466,29.3870201 L2.47398896,31.9065913 C2.29943924,31.6857059 2.13054389,31.3356224 1.96730292,30.8563409 C1.80406194,30.3770595 1.71530886,29.7736315 1.70104368,29.0460571 L4.719698,27.7593921 Z" id="Rectangle-5-Copy" fill="#FDCE34"></path>
                            <path d="M2.38361266,25.1769088 L4.61824953,25.1769088 C4.59990145,25.5071743 4.58551976,25.7660448 4.57510445,25.9535202 C4.56468915,26.1409956 4.55424155,26.3290525 4.54376164,26.5176909 L1.61661234,27.5602665 C1.74820687,26.9653532 1.86901754,26.5022313 1.97904434,26.1709007 C2.08907115,25.83957 2.22392726,25.5082394 2.38361266,25.1769088 Z" id="Rectangle-6" fill="#FDCE34"></path>
                        </g>
                    </g>
                </g>
            </g>
        </g>
    </g>
</svg>