<svg width="15" height="8" viewBox="0 0 15 8" fill="none" xmlns="http://www.w3.org/2000/svg">
<path d="M7.57947 5.31171L2.4541 0.217436C2.31331 0.0771651 2.12508 -6.07628e-08 1.92437 -5.20423e-08C1.72355 -4.3317e-08 1.53542 0.0771651 1.39441 0.217436L0.94554 0.663824C0.804307 0.803874 0.726562 0.991087 0.726562 1.19059C0.726562 1.39009 0.804307 1.57708 0.94554 1.71724L7.04773 7.78278C7.18919 7.9235 7.3782 8.00055 7.57914 8C7.78096 8.00055 7.96975 7.92361 8.11132 7.78278L14.2076 1.72289C14.3488 1.58273 14.4266 1.39574 14.4266 1.19612C14.4266 0.996622 14.3488 0.809631 14.2076 0.66936L13.7587 0.223082C13.4666 -0.0673128 12.991 -0.0673128 12.6989 0.223082L7.57947 5.31171Z" fill="#27BF52"/>
</svg>
