<svg width="24" height="24" fill="none" xmlns="http://www.w3.org/2000/svg"><path d="M20.485 3.515A11.922 11.922 0 0012 0a11.922 11.922 0 00-8.485 3.515A11.922 11.922 0 000 12c0 3.205 1.248 6.219 3.515 8.485A11.922 11.922 0 0012 24c3.205 0 6.219-1.248 8.485-3.515A11.921 11.921 0 0024 12c0-3.205-1.248-6.219-3.515-8.485zM5.208 20.123c.396-3.41 3.328-6.042 6.792-6.042 1.826 0 3.544.712 4.835 2.004a6.832 6.832 0 011.957 4.038A10.546 10.546 0 0112 22.593c-2.583 0-4.952-.928-6.792-2.47zM12 12.633a3.649 3.649 0 01-3.645-3.645A3.649 3.649 0 0112 5.344a3.649 3.649 0 013.645 3.644A3.649 3.649 0 0112 12.633zm8.002 6.301a8.244 8.244 0 00-2.172-3.844 8.218 8.218 0 00-3.002-1.918 5.05 5.05 0 002.223-4.184A5.057 5.057 0 0012 3.938a5.057 5.057 0 00-5.051 5.05 5.05 5.05 0 002.225 4.185 8.226 8.226 0 00-2.792 1.713 8.219 8.219 0 00-2.385 4.047A10.549 10.549 0 011.407 12C1.406 6.159 6.158 1.406 12 1.406S22.594 6.16 22.594 12c0 2.65-.978 5.075-2.592 6.934z" fill="#D2D2D2"/></svg>