<svg width="21" height="20" fill="none" xmlns="http://www.w3.org/2000/svg"><path d="M16.827 2.166h-.603V1.51C16.224.677 15.567 0 14.76 0c-.809 0-1.465.677-1.465 1.509v.657H11.79v-.657C11.79.677 11.134 0 10.325 0 9.517 0 8.86.677 8.86 1.509v.657H7.356v-.657C7.356.677 6.7 0 5.891 0c-.808 0-1.465.677-1.465 1.509v.657h-.77a2.335 2.335 0 00-2.331 2.332v13.17A2.335 2.335 0 003.657 20h13.17a2.335 2.335 0 002.332-2.332V4.498a2.335 2.335 0 00-2.332-2.332zm-2.71-.657c0-.378.288-.686.642-.686.354 0 .642.308.642.686v2.687c0 .378-.287.686-.642.686-.354 0-.642-.308-.642-.686V1.509zm-4.434 0c0-.378.288-.686.642-.686.354 0 .642.308.642.686v2.687c0 .378-.288.686-.642.686-.354 0-.642-.308-.642-.686V1.509zm-4.434 0c0-.378.288-.686.642-.686.354 0 .642.308.642.686v2.687c0 .378-.288.686-.642.686-.354 0-.642-.308-.642-.686V1.509zm12.538 16.16c0 .529-.43.96-.96.96H3.657c-.53 0-.96-.431-.96-.96V5.595h15.09v12.072z" fill="#ADADAD"/><path d="M6.453 8.026H3.93v2.244h2.522V8.026zM9.819 8.026H7.297v2.244h2.522V8.026zM13.186 8.026h-2.521v2.244h2.521V8.026zM16.552 8.026H14.03v2.244h2.522V8.026zM6.453 11.021H3.93v2.242h2.522v-2.242zM9.819 11.021H7.297v2.242h2.522v-2.242zM13.186 11.021h-2.521v2.242h2.521v-2.242zM16.552 11.021H14.03v2.242h2.522v-2.242zM6.453 14.015H3.93v2.242h2.522v-2.242zM9.819 14.015H7.297v2.242h2.522v-2.242zM13.186 14.015h-2.521v2.242h2.521v-2.242zM16.552 14.015H14.03v2.242h2.522v-2.242z" fill="#ADADAD"/></svg>