<svg width="24" height="24" fill="none" xmlns="http://www.w3.org/2000/svg"><g clip-path="url(#clip0)" fill="#ADADAD"><path d="M23.414 16.326c0-1.278-1.005-2.32-2.239-2.32-.054 0-.106.01-.158.014a4.757 4.757 0 00.343-1.812c0-1.549-1.911-5.101-3.16-6.276a9.968 9.968 0 01-2.164.235 9.946 9.946 0 01-2.226-.25c-1.232 1.032-3.39 4.694-3.39 6.292 0 .27.023.526.066.77a16.113 16.113 0 00-1.137-.041c-.999 0-1.96.112-2.87.318-.027-.343-.046-.552-.046-.552H.503s-.26 2.25-.26 5.023c0 2.773.26 5.021.26 5.021h5.93s.052-.587.108-1.42c.883-.154 1.787.088 2.83.76a8.42 8.42 0 004.72 1.425c1.79 0 3.328-.547 4.606-1.466l.001.002a.55.55 0 00.05-.041 8.595 8.595 0 001.024-.876c.25-.266.59-.605 1.099-1.121 1.71-1.74 1.92-2.085 1.92-2.085h-.006a2.33 2.33 0 00.63-1.6zm-8.812-6.036a1.213 1.213 0 01.585-.635c.136-.072.283-.118.443-.143v-.403h.824v.464c.122.036.231.085.33.145v-.181h.825v1.278h-.83a2.823 2.823 0 00-.195-.203 1.006 1.006 0 00-.2-.146 1 1 0 00-.231-.088 1.282 1.282 0 00-.297-.03c-.165 0-.29.04-.38.12-.087.083-.132.17-.132.263 0 .264.274.438.826.525.34.052.612.14.814.258.2.12.354.25.462.39.105.14.173.279.203.415.03.137.045.246.045.33a1.137 1.137 0 01-.353.822c-.108.107-.24.191-.39.258a1.534 1.534 0 01-.493.115v.384h-.824v-.5c-.045-.02-.084-.04-.128-.058-.042-.016-.08-.037-.12-.057v.188h-.824v-1.28h.824c.072.082.14.151.21.211a.992.992 0 00.452.231c.089.017.19.026.304.026.149 0 .272-.03.37-.094.1-.063.148-.144.148-.247a.356.356 0 00-.077-.223.687.687 0 00-.196-.161 1.179 1.179 0 00-.264-.106 3.209 3.209 0 00-.286-.065 2.498 2.498 0 01-.8-.244c-.2-.11-.353-.229-.462-.36a1.02 1.02 0 01-.212-.4 1.499 1.499 0 01-.05-.36 1.11 1.11 0 01.08-.439zm7.451 6.945c-.3.307-1.567 1.661-1.911 2.01-.89.904-1.305 1.328-1.499 1.562l-.005-.004c-.136.127-.279.24-.424.351a7.179 7.179 0 01-4.123 1.285 7.171 7.171 0 01-4.154-1.303H9.93c-.998-.629-2.166-1.016-3.321-.898.046-.827.083-1.732.083-2.51 0-1.082-.073-2.408-.139-3.427.879-.205 1.818-.32 2.794-.32 2.98 0 5.62 1.021 7.235 2.62.19.22.31.51.31.827 0 .686-.538 1.244-1.2 1.244-.024 0-.047-.008-.075-.01l-.003.014c-.618-.021-1.584-.29-3.216-.937l-.371 1.008c1.725.68 2.862.987 3.668 1.008v-.008c1.01-.001 1.863-.7 2.14-1.65v.001c.35-.6 1.656-1.852 2.399-2.536v.002l.02-.022c.137-.126.257-.234.342-.31.157-.103.319-.146.578-.146.66 0 1.2.558 1.2 1.243 0 .342-.146.664-.32.906zM14.093 5.156s1.007.247 1.993.247c.986 0 1.634-.145 1.634-.145.573-.291 1.86-3.367 1.106-4.452-.845-1.21-2.256 1.42-2.908 1.15-.649-.27-2.033-1.672-2.947-1.1-.793.497.498 3.819 1.122 4.3z"/></g><defs><clipPath id="clip0"><path fill="#fff" transform="translate(.241)" d="M0 0h23.172v24H0z"/></clipPath></defs></svg>