<svg width="19" height="19" fill="none" xmlns="http://www.w3.org/2000/svg"><g clip-path="url(#clip0)" fill="#ADADAD"><path d="M13.673.614a1.022 1.022 0 00-1.397.472L4.547 16.83c-.26.53-.056 1.178.456 1.447.15.08.311.117.47.117.379 0 .744-.215.927-.588L14.13 2.06c.26-.53.056-1.177-.456-1.447zM8.124 5.799c0-2.251-1.768-4.082-3.941-4.082S.24 3.548.24 5.799c0 2.25 1.769 4.082 3.942 4.082s3.94-1.831 3.94-4.082zm-3.941 1.93c-1.027 0-1.863-.866-1.863-1.93s.836-1.93 1.863-1.93c1.027 0 1.863.866 1.863 1.93s-.836 1.93-1.863 1.93zM14.54 9.01c-2.173 0-3.94 1.832-3.94 4.083 0 2.25 1.767 4.082 3.94 4.082 2.174 0 3.942-1.832 3.942-4.082 0-2.251-1.768-4.082-3.942-4.082zm0 6.012c-1.027 0-1.862-.866-1.862-1.93 0-1.063.835-1.929 1.862-1.929 1.028 0 1.863.866 1.863 1.93 0 1.063-.835 1.929-1.863 1.929z"/></g><defs><clipPath id="clip0"><path fill="#fff" transform="translate(.241)" d="M0 0h18.24v18.891H0z"/></clipPath></defs></svg>