<svg width="28" height="24" fill="none" xmlns="http://www.w3.org/2000/svg"><path d="M.82 9.95a.82.82 0 01.82.82v1.64c0 .453.369.82.82.82h.876a9.032 9.032 0 013.623-7.218A10.349 10.349 0 019.9 4.495 4.518 4.518 0 0114.383.488a4.518 4.518 0 014.485 4.026c.763.245 1.434.521 2.091.902 1.22-1.19 2.906-1.71 4.753-1.177a.82.82 0 01.55 1.048L24.779 9.74c.142.336.263.68.363 1.03h1.492c.754 0 1.367.613 1.367 1.367v3.008c0 .753-.613 1.367-1.367 1.367H24.86c-.756 1.871-2.198 3.339-4.299 4.372v1.807a.82.82 0 01-.82.82h-3.281a.82.82 0 01-.82-.82v-.82H13.18v.82a.82.82 0 01-.82.82H9.077a.82.82 0 01-.82-.82v-1.813c-2.122-1.098-4.155-3.233-4.749-6.007H2.461A2.464 2.464 0 010 12.411V10.77a.82.82 0 01.82-.82zm13.563-7.821A2.874 2.874 0 0011.512 5a2.874 2.874 0 002.87 2.871A2.874 2.874 0 0017.255 5a2.874 2.874 0 00-2.871-2.871zM9.408 19.61a.82.82 0 01.49.75v1.51h1.641v-.82a.82.82 0 01.82-.82h4.102a.82.82 0 01.82.82v.82h1.64v-1.51a.82.82 0 01.49-.75c2.167-.953 3.505-2.316 4.091-4.167a.82.82 0 01.783-.573h2.074v-2.46H24.5a.82.82 0 01-.804-.656 7.328 7.328 0 00-.539-1.626.82.82 0 01-.035-.606l1.283-3.849c-1.648-.06-2.547 1.179-2.61 1.269a.81.81 0 01-1.147.216c-.65-.45-1.24-.718-1.916-.959a4.503 4.503 0 01-.918 1.726h.671a.82.82 0 010 1.64h-8.203a.82.82 0 010-1.64h.671a4.506 4.506 0 01-.92-1.736 8.518 8.518 0 00-2.087 1.134 7.43 7.43 0 00-2.968 5.906c0 3.061 2.225 5.41 4.431 6.38z" fill="#1C9D40"/><path d="M20.563 12.41a.82.82 0 110-1.64.82.82 0 010 1.64z" fill="#1C9D40"/></svg>