<svg width="100" height="39" viewBox="0 0 100 39" xmlns="http://www.w3.org/2000/svg"><title>Group 4</title><g fill="none" opacity=".502"><path d="M68.656 19.236L85.462.144H70.569l-5.112 18.773h.036c1.14 0 2.17.106 3.163.32z" fill="#E09339"/><path d="M7.831 11.393h9.083l-7.354 26.9H.476l7.355-26.9zm21.366 8.127h3.237l-1.619 5.962H27.69l-3.604 12.812h-8.973l3.566-12.812h-2.353l1.618-5.962h2.28l1.766-6.281h8.973l-1.766 6.281zm20.3 6.955c-1.177-.07-1.986-.141-3.199.035-2.648.427-3.898 1.846-4.56 4.188l-2.096 7.594h-8.974l5.185-18.95h8.974l-1.361 3.833s2.537-4.258 8.164-4.258l-2.133 7.558zm38.319-3.3c2.243-2.448 3.42-4.258 7.097-4.258 4.45 0 5.406 3.549 4.23 7.702L95.98 38.294h-9.084l2.501-9.227c.331-1.1.736-2.697-.882-2.697-1.582 0-2.023 1.597-2.317 2.697l-2.537 9.227h-8.937l5.186-18.95h8.936l-1.03 3.832zm-19.16-3.939l-4.743 5.394 1.544-5.713c-6.473.036-12.835 3.513-14.636 10.15-1.73 6.281 3.125 9.687 9.266 9.687 6.142 0 12.835-3.406 14.564-9.688 1.507-5.5-1.324-8.836-5.995-9.83zm-2.097 9.582c-.587 2.058-2.72 3.69-4.854 3.69-2.133 0-3.383-1.632-2.794-3.69.551-2.058 2.684-3.691 4.817-3.691s3.384 1.633 2.831 3.691z" fill="#C9352D"/></g></svg>