<svg width="40" height="40" viewBox="0 0 40 40" fill="none" xmlns="http://www.w3.org/2000/svg">
<g clip-path="url(#clip0)">
<path d="M31.625 19.9994C31.625 13.5775 26.4219 8.37439 20 8.37439C13.5781 8.37439 8.375 13.5775 8.375 19.9994C8.375 25.8016 12.6261 30.611 18.1836 31.4838V23.3599H15.2305V19.9994H18.1836V17.4381C18.1836 14.5249 19.918 12.9156 22.5744 12.9156C23.8466 12.9156 25.1769 13.1425 25.1769 13.1425V16.0019H23.7106C22.2669 16.0019 21.8164 16.8981 21.8164 17.8174V19.9994H25.0405L24.5248 23.3599H21.8164V31.4838C27.3739 30.611 31.625 25.8016 31.625 19.9994Z" fill="#ADAFB3"/>
</g>
<defs>
<clipPath id="clip0">
<rect width="24" height="24" fill="white" transform="translate(8 7.99939)"/>
</clipPath>
</defs>
</svg>
