<svg width="40" height="40" viewBox="0 0 40 40" fill="none" xmlns="http://www.w3.org/2000/svg">
<path d="M20.5 14.6094C17.5 14.6094 15.1094 17.0469 15.1094 20C15.1094 23 17.5 25.3906 20.5 25.3906C23.4531 25.3906 25.8906 23 25.8906 20C25.8906 17.0469 23.4531 14.6094 20.5 14.6094ZM20.5 23.5156C18.5781 23.5156 16.9844 21.9688 16.9844 20C16.9844 18.0781 18.5312 16.5312 20.5 16.5312C22.4219 16.5312 23.9688 18.0781 23.9688 20C23.9688 21.9688 22.4219 23.5156 20.5 23.5156ZM27.3438 14.4219C27.3438 13.7188 26.7812 13.1562 26.0781 13.1562C25.375 13.1562 24.8125 13.7188 24.8125 14.4219C24.8125 15.125 25.375 15.6875 26.0781 15.6875C26.7812 15.6875 27.3438 15.125 27.3438 14.4219ZM30.9062 15.6875C30.8125 14 30.4375 12.5 29.2188 11.2812C28 10.0625 26.5 9.6875 24.8125 9.59375C23.0781 9.5 17.875 9.5 16.1406 9.59375C14.4531 9.6875 13 10.0625 11.7344 11.2812C10.5156 12.5 10.1406 14 10.0469 15.6875C9.95312 17.4219 9.95312 22.625 10.0469 24.3594C10.1406 26.0469 10.5156 27.5 11.7344 28.7656C13 29.9844 14.4531 30.3594 16.1406 30.4531C17.875 30.5469 23.0781 30.5469 24.8125 30.4531C26.5 30.3594 28 29.9844 29.2188 28.7656C30.4375 27.5 30.8125 26.0469 30.9062 24.3594C31 22.625 31 17.4219 30.9062 15.6875ZM28.6562 26.1875C28.3281 27.125 27.5781 27.8281 26.6875 28.2031C25.2812 28.7656 22 28.625 20.5 28.625C18.9531 28.625 15.6719 28.7656 14.3125 28.2031C13.375 27.8281 12.6719 27.125 12.2969 26.1875C11.7344 24.8281 11.875 21.5469 11.875 20C11.875 18.5 11.7344 15.2188 12.2969 13.8125C12.6719 12.9219 13.375 12.2188 14.3125 11.8438C15.6719 11.2812 18.9531 11.4219 20.5 11.4219C22 11.4219 25.2812 11.2812 26.6875 11.8438C27.5781 12.1719 28.2812 12.9219 28.6562 13.8125C29.2188 15.2188 29.0781 18.5 29.0781 20C29.0781 21.5469 29.2188 24.8281 28.6562 26.1875Z" fill="#898989"/>
</svg>
