<svg width="40" height="40" viewBox="0 0 40 40" fill="none" xmlns="http://www.w3.org/2000/svg">
<path fill-rule="evenodd" clip-rule="evenodd" d="M32 19.9994C32 26.6268 26.6274 31.9994 20 31.9994C13.3726 31.9994 8 26.6268 8 19.9994C8 13.372 13.3726 7.99939 20 7.99939C26.6274 7.99939 32 13.372 32 19.9994ZM20.4301 16.8584C19.263 17.3439 16.9303 18.3487 13.432 19.8728C12.864 20.0987 12.5664 20.3197 12.5393 20.5358C12.4935 20.901 12.9508 21.0448 13.5736 21.2406C13.6583 21.2673 13.7461 21.2949 13.8361 21.3241C14.4488 21.5233 15.2729 21.7563 15.7014 21.7655C16.0901 21.7739 16.5238 21.6137 17.0028 21.2848C20.2713 19.0785 21.9585 17.9633 22.0644 17.9393C22.1392 17.9223 22.2427 17.901 22.3129 17.9633C22.3831 18.0257 22.3762 18.1438 22.3687 18.1755C22.3234 18.3686 20.5282 20.0376 19.5992 20.9013C19.3096 21.1705 19.1042 21.3615 19.0622 21.4051C18.9681 21.5028 18.8722 21.5953 18.7801 21.6841C18.2109 22.2328 17.784 22.6443 18.8037 23.3163C19.2938 23.6392 19.6859 23.9062 20.0771 24.1726C20.5043 24.4636 20.9304 24.7537 21.4817 25.1151C21.6222 25.2072 21.7563 25.3029 21.887 25.396C22.3842 25.7505 22.8309 26.0689 23.3827 26.0181C23.7034 25.9886 24.0346 25.6871 24.2028 24.7878C24.6003 22.6626 25.3817 18.058 25.5623 16.1605C25.5782 15.9942 25.5583 15.7815 25.5423 15.6881C25.5263 15.5947 25.4929 15.4616 25.3715 15.3631C25.2277 15.2464 25.0058 15.2218 24.9065 15.2236C24.4551 15.2315 23.7627 15.4723 20.4301 16.8584Z" fill="#29AAED"/>
</svg>
