<svg width="40" height="40" viewBox="0 0 40 40" fill="none" xmlns="http://www.w3.org/2000/svg">
<path d="M28.8125 10.3431C28.2031 9.82751 25.7656 8.04626 20.4219 8.04626C20.4219 8.04626 14.0938 7.67126 11 10.4838C9.26562 12.2181 8.65625 14.7025 8.60938 17.8431C8.5625 20.9369 8.46875 26.7963 14.0938 28.39V30.7806C14.0938 30.7806 14.0469 31.765 14.7031 31.9994C15.5 32.2338 15.9219 31.4838 16.6719 30.6869C17.0938 30.2181 17.6562 29.6088 18.0781 29.0931C21.9219 29.4213 24.875 28.6713 25.25 28.5775C26 28.2963 30.4062 27.7338 31.1094 21.9213C31.8594 15.8744 30.7812 12.0775 28.8125 10.3431ZM29.4219 21.4525C28.8594 26.3275 25.25 26.6556 24.5938 26.89C24.3125 26.9369 21.7344 27.5931 18.4531 27.4056C18.4531 27.4056 16.0156 30.3119 15.2656 31.1088C15.0312 31.3431 14.75 31.3431 14.75 30.8275C14.75 30.4994 14.75 26.7963 14.75 26.7963C10.0156 25.4838 10.2969 20.515 10.3438 17.9369C10.3906 15.3119 10.8594 13.2025 12.3125 11.7494C14.9375 9.35876 20.3281 9.73376 20.3281 9.73376C24.875 9.73376 27.0312 11.14 27.5469 11.5619C29.2344 13.015 30.0781 16.4369 29.4219 21.4525ZM22.9062 17.7025C22.8594 16.3431 22.1562 15.5931 20.8438 15.4994C20.4219 15.4994 20.375 16.1088 20.7969 16.1088C21.7812 16.2025 22.25 16.6713 22.3438 17.7025C22.3438 18.1244 22.9531 18.0775 22.9062 17.7025ZM23.8906 18.2181C23.8906 18.5931 24.5 18.64 24.5 18.2181C24.5469 15.9681 23.0938 14.0931 20.375 13.9056C19.9531 13.8588 19.9062 14.4681 20.3281 14.515C22.6719 14.6556 23.9375 16.2494 23.8906 18.2181ZM26.0938 18.8275C26.0469 14.7494 23.2812 12.3588 19.8125 12.3119C19.4375 12.3119 19.4375 12.9213 19.8125 12.9213C22.9062 12.9681 25.4375 15.0306 25.4844 18.8275C25.4844 19.2494 26.0938 19.2494 26.0938 18.8275ZM25.5312 23.4213C25.7656 22.9994 25.7188 22.6244 25.3906 22.3431C24.7812 21.7806 23.9375 21.1713 23.2344 20.7963C22.7188 20.515 22.2031 20.7025 21.9688 20.9838L21.5469 21.5463C21.3125 21.8275 20.8906 21.7806 20.8906 21.7806C17.75 20.9838 16.9062 17.8431 16.9062 17.8431C16.9062 17.8431 16.9062 17.4213 17.1875 17.1869L17.75 16.7181C18.0312 16.4838 18.1719 15.9681 17.8906 15.4525C17.75 15.1713 17.4219 14.6556 17.1875 14.3744C16.9531 13.9994 16.3438 13.3431 16.3438 13.3431C16.1094 12.9681 15.6875 12.9213 15.2656 13.1556H15.2188C14.3281 13.6244 13.3438 14.6088 13.6719 15.5463C13.6719 15.5463 13.9062 16.39 14.8906 18.1713C15.3594 19.0619 15.875 19.765 16.3438 20.3744C16.8594 21.0306 17.5625 21.7338 18.3125 22.3431C19.8125 23.515 22.1094 24.7338 23.0938 25.015H23.1406C24.0781 25.3431 25.0625 24.3588 25.5312 23.4681V23.4213Z" fill="#7360F2"/>
</svg>
