<svg width="40" height="40" viewBox="0 0 40 40" fill="none" xmlns="http://www.w3.org/2000/svg">
<path d="M28.0781 10.8978C27.5195 10.4252 25.2852 8.79236 20.3867 8.79236C20.3867 8.79236 14.5859 8.44861 11.75 11.0267C10.1602 12.6166 9.60156 14.8939 9.55859 17.7728C9.51562 20.6088 9.42969 25.9799 14.5859 27.4408V29.6322C14.5859 29.6322 14.543 30.5345 15.1445 30.7494C15.875 30.9642 16.2617 30.2767 16.9492 29.5463C17.3359 29.1166 17.8516 28.558 18.2383 28.0853C21.7617 28.3861 24.4688 27.6986 24.8125 27.6127C25.5 27.3549 29.5391 26.8392 30.1836 21.5111C30.8711 15.9681 29.8828 12.4877 28.0781 10.8978ZM28.6367 21.0814C28.1211 25.5502 24.8125 25.851 24.2109 26.0658C23.9531 26.1088 21.5898 26.7103 18.582 26.5385C18.582 26.5385 16.3477 29.2025 15.6602 29.933C15.4453 30.1478 15.1875 30.1478 15.1875 29.6752C15.1875 29.3744 15.1875 25.9799 15.1875 25.9799C10.8477 24.7767 11.1055 20.222 11.1484 17.8588C11.1914 15.4525 11.6211 13.5189 12.9531 12.1869C15.3594 9.99548 20.3008 10.3392 20.3008 10.3392C24.4688 10.3392 26.4453 11.6283 26.918 12.015C28.4648 13.347 29.2383 16.4838 28.6367 21.0814ZM22.6641 17.6439C22.6211 16.3978 21.9766 15.7103 20.7734 15.6244C20.3867 15.6244 20.3438 16.183 20.7305 16.183C21.6328 16.2689 22.0625 16.6986 22.1484 17.6439C22.1484 18.0306 22.707 17.9877 22.6641 17.6439ZM23.5664 18.1166C23.5664 18.4603 24.125 18.5033 24.125 18.1166C24.168 16.0541 22.8359 14.3353 20.3438 14.1635C19.957 14.1205 19.9141 14.6791 20.3008 14.722C22.4492 14.851 23.6094 16.3119 23.5664 18.1166ZM25.5859 18.6752C25.543 14.9369 23.0078 12.7455 19.8281 12.7025C19.4844 12.7025 19.4844 13.2611 19.8281 13.2611C22.6641 13.3041 24.9844 15.1947 25.0273 18.6752C25.0273 19.0619 25.5859 19.0619 25.5859 18.6752ZM25.0703 22.8861C25.2852 22.4994 25.2422 22.1556 24.9414 21.8978C24.3828 21.3822 23.6094 20.8236 22.9648 20.4799C22.4922 20.222 22.0195 20.3939 21.8047 20.6517L21.418 21.1674C21.2031 21.4252 20.8164 21.3822 20.8164 21.3822C17.9375 20.6517 17.1641 17.7728 17.1641 17.7728C17.1641 17.7728 17.1641 17.3861 17.4219 17.1713L17.9375 16.7416C18.1953 16.5267 18.3242 16.0541 18.0664 15.5814C17.9375 15.3236 17.6367 14.851 17.4219 14.5931C17.207 14.2494 16.6484 13.6478 16.6484 13.6478C16.4336 13.3041 16.0469 13.2611 15.6602 13.476H15.6172C14.8008 13.9056 13.8984 14.808 14.1992 15.6674C14.1992 15.6674 14.4141 16.4408 15.3164 18.0736C15.7461 18.89 16.2188 19.5345 16.6484 20.0931C17.1211 20.6947 17.7656 21.3392 18.4531 21.8978C19.8281 22.972 21.9336 24.0892 22.8359 24.347H22.8789C23.7383 24.6478 24.6406 23.7455 25.0703 22.9291V22.8861Z" fill="#ADAFB3"/>
</svg>
