<svg width="40" height="40" viewBox="0 0 40 40" fill="none" xmlns="http://www.w3.org/2000/svg">
<path fill-rule="evenodd" clip-rule="evenodd" d="M9.68413 9.68352C8 11.3677 8 14.0782 8 19.4994V20.4994C8 25.9205 8 28.6311 9.68413 30.3152C11.3683 31.9994 14.0788 31.9994 19.5 31.9994H20.5C25.9212 31.9994 28.6318 31.9994 30.3158 30.3152C32 28.6311 32 25.9205 32 20.4994V19.4994C32 14.0782 32 11.3677 30.3158 9.68352C28.6318 7.99939 25.9212 7.99939 20.5 7.99939H19.5C14.0788 7.99939 11.3683 7.99939 9.68413 9.68352ZM12.7501 15.4994H14.5005C14.9478 15.4994 15.1161 15.6951 15.2839 16.1797C16.14 18.6729 17.5834 20.8518 18.1768 20.8518C18.3993 20.8518 18.5014 20.7494 18.5014 20.1844V17.6073C18.4612 16.8737 18.2049 16.5565 18.015 16.3215C17.8978 16.1764 17.8059 16.0627 17.8059 15.9016C17.8059 15.7059 17.9732 15.4994 18.2513 15.4994H21.002C21.3729 15.4994 21.5021 15.6977 21.5021 16.1427V19.6096C21.5021 19.9804 21.6631 20.1102 21.7744 20.1102C21.9969 20.1102 22.1824 19.9804 22.5904 19.5725C23.8514 18.1635 24.7414 15.9943 24.7414 15.9943C24.8527 15.7348 25.058 15.4994 25.503 15.4994H27.2534C27.7828 15.4994 27.894 15.7718 27.7827 16.1427C27.5602 17.1623 25.4276 20.1658 25.4276 20.1658C25.2422 20.4624 25.168 20.6108 25.4276 20.9445C25.519 21.0725 25.7141 21.2635 25.9373 21.4821C26.1668 21.7069 26.4261 21.9608 26.633 22.2052C27.3849 23.0509 27.9515 23.7643 28.1094 24.256C28.2537 24.7494 28.0036 24.9994 27.5035 24.9994H25.753C25.2842 24.9994 25.0482 24.7368 24.538 24.1695C24.3218 23.929 24.0563 23.6338 23.703 23.2805C22.6645 22.2794 22.2195 22.1496 21.9598 22.1496C21.6075 22.1496 21.5021 22.2494 21.5021 22.7494V24.3188C21.5021 24.7494 21.3645 24.9994 20.2518 24.9994C18.3974 24.9994 16.3595 23.8738 14.913 21.7973C12.7433 18.7568 12.1499 16.4578 12.1499 15.9943C12.1499 15.7348 12.2499 15.4994 12.7501 15.4994Z" fill="#ADAFB3"/>
</svg>
