<svg width="40" height="40" viewBox="0 0 40 40" fill="none" xmlns="http://www.w3.org/2000/svg">
<path d="M27.3125 12.5931C25.3906 10.6244 22.7656 9.49939 19.9531 9.49939C14.2344 9.49939 9.54688 14.1869 9.54688 19.9056C9.54688 21.7806 10.0625 23.5619 10.9531 25.1088L9.5 30.4994L14.9844 29.0931C16.5312 29.89 18.2188 30.3588 19.9531 30.3588C25.7188 30.3588 30.5 25.6713 30.5 19.9525C30.5 17.14 29.2812 14.5619 27.3125 12.5931ZM19.9531 28.5775C18.4062 28.5775 16.9062 28.1556 15.5469 27.3588L15.2656 27.1713L11.9844 28.0619L12.875 24.8744L12.6406 24.5463C11.7969 23.14 11.3281 21.5463 11.3281 19.9056C11.3281 15.1713 15.2188 11.2806 20 11.2806C22.2969 11.2806 24.4531 12.1713 26.0938 13.8119C27.7344 15.4525 28.7188 17.6088 28.7188 19.9525C28.7188 24.6869 24.7344 28.5775 19.9531 28.5775ZM24.7344 22.1088C24.4531 21.9681 23.1875 21.3588 22.9531 21.265C22.7188 21.1713 22.5312 21.1244 22.3438 21.4056C22.2031 21.64 21.6875 22.2494 21.5469 22.4369C21.3594 22.5775 21.2188 22.6244 20.9844 22.4838C19.4375 21.7338 18.4531 21.1244 17.4219 19.39C17.1406 18.9213 17.7031 18.9681 18.1719 17.9838C18.2656 17.7963 18.2188 17.6556 18.1719 17.515C18.125 17.3744 17.5625 16.1088 17.375 15.5931C17.1406 15.0775 16.9531 15.1244 16.7656 15.1244C16.625 15.1244 16.4375 15.1244 16.2969 15.1244C16.1094 15.1244 15.8281 15.1713 15.5938 15.4525C15.3594 15.7338 14.7031 16.3431 14.7031 17.6088C14.7031 18.9213 15.5938 20.14 15.7344 20.3275C15.875 20.4681 17.5625 23.0931 20.1875 24.2181C21.8281 24.9681 22.4844 25.015 23.3281 24.8744C23.7969 24.8275 24.8281 24.265 25.0625 23.6556C25.2969 23.0463 25.2969 22.5306 25.2031 22.4369C25.1562 22.2963 24.9688 22.2494 24.7344 22.1088Z" fill="#25D366"/>
</svg>
