<svg width="40" height="40" viewBox="0 0 40 40" fill="none" xmlns="http://www.w3.org/2000/svg">
<path d="M26.7031 12.9603C24.9414 11.1556 22.5352 10.1244 19.957 10.1244C14.7148 10.1244 10.418 14.4213 10.418 19.6635C10.418 21.3822 10.8906 23.015 11.707 24.433L10.375 29.3744L15.4023 28.0853C16.8203 28.8158 18.3672 29.2455 19.957 29.2455C25.2422 29.2455 29.625 24.9486 29.625 19.7064C29.625 17.1283 28.5078 14.765 26.7031 12.9603ZM19.957 27.6127C18.5391 27.6127 17.1641 27.226 15.918 26.4955L15.6602 26.3236L12.6523 27.14L13.4688 24.2181L13.2539 23.9174C12.4805 22.6283 12.0508 21.1674 12.0508 19.6635C12.0508 15.3236 15.6172 11.7572 20 11.7572C22.1055 11.7572 24.082 12.5736 25.5859 14.0775C27.0898 15.5814 27.9922 17.558 27.9922 19.7064C27.9922 24.0463 24.3398 27.6127 19.957 27.6127ZM24.3398 21.683C24.082 21.5541 22.9219 20.9955 22.707 20.9095C22.4922 20.8236 22.3203 20.7806 22.1484 21.0385C22.0195 21.2533 21.5469 21.8119 21.418 21.9838C21.2461 22.1127 21.1172 22.1556 20.9023 22.0267C19.4844 21.3392 18.582 20.7806 17.6367 19.1908C17.3789 18.7611 17.8945 18.8041 18.3242 17.9017C18.4102 17.7299 18.3672 17.601 18.3242 17.472C18.2812 17.3431 17.7656 16.183 17.5938 15.7103C17.3789 15.2377 17.207 15.2806 17.0352 15.2806C16.9062 15.2806 16.7344 15.2806 16.6055 15.2806C16.4336 15.2806 16.1758 15.3236 15.9609 15.5814C15.7461 15.8392 15.1445 16.3978 15.1445 17.558C15.1445 18.7611 15.9609 19.8783 16.0898 20.0502C16.2188 20.1791 17.7656 22.5853 20.1719 23.6166C21.6758 24.3041 22.2773 24.347 23.0508 24.2181C23.4805 24.1752 24.4258 23.6595 24.6406 23.101C24.8555 22.5424 24.8555 22.0697 24.7695 21.9838C24.7266 21.8549 24.5547 21.8119 24.3398 21.683Z" fill="#ADAFB3"/>
</svg>
