<?xml version="1.0" encoding="UTF-8"?>
<svg width="876px" height="876px" viewBox="0 0 876 876" version="1.1" xmlns="http://www.w3.org/2000/svg" xmlns:xlink="http://www.w3.org/1999/xlink">
    <!-- Generator: Sketch 39.1 (31720) - http://www.bohemiancoding.com/sketch -->
    <title>Shape</title>
    <desc>Created with Sketch.</desc>
    <defs></defs>
    <g id="Page-1" stroke="none" stroke-width="1" fill="none" fill-rule="evenodd">
        <path d="M438.304,0.833 C196.678,0.833 0.804,196.708 0.804,438.334 C0.804,679.96 196.679,875.835 438.304,875.835 C679.929,875.835 875.805,679.96 875.805,438.334 C875.805,196.707 679.93,0.833 438.304,0.833 L438.304,0.833 Z M639.09,338.74 L397.588,580.243 C391.738,586.083 384.091,589.014 376.425,589.014 C368.769,589.014 361.112,586.083 355.272,580.243 L237.797,462.768 C226.107,451.087 226.107,432.143 237.797,420.453 C243.648,414.613 251.294,411.682 258.96,411.682 C266.616,411.682 274.273,414.613 280.112,420.453 L376.425,516.765 L596.775,296.415 C608.465,284.734 627.4,284.734 639.09,296.415 C644.931,302.266 647.861,309.922 647.861,317.578 C647.861,325.244 644.931,332.889 639.09,338.74 L639.09,338.74 Z" id="Shape" fill="#f3ba07"></path>
    </g>
</svg>