<?xml version="1.0" encoding="utf-8"?>
<!-- Generator: Adobe Illustrator 16.0.2, SVG Export Plug-In . SVG Version: 6.00 Build 0)  -->
<!DOCTYPE svg PUBLIC "-//W3C//DTD SVG 1.1//EN" "http://www.w3.org/Graphics/SVG/1.1/DTD/svg11.dtd">
<svg version="1.1" xmlns="http://www.w3.org/2000/svg" xmlns:xlink="http://www.w3.org/1999/xlink" x="0px" y="0px" width="68px"
	 height="89px" viewBox="0 0 68 89" enable-background="new 0 0 68 89" xml:space="preserve">
<g id="Слой_1">
	
		<line fill="#334D5E" stroke="#FFC400" stroke-width="4" stroke-linejoin="round" stroke-miterlimit="22.9256" x1="16" y1="54" x2="52" y2="54"/>
	
		<line fill="#334D5E" stroke="#FFC400" stroke-width="4" stroke-linejoin="round" stroke-miterlimit="22.9256" x1="23" y1="35" x2="37" y2="35"/>
	
		<line fill="#334D5E" stroke="#FFC400" stroke-width="4" stroke-linejoin="round" stroke-miterlimit="22.9256" x1="16" y1="66" x2="40" y2="66"/>
	<path fill="none" stroke="#FFC400" stroke-width="4" stroke-miterlimit="22.9256" d="M2,4c0-2,0-2,2-2h60c2,0,2,0,2,2
		c0,4.75,0,74,0,74l-8,8l-8-7.25L41.75,86L34,78.75l-8,6.75l-8.25-6.75l-8,7.25L2,77.75V4z"/>
	<path fill="none" stroke="#FFC400" stroke-width="4" stroke-miterlimit="22.9256" d="M28,41V17c0,0,4.5,0,10,0s4.75,4.5,4.75,5.75
		S43,29,37.75,29c-3,0-8.75,0-8.75,0"/>
</g>
<g id="setka">
</g>
<g id="setka_copy">
</g>
</svg>
