<svg xmlns="http://www.w3.org/2000/svg" xmlns:xlink="http://www.w3.org/1999/xlink" viewBox="0 0 24 30" version="1.1" x="0px" y="0px"><title>design_087-graphic-pencil-ruler-math</title><desc>Created with Sketch.</desc><g stroke="none" stroke-width="1" fill="none" fill-rule="evenodd"><g transform="translate(-332.000000, -428.000000)" fill="#000000"><g transform="translate(335.000000, 428.000000)"><rect transform="translate(4.000000, 4.500000) rotate(180.000000) translate(-4.000000, -4.500000) " x="0" y="4" width="8" height="1"/><path d="M1.51247341,18.0270231 C2.18583679,18.3239678 3.01345806,18.500001 4,18.500001 C4.98654194,18.500001 5.81416321,18.3239678 6.48752659,18.0270231 C6.90865277,17.8413117 7.19137216,17.6471827 7.34470653,17.5012477 C7.54473535,17.3108715 7.55256038,16.9943858 7.36218421,16.7943569 C7.17180805,16.5943281 6.85532228,16.5865031 6.65529347,16.7768793 C6.58248043,16.8461786 6.39501555,16.9749012 6.08403117,17.1120414 C5.53721028,17.3531825 4.84694212,17.500001 4,17.500001 C3.15305788,17.500001 2.46278972,17.3531825 1.91596883,17.1120414 C1.60498445,16.9749012 1.41751957,16.8461786 1.34470653,16.7768793 C1.14467772,16.5865031 0.828191947,16.5943281 0.637815785,16.7943569 C0.447439623,16.9943858 0.455264648,17.3108715 0.655293466,17.5012477 C0.808627841,17.6471827 1.09134723,17.8413117 1.51247341,18.0270231 Z" transform="translate(4.000000, 17.569532) rotate(180.000000) translate(-4.000000, -17.569532) "/><path d="M2.56613323,21.0573963 C2.95317633,21.3343708 3.43321427,21.5000594 4,21.5000594 C4.56678573,21.5000594 5.04682367,21.3343708 5.43386677,21.0573963 C5.67270982,20.8864762 5.83137917,20.7096763 5.91970461,20.573262 C6.06978797,20.3414655 6.00354642,20.0318908 5.77174997,19.8818074 C5.53995351,19.731724 5.23037876,19.7979656 5.08029539,20.029762 C5.05554713,20.0679845 4.97912434,20.1531399 4.85191211,20.2441751 C4.62886308,20.4037927 4.3499563,20.5000594 4,20.5000594 C3.6500437,20.5000594 3.37113692,20.4037927 3.14808789,20.2441751 C3.02087566,20.1531399 2.94445287,20.0679845 2.91970461,20.029762 C2.76962124,19.7979656 2.46004649,19.731724 2.22825003,19.8818074 C1.99645358,20.0318908 1.93021203,20.3414655 2.08029539,20.573262 C2.16862083,20.7096763 2.32729018,20.8864762 2.56613323,21.0573963 Z" transform="translate(4.000000, 20.650756) rotate(180.000000) translate(-4.000000, -20.650756) "/><path d="M1,21.5067126 L1,6.16000366 L3.99745339,1.42394344 L6.99999984,6.16430656 L7,21.5064802 C7,22.335051 6.33357072,23 5.49408095,23 L2.50591905,23 C1.67168858,23 1,22.3336358 1,21.5067126 Z M5.49408095,24 C6.88535829,24 8,22.8878342 8,21.5064802 L8,6.01644492 C8,5.92166726 7.97306216,5.82884163 7.92232626,5.74878744 L4.42617192,0.232342513 C4.22993033,-0.0772993896 3.77822737,-0.0774818244 3.58173574,0.232001461 L0.0778900824,5.75071809 C0.0270159121,5.83084723 -4.54747351e-13,5.92380162 -4.54747351e-13,6.01871663 L-4.54747351e-13,21.5067126 C-4.54747351e-13,22.8877099 1.12117751,24 2.50591905,24 L5.49408095,24 Z" transform="translate(4.000000, 12.000000) rotate(180.000000) translate(-4.000000, -12.000000) "/><rect transform="translate(2.500000, 10.500000) rotate(180.000000) translate(-2.500000, -10.500000) " x="2" y="4" width="1" height="13"/><rect transform="translate(5.500000, 10.500000) rotate(180.000000) translate(-5.500000, -10.500000) " x="5" y="4" width="1" height="13"/><path d="M10.9970301,0 L17.0029699,0 C17.5536144,0 18,0.437052369 18,0.955638751 L18,23.0443612 C18,23.572146 17.5469637,24 17.0029699,24 L10.9970301,24 C10.4463856,24 10,23.5629476 10,23.0443612 L10,0.955638751 C10,0.427854043 10.4530363,0 10.9970301,0 Z M17,1 L17,23 L11,23 L11,1 L17,1 Z"/><rect x="15" y="4" width="3" height="1"/><rect x="13" y="7" width="5" height="1"/><rect x="15" y="10" width="3" height="1"/><rect x="13" y="13" width="5" height="1"/><rect x="15" y="16" width="3" height="1"/><rect x="13" y="19" width="5" height="1"/></g></g></g><text x="0" y="39" fill="#000000" font-size="5px" font-weight="bold" font-family="'Helvetica Neue', Helvetica, Arial-Unicode, Arial, Sans-serif">Created by Pham Thi Dieu Linh</text><text x="0" y="44" fill="#000000" font-size="5px" font-weight="bold" font-family="'Helvetica Neue', Helvetica, Arial-Unicode, Arial, Sans-serif">from the Noun Project</text></svg>