<svg xmlns="http://www.w3.org/2000/svg" xmlns:xlink="http://www.w3.org/1999/xlink" version="1.1" x="0px" y="0px" viewBox="0 0 100 125" style="enable-background:new 0 0 100 100;" xml:space="preserve"><g><path d="M20.1,52.2c7,10.9,16.4,20.3,27.3,27.3L60.8,88c1.8,1.1,3.8,1.7,5.9,1.7c1,0,2-0.1,3-0.4l4.9-1.4c3.7-1,6.5-3.8,7.6-7.5   l2.1-7.3c0.6-1.9-0.4-3.9-2.2-4.7l-14.8-6.3c-1.5-0.6-3.2-0.3-4.4,0.9l-7.2,7.4c-10.5-6.9-19.5-16.2-26.2-26.9l6.8-6.9   c1.1-1.2,1.4-3,0.7-4.4l-6.7-14c-0.9-1.8-3-2.7-4.9-2l-6.6,2.5c-3,1.1-5.4,3.5-6.5,6.5l-1.6,4.3c-1.2,3.2-0.8,6.8,1,9.7L20.1,52.2z    M12.6,30.2l1.6-4.3c0.9-2.5,2.8-4.4,5.3-5.3l6.6-2.5c0.9-0.3,2,0.1,2.4,1l6.7,14c0.3,0.7,0.2,1.6-0.4,2.2l-7.3,7.5   c-0.3,0.3-0.4,0.8-0.1,1.2l0.1,0.1c7,11.4,16.6,21.3,27.9,28.5c0.4,0.3,0.9,0.2,1.3-0.1l7.8-8c0.6-0.6,1.4-0.7,2.1-0.4l14.8,6.3   c0.9,0.4,1.4,1.4,1.1,2.3l-2.1,7.3c-0.9,3-3.2,5.3-6.2,6.1l-4.9,1.4c-2.5,0.7-5.1,0.3-7.2-1.1l-13.4-8.6   c-10.6-6.8-19.9-16-26.7-26.7l-8.3-13C12,35.7,11.6,32.8,12.6,30.2z"/><path d="M54.9,12.2c18.6,0,33.7,15.1,33.7,33.7c0,0.6,0.4,1,1,1s1-0.4,1-1c0-19.7-16-35.7-35.7-35.7c-0.6,0-1,0.4-1,1   S54.4,12.2,54.9,12.2z"/><path d="M54.9,25.3c11.4,0,20.7,9.3,20.7,20.7c0,0.6,0.4,1,1,1s1-0.4,1-1c0-12.5-10.2-22.7-22.7-22.7c-0.6,0-1,0.4-1,1   S54.4,25.3,54.9,25.3z"/><path d="M54.9,38.3c4.2,0,7.7,3.4,7.7,7.7c0,0.6,0.4,1,1,1s1-0.4,1-1c0-5.3-4.3-9.7-9.7-9.7c-0.6,0-1,0.4-1,1S54.4,38.3,54.9,38.3z   "/></g><text x="0" y="115" fill="#000000" font-size="5px" font-weight="bold" font-family="'Helvetica Neue', Helvetica, Arial-Unicode, Arial, Sans-serif">Created by Viktor Vorobyev</text><text x="0" y="120" fill="#000000" font-size="5px" font-weight="bold" font-family="'Helvetica Neue', Helvetica, Arial-Unicode, Arial, Sans-serif">from the Noun Project</text></svg>