<svg xmlns="http://www.w3.org/2000/svg" xmlns:xlink="http://www.w3.org/1999/xlink" viewBox="0 0 24 30" version="1.1" x="0px" y="0px"><title>design_025-align_horizontal-arrange-graphic-center</title><desc>Created with Sketch.</desc><g stroke="none" stroke-width="1" fill="none" fill-rule="evenodd"><g transform="translate(-236.000000, -140.000000)" fill="#000000"><g transform="translate(237.000000, 140.000000)"><rect x="10" y="0" width="1" height="3"/><rect x="10" y="10" width="1" height="4"/><rect x="10" y="21" width="1" height="3"/><path d="M1.00285076,9.99853476 L19.9985348,9.99802444 L19.9971492,3.00146524 L1.00146524,3.00197556 L1.00285076,9.99853476 Z M0.998746091,2 L20.0012539,2 C20.5528461,2 21,2.43861485 21,2.99874609 L21,10.0012539 C21,10.5528461 20.5613852,11 20.0012539,11 L0.998746091,11 C0.447153856,11 0,10.5613852 0,10.0012539 L0,2.99874609 C0,2.44715386 0.438614845,2 0.998746091,2 Z"/><path d="M5.00226729,20.9985348 L15.9985348,20.9980244 L15.9977327,14.0014652 L5.00146524,14.0019756 L5.00226729,20.9985348 Z M4.99874609,13 L16.0012539,13 C16.5528461,13 17,13.4386148 17,13.9987461 L17,21.0012539 C17,21.5528461 16.5613852,22 16.0012539,22 L4.99874609,22 C4.44715386,22 4,21.5613852 4,21.0012539 L4,13.9987461 C4,13.4471539 4.43861485,13 4.99874609,13 Z"/><circle cx="14.5" cy="4.5" r="0.5"/><circle cx="12.5" cy="6.5" r="0.5"/><circle cx="14.5" cy="8.5" r="0.5"/><circle cx="18.5" cy="4.5" r="0.5"/><circle cx="16.5" cy="6.5" r="0.5"/><circle cx="18.5" cy="8.5" r="0.5"/><circle cx="10.5" cy="4.5" r="0.5"/><circle cx="8.5" cy="6.5" r="0.5"/><circle cx="10.5" cy="8.5" r="0.5"/><circle cx="6.5" cy="4.5" r="0.5"/><circle cx="4.5" cy="6.5" r="0.5"/><circle cx="6.5" cy="8.5" r="0.5"/><circle cx="2.5" cy="4.5" r="0.5"/><circle cx="2.5" cy="8.5" r="0.5"/></g></g></g><text x="0" y="39" fill="#000000" font-size="5px" font-weight="bold" font-family="'Helvetica Neue', Helvetica, Arial-Unicode, Arial, Sans-serif">Created by Pham Thi Dieu Linh</text><text x="0" y="44" fill="#000000" font-size="5px" font-weight="bold" font-family="'Helvetica Neue', Helvetica, Arial-Unicode, Arial, Sans-serif">from the Noun Project</text></svg>