<svg xmlns="http://www.w3.org/2000/svg" xmlns:xlink="http://www.w3.org/1999/xlink" viewBox="0 0 24 30" version="1.1" x="0px" y="0px"><title>design_032-align_vertical-arrange-graphic-tool</title><desc>Created with Sketch.</desc><g stroke="none" stroke-width="1" fill="none" fill-rule="evenodd"><g transform="translate(-92.000000, -188.000000)" fill="#000000"><g transform="translate(92.000000, 188.000000)"><polygon points="2 12 0 12 0 11 2 11"/><polygon points="6 12 4 12 4 11 6 11"/><polygon points="10 12 8 12 8 11 10 11"/><polygon points="15 12 13 12 13 11 15 11"/><polygon points="19 12 17 12 17 11 19 11"/><polygon points="23 12 21 12 21 11 23 11"/><path d="M3.70777962,21.9999996 L11.4964706,14.2106656 L19.2897012,22 L3.70777962,21.9999996 Z M2.14644661,22.1464466 C1.83146418,22.461429 2.05454757,23 2.5,23 L20.5,23 C20.9454524,23 21.1685358,22.461429 20.8535534,22.1464466 L11.8535534,13.1464466 C11.6582912,12.9511845 11.3417088,12.9511845 11.1464466,13.1464466 L2.14644661,22.1464466 Z"/><path d="M19.2922204,1.00000038 L11.5035294,8.78933437 L3.7102988,1 L19.2922204,1.00000038 Z M20.8535534,0.853553391 C21.1685358,0.53857096 20.9454524,-1.61648472e-13 20.5,-1.61648472e-13 L2.5,-1.59872116e-13 C2.05454757,-1.59872116e-13 1.83146418,0.53857096 2.14644661,0.853553391 L11.1464466,9.85355339 C11.3417088,10.0488155 11.6582912,10.0488155 11.8535534,9.85355339 L20.8535534,0.853553391 Z"/><circle cx="15.5" cy="2.5" r="0.5"/><circle cx="11.5" cy="2.5" r="0.5"/><circle cx="13.5" cy="4.5" r="0.5"/><circle cx="9.5" cy="4.5" r="0.5"/><circle cx="11.5" cy="6.5" r="0.5"/><circle cx="7.5" cy="2.5" r="0.5"/></g></g></g><text x="0" y="39" fill="#000000" font-size="5px" font-weight="bold" font-family="'Helvetica Neue', Helvetica, Arial-Unicode, Arial, Sans-serif">Created by Pham Thi Dieu Linh</text><text x="0" y="44" fill="#000000" font-size="5px" font-weight="bold" font-family="'Helvetica Neue', Helvetica, Arial-Unicode, Arial, Sans-serif">from the Noun Project</text></svg>