<svg xmlns="http://www.w3.org/2000/svg" data-name="Layer 1" viewBox="0 0 100 125" x="0px" y="0px"><title>Artboard 22</title><path d="M94,35.71a7.32,7.32,0,0,0-3.86-4.36l-8.82-4.1-1.18-9.65a7.29,7.29,0,0,0-8.64-6.27L62,13.18,55.34,6.06a7.29,7.29,0,0,0-10.67,0L38,13.18l-9.54-1.86a7.29,7.29,0,0,0-8.64,6.28l-1.18,9.65-8.82,4.1A7.29,7.29,0,0,0,6.56,41.5L11.28,50,6.56,58.5a7.29,7.29,0,0,0,3.3,10.15l8.82,4.1,1.18,9.65a7.29,7.29,0,0,0,8.64,6.27L38,86.82l6.63,7.12a7.29,7.29,0,0,0,10.67,0L62,86.82l9.54,1.86a7.29,7.29,0,0,0,8.64-6.28l1.18-9.65,8.82-4.1a7.29,7.29,0,0,0,3.3-10.15L88.72,50l4.72-8.5A7.32,7.32,0,0,0,94,35.71Zm-4.93,3.37-5.39,9.71a2.5,2.5,0,0,0,0,2.43l5.39,9.71a2.29,2.29,0,0,1-1,3.19L78,68.81a2.5,2.5,0,0,0-1.43,2l-1.35,11a2.29,2.29,0,0,1-2.72,2L61.56,81.65a2.51,2.51,0,0,0-2.31.75l-7.57,8.13a2.35,2.35,0,0,1-3.36,0L40.75,82.4a2.5,2.5,0,0,0-1.83-.8,2.57,2.57,0,0,0-.48,0L27.54,83.78a2.29,2.29,0,0,1-2.72-2l-1.35-11a2.5,2.5,0,0,0-1.43-2L12,64.12a2.29,2.29,0,0,1-1-3.19l5.39-9.71a2.5,2.5,0,0,0,0-2.43l-5.39-9.71a2.29,2.29,0,0,1,1-3.19L22,31.19a2.5,2.5,0,0,0,1.43-2l1.35-11a2.29,2.29,0,0,1,2.72-2l10.91,2.13a2.51,2.51,0,0,0,2.31-.75l7.57-8.13a2.35,2.35,0,0,1,3.36,0l7.57,8.13a2.51,2.51,0,0,0,2.31.75l10.91-2.13a2.29,2.29,0,0,1,2.72,2l1.35,11a2.5,2.5,0,0,0,1.43,2L88,35.88a2.29,2.29,0,0,1,1,3.19Zm-26.6-1.25L41.51,65.21a2.5,2.5,0,0,1-4-3L58.49,34.79a2.5,2.5,0,0,1,4,3ZM60.78,50.31a8,8,0,0,0-7.94,7.94V59.9a7.94,7.94,0,1,0,15.88,0V58.25A8,8,0,0,0,60.78,50.31Zm2.94,9.6a2.94,2.94,0,1,1-5.88,0V58.25a2.94,2.94,0,0,1,5.88,0ZM47.16,41.75V40.1a7.94,7.94,0,1,0-15.88,0v1.65a7.94,7.94,0,0,0,15.88,0Zm-10.88,0V40.1a2.94,2.94,0,1,1,5.88,0v1.65a2.94,2.94,0,0,1-5.88,0Z"/><text x="0" y="115" fill="#000000" font-size="5px" font-weight="bold" font-family="'Helvetica Neue', Helvetica, Arial-Unicode, Arial, Sans-serif">Created by Gregor Cresnar</text><text x="0" y="120" fill="#000000" font-size="5px" font-weight="bold" font-family="'Helvetica Neue', Helvetica, Arial-Unicode, Arial, Sans-serif">from the Noun Project</text></svg>