<svg xmlns="http://www.w3.org/2000/svg" xmlns:xlink="http://www.w3.org/1999/xlink" viewBox="0 0 24 30" version="1.1" x="0px" y="0px"><title>design_079-mask-subtract-hide-combine</title><desc>Created with Sketch.</desc><g stroke="none" stroke-width="1" fill="none" fill-rule="evenodd"><g transform="translate(-428.000000, -380.000000)" fill="#000000"><g transform="translate(428.000000, 382.000000)"><polygon points="23 3 23 5 24 5 24 3"/><polygon transform="translate(23.500000, 17.000000) scale(1, -1) translate(-23.500000, -17.000000) " points="23 16 23 18 24 18 24 16"/><polygon points="7 3 17 3 18 4 8 4 8 17 18 17 17 18 7 18"/><rect x="19" y="3" width="2" height="1"/><rect x="19" y="17" width="2" height="1"/><rect x="23" y="7" width="1" height="2"/><rect x="23" y="12" width="1" height="2"/><circle cx="9.5" cy="5.5" r="0.5"/><circle cx="11.5" cy="7.5" r="0.5"/><circle cx="15.5" cy="7.5" r="0.5"/><circle cx="13.5" cy="5.5" r="0.5"/><circle cx="17.5" cy="5.5" r="0.5"/><circle cx="9.5" cy="9.5" r="0.5"/><circle cx="11.5" cy="11.5" r="0.5"/><circle cx="9.5" cy="13.5" r="0.5"/><circle cx="15.5" cy="11.5" r="0.5"/><circle cx="11.5" cy="15.5" r="0.5"/><circle cx="15.5" cy="15.5" r="0.5"/><circle cx="13.5" cy="9.5" r="0.5"/><circle cx="13.5" cy="13.5" r="0.5"/><circle cx="17.5" cy="13.5" r="0.5"/><circle cx="17.5" cy="9.5" r="0.5"/><path d="M21,10.5 C21,4.70101013 16.2989899,0 10.5,0 C4.70101013,0 0,4.70101013 0,10.5 C0,16.2989899 4.70101013,21 10.5,21 C16.2989899,21 21,16.2989899 21,10.5 Z M1,10.5 C1,5.25329488 5.25329488,1 10.5,1 C15.7467051,1 20,5.25329488 20,10.5 C20,15.7467051 15.7467051,20 10.5,20 C5.25329488,20 1,15.7467051 1,10.5 Z"/></g></g></g><text x="0" y="39" fill="#000000" font-size="5px" font-weight="bold" font-family="'Helvetica Neue', Helvetica, Arial-Unicode, Arial, Sans-serif">Created by Pham Thi Dieu Linh</text><text x="0" y="44" fill="#000000" font-size="5px" font-weight="bold" font-family="'Helvetica Neue', Helvetica, Arial-Unicode, Arial, Sans-serif">from the Noun Project</text></svg>