<svg version="1.1" xmlns="http://www.w3.org/2000/svg">
	<defs>
		<symbol id="icon-adv1" viewBox="0 3 24 20">
			<g transform="translate(-428.000000, -380.000000)" fill="#FFC400"><g transform="translate(428.000000, 382.000000)"><polygon points="23 3 23 5 24 5 24 3"/><polygon transform="translate(23.500000, 17.000000) scale(1, -1) translate(-23.500000, -17.000000) " points="23 16 23 18 24 18 24 16"/><polygon points="7 3 17 3 18 4 8 4 8 17 18 17 17 18 7 18"/><rect x="19" y="3" width="2" height="1"/><rect x="19" y="17" width="2" height="1"/><rect x="23" y="7" width="1" height="2"/><rect x="23" y="12" width="1" height="2"/><circle cx="9.5" cy="5.5" r="0.5"/><circle cx="11.5" cy="7.5" r="0.5"/><circle cx="15.5" cy="7.5" r="0.5"/><circle cx="13.5" cy="5.5" r="0.5"/><circle cx="17.5" cy="5.5" r="0.5"/><circle cx="9.5" cy="9.5" r="0.5"/><circle cx="11.5" cy="11.5" r="0.5"/><circle cx="9.5" cy="13.5" r="0.5"/><circle cx="15.5" cy="11.5" r="0.5"/><circle cx="11.5" cy="15.5" r="0.5"/><circle cx="15.5" cy="15.5" r="0.5"/><circle cx="13.5" cy="9.5" r="0.5"/><circle cx="13.5" cy="13.5" r="0.5"/><circle cx="17.5" cy="13.5" r="0.5"/><circle cx="17.5" cy="9.5" r="0.5"/><path d="M21,10.5 C21,4.70101013 16.2989899,0 10.5,0 C4.70101013,0 0,4.70101013 0,10.5 C0,16.2989899 4.70101013,21 10.5,21 C16.2989899,21 21,16.2989899 21,10.5 Z M1,10.5 C1,5.25329488 5.25329488,1 10.5,1 C15.7467051,1 20,5.25329488 20,10.5 C20,15.7467051 15.7467051,20 10.5,20 C5.25329488,20 1,15.7467051 1,10.5 Z"/></g></g>
		</symbol>
		<symbol id="icon-adv2" viewBox="0 2 24 20">
			<g stroke="none" stroke-width="1" fill="#FFC400" fill-rule="evenodd"><g transform="translate(-92.000000, -188.000000)"><g transform="translate(92.000000, 188.000000)"><polygon points="2 12 0 12 0 11 2 11"/><polygon points="6 12 4 12 4 11 6 11"/><polygon points="10 12 8 12 8 11 10 11"/><polygon points="15 12 13 12 13 11 15 11"/><polygon points="19 12 17 12 17 11 19 11"/><polygon points="23 12 21 12 21 11 23 11"/><path d="M3.70777962,21.9999996 L11.4964706,14.2106656 L19.2897012,22 L3.70777962,21.9999996 Z M2.14644661,22.1464466 C1.83146418,22.461429 2.05454757,23 2.5,23 L20.5,23 C20.9454524,23 21.1685358,22.461429 20.8535534,22.1464466 L11.8535534,13.1464466 C11.6582912,12.9511845 11.3417088,12.9511845 11.1464466,13.1464466 L2.14644661,22.1464466 Z"/><path d="M19.2922204,1.00000038 L11.5035294,8.78933437 L3.7102988,1 L19.2922204,1.00000038 Z M20.8535534,0.853553391 C21.1685358,0.53857096 20.9454524,-1.61648472e-13 20.5,-1.61648472e-13 L2.5,-1.59872116e-13 C2.05454757,-1.59872116e-13 1.83146418,0.53857096 2.14644661,0.853553391 L11.1464466,9.85355339 C11.3417088,10.0488155 11.6582912,10.0488155 11.8535534,9.85355339 L20.8535534,0.853553391 Z"/><circle cx="15.5" cy="2.5" r="0.5"/><circle cx="11.5" cy="2.5" r="0.5"/><circle cx="13.5" cy="4.5" r="0.5"/><circle cx="9.5" cy="4.5" r="0.5"/><circle cx="11.5" cy="6.5" r="0.5"/><circle cx="7.5" cy="2.5" r="0.5"/></g></g></g>
		</symbol>
		<symbol id="icon-adv3" viewBox="16 2 69 96">
			<g transform="translate(0,-952.36218)" fill="#FFC400"><path style="text-indent:0;text-transform:none;direction:ltr;block-progression:tb;baseline-shift:baseline;enable-background:accumulate;" d="m 16,957.36217 0,90.00003 68,0 0,-90.00003 -68,0 z m 4,4 60,0 0,82.00003 -60,0 0,-82.00003 z m 23.4688,10.71875 -8.5938,10.3125 -4.4688,-4.46875 -2.8124,2.84375 c 2.5103,2.51041 5.0208,5.0208 7.5312,7.53125 3.8319,-4.52696 7.6094,-9.09995 11.4062,-13.65625 l -3.0624,-2.5625 z m 7.5312,8.28125 0,4 22,0 0,-4 -22,0 z m -7.5312,13.71875 -8.5938,10.31248 -4.4688,-4.46873 -2.8124,2.84373 c 2.5103,2.5104 5.0208,5.0208 7.5312,7.5313 3.8319,-4.527 7.6094,-9.1 11.4062,-13.65628 l -3.0624,-2.5625 z m 7.5312,8.28128 0,4 22,0 0,-4 -22,0 z m -7.5312,13.7187 -8.5938,10.3125 -4.4688,-4.4687 -2.8124,2.8437 c 2.5103,2.5104 5.0208,5.0208 7.5312,7.5313 3.8319,-4.527 7.6094,-9.1 11.4062,-13.6563 l -3.0624,-2.5625 z m 7.5312,8.2813 0,4 22,0 0,-4 -22,0 z" fill-opacity="1" stroke="none" marker="none" visibility="visible" display="inline" overflow="visible"/></g>
		</symbol>
		<symbol id="icon-adv4" viewBox="1 0 21 24">
			<g stroke="none" stroke-width="1" fill="#FFC400" fill-rule="evenodd"><g transform="translate(-236.000000, -140.000000)"><g transform="translate(237.000000, 140.000000)"><rect x="10" y="0" width="1" height="3"/><rect x="10" y="10" width="1" height="4"/><rect x="10" y="21" width="1" height="3"/><path d="M1.00285076,9.99853476 L19.9985348,9.99802444 L19.9971492,3.00146524 L1.00146524,3.00197556 L1.00285076,9.99853476 Z M0.998746091,2 L20.0012539,2 C20.5528461,2 21,2.43861485 21,2.99874609 L21,10.0012539 C21,10.5528461 20.5613852,11 20.0012539,11 L0.998746091,11 C0.447153856,11 0,10.5613852 0,10.0012539 L0,2.99874609 C0,2.44715386 0.438614845,2 0.998746091,2 Z"/><path d="M5.00226729,20.9985348 L15.9985348,20.9980244 L15.9977327,14.0014652 L5.00146524,14.0019756 L5.00226729,20.9985348 Z M4.99874609,13 L16.0012539,13 C16.5528461,13 17,13.4386148 17,13.9987461 L17,21.0012539 C17,21.5528461 16.5613852,22 16.0012539,22 L4.99874609,22 C4.44715386,22 4,21.5613852 4,21.0012539 L4,13.9987461 C4,13.4471539 4.43861485,13 4.99874609,13 Z"/><circle cx="14.5" cy="4.5" r="0.5"/><circle cx="12.5" cy="6.5" r="0.5"/><circle cx="14.5" cy="8.5" r="0.5"/><circle cx="18.5" cy="4.5" r="0.5"/><circle cx="16.5" cy="6.5" r="0.5"/><circle cx="18.5" cy="8.5" r="0.5"/><circle cx="10.5" cy="4.5" r="0.5"/><circle cx="8.5" cy="6.5" r="0.5"/><circle cx="10.5" cy="8.5" r="0.5"/><circle cx="6.5" cy="4.5" r="0.5"/><circle cx="4.5" cy="6.5" r="0.5"/><circle cx="6.5" cy="8.5" r="0.5"/><circle cx="2.5" cy="4.5" r="0.5"/><circle cx="2.5" cy="8.5" r="0.5"/></g></g></g>
		</symbol>
		<symbol id="icon-adv5" viewBox="0 0 68 89">
			<g>
				<line fill="#334D5E" stroke="#FFC400" stroke-width="4" stroke-linejoin="round" stroke-miterlimit="22.9256" x1="16" y1="54" x2="52" y2="54"/>
				
				<line fill="#334D5E" stroke="#FFC400" stroke-width="4" stroke-linejoin="round" stroke-miterlimit="22.9256" x1="23" y1="35" x2="37" y2="35"/>
				
				<line fill="#334D5E" stroke="#FFC400" stroke-width="4" stroke-linejoin="round" stroke-miterlimit="22.9256" x1="16" y1="66" x2="40" y2="66"/>
				<path fill="none" stroke="#FFC400" stroke-width="4" stroke-miterlimit="22.9256" d="M2,4c0-2,0-2,2-2h60c2,0,2,0,2,2
					c0,4.75,0,74,0,74l-8,8l-8-7.25L41.75,86L34,78.75l-8,6.75l-8.25-6.75l-8,7.25L2,77.75V4z"/>
				<path fill="none" stroke="#FFC400" stroke-width="4" stroke-miterlimit="22.9256" d="M28,41V17c0,0,4.5,0,10,0s4.75,4.5,4.75,5.75
					S43,29,37.75,29c-3,0-8.75,0-8.75,0"/>
			</g>
		</symbol>
		<symbol id="icon-phone" viewBox="15 10 70 80">
			<g fill="#fff"><path d="M20.1,52.2c7,10.9,16.4,20.3,27.3,27.3L60.8,88c1.8,1.1,3.8,1.7,5.9,1.7c1,0,2-0.1,3-0.4l4.9-1.4c3.7-1,6.5-3.8,7.6-7.5   l2.1-7.3c0.6-1.9-0.4-3.9-2.2-4.7l-14.8-6.3c-1.5-0.6-3.2-0.3-4.4,0.9l-7.2,7.4c-10.5-6.9-19.5-16.2-26.2-26.9l6.8-6.9   c1.1-1.2,1.4-3,0.7-4.4l-6.7-14c-0.9-1.8-3-2.7-4.9-2l-6.6,2.5c-3,1.1-5.4,3.5-6.5,6.5l-1.6,4.3c-1.2,3.2-0.8,6.8,1,9.7L20.1,52.2z    M12.6,30.2l1.6-4.3c0.9-2.5,2.8-4.4,5.3-5.3l6.6-2.5c0.9-0.3,2,0.1,2.4,1l6.7,14c0.3,0.7,0.2,1.6-0.4,2.2l-7.3,7.5   c-0.3,0.3-0.4,0.8-0.1,1.2l0.1,0.1c7,11.4,16.6,21.3,27.9,28.5c0.4,0.3,0.9,0.2,1.3-0.1l7.8-8c0.6-0.6,1.4-0.7,2.1-0.4l14.8,6.3   c0.9,0.4,1.4,1.4,1.1,2.3l-2.1,7.3c-0.9,3-3.2,5.3-6.2,6.1l-4.9,1.4c-2.5,0.7-5.1,0.3-7.2-1.1l-13.4-8.6   c-10.6-6.8-19.9-16-26.7-26.7l-8.3-13C12,35.7,11.6,32.8,12.6,30.2z"/><path d="M54.9,12.2c18.6,0,33.7,15.1,33.7,33.7c0,0.6,0.4,1,1,1s1-0.4,1-1c0-19.7-16-35.7-35.7-35.7c-0.6,0-1,0.4-1,1   S54.4,12.2,54.9,12.2z"/><path d="M54.9,25.3c11.4,0,20.7,9.3,20.7,20.7c0,0.6,0.4,1,1,1s1-0.4,1-1c0-12.5-10.2-22.7-22.7-22.7c-0.6,0-1,0.4-1,1   S54.4,25.3,54.9,25.3z"/><path d="M54.9,38.3c4.2,0,7.7,3.4,7.7,7.7c0,0.6,0.4,1,1,1s1-0.4,1-1c0-5.3-4.3-9.7-9.7-9.7c-0.6,0-1,0.4-1,1S54.4,38.3,54.9,38.3z   "/></g>
		</symbol>
		<symbol id="icon-scheme1" viewBox="3 2 18 20">
			<g stroke="none" stroke-width="1" fill="#FFC400" fill-rule="evenodd"><g transform="translate(-332.000000, -428.000000)"><g transform="translate(335.000000, 428.000000)"><rect transform="translate(4.000000, 4.500000) rotate(180.000000) translate(-4.000000, -4.500000) " x="0" y="4" width="8" height="1"/><path d="M1.51247341,18.0270231 C2.18583679,18.3239678 3.01345806,18.500001 4,18.500001 C4.98654194,18.500001 5.81416321,18.3239678 6.48752659,18.0270231 C6.90865277,17.8413117 7.19137216,17.6471827 7.34470653,17.5012477 C7.54473535,17.3108715 7.55256038,16.9943858 7.36218421,16.7943569 C7.17180805,16.5943281 6.85532228,16.5865031 6.65529347,16.7768793 C6.58248043,16.8461786 6.39501555,16.9749012 6.08403117,17.1120414 C5.53721028,17.3531825 4.84694212,17.500001 4,17.500001 C3.15305788,17.500001 2.46278972,17.3531825 1.91596883,17.1120414 C1.60498445,16.9749012 1.41751957,16.8461786 1.34470653,16.7768793 C1.14467772,16.5865031 0.828191947,16.5943281 0.637815785,16.7943569 C0.447439623,16.9943858 0.455264648,17.3108715 0.655293466,17.5012477 C0.808627841,17.6471827 1.09134723,17.8413117 1.51247341,18.0270231 Z" transform="translate(4.000000, 17.569532) rotate(180.000000) translate(-4.000000, -17.569532) "/><path d="M2.56613323,21.0573963 C2.95317633,21.3343708 3.43321427,21.5000594 4,21.5000594 C4.56678573,21.5000594 5.04682367,21.3343708 5.43386677,21.0573963 C5.67270982,20.8864762 5.83137917,20.7096763 5.91970461,20.573262 C6.06978797,20.3414655 6.00354642,20.0318908 5.77174997,19.8818074 C5.53995351,19.731724 5.23037876,19.7979656 5.08029539,20.029762 C5.05554713,20.0679845 4.97912434,20.1531399 4.85191211,20.2441751 C4.62886308,20.4037927 4.3499563,20.5000594 4,20.5000594 C3.6500437,20.5000594 3.37113692,20.4037927 3.14808789,20.2441751 C3.02087566,20.1531399 2.94445287,20.0679845 2.91970461,20.029762 C2.76962124,19.7979656 2.46004649,19.731724 2.22825003,19.8818074 C1.99645358,20.0318908 1.93021203,20.3414655 2.08029539,20.573262 C2.16862083,20.7096763 2.32729018,20.8864762 2.56613323,21.0573963 Z" transform="translate(4.000000, 20.650756) rotate(180.000000) translate(-4.000000, -20.650756) "/><path d="M1,21.5067126 L1,6.16000366 L3.99745339,1.42394344 L6.99999984,6.16430656 L7,21.5064802 C7,22.335051 6.33357072,23 5.49408095,23 L2.50591905,23 C1.67168858,23 1,22.3336358 1,21.5067126 Z M5.49408095,24 C6.88535829,24 8,22.8878342 8,21.5064802 L8,6.01644492 C8,5.92166726 7.97306216,5.82884163 7.92232626,5.74878744 L4.42617192,0.232342513 C4.22993033,-0.0772993896 3.77822737,-0.0774818244 3.58173574,0.232001461 L0.0778900824,5.75071809 C0.0270159121,5.83084723 -4.54747351e-13,5.92380162 -4.54747351e-13,6.01871663 L-4.54747351e-13,21.5067126 C-4.54747351e-13,22.8877099 1.12117751,24 2.50591905,24 L5.49408095,24 Z" transform="translate(4.000000, 12.000000) rotate(180.000000) translate(-4.000000, -12.000000) "/><rect transform="translate(2.500000, 10.500000) rotate(180.000000) translate(-2.500000, -10.500000) " x="2" y="4" width="1" height="13"/><rect transform="translate(5.500000, 10.500000) rotate(180.000000) translate(-5.500000, -10.500000) " x="5" y="4" width="1" height="13"/><path d="M10.9970301,0 L17.0029699,0 C17.5536144,0 18,0.437052369 18,0.955638751 L18,23.0443612 C18,23.572146 17.5469637,24 17.0029699,24 L10.9970301,24 C10.4463856,24 10,23.5629476 10,23.0443612 L10,0.955638751 C10,0.427854043 10.4530363,0 10.9970301,0 Z M17,1 L17,23 L11,23 L11,1 L17,1 Z"/><rect x="15" y="4" width="3" height="1"/><rect x="13" y="7" width="5" height="1"/><rect x="15" y="10" width="3" height="1"/><rect x="13" y="13" width="5" height="1"/><rect x="15" y="16" width="3" height="1"/><rect x="13" y="19" width="5" height="1"/></g></g></g>
		</symbol>						
		<symbol id="icon-scheme2" viewBox="0 2 24 20">
			<g stroke="none" stroke-width="1" fill="#FFC400" fill-rule="evenodd"><g transform="translate(-284.000000, -332.000000)"><g transform="translate(285.000000, 333.000000)"><circle cx="2.5" cy="19.5" r="0.5"/><circle cx="6.5" cy="19.5" r="0.5"/><circle cx="4.5" cy="17.5" r="0.5"/><circle cx="8.5" cy="17.5" r="0.5"/><circle cx="2.5" cy="15.5" r="0.5"/><circle cx="6.5" cy="15.5" r="0.5"/><circle cx="4.5" cy="13.5" r="0.5"/><circle cx="8.5" cy="13.5" r="0.5"/><polygon points="0 0 2 0 2 1 1 1 1 2 0 2"/><rect x="8" y="0" width="2" height="1"/><rect x="4" y="0" width="2" height="1"/><rect x="12" y="0" width="2" height="1"/><rect x="16" y="0" width="2" height="1"/><polygon points="20 21 21 21 21 20 22 20 22 22 20 22"/><polygon points="20 0 20 1 21 1 21 2 22 2 22 0"/><polygon points="0 6 0 12 1 12 1 7 15 7 15 21 10 21 10 22 16 22 16 6"/><path d="M0,11 L11,11 L11,22 L0,22 L0,11 Z M1,12 L10,12 L10,21 L1,21 L1,12 Z"/><rect x="0" y="4" width="1" height="1"/><rect x="21" y="4" width="1" height="2"/><rect x="21" y="8" width="1" height="2"/><rect x="21" y="12" width="1" height="2"/><rect x="21" y="16" width="1" height="2"/><rect x="17" y="21" width="1" height="1"/></g></g></g>
		</symbol>						
		<symbol id="icon-scheme3" viewBox="0 2 24 20">
			<g stroke="none" stroke-width="1" fill="#FFC400" fill-rule="evenodd"><g transform="translate(-236.000000, -332.000000)"><g transform="translate(236.000000, 332.000000)"><path d="M22.9967999,0 C23.550852,0 24,0.453036308 24,0.997030139 L24,7.00296986 C24,7.5536144 23.5553691,8 22.9991283,8 L8,8 L8,23.0443612 C8,23.572146 7.54696369,24 7.00296986,24 L0.997030139,24 C0.446385598,24 0,23.5629476 0,23.0443612 L0,0.955638751 C0,0.427854043 0.453036308,0 0.997030139,0 L22.9967999,0 Z M7,23 L1,23 L1,1 L7,1 L7,23 Z M23,1 L23,7 L8,7 L8,1 L23,1 Z"/><rect x="10" y="5" width="1" height="3"/><rect x="13" y="3" width="1" height="5"/><rect x="16" y="5" width="1" height="3"/><rect x="19" y="3" width="1" height="5"/><rect x="5" y="4" width="3" height="1"/><rect x="3" y="7" width="5" height="1"/><rect x="5" y="10" width="3" height="1"/><rect x="3" y="13" width="5" height="1"/><rect x="5" y="16" width="3" height="1"/><rect x="3" y="19" width="5" height="1"/></g></g></g>
		</symbol>
		<symbol id="icon-adv6" viewBox="0 0 99 99">
			<g fill="#FFC400"><path d="M94,35.71a7.32,7.32,0,0,0-3.86-4.36l-8.82-4.1-1.18-9.65a7.29,7.29,0,0,0-8.64-6.27L62,13.18,55.34,6.06a7.29,7.29,0,0,0-10.67,0L38,13.18l-9.54-1.86a7.29,7.29,0,0,0-8.64,6.28l-1.18,9.65-8.82,4.1A7.29,7.29,0,0,0,6.56,41.5L11.28,50,6.56,58.5a7.29,7.29,0,0,0,3.3,10.15l8.82,4.1,1.18,9.65a7.29,7.29,0,0,0,8.64,6.27L38,86.82l6.63,7.12a7.29,7.29,0,0,0,10.67,0L62,86.82l9.54,1.86a7.29,7.29,0,0,0,8.64-6.28l1.18-9.65,8.82-4.1a7.29,7.29,0,0,0,3.3-10.15L88.72,50l4.72-8.5A7.32,7.32,0,0,0,94,35.71Zm-4.93,3.37-5.39,9.71a2.5,2.5,0,0,0,0,2.43l5.39,9.71a2.29,2.29,0,0,1-1,3.19L78,68.81a2.5,2.5,0,0,0-1.43,2l-1.35,11a2.29,2.29,0,0,1-2.72,2L61.56,81.65a2.51,2.51,0,0,0-2.31.75l-7.57,8.13a2.35,2.35,0,0,1-3.36,0L40.75,82.4a2.5,2.5,0,0,0-1.83-.8,2.57,2.57,0,0,0-.48,0L27.54,83.78a2.29,2.29,0,0,1-2.72-2l-1.35-11a2.5,2.5,0,0,0-1.43-2L12,64.12a2.29,2.29,0,0,1-1-3.19l5.39-9.71a2.5,2.5,0,0,0,0-2.43l-5.39-9.71a2.29,2.29,0,0,1,1-3.19L22,31.19a2.5,2.5,0,0,0,1.43-2l1.35-11a2.29,2.29,0,0,1,2.72-2l10.91,2.13a2.51,2.51,0,0,0,2.31-.75l7.57-8.13a2.35,2.35,0,0,1,3.36,0l7.57,8.13a2.51,2.51,0,0,0,2.31.75l10.91-2.13a2.29,2.29,0,0,1,2.72,2l1.35,11a2.5,2.5,0,0,0,1.43,2L88,35.88a2.29,2.29,0,0,1,1,3.19Zm-26.6-1.25L41.51,65.21a2.5,2.5,0,0,1-4-3L58.49,34.79a2.5,2.5,0,0,1,4,3ZM60.78,50.31a8,8,0,0,0-7.94,7.94V59.9a7.94,7.94,0,1,0,15.88,0V58.25A8,8,0,0,0,60.78,50.31Zm2.94,9.6a2.94,2.94,0,1,1-5.88,0V58.25a2.94,2.94,0,0,1,5.88,0ZM47.16,41.75V40.1a7.94,7.94,0,1,0-15.88,0v1.65a7.94,7.94,0,0,0,15.88,0Zm-10.88,0V40.1a2.94,2.94,0,1,1,5.88,0v1.65a2.94,2.94,0,0,1-5.88,0Z"/></g>
		</symbol>						
		<symbol id="icon-adv7" viewBox="0 5 24 15">
			<g stroke="none" stroke-width="1" fill="#FFC400" fill-rule="evenodd"><g transform="translate(-477.000000, -381.000000)"><g transform="translate(477.000000, 386.000000)"><path d="M5.00468445,12 C5.00362504,12 5,1.00034732 5,1.00034732 L14.9996527,1 L14.9996529,12 L10.5,12 L10.5,13 L17.5,13 L17.5,12 L16,12 L16,1.00034732 C16,0.451900767 15.5511894,0 14.9996527,0 L5.00034732,0 C4.45190077,0 4,0.448810568 4,1.00034732 L4,11.9996527 C4,12.5490625 4.45173595,13 5.00468445,13 L6.5,13 L6.5,12 L5.00468445,12 Z"/><path d="M20.0023012,3 C20.102072,3 20.2758282,3.09820558 20.3270318,3.18354507 L22.8154752,7.33095069 C22.9116688,7.49127336 23,7.8084642 23,7.99769878 L23,12.0023012 C23,12.005438 21.5,12 21.5,12 L21.5,13 L22.9953156,13 C23.5582719,13 24,12.5571616 24,12.0023012 L24,7.99769878 C24,7.62673791 23.8621653,7.13178353 23.6729682,6.81645493 L21.1845248,2.66904931 C20.9524499,2.28225789 20.4530482,2 20.0023012,2 L15.5,2 L15.5,3 L20.0023012,3 Z"/><path d="M18.995389,4 C18.4458737,4 18,4.43863313 18,4.99047852 L18,8.00952148 C18,8.55968472 18.4418465,9 18.9976988,9 L23.5,9 L23.5,8 L18.9976988,8 C18.9933556,8 19,4.99047852 19,4.99047852 C19,4.99461576 21.5,5 21.5,5 L21.5,4 L18.995389,4 Z"/><path d="M8.5,15 C9.88071187,15 11,13.8807119 11,12.5 C11,11.1192881 9.88071187,10 8.5,10 C7.11928813,10 6,11.1192881 6,12.5 C6,13.8807119 7.11928813,15 8.5,15 Z M8.5,14 C9.32842712,14 10,13.3284271 10,12.5 C10,11.6715729 9.32842712,11 8.5,11 C7.67157288,11 7,11.6715729 7,12.5 C7,13.3284271 7.67157288,14 8.5,14 Z"/><path d="M19.5,15 C20.8807119,15 22,13.8807119 22,12.5 C22,11.1192881 20.8807119,10 19.5,10 C18.1192881,10 17,11.1192881 17,12.5 C17,13.8807119 18.1192881,15 19.5,15 Z M19.5,14 C20.3284271,14 21,13.3284271 21,12.5 C21,11.6715729 20.3284271,11 19.5,11 C18.6715729,11 18,11.6715729 18,12.5 C18,13.3284271 18.6715729,14 19.5,14 Z"/><rect x="1" y="3" width="2" height="1"/><rect x="0" y="1" width="3" height="1"/><rect x="2" y="5" width="1" height="1"/></g></g></g>
		</symbol>
		<symbol id="icon-point" viewBox="0 0 100 125">
			<g fill="#FFC400"><path d="M89.2,25.7c0.6-0.6,0.7-1.5,0.5-2.2c0.1-0.3,0.2-0.7,0.2-1c0.2-1-0.3-1.7-1-2c-0.2-0.2-0.5-0.3-0.8-0.4  c-8.6-2.3-17.3-4.6-25.9-6.9c-2.4-0.6-3,3.1-0.7,3.8C69.3,19,77,21,84.7,23.1C52,30.9,24.2,53.5,10.2,84.2c-1,2.2,2.4,3.9,3.5,1.6  c13.4-29.4,40-51.4,71.4-58.9c-1.2,5.3-2.4,10.7-3.6,16c-0.5,2.4,3.2,3.1,3.8,0.7C86.5,37.6,87.9,31.6,89.2,25.7z"/></g>
		</symbol>						
	</defs>
</svg>