<svg width="24" height="28" fill="none" xmlns="http://www.w3.org/2000/svg"><path d="M16.973 1l5.014 4.896M16.973 1H4.054a2 2 0 00-2 2v22.18a2 2 0 002 2h16a2 2 0 002-2V6.056a.224.224 0 00-.067-.16v0M16.973 1v2.896a2 2 0 002 2h3.014" stroke="#8E94A6" stroke-width=".865"/><rect x=".432" y="14.432" width="23.135" height="8.135" rx="1.568" fill="#F7F8FA" stroke="#8E94A6" stroke-width=".865"/><path d="M7.424 16.825v3.058h1.308c.926 0 1.472-.572 1.472-1.551 0-.98-.544-1.507-1.472-1.507H7.424zm.899.714h.281c.43 0 .685.278.685.793 0 .563-.235.837-.685.837h-.281v-1.63zm3.7-.767c-.945 0-1.54.606-1.54 1.583s.592 1.58 1.54 1.58c.945 0 1.54-.603 1.54-1.58 0-.977-.595-1.583-1.54-1.583zm0 .716c.375 0 .625.337.625.867 0 .528-.248.864-.625.864s-.625-.336-.625-.864c0-.53.25-.867.625-.867zm3.333 2.448c.824 0 1.42-.524 1.424-1.287h-.86c-.028.354-.252.581-.562.581-.373 0-.604-.326-.604-.88 0-.546.233-.872.602-.872.312 0 .538.23.56.578h.86c-.002-.759-.613-1.284-1.42-1.284-.934 0-1.517.572-1.517 1.58 0 1.01.58 1.584 1.517 1.584z" fill="#8E94A6"/></svg>