<svg width="17" height="20" xmlns="http://www.w3.org/2000/svg"><g fill="#FFF"><path d="M10 .25H2.8A2.55 2.55 0 00.258 2.592l-.007.178L.25 17.2a2.55 2.55 0 002.55 2.55h10.8a2.55 2.55 0 002.55-2.55V6.4a.75.75 0 00-.22-.53l-5.4-5.4A.75.75 0 0010 .25zm-.311 1.5l4.96 4.96.001 10.49c0 .58-.47 1.05-1.05 1.05H2.8c-.58 0-1.05-.47-1.05-1.05V2.8l.005-.117c.042-.512.497-.933 1.045-.933h6.889z"/><path d="M10 .25a.75.75 0 01.743.648L10.75 1v4.65h4.65a.75.75 0 01.743.648l.007.102a.75.75 0 01-.648.743l-.102.007H10a.75.75 0 01-.743-.648L9.25 6.4V1A.75.75 0 0110 .25zm-1.8 9a.75.75 0 01.743.648L8.95 10v5.4a.75.75 0 01-1.493.102L7.45 15.4V10a.75.75 0 01.75-.75z"/><path d="M10.9 11.95a.75.75 0 01.102 1.493l-.102.007H5.5a.75.75 0 01-.102-1.493l.102-.007h5.4z"/></g></svg>