<svg width="28" height="16" xmlns="http://www.w3.org/2000/svg"><path d="M14.866 15.1s.489-.054.74-.317c.228-.242.22-.699.22-.699s-.03-2.13.978-2.445c.993-.31 2.268 2.06 3.622 2.972 1.022.689 1.798.538 1.798.538l3.617-.05s1.891-.114.995-1.574c-.074-.12-.523-1.08-2.689-3.053-2.268-2.066-1.964-1.732.767-5.305 1.663-2.176 2.328-3.505 2.12-4.073-.197-.543-1.42-.4-1.42-.4L21.541.72s-.302-.04-.525.09c-.219.13-.36.43-.36.43s-.644 1.683-1.504 3.116c-1.813 3.02-2.537 3.18-2.834 2.993-.69-.438-.518-1.757-.518-2.694 0-2.93.453-4.15-.88-4.466-.443-.105-.768-.174-1.9-.186-1.454-.014-2.683.005-3.38.34-.463.222-.82.718-.602.747.27.035.878.161 1.201.593.418.557.403 1.808.403 1.808s.24 3.448-.56 3.875c-.548.294-1.3-.305-2.918-3.047a25.282 25.282 0 01-1.452-2.956s-.121-.29-.337-.446C5.116.73 4.751.67 4.751.67L.883.695S.3.71.088.959c-.19.22-.014.676-.014.676S3.102 8.59 6.532 12.097c3.146 3.213 6.716 3.003 6.716 3.003h1.618z" fill="#FFF"/></svg>