<svg width="17" height="17" xmlns="http://www.w3.org/2000/svg"><g fill="#8E94A6"><path d="M15 3.35a.65.65 0 01.096 1.293L15 4.65H1.5a.65.65 0 01-.096-1.293L1.5 3.35H15z"/><path d="M13.5 3.35a.65.65 0 01.643.554L14.15 4v10.5a2.15 2.15 0 01-1.996 2.145L12 16.65H4.5a2.15 2.15 0 01-2.145-1.996L2.35 14.5V4a.65.65 0 011.293-.096L3.65 4v10.5c0 .433.324.79.743.843l.107.007H12a.85.85 0 00.843-.743l.007-.107V4a.65.65 0 01.65-.65zm-3.75-3a2.15 2.15 0 012.145 1.996l.005.154V4a.65.65 0 01-1.293.096L10.6 4V2.5a.85.85 0 00-.743-.843L9.75 1.65h-3a.85.85 0 00-.843.743L5.9 2.5V4a.65.65 0 01-1.293.096L4.6 4V2.5A2.15 2.15 0 016.596.355L6.75.35h3z"/><path d="M6.75 7.1a.65.65 0 01.643.554l.007.096v4.5a.65.65 0 01-1.293.096L6.1 12.25v-4.5a.65.65 0 01.65-.65zm3 0a.65.65 0 01.643.554l.007.096v4.5a.65.65 0 01-1.293.096L9.1 12.25v-4.5a.65.65 0 01.65-.65z"/></g></svg>