<svg width="12" height="18" xmlns="http://www.w3.org/2000/svg"><path d="M9 6a2.89 2.89 0 00-.879-2.121A2.89 2.89 0 006 3a2.89 2.89 0 00-2.121.879A2.89 2.89 0 003 6c0 .828.293 1.535.879 2.121A2.89 2.89 0 006 9a2.89 2.89 0 002.121-.879A2.89 2.89 0 009 6zm3 0c0 .852-.129 1.55-.387 2.098l-4.265 9.07A1.505 1.505 0 016 18c-.281 0-.545-.074-.791-.223a1.35 1.35 0 01-.545-.609L.387 8.098C.129 7.55 0 6.852 0 6c0-1.656.586-3.07 1.758-4.242C2.93.586 4.344 0 6 0c1.656 0 3.07.586 4.242 1.758C11.414 2.93 12 4.344 12 6z" fill="#06C"/></svg>