<svg width="14" height="14" xmlns="http://www.w3.org/2000/svg"><g fill="#FFF"><path d="M12.3 2.88a.52.52 0 01.093 1.032l-.093.008H1.5a.52.52 0 01-.093-1.032L1.5 2.88h10.8z"/><path d="M11.1 2.88a.52.52 0 01.512.427l.008.093v8.4c0 .9-.691 1.638-1.572 1.714l-.148.006h-6a1.72 1.72 0 01-1.714-1.572L2.18 11.8V3.4a.52.52 0 011.032-.093l.008.093v8.4a.68.68 0 00.58.673l.1.007h6a.68.68 0 00.673-.58l.007-.1V3.4a.52.52 0 01.52-.52zm-3-2.4c.9 0 1.638.691 1.714 1.572l.006.148v1.2a.52.52 0 01-1.032.093L8.78 3.4V2.2a.68.68 0 00-.58-.673l-.1-.007H5.7a.68.68 0 00-.673.58l-.007.1v1.2a.52.52 0 01-1.032.093L3.98 3.4V2.2c0-.9.691-1.638 1.572-1.714L5.7.48h2.4z"/><path d="M5.7 5.88a.52.52 0 01.512.427l.008.093V10a.52.52 0 01-1.032.093L5.18 10V6.4a.52.52 0 01.52-.52zm2.4 0a.52.52 0 01.512.427l.008.093V10a.52.52 0 01-1.032.093L7.58 10V6.4a.52.52 0 01.52-.52z"/></g></svg>