<svg width="14" height="14" xmlns="http://www.w3.org/2000/svg"><g fill="#FFF"><path d="M12.47.47a.75.75 0 011.133.976l-.073.084-8 8a.75.75 0 01-1.133-.976l.073-.084 8-8z"/><path d="M13 .25a.75.75 0 01.743.648L13.75 1v4.667a.75.75 0 01-1.493.101l-.007-.101-.001-3.917H8.333a.75.75 0 01-.743-.648L7.583 1a.75.75 0 01.649-.743L8.333.25H13zm-8 0a.75.75 0 01.102 1.493L5 1.75H2.333c-.29 0-.53.212-.575.489l-.008.094v9.334c0 .29.212.53.489.575l.094.008h9.334c.29 0 .53-.212.575-.489l.008-.094V9a.75.75 0 011.493-.102L13.75 9v2.667c0 1.1-.853 2.001-1.935 2.078l-.148.005H2.333c-1.1 0-2.001-.853-2.078-1.935l-.005-.148V2.333c0-1.1.853-2.001 1.935-2.078L2.333.25H5z"/></g></svg>