<svg width="24" height="24" xmlns="http://www.w3.org/2000/svg"><path d="M18.761.75l1.03.234c.172.04.343.083.513.128.639.172 1.132.556 1.527 1.08.503.676.836 1.432 1.102 2.222.296.874.395 1.763.253 2.686-.104.68-.312 1.322-.54 1.962l-.14.385c-.461 1.275-.971 2.526-1.685 3.687-1.095 1.788-2.45 3.359-3.967 4.799-1.199 1.134-2.494 2.148-3.917 2.988-1.569.923-3.272 1.532-5.001 2.063-.895.28-1.828.355-2.762.147-1.029-.229-1.995-.602-2.86-1.207-.313-.222-.623-.497-.841-.81-.521-.756-.67-1.635-.721-2.53-.018-.319.09-.55.358-.708l.996-.604c.167-.1.334-.2.503-.296.946-.543 1.947-.994 2.843-1.633.082-.06.183-.1.278-.146.337-.17.659-.142.952.105.145.12.294.243.418.382.517.58 1.017 1.164 1.536 1.738.558.621.838.69 1.557.284.762-.43 1.518-.881 2.243-1.374 1.883-1.27 3.373-2.92 4.54-4.859.314-.524.598-1.06.885-1.596.186-.35.115-.682-.16-.948-.354-.339-.73-.657-1.093-.989l-.872-.791a11.62 11.62 0 01-.42-.409c-.288-.29-.297-.657-.104-1.021.094-.16.19-.325.292-.485l.23-.335c.038-.056.073-.113.105-.172.367-.657.711-1.325 1.086-1.976.323-.563.666-1.113 1.005-1.662.133-.218.329-.297.559-.297l.1.004a.204.204 0 00.172-.046zM6.99 5.644l4.242 4.242 1.591-1.59v4.242H8.58l1.59-1.591-4.242-4.242a.75.75 0 011.06-1.061z" fill="#FFF"/></svg>