<svg width="22" height="28" xmlns="http://www.w3.org/2000/svg"><g fill="#06C"><path d="M10.938 4.648a6.296 6.296 0 00-6.29 6.29 6.296 6.296 0 006.29 6.289 6.296 6.296 0 006.289-6.29 6.296 6.296 0 00-6.29-6.289zm-.735 8.87l-2.367-2.342 1.155-1.166 1.203 1.19 2.686-2.7 1.163 1.157-3.84 3.861z"/><path d="M20.836 8.793a.818.818 0 01-.254-.948 2.728 2.728 0 00-.172-2.376 2.728 2.728 0 00-1.972-1.338.818.818 0 01-.694-.694 2.728 2.728 0 00-1.338-1.972 2.728 2.728 0 00-2.376-.172.818.818 0 01-.948-.254A2.728 2.728 0 0010.937 0c-.869 0-1.643.406-2.144 1.039a.818.818 0 01-.948.254 2.728 2.728 0 00-2.376.172A2.728 2.728 0 004.13 3.437a.818.818 0 01-.694.694 2.728 2.728 0 00-1.972 1.338 2.728 2.728 0 00-.172 2.376.818.818 0 01-.254.948A2.728 2.728 0 000 10.938c0 .869.406 1.643 1.039 2.144a.818.818 0 01.254.948 2.728 2.728 0 00.172 2.376 2.728 2.728 0 001.972 1.338.819.819 0 01.694.694 2.728 2.728 0 001.338 1.972c.753.434 1.626.47 2.376.172a.818.818 0 01.948.254 2.728 2.728 0 002.145 1.039c.869 0 1.643-.406 2.144-1.039a.818.818 0 01.948-.254c.75.298 1.623.262 2.376-.172a2.728 2.728 0 001.338-1.972.818.818 0 01.694-.694 2.728 2.728 0 001.972-1.338c.434-.753.47-1.626.172-2.376a.818.818 0 01.254-.948 2.728 2.728 0 001.039-2.145c0-.869-.406-1.643-1.039-2.144zm-9.898 10.074c-4.373 0-7.93-3.557-7.93-7.93 0-4.372 3.557-7.93 7.93-7.93 4.372 0 7.93 3.558 7.93 7.93 0 4.373-3.558 7.93-7.93 7.93zm3.04 3.419a4.347 4.347 0 01-3.04 1.23c-1.15 0-2.23-.443-3.041-1.23a4.337 4.337 0 01-2.155-.008V28h1.51l3.686-1.316L14.623 28h1.509v-5.722a4.339 4.339 0 01-2.155.008z"/></g></svg>