<svg width="24" height="17" xmlns="http://www.w3.org/2000/svg"><path d="M12.305 0c1.3.007 5.122.043 7.835.243.463.055 1.473.06 2.374 1.018.71.73.941 2.389.941 2.389s.237 1.947.237 3.894v1.825c0 1.948-.237 3.895-.237 3.895s-.231 1.658-.941 2.388c-.901.958-1.911.963-2.374 1.02-3.014.22-7.402.247-8.175.25h-.129c-.274-.002-6.194-.061-8.045-.242-.527-.1-1.711-.07-2.613-1.028-.71-.73-.941-2.388-.941-2.388S0 11.317 0 9.369l.001-2.041C.017 5.455.237 3.65.237 3.65s.23-1.658.941-2.389C2.08.303 3.088.298 3.552.243 6.265.043 10.087.007 11.388 0zM9.399 4.821v6.76l6.402-3.368L9.399 4.82z" fill="#FFF"/></svg>