<svg width="20" height="14" fill="none" xmlns="http://www.w3.org/2000/svg"><path fill-rule="evenodd" clip-rule="evenodd" d="M2.957 3.871a.52.52 0 01.52.52v3.913a.52.52 0 11-1.04 0V4.391a.52.52 0 01.52-.52z" fill="#8E94A6"/><path fill-rule="evenodd" clip-rule="evenodd" d="M.48 6.348a.52.52 0 01.52-.52h3.913a.52.52 0 110 1.04H1a.52.52 0 01-.52-.52zM13.2.59a.52.52 0 01.64 0l5.4 4.2c.126.098.2.25.2.41v6.6c0 .95-.77 1.72-1.72 1.72h-8.4c-.95 0-1.72-.77-1.72-1.72V5.2a.52.52 0 01.2-.41l5.4-4.2zM9.32 12.48h8.4a.68.68 0 00.68-.68V5.454L13.52 1.66 8.64 5.454V11.8c0 .375.304.68.68.68z" fill="#8E94A6"/><path fill-rule="evenodd" clip-rule="evenodd" d="M11.2 7a.52.52 0 01.52-.52h3.6a.52.52 0 01.52.52v6a.52.52 0 11-1.04 0V7.52h-2.56V13a.52.52 0 11-1.04 0V7z" fill="#8E94A6"/></svg>