<svg width="18" height="18" fill="none" xmlns="http://www.w3.org/2000/svg"><path d="M3.729.037c.218-.019.405.034.527.234.272.44.545.88.804 1.33.3.52.575 1.055.869 1.581.075.141.18.27.268.405.081.128.158.26.233.388.155.291.147.585-.082.817-.327.334-.687.643-1.034.96-.29.266-.592.52-.875.791-.22.213-.277.479-.128.759.23.429.457.857.709 1.277.933 1.551 2.125 2.87 3.631 3.887.58.394 1.185.755 1.795 1.1.575.323.799.268 1.245-.228.415-.46.816-.927 1.229-1.39.099-.112.218-.211.334-.306.235-.198.492-.22.762-.085.076.037.156.07.223.118.716.51 1.517.872 2.273 1.306.406.232.801.482 1.2.72.215.126.301.311.286.566-.04.716-.16 1.42-.576 2.024a2.82 2.82 0 01-.673.648c-.692.484-1.465.783-2.288.966-.748.166-1.494.106-2.21-.117-1.383-.425-2.746-.913-4-1.651a17.571 17.571 0 01-3.134-2.39c-1.214-1.153-2.298-2.41-3.174-3.84-.571-.929-.979-1.93-1.348-2.95C.371 6.342.151 5.732.051 5.08a4.466 4.466 0 01.202-2.15c.213-.632.48-1.237.882-1.777.316-.42.71-.727 1.222-.865C2.767.181 3.179.095 3.59 0a.163.163 0 00.138.037z" fill="#3A4564"/></svg>