<svg width="14" height="22" xmlns="http://www.w3.org/2000/svg"><path d="M12.006 11.095c.347-.03.625.025.837.163.21.137.375.32.493.55.258.515.27.942.035 1.28-.235.338-.745.76-1.532 1.264-.924.569-2.142.942-3.654 1.118l-.307.033.916.894 3.362 3.266c.258.252.387.552.387.902 0 .31-.102.583-.306.816l-.08.086-.16.155a1.277 1.277 0 01-.924.378c-.357 0-.666-.126-.924-.378l-1.281-1.243a550.297 550.297 0 01-1.798-1.761l-.283-.279-3.363 3.283A1.277 1.277 0 012.5 22c-.318 0-.597-.1-.836-.299l-.088-.08-.158-.154a1.217 1.217 0 01-.388-.902c0-.35.13-.65.388-.902l2.04-1.976 1.322-1.29.898-.894c-1.678-.16-3.005-.544-3.979-1.151-.786-.505-1.297-.926-1.531-1.264-.235-.338-.223-.765.035-1.28.117-.23.282-.413.493-.55.211-.138.49-.192.836-.163.303.025.613.148.929.37l.136.102.475.31c.317.206.822.412 1.514.618.693.207 1.42.31 2.183.31a7.4 7.4 0 002.236-.344l.318-.103c.55-.182.92-.33 1.108-.447.178-.11.323-.205.434-.286l.076-.058c.364-.286.72-.444 1.065-.472zM6.77 0c1.573 0 2.917.544 4.032 1.633 1.115 1.088 1.672 2.4 1.672 3.936 0 1.535-.557 2.847-1.672 3.936-1.115 1.088-2.46 1.632-4.032 1.632s-2.916-.544-4.031-1.632c-1.115-1.089-1.673-2.4-1.673-3.936s.558-2.848 1.673-3.936C3.853.544 5.197 0 6.769 0zm0 2.836c-.774 0-1.435.266-1.98.8a2.603 2.603 0 00-.819 1.933c0 .756.273 1.4.819 1.933a2.73 2.73 0 001.98.8c.775 0 1.435-.267 1.98-.8a2.603 2.603 0 00.82-1.933c0-.756-.274-1.401-.82-1.934a2.731 2.731 0 00-1.98-.8z" fill="#FFF"/></svg>