<svg width="20" height="20" xmlns="http://www.w3.org/2000/svg"><path d="M10 .375A9.625 9.625 0 0119.625 10c0 5.224-4.162 9.476-9.351 9.621l-.274.004-.274-.004A9.624 9.624 0 01.375 10 9.625 9.625 0 0110 .375zM5.802 10.626H1.648a8.379 8.379 0 006.932 7.63 14.408 14.408 0 01-2.743-7.193l-.035-.437zm12.55 0h-4.153a14.395 14.395 0 01-2.78 7.63 8.38 8.38 0 006.91-7.368l.023-.262zm-5.406-.001H7.054a13.145 13.145 0 002.66 7.057l.25.319.035.043.037-.043a13.138 13.138 0 002.9-7.214l.01-.162zM8.58 1.745l-.059.01a8.38 8.38 0 00-6.873 7.62h4.153a14.395 14.395 0 012.78-7.63zm1.42.21l-.036.044a13.136 13.136 0 00-2.912 7.376h5.894a13.145 13.145 0 00-2.659-7.057L10 1.955zm1.42-.21l.02.027a14.412 14.412 0 012.758 7.603h4.154a8.379 8.379 0 00-6.932-7.63z" fill="#3A4564"/></svg>