<svg width="22" height="17" xmlns="http://www.w3.org/2000/svg"><path d="M6 .5H2A1.5 1.5 0 00.5 2v1A1.5 1.5 0 002 4.5h4A1.5 1.5 0 007.5 3V2A1.5 1.5 0 006 .5zm-4 1h4a.5.5 0 01.5.5v1a.5.5 0 01-.5.5H2a.5.5 0 01-.5-.5V2a.5.5 0 01.5-.5zM20.542 1a.5.5 0 01.09.992l-.09.008H10.458a.5.5 0 01-.09-.992l.09-.008h10.084zM18.5 3a.5.5 0 01.09.992L18.5 4h-8a.5.5 0 01-.09-.992L10.5 3h8zM6 12.5H2A1.5 1.5 0 00.5 14v1A1.5 1.5 0 002 16.5h4A1.5 1.5 0 007.5 15v-1A1.5 1.5 0 006 12.5zm-4 1h4a.5.5 0 01.5.5v1a.5.5 0 01-.5.5H2a.5.5 0 01-.5-.5v-1a.5.5 0 01.5-.5zm18.542-.5a.5.5 0 01.09.992l-.09.008H10.458a.5.5 0 01-.09-.992l.09-.008h10.084zM18.5 15a.5.5 0 01.09.992L18.5 16h-8a.5.5 0 01-.09-.992L10.5 15h8zM6 6.5H2A1.5 1.5 0 00.5 8v1A1.5 1.5 0 002 10.5h4A1.5 1.5 0 007.5 9V8A1.5 1.5 0 006 6.5zm-4 1h4a.5.5 0 01.5.5v1a.5.5 0 01-.5.5H2a.5.5 0 01-.5-.5V8a.5.5 0 01.5-.5zM15.5 9a.5.5 0 01.09.992L15.5 10h-5a.5.5 0 01-.09-.992L10.5 9h5zm4.083-2a.5.5 0 01.09.992l-.09.008h-9.166a.5.5 0 01-.09-.992l.09-.008h9.166z" fill="#A1A8BC"/></svg>