<svg width="17" height="14" fill="none" xmlns="http://www.w3.org/2000/svg"><path fill-rule="evenodd" clip-rule="evenodd" d="M5.61 11.565a3.128 3.128 0 013.13-3.128h4.564c1.728 0 3.129 1.4 3.129 3.128v1.305a.52.52 0 01-1.04 0v-1.305a2.089 2.089 0 00-2.089-2.088H8.74a2.089 2.089 0 00-2.089 2.088v1.305a.52.52 0 01-1.04 0v-1.305zm6.889-9.303a2.089 2.089 0 10-2.954 2.954l-.357.357.357-.357a2.089 2.089 0 002.954 0l.367.368-.367-.368a2.089 2.089 0 000-2.954zm.735-.735a3.129 3.129 0 00-4.425 0zm0 0A3.129 3.129 0 018.809 5.95l.368-.367-.368.367a3.129 3.129 0 010-4.424M2.522 3.871a.52.52 0 01.52.52v3.913a.52.52 0 11-1.04 0V4.391a.52.52 0 01.52-.52z" fill="#8E94A6"/><path fill-rule="evenodd" clip-rule="evenodd" d="M.045 6.348a.52.52 0 01.52-.52h3.913a.52.52 0 010 1.04H.565a.52.52 0 01-.52-.52z" fill="#8E94A6"/></svg>