<svg width="23" height="23" fill="none" xmlns="http://www.w3.org/2000/svg"><path d="M22 10.861v.003a9.707 9.707 0 01-1.043 4.402l-.002.004a9.861 9.861 0 01-8.816 5.452h-.003a9.707 9.707 0 01-4.402-1.042 1 1 0 00-.767-.056l-5.386 1.795 1.795-5.386a1 1 0 00-.056-.767 9.708 9.708 0 01-1.042-4.402v-.003A9.861 9.861 0 017.73 2.044h0l.004-.001A9.708 9.708 0 0112.136 1h.613A9.836 9.836 0 0122 10.25v.611z" stroke="#06C" stroke-width="2" stroke-linecap="round" stroke-linejoin="round"/><path d="M17.25 11h-2l-1.5 4.5-3-9-1.5 4.5h-2" stroke="#06C" stroke-width="1.75" stroke-linecap="round" stroke-linejoin="round"/></svg>