<svg width="14" height="8" xmlns="http://www.w3.org/2000/svg"><defs><filter id="a"><feColorMatrix in="SourceGraphic" values="0 0 0 0 0.558152 0 0 0 0 0.581623 0 0 0 0 0.649428 0 0 0 1.000000 0"/></filter><filter id="b"><feColorMatrix in="SourceGraphic" values="0 0 0 0 0.227882 0 0 0 0 0.269687 0 0 0 0 0.390455 0 0 0 1.000000 0"/></filter></defs><g filter="url(#a)" transform="translate(-307 -13)" fill="none" fill-rule="evenodd"><g filter="url(#b)" transform="translate(308 14)"><g fill="#06C" fill-rule="nonzero"><path d="M12.354 3.354a.5.5 0 00.057-.638l-.057-.07L9.782.075a.5.5 0 00-.765.638l.058.07L11.293 3 9.075 5.218a.5.5 0 00-.058.638l.058.069a.5.5 0 00.638.058l.07-.058 2.57-2.571z"/><path d="M11.231 2.5a.5.5 0 01.09.992l-.09.008H.341a.5.5 0 01-.09-.992L.34 2.5h10.89z"/></g></g></g></svg>