<svg width="18" height="14" fill="none" xmlns="http://www.w3.org/2000/svg"><path fill-rule="evenodd" clip-rule="evenodd" d="M6.61 11.565a3.128 3.128 0 013.13-3.128h4.565c1.727 0 3.128 1.4 3.128 3.128v1.305a.52.52 0 11-1.04 0v-1.305a2.089 2.089 0 00-2.088-2.088H9.739a2.089 2.089 0 00-2.088 2.088v1.305a.52.52 0 11-1.04 0v-1.305zm6.889-9.303a2.089 2.089 0 00-2.954 2.954l-.357.357.357-.357a2.089 2.089 0 002.954 0l.367.368-.367-.368a2.089 2.089 0 000-2.954zm.735-.735a3.129 3.129 0 00-4.425 0zm0 0A3.129 3.129 0 019.81 5.95l.368-.367-.368.367a3.129 3.129 0 010-4.424M5.317 4.579a.52.52 0 010 .735L2.55 8.081a.52.52 0 11-.736-.735l2.767-2.767a.52.52 0 01.736 0z" fill="red"/><path fill-rule="evenodd" clip-rule="evenodd" d="M1.814 4.579a.52.52 0 01.736 0l2.767 2.767a.52.52 0 01-.736.735L1.814 5.314a.52.52 0 010-.735z" fill="red"/></svg>