<svg width="35" height="35" xmlns="http://www.w3.org/2000/svg" xmlns:xlink="http://www.w3.org/1999/xlink"><defs><circle id="a" cx="17.5" cy="17.5" r="17.5"/></defs><g fill="none" fill-rule="evenodd"><mask id="b" fill="#fff"><use xlink:href="#a"/></mask><use fill="#DCDFE7" xlink:href="#a"/><g mask="url(#b)" fill="#FFF" fill-rule="nonzero"><path d="M26.823 26.482a3.554 3.554 0 00-1.94-3.174l-4.179-2.114a1.615 1.615 0 01-.88-1.442v-1.659c.117-.135.251-.308.395-.514.57-.813 1-1.708 1.299-2.648.536-.167.93-.668.93-1.263v-1.77c0-.39-.17-.738-.437-.981v-2.56s.52-3.982-4.813-3.982c-5.332 0-4.812 3.983-4.812 3.983v2.559a1.327 1.327 0 00-.438.981v1.77c0 .467.243.877.605 1.114a8.803 8.803 0 001.583 3.311v1.618c0 .59-.319 1.133-.831 1.415L9.402 23.28a3.555 3.555 0 00-1.829 3.116v.348c0 2.071 3.931 6.506 9.902 6.506 5.97 0 9.348-4.435 9.348-6.506v-.262z"/></g></g></svg>