<svg width="16" height="13" xmlns="http://www.w3.org/2000/svg"><g fill="#06C"><path d="M5.889.4L5.79.408a.6.6 0 00-.4.26L4.345 2.232H2.222A1.822 1.822 0 00.4 4.056v6.722c0 1.006.816 1.822 1.822 1.822h11a1.822 1.822 0 001.822-1.822V4.056l-.006-.15a1.822 1.822 0 00-1.816-1.673H11.1L10.055.667a.6.6 0 00-.5-.267H5.89zm.32 1.2h3.026l1.044 1.566a.6.6 0 00.499.267h2.444c.344 0 .622.279.622.623v6.722a.622.622 0 01-.622.622h-11a.622.622 0 01-.622-.622V4.056c0-.344.279-.623.622-.623h2.445l.099-.008a.6.6 0 00.4-.259L6.209 1.6z"/><path d="M7.722 4.067a3.044 3.044 0 100 6.089 3.044 3.044 0 000-6.09zm0 1.2a1.844 1.844 0 110 3.689 1.844 1.844 0 010-3.69z"/></g></svg>