<svg width="18" height="18" xmlns="http://www.w3.org/2000/svg"><g fill="#8E94A6"><path d="M5.077 4.377a.5.5 0 01-.094.7 12.918 12.918 0 00-3.335 3.789l-.079.139.033.057c.067.117.15.256.249.413l.103.163c.425.658.927 1.316 1.502 1.93 1.618 1.726 3.475 2.75 5.536 2.75a6.824 6.824 0 004.025-1.396.5.5 0 01.606.796A7.83 7.83 0 019 15.318c-2.386 0-4.483-1.157-6.274-3.067A14.678 14.678 0 01.823 9.71L.7 9.495a6.862 6.862 0 01-.146-.271.5.5 0 01.006-.46 13.918 13.918 0 013.818-4.481.5.5 0 01.7.094zM9 2.682c2.386 0 4.483 1.157 6.274 3.067a14.679 14.679 0 011.903 2.541l.124.215c.071.126.12.219.146.271a.5.5 0 01-.006.46 13.955 13.955 0 01-1.63 2.406.5.5 0 11-.764-.644c.483-.575.916-1.19 1.293-1.84l.09-.163-.032-.057a11.91 11.91 0 00-.249-.413l-.103-.163a13.689 13.689 0 00-1.502-1.93C12.926 4.707 11.07 3.683 9 3.683a6.134 6.134 0 00-1.412.161.5.5 0 01-.228-.973A7.132 7.132 0 019 2.682zM7.824 7.117a.5.5 0 01-.025.707 1.682 1.682 0 102.377 2.377.5.5 0 01.732.682 2.682 2.682 0 11-3.79-3.79.5.5 0 01.706.024z"/><path d="M.646.646A.5.5 0 011.284.59l.07.057 16 16a.5.5 0 01-.638.765l-.07-.057-16-16a.5.5 0 010-.708z"/></g></svg>