<svg width="13" height="13" xmlns="http://www.w3.org/2000/svg"><path d="M2.593 0c.039.03.07.03.1.026.158-.013.293.026.38.17.197.317.395.635.582.96.216.376.415.762.627 1.142.054.102.13.195.194.292.058.093.114.188.168.281.112.21.106.422-.06.59-.236.24-.496.464-.746.693-.21.192-.427.376-.632.572-.159.153-.2.345-.093.548.166.31.33.619.512.922.674 1.12 1.535 2.073 2.623 2.807.42.285.856.545 1.296.794.415.234.577.194.9-.164.3-.332.588-.67.887-1.004.072-.08.158-.152.241-.221a.468.468 0 01.55-.061c.055.026.114.05.161.085.518.369 1.096.63 1.643.943.293.168.578.348.866.52.155.091.217.225.207.409-.03.517-.116 1.025-.417 1.462-.126.18-.305.34-.485.468-.5.35-1.059.565-1.653.697-.54.12-1.079.077-1.596-.084-.999-.307-1.983-.66-2.89-1.192a12.69 12.69 0 01-2.262-1.727c-.877-.832-1.66-1.74-2.293-2.773-.412-.67-.707-1.393-.973-2.13C.268 4.58.109 4.14.037 3.669a3.226 3.226 0 01.146-1.552C.337 1.66.529 1.224.82.834c.228-.303.513-.526.882-.625.296-.078.594-.14.891-.209zm7.658 2.738v2.451l-.919-.92-2.451 2.452a.433.433 0 01-.613-.613l2.451-2.451-.919-.92h2.451z" fill="#FFF"/></svg>