<svg width="23" height="28" fill="none" xmlns="http://www.w3.org/2000/svg"><path d="M22 11.454c0 4.052-2.64 7.944-5.475 10.925a37.83 37.83 0 01-5.025 4.399 37.825 37.825 0 01-5.025-4.399C3.639 19.398 1 15.506 1 11.454 1 5.684 5.697 1 11.5 1S22 5.684 22 11.454z" stroke="#06C" stroke-width="2" stroke-linecap="round" stroke-linejoin="round"/><path d="M10.828 8.203v4.11h1.64c.745 0 1.31-.183 1.696-.547.39-.365.586-.87.586-1.516 0-.64-.193-1.14-.578-1.5-.386-.365-.95-.547-1.695-.547h-1.649zm3.18 8.102h-3.18V18h-1.75v-1.695H7.57v-1.203h1.508v-1.375H7.57V12.32h1.508V6.727h3.883c1.073 0 1.937.33 2.594.992.656.656.984 1.497.984 2.523 0 1.021-.336 1.86-1.008 2.516-.666.65-1.541.976-2.625.976h-2.078v1.368h3.18v1.203z" fill="#06C"/></svg>