<svg width="18" height="18" xmlns="http://www.w3.org/2000/svg"><g fill="#8E94A6"><path d="M6.872 2.1a.5.5 0 01.09.992l-.09.008H2.6a1.1 1.1 0 00-1.094.98L1.5 4.2v11.2a1.1 1.1 0 00.98 1.094l.12.006h11.2a1.1 1.1 0 001.094-.98l.006-.12v-4.272a.5.5 0 01.992-.09l.008.09V15.4a2.1 2.1 0 01-1.95 2.095l-.15.005H2.6a2.1 2.1 0 01-2.095-1.95L.5 15.4V4.2a2.1 2.1 0 011.95-2.095L2.6 2.1h4.272z"/><path d="M13.446.646l-8 8A.5.5 0 005.3 9v3.2a.5.5 0 00.5.5H9a.5.5 0 00.354-.146l8-8a.5.5 0 000-.708l-3.2-3.2a.5.5 0 00-.708 0zm.354 1.061L16.293 4.2l-7.501 7.5H6.3V9.206l7.5-7.499z"/></g></svg>