<svg width="15" height="15" xmlns="http://www.w3.org/2000/svg"><g fill="#8E94A6"><path d="M11.182.5a.5.5 0 01.492.41l.008.09v4.455a.5.5 0 01-.992.09l-.008-.09L10.68 1.5H4.045v3.955a.5.5 0 01-.41.491l-.09.009a.5.5 0 01-.491-.41l-.009-.09V1a.5.5 0 01.41-.492L3.546.5h7.637z"/><path d="M12.455 4.955c.93 0 1.692.716 1.766 1.627l.006.145V9.91c0 .93-.716 1.693-1.627 1.767l-.145.006h-1.273a.5.5 0 01-.09-.992l.09-.008h1.273c.39 0 .714-.29.765-.668l.007-.105V6.727a.773.773 0 00-.668-.765l-.104-.007H2.273a.773.773 0 00-.766.667l-.007.105V9.91c0 .391.29.715.668.766l.105.007h1.272a.5.5 0 01.09.992l-.09.008H2.273c-.93 0-1.693-.716-1.767-1.628L.5 9.91V6.727c0-.93.716-1.693 1.627-1.767l.146-.005h10.182z"/><path d="M11.182 8.136H3.545a.5.5 0 00-.5.5v5.091a.5.5 0 00.5.5h7.637a.5.5 0 00.5-.5v-5.09a.5.5 0 00-.5-.5zm-.501 1v4.091H4.045V9.136h6.636z"/></g></svg>