<svg width="24" height="28" fill="none" xmlns="http://www.w3.org/2000/svg"><path d="M16.973 1l5.014 4.896M16.973 1H4.054a2 2 0 00-2 2v22.18a2 2 0 002 2h16a2 2 0 002-2V6.056a.224.224 0 00-.067-.16v0M16.973 1v2.896a2 2 0 002 2h3.014" stroke="#8E94A6" stroke-width=".865"/><rect x=".432" y="14.432" width="23.135" height="8.135" rx="1.568" fill="#F7F8FA" stroke="#8E94A6" stroke-width=".865"/><path d="M7.88 19.883h.95l.523-.922h.019l.525.922h1l-.943-1.528v-.017l.948-1.513h-.996l-.484.975h-.016l-.482-.975H7.878l.902 1.509v.017l-.9 1.532zm5.418-.714H12.1v-2.344h-.9v3.058h2.098v-.714zm.255-.212c.002.625.525.979 1.318.979.843 0 1.335-.4 1.335-1.03 0-.496-.31-.765-.966-.884l-.308-.055c-.305-.055-.436-.12-.436-.258s.127-.248.377-.248c.246 0 .437.108.443.294h.826c-.004-.604-.462-.983-1.28-.983-.726 0-1.256.388-1.256 1.002 0 .475.332.782.94.89l.308.055c.343.062.462.123.462.267 0 .15-.166.261-.435.261-.254 0-.468-.106-.502-.29h-.826z" fill="#8E94A6"/></svg>