<svg width="24" height="28" fill="none" xmlns="http://www.w3.org/2000/svg"><path d="M16.973 1l5.014 4.896M16.973 1H4.054a2 2 0 00-2 2v22.18a2 2 0 002 2h16a2 2 0 002-2V6.056a.224.224 0 00-.067-.16v0M16.973 1v2.896a2 2 0 002 2h3.014" stroke="#8E94A6" stroke-width=".865"/><rect x=".432" y="14.432" width="23.135" height="8.135" rx="1.568" fill="#F7F8FA" stroke="#8E94A6" stroke-width=".865"/><path d="M5.89 16.825v3.058h1.307c.926 0 1.473-.572 1.473-1.551 0-.98-.544-1.507-1.473-1.507H5.89zm.898.714h.282c.43 0 .685.278.685.793 0 .563-.236.837-.685.837h-.282v-1.63zm3.7-.767c-.945 0-1.54.606-1.54 1.583s.593 1.58 1.54 1.58c.946 0 1.541-.603 1.541-1.58 0-.977-.595-1.583-1.54-1.583zm0 .716c.376 0 .626.337.626.867 0 .528-.248.864-.626.864-.377 0-.625-.336-.625-.864 0-.53.25-.867.625-.867zm3.334 2.448c.824 0 1.42-.524 1.424-1.287h-.86c-.028.354-.253.581-.562.581-.373 0-.604-.326-.604-.88 0-.546.233-.872.602-.872.311 0 .538.23.56.578h.86c-.003-.759-.613-1.284-1.42-1.284-.935 0-1.517.572-1.517 1.58 0 1.01.58 1.584 1.517 1.584zm1.513-.053h.95l.523-.922h.019l.525.922h1l-.942-1.528v-.017l.947-1.513h-.996l-.483.975h-.017l-.481-.975h-1.047l.902 1.509v.017l-.9 1.532z" fill="#8E94A6"/></svg>