<svg width="23" height="28" xmlns="http://www.w3.org/2000/svg"><g fill="#06C" fill-rule="evenodd"><path d="M11.5 15.75l-3.82 2.009.73-4.255-3.092-3.013 4.272-.62L11.5 6l1.91 3.87 4.272.621-3.091 3.013.73 4.255z"/><path d="M11.5 0C17.851 0 23 5.128 23 11.455 23 20.364 11.5 28 11.5 28l-.457-.319C8.906 26.15 0 19.295 0 11.455 0 5.128 5.149 0 11.5 0zm0 2C6.252 2 2 6.235 2 11.455c0 3.277 1.925 6.793 5.2 10.235a36.485 36.485 0 003.746 3.41l.554.431.554-.43a36.485 36.485 0 003.747-3.411C19.075 18.248 21 14.732 21 11.455 21 6.235 16.748 2 11.5 2z" fill-rule="nonzero"/></g></svg>