<svg width="18" height="18" xmlns="http://www.w3.org/2000/svg"><g fill="#3A4564"><path d="M8.47 1.51c-1.9.092-3.519.83-4.882 2.223-1.438 1.47-2.129 3.209-2.086 5.25.021 2.039.761 3.757 2.231 5.184 1.471 1.429 3.213 2.126 5.247 2.105 2.04-.043 3.76-.794 5.189-2.265 1.428-1.472 2.126-3.213 2.105-5.247-.043-2.04-.789-3.755-2.249-5.172-1.383-1.342-3.013-2.034-4.915-2.085L8.79 1.5l-.32.01zM9.107.503c2.166.05 4.045.843 5.616 2.367 1.648 1.6 2.503 3.566 2.551 5.874.025 2.303-.775 4.299-2.387 5.96-1.611 1.659-3.582 2.52-5.89 2.568-2.304.024-4.3-.775-5.96-2.387C1.377 13.272.527 11.299.503 9c-.048-2.306.746-4.305 2.371-5.966C4.42 1.452 6.288.607 8.453.51L8.78.5l.326.003z"/><path d="M9.962 3.606c-.48 0-.851.137-1.114.412-.263.274-.395.56-.395.857-.022.32.063.571.258.754.194.183.474.274.84.274.434 0 .782-.125 1.045-.377a1.23 1.23 0 00.395-.925c0-.663-.343-.995-1.029-.995M7.905 13.79c.343 0 .823-.15 1.44-.447.617-.297 1.223-.742 1.817-1.337l-.309-.411c-.548.411-.96.617-1.234.617-.16 0-.183-.217-.068-.651l.72-2.743c.297-1.097.171-1.646-.378-1.646-.342 0-.851.166-1.525.497a10.2 10.2 0 00-1.972 1.286l.275.446c.594-.39 1.017-.583 1.268-.583.137 0 .137.194 0 .583l-.617 2.605c-.297 1.189-.103 1.783.583 1.783"/></g></svg>