<svg width="20" height="20" xmlns="http://www.w3.org/2000/svg"><path d="M8.898 12.25a.247.247 0 01-.078.18l-5.593 5.593 1.125 1.125a.48.48 0 01.148.352.48.48 0 01-.148.352A.48.48 0 014 20H.5a.48.48 0 01-.352-.148A.48.48 0 010 19.5V16a.48.48 0 01.148-.352A.48.48 0 01.5 15.5a.48.48 0 01.352.148l1.125 1.125L7.57 11.18a.247.247 0 01.36 0l.89.89a.247.247 0 01.078.18zM20 .5V4a.48.48 0 01-.148.352.48.48 0 01-.352.148.48.48 0 01-.352-.148l-1.125-1.125L12.43 8.82a.247.247 0 01-.36 0l-.89-.89a.247.247 0 010-.36l5.593-5.593L15.648.852A.48.48 0 0115.5.5a.48.48 0 01.148-.352A.48.48 0 0116 0h3.5a.48.48 0 01.352.148A.48.48 0 0120 .5z" fill="#FFF"/></svg>