<svg width="14" height="14" fill="none" xmlns="http://www.w3.org/2000/svg"><path fill-rule="evenodd" clip-rule="evenodd" d="M2.2 2.52a.68.68 0 00-.68.68v8.4c0 .376.304.68.68.68h8.4a.68.68 0 00.68-.68V8.396a.52.52 0 111.04 0V11.6c0 .95-.77 1.72-1.72 1.72H2.2c-.95 0-1.72-.77-1.72-1.72V3.2c0-.95.77-1.72 1.72-1.72h3.204a.52.52 0 110 1.04H2.2z" fill="#8E94A6"/><path fill-rule="evenodd" clip-rule="evenodd" d="M5.12 7.215V8.88h1.665l5.48-5.48L10.6 1.735l-5.48 5.48zM10.6 1l-.368-.368-6 6A.52.52 0 004.08 7v2.4c0 .287.233.52.52.52H7a.52.52 0 00.368-.152l6-6a.52.52 0 000-.736l-2.4-2.4L10.6 1z" fill="#8E94A6"/></svg>