<svg width="13" height="12" xmlns="http://www.w3.org/2000/svg"><path d="M2.684 6.074c1.467 0 2.427-1.08 2.427-2.798C5.11 1.544 4.144.5 2.684.5 1.216.5.25 1.544.25 3.283c0 1.718.96 2.791 2.434 2.791zm.882 5.27l6.9-10.681H8.94L2.035 11.345h1.53zm-.882-6.521c-.565 0-.945-.51-.945-1.54 0-1.043.38-1.525.945-1.525.564 0 .938.482.938 1.525 0 1.03-.38 1.54-.938 1.54zm7.14 6.677c1.467 0 2.426-1.08 2.426-2.798 0-1.74-.966-2.783-2.427-2.783-1.467 0-2.434 1.05-2.434 2.783 0 1.725.96 2.798 2.434 2.798zm0-1.258c-.565 0-.946-.504-.946-1.54 0-1.044.38-1.525.945-1.525s.938.489.938 1.525-.38 1.54-.938 1.54z" fill="#06C"/></svg>