<svg width="48" height="48" viewBox="0 0 48 48" fill="none" xmlns="http://www.w3.org/2000/svg">
<ellipse cx="24" cy="23.5" rx="24" ry="23.5" fill="#001D55"/>
<path d="M30.75 20.1004L17.25 12.3154" stroke="white" stroke-width="2" stroke-linecap="round" stroke-linejoin="round"/>
<path d="M37.5 30.0018V18.0018C37.4995 17.4757 37.3606 16.959 37.0973 16.5036C36.834 16.0481 36.4556 15.6699 36 15.4068L25.5 9.40681C25.0439 9.1435 24.5266 9.00488 24 9.00488C23.4734 9.00488 22.9561 9.1435 22.5 9.40681L12 15.4068C11.5444 15.6699 11.166 16.0481 10.9027 16.5036C10.6394 16.959 10.5005 17.4757 10.5 18.0018V30.0018C10.5005 30.5279 10.6394 31.0446 10.9027 31.5001C11.166 31.9555 11.5444 32.3338 12 32.5968L22.5 38.5968C22.9561 38.8601 23.4734 38.9987 24 38.9987C24.5266 38.9987 25.0439 38.8601 25.5 38.5968L36 32.5968C36.4556 32.3338 36.834 31.9555 37.0973 31.5001C37.3606 31.0446 37.4995 30.5279 37.5 30.0018Z" stroke="white" stroke-width="2" stroke-linecap="round" stroke-linejoin="round"/>
<path d="M10.9053 16.4392L24.0003 24.0142L37.0953 16.4392" stroke="white" stroke-width="2" stroke-linecap="round" stroke-linejoin="round"/>
<path d="M24 38.999V28.499" stroke="white" stroke-width="2" stroke-linecap="round" stroke-linejoin="round"/>
</svg>
