<svg width="22" height="16" viewBox="0 0 22 16" fill="none" xmlns="http://www.w3.org/2000/svg">
<path d="M16.46 7.46315C15.9077 7.46315 15.46 7.91086 15.46 8.46315C15.46 9.01543 15.9077 9.46315 16.46 9.46315V7.46315ZM17.9754 5.47839L17.2106 6.12274L17.9754 5.47839ZM19.982 7.85986L20.7467 7.21551L19.982 7.85986ZM0.900076 3.18417L0.900027 11.0982L2.90003 11.0982L2.90008 3.18419L0.900076 3.18417ZM13.4065 0.699956L3.38431 0.699952L3.38431 2.69995L13.4065 2.69996V0.699956ZM20.7467 7.21551L18.7401 4.83403L17.2106 6.12274L19.2173 8.50422L20.7467 7.21551ZM14.9082 5.29995V2.20167H12.9082V5.29995H14.9082ZM17.5917 4.29995H13.9082V6.29995H17.5917V4.29995ZM21.1 8.46315V8.18314H19.1V8.46315H21.1ZM14.9082 8.46315V5.29995H12.9082V8.46315H14.9082ZM14.9082 11.6V10.25H12.9082V11.6H14.9082ZM14.9082 10.25V8.46315H12.9082V10.25H14.9082ZM6.36002 12.5C6.36002 12.9314 6.00334 13.3 5.54002 13.3V15.3C7.08702 15.3 8.36002 14.0567 8.36002 12.5H6.36002ZM5.54002 13.3C5.0767 13.3 4.72002 12.9314 4.72002 12.5H2.72002C2.72002 14.0567 3.99303 15.3 5.54002 15.3V13.3ZM17.28 12.5C17.28 12.9314 16.9233 13.3 16.46 13.3V15.3C18.007 15.3 19.28 14.0567 19.28 12.5H17.28ZM16.46 13.3C15.9967 13.3 15.64 12.9314 15.64 12.5H13.64C13.64 14.0567 14.913 15.3 16.46 15.3V13.3ZM5.54002 11.7C5.84768 11.7 6.11253 11.8641 6.25335 12.1048L7.97973 11.0951C7.49118 10.2598 6.57968 9.69995 5.54002 9.69995V11.7ZM6.25335 12.1048C6.32129 12.221 6.36002 12.3548 6.36002 12.5H8.36002C8.36002 11.9894 8.2215 11.5084 7.97973 11.0951L6.25335 12.1048ZM7.11654 12.6H13.9082V10.6H7.11654V12.6ZM2.40174 12.6H3.96351V10.6H2.40174V12.6ZM4.72002 12.5C4.72002 12.3548 4.75876 12.221 4.8267 12.1048L3.10032 11.0951C2.85855 11.5084 2.72002 11.9894 2.72002 12.5H4.72002ZM4.8267 12.1048C4.96752 11.8641 5.23237 11.7 5.54002 11.7V9.69995C4.50037 9.69995 3.58887 10.2598 3.10032 11.0951L4.8267 12.1048ZM15.64 12.5C15.64 12.3548 15.6788 12.221 15.7467 12.1048L14.0203 11.0951C13.7785 11.5084 13.64 11.9894 13.64 12.5H15.64ZM15.7467 12.1048C15.8875 11.8641 16.1524 11.7 16.46 11.7V9.69995C15.4204 9.69995 14.5089 10.2598 14.0203 11.0951L15.7467 12.1048ZM13.9082 12.6H14.8835V10.6H13.9082V12.6ZM18.0365 12.6H19.5983V10.6H18.0365V12.6ZM16.46 11.7C16.7677 11.7 17.0325 11.8641 17.1734 12.1048L18.8997 11.0951C18.4112 10.2598 17.4997 9.69995 16.46 9.69995V11.7ZM17.1733 12.1048C17.2413 12.221 17.28 12.3548 17.28 12.5H19.28C19.28 11.9894 19.1415 11.5084 18.8997 11.0951L17.1733 12.1048ZM19.1 8.46315V11.0982H21.1V8.46315H19.1ZM20.1 7.46315H16.46V9.46315H20.1V7.46315ZM18.7401 4.83403C18.4548 4.4954 18.0345 4.29995 17.5917 4.29995V6.29995C17.4448 6.29995 17.3053 6.23511 17.2106 6.12274L18.7401 4.83403ZM19.5983 12.6C20.4277 12.6 21.1 11.9276 21.1 11.0982H19.1C19.1 10.823 19.3231 10.6 19.5983 10.6V12.6ZM13.4065 2.69996C13.1313 2.69996 12.9082 2.47687 12.9082 2.20167H14.9082C14.9082 1.3723 14.2359 0.699956 13.4065 0.699956V2.69996ZM0.900027 11.0982C0.900022 11.9276 1.57236 12.6 2.40174 12.6V10.6C2.67694 10.6 2.90003 10.823 2.90003 11.0982L0.900027 11.0982ZM19.2173 8.50422C19.1415 8.41436 19.1 8.30064 19.1 8.18314H21.1C21.1 7.82903 20.9749 7.48631 20.7467 7.21551L19.2173 8.50422ZM2.90008 3.18419C2.90008 2.91675 3.11688 2.69995 3.38431 2.69995L3.38431 0.699952C2.01231 0.699951 0.900084 1.81217 0.900076 3.18417L2.90008 3.18419Z" fill="#003BAA"/>
</svg>
