<svg width="48" height="48" viewBox="0 0 48 48" fill="none" xmlns="http://www.w3.org/2000/svg">
<circle cx="24" cy="24" r="24" fill="#001D55"/>
<path d="M30.364 24.364C31.9926 22.7353 33 20.4853 33 18C33 13.0294 28.9706 9 24 9C19.0294 9 15 13.0294 15 18C15 20.4853 16.0074 22.7353 17.636 24.364" stroke="white" stroke-width="2" stroke-linecap="round"/>
<path d="M10.5 39L11.25 35.25L19.5 29.25L24 33.75L28.5 29.25L36.75 35.25L37.5 39" stroke="white" stroke-width="2" stroke-linecap="round" stroke-linejoin="round"/>
<path d="M15.7451 21.7554C15.7545 18.6725 16.2562 16.4207 17.25 15.0001C18.7408 12.8692 19.7902 13.0258 20.554 13.3577C21.3179 13.6896 21.767 15.8583 23.0427 16.4834C24.3185 17.1085 27.5833 17.1857 28.7015 17.9377C29.8198 18.6896 32.3772 20.0884 31.7396 22.4764" stroke="white" stroke-width="2"/>
</svg>
