<svg width="24" height="24" fill="none" xmlns="http://www.w3.org/2000/svg"><path d="M19.333 23 23 20.555v-6.11c-.648 0-4.937.257-5.395.715a2.444 2.444 0 0 0-.716 1.729v3.666A2.444 2.444 0 0 0 19.333 23ZM4.667 23 1 20.555v-6.11c.648 0 4.937.257 5.395.715.459.459.716 1.08.716 1.729v3.666A2.444 2.444 0 0 1 4.667 23Z" stroke="#001D55" stroke-width="2" stroke-linecap="round" stroke-linejoin="round"/><path d="M1 19.334V12a11 11 0 1 1 22 0v7.334" stroke="#001D55" stroke-width="2" stroke-linecap="round" stroke-linejoin="round"/></svg>