<svg width="30" height="30" viewBox="0 0 30 30" fill="none" xmlns="http://www.w3.org/2000/svg">
<circle cx="15" cy="15" r="15" fill="#FF681E"/>
<path d="M10.6729 13.0137C10.6729 13.5378 10.7161 13.916 10.8027 14.1484C10.8893 14.3809 11.0192 14.4971 11.1924 14.4971C11.3656 14.4971 11.4932 14.3831 11.5752 14.1553C11.6618 13.9274 11.7051 13.5469 11.7051 13.0137C11.7051 12.4896 11.6618 12.1113 11.5752 11.8789C11.4932 11.6465 11.3656 11.5303 11.1924 11.5303C11.0146 11.5303 10.8825 11.6488 10.7959 11.8857C10.7139 12.1227 10.6729 12.4987 10.6729 13.0137ZM13.7695 12.9863C13.7695 13.9889 13.5439 14.766 13.0928 15.3174C12.6416 15.8643 11.999 16.1377 11.165 16.1377C10.3812 16.1377 9.75911 15.8551 9.29883 15.29C8.8431 14.7204 8.61523 13.9525 8.61523 12.9863C8.61523 11.9837 8.83854 11.2135 9.28516 10.6758C9.73177 10.1335 10.3584 9.8623 11.165 9.8623C11.9626 9.8623 12.596 10.1426 13.0654 10.7031C13.5348 11.2637 13.7695 12.0247 13.7695 12.9863ZM18.7529 10.0059L13.209 20H11.1787L16.7227 10.0059H18.7529ZM18.2744 16.9922C18.2744 17.5163 18.3177 17.8945 18.4043 18.127C18.4909 18.3594 18.6208 18.4756 18.7939 18.4756C18.9899 18.4756 19.1243 18.3434 19.1973 18.0791C19.2747 17.8102 19.3135 17.4479 19.3135 16.9922C19.3135 16.5365 19.2747 16.1764 19.1973 15.9121C19.1243 15.6432 18.9899 15.5088 18.7939 15.5088C18.6162 15.5088 18.484 15.6273 18.3975 15.8643C18.3154 16.1012 18.2744 16.4772 18.2744 16.9922ZM21.3711 16.9648C21.3711 17.9629 21.1432 18.7376 20.6875 19.2891C20.2363 19.8359 19.596 20.1094 18.7666 20.1094C17.9827 20.1094 17.3607 19.8268 16.9004 19.2617C16.4447 18.6921 16.2168 17.9264 16.2168 16.9648C16.2168 15.9622 16.4401 15.1921 16.8867 14.6543C17.3333 14.112 17.96 13.8408 18.7666 13.8408C19.5641 13.8408 20.1976 14.1211 20.667 14.6816C21.1364 15.2422 21.3711 16.0033 21.3711 16.9648Z" fill="white"/>
</svg>
