<svg width="20" height="21" viewBox="0 0 20 21" fill="none" xmlns="http://www.w3.org/2000/svg">
<path d="M10.8082 15.5721L10.8097 15.573L14.503 17.878L13.5406 13.454C13.5406 13.4539 13.5406 13.4538 13.5405 13.4538C13.417 12.8868 13.5996 12.2896 14.0285 11.8976L14.0283 11.8978L14.3659 12.2666L14.0286 11.8975L10.8082 15.5721ZM10.8082 15.5721C10.5621 15.4197 10.2838 15.3399 9.99993 15.3399C9.71613 15.3399 9.4376 15.4197 9.19151 15.5722L9.19021 15.573L5.4966 17.8774L6.4582 13.4539C6.45824 13.4537 6.45829 13.4535 6.45833 13.4533C6.58292 12.8849 6.40008 12.2883 5.97028 11.8957L2.68151 8.88589L7.01205 8.47559L7.01245 8.47555M10.8082 15.5721L7.01245 8.47555M7.01245 8.47555C7.59669 8.41972 8.0896 8.03684 8.30861 7.49695C8.30879 7.49652 8.30896 7.49609 8.30913 7.49566L9.99969 3.36712L11.6884 7.49555C11.6884 7.49563 11.6885 7.49571 11.6885 7.49579L7.01245 8.47555ZM17.3176 8.88762L18.4388 8.99388L18.486 8.49611L18.1485 8.12725L17.3176 8.88762ZM14.9787 19.3537L15.7955 19.8634C15.6233 19.9667 15.4139 19.9646 15.244 19.8581L15.243 19.8574L10.2645 16.7529L9.99986 16.5879L9.73526 16.753L4.75811 19.8584C4.75802 19.8585 4.75792 19.8585 4.75782 19.8586C4.66714 19.9147 4.57067 19.9409 4.47642 19.9409C4.38432 19.9409 4.29028 19.9159 4.20327 19.863L5.02109 19.3528L9.71824 16.4222C9.71845 16.4221 9.71866 16.4219 9.71887 16.4218C9.80921 16.366 9.90553 16.3399 9.99993 16.3399C10.0942 16.3399 10.1905 16.3659 10.2812 16.4219C10.2814 16.4221 10.2816 16.4222 10.2818 16.4223L14.9787 19.3537ZM15.9332 19.7479L15.732 18.8232L14.5177 13.2412L14.5176 13.2409C14.468 13.0134 14.5439 12.7813 14.7031 12.6358L14.7034 12.6355L18.8236 8.86496L19.4937 8.25167C19.5232 8.46193 19.4485 8.67223 19.3001 8.80733L19.2993 8.80807L14.9358 12.8004L14.7236 12.9945L14.7848 13.2756L16.0714 19.1893C16.1165 19.3974 16.0586 19.604 15.9332 19.7479ZM19.4474 8.08496L18.5332 7.99834L13.0824 7.48183C12.8838 7.46289 12.7013 7.33183 12.6148 7.11907L12.6144 7.11801L10.4627 1.85775L10.091 0.949015C10.2698 0.980953 10.4332 1.1062 10.5149 1.30383C10.515 1.30402 10.515 1.30422 10.5151 1.30442L12.7973 6.87848L12.9119 7.15828L13.2129 7.1868L18.9854 7.73375L18.9858 7.73378C19.1798 7.75202 19.36 7.88013 19.4474 8.08496ZM9.4849 1.30499C9.5666 1.1062 9.73036 0.98078 9.90929 0.948943L9.53722 1.85758L7.38293 7.11864L7.38293 7.11863L7.38215 7.12055C7.29755 7.32962 7.11572 7.46113 6.91732 7.48009L1.46593 7.99658L0.553337 8.08305C0.640848 7.87995 0.820255 7.75251 1.01406 7.73369C1.01416 7.73368 1.01426 7.73368 1.01437 7.73366L6.78697 7.1868L7.01371 7.16532L7.02289 7.17587C7.02773 7.17166 7.03244 7.16741 7.03703 7.16311L7.08795 7.15828L7.15354 6.99812C7.15689 6.99048 7.15997 6.98292 7.16282 6.97546L7.20252 6.87851L9.4849 1.30499ZM0.700482 8.80734C0.551577 8.67169 0.476675 8.46138 0.50635 8.25079L1.17553 8.8632L5.2955 12.6337L5.29585 12.634C5.45613 12.7805 5.53149 13.0116 5.48147 13.2394L5.48125 13.2405L4.26784 18.8224L4.06675 19.7474C3.94159 19.6029 3.88446 19.3968 3.92926 19.1903L5.21585 13.2764L5.27699 12.9954L5.06483 12.8012L0.701323 8.8081L0.700482 8.80734ZM6.19675 6.76466C6.19725 6.75694 6.19795 6.74879 6.19893 6.74027L6.61021 6.7013L6.69327 6.79682C6.19571 6.79685 6.19571 6.79661 6.19571 6.79638L6.19571 6.79591L6.19572 6.79497L6.19573 6.79307L6.19577 6.78923L6.19595 6.78133L6.19675 6.76466Z" stroke="#003BAA"/>
</svg>
