<svg width="18" height="12" viewBox="0 0 18 12" fill="none" xmlns="http://www.w3.org/2000/svg">
<path d="M17.6232 1.8784C17.526 1.51002 17.3281 1.1725 17.0494 0.899927C16.7707 0.627354 16.4211 0.42938 16.036 0.326003C14.6288 6.93974e-08 9 0 9 0C9 0 3.3712 2.31325e-08 1.964 0.35705C1.57886 0.460428 1.22929 0.658401 0.950611 0.930975C0.671928 1.20355 0.473997 1.54107 0.376812 1.90944C0.119273 3.26434 -0.00670255 4.63879 0.000467685 6.01552C-0.00871242 7.40262 0.117272 8.78756 0.376812 10.1527C0.483955 10.5096 0.686319 10.8343 0.964354 11.0953C1.24239 11.3564 1.58669 11.545 1.964 11.643C3.3712 12 9 12 9 12C9 12 14.6288 12 16.036 11.643C16.4211 11.5396 16.7707 11.3416 17.0494 11.069C17.3281 10.7965 17.526 10.4589 17.6232 10.0906C17.8787 8.74586 18.0047 7.38189 17.9995 6.01552C18.0087 4.62843 17.8827 3.24349 17.6232 1.8784Z" fill="white"/>
<path d="M7 8.13148C7 8.93018 7.89015 9.40657 8.5547 8.96353L11.7519 6.83205C12.3457 6.43623 12.3457 5.56377 11.7519 5.16795L8.5547 3.03647C7.89014 2.59343 7 3.06982 7 3.86852V8.13148Z" fill="#001D55"/>
</svg>
