<svg width="18" height="15" viewBox="0 0 18 15" fill="none" xmlns="http://www.w3.org/2000/svg">
<path d="M0.315631 7.19988L4.45392 8.67401L6.06714 13.6324C6.13728 13.9675 6.55812 14.0345 6.83868 13.8335L9.1533 12.0243C9.36372 11.8233 9.71443 11.8233 9.99499 12.0243L14.1333 14.9056C14.4138 15.1066 14.8347 14.9726 14.9048 14.6375L17.991 0.5663C18.0611 0.231271 17.7104 -0.103756 17.3597 0.0302562L0.315631 6.32881C-0.10521 6.46282 -0.10521 7.06587 0.315631 7.19988ZM5.85672 7.93694L13.993 3.17953C14.1333 3.11252 14.2735 3.31354 14.1333 3.38055L7.46994 9.34407C7.25952 9.54509 7.04909 9.81311 7.04909 10.1481L6.83868 11.7563C6.83868 11.9573 6.48798 12.0243 6.41784 11.7563L5.57615 8.80802C5.36573 8.47299 5.50602 8.07096 5.85672 7.93694Z" fill="white"/>
</svg>
