<svg width="16" height="16" viewBox="0 0 16 16" fill="none" xmlns="http://www.w3.org/2000/svg">
<path d="M15.6469 7.64569C15.6483 7.64569 15.6493 7.64569 15.6507 7.64569C15.7482 7.64569 15.8411 7.60482 15.9071 7.53321C15.9742 7.46056 16.0073 7.36311 15.9986 7.26461C15.648 3.4074 12.5943 0.352511 8.73695 0.00112562C8.63916 -0.00655875 8.54066 0.0252267 8.46802 0.0926396C8.39537 0.159703 8.35485 0.254361 8.3559 0.35321C8.41667 5.47939 9.09286 7.57408 15.6469 7.64569ZM15.6469 8.35404C9.09286 8.42565 8.41702 10.5203 8.35625 15.6465C8.3552 15.7454 8.39572 15.84 8.46836 15.9071C8.53333 15.9668 8.6182 16 8.70552 16C8.716 16 8.72682 15.9997 8.7373 15.9986C12.5946 15.6472 15.6483 12.5927 15.9986 8.73512C16.0073 8.63662 15.9745 8.53917 15.9071 8.46652C15.8397 8.39386 15.7457 8.35789 15.6469 8.35404ZM7.23963 0.00287211C3.39453 0.364387 0.350643 3.41858 0.0017228 7.26531C-0.00700894 7.36381 0.0258224 7.46126 0.0932314 7.53391C0.159243 7.60552 0.252498 7.64603 0.349595 7.64603C0.350992 7.64603 0.352389 7.64603 0.353786 7.64603C6.88617 7.57094 7.56061 5.47729 7.62208 0.354607C7.62313 0.255758 7.58227 0.160751 7.50962 0.0936875C7.43627 0.0266238 7.33813 -0.00620942 7.23963 0.00287211ZM0.353437 8.3537C0.244814 8.34147 0.159593 8.39317 0.0928822 8.46582C0.0258225 8.53847 -0.00735819 8.63592 0.00137355 8.73442C0.350294 12.5812 3.39453 15.6353 7.23963 15.9969C7.25046 15.9979 7.26164 15.9983 7.27247 15.9983C7.35978 15.9983 7.44431 15.9654 7.50927 15.9057C7.58192 15.8386 7.62278 15.7436 7.62174 15.6448C7.56026 10.5224 6.88617 8.42879 0.353437 8.3537Z" fill="white"/>
</svg>
