<svg width="25" height="22" fill="none" xmlns="http://www.w3.org/2000/svg"><path d="M17.148 19.375h-4.773a1 1 0 0 1-1-1v-2.5a1 1 0 0 1 1-1h5.875a1 1 0 0 0 1-1v-2.5a1 1 0 0 1 1-1h2.5a1 1 0 0 1 1 1v7a1 1 0 0 1-1 1h-1.398a1 1 0 0 0-.707.293l-.688.687a1 1 0 0 1-1.414 0l-.688-.687a1 1 0 0 0-.707-.293Z" stroke="#000" stroke-width="2" stroke-linecap="round" stroke-linejoin="round"/><path d="M2.25 1.375h16a1 1 0 0 1 1 1v11.5a1 1 0 0 1-1 1H8.977a1 1 0 0 0-.707.293l-1.25 1.25a1 1 0 0 1-1.415 0l-1.25-1.25a1 1 0 0 0-.707-.293H2.25a1 1 0 0 1-1-1v-11.5a1 1 0 0 1 1-1Z" stroke="#000" stroke-width="2" stroke-linecap="round" stroke-linejoin="round"/><path d="M9.688 8.125h.562M13.625 8.125h.563M5.75 8.125h.563" stroke="#000" stroke-width="2" stroke-linecap="round"/></svg>