<svg width="18" height="18" viewBox="0 0 18 18" fill="none" xmlns="http://www.w3.org/2000/svg">
<path d="M14.1383 1.82086C12.9468 0.606958 11.234 0 9.37234 0C6.54255 0 4.82979 1.21391 3.8617 2.20021C2.67021 3.41411 2 5.00735 2 6.67647C2 8.72493 2.81915 10.2423 4.23404 10.8493C4.30851 10.9251 4.45744 10.9251 4.53191 10.9251C4.82978 10.9251 5.0532 10.6975 5.12767 10.394C5.20214 10.2423 5.2766 9.7871 5.35107 9.55949C5.42553 9.18015 5.35108 9.0284 5.12767 8.72493C4.75533 8.26971 4.53191 7.66277 4.53191 6.90408C4.53191 4.70388 6.17022 2.35194 9.14895 2.35194C11.5319 2.35194 13.0213 3.71758 13.0213 5.91778C13.0213 7.28342 12.7234 8.57319 12.2021 9.55949C11.8298 10.2423 11.1596 11.001 10.1915 11.001C9.74469 11.001 9.37235 10.8493 9.14895 10.4699C8.92554 10.1664 8.85106 9.7871 8.92553 9.40775C9 8.95254 9.14893 8.49732 9.29787 8.04211C9.52127 7.20755 9.81915 6.37299 9.81915 5.76604C9.81915 4.70388 9.14893 3.94518 8.18085 3.94518C6.91489 3.94518 5.9468 5.23496 5.9468 6.8282C5.9468 7.66276 6.17022 8.19385 6.24469 8.42146C6.09576 9.10428 5.12766 13.1253 4.97873 13.8081C4.90426 14.2634 4.23404 17.7533 5.27659 17.9809C6.39362 18.2844 7.43617 14.8703 7.51064 14.491C7.58511 14.1875 7.88299 12.9736 8.03192 12.2908C8.5532 12.8218 9.44682 13.2012 10.3404 13.2012C11.9787 13.2012 13.3936 12.4425 14.4362 11.0769C15.4043 9.7871 16 7.96624 16 5.91778C15.9255 4.55214 15.3298 2.9589 14.1383 1.82086Z" fill="white"/>
</svg>
