<svg width="28" height="20" fill="none" xmlns="http://www.w3.org/2000/svg"><path d="M21.8 9.662a1 1 0 1 0 0 2v-2Zm2.1-3.34-.764.644.764-.645ZM17.653 1V0v1Zm9.229 8.86.765-.644-.765.644ZM2.484 1V0v1ZM0 2.484v12.157h2V2.484H0ZM17.653 0H2.484v2h15.169V0Zm9.994 9.216-2.982-3.54-1.53 1.29 2.982 3.538 1.53-1.288Zm-8.492-3.073V1.502h-2v4.64h2Zm4.362-1h-5.362v2h5.362v-2ZM28 10.662v-.479h-2v.479h2Zm-8.845 0v-4.52h-2v4.52h2Zm0 4.48v-1.928h-2v1.929h2Zm0-1.928v-2.552h-2v2.552h2ZM7.8 16.43C7.8 17.286 7.094 18 6.2 18v2c1.978 0 3.6-1.589 3.6-3.571h-2ZM6.2 18c-.894 0-1.6-.714-1.6-1.571h-2C2.6 18.41 4.222 20 6.2 20v-2Zm17.2-1.571c0 .857-.706 1.571-1.6 1.571v2c1.978 0 3.6-1.589 3.6-3.571h-2ZM21.8 18c-.894 0-1.6-.714-1.6-1.571h-2C18.2 18.41 19.822 20 21.8 20v-2ZM6.2 14.857c.596 0 1.113.32 1.389.79l1.726-1.009a3.604 3.604 0 0 0-3.115-1.78v2Zm1.389.79c.134.23.211.496.211.782h2c0-.651-.177-1.264-.485-1.791l-1.726 1.01Zm.863.496h9.703v-2H8.452v2Zm-6.95 0h2.446v-2H1.502v2Zm3.098.286c0-.286.077-.552.211-.781l-1.726-1.01a3.538 3.538 0 0 0-.485 1.79h2Zm.211-.781c.276-.472.793-.79 1.389-.79v-2a3.604 3.604 0 0 0-3.115 1.78l1.726 1.01Zm15.389.78c0-.285.077-.55.211-.78l-1.726-1.01a3.538 3.538 0 0 0-.485 1.79h2Zm.211-.78c.276-.472.793-.79 1.389-.79v-2a3.604 3.604 0 0 0-3.115 1.78l1.726 1.01Zm-2.256.495h1.393v-2h-1.393v2Zm5.897 0h2.446v-2h-2.446v2ZM21.8 14.857c.596 0 1.113.32 1.389.79l1.726-1.009a3.604 3.604 0 0 0-3.115-1.78v2Zm1.389.79c.134.23.211.496.211.782h2c0-.651-.176-1.264-.485-1.791l-1.726 1.01ZM26 10.663v3.98h2v-3.98h-2Zm1-1h-5.2v2H27v-2Zm-2.335-3.985a1.502 1.502 0 0 0-1.148-.534v2a.498.498 0 0 1-.381-.177l1.53-1.29Zm1.833 10.466c.83 0 1.502-.673 1.502-1.502h-2c0-.275.223-.498.498-.498v2ZM17.653 2a.498.498 0 0 1-.498-.498h2c0-.83-.673-1.502-1.502-1.502v2ZM0 14.641c0 .83.672 1.502 1.502 1.502v-2c.275 0 .498.223.498.498H0Zm26.117-4.137a.498.498 0 0 1-.117-.32h2c0-.355-.125-.698-.353-.968l-1.53 1.288ZM2 2.484C2 2.217 2.217 2 2.484 2V0A2.484 2.484 0 0 0 0 2.484h2Z" fill="#262626"/></svg>