<svg width="48" height="48" viewBox="0 0 48 48" fill="none" xmlns="http://www.w3.org/2000/svg">
<ellipse cx="24" cy="23.5" rx="24" ry="23.5" fill="#001D55"/>
<path d="M33.3834 23.7998C32.8311 23.7998 32.3834 24.2475 32.3834 24.7998C32.3834 25.3521 32.8311 25.7998 33.3834 25.7998V23.7998ZM35.8798 19.4836L35.1115 20.1238L35.8798 19.4836ZM39.5229 23.8554L38.7547 24.4956L39.5229 23.8554ZM7.36057 14.5316L7.36048 29.7489L9.36048 29.7489L9.36057 14.5316L7.36057 14.5316ZM28.4962 12.0474L9.84481 12.0474L9.84481 14.0474L28.4962 14.0474V12.0474ZM40.2911 23.2152L36.648 18.8434L35.1115 20.1238L38.7547 24.4956L40.2911 23.2152ZM29.9979 19.3031V13.5491H27.9979V19.3031H29.9979ZM35.4943 18.3031H28.9979V20.3031H35.4943V18.3031ZM40.6392 24.7998V24.1766H38.6392V24.7998H40.6392ZM29.9979 24.7998V19.3031H27.9979V24.7998H29.9979ZM29.9979 30.2507V27.9047H27.9979V30.2507H29.9979ZM29.9979 27.9047V24.7998H27.9979V27.9047H29.9979ZM16.7441 31.8146C16.7441 32.9898 15.7914 33.9425 14.6162 33.9425V35.9425C16.896 35.9425 18.7441 34.0943 18.7441 31.8146H16.7441ZM14.6162 33.9425C13.441 33.9425 12.4883 32.9898 12.4883 31.8146H10.4883C10.4883 34.0943 12.3365 35.9425 14.6162 35.9425V33.9425ZM35.5113 31.8146C35.5113 32.9898 34.5586 33.9425 33.3834 33.9425V35.9425C35.6632 35.9425 37.5113 34.0943 37.5113 31.8146H35.5113ZM33.3834 33.9425C32.2082 33.9425 31.2556 32.9898 31.2556 31.8146H29.2556C29.2556 34.0943 31.1037 35.9425 33.3834 35.9425V33.9425ZM14.6162 29.6867C15.4026 29.6867 16.0906 30.1127 16.46 30.7514L18.1912 29.7499C17.479 28.5187 16.1454 27.6867 14.6162 27.6867V29.6867ZM16.46 30.7514C16.6405 31.0633 16.7441 31.4253 16.7441 31.8146H18.7441C18.7441 31.0644 18.543 30.3581 18.1912 29.7499L16.46 30.7514ZM17.3256 31.2507H28.9979V29.2507H17.3256V31.2507ZM8.86219 31.2507H11.9068V29.2507H8.86219V31.2507ZM12.4883 31.8146C12.4883 31.4253 12.5919 31.0633 12.7724 30.7514L11.0412 29.7499C10.6894 30.3581 10.4883 31.0644 10.4883 31.8146H12.4883ZM12.7724 30.7514C13.1418 30.1127 13.8299 29.6867 14.6162 29.6867V27.6867C13.0871 27.6867 11.7534 28.5187 11.0412 29.7499L12.7724 30.7514ZM31.2556 31.8146C31.2556 31.4253 31.3592 31.0633 31.5396 30.7514L29.8084 29.7499C29.4566 30.3581 29.2556 31.0644 29.2556 31.8146H31.2556ZM31.5396 30.7514C31.909 30.1127 32.5971 29.6867 33.3834 29.6867V27.6867C31.8543 27.6867 30.5206 28.5187 29.8084 29.7499L31.5396 30.7514ZM28.9979 31.2507H30.674V29.2507H28.9979V31.2507ZM36.0928 31.2507H39.1375V29.2507H36.0928V31.2507ZM33.3834 29.6867C34.1698 29.6867 34.8578 30.1127 35.2272 30.7514L36.9585 29.7499C36.2462 28.5187 34.9126 27.6867 33.3834 27.6867V29.6867ZM35.2272 30.7514C35.4077 31.0633 35.5113 31.4253 35.5113 31.8146H37.5113C37.5113 31.0644 37.3103 30.3581 36.9585 29.7499L35.2272 30.7514ZM38.6392 24.7998V29.7489H40.6392V24.7998H38.6392ZM39.6392 23.7998H33.3834V25.7998H39.6392V23.7998ZM36.648 18.8434C36.3627 18.5011 35.94 18.3031 35.4943 18.3031V20.3031C35.3465 20.3031 35.2062 20.2374 35.1115 20.1238L36.648 18.8434ZM39.1375 31.2507C39.9668 31.2507 40.6392 30.5783 40.6392 29.7489H38.6392C38.6392 29.4737 38.8623 29.2507 39.1375 29.2507V31.2507ZM28.4962 14.0474C28.221 14.0474 27.9979 13.8243 27.9979 13.5491H29.9979C29.9979 12.7197 29.3255 12.0474 28.4962 12.0474V14.0474ZM7.36048 29.7489C7.36047 30.5783 8.03282 31.2507 8.86219 31.2507V29.2507C9.13738 29.2507 9.36048 29.4737 9.36048 29.7489L7.36048 29.7489ZM38.7547 24.4956C38.68 24.406 38.6392 24.2931 38.6392 24.1766H40.6392C40.6392 23.8253 40.516 23.4851 40.2911 23.2152L38.7547 24.4956ZM9.36057 14.5316C9.36057 14.2642 9.57737 14.0474 9.84481 14.0474L9.84481 12.0474C8.4728 12.0474 7.36058 13.1596 7.36057 14.5316L9.36057 14.5316Z" fill="white"/>
</svg>
