<svg width="17" height="20" viewBox="0 0 17 20" fill="none" xmlns="http://www.w3.org/2000/svg">
<path d="M12.325 7.8148L4.97498 3.45435" stroke="#003BAA" stroke-width="2" stroke-linecap="round" stroke-linejoin="round"/>
<path d="M16 13.3606V6.63924C15.9997 6.34457 15.9241 6.05517 15.7807 5.80005C15.6374 5.54494 15.4314 5.33309 15.1833 5.18576L9.46666 1.8251C9.21836 1.67762 8.9367 1.59998 8.64999 1.59998C8.36328 1.59998 8.08162 1.67762 7.83332 1.8251L2.11665 5.18576C1.8686 5.33309 1.66257 5.54494 1.51923 5.80005C1.37589 6.05517 1.30028 6.34457 1.29999 6.63924V13.3606C1.30028 13.6552 1.37589 13.9446 1.51923 14.1997C1.66257 14.4549 1.8686 14.6667 2.11665 14.814L7.83332 18.1747C8.08162 18.3222 8.36328 18.3998 8.64999 18.3998C8.9367 18.3998 9.21836 18.3222 9.46666 18.1747L15.1833 14.814C15.4314 14.6667 15.6374 14.4549 15.7807 14.1997C15.9241 13.9446 15.9997 13.6552 16 13.3606Z" stroke="#003BAA" stroke-width="2" stroke-linecap="round" stroke-linejoin="round"/>
<path d="M1.52032 5.76392L8.64983 10.0067L15.7793 5.76392" stroke="#003BAA" stroke-width="2" stroke-linecap="round" stroke-linejoin="round"/>
<path d="M8.64996 18.3999V12.5188" stroke="#003BAA" stroke-width="2" stroke-linecap="round" stroke-linejoin="round"/>
</svg>
