<svg width="18" height="18" viewBox="0 0 18 18" fill="none" xmlns="http://www.w3.org/2000/svg">
<path d="M16.0219 11.3088C16.0219 11.3088 17.4772 12.5659 17.8372 13.1475C17.8442 13.1559 17.8497 13.1652 17.8534 13.1751C18.0001 13.39 18.0361 13.5584 17.9641 13.6828C17.8426 13.8882 17.4313 13.9913 17.2918 14H14.7196C14.5405 14 14.1679 13.9591 13.7143 13.6851C13.3678 13.4734 13.0231 13.1247 12.6892 12.7839C12.1906 12.2778 11.7595 11.8386 11.323 11.8386C11.2679 11.8384 11.2131 11.8464 11.161 11.8622C10.8307 11.9535 10.4113 12.3651 10.4113 13.4616C10.4113 13.8048 10.1017 14 9.88479 14H8.70669C8.30529 14 6.21549 13.8772 4.36239 12.1684C2.09168 10.0762 0.0522811 5.87922 0.0324811 5.84223C-0.0944191 5.57067 0.171981 5.42269 0.459982 5.42269H3.05738C3.40568 5.42269 3.51908 5.60687 3.59829 5.77217C3.69009 5.96187 4.03029 6.72066 4.58829 7.57312C5.49189 8.96003 6.04719 9.5244 6.49089 9.5244C6.57425 9.52461 6.6562 9.50561 6.72849 9.4693C7.30809 9.19066 7.20009 7.38027 7.17309 7.00717C7.17309 6.93476 7.17219 6.19879 6.87519 5.84301C6.66279 5.58798 6.30099 5.48881 6.08229 5.4526C6.14079 5.37861 6.26499 5.26526 6.42429 5.19836C6.82119 5.02519 7.53849 5 8.25039 5H8.64549C9.41769 5.00945 9.61749 5.05274 9.89829 5.11492C10.4635 5.23299 10.4743 5.55335 10.4248 6.64431C10.4104 6.95601 10.3951 7.30707 10.3951 7.72031C10.3951 7.80847 10.3906 7.90686 10.3906 8.00682C10.3735 8.56647 10.351 9.19696 10.8028 9.45592C10.8614 9.48785 10.9291 9.50475 10.9981 9.50472C11.1547 9.50472 11.6236 9.50472 12.8953 7.59594C13.4533 6.75293 13.8853 5.75879 13.915 5.68401C13.9402 5.64229 14.0158 5.52501 14.1076 5.47779C14.1729 5.4474 14.246 5.43222 14.32 5.43371H17.3755C17.7085 5.43371 17.9344 5.47779 17.9785 5.58798C18.0523 5.76666 17.9641 6.31214 16.5691 7.96195C16.3342 8.23666 16.1281 8.47438 15.9472 8.68218C14.6827 10.1336 14.6827 10.2068 16.0219 11.3088Z" fill="white"/>
</svg>
