<svg width="18" height="18" viewBox="0 0 18 18" fill="none" xmlns="http://www.w3.org/2000/svg">
<path d="M13 1H5C2.79086 1 1 2.79086 1 5V13C1 15.2091 2.79086 17 5 17H13C15.2091 17 17 15.2091 17 13V5C17 2.79086 15.2091 1 13 1Z" stroke="white" stroke-width="2" stroke-linecap="round" stroke-linejoin="round"/>
<path d="M12.1994 8.49624C12.2981 9.16204 12.1844 9.84201 11.8744 10.4395C11.5644 11.0369 11.0739 11.5214 10.4727 11.824C9.87146 12.1266 9.19013 12.2319 8.5256 12.125C7.86108 12.0181 7.24718 11.7043 6.77125 11.2284C6.29531 10.7524 5.98156 10.1385 5.87463 9.47401C5.7677 8.80948 5.87303 8.12816 6.17564 7.52694C6.47825 6.92572 6.96272 6.43523 7.56016 6.12523C8.1576 5.81523 8.83758 5.70151 9.50338 5.80024C10.1825 5.90095 10.8113 6.21741 11.2967 6.70289C11.7822 7.18836 12.0987 7.8171 12.1994 8.49624Z" stroke="white" stroke-width="2" stroke-linecap="round" stroke-linejoin="round"/>
<path d="M13.4004 4.6001H13.4084" stroke="white" stroke-width="2" stroke-linecap="round" stroke-linejoin="round"/>
</svg>
