<svg width="24" height="24" viewBox="0 0 24 24" fill="none" xmlns="http://www.w3.org/2000/svg">
<g clip-path="url(#clip0_2354_43320)">
<path d="M20.52 3.449C18.24 1.245 15.24 0 12.045 0C2.875 0 -2.883 9.935 1.696 17.838L0 24L6.335 22.348C9.095 23.839 11.356 23.707 12.051 23.795C22.684 23.795 27.977 10.931 20.505 3.488L20.52 3.449Z" fill="#00AA1A"/>
<path d="M12.0671 21.9673L12.0611 21.9663H12.0451C8.86307 21.9663 6.83007 20.4593 6.63007 20.3723L2.88007 21.3473L3.88507 17.7023L3.64607 17.3273C2.65607 15.7513 2.13007 13.9363 2.13007 12.0673C2.13007 3.27428 12.8751 -1.12272 19.0931 5.09228C25.2961 11.2423 20.9411 21.9673 12.0671 21.9673Z" fill="#00AA1A"/>
<path d="M19.0706 15.0841L19.0595 15.1749C18.6888 14.9933 16.8833 14.1253 16.5471 14.0055C15.7921 13.7307 16.0052 13.9619 14.5556 15.5938C14.3401 15.8298 14.1258 15.848 13.76 15.6846C13.3905 15.503 12.2045 15.1217 10.8005 13.8869C9.7068 12.9245 8.97277 11.7441 8.75601 11.381C8.39516 10.7684 9.15012 10.6813 9.83735 9.40288C9.96051 9.14866 9.8977 8.94891 9.80656 8.76854C9.71419 8.58695 8.97893 6.8074 8.67103 6.098C8.37545 5.39102 8.07125 5.48061 7.8434 5.48061C7.134 5.42008 6.6155 5.42976 6.15858 5.89705C4.17079 8.04461 4.67205 10.26 6.37288 12.6158C9.71542 16.9157 11.4963 17.7074 14.7526 18.8067C15.632 19.0815 16.4338 19.0427 17.068 18.9531C17.775 18.843 19.2443 18.0803 19.5509 17.2268C19.865 16.3734 19.865 15.6652 19.7726 15.5018C19.6815 15.3383 19.4401 15.2476 19.0706 15.0841Z" fill="#FAFAFA"/>
</g>
<defs>
<clipPath id="clip0_2354_43320">
<rect width="24" height="24" fill="white"/>
</clipPath>
</defs>
</svg>
