<svg width="23" height="26" viewBox="0 0 23 26" fill="none" xmlns="http://www.w3.org/2000/svg">
<path d="M16.75 9.87827L6.25 3.64905" stroke="#003BAA" stroke-width="2" stroke-linecap="round" stroke-linejoin="round"/>
<path d="M22 17.8008V8.19895C21.9996 7.778 21.8916 7.36456 21.6868 7.00011C21.482 6.63566 21.1877 6.33302 20.8333 6.12254L12.6667 1.3216C12.312 1.11092 11.9096 1 11.5 1C11.0904 1 10.688 1.11092 10.3333 1.3216L2.16667 6.12254C1.81231 6.33302 1.51798 6.63566 1.31321 7.00011C1.10843 7.36456 1.00042 7.778 1 8.19895V17.8008C1.00042 18.2218 1.10843 18.6352 1.31321 18.9997C1.51798 19.3641 1.81231 19.6668 2.16667 19.8772L10.3333 24.6782C10.688 24.8889 11.0904 24.9998 11.5 24.9998C11.9096 24.9998 12.312 24.8889 12.6667 24.6782L20.8333 19.8772C21.1877 19.6668 21.482 19.3641 21.6868 18.9997C21.8916 18.6352 21.9996 18.2218 22 17.8008Z" stroke="#003BAA" stroke-width="2" stroke-linecap="round" stroke-linejoin="round"/>
<path d="M1.31482 6.94849L11.4998 13.0097L21.6848 6.94849" stroke="#003BAA" stroke-width="2" stroke-linecap="round" stroke-linejoin="round"/>
<path d="M11.5 25V16.5984" stroke="#003BAA" stroke-width="2" stroke-linecap="round" stroke-linejoin="round"/>
</svg>
