<svg width="16" height="16" viewBox="0 0 16 16" fill="none" xmlns="http://www.w3.org/2000/svg">
<path d="M8.14541 9.425V6.635H15.3087C15.4158 7.1075 15.5 7.55 15.5 8.1725C15.5 12.455 12.5689 15.5 8.15306 15.5C3.92857 15.5 0.5 12.14 0.5 8C0.5 3.86 3.92857 0.5 8.15306 0.5C10.2194 0.5 11.949 1.2425 13.273 2.4575L11.0995 4.5275C10.5485 4.0175 9.58418 3.4175 8.15306 3.4175C5.6199 3.4175 3.55357 5.48 3.55357 8.0075C3.55357 10.535 5.6199 12.5975 8.15306 12.5975C11.0842 12.5975 12.1633 10.61 12.3622 9.4325H8.14541V9.425Z" fill="white"/>
</svg>
