<svg width="30" height="30" viewBox="0 0 30 30" fill="none" xmlns="http://www.w3.org/2000/svg">
<path d="M15 0L18.8936 3.01669L23.8168 2.86475L25.1936 7.59391L29.2658 10.3647L27.6 15L29.2658 19.6353L25.1936 22.4061L23.8168 27.1353L18.8936 26.9833L15 30L11.1064 26.9833L6.18322 27.1353L4.80639 22.4061L0.734152 19.6353L2.4 15L0.734152 10.3647L4.80639 7.59391L6.18322 2.86475L11.1064 3.01669L15 0Z" fill="#EB5757"/>
<path d="M11.3672 18H9.34375L7.25781 13.9766H7.22266C7.23568 14.099 7.2474 14.2461 7.25781 14.418C7.26823 14.5898 7.27734 14.7656 7.28516 14.9453C7.29297 15.1224 7.29688 15.2826 7.29688 15.4258V18H5.92969V12.2891H7.94531L10.0234 16.2578H10.0469C10.0391 16.1328 10.0312 15.9883 10.0234 15.8242C10.0156 15.6576 10.0078 15.4896 10 15.3203C9.99479 15.151 9.99219 15.0013 9.99219 14.8711V12.2891H11.3672V18ZM15.9922 18H12.6016V12.2891H15.9922V13.5273H14.1445V14.4258H15.8555V15.6641H14.1445V16.7422H15.9922V18ZM24.5664 12.2891L23.1602 18H21.3359L20.7891 15.5117C20.7786 15.4648 20.7617 15.3854 20.7383 15.2734C20.7174 15.1615 20.6927 15.0339 20.6641 14.8906C20.638 14.7474 20.6133 14.6068 20.5898 14.4688C20.569 14.3281 20.5534 14.2096 20.543 14.1133C20.5326 14.2096 20.5156 14.3281 20.4922 14.4688C20.4688 14.6068 20.4427 14.7474 20.4141 14.8906C20.388 15.0339 20.362 15.1615 20.3359 15.2734C20.3125 15.3854 20.2956 15.4648 20.2852 15.5117L19.7344 18H17.9102L16.4961 12.2891H17.9844L18.6055 15.1523C18.6211 15.2227 18.6419 15.3229 18.668 15.4531C18.6966 15.5807 18.7253 15.7214 18.7539 15.875C18.7852 16.026 18.8138 16.1719 18.8398 16.3125C18.8659 16.4531 18.8841 16.5703 18.8945 16.6641C18.9154 16.5026 18.9427 16.319 18.9766 16.1133C19.013 15.9076 19.0521 15.6992 19.0938 15.4883C19.138 15.2747 19.1797 15.0768 19.2188 14.8945C19.2578 14.7122 19.2917 14.5638 19.3203 14.4492L19.8242 12.2891H21.2539L21.7422 14.4492C21.7682 14.5612 21.8008 14.7096 21.8398 14.8945C21.8815 15.0768 21.9232 15.2747 21.9648 15.4883C22.0091 15.7018 22.0495 15.9128 22.0859 16.1211C22.1224 16.3268 22.1497 16.5078 22.168 16.6641C22.1836 16.5339 22.2096 16.3698 22.2461 16.1719C22.2826 15.9714 22.319 15.7773 22.3555 15.5898C22.3945 15.3997 22.4245 15.2565 22.4453 15.1602L23.0781 12.2891H24.5664Z" fill="white"/>
</svg>
