<svg width="16" height="18" viewBox="0 0 16 18" fill="none" xmlns="http://www.w3.org/2000/svg">
<path d="M15.6575 2.75348C16.048 2.36295 16.0702 1.70903 15.7071 1.29289C15.344 0.87676 14.7331 0.855998 14.3425 1.24652L15.6575 2.75348ZM0.342527 15.2465C-0.047997 15.637 -0.0702189 16.291 0.292893 16.7071C0.656005 17.1232 1.26695 17.144 1.65747 16.7535L0.342527 15.2465ZM14.3425 1.24652L0.342527 15.2465L1.65747 16.7535L15.6575 2.75348L14.3425 1.24652Z" fill="#003baa"/>
<path d="M14.3425 16.7535C14.7331 17.144 15.344 17.1232 15.7071 16.7071C16.0702 16.291 16.048 15.637 15.6575 15.2465L14.3425 16.7535ZM1.65747 1.24652C1.26695 0.855997 0.656005 0.876759 0.292893 1.29289C-0.0702189 1.70903 -0.047997 2.36295 0.342527 2.75348L1.65747 1.24652ZM15.6575 15.2465L1.65747 1.24652L0.342527 2.75348L14.3425 16.7535L15.6575 15.2465Z" fill="#003baa"/>
</svg>
