<svg width="20" height="21" viewBox="0 0 20 21" fill="none" xmlns="http://www.w3.org/2000/svg">
<path d="M1 1V6H6" stroke="#878786" stroke-width="2" stroke-linecap="round" stroke-linejoin="round"/>
<path d="M1.05 11C1.27151 13.0058 2.1607 14.879 3.57478 16.3187C4.98886 17.7584 6.84577 18.681 8.84729 18.9385C10.8488 19.196 12.8788 18.7734 14.6112 17.7384C16.3436 16.7035 17.678 15.1164 18.3999 13.2319C19.1219 11.3475 19.1896 9.27508 18.5921 7.34754C17.9947 5.42 16.7668 3.74918 15.1056 2.60341C13.4444 1.45764 11.4463 0.903418 9.43223 1.02974C7.41817 1.15607 5.50501 1.95561 4 3.29997L1 5.99997" stroke="#878786" stroke-width="2" stroke-linecap="round" stroke-linejoin="round"/>
<path d="M10 5V10L14 12" stroke="#878786" stroke-width="2" stroke-linecap="round" stroke-linejoin="round"/>
</svg>
