<svg width="24" height="24" viewBox="0 0 24 24" fill="none" xmlns="http://www.w3.org/2000/svg">
<path d="M12 24C18.6274 24 24 18.6274 24 12C24 5.37258 18.6274 0 12 0C5.37258 0 0 5.37258 0 12C0 18.6274 5.37258 24 12 24Z" fill="#039BE5"/>
<path d="M5.49102 11.061L17.061 6.59998C17.598 6.40598 18.067 6.73098 17.893 7.54298L17.894 7.54198L15.924 16.823C15.778 17.481 15.387 17.641 14.84 17.331L11.84 15.12L10.393 16.514C10.233 16.674 10.098 16.809 9.78802 16.809L10.001 13.756L15.561 8.73298C15.803 8.51998 15.507 8.39998 15.188 8.61198L8.31702 12.938L5.35502 12.014C4.71202 11.81 4.69802 11.371 5.49102 11.061Z" fill="white"/>
</svg>
