<svg width="22" height="22" viewBox="0 0 22 22" fill="none" xmlns="http://www.w3.org/2000/svg">
<path d="M21 15.985V18.994C21 19.526 20.7886 20.0363 20.4124 20.4125C20.0362 20.7887 19.5259 21 18.9939 21H18.8033C15.7167 20.6646 12.7518 19.61 10.1468 17.9208C7.72366 16.3803 5.669 14.3258 4.12844 11.9028C2.41713 9.28334 1.34831 6.29701 1.0089 3.18665C0.984054 2.92378 1.01134 2.6586 1.08921 2.40631C1.16708 2.15402 1.29399 1.91958 1.46266 1.71643C1.63133 1.51329 1.83845 1.34545 2.07214 1.22252C2.30583 1.09959 2.56149 1.02401 2.82445 1.0001H6.0142C6.501 0.995306 6.97292 1.16768 7.34202 1.48508C7.71112 1.80249 7.9522 2.24327 8.02033 2.72526C8.14868 3.68796 8.38419 4.63331 8.72248 5.54371C8.85743 5.9027 8.88664 6.29286 8.80664 6.66795C8.72664 7.04304 8.54079 7.38734 8.2711 7.66004L6.99721 8.93386C8.42512 11.4449 10.5044 13.5241 13.0156 14.9519L14.2895 13.6781C14.5622 13.4084 14.9065 13.2226 15.2816 13.1426C15.6568 13.0626 16.0469 13.0918 16.406 13.2267C17.3164 13.565 18.2618 13.8005 19.2246 13.9288C19.7118 13.9976 20.1568 14.243 20.4749 14.6184C20.793 14.9938 20.9621 15.473 20.9498 15.9649L21 15.985Z" stroke="black" stroke-width="2" stroke-linecap="round" stroke-linejoin="round"/>
</svg>
