<svg width="28" height="20" viewBox="0 0 28 20" fill="none" xmlns="http://www.w3.org/2000/svg">
<path d="M21.8 9.66171C21.2477 9.66171 20.8 10.1094 20.8 10.6617C20.8 11.214 21.2477 11.6617 21.8 11.6617V9.66171ZM23.9003 6.3213L23.1356 6.96565L23.9003 6.3213ZM17.6529 1.00001V6.49691e-06V1.00001ZM26.882 9.85991L27.6467 9.21556L26.882 9.85991ZM2.48432 1L2.48432 5.96046e-07L2.48432 1ZM7.70688e-05 2.48422L3.03984e-06 14.6411L2 14.6411L2.00008 2.48424L7.70688e-05 2.48422ZM17.6529 6.49691e-06L2.48432 5.96046e-07L2.48432 2L17.6529 2.00001V6.49691e-06ZM27.6467 9.21556L24.6651 5.67694L23.1356 6.96565L26.1172 10.5043L27.6467 9.21556ZM19.1546 6.14286V1.50172H17.1546V6.14286H19.1546ZM23.5167 5.14286H18.1546V7.14286H23.5167V5.14286ZM28 10.6617V10.1832H26V10.6617H28ZM19.1546 10.6617V6.14286H17.1546V10.6617H19.1546ZM19.1546 15.1429V13.2143H17.1546V15.1429H19.1546ZM19.1546 13.2143V10.6617H17.1546V13.2143H19.1546ZM7.8 16.4286C7.8 17.2861 7.0941 18 6.2 18V20C8.17778 20 9.8 18.4114 9.8 16.4286H7.8ZM6.2 18C5.3059 18 4.6 17.2861 4.6 16.4286H2.6C2.6 18.4114 4.22222 20 6.2 20V18ZM23.4 16.4286C23.4 17.2861 22.6941 18 21.8 18V20C23.7778 20 25.4 18.4114 25.4 16.4286H23.4ZM21.8 18C20.9059 18 20.2 17.2861 20.2 16.4286H18.2C18.2 18.4114 19.8222 20 21.8 20V18ZM6.2 14.8571C6.79637 14.8571 7.31329 15.1764 7.58897 15.6477L9.31536 14.638C8.69194 13.5721 7.52836 12.8571 6.2 12.8571V14.8571ZM7.58897 15.6477C7.72328 15.8774 7.8 16.1429 7.8 16.4286H9.8C9.8 15.7775 9.62349 15.1648 9.31536 14.638L7.58897 15.6477ZM8.45217 16.1429H18.1546V14.1429H8.45217V16.1429ZM1.50172 16.1429H3.94783V14.1429H1.50172V16.1429ZM4.6 16.4286C4.6 16.1429 4.67672 15.8774 4.81102 15.6477L3.08464 14.638C2.77651 15.1648 2.6 15.7775 2.6 16.4286H4.6ZM4.81102 15.6477C5.08671 15.1764 5.60363 14.8571 6.2 14.8571V12.8571C4.87163 12.8571 3.70806 13.5721 3.08464 14.638L4.81102 15.6477ZM20.2 16.4286C20.2 16.1429 20.2767 15.8774 20.411 15.6477L18.6846 14.638C18.3765 15.1648 18.2 15.7775 18.2 16.4286H20.2ZM20.411 15.6477C20.6867 15.1764 21.2036 14.8571 21.8 14.8571V12.8571C20.4716 12.8571 19.3081 13.5721 18.6846 14.638L20.411 15.6477ZM18.1546 16.1429H19.5478V14.1429H18.1546V16.1429ZM24.0522 16.1429H26.4983V14.1429H24.0522V16.1429ZM21.8 14.8571C22.3964 14.8571 22.9133 15.1764 23.189 15.6477L24.9154 14.638C24.2919 13.5721 23.1284 12.8571 21.8 12.8571V14.8571ZM23.189 15.6477C23.3233 15.8774 23.4 16.1429 23.4 16.4286H25.4C25.4 15.7775 25.2235 15.1648 24.9154 14.638L23.189 15.6477ZM26 10.6617V14.6411H28V10.6617H26ZM27 9.66171H21.8V11.6617H27V9.66171ZM24.6651 5.67694C24.3797 5.3383 23.9595 5.14286 23.5167 5.14286V7.14286C23.3697 7.14286 23.2303 7.07801 23.1356 6.96565L24.6651 5.67694ZM26.4983 16.1429C27.3277 16.1429 28 15.4705 28 14.6411H26C26 14.3659 26.2231 14.1429 26.4983 14.1429V16.1429ZM17.6529 2.00001C17.3777 2.00001 17.1546 1.77692 17.1546 1.50172H19.1546C19.1546 0.672349 18.4822 6.79493e-06 17.6529 6.49691e-06V2.00001ZM3.03984e-06 14.6411C-2.02656e-06 15.4705 0.672338 16.1429 1.50172 16.1429V14.1429C1.77692 14.1429 2 14.366 2 14.6411L3.03984e-06 14.6411ZM26.1172 10.5043C26.0415 10.4144 26 10.3007 26 10.1832H28C28 9.82908 27.8749 9.48636 27.6467 9.21556L26.1172 10.5043ZM2.00008 2.48424C2.00008 2.2168 2.21688 2 2.48432 2L2.48432 5.96046e-07C1.11232 5.96046e-08 8.54135e-05 1.11222 7.70688e-05 2.48422L2.00008 2.48424Z" fill="#003BAA"/>
</svg>
