<svg width="40" height="40" viewBox="0 0 40 40" fill="none" xmlns="http://www.w3.org/2000/svg">
<path fill-rule="evenodd" clip-rule="evenodd" d="M11.8195 0C13.0487 0 14.0435 1.02852 14.0435 2.29949C14.0435 3.57045 13.0487 4.59897 11.8195 4.59897C10.5903 4.59897 9.59555 3.57045 9.59555 2.29949C9.59555 1.0322 10.5903 0 11.8195 0Z" fill="#323366"/>
<path fill-rule="evenodd" clip-rule="evenodd" d="M16.1221 3.80207C17.0387 3.80207 17.7812 4.56979 17.7812 5.5175C17.7812 6.46523 17.0387 7.23292 16.1221 7.23292C15.2055 7.23292 14.463 6.46523 14.463 5.5175C14.463 4.56979 15.2091 3.80207 16.1221 3.80207Z" fill="#323366"/>
<path fill-rule="evenodd" clip-rule="evenodd" d="M18.7824 7.05662C19.4681 7.05662 20.0258 7.63335 20.0258 8.34229C20.0258 9.05124 19.4681 9.62796 18.7824 9.62796C18.0968 9.62796 17.539 9.05124 17.539 8.34229C17.539 7.63335 18.0932 7.05662 18.7824 7.05662Z" fill="#323366"/>
<path fill-rule="evenodd" clip-rule="evenodd" d="M19.8624 9.87016C20.3953 9.87016 20.8252 10.3146 20.8252 10.8656C20.8252 11.4166 20.3953 11.8611 19.8624 11.8611C19.3295 11.8611 18.8997 11.4166 18.8997 10.8656C18.8997 10.3183 19.3295 9.87016 19.8624 9.87016Z" fill="#323366"/>
<path fill-rule="evenodd" clip-rule="evenodd" d="M20.8003 12.1115C21.2051 12.1115 21.5355 12.453 21.5355 12.8716C21.5355 13.2902 21.2051 13.6318 20.8003 13.6318C20.3954 13.6318 20.0651 13.2902 20.0651 12.8716C20.0616 12.453 20.3918 12.1115 20.8003 12.1115Z" fill="#323366"/>
<path fill-rule="evenodd" clip-rule="evenodd" d="M21.4787 14.0429C21.8125 14.0429 22.0824 14.322 22.0824 14.6672C22.0824 15.0124 21.8125 15.2915 21.4787 15.2915C21.1448 15.2915 20.8749 15.0124 20.8749 14.6672C20.8749 14.322 21.1448 14.0429 21.4787 14.0429Z" fill="#323366"/>
<path fill-rule="evenodd" clip-rule="evenodd" d="M21.5681 15.579C21.8344 15.579 22.0511 15.803 22.0511 16.0784C22.0511 16.3538 21.8344 16.5778 21.5681 16.5778C21.3017 16.5778 21.085 16.3538 21.085 16.0784C21.085 15.803 21.3017 15.579 21.5681 15.579Z" fill="#323366"/>
<path fill-rule="evenodd" clip-rule="evenodd" d="M21.5325 16.8355C21.7314 16.8355 21.8948 17.0045 21.8948 17.2101C21.8948 17.4157 21.7314 17.5847 21.5325 17.5847C21.3337 17.5847 21.1703 17.4157 21.1703 17.2101C21.1703 17.0045 21.3337 16.8355 21.5325 16.8355Z" fill="#323366"/>
<path fill-rule="evenodd" clip-rule="evenodd" d="M2.84614 9.37779C4.07536 9.37779 5.0701 10.4063 5.0701 11.6772C5.0701 12.9482 4.07536 13.9768 2.84614 13.9768C1.61692 13.9768 0.622181 12.9482 0.622181 11.6772C0.622181 10.41 1.61692 9.37779 2.84614 9.37779Z" fill="#323366"/>
<path fill-rule="evenodd" clip-rule="evenodd" d="M8.01087 9.53747C8.92746 9.53747 9.66996 10.3052 9.66996 11.2529C9.66996 12.2006 8.92746 12.9683 8.01087 12.9683C7.09427 12.9683 6.35177 12.2006 6.35177 11.2529C6.35177 10.3052 7.09427 9.53747 8.01087 9.53747Z" fill="#323366"/>
<path fill-rule="evenodd" clip-rule="evenodd" d="M11.8265 10.2561C12.5122 10.2561 13.07 10.8327 13.07 11.5417C13.07 12.2506 12.5122 12.8274 11.8265 12.8274C11.1409 12.8274 10.5831 12.2506 10.5831 11.5417C10.5796 10.8327 11.1374 10.2561 11.8265 10.2561Z" fill="#323366"/>
<path fill-rule="evenodd" clip-rule="evenodd" d="M14.7505 11.2997C15.2834 11.2997 15.7133 11.7442 15.7133 12.2952C15.7133 12.8462 15.2834 13.2907 14.7505 13.2907C14.2176 13.2907 13.7877 12.8462 13.7877 12.2952C13.7877 11.7442 14.2176 11.2997 14.7505 11.2997Z" fill="#323366"/>
<path fill-rule="evenodd" clip-rule="evenodd" d="M16.3665 12.8396C16.7714 12.8396 17.1017 13.1811 17.1017 13.5997C17.1017 14.0183 16.7714 14.3599 16.3665 14.3599C15.9616 14.3599 15.6313 14.0183 15.6313 13.5997C15.6313 13.1774 15.9616 12.8396 16.3665 12.8396Z" fill="#323366"/>
<path fill-rule="evenodd" clip-rule="evenodd" d="M17.8766 13.9707C18.2104 13.9707 18.4804 14.2498 18.4804 14.5949C18.4804 14.9401 18.2104 15.2192 17.8766 15.2192C17.5428 15.2192 17.2729 14.9401 17.2729 14.5949C17.2729 14.2498 17.5428 13.9707 17.8766 13.9707Z" fill="#323366"/>
<path fill-rule="evenodd" clip-rule="evenodd" d="M18.8893 14.9991C19.1557 14.9991 19.3724 15.2231 19.3724 15.4986C19.3724 15.774 19.1557 15.998 18.8893 15.998C18.623 15.998 18.4063 15.774 18.4063 15.4986C18.4063 15.2231 18.623 14.9991 18.8893 14.9991Z" fill="#323366"/>
<path fill-rule="evenodd" clip-rule="evenodd" d="M19.6246 15.9801C19.8234 15.9801 19.9868 16.149 19.9868 16.3546C19.9868 16.5603 19.8234 16.7292 19.6246 16.7292C19.4257 16.7292 19.2623 16.5603 19.2623 16.3546C19.2658 16.149 19.4257 15.9801 19.6246 15.9801Z" fill="#323366"/>
<path fill-rule="evenodd" clip-rule="evenodd" d="M2.22396 22.379C3.45317 22.379 4.44792 23.4075 4.44792 24.6785C4.44792 25.9494 3.45317 26.9779 2.22396 26.9779C0.994739 26.9779 0 25.9494 0 24.6785C0 23.4075 0.998296 22.379 2.22396 22.379Z" fill="#323366"/>
<path fill-rule="evenodd" clip-rule="evenodd" d="M5.7342 19.2993C6.65079 19.2993 7.3933 20.067 7.3933 21.0147C7.3933 21.9624 6.65079 22.7301 5.7342 22.7301C4.81764 22.7301 4.07514 21.9624 4.07514 21.0147C4.07514 20.067 4.81764 19.2993 5.7342 19.2993Z" fill="#323366"/>
<path fill-rule="evenodd" clip-rule="evenodd" d="M8.81055 17.3374C9.49626 17.3374 10.054 17.9141 10.054 18.6231C10.054 19.332 9.49626 19.9088 8.81055 19.9088C8.1249 19.9088 7.56712 19.332 7.56712 18.6231C7.56712 17.9141 8.1249 17.3374 8.81055 17.3374Z" fill="#323366"/>
<path fill-rule="evenodd" clip-rule="evenodd" d="M11.4502 16.0903C11.983 16.0903 12.4129 16.5348 12.4129 17.0858C12.4129 17.6368 11.983 18.0813 11.4502 18.0813C10.9173 18.0813 10.4874 17.6368 10.4874 17.0858C10.4909 16.5385 10.9208 16.0903 11.4502 16.0903Z" fill="#323366"/>
<path fill-rule="evenodd" clip-rule="evenodd" d="M13.6671 15.6379C14.072 15.6379 14.4023 15.9794 14.4023 16.398C14.4023 16.8166 14.072 17.1581 13.6671 17.1581C13.2622 17.1581 12.9319 16.8166 12.9319 16.398C12.9319 15.9794 13.2587 15.6379 13.6671 15.6379Z" fill="#323366"/>
<path fill-rule="evenodd" clip-rule="evenodd" d="M15.4182 16.0523C15.752 16.0523 16.0219 16.3315 16.0219 16.6766C16.0219 17.0218 15.752 17.3009 15.4182 17.3009C15.0843 17.3009 14.8144 17.0218 14.8144 16.6766C14.8144 16.3315 15.0879 16.0523 15.4182 16.0523Z" fill="#323366"/>
<path fill-rule="evenodd" clip-rule="evenodd" d="M16.7043 16.3622C16.9706 16.3622 17.1873 16.5862 17.1873 16.8616C17.1873 17.137 16.9706 17.361 16.7043 17.361C16.4379 17.361 16.2213 17.137 16.2213 16.8616C16.2213 16.5825 16.4379 16.3622 16.7043 16.3622Z" fill="#323366"/>
<path fill-rule="evenodd" clip-rule="evenodd" d="M17.8379 16.7158C18.0368 16.7158 18.2002 16.8847 18.2002 17.0903C18.2002 17.296 18.0368 17.4649 17.8379 17.4649C17.639 17.4649 17.4756 17.296 17.4756 17.0903C17.4756 16.8847 17.6354 16.7158 17.8379 16.7158Z" fill="#323366"/>
<path fill-rule="evenodd" clip-rule="evenodd" d="M9.99348 32.7472C11.2227 32.7472 12.2175 33.7757 12.2175 35.0466C12.2175 36.3176 11.2227 37.3462 9.99348 37.3462C8.76428 37.3462 7.76955 36.3176 7.76955 35.0466C7.76955 33.7794 8.76428 32.7472 9.99348 32.7472Z" fill="#323366"/>
<path fill-rule="evenodd" clip-rule="evenodd" d="M10.1075 28.3026C11.0241 28.3026 11.7666 29.0703 11.7666 30.018C11.7666 30.9657 11.0241 31.7334 10.1075 31.7334C9.19095 31.7334 8.44845 30.9657 8.44845 30.018C8.44845 29.074 9.19095 28.3026 10.1075 28.3026Z" fill="#323366"/>
<path fill-rule="evenodd" clip-rule="evenodd" d="M10.846 24.8237C11.5316 24.8237 12.0894 25.4004 12.0894 26.1094C12.0894 26.8183 11.5316 27.395 10.846 27.395C10.1603 27.395 9.60254 26.8183 9.60254 26.1094C9.60254 25.4004 10.1603 24.8237 10.846 24.8237Z" fill="#323366"/>
<path fill-rule="evenodd" clip-rule="evenodd" d="M11.9834 22.0767C12.5163 22.0767 12.9462 22.5212 12.9462 23.0721C12.9462 23.6231 12.5163 24.0676 11.9834 24.0676C11.4505 24.0676 11.0207 23.6231 11.0207 23.0721C11.0207 22.5212 11.4505 22.0767 11.9834 22.0767Z" fill="#323366"/>
<path fill-rule="evenodd" clip-rule="evenodd" d="M13.4821 20.2213C13.887 20.2213 14.2173 20.5628 14.2173 20.9814C14.2173 21.4 13.887 21.7415 13.4821 21.7415C13.0773 21.7415 12.747 21.4 12.747 20.9814C12.747 20.5628 13.0773 20.2213 13.4821 20.2213Z" fill="#323366"/>
<path fill-rule="evenodd" clip-rule="evenodd" d="M14.7437 19.1605C15.0775 19.1605 15.3475 19.4396 15.3475 19.7848C15.3475 20.13 15.0775 20.409 14.7437 20.409C14.4099 20.409 14.1399 20.13 14.1399 19.7848C14.1399 19.4396 14.4099 19.1605 14.7437 19.1605Z" fill="#323366"/>
<path fill-rule="evenodd" clip-rule="evenodd" d="M15.9119 18.7385C16.1783 18.7385 16.3949 18.9625 16.3949 19.2379C16.3949 19.5133 16.1783 19.7373 15.9119 19.7373C15.6456 19.7373 15.4289 19.5133 15.4289 19.2379C15.4289 18.9625 15.6456 18.7385 15.9119 18.7385Z" fill="#323366"/>
<path fill-rule="evenodd" clip-rule="evenodd" d="M16.7435 18.3145C16.9424 18.3145 17.1058 18.4835 17.1058 18.6891C17.1058 18.8947 16.9424 19.0637 16.7435 19.0637C16.5446 19.0637 16.3813 18.8947 16.3813 18.6891C16.3813 18.4835 16.5446 18.3145 16.7435 18.3145Z" fill="#323366"/>
<path fill-rule="evenodd" clip-rule="evenodd" d="M33.2206 29.1618C34.4498 29.1618 35.4446 30.1903 35.4446 31.4613C35.4446 32.7323 34.4498 33.7608 33.2206 33.7608C31.9914 33.7608 30.9967 32.7323 30.9967 31.4613C30.9967 30.1903 31.9914 29.1618 33.2206 29.1618Z" fill="#323366"/>
<path fill-rule="evenodd" clip-rule="evenodd" d="M28.3004 29.063C29.217 29.063 29.9595 29.8307 29.9595 30.7784C29.9595 31.7261 29.217 32.4938 28.3004 32.4938C27.3839 32.4938 26.6414 31.7261 26.6414 30.7784C26.6414 29.8344 27.3839 29.063 28.3004 29.063Z" fill="#323366"/>
<path fill-rule="evenodd" clip-rule="evenodd" d="M24.5735 28.0193C25.2592 28.0193 25.8169 28.596 25.8169 29.305C25.8169 30.0139 25.2592 30.5907 24.5735 30.5907C23.8878 30.5907 23.3301 30.0139 23.3301 29.305C23.3301 28.596 23.8878 28.0193 24.5735 28.0193Z" fill="#323366"/>
<path fill-rule="evenodd" clip-rule="evenodd" d="M21.9375 26.5973C22.4668 26.5973 22.9002 27.0418 22.9002 27.5929C22.9002 28.1439 22.4704 28.5883 21.9375 28.5883C21.4046 28.5883 20.9747 28.1439 20.9747 27.5929C20.9747 27.0418 21.4046 26.5973 21.9375 26.5973Z" fill="#323366"/>
<path fill-rule="evenodd" clip-rule="evenodd" d="M20.2715 25.0955C20.6763 25.0955 21.0067 25.4371 21.0067 25.8557C21.0067 26.2743 20.6763 26.6158 20.2715 26.6158C19.8666 26.6158 19.5363 26.2743 19.5363 25.8557C19.5363 25.4371 19.8666 25.0955 20.2715 25.0955Z" fill="#323366"/>
<path fill-rule="evenodd" clip-rule="evenodd" d="M19.248 23.8351C19.5819 23.8351 19.8518 24.1142 19.8518 24.4594C19.8518 24.8046 19.5819 25.0837 19.248 25.0837C18.9142 25.0837 18.6443 24.8046 18.6443 24.4594C18.6443 24.1142 18.9142 23.8351 19.248 23.8351Z" fill="#323366"/>
<path fill-rule="evenodd" clip-rule="evenodd" d="M18.5518 22.6945C18.8181 22.6945 19.0348 22.9185 19.0348 23.1939C19.0348 23.4694 18.8181 23.6933 18.5518 23.6933C18.2855 23.6933 18.0688 23.4694 18.0688 23.1939C18.0688 22.9185 18.2855 22.6945 18.5518 22.6945Z" fill="#323366"/>
<path fill-rule="evenodd" clip-rule="evenodd" d="M18.2888 21.628C18.4877 21.628 18.6511 21.797 18.6511 22.0026C18.6511 22.2083 18.4877 22.3772 18.2888 22.3772C18.0899 22.3772 17.9266 22.2083 17.9266 22.0026C17.9266 21.797 18.0899 21.628 18.2888 21.628Z" fill="#323366"/>
<path fill-rule="evenodd" clip-rule="evenodd" d="M22.2854 35.401C23.5147 35.401 24.5094 36.4296 24.5094 37.7005C24.5094 38.9715 23.5147 40 22.2854 40C21.0562 40 20.0615 38.9715 20.0615 37.7005C20.0615 36.4296 21.0562 35.401 22.2854 35.401Z" fill="#323366"/>
<path fill-rule="evenodd" clip-rule="evenodd" d="M19.1557 32.1255C20.0722 32.1255 20.8147 32.8933 20.8147 33.841C20.8147 34.7887 20.0722 35.5564 19.1557 35.5564C18.2391 35.5564 17.4966 34.7887 17.4966 33.841C17.4966 32.8933 18.2391 32.1255 19.1557 32.1255Z" fill="#323366"/>
<path fill-rule="evenodd" clip-rule="evenodd" d="M17.1846 28.9984C17.8703 28.9984 18.428 29.5751 18.428 30.284C18.428 30.993 17.8703 31.5697 17.1846 31.5697C16.4989 31.5697 15.9411 30.993 15.9411 30.284C15.9411 29.5751 16.4954 28.9984 17.1846 28.9984Z" fill="#323366"/>
<path fill-rule="evenodd" clip-rule="evenodd" d="M16.204 26.1677C16.7369 26.1677 17.1667 26.6122 17.1667 27.1632C17.1667 27.7142 16.7369 28.1587 16.204 28.1587C15.6711 28.1587 15.2412 27.7142 15.2412 27.1632C15.2448 26.6122 15.6746 26.1677 16.204 26.1677Z" fill="#323366"/>
<path fill-rule="evenodd" clip-rule="evenodd" d="M16.0115 23.9245C16.4164 23.9245 16.7467 24.266 16.7467 24.6846C16.7467 25.1032 16.4164 25.4448 16.0115 25.4448C15.6066 25.4448 15.2764 25.1032 15.2764 24.6846C15.2728 24.266 15.6031 23.9245 16.0115 23.9245Z" fill="#323366"/>
<path fill-rule="evenodd" clip-rule="evenodd" d="M16.079 22.2972C16.4129 22.2972 16.6828 22.5763 16.6828 22.9215C16.6828 23.2667 16.4129 23.5457 16.079 23.5457C15.7452 23.5457 15.4753 23.2667 15.4753 22.9215C15.4753 22.5763 15.7487 22.2972 16.079 22.2972Z" fill="#323366"/>
<path fill-rule="evenodd" clip-rule="evenodd" d="M16.4206 21.1566C16.687 21.1566 16.9036 21.3806 16.9036 21.656C16.9036 21.9314 16.687 22.1554 16.4206 22.1554C16.1543 22.1554 15.9376 21.9314 15.9376 21.656C15.9412 21.3806 16.1543 21.1566 16.4206 21.1566Z" fill="#323366"/>
<path fill-rule="evenodd" clip-rule="evenodd" d="M17.0849 20.3829C17.2838 20.3829 17.4471 20.5518 17.4471 20.7574C17.4471 20.9631 17.2838 21.132 17.0849 21.132C16.886 21.132 16.7227 20.9631 16.7227 20.7574C16.7227 20.5518 16.8825 20.3829 17.0849 20.3829Z" fill="#323366"/>
<path fill-rule="evenodd" clip-rule="evenodd" d="M35.7788 23.4211C36.9298 22.973 38.2124 23.5717 38.6458 24.7619C39.0792 25.952 38.5002 27.2781 37.3491 27.7262C36.198 28.1744 34.9155 27.5756 34.4821 26.3855C34.0486 25.1953 34.6278 23.8692 35.7788 23.4211Z" fill="#888989"/>
<path fill-rule="evenodd" clip-rule="evenodd" d="M31.1423 25.1264C31.9985 24.7921 32.9577 25.2403 33.281 26.1256C33.6043 27.0108 33.1709 28.0027 32.3146 28.3369C31.4585 28.6711 30.4993 28.223 30.176 27.3378C29.8527 26.4488 30.2861 25.4607 31.1423 25.1264Z" fill="#888989"/>
<path fill-rule="evenodd" clip-rule="evenodd" d="M27.299 25.5091C27.942 25.2593 28.6597 25.5936 28.9013 26.2585C29.1428 26.9234 28.8195 27.6653 28.1765 27.9151C27.5335 28.1649 26.8158 27.8306 26.5743 27.1657C26.3327 26.5009 26.656 25.7589 27.299 25.5091Z" fill="#888989"/>
<path fill-rule="evenodd" clip-rule="evenodd" d="M24.3463 25.1373C24.8436 24.9426 25.3979 25.2034 25.5861 25.7176C25.7745 26.2319 25.5222 26.805 25.0248 26.9997C24.5275 27.1943 23.9733 26.9335 23.785 26.4193C23.5967 25.905 23.8489 25.3319 24.3463 25.1373Z" fill="#888989"/>
<path fill-rule="evenodd" clip-rule="evenodd" d="M22.2745 24.3398C22.6545 24.1929 23.0807 24.3913 23.2228 24.7842C23.3648 25.1771 23.173 25.6177 22.793 25.7646C22.413 25.9115 21.9869 25.7132 21.8448 25.3203C21.7027 24.9274 21.8945 24.4904 22.2745 24.3398Z" fill="#888989"/>
<path fill-rule="evenodd" clip-rule="evenodd" d="M20.8893 23.5389C21.2019 23.4177 21.5499 23.5793 21.6671 23.9024C21.7843 24.2256 21.6281 24.5854 21.3155 24.7066C21.003 24.8278 20.655 24.6662 20.5377 24.3431C20.4205 24.0199 20.5768 23.66 20.8893 23.5389Z" fill="#888989"/>
<path fill-rule="evenodd" clip-rule="evenodd" d="M19.8491 22.7203C20.0977 22.6249 20.3783 22.7534 20.4707 23.0104C20.5665 23.2675 20.4387 23.5576 20.19 23.6531C19.9414 23.7522 19.6609 23.62 19.5685 23.363C19.4727 23.1059 19.597 22.8195 19.8491 22.7203Z" fill="#888989"/>
<path fill-rule="evenodd" clip-rule="evenodd" d="M19.2378 21.8196C19.426 21.7462 19.632 21.8453 19.703 22.0363C19.774 22.2309 19.6781 22.4439 19.4935 22.5174C19.3053 22.5908 19.0993 22.4916 19.0282 22.3007C18.9572 22.1097 19.0531 21.8931 19.2378 21.8196Z" fill="#888989"/>
<path fill-rule="evenodd" clip-rule="evenodd" d="M24.4457 31.7885C25.4013 31.5571 26.3605 32.1705 26.5844 33.1586C26.8082 34.1467 26.2149 35.1385 25.2592 35.3699C24.3036 35.6014 23.3444 34.9879 23.1205 33.9998C22.8932 33.008 23.49 32.0199 24.4457 31.7885Z" fill="#888989"/>
<path fill-rule="evenodd" clip-rule="evenodd" d="M21.4296 29.8274C22.1438 29.6548 22.8578 30.114 23.0248 30.8486C23.1918 31.5869 22.7477 32.3253 22.0372 32.4979C21.3231 32.6705 20.609 32.2114 20.442 31.4768C20.2751 30.7384 20.7156 30.0001 21.4296 29.8274Z" fill="#888989"/>
<path fill-rule="evenodd" clip-rule="evenodd" d="M19.3407 27.7631C19.8772 27.6346 20.4101 27.9762 20.538 28.5309C20.6623 29.0855 20.3319 29.6365 19.7955 29.7688C19.2591 29.8973 18.7262 29.5557 18.5982 29.001C18.4739 28.4464 18.8043 27.8917 19.3407 27.7631Z" fill="#888989"/>
<path fill-rule="evenodd" clip-rule="evenodd" d="M18.079 25.7475C18.4946 25.6483 18.9066 25.9128 19.0025 26.3387C19.0983 26.7647 18.8426 27.1943 18.4307 27.2935C18.0186 27.3926 17.6031 27.1282 17.5072 26.7022C17.4078 26.2763 17.6671 25.8467 18.079 25.7475Z" fill="#888989"/>
<path fill-rule="evenodd" clip-rule="evenodd" d="M17.5321 24.0341C17.8481 23.9569 18.1643 24.1589 18.2388 24.4894C18.3134 24.8162 18.1181 25.143 17.7985 25.2201C17.4824 25.2973 17.1663 25.0953 17.0917 24.7648C17.0171 24.438 17.216 24.1111 17.5321 24.0341Z" fill="#888989"/>
<path fill-rule="evenodd" clip-rule="evenodd" d="M17.2982 22.7533C17.5574 22.6909 17.8167 22.8561 17.8771 23.1242C17.9374 23.3923 17.7776 23.6603 17.5183 23.7227C17.2591 23.7852 16.9998 23.6199 16.9395 23.3519C16.8791 23.0875 17.0389 22.8194 17.2982 22.7533Z" fill="#888989"/>
<path fill-rule="evenodd" clip-rule="evenodd" d="M17.3616 21.7986C17.5676 21.7472 17.7771 21.8831 17.8268 22.0961C17.8766 22.3091 17.7452 22.5257 17.5392 22.5771C17.3332 22.6285 17.1236 22.4927 17.0739 22.2797C17.0278 22.0667 17.1556 21.85 17.3616 21.7986Z" fill="#888989"/>
<path fill-rule="evenodd" clip-rule="evenodd" d="M17.7417 21.073C17.8979 21.0362 18.0542 21.1354 18.0897 21.297C18.1252 21.4585 18.0293 21.6201 17.8731 21.6568C17.7168 21.6935 17.5606 21.5944 17.5251 21.4329C17.4895 21.2713 17.5854 21.1097 17.7417 21.073Z" fill="#888989"/>
<path fill-rule="evenodd" clip-rule="evenodd" d="M13.8946 31.8105C14.8574 31.6048 15.7988 32.2439 15.9977 33.2357C16.1967 34.2312 15.5785 35.2046 14.6193 35.414C13.6566 35.6197 12.7151 34.9805 12.5126 33.9887C12.3172 32.9896 12.9353 32.0162 13.8946 31.8105Z" fill="#888989"/>
<path fill-rule="evenodd" clip-rule="evenodd" d="M13.2869 28.3087C14.0045 28.1544 14.7079 28.632 14.8571 29.374C15.0064 30.116 14.5445 30.8433 13.8268 30.9976C13.1092 31.1519 12.4058 30.6744 12.2566 29.9323C12.1074 29.1903 12.5692 28.463 13.2869 28.3087Z" fill="#888989"/>
<path fill-rule="evenodd" clip-rule="evenodd" d="M13.3156 25.4608C13.8521 25.3469 14.3814 25.7033 14.4916 26.2579C14.6052 26.8126 14.2571 27.3599 13.7206 27.4738C13.1806 27.5876 12.6548 27.2314 12.5447 26.6767C12.4345 26.122 12.7792 25.5747 13.3156 25.4608Z" fill="#888989"/>
<path fill-rule="evenodd" clip-rule="evenodd" d="M13.7731 23.1121C14.1887 23.0239 14.5971 23.2994 14.6823 23.729C14.7676 24.1586 14.5012 24.5809 14.0857 24.6691C13.6701 24.7572 13.2617 24.4818 13.1765 24.0521C13.0877 23.6261 13.354 23.2039 13.7731 23.1121Z" fill="#888989"/>
<path fill-rule="evenodd" clip-rule="evenodd" d="M14.6582 21.4094C14.9778 21.3396 15.2868 21.5526 15.3542 21.8831C15.4217 22.2136 15.2157 22.533 14.8961 22.6028C14.5765 22.6726 14.2675 22.4596 14.2 22.1328C14.1326 21.8023 14.3385 21.4791 14.6582 21.4094Z" fill="#888989"/>
<path fill-rule="evenodd" clip-rule="evenodd" d="M15.4754 20.3646C15.7347 20.3095 15.9904 20.4821 16.0472 20.7502C16.1005 21.0182 15.9336 21.2826 15.6743 21.3414C15.415 21.3965 15.1593 21.2239 15.1025 20.9558C15.0456 20.6841 15.2126 20.4197 15.4754 20.3646Z" fill="#888989"/>
<path fill-rule="evenodd" clip-rule="evenodd" d="M16.3247 19.8359C16.5342 19.7919 16.7367 19.9314 16.7829 20.1443C16.8255 20.361 16.6941 20.5703 16.4845 20.618C16.275 20.6622 16.0726 20.5226 16.0264 20.3096C15.9838 20.093 16.1152 19.8836 16.3247 19.8359Z" fill="#888989"/>
<path fill-rule="evenodd" clip-rule="evenodd" d="M16.9105 19.3701C17.0667 19.3371 17.2194 19.4399 17.2514 19.6014C17.2833 19.763 17.1839 19.9209 17.0276 19.9539C16.8714 19.987 16.7187 19.8842 16.6867 19.7226C16.6512 19.5611 16.7542 19.4031 16.9105 19.3701Z" fill="#888989"/>
<path fill-rule="evenodd" clip-rule="evenodd" d="M6.23174 25.1846C7.18385 24.9311 8.15371 25.5225 8.39882 26.507C8.64399 27.4914 8.06846 28.4943 7.11988 28.7477C6.16778 29.0012 5.1979 28.4061 4.95277 27.4253C4.70408 26.4409 5.27961 25.438 6.23174 25.1846Z" fill="#888989"/>
<path fill-rule="evenodd" clip-rule="evenodd" d="M8.35602 22.0761C9.06654 21.8887 9.78771 22.3295 9.97249 23.0642C10.1536 23.7989 9.72732 24.5445 9.0168 24.7355C8.30628 24.9229 7.58511 24.4821 7.40033 23.7474C7.2156 23.0128 7.6455 22.2634 8.35602 22.0761Z" fill="#888989"/>
<path fill-rule="evenodd" clip-rule="evenodd" d="M10.363 19.9237C10.8959 19.7804 11.4394 20.1147 11.5744 20.6656C11.713 21.2167 11.3897 21.7787 10.8568 21.9183C10.3239 22.0615 9.78031 21.7273 9.64532 21.1763C9.51032 20.6252 9.83005 20.0633 10.363 19.9237Z" fill="#888989"/>
<path fill-rule="evenodd" clip-rule="evenodd" d="M12.1678 18.4142C12.5797 18.304 12.9988 18.5611 13.1054 18.9871C13.2119 19.413 12.9633 19.8464 12.5513 19.9565C12.1393 20.0667 11.7203 19.8096 11.6137 19.3836C11.5072 18.9577 11.7558 18.5207 12.1678 18.4142Z" fill="#888989"/>
<path fill-rule="evenodd" clip-rule="evenodd" d="M13.7949 17.6078C14.111 17.5234 14.4306 17.7217 14.5123 18.0448C14.594 18.3717 14.4022 18.7021 14.0897 18.7866C13.7736 18.8711 13.454 18.6728 13.3723 18.3496C13.2906 18.0228 13.4824 17.6923 13.7949 17.6078Z" fill="#888989"/>
<path fill-rule="evenodd" clip-rule="evenodd" d="M15.2334 17.5666C15.4927 17.4968 15.7555 17.6584 15.8194 17.9264C15.8869 18.1945 15.7306 18.4662 15.4713 18.5324C15.2121 18.6021 14.9493 18.4405 14.8853 18.1725C14.8214 17.9081 14.9777 17.6363 15.2334 17.5666Z" fill="#888989"/>
<path fill-rule="evenodd" clip-rule="evenodd" d="M16.2891 17.5403C16.4951 17.4852 16.7046 17.6137 16.7579 17.8267C16.8112 18.0397 16.6868 18.2563 16.4809 18.3114C16.2749 18.3665 16.0654 18.238 16.0121 18.025C15.9588 17.812 16.0831 17.5954 16.2891 17.5403Z" fill="#888989"/>
<path fill-rule="evenodd" clip-rule="evenodd" d="M17.2338 17.5843C17.39 17.5439 17.5463 17.6394 17.5853 17.801C17.6244 17.9626 17.5321 18.1241 17.3758 18.1645C17.2195 18.2049 17.0633 18.1094 17.0242 17.9478C16.9887 17.7863 17.0811 17.6247 17.2338 17.5843Z" fill="#888989"/>
<path fill-rule="evenodd" clip-rule="evenodd" d="M4.17089 14.4995C5.12656 14.2572 6.08934 14.8595 6.32381 15.8477C6.55827 16.8358 5.97563 17.8312 5.01997 18.0737C4.06431 18.3161 3.10154 17.7137 2.86707 16.7256C2.63259 15.7375 3.21878 14.742 4.17089 14.4995Z" fill="#888989"/>
<path fill-rule="evenodd" clip-rule="evenodd" d="M8.21339 13.5979C8.92391 13.4179 9.64513 13.8661 9.81922 14.6044C9.99325 15.339 9.55982 16.0847 8.84577 16.2647C8.13525 16.4447 7.41403 15.9966 7.24 15.2582C7.06591 14.5236 7.50286 13.7779 8.21339 13.5979Z" fill="#888989"/>
<path fill-rule="evenodd" clip-rule="evenodd" d="M11.3078 13.4076C11.8407 13.2717 12.3808 13.6097 12.5122 14.1606C12.6436 14.7116 12.3168 15.27 11.7839 15.4059C11.251 15.5418 10.711 15.2038 10.5796 14.6529C10.4481 14.0982 10.775 13.5436 11.3078 13.4076Z" fill="#888989"/>
<path fill-rule="evenodd" clip-rule="evenodd" d="M13.7731 13.6388C14.1851 13.5323 14.6006 13.7967 14.7036 14.2226C14.8066 14.6486 14.5509 15.0783 14.139 15.1848C13.727 15.2912 13.3114 15.0268 13.2084 14.6009C13.109 14.1749 13.3612 13.7453 13.7731 13.6388Z" fill="#888989"/>
<path fill-rule="evenodd" clip-rule="evenodd" d="M15.3156 14.517C15.6317 14.4362 15.9513 14.6381 16.0259 14.9613C16.1041 15.2881 15.9087 15.6186 15.5962 15.6957C15.2801 15.7765 14.9605 15.5746 14.8859 15.2514C14.8042 14.9246 14.9996 14.5977 15.3156 14.517Z" fill="#888989"/>
<path fill-rule="evenodd" clip-rule="evenodd" d="M16.6939 15.0974C16.9531 15.0312 17.2124 15.1965 17.2763 15.4645C17.3403 15.7326 17.1804 16.0007 16.9212 16.0667C16.6619 16.1329 16.4027 15.9676 16.3387 15.6996C16.2783 15.4315 16.4382 15.1634 16.6939 15.0974Z" fill="#888989"/>
<path fill-rule="evenodd" clip-rule="evenodd" d="M17.674 15.6967C17.88 15.6453 18.0895 15.7738 18.1393 15.9905C18.189 16.2034 18.0647 16.4201 17.8552 16.4715C17.6492 16.5229 17.4396 16.3944 17.3899 16.1777C17.3402 15.9648 17.4645 15.7518 17.674 15.6967Z" fill="#888989"/>
<path fill-rule="evenodd" clip-rule="evenodd" d="M18.4273 16.3161C18.5836 16.2757 18.7399 16.3748 18.7789 16.5364C18.818 16.6979 18.7221 16.8595 18.5659 16.8999C18.4096 16.9403 18.2533 16.8411 18.2143 16.6796C18.1752 16.5144 18.2711 16.3528 18.4273 16.3161Z" fill="#888989"/>
<path fill-rule="evenodd" clip-rule="evenodd" d="M9.56028 5.56532C10.5089 5.2935 11.4894 5.8665 11.7523 6.84732C12.0152 7.82809 11.461 8.84188 10.5124 9.11375C9.56386 9.38557 8.5833 8.81251 8.32043 7.83174C8.05751 6.85098 8.61176 5.83713 9.56028 5.56532Z" fill="#888989"/>
<path fill-rule="evenodd" clip-rule="evenodd" d="M13.6638 7.54213C14.3707 7.34013 15.1026 7.76623 15.298 8.49718C15.4934 9.22818 15.0813 9.98489 14.3743 10.1869C13.6673 10.3889 12.9354 9.96283 12.7401 9.23183C12.5447 8.50089 12.9568 7.74417 13.6638 7.54213Z" fill="#888989"/>
<path fill-rule="evenodd" clip-rule="evenodd" d="M16.3883 9.46254C16.9176 9.31198 17.4683 9.63151 17.6139 10.1789C17.7596 10.7262 17.4505 11.2956 16.9212 11.4461C16.3918 11.5967 15.8411 11.2772 15.6955 10.7299C15.5463 10.1825 15.8589 9.61317 16.3883 9.46254Z" fill="#888989"/>
<path fill-rule="evenodd" clip-rule="evenodd" d="M17.8021 11.3937C18.2104 11.2762 18.6366 11.5222 18.7503 11.9482C18.8639 12.3705 18.6224 12.8111 18.214 12.9286C17.8056 13.0462 17.3794 12.8001 17.2658 12.3741C17.1521 11.9482 17.3936 11.5112 17.8021 11.3937Z" fill="#888989"/>
<path fill-rule="evenodd" clip-rule="evenodd" d="M18.9888 12.9165C19.3013 12.8283 19.6281 13.0156 19.7133 13.3387C19.7985 13.6619 19.6174 13.9997 19.3049 14.0878C18.9924 14.176 18.6656 13.9887 18.5804 13.6656C18.4916 13.3424 18.6763 13.0046 18.9888 12.9165Z" fill="#888989"/>
<path fill-rule="evenodd" clip-rule="evenodd" d="M19.9122 14.2532C20.1679 14.1797 20.4343 14.334 20.5053 14.6021C20.5763 14.8665 20.4272 15.1419 20.1679 15.2153C19.9122 15.2887 19.6459 15.1345 19.5748 14.8665C19.5038 14.6021 19.653 14.3266 19.9122 14.2532Z" fill="#888989"/>
<path fill-rule="evenodd" clip-rule="evenodd" d="M20.2995 15.4167C20.5056 15.3579 20.7186 15.4828 20.7754 15.6958C20.8323 15.9088 20.7115 16.129 20.5056 16.1878C20.2995 16.2466 20.0865 16.1217 20.0296 15.9088C19.9728 15.6958 20.0936 15.4754 20.2995 15.4167Z" fill="#888989"/>
<path fill-rule="evenodd" clip-rule="evenodd" d="M20.5309 16.3903C20.6836 16.3462 20.8434 16.438 20.8861 16.5996C20.9286 16.7575 20.8399 16.9228 20.6836 16.9668C20.5309 17.0109 20.3711 16.9191 20.3285 16.7575C20.2858 16.5996 20.3782 16.438 20.5309 16.3903Z" fill="#888989"/>
<path fill-rule="evenodd" clip-rule="evenodd" d="M19.9697 2.04268C20.9253 1.80758 21.8845 2.41735 22.1119 3.40547C22.3393 4.39359 21.7495 5.38538 20.7939 5.62046C19.8382 5.85559 18.879 5.2458 18.6516 4.25768C18.4207 3.26956 19.014 2.27777 19.9697 2.04268Z" fill="#878787"/>
<path fill-rule="evenodd" clip-rule="evenodd" d="M22.208 6.34744C22.9221 6.1711 23.6362 6.62663 23.8067 7.36495C23.9772 8.10326 23.5367 8.84163 22.8226 9.01791C22.1085 9.19425 21.3945 8.73878 21.2239 8.00041C21.0534 7.26209 21.494 6.52378 22.208 6.34744Z" fill="#878787"/>
<path fill-rule="evenodd" clip-rule="evenodd" d="M22.737 9.46515C23.2735 9.33293 23.8099 9.67451 23.9378 10.2292C24.0658 10.7802 23.7353 11.3385 23.1989 11.4708C22.6624 11.603 22.126 11.2614 21.9981 10.7067C21.8738 10.152 22.2042 9.59737 22.737 9.46515Z" fill="#878787"/>
<path fill-rule="evenodd" clip-rule="evenodd" d="M22.7973 12.0595C23.2094 11.9567 23.6249 12.2211 23.7243 12.6471C23.8238 13.073 23.568 13.5027 23.156 13.6055C22.7441 13.7083 22.3286 13.4439 22.2291 13.018C22.1297 12.592 22.3854 12.1623 22.7973 12.0595Z" fill="#878787"/>
<path fill-rule="evenodd" clip-rule="evenodd" d="M23.0036 14.1715C23.3197 14.0944 23.6358 14.2964 23.7139 14.6232C23.7885 14.95 23.5932 15.2768 23.2771 15.3576C22.961 15.4347 22.6449 15.2328 22.5668 14.9059C22.4922 14.5791 22.6875 14.2523 23.0036 14.1715Z" fill="#878787"/>
<path fill-rule="evenodd" clip-rule="evenodd" d="M22.8505 15.7328C23.1097 15.6704 23.369 15.8357 23.4329 16.1037C23.4933 16.3718 23.3335 16.6399 23.0742 16.706C22.815 16.7684 22.5557 16.6031 22.4918 16.3351C22.4314 16.067 22.5912 15.7989 22.8505 15.7328Z" fill="#878787"/>
<path fill-rule="evenodd" clip-rule="evenodd" d="M22.4561 16.9341C22.6621 16.8827 22.8716 17.0149 22.9213 17.2315C22.9711 17.4445 22.8432 17.6612 22.6337 17.7125C22.4277 17.764 22.2181 17.6318 22.1684 17.4151C22.1222 17.2022 22.2501 16.9855 22.4561 16.9341Z" fill="#878787"/>
<path fill-rule="evenodd" clip-rule="evenodd" d="M22.019 17.7861C22.1753 17.7494 22.3316 17.8485 22.3671 18.0064C22.4026 18.168 22.3067 18.3296 22.154 18.3663C21.9977 18.403 21.8414 18.3039 21.8059 18.146C21.7669 17.9844 21.8627 17.8228 22.019 17.7861Z" fill="#878787"/>
<path fill-rule="evenodd" clip-rule="evenodd" d="M37.8459 17.3234C39.0751 17.3638 40.0379 18.4254 39.9989 19.6927C39.9598 20.9637 38.933 21.9591 37.7038 21.9187C36.4746 21.8783 35.5118 20.8168 35.5509 19.5458C35.5936 18.2785 36.6203 17.283 37.8459 17.3234Z" fill="#323366"/>
<path fill-rule="evenodd" clip-rule="evenodd" d="M33.4088 20.7297C34.3254 20.7591 35.0431 21.5525 35.0146 22.4965C34.9862 23.4443 34.2188 24.1863 33.3058 24.1569C32.3892 24.1275 31.6716 23.3341 31.7 22.39C31.7284 21.4423 32.4923 20.7003 33.4088 20.7297Z" fill="#323366"/>
<path fill-rule="evenodd" clip-rule="evenodd" d="M29.5719 22.3893C30.2576 22.4114 30.7976 23.0064 30.7763 23.7154C30.755 24.4243 30.1795 24.9827 29.4938 24.9607C28.8082 24.9386 28.2681 24.3435 28.2895 23.6346C28.3108 22.922 28.8828 22.3636 29.5719 22.3893Z" fill="#323366"/>
<path fill-rule="evenodd" clip-rule="evenodd" d="M26.4994 22.9688C27.0288 22.9872 27.448 23.4464 27.4302 23.9937C27.4124 24.541 26.9684 24.9745 26.4391 24.9561C25.9097 24.9377 25.4905 24.4786 25.5082 23.9313C25.526 23.3839 25.9701 22.9505 26.4994 22.9688Z" fill="#323366"/>
<path fill-rule="evenodd" clip-rule="evenodd" d="M24.2926 22.9952C24.6974 23.0098 25.0171 23.3587 25.0064 23.781C24.9922 24.1996 24.6548 24.5301 24.2464 24.5191C23.8415 24.5044 23.5219 24.1556 23.5325 23.7333C23.5467 23.311 23.8877 22.9842 24.2926 22.9952Z" fill="#323366"/>
<path fill-rule="evenodd" clip-rule="evenodd" d="M22.5554 22.7348C22.8893 22.7458 23.1486 23.0322 23.1379 23.3774C23.1273 23.7226 22.8502 23.9906 22.5164 23.9796C22.1826 23.9686 21.9233 23.6822 21.9339 23.337C21.9446 22.9955 22.2216 22.7237 22.5554 22.7348Z" fill="#323366"/>
<path fill-rule="evenodd" clip-rule="evenodd" d="M21.1916 22.309C21.4579 22.3164 21.6675 22.5477 21.6568 22.8231C21.6497 23.0985 21.426 23.3152 21.1596 23.3078C20.8932 23.3005 20.6837 23.0692 20.6908 22.7937C20.705 22.5147 20.9252 22.298 21.1916 22.309Z" fill="#323366"/>
<path fill-rule="evenodd" clip-rule="evenodd" d="M20.3847 21.6663C20.5836 21.6737 20.7399 21.8462 20.7363 22.0519C20.7292 22.2575 20.5623 22.4191 20.3634 22.4154C20.1646 22.4081 20.0083 22.2355 20.0118 22.0299C20.0154 21.8206 20.1823 21.659 20.3847 21.6663Z" fill="#323366"/>
<path d="M25.4263 18.5897H27.7497V15.0964H29.5438L31.8388 18.5897H34.5566L31.9774 14.6886C33.3203 14.1744 34.2404 13.065 34.2404 11.3018C34.2404 10.2403 33.9242 9.38436 33.3345 8.77461C32.6417 8.05835 31.6008 7.66528 30.2579 7.66528H25.4263V18.5897ZM27.7497 12.9732V9.83623H30.0589C31.1922 9.83623 31.885 10.3652 31.885 11.3974C31.885 12.3488 31.2348 12.9732 30.1051 12.9732H27.7497Z" fill="#323366"/>
</svg>
