<svg width="160" height="55" viewBox="0 0 160 55" fill="none" xmlns="http://www.w3.org/2000/svg">
<path fill-rule="evenodd" clip-rule="evenodd" d="M16.8812 0C18.6368 0 20.0576 1.41422 20.0576 3.1618C20.0576 4.90937 18.6368 6.32359 16.8812 6.32359C15.1256 6.32359 13.7048 4.90937 13.7048 3.1618C13.7048 1.41927 15.1256 0 16.8812 0Z" fill="#323366"/>
<path fill-rule="evenodd" clip-rule="evenodd" d="M23.0264 5.22784C24.3355 5.22784 25.3959 6.28346 25.3959 7.58656C25.3959 8.8897 24.3355 9.94526 23.0264 9.94526C21.7173 9.94526 20.6568 8.8897 20.6568 7.58656C20.6568 6.28346 21.7223 5.22784 23.0264 5.22784Z" fill="#323366"/>
<path fill-rule="evenodd" clip-rule="evenodd" d="M26.826 9.70286C27.8052 9.70286 28.6019 10.4959 28.6019 11.4706C28.6019 12.4454 27.8052 13.2384 26.826 13.2384C25.8467 13.2384 25.05 12.4454 25.05 11.4706C25.05 10.4959 25.8416 9.70286 26.826 9.70286Z" fill="#323366"/>
<path fill-rule="evenodd" clip-rule="evenodd" d="M28.3685 13.5715C29.1296 13.5715 29.7435 14.1826 29.7435 14.9402C29.7435 15.6978 29.1296 16.3089 28.3685 16.3089C27.6074 16.3089 26.9935 15.6978 26.9935 14.9402C26.9935 14.1876 27.6074 13.5715 28.3685 13.5715Z" fill="#323366"/>
<path fill-rule="evenodd" clip-rule="evenodd" d="M29.708 16.6533C30.2862 16.6533 30.758 17.1229 30.758 17.6985C30.758 18.2741 30.2862 18.7437 29.708 18.7437C29.1297 18.7437 28.658 18.2741 28.658 17.6985C28.6529 17.1229 29.1246 16.6533 29.708 16.6533Z" fill="#323366"/>
<path fill-rule="evenodd" clip-rule="evenodd" d="M30.6769 19.309C31.1537 19.309 31.5392 19.6928 31.5392 20.1674C31.5392 20.642 31.1537 21.0257 30.6769 21.0257C30.2001 21.0257 29.8145 20.642 29.8145 20.1674C29.8145 19.6928 30.2001 19.309 30.6769 19.309Z" fill="#323366"/>
<path fill-rule="evenodd" clip-rule="evenodd" d="M30.8046 21.4211C31.185 21.4211 31.4944 21.7291 31.4944 22.1078C31.4944 22.4865 31.185 22.7945 30.8046 22.7945C30.4241 22.7945 30.1146 22.4865 30.1146 22.1078C30.1146 21.7291 30.4241 21.4211 30.8046 21.4211Z" fill="#323366"/>
<path fill-rule="evenodd" clip-rule="evenodd" d="M30.7538 23.1489C31.0378 23.1489 31.2712 23.3812 31.2712 23.6639C31.2712 23.9467 31.0378 24.1789 30.7538 24.1789C30.4698 24.1789 30.2364 23.9467 30.2364 23.6639C30.2364 23.3812 30.4698 23.1489 30.7538 23.1489Z" fill="#323366"/>
<path fill-rule="evenodd" clip-rule="evenodd" d="M4.065 12.8945C5.82062 12.8945 7.24136 14.3087 7.24136 16.0562C7.24136 17.8038 5.82062 19.218 4.065 19.218C2.30937 19.218 0.888629 17.8038 0.888629 16.0562C0.888629 14.3137 2.30937 12.8945 4.065 12.8945Z" fill="#323366"/>
<path fill-rule="evenodd" clip-rule="evenodd" d="M11.4415 13.114C12.7506 13.114 13.8111 14.1696 13.8111 15.4727C13.8111 16.7758 12.7506 17.8314 11.4415 17.8314C10.1324 17.8314 9.0719 16.7758 9.0719 15.4727C9.0719 14.1696 10.1324 13.114 11.4415 13.114Z" fill="#323366"/>
<path fill-rule="evenodd" clip-rule="evenodd" d="M16.8912 14.1021C17.8706 14.1021 18.6672 14.895 18.6672 15.8698C18.6672 16.8446 17.8706 17.6376 16.8912 17.6376C15.912 17.6376 15.1153 16.8446 15.1153 15.8698C15.1103 14.895 15.9069 14.1021 16.8912 14.1021Z" fill="#323366"/>
<path fill-rule="evenodd" clip-rule="evenodd" d="M21.0674 15.5371C21.8285 15.5371 22.4425 16.1483 22.4425 16.906C22.4425 17.6635 21.8285 18.2747 21.0674 18.2747C20.3063 18.2747 19.6923 17.6635 19.6923 16.906C19.6923 16.1483 20.3063 15.5371 21.0674 15.5371Z" fill="#323366"/>
<path fill-rule="evenodd" clip-rule="evenodd" d="M23.3754 17.6544C23.9537 17.6544 24.4254 18.124 24.4254 18.6996C24.4254 19.2752 23.9537 19.7448 23.3754 19.7448C22.7972 19.7448 22.3254 19.2752 22.3254 18.6996C22.3254 18.1189 22.7972 17.6544 23.3754 17.6544Z" fill="#323366"/>
<path fill-rule="evenodd" clip-rule="evenodd" d="M25.5322 19.2097C26.009 19.2097 26.3946 19.5934 26.3946 20.0681C26.3946 20.5427 26.009 20.9264 25.5322 20.9264C25.0554 20.9264 24.6699 20.5427 24.6699 20.0681C24.6699 19.5934 25.0554 19.2097 25.5322 19.2097Z" fill="#323366"/>
<path fill-rule="evenodd" clip-rule="evenodd" d="M26.9787 20.6238C27.3591 20.6238 27.6686 20.9318 27.6686 21.3105C27.6686 21.6892 27.3591 21.9972 26.9787 21.9972C26.5983 21.9972 26.2888 21.6892 26.2888 21.3105C26.2888 20.9318 26.5983 20.6238 26.9787 20.6238Z" fill="#323366"/>
<path fill-rule="evenodd" clip-rule="evenodd" d="M28.0287 21.9726C28.3127 21.9726 28.5461 22.2049 28.5461 22.4876C28.5461 22.7704 28.3127 23.0026 28.0287 23.0026C27.7447 23.0026 27.5113 22.7704 27.5113 22.4876C27.5164 22.2049 27.7447 21.9726 28.0287 21.9726Z" fill="#323366"/>
<path fill-rule="evenodd" clip-rule="evenodd" d="M3.17636 30.7711C4.93199 30.7711 6.35273 32.1853 6.35273 33.9329C6.35273 35.6804 4.93199 37.0946 3.17636 37.0946C1.42074 37.0946 0 35.6804 0 33.9329C0 32.1853 1.42581 30.7711 3.17636 30.7711Z" fill="#323366"/>
<path fill-rule="evenodd" clip-rule="evenodd" d="M8.18987 26.5365C9.49899 26.5365 10.5595 27.5921 10.5595 28.8952C10.5595 30.1983 9.49899 31.2539 8.18987 31.2539C6.88079 31.2539 5.82032 30.1983 5.82032 28.8952C5.82032 27.5921 6.88079 26.5365 8.18987 26.5365Z" fill="#323366"/>
<path fill-rule="evenodd" clip-rule="evenodd" d="M12.5837 23.8389C13.563 23.8389 14.3596 24.6319 14.3596 25.6067C14.3596 26.5815 13.563 27.3745 12.5837 27.3745C11.6044 27.3745 10.8077 26.5815 10.8077 25.6067C10.8077 24.6319 11.6044 23.8389 12.5837 23.8389Z" fill="#323366"/>
<path fill-rule="evenodd" clip-rule="evenodd" d="M16.3537 22.1242C17.1147 22.1242 17.7287 22.7354 17.7287 23.493C17.7287 24.2506 17.1147 24.8618 16.3537 24.8618C15.5926 24.8618 14.9786 24.2506 14.9786 23.493C14.9837 22.7404 15.5976 22.1242 16.3537 22.1242Z" fill="#323366"/>
<path fill-rule="evenodd" clip-rule="evenodd" d="M19.52 21.5021C20.0983 21.5021 20.57 21.9716 20.57 22.5473C20.57 23.1229 20.0983 23.5924 19.52 23.5924C18.9417 23.5924 18.47 23.1229 18.47 22.5473C18.47 21.9716 18.9367 21.5021 19.52 21.5021Z" fill="#323366"/>
<path fill-rule="evenodd" clip-rule="evenodd" d="M22.021 22.0719C22.4978 22.0719 22.8833 22.4557 22.8833 22.9304C22.8833 23.4049 22.4978 23.7887 22.021 23.7887C21.5442 23.7887 21.1587 23.4049 21.1587 22.9304C21.1587 22.4557 21.5492 22.0719 22.021 22.0719Z" fill="#323366"/>
<path fill-rule="evenodd" clip-rule="evenodd" d="M23.8578 22.498C24.2383 22.498 24.5477 22.806 24.5477 23.1847C24.5477 23.5634 24.2383 23.8714 23.8578 23.8714C23.4774 23.8714 23.168 23.5634 23.168 23.1847C23.168 22.801 23.4774 22.498 23.8578 22.498Z" fill="#323366"/>
<path fill-rule="evenodd" clip-rule="evenodd" d="M25.4769 22.9842C25.761 22.9842 25.9943 23.2164 25.9943 23.4992C25.9943 23.782 25.761 24.0142 25.4769 24.0142C25.1929 24.0142 24.9595 23.782 24.9595 23.4992C24.9595 23.2164 25.1878 22.9842 25.4769 22.9842Z" fill="#323366"/>
<path fill-rule="evenodd" clip-rule="evenodd" d="M14.2732 45.0274C16.0288 45.0274 17.4496 46.4416 17.4496 48.1891C17.4496 49.9367 16.0288 51.351 14.2732 51.351C12.5176 51.351 11.0968 49.9367 11.0968 48.1891C11.0968 46.4466 12.5176 45.0274 14.2732 45.0274Z" fill="#323366"/>
<path fill-rule="evenodd" clip-rule="evenodd" d="M14.4361 38.916C15.7451 38.916 16.8056 39.9716 16.8056 41.2747C16.8056 42.5778 15.7451 43.6334 14.4361 43.6334C13.127 43.6334 12.0665 42.5778 12.0665 41.2747C12.0665 39.9767 13.127 38.916 14.4361 38.916Z" fill="#323366"/>
<path fill-rule="evenodd" clip-rule="evenodd" d="M15.4907 34.1326C16.47 34.1326 17.2667 34.9256 17.2667 35.9004C17.2667 36.8752 16.47 37.6681 15.4907 37.6681C14.5115 37.6681 13.7148 36.8752 13.7148 35.9004C13.7148 34.9256 14.5115 34.1326 15.4907 34.1326Z" fill="#323366"/>
<path fill-rule="evenodd" clip-rule="evenodd" d="M17.1153 30.3555C17.8764 30.3555 18.4903 30.9666 18.4903 31.7242C18.4903 32.4818 17.8764 33.093 17.1153 33.093C16.3542 33.093 15.7403 32.4818 15.7403 31.7242C15.7403 30.9666 16.3542 30.3555 17.1153 30.3555Z" fill="#323366"/>
<path fill-rule="evenodd" clip-rule="evenodd" d="M19.2558 27.8043C19.8341 27.8043 20.3059 28.2738 20.3059 28.8495C20.3059 29.4251 19.8341 29.8946 19.2558 29.8946C18.6776 29.8946 18.2058 29.4251 18.2058 28.8495C18.2058 28.2738 18.6776 27.8043 19.2558 27.8043Z" fill="#323366"/>
<path fill-rule="evenodd" clip-rule="evenodd" d="M21.0577 26.3457C21.5345 26.3457 21.92 26.7294 21.92 27.2041C21.92 27.6787 21.5345 28.0624 21.0577 28.0624C20.5809 28.0624 20.1954 27.6787 20.1954 27.2041C20.1954 26.7294 20.5809 26.3457 21.0577 26.3457Z" fill="#323366"/>
<path fill-rule="evenodd" clip-rule="evenodd" d="M22.7262 25.7654C23.1066 25.7654 23.416 26.0734 23.416 26.4521C23.416 26.8308 23.1066 27.1388 22.7262 27.1388C22.3458 27.1388 22.0363 26.8308 22.0363 26.4521C22.0363 26.0734 22.3458 25.7654 22.7262 25.7654Z" fill="#323366"/>
<path fill-rule="evenodd" clip-rule="evenodd" d="M23.9139 25.1825C24.198 25.1825 24.4313 25.4147 24.4313 25.6975C24.4313 25.9802 24.198 26.2125 23.9139 26.2125C23.6298 26.2125 23.3965 25.9802 23.3965 25.6975C23.3965 25.4147 23.6298 25.1825 23.9139 25.1825Z" fill="#323366"/>
<path fill-rule="evenodd" clip-rule="evenodd" d="M47.4473 40.0975C49.2029 40.0975 50.6237 41.5117 50.6237 43.2593C50.6237 45.0069 49.2029 46.4211 47.4473 46.4211C45.6917 46.4211 44.2709 45.0069 44.2709 43.2593C44.2709 41.5117 45.6917 40.0975 47.4473 40.0975Z" fill="#323366"/>
<path fill-rule="evenodd" clip-rule="evenodd" d="M40.4201 39.9616C41.7292 39.9616 42.7897 41.0172 42.7897 42.3203C42.7897 43.6234 41.7292 44.679 40.4201 44.679C39.111 44.679 38.0505 43.6234 38.0505 42.3203C38.0505 41.0223 39.111 39.9616 40.4201 39.9616Z" fill="#323366"/>
<path fill-rule="evenodd" clip-rule="evenodd" d="M35.0971 38.5266C36.0764 38.5266 36.873 39.3196 36.873 40.2944C36.873 41.2692 36.0764 42.0621 35.0971 42.0621C34.1178 42.0621 33.3211 41.2692 33.3211 40.2944C33.3211 39.3196 34.1178 38.5266 35.0971 38.5266Z" fill="#323366"/>
<path fill-rule="evenodd" clip-rule="evenodd" d="M31.3321 36.5714C32.0881 36.5714 32.7072 37.1825 32.7072 37.9402C32.7072 38.6978 32.0933 39.3089 31.3321 39.3089C30.571 39.3089 29.9571 38.6978 29.9571 37.9402C29.9571 37.1825 30.571 36.5714 31.3321 36.5714Z" fill="#323366"/>
<path fill-rule="evenodd" clip-rule="evenodd" d="M28.9527 34.5064C29.531 34.5064 30.0027 34.976 30.0027 35.5515C30.0027 36.1271 29.531 36.5967 28.9527 36.5967C28.3745 36.5967 27.9027 36.1271 27.9027 35.5515C27.9027 34.976 28.3745 34.5064 28.9527 34.5064Z" fill="#323366"/>
<path fill-rule="evenodd" clip-rule="evenodd" d="M27.491 32.7733C27.9678 32.7733 28.3533 33.1571 28.3533 33.6317C28.3533 34.1063 27.9678 34.49 27.491 34.49C27.0142 34.49 26.6287 34.1063 26.6287 33.6317C26.6287 33.1571 27.0142 32.7733 27.491 32.7733Z" fill="#323366"/>
<path fill-rule="evenodd" clip-rule="evenodd" d="M26.4966 31.205C26.877 31.205 27.1864 31.513 27.1864 31.8917C27.1864 32.2704 26.877 32.5784 26.4966 32.5784C26.1162 32.5784 25.8067 32.2704 25.8067 31.8917C25.8067 31.513 26.1162 31.205 26.4966 31.205Z" fill="#323366"/>
<path fill-rule="evenodd" clip-rule="evenodd" d="M26.121 29.7386C26.4051 29.7386 26.6384 29.9708 26.6384 30.2536C26.6384 30.5364 26.4051 30.7686 26.121 30.7686C25.8369 30.7686 25.6036 30.5364 25.6036 30.2536C25.6036 29.9708 25.8369 29.7386 26.121 29.7386Z" fill="#323366"/>
<path fill-rule="evenodd" clip-rule="evenodd" d="M31.8291 48.6764C33.5848 48.6764 35.0055 50.0906 35.0055 51.8382C35.0055 53.5858 33.5848 55 31.8291 55C30.0735 55 28.6528 53.5858 28.6528 51.8382C28.6528 50.0906 30.0735 48.6764 31.8291 48.6764Z" fill="#323366"/>
<path fill-rule="evenodd" clip-rule="evenodd" d="M27.3591 44.1726C28.6681 44.1726 29.7286 45.2283 29.7286 46.5314C29.7286 47.8345 28.6681 48.8901 27.3591 48.8901C26.05 48.8901 24.9895 47.8345 24.9895 46.5314C24.9895 45.2283 26.05 44.1726 27.3591 44.1726Z" fill="#323366"/>
<path fill-rule="evenodd" clip-rule="evenodd" d="M24.5438 39.8727C25.5232 39.8727 26.3198 40.6657 26.3198 41.6405C26.3198 42.6153 25.5232 43.4083 24.5438 43.4083C23.5646 43.4083 22.7679 42.6153 22.7679 41.6405C22.7679 40.6657 23.5595 39.8727 24.5438 39.8727Z" fill="#323366"/>
<path fill-rule="evenodd" clip-rule="evenodd" d="M23.1433 35.9806C23.9044 35.9806 24.5183 36.5917 24.5183 37.3493C24.5183 38.107 23.9044 38.7182 23.1433 38.7182C22.3822 38.7182 21.7682 38.107 21.7682 37.3493C21.7733 36.5917 22.3872 35.9806 23.1433 35.9806Z" fill="#323366"/>
<path fill-rule="evenodd" clip-rule="evenodd" d="M22.8684 32.8962C23.4467 32.8962 23.9185 33.3658 23.9185 33.9414C23.9185 34.517 23.4467 34.9866 22.8684 34.9866C22.2901 34.9866 21.8184 34.517 21.8184 33.9414C21.8133 33.3658 22.2851 32.8962 22.8684 32.8962Z" fill="#323366"/>
<path fill-rule="evenodd" clip-rule="evenodd" d="M22.9649 30.6587C23.4417 30.6587 23.8272 31.0424 23.8272 31.517C23.8272 31.9917 23.4417 32.3754 22.9649 32.3754C22.4881 32.3754 22.1025 31.9917 22.1025 31.517C22.1025 31.0424 22.4931 30.6587 22.9649 30.6587Z" fill="#323366"/>
<path fill-rule="evenodd" clip-rule="evenodd" d="M23.4528 29.0903C23.8332 29.0903 24.1426 29.3983 24.1426 29.777C24.1426 30.1557 23.8332 30.4637 23.4528 30.4637C23.0724 30.4637 22.7629 30.1557 22.7629 29.777C22.768 29.3983 23.0724 29.0903 23.4528 29.0903Z" fill="#323366"/>
<path fill-rule="evenodd" clip-rule="evenodd" d="M24.4015 28.0264C24.6855 28.0264 24.9188 28.2587 24.9188 28.5415C24.9188 28.8242 24.6855 29.0565 24.4015 29.0565C24.1174 29.0565 23.8841 28.8242 23.8841 28.5415C23.8841 28.2587 24.1123 28.0264 24.4015 28.0264Z" fill="#323366"/>
<path fill-rule="evenodd" clip-rule="evenodd" d="M51.101 32.2041C52.745 31.5879 54.5767 32.4111 55.1958 34.0476C55.8148 35.684 54.9878 37.5074 53.3438 38.1236C51.6998 38.7398 49.868 37.9165 49.249 36.28C48.6299 34.6435 49.4571 32.8202 51.101 32.2041Z" fill="#888989"/>
<path fill-rule="evenodd" clip-rule="evenodd" d="M44.4789 34.5488C45.7017 34.0892 47.0717 34.7054 47.5335 35.9227C47.9953 37.1399 47.3762 38.5037 46.1533 38.9632C44.9305 39.4228 43.5605 38.8067 43.0988 37.5894C42.637 36.3671 43.2561 35.0085 44.4789 34.5488Z" fill="#888989"/>
<path fill-rule="evenodd" clip-rule="evenodd" d="M38.9898 35.075C39.9082 34.7315 40.9331 35.1912 41.2782 36.1054C41.6232 37.0196 41.1615 38.0398 40.243 38.3833C39.3246 38.7267 38.2997 38.2671 37.9546 37.3529C37.6096 36.4387 38.0714 35.4185 38.9898 35.075Z" fill="#888989"/>
<path fill-rule="evenodd" clip-rule="evenodd" d="M34.7726 34.5637C35.4829 34.2961 36.2745 34.6546 36.5434 35.3618C36.8123 36.0689 36.4521 36.8568 35.7417 37.1245C35.0314 37.3922 34.2398 37.0336 33.9709 36.3265C33.7019 35.6194 34.0622 34.8314 34.7726 34.5637Z" fill="#888989"/>
<path fill-rule="evenodd" clip-rule="evenodd" d="M31.8135 33.4673C32.3563 33.2653 32.9649 33.538 33.1679 34.0782C33.3708 34.6185 33.0969 35.2244 32.5541 35.4264C32.0113 35.6283 31.4027 35.3557 31.1997 34.8154C30.9969 34.2751 31.2708 33.6743 31.8135 33.4673Z" fill="#888989"/>
<path fill-rule="evenodd" clip-rule="evenodd" d="M29.8351 32.366C30.2815 32.1993 30.7786 32.4215 30.946 32.8658C31.1134 33.3102 30.8902 33.805 30.4438 33.9716C29.9974 34.1383 29.5004 33.9161 29.333 33.4718C29.1656 33.0274 29.3888 32.5326 29.8351 32.366Z" fill="#888989"/>
<path fill-rule="evenodd" clip-rule="evenodd" d="M28.3495 31.2404C28.7045 31.1092 29.1053 31.2859 29.2372 31.6393C29.3741 31.9928 29.1915 32.3917 28.8364 32.523C28.4813 32.6593 28.0806 32.4775 27.9487 32.1241C27.8118 31.7706 27.9893 31.3768 28.3495 31.2404Z" fill="#888989"/>
<path fill-rule="evenodd" clip-rule="evenodd" d="M27.4763 30.002C27.7451 29.901 28.0394 30.0373 28.1408 30.2999C28.2422 30.5675 28.1053 30.8603 27.8415 30.9614C27.5727 31.0623 27.2785 30.926 27.177 30.6634C27.0756 30.4009 27.2126 30.103 27.4763 30.002Z" fill="#888989"/>
<path fill-rule="evenodd" clip-rule="evenodd" d="M34.9145 43.7091C36.2794 43.3909 37.6494 44.2344 37.9691 45.5931C38.2888 46.9518 37.4414 48.3155 36.0764 48.6337C34.7116 48.9519 33.3416 48.1084 33.0219 46.7497C32.6972 45.386 33.5496 44.0274 34.9145 43.7091Z" fill="#888989"/>
<path fill-rule="evenodd" clip-rule="evenodd" d="M30.6069 41.0127C31.6268 40.7753 32.6466 41.4067 32.8851 42.4168C33.1236 43.432 32.4893 44.4473 31.4745 44.6846C30.4547 44.922 29.4348 44.2907 29.1963 43.2805C28.9578 42.2653 29.587 41.2501 30.6069 41.0127Z" fill="#888989"/>
<path fill-rule="evenodd" clip-rule="evenodd" d="M27.6234 38.1743C28.3896 37.9975 29.1507 38.4672 29.3334 39.23C29.511 39.9926 29.039 40.7502 28.2729 40.9321C27.5067 41.1088 26.7456 40.6391 26.5629 39.8764C26.3854 39.1138 26.8572 38.3511 27.6234 38.1743Z" fill="#888989"/>
<path fill-rule="evenodd" clip-rule="evenodd" d="M25.8213 35.4028C26.4149 35.2664 27.0033 35.6301 27.1402 36.2157C27.2772 36.8014 26.912 37.3922 26.3236 37.5285C25.7351 37.6648 25.1417 37.3013 25.0047 36.7156C24.8627 36.1299 25.2329 35.5392 25.8213 35.4028Z" fill="#888989"/>
<path fill-rule="evenodd" clip-rule="evenodd" d="M25.0401 33.0468C25.4916 32.9408 25.9431 33.2185 26.0496 33.6729C26.1561 34.1223 25.8771 34.5717 25.4206 34.6777C24.9692 34.7837 24.5177 34.506 24.4112 34.0516C24.3047 33.6022 24.5887 33.1528 25.0401 33.0468Z" fill="#888989"/>
<path fill-rule="evenodd" clip-rule="evenodd" d="M24.7061 31.2858C25.0763 31.2 25.4466 31.4272 25.5329 31.7958C25.6191 32.1644 25.3908 32.533 25.0206 32.6188C24.6502 32.7046 24.28 32.4774 24.1938 32.1089C24.1075 31.7453 24.3358 31.3767 24.7061 31.2858Z" fill="#888989"/>
<path fill-rule="evenodd" clip-rule="evenodd" d="M24.7967 29.9731C25.0909 29.9024 25.3902 30.0892 25.4611 30.3821C25.5322 30.675 25.3445 30.9729 25.0503 31.0435C24.7561 31.1142 24.4568 30.9274 24.3858 30.6346C24.3199 30.3417 24.5025 30.0438 24.7967 29.9731Z" fill="#888989"/>
<path fill-rule="evenodd" clip-rule="evenodd" d="M25.3395 28.9753C25.5627 28.9248 25.7859 29.0611 25.8366 29.2833C25.8873 29.5054 25.7504 29.7276 25.5273 29.7782C25.3041 29.8286 25.0809 29.6923 25.0301 29.4702C24.9794 29.248 25.1164 29.0258 25.3395 28.9753Z" fill="#888989"/>
<path fill-rule="evenodd" clip-rule="evenodd" d="M19.8449 43.7394C21.22 43.4565 22.5646 44.3354 22.8487 45.6991C23.1329 47.0679 22.25 48.4064 20.88 48.6942C19.505 48.9771 18.1603 48.0982 17.8711 46.7345C17.592 45.3607 18.4749 44.0222 19.8449 43.7394Z" fill="#888989"/>
<path fill-rule="evenodd" clip-rule="evenodd" d="M18.977 38.9245C20.0019 38.7124 21.0066 39.369 21.2197 40.3892C21.4328 41.4095 20.7731 42.4096 19.7482 42.6217C18.7232 42.8338 17.7186 42.1772 17.5054 41.1569C17.2923 40.1367 17.952 39.1366 18.977 38.9245Z" fill="#888989"/>
<path fill-rule="evenodd" clip-rule="evenodd" d="M19.018 35.0086C19.7842 34.852 20.5402 35.342 20.6975 36.1046C20.8599 36.8673 20.3627 37.6199 19.5964 37.7764C18.8252 37.933 18.0743 37.4431 17.9169 36.6804C17.7596 35.9177 18.2519 35.1652 19.018 35.0086Z" fill="#888989"/>
<path fill-rule="evenodd" clip-rule="evenodd" d="M19.6714 31.7791C20.2649 31.6579 20.8482 32.0366 20.97 32.6274C21.0917 33.2181 20.7113 33.7988 20.1178 33.92C19.5243 34.0411 18.941 33.6624 18.8193 33.0717C18.6925 32.486 19.0729 31.9053 19.6714 31.7791Z" fill="#888989"/>
<path fill-rule="evenodd" clip-rule="evenodd" d="M20.9355 29.4379C21.392 29.3419 21.8334 29.6348 21.9297 30.0892C22.0261 30.5437 21.7318 30.9829 21.2754 31.0789C20.8188 31.1748 20.3775 30.882 20.2812 30.4326C20.1848 29.9782 20.479 29.5338 20.9355 29.4379Z" fill="#888989"/>
<path fill-rule="evenodd" clip-rule="evenodd" d="M22.1027 28.0013C22.473 27.9256 22.8382 28.1629 22.9194 28.5315C22.9955 28.9001 22.7571 29.2636 22.3868 29.3444C22.0164 29.4202 21.6512 29.1828 21.5701 28.8143C21.4889 28.4406 21.7273 28.0771 22.1027 28.0013Z" fill="#888989"/>
<path fill-rule="evenodd" clip-rule="evenodd" d="M23.3157 27.2744C23.615 27.2138 23.9041 27.4057 23.9701 27.6985C24.031 27.9964 23.8433 28.2842 23.544 28.3498C23.2447 28.4105 22.9556 28.2186 22.8896 27.9257C22.8288 27.6278 23.0165 27.34 23.3157 27.2744Z" fill="#888989"/>
<path fill-rule="evenodd" clip-rule="evenodd" d="M24.1523 26.6339C24.3755 26.5885 24.5936 26.7298 24.6393 26.952C24.6849 27.1741 24.5429 27.3913 24.3197 27.4367C24.0965 27.4821 23.8784 27.3407 23.8327 27.1186C23.782 26.8964 23.9291 26.6793 24.1523 26.6339Z" fill="#888989"/>
<path fill-rule="evenodd" clip-rule="evenodd" d="M8.90048 34.6288C10.2603 34.2803 11.6455 35.0935 11.9956 36.4471C12.3458 37.8007 11.5238 39.1796 10.169 39.5281C8.80912 39.8766 7.4239 39.0584 7.07378 37.7098C6.7186 36.3562 7.5406 34.9773 8.90048 34.6288Z" fill="#888989"/>
<path fill-rule="evenodd" clip-rule="evenodd" d="M11.9345 30.3546C12.9493 30.097 13.9793 30.703 14.2432 31.7133C14.5019 32.7234 13.893 33.7487 12.8782 34.0113C11.8634 34.269 10.8334 33.6629 10.5695 32.6527C10.3057 31.6426 10.9197 30.6121 11.9345 30.3546Z" fill="#888989"/>
<path fill-rule="evenodd" clip-rule="evenodd" d="M14.8009 27.3951C15.562 27.1981 16.3383 27.6577 16.5311 28.4153C16.729 29.1729 16.2673 29.9457 15.5062 30.1376C14.745 30.3346 13.9687 29.875 13.7759 29.1174C13.5831 28.3597 14.0397 27.587 14.8009 27.3951Z" fill="#888989"/>
<path fill-rule="evenodd" clip-rule="evenodd" d="M17.3786 25.3195C17.967 25.168 18.5656 25.5215 18.7177 26.1072C18.8699 26.6929 18.5148 27.2887 17.9264 27.4402C17.338 27.5917 16.7395 27.2382 16.5872 26.6525C16.4351 26.0669 16.7902 25.466 17.3786 25.3195Z" fill="#888989"/>
<path fill-rule="evenodd" clip-rule="evenodd" d="M19.7026 24.2108C20.154 24.0946 20.6105 24.3673 20.7272 24.8117C20.8438 25.2611 20.5699 25.7154 20.1236 25.8316C19.6721 25.9478 19.2156 25.675 19.099 25.2307C18.9822 24.7813 19.2562 24.327 19.7026 24.2108Z" fill="#888989"/>
<path fill-rule="evenodd" clip-rule="evenodd" d="M21.7571 24.154C22.1274 24.0581 22.5028 24.2803 22.594 24.6488C22.6904 25.0175 22.4672 25.3911 22.0969 25.482C21.7267 25.5779 21.3513 25.3557 21.26 24.9872C21.1687 24.6236 21.3919 24.25 21.7571 24.154Z" fill="#888989"/>
<path fill-rule="evenodd" clip-rule="evenodd" d="M23.2649 24.1179C23.5591 24.0421 23.8583 24.2188 23.9345 24.5117C24.0106 24.8046 23.833 25.1024 23.5388 25.1782C23.2446 25.2539 22.9454 25.0772 22.8692 24.7844C22.7931 24.4915 22.9707 24.1936 23.2649 24.1179Z" fill="#888989"/>
<path fill-rule="evenodd" clip-rule="evenodd" d="M24.6141 24.1784C24.8373 24.1229 25.0605 24.2541 25.1162 24.4763C25.1721 24.6985 25.0402 24.9206 24.817 24.9762C24.5938 25.0317 24.3706 24.9005 24.3148 24.6783C24.2641 24.4561 24.396 24.234 24.6141 24.1784Z" fill="#888989"/>
<path fill-rule="evenodd" clip-rule="evenodd" d="M5.95707 19.9369C7.32199 19.6036 8.69709 20.4319 9.03197 21.7905C9.36685 23.1492 8.53469 24.518 7.16977 24.8513C5.80485 25.1847 4.42977 24.3563 4.09489 22.9977C3.76 21.6391 4.59722 20.2702 5.95707 19.9369Z" fill="#888989"/>
<path fill-rule="evenodd" clip-rule="evenodd" d="M11.7308 18.6971C12.7456 18.4496 13.7756 19.0658 14.0243 20.081C14.2728 21.0912 13.6538 22.1165 12.634 22.364C11.6192 22.6115 10.5891 21.9953 10.3405 20.9801C10.0919 19.9699 10.716 18.9446 11.7308 18.6971Z" fill="#888989"/>
<path fill-rule="evenodd" clip-rule="evenodd" d="M16.1504 18.4355C16.9115 18.2486 17.6828 18.7133 17.8706 19.4709C18.0582 20.2285 17.5914 20.9963 16.8303 21.1831C16.0693 21.37 15.298 20.9053 15.1102 20.1477C14.9225 19.3851 15.3894 18.6224 16.1504 18.4355Z" fill="#888989"/>
<path fill-rule="evenodd" clip-rule="evenodd" d="M19.6715 18.7533C20.2599 18.6069 20.8533 18.9705 21.0004 19.5561C21.1476 20.1419 20.7824 20.7326 20.194 20.8791C19.6056 21.0254 19.012 20.6619 18.8649 20.0762C18.7229 19.4905 19.0831 18.8998 19.6715 18.7533Z" fill="#888989"/>
<path fill-rule="evenodd" clip-rule="evenodd" d="M21.8745 19.9609C22.326 19.8498 22.7825 20.1274 22.889 20.5718C23.0006 21.0211 22.7216 21.4756 22.2753 21.5817C21.8238 21.6927 21.3673 21.415 21.2608 20.9707C21.1441 20.5213 21.4231 20.0719 21.8745 19.9609Z" fill="#888989"/>
<path fill-rule="evenodd" clip-rule="evenodd" d="M23.843 20.7589C24.2133 20.668 24.5836 20.8952 24.6749 21.2637C24.7662 21.6323 24.5379 22.0009 24.1677 22.0918C23.7973 22.1827 23.4271 21.9555 23.3357 21.5869C23.2495 21.2183 23.4778 20.8497 23.843 20.7589Z" fill="#888989"/>
<path fill-rule="evenodd" clip-rule="evenodd" d="M25.2429 21.583C25.5371 21.5123 25.8363 21.689 25.9074 21.9869C25.9784 22.2797 25.8008 22.5777 25.5016 22.6483C25.2074 22.719 24.9081 22.5423 24.8371 22.2444C24.7661 21.9516 24.9436 21.6587 25.2429 21.583Z" fill="#888989"/>
<path fill-rule="evenodd" clip-rule="evenodd" d="M26.3188 22.4346C26.542 22.3791 26.7652 22.5154 26.821 22.7375C26.8768 22.9597 26.7399 23.1819 26.5167 23.2374C26.2935 23.293 26.0703 23.1566 26.0145 22.9345C25.9587 22.7072 26.0956 22.4851 26.3188 22.4346Z" fill="#888989"/>
<path fill-rule="evenodd" clip-rule="evenodd" d="M13.6544 7.65231C15.0093 7.27856 16.4097 8.06644 16.7852 9.41507C17.1607 10.7636 16.3691 12.1576 15.0143 12.5314C13.6596 12.9052 12.2591 12.1172 11.8836 10.7686C11.5081 9.4201 12.2997 8.02606 13.6544 7.65231Z" fill="#888989"/>
<path fill-rule="evenodd" clip-rule="evenodd" d="M19.5152 10.3704C20.5249 10.0927 21.5702 10.6786 21.8493 11.6836C22.1284 12.6887 21.5398 13.7292 20.53 14.007C19.5203 14.2848 18.475 13.6989 18.196 12.6938C17.9169 11.6887 18.5055 10.6482 19.5152 10.3704Z" fill="#888989"/>
<path fill-rule="evenodd" clip-rule="evenodd" d="M23.4065 13.011C24.1625 12.804 24.949 13.2433 25.1571 13.9959C25.3651 14.7485 24.9236 15.5314 24.1676 15.7384C23.4116 15.9455 22.6251 15.5061 22.4171 14.7536C22.204 14.001 22.6504 13.2181 23.4065 13.011Z" fill="#888989"/>
<path fill-rule="evenodd" clip-rule="evenodd" d="M25.4258 15.6663C26.009 15.5047 26.6178 15.843 26.7801 16.4288C26.9424 17.0094 26.5974 17.6153 26.0142 17.7768C25.4308 17.9385 24.8221 17.6001 24.6598 17.0144C24.4975 16.4288 24.8424 15.8279 25.4258 15.6663Z" fill="#888989"/>
<path fill-rule="evenodd" clip-rule="evenodd" d="M27.1208 17.7601C27.5671 17.639 28.0338 17.8964 28.1555 18.3407C28.2772 18.7851 28.0185 19.2496 27.5722 19.3708C27.1258 19.492 26.6592 19.2345 26.5374 18.7902C26.4106 18.3458 26.6744 17.8813 27.1208 17.7601Z" fill="#888989"/>
<path fill-rule="evenodd" clip-rule="evenodd" d="M28.4396 19.5982C28.8048 19.4971 29.1853 19.7092 29.2867 20.0778C29.3881 20.4414 29.1751 20.8201 28.8048 20.921C28.4396 21.022 28.0592 20.8099 27.9577 20.4414C27.8563 20.0778 28.0693 19.6991 28.4396 19.5982Z" fill="#888989"/>
<path fill-rule="evenodd" clip-rule="evenodd" d="M28.9928 21.1979C29.287 21.1172 29.5913 21.2888 29.6725 21.5817C29.7537 21.8746 29.5812 22.1774 29.287 22.2583C28.9928 22.3391 28.6885 22.1674 28.6073 21.8746C28.5261 21.5817 28.6986 21.2787 28.9928 21.1979Z" fill="#888989"/>
<path fill-rule="evenodd" clip-rule="evenodd" d="M29.3232 22.5367C29.5413 22.476 29.7696 22.6023 29.8305 22.8245C29.8913 23.0416 29.7645 23.2688 29.5413 23.3294C29.3232 23.39 29.095 23.2638 29.0341 23.0416C28.9732 22.8245 29.1051 22.6023 29.3232 22.5367Z" fill="#888989"/>
<path fill-rule="evenodd" clip-rule="evenodd" d="M28.5217 2.80868C29.8866 2.48543 31.2566 3.32386 31.5813 4.68252C31.9061 6.04118 31.0638 7.4049 29.6988 7.72813C28.3339 8.05144 26.9639 7.21297 26.6392 5.85431C26.3093 4.49564 27.1567 3.13193 28.5217 2.80868Z" fill="#878787"/>
<path fill-rule="evenodd" clip-rule="evenodd" d="M31.7186 8.72773C32.7385 8.48527 33.7583 9.11162 34.0019 10.1268C34.2454 11.142 33.6162 12.1572 32.5964 12.3996C31.5765 12.6421 30.5566 12.0158 30.313 11.0006C30.0695 9.98538 30.6987 8.97019 31.7186 8.72773Z" fill="#878787"/>
<path fill-rule="evenodd" clip-rule="evenodd" d="M32.4741 13.0146C33.2404 12.8328 34.0065 13.3025 34.1892 14.0651C34.3719 14.8228 33.9 15.5905 33.1338 15.7723C32.3676 15.9541 31.6014 15.4844 31.4188 14.7217C31.2412 13.9591 31.7131 13.1964 32.4741 13.0146Z" fill="#878787"/>
<path fill-rule="evenodd" clip-rule="evenodd" d="M32.5602 16.5819C33.1487 16.4404 33.7422 16.804 33.8842 17.3897C34.0262 17.9754 33.661 18.5662 33.0726 18.7075C32.4842 18.849 31.8907 18.4854 31.7487 17.8997C31.6066 17.314 31.9718 16.7232 32.5602 16.5819Z" fill="#878787"/>
<path fill-rule="evenodd" clip-rule="evenodd" d="M32.8549 19.4858C33.3063 19.3798 33.7578 19.6575 33.8694 20.1069C33.9758 20.5562 33.6969 21.0056 33.2454 21.1167C32.794 21.2227 32.3426 20.9451 32.231 20.4957C32.1244 20.0462 32.4034 19.5969 32.8549 19.4858Z" fill="#878787"/>
<path fill-rule="evenodd" clip-rule="evenodd" d="M32.6362 21.6326C33.0064 21.5468 33.3767 21.774 33.468 22.1426C33.5542 22.5112 33.326 22.8798 32.9557 22.9707C32.5854 23.0565 32.2151 22.8293 32.1238 22.4607C32.0376 22.0921 32.2658 21.7235 32.6362 21.6326Z" fill="#878787"/>
<path fill-rule="evenodd" clip-rule="evenodd" d="M32.0728 23.2843C32.3671 23.2137 32.6664 23.3954 32.7373 23.6934C32.8084 23.9862 32.6258 24.2841 32.3265 24.3548C32.0323 24.4255 31.733 24.2437 31.662 23.9458C31.596 23.653 31.7787 23.355 32.0728 23.2843Z" fill="#878787"/>
<path fill-rule="evenodd" clip-rule="evenodd" d="M31.4486 24.4559C31.6718 24.4054 31.895 24.5418 31.9457 24.7588C31.9965 24.981 31.8595 25.2031 31.6414 25.2537C31.4182 25.3042 31.195 25.1679 31.1443 24.9507C31.0885 24.7286 31.2254 24.5064 31.4486 24.4559Z" fill="#878787"/>
<path fill-rule="evenodd" clip-rule="evenodd" d="M54.0534 23.8197C55.809 23.8753 57.1841 25.3349 57.1283 27.0774C57.0725 28.825 55.6061 30.1938 53.8505 30.1382C52.0949 30.0827 50.7197 28.623 50.7756 26.8754C50.8364 25.1329 52.3029 23.7641 54.0534 23.8197Z" fill="#323366"/>
<path fill-rule="evenodd" clip-rule="evenodd" d="M47.7161 28.5033C49.0253 28.5437 50.0502 29.6347 50.0096 30.9327C49.969 32.2359 48.873 33.2561 47.569 33.2157C46.2599 33.1753 45.2349 32.0843 45.2755 30.7863C45.3161 29.4832 46.407 28.4629 47.7161 28.5033Z" fill="#323366"/>
<path fill-rule="evenodd" clip-rule="evenodd" d="M42.2361 30.7853C43.2154 30.8156 43.9866 31.6338 43.9562 32.6086C43.9258 33.5834 43.1038 34.3512 42.1245 34.3209C41.1452 34.2906 40.3739 33.4724 40.4044 32.4976C40.4348 31.5177 41.2518 30.75 42.2361 30.7853Z" fill="#323366"/>
<path fill-rule="evenodd" clip-rule="evenodd" d="M37.8478 31.5822C38.6038 31.6074 39.2026 32.2388 39.1771 32.9914C39.1518 33.7439 38.5175 34.3399 37.7615 34.3146C37.0055 34.2894 36.4067 33.658 36.4321 32.9055C36.4575 32.1529 37.0917 31.5569 37.8478 31.5822Z" fill="#323366"/>
<path fill-rule="evenodd" clip-rule="evenodd" d="M34.6958 31.6183C35.274 31.6385 35.7306 32.1183 35.7154 32.6989C35.6951 33.2745 35.2132 33.7289 34.6299 33.7138C34.0516 33.6936 33.5951 33.2139 33.6103 32.6333C33.6306 32.0526 34.1176 31.6033 34.6958 31.6183Z" fill="#323366"/>
<path fill-rule="evenodd" clip-rule="evenodd" d="M32.2148 31.2603C32.6916 31.2755 33.0619 31.6693 33.0467 32.1439C33.0315 32.6185 32.6358 32.9871 32.159 32.972C31.6822 32.9568 31.3119 32.563 31.3271 32.0883C31.3424 31.6188 31.738 31.2452 32.2148 31.2603Z" fill="#323366"/>
<path fill-rule="evenodd" clip-rule="evenodd" d="M30.2668 30.6749C30.6472 30.685 30.9465 31.0031 30.9313 31.3818C30.9212 31.7605 30.6016 32.0584 30.2212 32.0483C29.8408 32.0382 29.5415 31.7201 29.5516 31.3414C29.5719 30.9577 29.8864 30.6597 30.2668 30.6749Z" fill="#323366"/>
<path fill-rule="evenodd" clip-rule="evenodd" d="M29.1145 29.7912C29.3985 29.8013 29.6217 30.0386 29.6166 30.3214C29.6065 30.6041 29.3681 30.8263 29.084 30.8212C28.8 30.8112 28.5768 30.5738 28.5818 30.2911C28.5869 30.0033 28.8253 29.7811 29.1145 29.7912Z" fill="#323366"/>
<path d="M36.3149 25.5608H39.6334V20.7575H42.1958L45.4736 25.5608H49.3552L45.6715 20.1968C47.5895 19.4897 48.9036 17.9644 48.9036 15.54C48.9036 14.0803 48.452 12.9035 47.6098 12.0651C46.6203 11.0802 45.1336 10.5397 43.2156 10.5397H36.3149V25.5608ZM39.6334 17.8381V13.5248H42.9315C44.5501 13.5248 45.5395 14.2521 45.5395 15.6713C45.5395 16.9795 44.611 17.8381 42.9975 17.8381H39.6334ZM51.1616 20.4797H57.7985V17.3482H51.1616V20.4797ZM66.054 25.7779C69.3065 25.7779 71.5949 24.1061 71.5949 21.1212C71.5949 18.4593 69.8697 17.3684 66.8101 16.5754C64.202 15.9087 63.5576 15.5905 63.5576 14.6005C63.5576 13.8278 64.2273 13.247 65.4958 13.247C66.7694 13.247 68.0836 13.8025 69.4181 14.7268L71.1433 12.2368C69.6109 11.0145 67.7385 10.3276 65.5415 10.3276C62.4616 10.3276 60.2594 12.1307 60.2594 14.8531C60.2594 17.8785 62.2231 18.717 65.2573 19.4847C67.7792 20.1261 68.2967 20.5555 68.2967 21.3939C68.2967 22.3182 67.4798 22.8535 66.12 22.8535C64.3948 22.8535 62.9741 22.1464 61.6142 21.0302L59.6505 23.3687C61.467 24.9799 63.7707 25.7779 66.054 25.7779ZM78.0795 25.5608H81.3983V19.5756L87.1975 10.5448H83.4279L79.7641 16.5704L76.1666 10.5448H72.285L78.0846 19.6413V25.5608H78.0795ZM93.8751 25.7779C97.1279 25.7779 99.4159 24.1061 99.4159 21.1212C99.4159 18.4593 97.6911 17.3684 94.6311 16.5754C92.0231 15.9087 91.3783 15.5905 91.3783 14.6005C91.3783 13.8278 92.0487 13.247 93.3167 13.247C94.5903 13.247 95.9047 13.8025 97.2391 14.7268L98.9647 12.2368C97.4319 11.0145 95.5599 10.3276 93.3623 10.3276C90.2823 10.3276 88.0807 12.1307 88.0807 14.8531C88.0807 17.8785 90.0439 18.717 93.0783 19.4847C95.5999 20.1261 96.1175 20.5555 96.1175 21.3939C96.1175 22.3182 95.3007 22.8535 93.9407 22.8535C92.2159 22.8535 90.7951 22.1464 89.4351 21.0302L87.4719 23.3687C89.2879 24.9799 91.5919 25.7779 93.8751 25.7779ZM105.494 25.5608H108.814V13.5904H113.406V10.5448H100.908V13.5904H105.5V25.5608H105.494ZM115.947 25.5608H127.435V22.6212H119.246V19.4695H126.359V16.5299H119.246V13.4843H127.329V10.5448H115.947V25.5608ZM130.383 25.5608H133.635V15.8228L137.837 22.1717H137.923L142.17 15.7572V25.5608H145.468V10.5448H141.891L137.923 16.8936L133.955 10.5448H130.378V25.5608H130.383ZM154.459 25.7779C157.712 25.7779 160 24.1061 160 21.1212C160 18.4593 158.275 17.3684 155.215 16.5754C152.607 15.9087 151.963 15.5905 151.963 14.6005C151.963 13.8278 152.633 13.247 153.902 13.247C155.175 13.247 156.489 13.8025 157.823 14.7268L159.549 12.2368C158.016 11.0145 156.144 10.3276 153.947 10.3276C150.867 10.3276 148.665 12.1307 148.665 14.8531C148.665 17.8785 150.629 18.717 153.662 19.4847C156.185 20.1261 156.702 20.5555 156.702 21.3939C156.702 22.3182 155.886 22.8535 154.526 22.8535C152.8 22.8535 151.379 22.1464 150.02 21.0302L148.056 23.3687C149.867 24.9799 152.171 25.7779 154.459 25.7779Z" fill="#323366"/>
</svg>
