<svg width="12" height="12" viewBox="0 0 12 12" fill="none" xmlns="http://www.w3.org/2000/svg">
<path d="M6.53569 8.57353L6.53722 8.57448L7.88128 9.41332L7.52605 7.78037L6.53569 8.57353ZM6.53569 8.57353C6.37387 8.47334 6.18927 8.41999 5.99997 8.41999C5.81077 8.41999 5.62601 8.47329 5.46407 8.57363L5.46277 8.57444L4.11839 9.41321M6.53569 8.57353L4.11839 9.41321M4.11839 9.41321L4.47328 7.78062C4.47333 7.78042 4.47337 7.78021 4.47342 7.78001C4.55428 7.41069 4.43598 7.02114 4.15375 6.76333L2.92497 5.63877L4.5296 5.48674L4.53001 5.4867C4.91853 5.44957 5.24272 5.19536 5.38586 4.84277C5.38601 4.84241 5.38616 4.84204 5.38631 4.84167L5.99972 3.34365L6.6126 4.84195C6.6127 4.84221 6.61281 4.84246 6.61291 4.84271C6.75663 5.19561 7.08028 5.45043 7.47003 5.48759L7.47032 5.48762L9.07457 5.63963L7.8457 6.76423L4.11839 9.41321ZM3.84788 4.39403L4.30511 4.35071L4.34664 4.39847C3.84786 4.39849 3.84786 4.39826 3.84786 4.39803L3.84786 4.39756L3.84786 4.39662L3.84787 4.39472L3.84788 4.39403Z" stroke="#003BAA"/>
</svg>
