<svg width="40" height="40" viewBox="0 0 40 40" fill="none" xmlns="http://www.w3.org/2000/svg"><path d="M0 20C0 8.954 8.954 0 20 0s20 8.954 20 20-8.954 20-20 20S0 31.046 0 20z" fill="#C4C4C4"/><path fill-rule="evenodd" clip-rule="evenodd" d="M20 9.333c-2.896 0-3.26.013-4.397.065-1.136.052-1.911.231-2.59.495a5.224 5.224 0 0 0-1.889 1.23 5.236 5.236 0 0 0-1.231 1.89c-.264.678-.444 1.453-.496 2.588-.05 1.138-.064 1.502-.064 4.399 0 2.897.013 3.26.065 4.397.052 1.136.232 1.91.495 2.59a5.226 5.226 0 0 0 1.23 1.889 5.223 5.223 0 0 0 1.89 1.23c.678.265 1.453.444 2.589.496 1.138.052 1.5.065 4.398.065 2.897 0 3.26-.013 4.397-.065 1.136-.052 1.912-.231 2.59-.495a5.219 5.219 0 0 0 1.889-1.231 5.237 5.237 0 0 0 1.23-1.89c.263-.678.443-1.454.496-2.589.051-1.137.065-1.5.065-4.397 0-2.897-.014-3.26-.065-4.398-.053-1.136-.233-1.91-.495-2.59a5.237 5.237 0 0 0-1.232-1.889 5.213 5.213 0 0 0-1.889-1.23c-.68-.264-1.455-.443-2.59-.495-1.138-.052-1.5-.065-4.398-.065H20zm-.956 1.922h.957c2.848 0 3.185.01 4.31.062 1.04.047 1.605.221 1.98.367a3.31 3.31 0 0 1 1.226.798c.374.373.605.729.799 1.227.146.375.32.94.367 1.98.051 1.124.062 1.462.062 4.309 0 2.846-.01 3.184-.062 4.308-.047 1.04-.221 1.605-.367 1.98a3.298 3.298 0 0 1-.799 1.226 3.3 3.3 0 0 1-1.225.798c-.376.146-.94.32-1.98.367-1.125.051-1.463.063-4.311.063s-3.186-.012-4.31-.063c-1.04-.048-1.605-.221-1.981-.367a3.305 3.305 0 0 1-1.227-.798 3.306 3.306 0 0 1-.798-1.226c-.146-.376-.32-.94-.367-1.98-.051-1.125-.062-1.463-.062-4.311 0-2.849.01-3.185.062-4.309.047-1.04.221-1.604.367-1.98.193-.498.425-.854.798-1.227a3.31 3.31 0 0 1 1.227-.798c.376-.147.94-.32 1.98-.368.985-.045 1.366-.058 3.354-.06v.002zm5.37 3.051a1.28 1.28 0 1 1 2.56 0 1.28 1.28 0 0 1-2.56 0zm-4.413.216a5.478 5.478 0 1 0 0 10.956 5.478 5.478 0 0 0 0-10.956zM23.556 20a3.556 3.556 0 1 0-7.11 0 3.556 3.556 0 0 0 7.11 0z" fill="#fff"/></svg>