<svg width="40" height="40" viewBox="0 0 40 40" fill="none" xmlns="http://www.w3.org/2000/svg"><path d="M20 40c11.046 0 20-8.954 20-20S31.046 0 20 0 0 8.954 0 20s8.954 20 20 20z" fill="#23ADF2"/><path d="M7.448 20.978c2.338-1.288 4.948-2.363 7.387-3.443 4.195-1.77 8.407-3.508 12.661-5.127.828-.276 2.315-.545 2.46.681-.079 1.736-.407 3.463-.633 5.189-.572 3.796-1.233 7.579-1.877 11.362-.222 1.26-1.801 1.913-2.811 1.106-2.428-1.64-4.874-3.263-7.27-4.941-.786-.798-.058-1.943.643-2.513 2-1.97 4.12-3.645 6.015-5.717.511-1.234-.999-.194-1.497.125-2.738 1.886-5.408 3.887-8.294 5.545-1.474.812-3.192.118-4.666-.335-1.32-.547-3.257-1.098-2.118-1.932z" fill="#fff"/></svg>