<svg width="16" height="11" viewBox="0 0 16 11" fill="none" xmlns="http://www.w3.org/2000/svg"><path fill-rule="evenodd" clip-rule="evenodd" d="M8.068 0c1.818 0 3.557.954 5.177 2.52a15.54 15.54 0 0 1 2.051 2.454l.23.36-.23.359c-.103.161-.292.432-.557.777-.44.57-.94 1.141-1.494 1.676-1.62 1.567-3.359 2.52-5.177 2.52-1.818 0-3.557-.953-5.178-2.52A15.536 15.536 0 0 1 .84 5.693l-.23-.36.23-.359a15.52 15.52 0 0 1 2.05-2.453C4.51.954 6.25 0 8.068 0zm5.615 5.011a14.22 14.22 0 0 0-1.364-1.532C10.922 2.13 9.47 1.333 8.067 1.333c-1.403 0-2.855.797-4.25 2.146a14.22 14.22 0 0 0-1.606 1.854 14.219 14.219 0 0 0 1.605 1.854c1.396 1.35 2.848 2.146 4.25 2.146 1.404 0 2.856-.796 4.252-2.146a14.219 14.219 0 0 0 1.605-1.854 16.743 16.743 0 0 0-.241-.322zM5.4 5.333a2.667 2.667 0 1 0 5.334 0 2.667 2.667 0 0 0-5.334 0zM9.333 5a1.333 1.333 0 1 1-2.666 0 1.333 1.333 0 0 1 2.666 0z" fill="#777"/></svg>