<svg width="32" height="36" viewBox="0 0 32 36" xmlns="http://www.w3.org/2000/svg"><title>dental</title><g fill-rule="nonzero" fill="#247A85"><path d="M30.586 4.29h-2.74c-4.06 0-8.096-1.442-11.367-4.06-.386-.307-.933-.307-1.32 0C11.89 2.85 7.854 4.29 3.795 4.29h-2.74C.473 4.29 0 4.76 0 5.343V15.3c0 2.35.382 4.665 1.134 6.88.734 2.164 1.806 4.187 3.184 6.015C8.86 34.218 15.222 36 15.82 36c.42 0 6.84-1.622 11.503-7.805 1.378-1.828 2.45-3.85 3.184-6.014.752-2.216 1.134-4.53 1.134-6.88V5.344c0-.583-.472-1.055-1.054-1.055zM29.53 15.3c0 4.23-1.345 8.248-3.89 11.624-2.493 3.303-5.97 5.752-9.82 6.922-3.85-1.17-7.327-3.62-9.818-6.922C3.455 23.548 2.11 19.53 2.11 15.3V6.398h1.684c4.267 0 8.506-1.42 12.026-4.014 3.52 2.594 7.76 4.014 12.027 4.014h1.684V15.3z"/><path d="M25.056 13.012c-.575-2.03-2.19-3.654-4.215-4.238-1.733-.5-3.525-.285-5.02.58-.92-.53-1.97-.83-3.067-.845-.625-.01-1.257.07-1.878.243-2.064.57-3.708 2.202-4.29 4.26-.495 1.748-.27 3.545.632 5.06.81 1.357 1.22 3.092 1.22 5.154v1.1c0 1.746 1.42 3.165 3.165 3.165 1.744 0 3.164-1.42 3.164-3.164v-2.11c0-.58.473-1.054 1.055-1.054s1.055.473 1.055 1.055v2.108c0 1.745 1.42 3.164 3.164 3.164 1.744 0 3.163-1.42 3.163-3.164v-1.1c0-2.063.41-3.798 1.22-5.156.903-1.514 1.127-3.31.633-5.06zm-2.445 3.98c-1.006 1.69-1.516 3.787-1.516 6.235v1.1c0 .583-.473 1.056-1.055 1.056s-1.056-.473-1.056-1.055v-2.11c0-1.743-1.42-3.163-3.163-3.163-1.744 0-3.164 1.42-3.164 3.164v2.108c0 .582-.473 1.055-1.054 1.055-.582 0-1.055-.473-1.055-1.055v-1.1c0-2.45-.51-4.547-1.518-6.236-.603-1.01-.75-2.22-.415-3.406.376-1.33 1.484-2.43 2.82-2.8.43-.118.86-.176 1.286-.168 1.53.023 2.928.874 3.654 2.22.276.514.915.706 1.428.43.513-.276.705-.916.43-1.43-.19-.35-.408-.677-.654-.98.84-.294 1.77-.32 2.68-.057 1.31.378 2.396 1.472 2.768 2.786.335 1.186.188 2.395-.415 3.406z"/></g></svg>