<svg width="36" height="36" viewBox="0 0 36 36" xmlns="http://www.w3.org/2000/svg"><title>dental-care</title><g fill-rule="nonzero" fill="#247A85"><path d="M31.368 4.51C30.794 2.48 29.18.86 27.156.276c-1.734-.5-3.524-.285-5.02.58-.918-.53-1.97-.83-3.064-.845-.625-.01-1.256.072-1.877.243-2.063.57-3.707 2.202-4.288 4.258-.495 1.75-.27 3.546.632 5.06.808 1.356 1.218 3.09 1.218 5.15v3.21c0 1.744 1.42 3.162 3.163 3.162 1.745 0 3.163-1.418 3.163-3.162v-2.11c0-.58.473-1.053 1.055-1.053.58 0 1.054.473 1.054 1.054v2.11c0 1.744 1.42 3.162 3.162 3.162 1.744 0 3.163-1.418 3.163-3.162v-3.21c0-2.06.41-3.794 1.22-5.15.9-1.515 1.126-3.31.63-5.06zm-2.443 3.98c-1.006 1.687-1.516 3.784-1.516 6.23v3.21c0 .58-.474 1.054-1.056 1.054-.58 0-1.054-.473-1.054-1.054v-2.108c0-1.744-1.42-3.163-3.162-3.163-1.744 0-3.163 1.418-3.163 3.162v2.108c0 .58-.473 1.054-1.054 1.054-.58 0-1.053-.473-1.053-1.054v-3.21c0-2.446-.51-4.542-1.517-6.23-.602-1.01-.75-2.22-.415-3.405.377-1.33 1.484-2.43 2.82-2.8.43-.117.86-.175 1.285-.167 1.527.023 2.926.873 3.65 2.22.277.513.916.704 1.43.428.51-.276.703-.915.427-1.427-.188-.35-.407-.68-.652-.982.838-.294 1.767-.32 2.677-.057 1.31.378 2.396 1.47 2.768 2.785.335 1.185.188 2.394-.415 3.404z"/><path d="M35.407 22.39c-.594-.825-1.518-1.298-2.534-1.298-1.233 0-2.354.73-2.855 1.856l-.61 1.37c-.794 1.79-2.414 2.944-4.284 3.085.114-.326.176-.676.176-1.04 0-1.744-1.42-3.162-3.162-3.162h-4.55c-.95-.002-2.303-.162-3.355-.92-1.08-.777-2.357-1.188-3.69-1.188-1.735 0-3.335.71-4.492 1.877-.493-1.106-1.6-1.878-2.887-1.878C1.42 21.092 0 22.512 0 24.255v8.433c0 1.744 1.42 3.163 3.163 3.163 1.137 0 2.135-.603 2.693-1.506 1.815 1.07 3.81 1.647 5.738 1.647h10.913c5.822 0 11.008-3.82 12.904-9.51l.426-1.276c.322-.964.165-1.99-.43-2.814zM4.217 32.688c0 .58-.473 1.054-1.054 1.054-.582 0-1.055-.473-1.055-1.054v-8.433c0-.58.473-1.054 1.055-1.054.58 0 1.054.474 1.054 1.055v8.433zm29.62-8.15l-.426 1.275c-1.608 4.827-5.99 8.07-10.902 8.07H11.594c-1.766 0-3.62-.614-5.27-1.737v-5.314c.036-.075.064-.155.08-.24l.003-.005c.39-1.962 2.13-3.386 4.135-3.386.89 0 1.74.274 2.46.792 1.193.86 2.778 1.314 4.584 1.315l4.552.002c.58 0 1.054.472 1.054 1.053 0 .582-.473 1.054-1.054 1.054h-8.434c-.582 0-1.054.472-1.054 1.055 0 .582.472 1.054 1.054 1.054h11.032c2.878 0 5.407-1.668 6.6-4.353l.61-1.37c.162-.365.526-.602.927-.602.33 0 .63.155.824.423.193.267.244.6.14.914z"/></g></svg>