<svg width="36" height="36" viewBox="0 0 36 36" xmlns="http://www.w3.org/2000/svg"><title>clean-tooth</title><g fill-rule="nonzero" fill="#247A85"><path d="M34.877 4.165h-6.503c-1.138 0-2.278-.262-3.295-.757L20.213 1.04C18.794.35 17.368 0 15.977 0H3.157C2.31 0 1.512.338.908.95.324 1.548 0 2.326 0 3.14v2.05c0 .565.47 1.023 1.053 1.023h1.052v3.073c0 1.694 1.417 3.072 3.158 3.072h8.49c1.743 0 3.16-1.378 3.16-3.072V6.273c.82.102 1.62.338 2.36.697l4.864 2.367c1.31.637 2.774.973 4.237.973h6.503c.582 0 1.053-.458 1.053-1.024V5.19c0-.566-.47-1.025-1.053-1.025zM6.387 10.31H5.262c-.58 0-1.052-.46-1.052-1.024V6.213h2.176v4.097zm4.21 0H8.49V6.213h2.106v4.097zm4.21-1.024c0 .565-.472 1.024-1.053 1.024h-1.052V6.213h2.105v3.073zm14.737-1.024h-1.17c-1.138 0-2.278-.262-3.295-.757l-4.866-2.367c-1.31-.637-2.774-.973-4.237-.973H2.105V3.14c0-.58.492-1.092 1.053-1.092h12.82c1.06 0 2.17.278 3.294.826l4.865 2.366c1.31.637 2.774.973 4.237.973h1.17v2.05zm4.28 0H31.65v-2.05h2.175v2.05zM35.673 18.968c-.573-1.97-2.185-3.548-4.206-4.115-1.732-.485-3.58-.27-5.08.566-.918-.516-1.968-.81-3.062-.825-.625-.01-1.255.07-1.875.238-1.44.386-2.674 1.277-3.485 2.46-.798-1.163-2.005-2.046-3.41-2.44-1.74-.488-3.538-.275-5.037.578-.935-.52-2.006-.82-3.105-.835-.625-.01-1.255.07-1.875.238-2.06.553-3.7 2.138-4.282 4.136-.493 1.697-.27 3.442.632 4.913.796 1.3 1.217 3.054 1.217 5.073v3.118c0 1.694 1.417 3.073 3.158 3.073.84 0 1.64-.314 2.25-.884.63-.586.978-1.364.978-2.19v-2.047c0-.565.474-1.025 1.054-1.025.58.002 1.053.46 1.053 1.026v2.048c0 1.694 1.416 3.073 3.157 3.073 1.742 0 3.158-1.38 3.158-3.073v-3.118c0-1.874.364-3.52 1.053-4.786.69 1.266 1.053 2.912 1.053 4.786v3.118c0 1.694 1.416 3.073 3.158 3.073 1.74 0 3.157-1.38 3.157-3.073v-2.048c0-.565.473-1.025 1.053-1.025.58.002 1.053.46 1.053 1.026v2.048c0 .825.346 1.603.976 2.19.612.57 1.412.883 2.25.883 1.742 0 3.16-1.38 3.16-3.073v-3.118c0-2.02.42-3.773 1.216-5.073.9-1.47 1.125-3.216.63-4.915zm-19.35 3.866c-1.006 1.64-1.516 3.7-1.516 6.122v3.118c0 .565-.472 1.024-1.053 1.024-.58 0-1.052-.46-1.052-1.024v-2.048c0-1.694-1.416-3.072-3.157-3.073-1.742 0-3.16 1.378-3.16 3.073v2.048c0 .546-.524 1.024-1.122 1.024-.58 0-1.052-.46-1.052-1.024v-3.118c0-2.422-.51-4.482-1.514-6.122-.6-.982-.748-2.157-.414-3.308.376-1.293 1.482-2.36 2.816-2.72.427-.114.86-.17 1.283-.163 1.545.023 3.003.87 3.716 2.158.276.5.914.685 1.426.417.512-.268.703-.89.428-1.387-.187-.338-.408-.656-.658-.95.84-.288 1.77-.314 2.68-.058 1.308.366 2.392 1.428 2.763 2.704.335 1.15.188 2.326-.413 3.308zm16.91 0c-1.004 1.64-1.514 3.7-1.514 6.122v3.118c0 .565-.473 1.024-1.053 1.024-.598 0-1.123-.478-1.123-1.024v-2.048c0-1.694-1.416-3.072-3.157-3.073-1.742 0-3.16 1.378-3.16 3.073v2.048c0 .565-.47 1.024-1.05 1.024-.582 0-1.054-.46-1.054-1.024v-3.118c0-2.422-.51-4.482-1.515-6.122-.6-.982-.748-2.157-.413-3.308.375-1.293 1.48-2.36 2.816-2.72.428-.114.86-.17 1.283-.163 1.524.023 2.92.85 3.645 2.158.276.5.914.685 1.426.417.512-.268.704-.89.428-1.387-.187-.34-.405-.656-.648-.95.858-.288 1.82-.316 2.74-.058 1.308.366 2.392 1.428 2.764 2.704.334 1.15.187 2.326-.414 3.308z"/></g></svg>