<svg width="36" height="36" viewBox="0 0 36 36" xmlns="http://www.w3.org/2000/svg"><title>healthy-tooth</title><g fill-rule="nonzero" fill="#247A85"><path d="M36 9.554l-.007-.1C35.71 6.892 34.47 4.512 32.5 2.752 30.52.986 27.99.014 25.376.014c-2 0-3.947.562-5.63 1.628-1.046.663-2.45.662-3.495 0C14.57.576 12.622.014 10.622.014c-2.614 0-5.143.972-7.12 2.738C1.53 4.512.288 6.892.006 9.454c-.003.033-.005.067-.006.1-.04 2.95.913 5.875 2.684 8.236 2.4 3.2 3.723 7.018 3.723 10.748v2.706c0 2.615 2.128 4.742 4.743 4.742s4.742-2.127 4.742-4.742v-3.248c0-1.163.946-2.108 2.108-2.108 1.162 0 2.108.945 2.108 2.108v3.248c0 2.615 2.127 4.742 4.742 4.742s4.743-2.127 4.743-4.742v-2.706c0-3.73 1.322-7.547 3.723-10.748 1.77-2.36 2.723-5.285 2.683-8.236zm-4.37 6.97c-2.673 3.565-4.145 7.83-4.145 12.014v2.706c0 1.453-1.182 2.635-2.635 2.635-1.453 0-2.634-1.183-2.634-2.636v-3.248c0-2.325-1.892-4.216-4.216-4.216-2.325 0-4.216 1.89-4.216 4.216v3.248c0 1.453-1.182 2.635-2.634 2.635-1.453 0-2.635-1.183-2.635-2.636v-2.706c0-4.183-1.472-8.45-4.145-12.013-1.482-1.976-2.284-4.42-2.262-6.89.49-4.218 4.22-7.514 8.515-7.514 1.6 0 3.157.45 4.502 1.303 1.735 1.098 4.015 1.098 5.75 0 1.345-.852 2.902-1.302 4.502-1.302 4.295 0 8.025 3.297 8.515 7.514.022 2.47-.78 4.915-2.262 6.89z"/><path d="M31.632 9.683c-.22-1.495-.972-2.862-2.117-3.85-1.147-.99-2.617-1.534-4.138-1.534-1.2 0-2.365.335-3.37.97-.493.312-.64.963-.33 1.455.312.492.962.64 1.454.328.67-.422 1.447-.646 2.247-.646 2.11 0 3.864 1.507 4.17 3.583.076.524.526.9 1.04.9.052 0 .103-.003.155-.01.576-.086.974-.62.89-1.197zM18.31 10.67l-2.703-.834c-1-.31-1.78-1.09-2.09-2.09l-.833-2.703c-.137-.442-.545-.744-1.007-.744-.463 0-.87.3-1.007.743l-.834 2.703c-.31 1-1.09 1.78-2.09 2.09l-2.703.833c-.442.136-.744.544-.744 1.007 0 .462.3.87.743 1.007l2.703.833c1 .31 1.78 1.09 2.09 2.09l.834 2.704c.136.442.544.744 1.007.744.462 0 .87-.302 1.007-.743l.834-2.703c.308-1 1.09-1.78 2.09-2.09l2.703-.833c.442-.137.744-.545.744-1.007 0-.463-.302-.87-.743-1.008zm-6.633 3.837c-.535-1.28-1.55-2.296-2.83-2.83 1.28-.535 2.295-1.55 2.83-2.83.534 1.28 1.55 2.295 2.83 2.83-1.28.534-2.296 1.55-2.83 2.83z"/></g></svg>