<svg width="36" height="32" viewBox="0 0 36 32" xmlns="http://www.w3.org/2000/svg"><title>tooth (1)</title><path d="M34.182 9.78c-1.156-.672-2.53-.68-3.677-.026-.772.44-1.642.78-2.518.978-.057.013-.113.028-.17.042 1.6-1.64 2.178-4.053 1.51-6.333l-.003-.01c-.614-2.02-2.26-3.61-4.3-4.15-2.29-.634-4.637-.017-6.28 1.654-.2.203-.463.315-.744.315-.28 0-.545-.113-.746-.32-1.64-1.667-3.988-2.284-6.28-1.648C8.937.82 7.29 2.41 6.676 4.432l-.003.01c-.68 2.32-.068 4.782 1.598 6.423.128.128.25.26.367.395-.426-.2-.877-.36-1.348-.475-.888-.217-1.694-.69-2.212-1.302-.78-.918-2.054-1.26-3.173-.85C.73 9.066 0 10.216 0 11.637V28.58c0 1.746 1.42 3.165 3.164 3.165h29.672c1.745 0 3.164-1.42 3.164-3.164V12.903c0-1.295-.68-2.462-1.818-3.123zM8.696 5.04c.405-1.328 1.486-2.37 2.822-2.72l.015-.004c1.544-.43 3.12-.02 4.214 1.09.598.614 1.398.952 2.253.952.855 0 1.655-.338 2.25-.948 1.097-1.115 2.673-1.524 4.217-1.094.005 0 .01.002.015.004 1.336.35 2.417 1.392 2.822 2.72.466 1.598.07 3.214-1.058 4.325l-.006.006c-.52.52-.976 1.097-1.35 1.708-.814 1.303-1.33 2.844-1.526 4.52-.062.345-.093.698-.093 1.053l.003 5.532c0 .582-.473 1.055-1.054 1.055-.583 0-1.056-.473-1.056-1.055v-4.218c0-1.745-1.42-3.164-3.164-3.164-1.745 0-3.164 1.42-3.164 3.164v4.218c0 .582-.473 1.055-1.055 1.055-.542 0-.942-.405-1.034-1.014-.013-.087-.02-.178-.02-.273l.004-1.266c.003-1.15.008-2.583.003-3.076 0-.062-.004-.124-.006-.186v-.28c0-2.273-.56-4.37-1.612-6.06-.38-.615-.835-1.19-1.355-1.71l-.006-.007C8.624 8.255 8.23 6.638 8.696 5.04zM33.89 28.58c0 .582-.473 1.056-1.054 1.056H3.164c-.58 0-1.055-.474-1.055-1.055V11.637c0-.536.185-.898.522-1.022.074-.027.16-.043.248-.043.2 0 .422.08.59.278.81.956 1.99 1.662 3.32 1.986 2.17.53 3.72 2.408 3.827 4.607v4.51c0 1.936 1.36 3.396 3.164 3.396 1.746 0 3.165-1.42 3.165-3.164v-4.218c0-.582.473-1.055 1.055-1.055.58 0 1.055.472 1.055 1.054v4.218c0 1.745 1.42 3.164 3.164 3.164.326 0 .64-.05.94-.142 1.286-.4 2.223-1.604 2.223-3.022v-5.04c0-.417.023-.823.067-1.22.288-1.52 1.463-2.783 3.005-3.133 1.09-.25 2.133-.654 3.096-1.205.487-.277 1.075-.27 1.574.02.23.133.767.527.767 1.297v15.68z" fill-rule="nonzero" fill="#247A85"/></svg>