<svg width="36" height="26" viewBox="0 0 36 26" xmlns="http://www.w3.org/2000/svg"><title>braces</title><path d="M33.78 7.317C33.23 3.172 29.66 0 25.42 0c-1.904 0-3.77.653-5.257 1.838-1.27 1.013-2.98 1.014-4.25 0C14.423.653 12.556 0 10.65 0 6.418 0 2.85 3.163 2.292 7.3c-.24.168-.468.354-.682.56C.572 8.864 0 10.192 0 11.602v10.546c0 1.745 1.42 3.165 3.164 3.165h4.324c.81 0 1.55-.307 2.11-.81.56.503 1.3.81 2.11.81h4.218c.81 0 1.55-.307 2.11-.81.56.503 1.3.81 2.11.81h4.217c.81 0 1.55-.307 2.11-.81.56.503 1.3.81 2.11.81H32.8c1.765 0 3.2-1.42 3.2-3.165V11.602c0-1.764-.877-3.327-2.22-4.285zM8.544 22.147c0 .583-.473 1.056-1.055 1.056H3.164c-.58 0-1.055-.473-1.055-1.055v-3.164h2.214v1.055c0 .582.472 1.054 1.055 1.054.58 0 1.054-.472 1.054-1.055v-1.056h2.11v3.164zm0-5.272h-2.11V15.82c0-.582-.472-1.054-1.054-1.054-.584 0-1.056.472-1.056 1.054v1.055H2.11V15.82c0-1.744 1.42-3.164 3.163-3.164 1.773 0 3.27 1.45 3.27 3.164v1.055zm8.437 5.273c0 .582-.473 1.055-1.054 1.055h-4.22c-.58 0-1.054-.473-1.054-1.055v-3.164h2.11v1.055c0 .582.472 1.054 1.054 1.054.583 0 1.055-.472 1.055-1.055v-1.056h2.11v3.164zm0-5.273h-2.11V15.82c0-.582-.47-1.054-1.054-1.054-.582 0-1.054.472-1.054 1.054v1.055h-2.11V15.82c0-1.744 1.42-3.164 3.164-3.164 1.745 0 3.164 1.42 3.164 3.164v1.055zm8.438 5.273c0 .582-.473 1.055-1.055 1.055h-4.218c-.582 0-1.055-.473-1.055-1.055v-3.164h2.11v1.055c0 .582.47 1.054 1.054 1.054.582 0 1.055-.472 1.055-1.055v-1.056h2.108v3.164zm0-5.273h-2.11V15.82c0-.582-.472-1.054-1.054-1.054-.583 0-1.055.472-1.055 1.054v1.055h-2.11V15.82c0-1.744 1.42-3.164 3.164-3.164 1.745 0 3.164 1.42 3.164 3.164v1.055zm8.473 5.273c0 .572-.498 1.055-1.09 1.055h-4.218c-.582 0-1.055-.473-1.055-1.055v-3.164h2.11v1.055c0 .582.472 1.054 1.054 1.054.584 0 1.056-.472 1.056-1.055v-1.056h2.145v3.164zm0-5.273h-2.144V15.82c0-.582-.472-1.054-1.055-1.054-.58 0-1.053.472-1.053 1.054v1.055h-2.11V15.82c0-1.744 1.42-3.164 3.164-3.164 1.765 0 3.2 1.42 3.2 3.164v1.055zm0-5.26c-.89-.67-1.998-1.068-3.2-1.068-1.722 0-3.254.83-4.217 2.113-.963-1.282-2.496-2.113-4.22-2.113-1.722 0-3.255.83-4.218 2.113-.963-1.282-2.495-2.113-4.22-2.113-1.732 0-3.272.84-4.234 2.135-.16-.21-.34-.413-.538-.603-1.022-.99-2.36-1.533-3.77-1.533-1.185 0-2.28.394-3.163 1.057v-.002c0-1.118.635-2.122 1.568-2.686.127-.05.72-.48 1.7-.48l1.45.002c.583 0 1.056-.473 1.056-1.055 0-.583-.473-1.055-1.055-1.055H5.38c-.24 0-.476.017-.71.048.86-2.49 3.234-4.267 5.982-4.267 1.45 0 2.812.476 3.942 1.377 1.003.8 2.193 1.223 3.44 1.223 1.25 0 2.44-.423 3.442-1.223 1.13-.9 2.493-1.378 3.942-1.378 2.75 0 5.122 1.777 5.982 4.267-.232-.03-.468-.05-.71-.05h-2.108c-.582 0-1.055.473-1.055 1.056 0 .582.473 1.054 1.055 1.054h2.11c1.757 0 3.2 1.436 3.2 3.165v.013z" fill-rule="nonzero" fill="#247A85"/></svg>