<svg width="36" height="36" viewBox="0 0 36 36" xmlns="http://www.w3.org/2000/svg"><title>tooth (2)</title><g fill-rule="nonzero" fill="#247A85"><path d="M36 9.554c-.002-.033-.004-.067-.008-.1-.28-2.562-1.522-4.942-3.493-6.702C30.52.986 27.99.014 25.376.014c-2 0-3.947.563-5.63 1.628-.512.325-1.117.496-1.747.496-.63 0-1.235-.17-1.748-.496C14.57.576 12.622.014 10.622.014c-2.614 0-5.143.972-7.12 2.738C1.53 4.512.288 6.892.007 9.454c-.004.033-.006.067-.007.1-.04 2.95.913 5.875 2.684 8.236 2.4 3.2 3.723 7.018 3.723 10.75v2.704c0 2.615 2.128 4.742 4.743 4.742s4.742-2.127 4.742-4.742v-3.248c0-1.163.946-2.108 2.108-2.108 1.162 0 2.108.945 2.108 2.108v3.248c0 2.615 2.127 4.742 4.742 4.742s4.743-2.127 4.743-4.742v-2.706c0-3.73 1.322-7.547 3.723-10.748 1.77-2.36 2.723-5.285 2.683-8.236zm-4.37 6.97c-2.673 3.565-4.145 7.83-4.145 12.014v2.706c0 1.453-1.182 2.635-2.635 2.635-1.453 0-2.634-1.183-2.634-2.636v-3.248c0-2.325-1.892-4.216-4.216-4.216-2.325 0-4.216 1.89-4.216 4.216v3.248c0 1.453-1.182 2.635-2.634 2.635-1.453 0-2.635-1.183-2.635-2.636v-2.706c0-4.183-1.472-8.45-4.145-12.013-1.482-1.976-2.284-4.42-2.262-6.89.49-4.218 4.22-7.514 8.515-7.514 1.6 0 3.157.45 4.502 1.303.85.538 1.845.823 2.875.823s2.024-.285 2.876-.823c1.344-.852 2.9-1.302 4.5-1.302 4.296 0 8.026 3.297 8.516 7.514.022 2.47-.78 4.915-2.262 6.89z"/><path d="M29.514 5.832C28.367 4.844 26.898 4.3 25.377 4.3c-1.2 0-2.365.335-3.373.972-1.188.754-2.573 1.153-4.004 1.153-1.432 0-2.815-.398-4.003-1.152-1.008-.637-2.175-.974-3.374-.974-1.52 0-2.99.544-4.137 1.533-2.024 1.744-2.573 4.786-1.367 7.57.29.67.75 1.357 1.285 2.152 1.323 1.97 3.135 4.67 3.92 9.39.075.453.434.805.888.87.454.067.898-.168 1.1-.58C13.366 23.07 15.6 21.672 18 21.672c2.4 0 4.633 1.4 5.688 3.563.178.366.548.592.947.592.05 0 .1-.003.152-.01.453-.067.812-.42.888-.87.785-4.722 2.597-7.42 3.92-9.392.534-.795.995-1.482 1.285-2.152 1.207-2.784.658-5.826-1.366-7.57zm-.568 6.733c-.213.493-.625 1.106-1.1 1.815-1.126 1.676-2.73 4.067-3.733 7.814-.47-.496-1.002-.936-1.585-1.308-1.353-.865-2.92-1.322-4.528-1.322-1.61 0-3.175.457-4.528 1.322-.583.372-1.115.812-1.585 1.308-1.002-3.746-2.607-6.137-3.732-7.814-.476-.71-.887-1.32-1.1-1.815-.698-1.61-.72-3.82.807-5.136.765-.66 1.745-1.023 2.76-1.023.8 0 1.58.224 2.248.647 1.524.967 3.298 1.48 5.13 1.48 1.832 0 3.607-.513 5.132-1.48.668-.423 1.445-.647 2.245-.647 1.016 0 1.997.363 2.76 1.022 1.527 1.314 1.506 3.526.81 5.135z"/><circle cx="18" cy="11.676" r="1.054"/><circle cx="13.784" cy="15.892" r="1.054"/><circle cx="24.323" cy="13.784" r="1.054"/></g></svg>