<svg width="36" height="36" viewBox="0 0 36 36" xmlns="http://www.w3.org/2000/svg"><title>tooth</title><g fill-rule="nonzero" fill="#247A85"><path d="M35.773 9.36c-.425-2.194-1.51-4.226-3.136-5.878C31.01 1.83 28.993.716 26.805.262c-3.137-.653-6.25-.07-8.843 1.64C15.418.24 12.295-.383 9.195.263 7.007.715 4.99 1.83 3.363 3.48 1.737 5.134.653 7.166.227 9.362c-.533 2.747-.122 5.468 1.19 7.868l.65 1.19c.912 1.668 2.756 2.745 4.698 2.745h2.89l.908 4.085-1.13.14c-.578.074-.988.6-.916 1.18.067.532.52.922 1.045.922.044 0 .088-.002.132-.008l1.328-.166.477 2.147-1.03.147c-.578.082-.978.617-.896 1.193.075.526.526.906 1.043.906.05 0 .1-.003.15-.01l1.19-.17.06.27c.542 2.433 2.707 4.2 5.15 4.2h1.668c2.44 0 4.606-1.767 5.147-4.2l.456-2.053 1.093-.156c.578-.08.978-.616.896-1.192-.082-.577-.617-.978-1.193-.895l-.306.044.45-2.023 1.19-.15c.578-.07.988-.598.916-1.176-.072-.578-.6-.988-1.177-.916l-.444.056.483-2.173h2.89c1.942 0 3.786-1.077 4.697-2.744l.65-1.19c1.313-2.4 1.724-5.12 1.19-7.87zm-13.85 21.982c-.328 1.477-1.627 2.548-3.088 2.548h-1.67c-1.46 0-2.76-1.07-3.088-2.548l-.025-.11 8.155-1.166-.284 1.276zm.773-3.477l-9.102 1.3-.47-2.11 10.03-1.253-.458 2.063zm.944-4.25l-10.975 1.372-.85-3.822h12.37l-.545 2.45zm9.092-7.396l-.65 1.19c-.547 1-1.665 1.646-2.847 1.646h-3.718-15.03-3.722c-1.182 0-2.3-.646-2.846-1.647l-.652-1.19c-1.073-1.965-1.41-4.198-.97-6.457C3 6.133 6.013 3.076 9.623 2.326c.662-.138 1.324-.205 1.98-.205 2.94 0 5.733 1.354 7.593 3.768.355.46 1.017.547 1.48.192.46-.356.546-1.018.19-1.48-.357-.464-.743-.896-1.154-1.295 1.998-1.118 4.32-1.466 6.663-.98 3.61.75 6.623 3.81 7.327 7.438.438 2.26.103 4.492-.97 6.456z"/><path d="M11.673 4.292c-4.07 0-7.382 3.31-7.382 7.382 0 .582.473 1.054 1.055 1.054.583 0 1.055-.472 1.055-1.054C6.4 8.766 8.765 6.4 11.673 6.4c.582 0 1.054-.47 1.054-1.054 0-.582-.472-1.054-1.054-1.054z"/></g></svg>