<svg width="36" height="32" viewBox="0 0 36 32" xmlns="http://www.w3.org/2000/svg"><title>teeth</title><path d="M34.412 7.9c-.21-.205-.433-.39-.667-.555-.555-4.142-4.125-7.31-8.362-7.31-1.904 0-3.77.653-5.257 1.838-1.272 1.014-2.98 1.014-4.252 0C14.388.688 12.52.035 10.617.035c-4.237 0-7.807 3.168-8.362 7.31-.234.166-.458.35-.667.554C.564 8.9 0 10.227 0 11.636v10.547c0 .85.348 1.65.98 2.254.613.586 1.414.91 2.254.91h4.22c.37 0 .724-.065 1.054-.182v3.416c0 1.745 1.42 3.164 3.164 3.164h4.22c1.743 0 3.163-1.42 3.163-3.164v-3.416c.33.117.685.182 1.054.182h4.218c.81 0 1.55-.306 2.11-.81.56.504 1.3.81 2.11.81h4.218c.84 0 1.64-.324 2.255-.91.632-.604.98-1.404.98-2.254V11.637c0-1.41-.564-2.736-1.588-3.738zM8.508 22.183c0 .58-.473 1.054-1.055 1.054h-4.22c-.598 0-1.124-.493-1.124-1.054v-6.33c0-1.714 1.48-3.163 3.234-3.163 1.744 0 3.164 1.42 3.164 3.165v6.33zm8.437 6.398c0 .582-.473 1.055-1.054 1.055h-4.218c-.582 0-1.055-.473-1.055-1.055v-6.398c0-1.745 1.42-3.164 3.164-3.164 1.746 0 3.165 1.42 3.165 3.164v6.398zm0-10.614c-.882-.664-1.978-1.058-3.164-1.058-1.185 0-2.28.394-3.163 1.058v-2.113c0-1.744 1.42-3.164 3.164-3.164 1.746 0 3.165 1.42 3.165 3.165v2.113zm8.438 4.216c0 .58-.473 1.054-1.055 1.054h-4.22c-.58 0-1.053-.473-1.053-1.054v-6.33c0-1.743 1.42-3.163 3.164-3.163 1.743 0 3.163 1.42 3.163 3.165v6.33zm8.508 0c0 .56-.525 1.054-1.124 1.054h-4.22c-.58 0-1.054-.473-1.054-1.054v-6.33c0-1.743 1.42-3.163 3.164-3.163 1.753 0 3.235 1.45 3.235 3.165v6.33zm0-10.513c-.93-.705-2.055-1.088-3.234-1.088-1.723 0-3.256.83-4.218 2.113-.963-1.282-2.496-2.113-4.22-2.113-1.722 0-3.255.83-4.218 2.113-.963-1.282-2.496-2.113-4.22-2.113-1.722 0-3.255.83-4.217 2.113-.963-1.282-2.496-2.113-4.22-2.113-1.178 0-2.304.383-3.234 1.09v-.035c0-1.142.656-2.165 1.612-2.722.033-.017.065-.035.096-.054.457-.246.978-.387 1.526-.387h1.45c.582 0 1.055-.473 1.055-1.055 0-.583-.474-1.055-1.056-1.055h-1.45c-.24 0-.475.017-.71.048.862-2.488 3.234-4.265 5.983-4.265 1.45 0 2.812.476 3.942 1.377 1.002.8 2.192 1.223 3.44 1.223 1.248 0 2.438-.423 3.44-1.223 1.13-.9 2.494-1.377 3.943-1.377 2.75 0 5.12 1.777 5.982 4.266-.234-.03-.47-.047-.71-.047h-2.108c-.583 0-1.055.472-1.055 1.055 0 .582.472 1.055 1.055 1.055h2.11c.543 0 1.06.14 1.516.383.037.024.075.045.115.064.95.56 1.603 1.58 1.603 2.717v.034z" fill-rule="nonzero" fill="#247A85"/></svg>