<svg width="32" height="27" viewBox="0 0 32 27" fill="none" xmlns="http://www.w3.org/2000/svg">
<path fill-rule="evenodd" clip-rule="evenodd" d="M2.92413 11.7046C11.0867 8.1483 16.5297 5.80378 19.2531 4.67103C27.029 1.43677 28.6448 0.874951 29.6979 0.856399C29.9295 0.852319 30.4474 0.909722 30.7829 1.18194C31.0662 1.41179 31.1441 1.72228 31.1814 1.94021C31.2187 2.15813 31.2651 2.65457 31.2282 3.04247C30.8068 7.46991 28.9835 18.2141 28.056 23.173C27.6635 25.2712 26.8906 25.9748 26.1424 26.0436C24.5164 26.1932 23.2817 24.969 21.7068 23.9367C19.2424 22.3213 17.8502 21.3157 15.4581 19.7393C12.6937 17.9176 14.4858 16.9163 16.0612 15.28C16.4735 14.8517 23.6378 8.33533 23.7764 7.74419C23.7938 7.67026 23.8099 7.39468 23.6462 7.24916C23.4824 7.10364 23.2408 7.1534 23.0664 7.19298C22.8193 7.24907 18.8824 9.85118 11.2559 14.9993C10.1384 15.7666 9.12625 16.1405 8.21939 16.1209C7.21964 16.0993 5.29653 15.5556 3.8669 15.0909C2.1134 14.5209 0.719751 14.2196 0.841107 13.2515C0.904316 12.7473 1.59866 12.2317 2.92413 11.7046Z" fill="white"/>
</svg>
