<svg width="31" height="32" viewBox="0 0 31 32" fill="none" xmlns="http://www.w3.org/2000/svg">
<path d="M27.0278 3.08295C26.2157 2.39583 22.9675 0.0221484 15.8465 0.0221484C15.8465 0.0221484 7.41366 -0.477574 3.29095 3.27034C0.979734 5.58156 0.167685 8.89222 0.105219 13.0774C0.0427539 17.2001 -0.0821766 25.0083 7.41366 27.1321V30.3178C7.41366 30.3178 7.35119 31.6296 8.22571 31.9419C9.28762 32.2542 9.84981 31.2548 10.8493 30.1929C11.4114 29.5682 12.161 28.7562 12.7232 28.0691C17.8454 28.5063 21.7807 27.5069 22.2804 27.382C23.2798 27.0072 29.1516 26.2576 30.0886 18.5119C31.088 10.4539 29.6513 5.39416 27.0278 3.08295ZM27.8398 17.8872C27.0902 24.3836 22.2804 24.8209 21.4059 25.1332C21.0311 25.1957 17.5955 26.0702 13.2229 25.8203C13.2229 25.8203 9.97474 29.6932 8.97529 30.7551C8.66297 31.0674 8.28817 31.0674 8.28817 30.3803C8.28817 29.943 8.28817 25.0083 8.28817 25.0083C1.97918 23.2592 2.35397 16.6379 2.41644 13.2023C2.4789 9.70427 3.10355 6.89333 5.03998 4.95691C8.53804 1.77118 15.7215 2.2709 15.7215 2.2709C21.7807 2.2709 24.6541 4.14486 25.3412 4.70705C27.59 6.64347 28.7143 11.2034 27.8398 17.8872ZM19.1571 12.89C19.0947 11.0785 18.1577 10.0791 16.4087 9.95413C15.8465 9.95413 15.784 10.7662 16.3462 10.7662C17.658 10.8911 18.2826 11.5158 18.4076 12.89C18.4076 13.4522 19.2196 13.3897 19.1571 12.89ZM20.4689 13.5771C20.4689 14.0768 21.281 14.1393 21.281 13.5771C21.3434 10.5788 19.407 8.08017 15.784 7.83031C15.2218 7.76785 15.1594 8.5799 15.7215 8.64236C18.8448 8.82976 20.5314 10.9536 20.4689 13.5771ZM23.4048 14.3892C23.3423 8.95469 19.6569 5.76896 15.0344 5.70649C14.5347 5.70649 14.5347 6.51854 15.0344 6.51854C19.1571 6.58101 22.5303 9.32948 22.5927 14.3892C22.5927 14.9514 23.4048 14.9514 23.4048 14.3892ZM22.6552 20.5108C22.9675 19.9486 22.9051 19.4489 22.4678 19.0741C21.6557 18.3245 20.5314 17.5124 19.5944 17.0127C18.9073 16.6379 18.2202 16.8878 17.9078 17.2626L17.3456 18.0122C17.0333 18.3869 16.4711 18.3245 16.4711 18.3245C12.286 17.2626 11.1616 13.0774 11.1616 13.0774C11.1616 13.0774 11.1616 12.5152 11.5364 12.2029L12.286 11.5782C12.6607 11.2659 12.8481 10.5788 12.4733 9.89167C12.286 9.51687 11.8487 8.82976 11.5364 8.45496C11.224 7.95524 10.412 7.08073 10.412 7.08073C10.0997 6.58101 9.53748 6.51854 8.97529 6.83087H8.91283C7.72599 7.45552 6.41421 8.76729 6.85147 10.0166C6.85147 10.0166 7.1638 11.141 8.47557 13.5147C9.10022 14.7015 9.78734 15.6385 10.412 16.4505C11.0991 17.325 12.0361 18.262 13.0355 19.0741C15.0344 20.6357 18.0952 22.2598 19.407 22.6346H19.4695C20.7188 23.0718 22.0305 21.7601 22.6552 20.5732V20.5108Z" fill="white"/>
</svg>
