<svg width="38" height="23" viewBox="0 0 38 23" fill="none" xmlns="http://www.w3.org/2000/svg">
<path fill-rule="evenodd" clip-rule="evenodd" d="M5.91772 0.5H1.83346C0.666509 0.5 0.433105 1.04927 0.433105 1.65477C0.433105 2.73638 1.81778 8.1006 6.88034 15.1952C10.2554 20.0403 15.0105 22.6667 19.3375 22.6667C21.9337 22.6667 22.2549 22.0833 22.2549 21.0786V17.4167C22.2549 16.25 22.5008 16.0171 23.3229 16.0171C23.9287 16.0171 24.9672 16.32 27.3903 18.656C30.1597 21.4246 30.6162 22.6667 32.1738 22.6667H36.2581C37.4251 22.6667 38.0085 22.0833 37.6719 20.9322C37.3036 19.7849 35.9814 18.1202 34.227 16.147C33.275 15.0222 31.8471 13.811 31.4144 13.2052C30.8087 12.4266 30.9817 12.0804 31.4144 11.3884C31.4144 11.3884 36.3905 4.38022 36.9097 2.00103C37.1693 1.13572 36.9098 0.5 35.6746 0.5H31.5903C30.5519 0.5 30.0731 1.04927 29.8134 1.65477C29.8134 1.65477 27.7365 6.71623 24.7942 10.004C23.8422 10.9557 23.4094 11.2585 22.8902 11.2585C22.6306 11.2585 22.2548 10.9557 22.2548 10.0906V2.00103C22.2548 0.9627 21.9534 0.5 21.0879 0.5H14.6697C14.0208 0.5 13.6304 0.981833 13.6304 1.43858C13.6304 2.42278 15.1016 2.64982 15.2533 5.41843V11.4317C15.2533 12.75 15.015 12.9891 14.4959 12.9891C13.1113 12.9891 9.74322 7.90495 7.74566 2.08748C7.35424 0.956751 6.96154 0.5 5.91772 0.5V0.5Z" fill="white"/>
</svg>
