<svg width="33" height="32" viewBox="0 0 33 32" fill="none" xmlns="http://www.w3.org/2000/svg">
<path d="M27.8929 4.71429C24.9643 1.71429 20.9643 0 16.6786 0C7.96429 0 0.821429 7.14286 0.821429 15.8571C0.821429 18.7143 1.60714 21.4286 2.96429 23.7857L0.75 32L9.10714 29.8571C11.4643 31.0714 14.0357 31.7857 16.6786 31.7857C25.4643 31.7857 32.75 24.6429 32.75 15.9286C32.75 11.6429 30.8929 7.71429 27.8929 4.71429ZM16.6786 29.0714C14.3214 29.0714 12.0357 28.4286 9.96429 27.2143L9.53571 26.9286L4.53571 28.2857L5.89286 23.4286L5.53571 22.9286C4.25 20.7857 3.53571 18.3571 3.53571 15.8571C3.53571 8.64286 9.46429 2.71429 16.75 2.71429C20.25 2.71429 23.5357 4.07143 26.0357 6.57143C28.5357 9.07143 30.0357 12.3571 30.0357 15.9286C30.0357 23.1429 23.9643 29.0714 16.6786 29.0714ZM23.9643 19.2143C23.5357 19 21.6071 18.0714 21.25 17.9286C20.8929 17.7857 20.6071 17.7143 20.3214 18.1429C20.1071 18.5 19.3214 19.4286 19.1071 19.7143C18.8214 19.9286 18.6071 20 18.25 19.7857C15.8929 18.6429 14.3929 17.7143 12.8214 15.0714C12.3929 14.3571 13.25 14.4286 13.9643 12.9286C14.1071 12.6429 14.0357 12.4286 13.9643 12.2143C13.8929 12 13.0357 10.0714 12.75 9.28571C12.3929 8.5 12.1071 8.57143 11.8214 8.57143C11.6071 8.57143 11.3214 8.57143 11.1071 8.57143C10.8214 8.57143 10.3929 8.64286 10.0357 9.07143C9.67857 9.5 8.67857 10.4286 8.67857 12.3571C8.67857 14.3571 10.0357 16.2143 10.25 16.5C10.4643 16.7143 13.0357 20.7143 17.0357 22.4286C19.5357 23.5714 20.5357 23.6429 21.8214 23.4286C22.5357 23.3571 24.1071 22.5 24.4643 21.5714C24.8214 20.6429 24.8214 19.8571 24.6786 19.7143C24.6071 19.5 24.3214 19.4286 23.9643 19.2143Z" fill="white"/>
</svg>
