<svg width="16" height="18" viewBox="0 0 16 18" fill="none" xmlns="http://www.w3.org/2000/svg">
<path d="M14.0368 2.29872L13.4924 16.2822C13.4768 16.6831 13.1233 17.0134 12.7114 17.0134H3.28853C2.87587 17.0134 2.52318 16.6835 2.50756 16.2822L1.96322 2.29872C1.95398 2.06241 1.74878 1.87826 1.50517 1.88702C1.26136 1.89598 1.07116 2.09486 1.0804 2.33098L1.62474 16.3144C1.65843 17.1755 2.40056 17.8695 3.28853 17.8695H12.7114C13.5984 17.8695 14.3415 17.1751 14.3752 16.3144L14.9196 2.33098C14.9288 2.09486 14.7386 1.89597 14.4948 1.88702C14.2512 1.87826 14.046 2.06241 14.0368 2.29872V2.29872Z" fill="white"/>
<path d="M7.66992 5.43166V15.1248C7.66992 15.361 7.87282 15.5525 8.12312 15.5525C8.37321 15.5525 8.5761 15.361 8.5761 15.1248V5.43166C8.5761 5.19541 8.37321 5.00391 8.12312 5.00391C7.87282 5.00391 7.66992 5.19541 7.66992 5.43166V5.43166Z" fill="white"/>
<path d="M4.29317 5.44418L4.60221 15.1373C4.60954 15.3736 4.82311 15.5593 5.07891 15.5523C5.33472 15.5454 5.53601 15.3483 5.52846 15.1122L5.21964 5.41912C5.21209 5.18287 4.99853 4.99713 4.74272 5.0041C4.48691 5.01106 4.28563 5.20813 4.29317 5.44418V5.44418Z" fill="white"/>
<path d="M10.8421 5.41912L10.5539 15.1122C10.5469 15.3483 10.7347 15.5454 10.9735 15.5523C11.2122 15.5593 11.4116 15.3736 11.4184 15.1373L11.7068 5.44418C11.7139 5.20813 11.526 5.01105 11.2873 5.0041C11.0485 4.99714 10.8492 5.18287 10.8421 5.41912V5.41912Z" fill="white"/>
<path d="M0.616735 2.5257H15.3831C15.6278 2.5257 15.826 2.34677 15.826 2.12604C15.826 1.90549 15.6278 1.72656 15.3831 1.72656H0.616735C0.372004 1.72656 0.173828 1.90549 0.173828 2.12604C0.173828 2.34677 0.372004 2.5257 0.616735 2.5257Z" fill="white"/>
<path d="M5.44801 2.20666L5.76524 1.41887C5.84961 1.20918 6.14264 1.01223 6.36906 1.01223H9.63022C9.8581 1.01223 10.1491 1.20774 10.234 1.41887L10.5513 2.20666L11.3772 1.87868L11.0598 1.09088C10.8398 0.54436 10.2219 0.128906 9.63022 0.128906H6.36907C5.77906 0.128906 5.15893 0.545816 4.9395 1.09088L4.62207 1.87868L5.44801 2.20666Z" fill="white"/>
</svg>
