<svg width="20" height="28" viewBox="0 0 20 28" fill="none" xmlns="http://www.w3.org/2000/svg">
<path d="M3.63281 22.5762H16.3668V22.9826H3.63281V22.5762Z" fill="#222222"/>
<path d="M3.63281 20.3262H16.3668V20.7326H3.63281V20.3262Z" fill="#222222"/>
<path d="M19.9967 3.97579C19.9967 3.97458 19.9963 3.97337 19.9963 3.97216C19.9957 3.96973 19.9953 3.96731 19.9949 3.96469C19.9926 3.91564 19.9748 3.867 19.9385 3.82946L16.2875 0.0583464C16.224 -0.00724914 16.1298 -0.0163328 16.0546 0.0250433H0.199119C0.0891071 0.0250433 0 0.117079 0 0.230717V26.9861C0 27.0998 0.0891021 27.1918 0.199119 27.1918H19.8009C19.9109 27.1918 20 27.0996 20 26.9861L19.9998 4.00937C19.9998 3.99787 19.9984 3.98676 19.9967 3.97587L19.9967 3.97579ZM16.3475 0.702006L19.3503 3.80362H16.3475V0.702006ZM19.6016 26.7806H0.398026V0.435904H15.9494V4.00901C15.9494 4.12265 16.0387 4.21469 16.1485 4.21469H19.6017L19.6016 26.7806Z" fill="#222222"/>
<path d="M3.56759 8.59903C3.92147 8.53686 4.41819 8.49023 5.11833 8.49023C5.82591 8.49023 6.3304 8.63031 6.66906 8.91006C6.99265 9.17446 7.21091 9.60983 7.21091 10.1231C7.21091 10.6364 7.04541 11.0717 6.74429 11.3672C6.3527 11.7483 5.77313 11.9193 5.09566 11.9193C4.9452 11.9193 4.80958 11.9114 4.70407 11.8959V13.7697H3.56738L3.56759 8.59903ZM4.70428 10.9785C4.80218 11.0019 4.92274 11.0096 5.08825 11.0096C5.69809 11.0096 6.07447 10.6907 6.07447 10.1542C6.07447 9.67199 5.75087 9.38439 5.17854 9.38439C4.94523 9.38439 4.78695 9.40781 4.70429 9.43102L4.70428 10.9785Z" fill="#222222"/>
<path d="M8.01665 8.59903C8.43834 8.52899 8.98761 8.49023 9.56738 8.49023C10.5309 8.49023 11.1558 8.66906 11.6451 9.05013C12.1721 9.45441 12.5033 10.0997 12.5033 11.0251C12.5033 12.0281 12.1496 12.7202 11.6603 13.1479C11.1259 13.6066 10.3128 13.8244 9.31897 13.8244C8.72434 13.8244 8.30289 13.7855 8.0166 13.7467L8.01665 8.59903ZM9.16835 12.8758C9.26624 12.8992 9.42433 12.8992 9.56736 12.8992C10.6064 12.9071 11.2838 12.3161 11.2838 11.0641C11.2914 9.97558 10.6741 9.40013 9.68792 9.40013C9.43194 9.40013 9.26643 9.42354 9.16853 9.44675L9.16835 12.8758Z" fill="#222222"/>
<path d="M13.3313 8.52755H16.4327V9.49942H14.4829V10.6969H16.3045V11.6611H14.4829V13.7683H13.3311V8.52734L13.3313 8.52755Z" fill="#222222"/>
</svg>
