<svg width="28" height="28" viewBox="0 0 28 28" fill="none" xmlns="http://www.w3.org/2000/svg">
<path d="M23.6486 6.6967H19.6812L18.4667 4.35768C18.1968 3.83792 17.6301 3.5 17.0094 3.5H10.9639C10.3432 3.5 9.77628 3.83793 9.50654 4.35768L8.29207 6.6967H4.32448C2.57028 6.6967 1.16675 8.04823 1.16675 9.7116V21.4592C1.16675 23.1225 2.57023 24.5 4.32448 24.5H23.6757C25.403 24.5 26.8334 23.1485 26.8334 21.4592V9.7116C26.8065 8.04823 25.4028 6.6967 23.6486 6.6967ZM13.9865 21.0952C10.5859 21.0952 7.83297 18.4442 7.83297 15.1695C7.83297 11.8946 10.5859 9.26972 13.9865 9.26972C17.3871 9.26972 20.14 11.9208 20.14 15.1955C20.14 18.4702 17.3871 21.0952 13.9865 21.0952Z" fill="#898785"/>
<path d="M13.9863 11.1426C11.6921 11.1426 9.80292 12.9618 9.80292 15.1711C9.80292 17.3804 11.6921 19.1996 13.9863 19.1996C16.2805 19.1996 18.1696 17.3804 18.1696 15.1711C18.1696 12.9618 16.2805 11.1426 13.9863 11.1426Z" fill="#898785"/>
</svg>
