<svg width="7" height="11" viewBox="0 0 7 11" fill="none" xmlns="http://www.w3.org/2000/svg">
<path d="M3.63541 0.195312C1.86508 0.195312 0.501742 1.13302 0.191082 2.62184C0.115719 2.98301 0.423363 3.28547 0.792316 3.28547C1.14855 3.28547 1.43209 3.00025 1.54317 2.66178C1.7753 1.95449 2.37988 1.28765 3.60675 1.28765C4.71025 1.28765 5.5128 1.86256 5.5128 2.78242C5.5128 3.71665 4.92522 4.29157 4.18 4.76587C2.97618 5.542 2.40293 6.05942 2.40293 7.26674C2.40293 7.53663 2.62172 7.75542 2.89161 7.75542H3.29017C3.53625 7.75542 3.73573 7.55593 3.73573 7.30986C3.73573 6.51935 4.05102 6.26064 4.93955 5.68573C5.91408 5.0677 6.87427 4.10472 6.87427 2.72493C6.87427 0.985818 5.25484 0.195312 3.63541 0.195312ZM3.09799 10.8025C3.5531 10.8025 3.92204 10.4311 3.92204 9.97602C3.92204 9.52091 3.5531 9.14958 3.09799 9.14958C2.64289 9.14958 2.27395 9.52091 2.27395 9.97602C2.27395 10.4311 2.64289 10.8025 3.09799 10.8025Z" fill="#141A20"/>
</svg>
