<svg width="16" height="16" viewBox="0 0 16 16" fill="none" xmlns="http://www.w3.org/2000/svg">
<path d="M6.87838 13.7508C8.41645 13.7523 9.91023 13.2347 11.118 12.2823L14.8344 16L16 14.834L12.2837 11.1163C13.5718 9.47167 14.0429 7.33054 13.5632 5.29716C13.0837 3.26368 11.706 1.55861 9.81887 0.66332C7.93172 -0.231969 5.74009 -0.220477 3.86257 0.694781C1.98505 1.61006 0.625297 3.32947 0.167332 5.36776C-0.290638 7.40625 0.202811 9.54237 1.50823 11.1731C2.81369 12.804 4.78984 13.7524 6.87838 13.7508ZM6.87838 1.6499C8.26381 1.6499 9.59263 2.20048 10.5722 3.18039C11.5518 4.1603 12.1023 5.48938 12.1023 6.87519C12.1023 8.26099 11.5518 9.59027 10.5722 10.5702C9.59263 11.5501 8.26376 12.1007 6.87838 12.1007C5.49299 12.1007 4.16431 11.5501 3.18471 10.5702C2.2051 9.59027 1.65469 8.26099 1.65469 6.87519C1.65469 5.48938 2.2051 4.1603 3.18471 3.18039C4.16431 2.20048 5.49299 1.6499 6.87838 1.6499Z" fill="#898785"/>
</svg>
