<svg width="24" height="24" viewBox="0 0 24 24" fill="none" xmlns="http://www.w3.org/2000/svg">
<path d="M4.28453 4.94068C2.66022 6.72034 1.5 9.21186 1.5 12.4153C1.5 14.7881 2.31215 17.0424 3.5884 18.822C5.09669 20.839 7.3011 22.0254 8.46133 22.5V21.6695C8.46133 21.6695 8.46133 19.7712 9.50552 18.1102C7.18508 17.9915 5.32873 15.7373 5.32873 13.1271C5.32873 12.178 5.6768 11.3475 6.25691 10.6356L6.37293 8.38136C6.37293 7.78814 6.95304 7.4322 7.53315 7.55085L9.96961 8.5C10.6657 8.38135 11.3619 8.26271 12.174 8.26271C12.9862 8.26271 13.6823 8.38135 14.3785 8.5L16.4669 7.4322C17.047 7.19491 17.6271 7.66949 17.6271 8.26271L17.7431 10.5169C18.3232 11.2288 18.6713 12.178 18.6713 13.0085C18.6713 15.6186 16.8149 17.7542 14.4945 17.9915C15.5387 19.6525 15.5387 21.5508 15.5387 21.5508V22.3814C16.6989 21.9068 18.9033 20.7203 20.4116 18.7034C21.6878 17.0424 22.5 14.6695 22.5 12.2966C22.5 9.09322 21.3398 6.60169 19.7155 4.82203C17.5111 2.5678 14.4945 1.5 11.942 1.5C9.3895 1.5 6.37293 2.5678 4.28453 4.94068Z" stroke="#505050" stroke-width="1.5" stroke-linecap="round" stroke-linejoin="round"/>
</svg>
