<svg width="24" height="20" viewBox="0 0 24 20" fill="none" xmlns="http://www.w3.org/2000/svg">
<path fill-rule="evenodd" clip-rule="evenodd" d="M3.71512 3.31223C3.94485 2.91931 4.29441 2.61338 4.71071 2.44091C9.38661 0.519697 14.6134 0.519697 19.2893 2.44091C19.7056 2.61338 20.0552 2.91931 20.2849 3.31223C22.3954 6.94905 23.3132 11.1744 22.9054 15.3769C22.8746 15.6882 22.7727 15.9878 22.6079 16.252C22.443 16.5161 22.2197 16.7374 21.9558 16.8982C21.188 17.361 20.3898 17.7696 19.5668 18.1209C19.1061 18.3202 18.5893 18.3394 18.1156 18.175C17.6418 18.0105 17.2444 17.6739 16.9996 17.2298C16.6914 16.6625 16.4086 16.0795 16.151 15.4811C13.4165 16.0943 10.5835 16.0943 7.84899 15.4811C7.59114 16.0785 7.30827 16.6615 7.00038 17.2298C6.75563 17.6739 6.35825 18.0105 5.88448 18.175C5.4107 18.3394 4.89389 18.3202 4.4332 18.1209C3.61022 17.7696 2.81201 17.361 2.04423 16.8982C1.78032 16.7374 1.55702 16.5161 1.39214 16.252C1.22725 15.9878 1.12535 15.6882 1.09455 15.3769C0.686828 11.1744 1.60463 6.94905 3.71512 3.31223ZM10.428 8.86268C10.4268 9.17322 10.3336 9.47644 10.1602 9.73406C9.98684 9.99169 9.74101 10.1922 9.45377 10.3102C9.16653 10.4282 8.85077 10.4584 8.54635 10.3971C8.24192 10.3358 7.96249 10.1857 7.74333 9.96568C7.52417 9.74567 7.37511 9.46566 7.31496 9.161C7.25481 8.85635 7.28628 8.5407 7.40539 8.25391C7.5245 7.96712 7.72592 7.72206 7.9842 7.54965C8.24248 7.37725 8.54606 7.28523 8.85659 7.28523C9.06377 7.28412 9.2691 7.32422 9.46065 7.40317C9.6522 7.48213 9.82614 7.59838 9.97236 7.74516C10.1186 7.89194 10.2342 8.06631 10.3124 8.25816C10.3906 8.45001 10.4299 8.65551 10.428 8.86268ZM16.4454 9.73406C16.6188 9.47644 16.712 9.17322 16.7132 8.86268C16.7151 8.65551 16.6758 8.45001 16.5976 8.25816C16.5194 8.06631 16.4038 7.89194 16.2576 7.74516C16.1113 7.59838 15.9374 7.48213 15.7459 7.40317C15.5543 7.32422 15.349 7.28412 15.1418 7.28523C14.8313 7.28523 14.5277 7.37725 14.2694 7.54965C14.0111 7.72206 13.8097 7.96712 13.6906 8.25391C13.5715 8.5407 13.54 8.85635 13.6002 9.161C13.6603 9.46566 13.8094 9.74567 14.0285 9.96568C14.2477 10.1857 14.5271 10.3358 14.8315 10.3971C15.136 10.4584 15.4517 10.4282 15.739 10.3102C16.0262 10.1922 16.272 9.99169 16.4454 9.73406Z" stroke="#505050" stroke-width="1.5" stroke-linecap="round" stroke-linejoin="round"/>
</svg>
