<svg width="65" height="64" viewBox="0 0 65 64" fill="none" xmlns="http://www.w3.org/2000/svg">
<g clip-path="url(#clip0_153_442)">
<rect x="0.5" width="64" height="64" rx="32" fill="white"/>
<g clip-path="url(#clip1_153_442)">
<path d="M32.5 64C50.1731 64 64.5 49.6731 64.5 32C64.5 14.3269 50.1731 0 32.5 0C14.8269 0 0.5 14.3269 0.5 32C0.5 49.6731 14.8269 64 32.5 64Z" fill="#6FBCF0"/>
<path fill-rule="evenodd" clip-rule="evenodd" d="M16.9044 48.203C20.1104 53.7564 25.8527 57.0714 32.2646 57.0714C38.6765 57.0714 44.4177 53.7564 47.6248 48.203C50.8307 42.6506 50.8307 36.0207 47.6248 30.4673L34.1152 7.06842C33.2927 5.64386 31.2365 5.64386 30.414 7.06842L16.9044 30.4673C13.6985 36.0196 13.6985 42.6496 16.9044 48.203ZM28.4589 18.2003L31.3392 13.2113C31.7505 12.499 32.7786 12.499 33.1899 13.2113L44.2708 32.4044C46.3067 35.9305 46.6888 40.0114 45.4172 43.7458C45.2848 43.1365 45.0998 42.5132 44.8503 41.8834C43.3198 38.0208 39.8588 35.0401 34.562 33.0235C30.9202 31.6421 28.5957 29.6105 27.6511 26.9846C26.4345 23.6002 27.7053 19.9095 28.4589 18.2003ZM23.5474 26.7074L20.2583 32.4044C17.7521 36.7452 17.7521 41.9271 20.2583 46.268C22.7645 50.6088 27.2522 53.1993 32.2646 53.1993C35.5937 53.1993 38.6923 52.0555 41.1321 50.0154C41.4503 49.2143 42.4356 46.2819 41.2183 43.2596C40.094 40.4687 37.3881 38.2408 33.1756 36.6361C28.4137 34.8298 25.3201 32.0099 23.9823 28.2571C23.7981 27.7404 23.6549 27.2226 23.5474 26.7074Z" fill="white"/>
</g>
</g>
<defs>
<clipPath id="clip0_153_442">
<rect x="0.5" width="64" height="64" rx="32" fill="white"/>
</clipPath>
<clipPath id="clip1_153_442">
<rect width="64" height="64" fill="white" transform="translate(0.5)"/>
</clipPath>
</defs>
</svg>
