<svg width="48" height="48" viewBox="0 0 48 48" fill="none" xmlns="http://www.w3.org/2000/svg">
<path d="M45.9998 8.00003V20M45.9998 20H33.9998M45.9998 20L36.7398 11.28C33.981 8.51951 30.3997 6.7304 26.5357 6.18231C22.6716 5.63423 18.7341 6.35686 15.3165 8.24131C11.8988 10.1258 9.18625 13.0699 7.58748 16.6302C5.98871 20.1904 5.59037 24.1738 6.45249 27.9801C7.31461 31.7865 9.39047 35.2095 12.3673 37.7334C15.3441 40.2573 19.0605 41.7453 22.9566 41.9732C26.8527 42.2011 30.7173 41.1566 33.9681 38.997C37.2189 36.8375 39.6797 33.6799 40.9798 30" stroke="white" stroke-width="2" stroke-linecap="round" stroke-linejoin="round"/>
</svg>
