<?xml version="1.0" encoding="UTF-8"?>
<svg width="29px" height="29px" viewBox="0 0 29 29" version="1.1" xmlns="http://www.w3.org/2000/svg" xmlns:xlink="http://www.w3.org/1999/xlink">
    <!-- Generator: Sketch 46.2 (44496) - http://www.bohemiancoding.com/sketch -->
    <title>salami</title>
    <desc>Created with Sketch.</desc>
    <defs></defs>
    <g id="Index+" stroke="none" stroke-width="1" fill="none" fill-rule="evenodd">
        <g id="WILD_FISH_index_1440" transform="translate(-910.000000, -1932.000000)" fill-rule="nonzero" fill="#3A6390">
            <g id="Catalog2" transform="translate(40.000000, 1863.000000)">
                <g id="Group-58" transform="translate(0.000000, 40.000000)">
                    <g id="salami" transform="translate(870.000000, 29.000000)">
                        <path d="M27.5199367,13.8067754 C27.5196535,13.8064355 27.5193703,13.806209 27.5190305,13.8058691 L17.4316136,3.71840039 C14.1668465,0.453691406 9.13438124,0.00866601563 5.38703573,2.38230469 L5.38703573,0 L3.43214028,0 L3.43214028,3.43213867 L0,3.43213867 L0,5.3870332 L2.37896401,5.3870332 C1.4016862,6.92414648 0.878269943,8.70940234 0.878269943,10.5749746 C0.878269943,13.1650938 1.88692667,15.6000742 3.71840213,17.4315488 L13.8067819,27.5198672 C14.7820206,28.4951055 16.1168142,29 17.6635571,29 C18.1998874,29 18.7619893,28.9392246 19.3431224,28.8162578 C21.4484554,28.3708926 23.5876595,27.1458125 25.3666857,25.3666738 C27.1458252,23.5875918 28.3709059,21.448332 28.8162713,19.3430566 C29.2936954,17.0862676 28.8334334,15.1202148 27.5199367,13.8067754 Z M12.5105039,21.9835859 C12.4160839,22.4300273 12.3589335,22.8648008 12.3372402,23.2856973 L5.10083052,16.049291 C3.63848217,14.5870566 2.83322203,12.6429805 2.83322203,10.5750312 C2.83322203,8.50713867 3.63848217,6.56300586 5.10077388,5.10071484 C8.11926748,2.0822793 13.0308049,2.08222266 16.0493552,5.10071484 L23.2857082,12.3370645 C22.8648115,12.3587578 22.4299812,12.4159082 21.9835962,12.5103281 C19.8783199,12.9556934 17.7391157,14.1807734 15.9600329,15.9599121 C14.1810066,17.7390508 12.9558694,19.8782539 12.5105039,21.9835859 Z M26.9037431,18.938416 C26.5357488,20.6777363 25.4989416,22.4697324 23.9843706,23.984416 C22.4697996,25.4989863 20.6778027,26.5357363 18.9384815,26.9037305 C17.3505042,27.2397227 16.0191091,26.9675078 15.1890403,26.1376094 C14.3591415,25.3076543 14.0869832,23.9760898 14.4229189,22.3881699 C14.7908565,20.6488496 15.8277203,18.8568535 17.3422347,17.3421699 C18.8568057,15.8275996 20.6488593,14.7908496 22.3882371,14.4228555 C22.8320166,14.329002 23.2557453,14.2826133 23.654099,14.2826133 C24.6812206,14.2826133 25.5396663,14.5909648 26.1376783,15.1890332 C26.9675771,16.0190449 27.2397354,17.3506094 26.9037431,18.938416 Z" id="Shape"></path>
                        <path d="M25.5842398,16.501176 C25.0794874,15.996372 24.3269391,15.8049083 23.5199953,15.9756609 C22.8531372,16.1167124 22.1848565,16.4954861 21.6381125,17.0422244 C20.3800153,18.3003085 20.1423475,20.0336094 21.0970016,20.9883673 C21.4910282,21.3823329 22.0172885,21.5732276 22.5883285,21.5731707 C23.401076,21.5731138 24.3041795,21.1861467 25.0431288,20.447262 C25.5898728,19.9005806 25.9685936,19.2322501 26.1097035,18.5653989 C26.2804579,17.758179 26.0889923,17.0058094 25.5842398,16.501176 Z M23.6545618,19.0585388 C23.128586,19.5845091 22.6009601,19.6481786 22.4868773,19.5983923 C22.4369198,19.4839124 22.5008745,18.9566334 23.0267365,18.43072 C23.5526554,17.9048066 24.0800537,17.8409095 24.194421,17.8908665 C24.2443785,18.0052895 24.1804807,18.5326254 23.6545618,19.0585388 Z" id="Shape"></path>
                        <path d="M14.2068367,5.86296027 C13.301399,5.13596504 12.2345635,4.56097843 11.2027063,4.24390244 L10.6097561,6.13169592 C12.2818189,6.64551252 13.9715445,8.0197185 14.3762841,9.19512195 L16.2682927,8.55776255 C15.8593256,7.37027401 14.9215157,6.43691593 14.2068367,5.86296027 Z" id="Shape"></path>
                    </g>
                </g>
            </g>
        </g>
    </g>
</svg>