<?xml version="1.0" encoding="UTF-8"?>
<svg width="33px" height="29px" viewBox="0 0 33 29" version="1.1" xmlns="http://www.w3.org/2000/svg" xmlns:xlink="http://www.w3.org/1999/xlink">
    <!-- Generator: Sketch 46.2 (44496) - http://www.bohemiancoding.com/sketch -->
    <title>shrimp</title>
    <desc>Created with Sketch.</desc>
    <defs></defs>
    <g id="Index+" stroke="none" stroke-width="1" fill="none" fill-rule="evenodd">
        <g id="WILD_FISH_index_1440" transform="translate(-727.000000, -1932.000000)" fill-rule="nonzero" fill="#3A6390">
            <g id="Catalog2" transform="translate(40.000000, 1863.000000)">
                <g id="Group-58" transform="translate(0.000000, 40.000000)">
                    <g id="shrimp" transform="translate(687.000000, 29.000000)">
                        <path d="M19.7186586,3.09412115 L8.13430837,3.09412115 L0.841,0.0387092511 L0,2.04616079 L5.03814317,4.15677313 L6.3876652e-05,6.26668282 L0.840744493,8.27426211 L6.90033921,5.73663436 C7.07395595,6.96689868 7.4732489,8.77575771 8.39160352,10.5951564 C9.67661013,13.1408326 12.1993546,16.1045176 17.0840022,16.9062974 L10.9452643,22.3803348 L5.08330396,16.1564493 L3.49890749,17.6487357 L10.8131035,25.4144758 L10.8357159,25.3942907 C13.2323678,27.672707 16.4278612,28.9612907 19.7586454,28.9612907 C26.8972445,28.9612907 32.7048458,23.1536894 32.7048458,16.0150903 C32.7048458,8.89035242 26.8792313,3.09412115 19.7186586,3.09412115 Z M20.8068612,5.32482159 C24.9632511,5.73970044 28.4324559,8.50479295 29.8463656,12.259207 L20.8068612,14.6275617 L20.8068612,5.32482159 Z M10.366989,9.67795154 C9.51634361,8.01862775 9.1735815,6.33094273 9.03573568,5.27059031 L18.6304559,5.27059031 L18.6304559,14.8979515 C14.7782467,14.6174053 12.0011454,12.8654604 10.366989,9.67795154 Z M19.7585815,26.78463 C17.0482313,26.7846938 14.4455132,25.7585793 12.46687,23.9395 L19.3520705,17.799804 L23.0885352,26.2570727 C22.039489,26.5989405 20.9204339,26.78463 19.7585815,26.78463 Z M25.0788678,25.3759581 L21.2704141,16.7559317 L30.400815,14.3637511 C30.484685,14.9021674 30.5284405,15.4534868 30.5284405,16.0148348 C30.5283767,20.0195815 28.3310198,23.5204692 25.0788678,25.3759581 Z" id="Shape"></path>
                        <path d="M13.0172952,6.48961233 C12.5197599,6.48961233 12.1159956,6.89114097 12.1159956,7.39040088 C12.1159956,7.88640308 12.5196322,8.29061454 13.0172952,8.29061454 C13.5148943,8.29061454 13.9191057,7.88646696 13.9191057,7.39040088 C13.9190419,6.89120485 13.5148943,6.48961233 13.0172952,6.48961233 Z" id="Shape"></path>
                    </g>
                </g>
            </g>
        </g>
    </g>
</svg>