<?xml version="1.0" encoding="utf-8"?>
<!-- Generator: Adobe Illustrator 16.0.0, SVG Export Plug-In . SVG Version: 6.00 Build 0)  -->
<!DOCTYPE svg PUBLIC "-//W3C//DTD SVG 1.1//EN" "http://www.w3.org/Graphics/SVG/1.1/DTD/svg11.dtd">
<svg version="1.1" id="Layer_1" xmlns="http://www.w3.org/2000/svg" xmlns:xlink="http://www.w3.org/1999/xlink" x="0px" y="0px"
	 width="150px" height="50px" viewBox="0 0 150 50" enable-background="new 0 0 150 50" xml:space="preserve">
<g>
	<path fill-rule="evenodd" clip-rule="evenodd" fill="#FFFFFF" d="M20.412,17.398c-1.603,0.86-2.302,1.926-2.634,2.685
		c1.96-0.827,2.13-1.295,4.79-2.489c1.602-0.733,2.336-0.792,2.336-3.12c0-0.63-0.104-2.258-3.769-2.258
		c-2.591,0-7.652,0.495-12.076,2.625c-3.93,1.892-4.533,3.315-4.533,6.708c0,2.259,0.17,2.489,7.96,4.014
		c1.593,0.332,6.093,1.193,6.093,2.991c0,2.327-10.857,3.92-12.954,3.92c-1.065,0-1.832-0.4-1.832-0.902
		c0-0.196,0.136-0.393,0.136-0.495c0-0.102-0.298-0.033-0.503,0C0.034,31.741,0,34.427,0,34.998c0,2.019,3.86,1.892,5.488,1.892
		c5.864,0,10.159-1.73,11.625-2.395c3.494-1.595,4.193-4.85,4.193-5.472c0-3.256-4.363-4.884-10.756-6.146
		c-1.228-0.238-2.692-0.537-2.692-1.431c0-1.594,5.557-4.551,9.987-4.551C18.775,16.895,19.645,17.065,20.412,17.398z M29.6,32.603
		c-0.238,0.929-0.503,2.396-0.503,3.188c0,1.363,0.665,1.857,1.363,1.857c1.397,0,6.23-4.048,6.23-4.747
		c0-0.162-0.136-0.264-0.272-0.264c-0.162,0-0.393,0.332-1.56,0.997c-0.47,0.264-1.432,0.699-1.901,0.699
		c-0.631,0-0.86-0.665-0.86-1.364c0-1.228,0.699-2.055,1.1-2.489l2.957-3.221c0.103-0.137,0.137-0.171,0.137-0.401V26.56
		c-0.034-1.457-0.503-1.824-0.836-1.824c-0.229,0-0.4,0.196-0.562,0.367l-5.931,5.839c-0.495,0.502-2.592,2.292-3.427,2.292
		c-0.469,0-1.031-0.529-1.031-1.79c0-0.333,0.068-0.631,0.196-0.964c1.065-0.699,4.662-3.025,4.662-4.712
		c0-0.401-0.699-0.733-1.397-0.733c-2.43,0-5.66,5.574-5.66,7.406c0,2.259,0.801,4.576,2.038,4.576
		C25.705,37.017,27.964,34.732,29.6,32.603z M43.475,26.893c0.204,0.503,0.341,1.03,0.4,1.559c0.033,0.469,0.033,0.896,0,1.364
		c-0.162,2.292-1.56,3.452-2.497,3.452c-1.261,0-0.861-2.821-3.358-2.821c-0.962,0-1.329,0.929-1.329,1.56
		c0,2.122,3.46,4.918,5.055,4.918c1.337,0,7.158-3.725,7.158-5.148c0-0.102-0.127-0.17-0.23-0.17c-0.195,0-0.435,0.204-1.134,0.732
		c-2.164,1.56-3.06,1.628-3.298,1.628c-0.265,0-0.562-0.068-0.827-0.162c2.396-2.097,3.794-4.78,3.794-6.775
		c0-1.56-0.896-4.85-1.765-4.85c-0.333,0-0.665,0.367-1.628,1.262c-0.366,0.333-0.904,0.733-0.699,1.893l-3.732,3.383l0.835,1.064
		L43.475,26.893z M51,31.076c1.534-1.363,5.692-6.145,7.125-7.968c0.733-0.963,4.995-6.511,5.267-7.67
		c0.026-0.102,0.026-0.23,0-0.332c-0.102-0.265-0.502-0.597-0.938-0.733c-1.661,0.102-7.321,7.407-7.96,8.233
		c-5.991,7.875-5.522,8.703-5.591,12.127v0.861c0.068,1.091,0.4,1.296,0.665,1.296c0.664,0,1.202-0.665,2.83-2.489
		c3.996-4.448,4.593-4.517,4.934-4.517c0.162,0,0.393,0.033,0.393,0.128c0,0.299-0.733,1.235-1.33,2.198
		c-1.466,2.318-1.466,3.351-1.466,3.75c0,0.793,0.571,1.688,1.568,1.688c1.329,0,2.591-1.262,3.733-2.19
		c2.488-2.054,2.625-2.488,2.625-2.685c0-0.136-0.197-0.272-0.333-0.272c-0.196,0-0.399,0.204-0.903,0.639
		c-0.758,0.69-1.926,1.425-2.624,1.425c-0.47,0-0.964-0.265-0.964-1.364c0-0.427,0.265-1.296,1.525-2.949
		c1.339-1.765,2.165-2.225,2.165-2.659c0-0.503-0.631-1.56-1.065-1.56c-0.826,0-3.597,1.96-4.595,2.787
		c-2.828,2.36-3.859,4.381-4.49,4.381c-0.605,0-0.605-1.058-0.605-1.424C50.966,31.537,50.966,31.308,51,31.076z M70.943,24.403
		c1.031-0.298,1.935-1.432,1.935-2.591c0-0.792-0.264-1.397-1.134-1.397c-1.329,0-2.6,1.227-2.6,2.659
		c0,1.099,0.767,1.397,1.134,1.397C70.518,24.472,70.747,24.472,70.943,24.403z M62.454,33.6c0,2.259,0.938,4.185,2.762,4.185
		c1.466,0,3.068-0.86,5.463-3.357c0.528-0.529,0.665-0.759,0.665-0.964c0-0.128-0.068-0.298-0.332-0.298
		c-0.333,0-0.494,0.238-0.964,0.537c-1.397,0.895-2.268,1.261-3.034,1.261c-0.826,0-1.994-0.204-1.994-2.156
		c0-0.57-0.034-0.937,0.163-1.363c2.931-1.33,4.466-3.223,4.466-4.714c0-0.468,0.067-1.167-0.768-1.167
		c-0.802,0-1.432,0.332-1.935,0.768C63.085,29.78,62.454,31.477,62.454,33.6z"/>
	<path fill-rule="evenodd" clip-rule="evenodd" fill="#FFFFFF" d="M86.88,25.699c-0.834,0.298-1.567,0.459-2.598,0.459
		c-2.729,0-3.163-0.264-3.163-1.021c-0.537,0.69-1.534,2.054-1.534,2.948c0,0.963,0.068,1.594,2.199,1.594
		c0.4,0,0.767,0,1.168-0.033c-3.299,3.52-4.101,4.721-4.101,5.445c0,0.597,0.938,1.56,2.131,1.662
		c-0.068-0.195-0.137-0.367-0.137-0.562c0-1.525,4.066-5.548,5.2-6.579c2.301-0.129,4.432-0.325,6.426-0.597
		c-1.628,1.866-3.162,4.619-3.162,6.579c0,0.401,0.128,0.759,0.264,1.159l2.898-1.594c-0.034-0.333-0.034-0.699-0.034-1.031
		c0-1.952,1.202-3.222,2.728-5.208c0.997-0.137,2.002-0.17,2.999-0.17c0.333,0,0.699,0,1.032,0.033l2.267-4.15
		c-0.307,0-0.64-0.034-0.938-0.034c-0.895,0-1.662-0.034-2.659,0.068c4.091-5.94,5.693-6.478,5.693-7.969
		c0-0.469-0.068-0.929-0.273-0.929c-0.562,0-7.389,7.969-8.121,8.897c-2.259,0.264-3.988,0.469-5.19,0.63l5.958-6.673
		c0.698-0.767,1.234-1.525,1.234-2.693c0-3.349-1.234-3.085-5.097-3.085c-5.292,0-10.585,1.56-13.38,2.821
		c-0.836,0.367-3.562,1.696-3.562,5.676c0,0.699,0.4,1.134,0.699,1.364l5.658-2.787c-0.033-0.136-0.068-0.23-0.068-0.367
		c0-0.196,0.068-0.4,0.163-0.596c2.198-2.029,9.195-3.222,11.522-3.222c0.332,0,1.227,0.102,1.227,0.929
		c0,0.86-1.524,2.693-1.857,3.06L86.88,25.699z M110.65,26.398c0.034-0.299,0.162-0.606,0.162-0.836
		c0-0.392-0.801-0.963-1.832-0.963c-3.392,0-8.225,4.687-8.225,7.773c0,1.729,0.971,4.781,3.631,4.781
		c1.363,0,2.863-0.596,4.363-2.429c0.23,0.034,0.435,0.034,0.665,0c1.568-0.128,3.366-1.423,3.366-1.952
		c0-0.136-0.103-0.238-0.366-0.238c-0.639,0-0.665,0.597-1.432,0.597c-0.503,0-0.768-0.332-0.768-0.562
		c0-0.095,0.033-0.162,0.102-0.264c0.495-0.828,0.997-1.825,1.228-2.924c0.103-0.366,0.171-0.759,0.171-1.16
		C111.716,27.659,111.682,26.696,110.65,26.398z M107.616,33.735c-0.732,0.665-1.764,1.39-2.897,1.39
		c-0.426,0-1.662,0.034-1.662-1.423c0-1.696,0.732-2.728,2.028-4.023c0.605-0.597,2.336-2.02,3.068-2.02
		c0.196,0,0.495,0.162,0.495,0.332c0,0.298-0.333,0.656-1.032,2.523c-0.195,0.562-0.332,1.32-0.332,2.156
		C107.284,33.037,107.455,33.403,107.616,33.735z M120.068,32.44c-0.23,0.929-0.495,2.386-0.495,3.188
		c0,1.354,0.665,1.857,1.364,1.857c1.397,0,6.222-4.049,6.222-4.748c0-0.17-0.128-0.265-0.264-0.265
		c-0.172,0-0.401,0.325-1.569,0.989c-0.46,0.272-1.432,0.699-1.892,0.699c-0.639,0-0.869-0.664-0.869-1.363
		c0-1.228,0.698-2.055,1.099-2.488l2.967-3.223c0.093-0.128,0.128-0.162,0.128-0.392v-0.298c-0.035-1.467-0.494-1.833-0.827-1.833
		c-0.238,0-0.4,0.205-0.571,0.366l-5.922,5.846c-0.504,0.495-2.601,2.294-3.427,2.294c-0.469,0-1.031-0.537-1.031-1.799
		c0-0.331,0.06-0.63,0.196-0.962c1.065-0.699,4.661-3.019,4.661-4.714c0-0.4-0.698-0.733-1.396-0.733c-2.43,0-5.66,5.583-5.66,7.406
		c0,2.259,0.792,4.586,2.028,4.586C116.174,36.855,118.441,34.563,120.068,32.44z M133.951,26.721
		c0.205,0.503,0.333,1.032,0.401,1.568c0.033,0.461,0.033,0.896,0,1.356c-0.171,2.293-1.568,3.459-2.497,3.459
		c-1.262,0-0.87-2.829-3.358-2.829c-0.972,0-1.338,0.938-1.338,1.56c0,2.131,3.468,4.918,5.062,4.918
		c1.33,0,7.159-3.716,7.159-5.147c0-0.094-0.137-0.162-0.23-0.162c-0.205,0-0.435,0.196-1.134,0.732
		c-2.164,1.56-3.067,1.62-3.298,1.62c-0.265,0-0.562-0.061-0.835-0.162c2.403-2.097,3.801-4.782,3.801-6.776
		c0-1.56-0.903-4.849-1.764-4.849c-0.333,0-0.665,0.366-1.637,1.261c-0.366,0.332-0.896,0.733-0.699,1.901l-3.724,3.383l0.826,1.058
		L133.951,26.721z M142.346,32.176c3.188-0.536,7.586-3.955,7.586-6.281c0-0.528-0.265-1.627-1.96-1.627
		c-3.665,0-8.591,5.344-8.591,9.699c0,2.592,1.594,3.818,3.196,3.818c1.892,0,3.127-1.065,4.755-2.454
		c0.674-0.537,2.668-2.327,2.668-2.856c0-0.366-0.068-0.502-0.205-0.502c-0.264,0-0.494,0.4-2.122,1.432
		c-2.07,1.321-2.932,1.39-3.366,1.39C142.406,34.793,142.278,32.936,142.346,32.176z M142.346,30.941
		c0.598-2.09,2.558-4.91,4.125-4.91c0.562,0,0.699,0.332,0.699,0.861C147.17,28.52,143.643,30.608,142.346,30.941z"/>
</g>
</svg>
