<?xml version="1.0" encoding="utf-8"?>
<!-- Generator: Adobe Illustrator 16.0.0, SVG Export Plug-In . SVG Version: 6.00 Build 0)  -->
<!DOCTYPE svg PUBLIC "-//W3C//DTD SVG 1.1//EN" "http://www.w3.org/Graphics/SVG/1.1/DTD/svg11.dtd">
<svg version="1.1" id="Слой_1" xmlns="http://www.w3.org/2000/svg" xmlns:xlink="http://www.w3.org/1999/xlink" x="0px" y="0px"
	 width="150px" height="50px" viewBox="0 0 150 50" enable-background="new 0 0 150 50" xml:space="preserve">
<g>
	<path fill-rule="evenodd" clip-rule="evenodd" fill="#FFFFFF" d="M99.864,16.201H76.916V9.902
		c8.004-0.089,15.893-0.453,22.949-1.075V16.201z M49.21,8.981c7.093,0.603,14.901,0.906,22.752,0.935v6.285H49.21V8.981z
		 M126.575,1.636c-35.271,3.028-70.542,3.322-105.813,0C23.308,4.72,31.322,6.869,41.874,8.21v7.99h-8.752v3.08h8.752v3.57h7.337
		v-3.57h50.654v3.57h7.336v-3.57h8.561v-3.08h-8.561V8.052C118.481,6.626,126.294,4.439,126.575,1.636z"/>
	<path fill-rule="evenodd" clip-rule="evenodd" fill="#FFFFFF" d="M20.406,27.93c-1.598,0.864-2.294,1.935-2.626,2.696
		c1.962-0.832,2.126-1.299,4.79-2.495c1.598-0.734,2.332-0.799,2.332-3.127c0-0.635-0.098-2.266-3.762-2.266
		c-2.598,0-7.659,0.5-12.084,2.631c-3.929,1.897-4.528,3.328-4.528,6.724c0,2.262,0.164,2.496,7.953,4.024
		c1.603,0.336,6.094,1.2,6.094,2.995c0,2.332-10.851,3.925-12.949,3.925c-1.065,0-1.832-0.397-1.832-0.896
		c0-0.197,0.135-0.397,0.135-0.496c0-0.103-0.304-0.038-0.5,0C0.033,42.309,0,45.005,0,45.57c0,2.028,3.859,1.897,5.491,1.897
		c5.859,0,10.154-1.729,11.621-2.397c3.496-1.598,4.196-4.859,4.196-5.49c0-3.261-4.365-4.893-10.757-6.154
		c-1.229-0.234-2.696-0.538-2.696-1.435c0-1.598,5.561-4.561,9.991-4.561C18.776,27.43,19.64,27.598,20.406,27.93z M29.598,43.173
		c-0.233,0.934-0.505,2.397-0.505,3.196c0,1.365,0.668,1.86,1.369,1.86c1.398,0,6.225-4.056,6.225-4.757
		c0-0.168-0.131-0.266-0.266-0.266c-0.168,0-0.397,0.332-1.565,1c-0.463,0.266-1.43,0.701-1.897,0.701
		c-0.63,0-0.864-0.668-0.864-1.369c0-1.229,0.696-2.061,1.098-2.496l2.963-3.229c0.098-0.131,0.131-0.164,0.131-0.397v-0.299
		c-0.033-1.463-0.496-1.833-0.832-1.833c-0.229,0-0.397,0.201-0.565,0.37l-5.925,5.855c-0.5,0.5-2.598,2.294-3.43,2.294
		c-0.463,0-1.033-0.532-1.033-1.794c0-0.337,0.07-0.636,0.201-0.968c1.065-0.696,4.664-3.028,4.664-4.724
		c0-0.398-0.701-0.734-1.397-0.734c-2.435,0-5.664,5.594-5.664,7.42c0,2.267,0.799,4.594,2.033,4.594
		C25.701,47.598,27.967,45.304,29.598,43.173z M43.477,37.449c0.201,0.5,0.336,1.033,0.401,1.565c0.033,0.467,0.033,0.897,0,1.364
		c-0.168,2.294-1.565,3.458-2.495,3.458c-1.267,0-0.869-2.827-3.365-2.827c-0.968,0-1.332,0.935-1.332,1.565
		c0,2.131,3.463,4.925,5.061,4.925c1.332,0,7.159-3.729,7.159-5.159c0-0.098-0.131-0.164-0.234-0.164
		c-0.201,0-0.435,0.197-1.131,0.729c-2.164,1.565-3.065,1.631-3.299,1.631c-0.262,0-0.565-0.066-0.833-0.168
		c2.397-2.093,3.795-4.79,3.795-6.79c0-1.561-0.897-4.855-1.762-4.855c-0.336,0-0.668,0.365-1.63,1.262
		c-0.369,0.337-0.902,0.733-0.701,1.897l-3.729,3.397l0.832,1.065L43.477,37.449z M51.004,41.645
		c1.528-1.37,5.691-6.159,7.122-7.991c0.733-0.962,4.996-6.523,5.262-7.687c0.033-0.098,0.033-0.234,0-0.332
		c-0.098-0.267-0.5-0.599-0.93-0.734c-1.668,0.103-7.327,7.42-7.958,8.252c-5.995,7.888-5.528,8.719-5.593,12.149v0.864
		c0.065,1.099,0.396,1.299,0.663,1.299c0.668,0,1.201-0.668,2.832-2.495c3.996-4.463,4.594-4.528,4.926-4.528
		c0.168,0,0.401,0.033,0.401,0.131c0,0.304-0.733,1.234-1.332,2.201c-1.467,2.328-1.467,3.36-1.467,3.757
		c0,0.799,0.565,1.696,1.565,1.696c1.332,0,2.599-1.262,3.729-2.196c2.5-2.061,2.631-2.495,2.631-2.692
		c0-0.135-0.2-0.266-0.331-0.266c-0.201,0-0.402,0.197-0.902,0.631c-0.766,0.696-1.929,1.43-2.626,1.43
		c-0.467,0-0.967-0.266-0.967-1.365c0-0.43,0.266-1.294,1.532-2.962c1.332-1.762,2.164-2.229,2.164-2.659
		c0-0.5-0.635-1.565-1.065-1.565c-0.832,0-3.599,1.962-4.593,2.794c-2.832,2.365-3.865,4.393-4.496,4.393
		c-0.598,0-0.598-1.065-0.598-1.43C50.972,42.107,50.972,41.874,51.004,41.645z M70.943,34.954c1.033-0.299,1.93-1.43,1.93-2.598
		c0-0.794-0.267-1.397-1.131-1.397c-1.332,0-2.593,1.233-2.593,2.664c0,1.098,0.761,1.397,1.131,1.397
		C70.514,35.019,70.743,35.019,70.943,34.954z M62.458,44.173c0,2.262,0.93,4.191,2.762,4.191c1.463,0,3.061-0.864,5.458-3.359
		c0.533-0.533,0.668-0.767,0.668-0.967c0-0.131-0.065-0.299-0.336-0.299c-0.332,0-0.496,0.233-0.963,0.532
		c-1.397,0.897-2.266,1.267-3.028,1.267c-0.836,0-2-0.201-2-2.164c0-0.565-0.033-0.935,0.168-1.364
		c2.93-1.332,4.458-3.229,4.458-4.725c0-0.467,0.07-1.168-0.762-1.168c-0.804,0-1.435,0.336-1.935,0.766
		C63.088,40.346,62.458,42.042,62.458,44.173z"/>
	<path fill-rule="evenodd" clip-rule="evenodd" fill="#FFFFFF" d="M86.878,36.252c-0.832,0.299-1.565,0.462-2.598,0.462
		c-2.729,0-3.163-0.266-3.163-1.028c-0.533,0.696-1.533,2.061-1.533,2.958c0,0.967,0.07,1.598,2.201,1.598
		c0.397,0,0.766,0,1.163-0.033c-3.294,3.528-4.093,4.724-4.093,5.458c0,0.598,0.93,1.565,2.13,1.663
		c-0.069-0.201-0.135-0.364-0.135-0.565c0-1.532,4.061-5.556,5.196-6.589c2.294-0.135,4.425-0.331,6.426-0.598
		c-1.631,1.865-3.164,4.626-3.164,6.588c0,0.397,0.13,0.767,0.266,1.164l2.898-1.598c-0.033-0.332-0.033-0.697-0.033-1.033
		c0-1.958,1.196-3.225,2.729-5.22c0.996-0.136,1.996-0.168,2.996-0.168c0.331,0,0.696,0,1.033,0.033l2.261-4.159
		c-0.299,0-0.631-0.038-0.93-0.038c-0.896,0-1.667-0.028-2.663,0.07c4.093-5.958,5.691-6.491,5.691-7.986
		c0-0.467-0.065-0.935-0.266-0.935c-0.565,0-7.392,7.991-8.122,8.921c-2.267,0.266-3.996,0.467-5.196,0.631l5.962-6.687
		c0.696-0.767,1.229-1.533,1.229-2.697c0-3.359-1.229-3.093-5.094-3.093c-5.294,0-10.584,1.561-13.383,2.827
		c-0.832,0.364-3.561,1.696-3.561,5.691c0,0.696,0.397,1.131,0.696,1.365l5.664-2.799c-0.033-0.131-0.07-0.229-0.07-0.364
		c0-0.201,0.07-0.397,0.168-0.598c2.196-2.028,9.187-3.229,11.519-3.229c0.332,0,1.229,0.099,1.229,0.935
		c0,0.865-1.528,2.692-1.859,3.061L86.878,36.252z M110.649,36.949c0.033-0.299,0.164-0.598,0.164-0.832
		c0-0.397-0.799-0.968-1.832-0.968c-3.393,0-8.22,4.697-8.22,7.79c0,1.729,0.963,4.794,3.626,4.794c1.364,0,2.864-0.603,4.364-2.43
		c0.229,0.033,0.43,0.033,0.664,0c1.565-0.135,3.364-1.43,3.364-1.963c0-0.135-0.103-0.233-0.369-0.233
		c-0.631,0-0.664,0.598-1.43,0.598c-0.5,0-0.766-0.332-0.766-0.565c0-0.103,0.033-0.168,0.098-0.266c0.5-0.832,1-1.832,1.234-2.93
		c0.098-0.364,0.168-0.766,0.168-1.164C111.715,38.215,111.677,37.248,110.649,36.949z M107.617,44.304
		c-0.729,0.663-1.762,1.397-2.893,1.397c-0.434,0-1.667,0.033-1.667-1.43c0-1.696,0.733-2.729,2.032-4.028
		c0.598-0.598,2.332-2.028,3.061-2.028c0.201,0,0.5,0.168,0.5,0.332c0,0.299-0.332,0.664-1.033,2.528
		c-0.196,0.565-0.332,1.332-0.332,2.164C107.285,43.603,107.453,43.972,107.617,44.304z M120.07,43.004
		c-0.234,0.935-0.5,2.397-0.5,3.196c0,1.365,0.664,1.865,1.364,1.865c1.402,0,6.224-4.061,6.224-4.762
		c0-0.164-0.131-0.267-0.266-0.267c-0.163,0-0.397,0.337-1.561,1c-0.468,0.267-1.435,0.701-1.897,0.701
		c-0.635,0-0.869-0.668-0.869-1.365c0-1.233,0.701-2.066,1.099-2.5l2.962-3.224c0.103-0.135,0.135-0.168,0.135-0.401v-0.299
		c-0.032-1.463-0.5-1.827-0.832-1.827c-0.233,0-0.402,0.196-0.565,0.364l-5.925,5.855c-0.5,0.5-2.598,2.299-3.43,2.299
		c-0.468,0-1.033-0.533-1.033-1.799c0-0.332,0.065-0.631,0.201-0.968c1.065-0.696,4.659-3.023,4.659-4.724
		c0-0.397-0.701-0.729-1.397-0.729c-2.43,0-5.659,5.588-5.659,7.42c0,2.262,0.799,4.589,2.028,4.589
		C116.172,47.43,118.439,45.136,120.07,43.004z M133.953,37.28c0.201,0.5,0.332,1.033,0.397,1.566c0.037,0.467,0.037,0.897,0,1.364
		c-0.164,2.294-1.565,3.462-2.495,3.462c-1.267,0-0.865-2.832-3.36-2.832c-0.967,0-1.336,0.935-1.336,1.566
		c0,2.131,3.463,4.925,5.061,4.925c1.336,0,7.159-3.729,7.159-5.159c0-0.098-0.131-0.163-0.234-0.163
		c-0.196,0-0.43,0.196-1.131,0.733c-2.164,1.561-3.061,1.626-3.294,1.626c-0.266,0-0.565-0.065-0.836-0.164
		c2.402-2.098,3.799-4.794,3.799-6.79c0-1.565-0.897-4.86-1.767-4.86c-0.332,0-0.664,0.37-1.631,1.267
		c-0.365,0.331-0.897,0.729-0.701,1.897l-3.725,3.393l0.832,1.065L133.953,37.28z M142.341,42.743
		c3.196-0.538,7.593-3.963,7.593-6.294c0-0.533-0.266-1.631-1.967-1.631c-3.664,0-8.589,5.36-8.589,9.72
		c0,2.593,1.598,3.827,3.196,3.827c1.897,0,3.131-1.065,4.762-2.462C148,45.369,150,43.575,150,43.037
		c0-0.364-0.066-0.495-0.201-0.495c-0.267,0-0.5,0.397-2.131,1.43c-2.065,1.332-2.93,1.397-3.365,1.397
		C142.411,45.369,142.276,43.505,142.341,42.743z M142.341,41.509c0.598-2.098,2.565-4.925,4.131-4.925
		c0.565,0,0.696,0.332,0.696,0.864C147.168,39.08,143.64,41.178,142.341,41.509z"/>
</g>
</svg>
