<?xml version="1.0" encoding="UTF-8" standalone="no"?>
<svg width="165px" height="44px" viewBox="0 0 165 44" version="1.1" xmlns="http://www.w3.org/2000/svg" xmlns:xlink="http://www.w3.org/1999/xlink" xmlns:sketch="http://www.bohemiancoding.com/sketch/ns">
    <!-- Generator: Sketch 3.4.4 (17249) - http://www.bohemiancoding.com/sketch -->
    <title>logo + Улан-Удэ</title>
    <desc>Created with Sketch.</desc>
    <defs></defs>
    <g id="afisha" stroke="none" stroke-width="1" fill="none" fill-rule="evenodd" sketch:type="MSPage">
        <g id="iPad-Pro-Portrait" sketch:type="MSArtboardGroup" transform="translate(-78.000000, -25.000000)" fill="#F2F0E6">
            <g id="logo-+-Улан-Удэ" sketch:type="MSLayerGroup" transform="translate(78.000000, 25.000000)">
                <g sketch:type="MSShapeGroup">
                    <g id="logo" transform="translate(0.000000, 0.519531)">
                        <path d="M7.86496007,14.5300932 C9.0278473,15.7152909 10.7659652,16.3737359 12.7481663,16.3737359 C14.9535452,16.3737359 17.2127139,15.5822562 19.4718826,14.3455692 C20.00978,14.939179 19.9022005,18.3029676 19.4718826,19.1439148 C17.9657702,20.2321993 15.6528117,21.2710164 12.1026895,21.2710164 C4.89486553,21.2710164 0,16.8684107 0,10.6355082 C0,4.40260572 4.89486553,0 12.1026895,0 C15.6528117,0 17.9657702,1.03881708 19.4718826,2.12710164 C19.9022005,2.9680488 20.00978,6.33183744 19.4718826,6.9254472 C17.2127139,5.6887602 14.9535452,4.89728052 12.7481663,4.89728052 C9.14425428,4.89728052 6.34718826,7.07384964 6.34718826,10.6355082 C6.34718826,11.1696717 6.41010216,11.6726806 6.52921616,12.141865 L6,14.7201087 L7.86496007,14.5300932 Z M9.7425403,13.749633 C10.1124546,13.5461225 10.0798828,12.7858887 9.66978908,12.0516033 C9.2596954,11.3173179 8.62737399,10.8870399 8.2574597,11.0905504 C7.8875454,11.2940609 7.92011723,12.0542947 8.33021092,12.7885801 C8.7403046,13.5228655 9.37262601,13.9531435 9.7425403,13.749633 Z" id="Path"></path>
                        <path d="M155.25746,12.8296262 C154.887545,12.6261157 154.920117,11.8658819 155.330211,11.1315965 C155.740305,10.3973111 156.372626,9.96703309 156.74254,10.1705436 C157.112455,10.3740541 157.079883,11.1342879 156.669789,11.8685733 C156.259695,12.6028587 155.627374,13.0331367 155.25746,12.8296262 L155.25746,12.8296262 Z" id="Oval-1-Copy"></path>
                        <path d="M29.1809291,12.3174025 L29.1809291,0.7420122 C27.190709,0.39573984 24.8239609,0.39573984 22.8337408,0.7420122 L22.8337408,20.5290042 C24.8239609,20.8752766 25.6845966,20.8752766 27.6748166,20.5290042 L39.2396088,8.95361388 L39.2396088,20.5290042 C41.2298289,20.8752766 43.596577,20.8752766 45.5867971,20.5290042 L45.5867971,0.7420122 C43.596577,0.39573984 42.7359413,0.39573984 40.799511,0.7420122 L29.1809291,12.3174025 Z" id="Path"></path>
                        <path d="M48.2830073,0.7420122 C47.9064792,2.57230896 47.9064792,3.9573984 48.2830073,5.78769516 L55.5984108,5.78769516 L55.5984108,20.5290042 C57.5886308,20.8752766 59.955379,20.8752766 61.945599,20.5290042 L61.945599,5.78769516 L69.2072127,5.83716264 C69.6375306,3.9573984 69.6375306,2.57230896 69.2072127,0.7420122 L48.2830073,0.7420122 Z" id="Path"></path>
                        <path d="M78.304401,12.3174025 L78.304401,0.7420122 C76.3141809,0.39573984 73.9474328,0.39573984 71.9572127,0.7420122 L71.9572127,20.5290042 C73.9474328,20.8752766 74.8080685,20.8752766 76.7982885,20.5290042 L88.3630807,8.95361388 L88.3630807,20.5290042 C90.3533007,20.8752766 92.7200489,20.8752766 94.7102689,20.5290042 L94.7102689,0.7420122 C92.7200489,0.39573984 91.8594132,0.39573984 89.9229829,0.7420122 L78.304401,12.3174025 Z" id="Path"></path>
                        <path d="M105.690098,0 C102.193765,0 99.7194377,1.03881708 98.2133252,2.12710164 C97.8367971,2.9680488 97.6754279,5.88663012 98.2133252,6.48023988 C100.472494,5.1940854 102.516504,4.4520732 104.668093,4.4520732 C106.819682,4.4520732 108.325795,5.34248784 108.325795,6.72757728 C108.325795,8.01373176 107.465159,8.75574396 105.690098,8.75574396 L101.978606,8.75574396 C101.602078,10.1903009 101.602078,10.6849757 101.978606,12.1195326 L106.120416,12.1195326 C107.841687,12.1195326 108.971271,12.8120773 108.971271,14.2961017 C108.971271,15.8295936 107.465159,16.8189432 104.883252,16.8189432 C102.839242,16.8189432 100.257335,16.076931 97.9981663,14.7907765 C97.5140587,15.3843863 97.6216381,18.3029676 97.9981663,19.1439148 C99.5580685,20.2321993 102.462714,21.2710164 105.959046,21.2710164 C110.746333,21.2710164 115.26467,19.1933822 115.26467,14.9886464 C115.26467,12.8120773 113.919927,10.9323131 111.391809,10.0913659 C113.16687,9.44828868 114.511614,8.01373176 114.511614,5.88663012 C114.511614,2.02816668 110.100856,0 105.690098,0 L105.690098,0 Z" id="Path"></path>
                        <path d="M128.987775,0 C122.210269,0 117.369193,4.40260572 117.369193,10.5860407 C117.369193,16.9178782 122.156479,21.2710164 129.471883,21.2710164 C133.075795,21.2710164 135.711491,20.2321993 137.271394,19.1439148 C137.647922,18.3029676 137.755501,14.939179 137.271394,14.3455692 C135.012225,15.5822562 132.430318,16.3737359 130.171149,16.3737359 C126.674817,16.3737359 124.146699,14.5434391 123.770171,11.4269879 L139.100244,11.4269879 C140.444988,6.87597972 137.540342,0 128.987775,0 Z M129.041565,4.40260572 C131.569682,4.40260572 133.237164,5.88663012 133.344743,8.36000412 L124.146699,8.36000412 C124.630807,5.88663012 126.459658,4.40260572 129.041565,4.40260572 Z" id="Path"></path>
                        <path d="M158.480775,12.1905406 C158.593722,11.7071933 158.652812,11.1875239 158.652812,10.6355082 C158.652812,7.22225208 156.393643,5.04568296 153.112469,5.04568296 C150.745721,5.04568296 148.91687,6.28236996 148.002445,7.1727846 L148.002445,14.0982318 C148.91687,14.9886464 150.745721,16.2253334 153.112469,16.2253334 C154.844514,16.2253334 156.291777,15.6188312 157.27228,14.5440762 L159,14.7201087 L158.480775,12.1905406 Z M147.625917,3.2153862 L147.141809,0.7420122 C145.151589,0.39573984 143.645477,0.39573984 141.655257,0.7420122 L141.655257,25.5004859 C143.645477,25.8467583 146.012225,25.8467583 148.002445,25.5004859 L148.002445,18.5008375 C149.239609,19.8364595 151.444988,21.2710164 154.833741,21.2710164 C161.07335,21.2710164 165,16.5221383 165,10.6355082 C165,4.74887808 161.07335,0 154.833741,0 C151.229829,0 149.132029,1.43455692 147.625917,3.2153862 Z" id="Path"></path>
                    </g>
                    <path d="M54.1523438,41.2680876 C55.8134766,41.2680876 56.5039062,40.242697 57.3037109,38.3764861 L60.3251953,31.3354704 L59.046875,31.3354704 L56.4628906,37.727072 L56.3535156,37.727072 L53.7080078,31.3354704 L52.3955078,31.3354704 L55.765625,39.0942595 C55.3759766,39.8188689 54.890625,40.1264861 54.1523438,40.1264861 C53.8583984,40.1264861 53.6875,40.0923064 53.6054688,40.0717986 L53.6054688,41.1792204 C53.6875,41.2202361 53.8789062,41.2680876 54.1523438,41.2680876 L54.1523438,41.2680876 Z M62.8339844,37.9663298 L63.0664062,34.8149626 L65.6435547,34.8149626 L65.6435547,41.1997283 L66.8193359,41.1997283 L66.8193359,33.8305876 L62,33.8305876 L61.7128906,37.9389861 C61.6171875,39.3061736 61.3369141,40.1606658 60.6054688,40.1606658 C60.4345703,40.1606658 60.2978516,40.1264861 60.2363281,40.1059783 L60.2363281,41.1860564 C60.3183594,41.2202361 60.4550781,41.2612517 60.6669922,41.2612517 C62.1982422,41.2612517 62.6835938,39.9897673 62.8339844,37.9663298 L62.8339844,37.9663298 Z M71.2832031,40.2973845 C70.4287109,40.2973845 69.7929688,39.8598845 69.7929688,39.1079314 C69.7929688,38.3696501 70.2851562,37.9800017 71.40625,37.9048064 L73.3886719,37.7749236 L73.3886719,38.4516814 C73.3886719,39.5044158 72.4931641,40.2973845 71.2832031,40.2973845 L71.2832031,40.2973845 Z M71.0644531,41.3296111 C72.0488281,41.3296111 72.8554688,40.898947 73.3339844,40.1128142 L73.4433594,40.1128142 L73.4433594,41.1997283 L74.5644531,41.1997283 L74.5644531,36.1548064 C74.5644531,34.6235564 73.5595703,33.7007048 71.7617188,33.7007048 C70.1894531,33.7007048 69.0273438,34.4800017 68.8701172,35.6626189 L70.0595703,35.6626189 C70.2236328,35.0815642 70.8388672,34.7466033 71.7207031,34.7466033 C72.8212891,34.7466033 73.3886719,35.2456267 73.3886719,36.1548064 L73.3886719,36.8247283 L71.2626953,36.9546111 C69.546875,37.0571501 68.5761719,37.8159392 68.5761719,39.1352751 C68.5761719,40.4819548 69.6357422,41.3296111 71.0644531,41.3296111 L71.0644531,41.3296111 Z M76.7177734,41.1997283 L77.8935547,41.1997283 L77.8935547,37.8637908 L81.5712891,37.8637908 L81.5712891,41.1997283 L82.7470703,41.1997283 L82.7470703,33.8305876 L81.5712891,33.8305876 L81.5712891,36.8794158 L77.8935547,36.8794158 L77.8935547,33.8305876 L76.7177734,33.8305876 L76.7177734,41.1997283 Z M89.3095703,37.7885954 L89.3095703,36.6743376 L84.8251953,36.6743376 L84.8251953,37.7885954 L89.3095703,37.7885954 Z M91.8320312,41.2680876 C93.4931641,41.2680876 94.1835938,40.242697 94.9833984,38.3764861 L98.0048828,31.3354704 L96.7265625,31.3354704 L94.1425781,37.727072 L94.0332031,37.727072 L91.3876953,31.3354704 L90.0751953,31.3354704 L93.4453125,39.0942595 C93.0556641,39.8188689 92.5703125,40.1264861 91.8320312,40.1264861 C91.5380859,40.1264861 91.3671875,40.0923064 91.2851562,40.0717986 L91.2851562,41.1792204 C91.3671875,41.2202361 91.5585938,41.2680876 91.8320312,41.2680876 L91.8320312,41.2680876 Z M103.637695,40.2153533 L100.000977,40.2153533 L100.000977,40.1059783 C100.349609,39.6479704 100.541016,38.8618376 100.609375,37.9663298 L100.841797,34.8149626 L103.637695,34.8149626 L103.637695,40.2153533 Z M99.1191406,43.1479704 L99.1191406,41.1997283 L104.881836,41.1997283 L104.881836,43.1479704 L105.989258,43.1479704 L105.989258,40.2153533 L104.813477,40.2153533 L104.813477,33.8305876 L99.7890625,33.8305876 L99.5019531,37.9389861 C99.4335938,38.930197 99.1669922,39.8598845 98.6269531,40.2153533 L98.0117188,40.2153533 L98.0117188,43.1479704 L99.1191406,43.1479704 Z M110.070312,41.3227751 C112.134766,41.3227751 113.488281,39.8325408 113.488281,37.4878142 C113.488281,35.1909392 112.141602,33.7007048 110.077148,33.7007048 C108.272461,33.7007048 107.171875,34.773947 106.966797,36.086447 L108.15625,36.086447 C108.347656,35.3550017 109.003906,34.7602751 110.077148,34.7602751 C111.239258,34.7602751 112.107422,35.5874236 112.244141,36.8999236 L108.833008,36.8999236 L108.833008,37.8842986 L112.264648,37.8842986 C112.162109,39.3198454 111.307617,40.2632048 110.077148,40.2632048 C109.072266,40.2632048 108.375,39.805197 108.15625,38.9712126 L106.966797,38.9712126 C107.178711,40.3247283 108.286133,41.3227751 110.070312,41.3227751 L110.070312,41.3227751 Z" id="Улан-Удэ"></path>
                </g>
            </g>
        </g>
    </g>
</svg>