<svg width="40" height="40" viewBox="0 0 40 40" fill="none" xmlns="http://www.w3.org/2000/svg">
<g clip-path="url(#clip0_68_2347)">
<path d="M25.0017 16.666C25.0017 16.666 30.8384 11.8743 30.8384 7.49935C30.8384 4.27768 28.225 1.66602 25.0017 1.66602C21.7784 1.66602 19.165 4.27768 19.165 7.49935C19.165 11.8743 25.0017 16.666 25.0017 16.666Z" stroke="white" stroke-width="3" stroke-linecap="round" stroke-linejoin="round"/>
<path d="M25.0077 6.41895C25.6965 6.41895 26.2555 6.97796 26.2505 7.66675C26.2505 8.35554 25.6915 8.91456 25.0027 8.91456C24.3139 8.91456 23.7549 8.35554 23.7549 7.66675C23.7549 6.97796 24.3139 6.41895 25.0077 6.41895Z" fill="white"/>
<path d="M19.2183 6.7085C11.3 7.1185 5 13.6468 5 21.6668C5 29.9518 11.715 36.6668 20 36.6668C28.285 36.6668 35 29.9518 35 21.6668C35 17.2468 33.08 13.2868 30.0383 10.5485" stroke="white" stroke-width="3" stroke-linecap="round" stroke-linejoin="round"/>
<path d="M13.3357 35.1135V34.9951C13.3357 31.6618 20.0024 32.0551 20.0024 28.3285C20.0024 24.9951 15.0024 24.9951 15.0024 19.9951C15.0024 15.2818 11.669 14.9951 6.66905 14.9951H6.56738" stroke="white" stroke-width="3" stroke-linecap="round" stroke-linejoin="round"/>
<path d="M29.952 32.8667C29.7003 32.77 29.4503 32.6684 29.212 32.5284C26.8187 31.1284 26.0153 28.055 27.4137 25.6617C28.8137 23.2684 31.887 22.465 34.2803 23.8634C34.457 23.9667 34.6053 24.0967 34.7653 24.2167" stroke="white" stroke-width="3" stroke-linecap="round" stroke-linejoin="round"/>
</g>
<defs>
<clipPath id="clip0_68_2347">
<rect width="40" height="40" fill="white"/>
</clipPath>
</defs>
</svg>
