<svg width="107" height="36" viewBox="0 0 107 36" fill="none" xmlns="http://www.w3.org/2000/svg">
<rect y="2" width="32" height="32" rx="8" fill="#F2BD70"/>
<path d="M53.592 22.832H58.968V26H49.488V9.152H53.592V22.832ZM67.0215 26.192C65.7095 26.192 64.5255 25.912 63.4695 25.352C62.4295 24.792 61.6055 23.992 60.9975 22.952C60.4055 21.912 60.1095 20.696 60.1095 19.304C60.1095 17.928 60.4135 16.72 61.0215 15.68C61.6295 14.624 62.4615 13.816 63.5175 13.256C64.5735 12.696 65.7575 12.416 67.0695 12.416C68.3815 12.416 69.5655 12.696 70.6215 13.256C71.6775 13.816 72.5095 14.624 73.1175 15.68C73.7255 16.72 74.0295 17.928 74.0295 19.304C74.0295 20.68 73.7175 21.896 73.0935 22.952C72.4855 23.992 71.6455 24.792 70.5735 25.352C69.5175 25.912 68.3335 26.192 67.0215 26.192ZM67.0215 22.64C67.8055 22.64 68.4695 22.352 69.0135 21.776C69.5735 21.2 69.8535 20.376 69.8535 19.304C69.8535 18.232 69.5815 17.408 69.0375 16.832C68.5095 16.256 67.8535 15.968 67.0695 15.968C66.2695 15.968 65.6055 16.256 65.0775 16.832C64.5495 17.392 64.2855 18.216 64.2855 19.304C64.2855 20.376 64.5415 21.2 65.0535 21.776C65.5815 22.352 66.2375 22.64 67.0215 22.64ZM81.2948 12.416C82.2388 12.416 83.0628 12.608 83.7668 12.992C84.4868 13.376 85.0388 13.88 85.4228 14.504V12.608H89.5268V25.976C89.5268 27.208 89.2788 28.32 88.7828 29.312C88.3028 30.32 87.5588 31.12 86.5508 31.712C85.5588 32.304 84.3188 32.6 82.8308 32.6C80.8468 32.6 79.2388 32.128 78.0068 31.184C76.7748 30.256 76.0708 28.992 75.8948 27.392H79.9508C80.0788 27.904 80.3828 28.304 80.8628 28.592C81.3428 28.896 81.9348 29.048 82.6388 29.048C83.4868 29.048 84.1588 28.8 84.6548 28.304C85.1668 27.824 85.4228 27.048 85.4228 25.976V24.08C85.0228 24.704 84.4708 25.216 83.7668 25.616C83.0628 26 82.2388 26.192 81.2948 26.192C80.1908 26.192 79.1908 25.912 78.2948 25.352C77.3988 24.776 76.6868 23.968 76.1588 22.928C75.6468 21.872 75.3908 20.656 75.3908 19.28C75.3908 17.904 75.6468 16.696 76.1588 15.656C76.6868 14.616 77.3988 13.816 78.2948 13.256C79.1908 12.696 80.1908 12.416 81.2948 12.416ZM85.4228 19.304C85.4228 18.28 85.1348 17.472 84.5588 16.88C83.9988 16.288 83.3108 15.992 82.4948 15.992C81.6788 15.992 80.9828 16.288 80.4068 16.88C79.8468 17.456 79.5668 18.256 79.5668 19.28C79.5668 20.304 79.8468 21.12 80.4068 21.728C80.9828 22.32 81.6788 22.616 82.4948 22.616C83.3108 22.616 83.9988 22.32 84.5588 21.728C85.1348 21.136 85.4228 20.328 85.4228 19.304ZM98.5918 26.192C97.2798 26.192 96.0958 25.912 95.0398 25.352C93.9998 24.792 93.1758 23.992 92.5678 22.952C91.9758 21.912 91.6798 20.696 91.6798 19.304C91.6798 17.928 91.9838 16.72 92.5918 15.68C93.1998 14.624 94.0318 13.816 95.0878 13.256C96.1438 12.696 97.3278 12.416 98.6398 12.416C99.9518 12.416 101.136 12.696 102.192 13.256C103.248 13.816 104.08 14.624 104.688 15.68C105.296 16.72 105.6 17.928 105.6 19.304C105.6 20.68 105.288 21.896 104.664 22.952C104.056 23.992 103.216 24.792 102.144 25.352C101.088 25.912 99.9038 26.192 98.5918 26.192ZM98.5918 22.64C99.3758 22.64 100.04 22.352 100.584 21.776C101.144 21.2 101.424 20.376 101.424 19.304C101.424 18.232 101.152 17.408 100.608 16.832C100.08 16.256 99.4238 15.968 98.6398 15.968C97.8398 15.968 97.1758 16.256 96.6478 16.832C96.1198 17.392 95.8558 18.216 95.8558 19.304C95.8558 20.376 96.1118 21.2 96.6238 21.776C97.1518 22.352 97.8078 22.64 98.5918 22.64Z" fill="white"/>
</svg>
