<svg width="26" height="25" viewBox="0 0 26 25" xmlns="http://www.w3.org/2000/svg"><title>Group 58</title><g fill="none" fill-rule="evenodd"><path d="M23.73 0H2.895A2.09 2.09 0 0 0 .813 2.083v20.834A2.09 2.09 0 0 0 2.896 25h20.833a2.09 2.09 0 0 0 2.084-2.083V2.083A2.09 2.09 0 0 0 23.729 0z" fill="#3A5BA0"/><path d="M17.463 13.02L18 10.418h-2.686V8.333c0-.78.43-1.041 1.612-1.041H18V4.688h-2.148c-2.203 0-3.76 1.25-3.76 3.645v2.084H9.406v2.604h2.686v7.291h3.222v-7.291h2.149z" fill="#FFF"/></g></svg>