<svg width="121" height="50" viewBox="0 0 121 50" xmlns="http://www.w3.org/2000/svg"><title>Group 7</title><defs><radialGradient cx="40.819%" cy=".534%" fx="40.819%" fy=".534%" r="144.147%" gradientTransform="matrix(1 0 0 .73231 0 .001)" id="a"><stop stop-color="#231F20" stop-opacity="0" offset="0%"/><stop stop-color="#231F20" stop-opacity=".858" offset="85.81%"/><stop stop-color="#231F20" offset="100%"/></radialGradient><radialGradient cx="86.173%" cy="112.837%" fx="86.173%" fy="112.837%" r="204.751%" gradientTransform="matrix(1 0 0 .73231 0 .302)" id="b"><stop stop-color="#231F20" stop-opacity="0" offset="0%"/><stop stop-color="#231F20" stop-opacity=".858" offset="85.81%"/><stop stop-color="#231F20" offset="100%"/></radialGradient></defs><g fill="none" fill-rule="evenodd"><path d="M4.24 22.767l2.515 10.941h.039l2.475-10.941h4.203v13.885h-2.707V25.043h-.02l-2.608 11.61h-2.86l-2.534-11.61h-.039v11.61H0V22.766h4.24zm18.037-.364c1.843 0 6.68.802 6.68 7.307 0 6.503-4.837 7.307-6.68 7.307-1.842 0-6.679-.804-6.679-7.307 0-6.505 4.837-7.307 6.68-7.307zm0 12.166c-1.574 0-3.78-.977-3.78-4.858 0-3.885 2.206-4.86 3.78-4.86 1.574 0 3.781.976 3.781 4.86 0 3.882-2.207 4.858-3.78 4.858zm17.79-7.25c-.232-.84-.693-2.468-3.091-2.468-1.4 0-3.512.996-3.512 4.917 0 2.486 1.056 4.801 3.512 4.801 1.612 0 2.745-.976 3.09-2.678h2.899c-.578 3.02-2.554 5.127-6.046 5.127-3.704 0-6.351-2.508-6.351-7.288 0-4.857 2.801-7.327 6.39-7.327 4.164 0 5.853 2.87 6.007 4.915h-2.898zm11.053-4.916c1.842 0 6.678.802 6.678 7.307 0 6.503-4.836 7.307-6.678 7.307-1.843 0-6.68-.804-6.68-7.307 0-6.505 4.837-7.307 6.68-7.307zm0 12.166c-1.574 0-3.781-.977-3.781-4.858 0-3.885 2.207-4.86 3.78-4.86 1.575 0 3.781.976 3.781 4.86 0 3.882-2.206 4.858-3.78 4.858zm19.018-11.802v2.39h-7.35v2.869h3.626c2.688 0 4.76 1.627 4.76 4.38 0 2.736-2.015 4.246-4.797 4.246H59.89V22.767h10.248zm-7.35 11.495v-3.846h3.281c1.307 0 2.207.613 2.207 1.838 0 1.148-.804 2.008-2.207 2.008h-3.282zm32.848-11.495v2.39H89.56v11.495h-2.898V22.767h8.974zm-15.546 0l4.893 13.887h-3.146l-3.435-10.749h-.039l-3.532 10.749h-3.05l4.95-13.887h3.359zm29.103 4.13c.152-2.293 1.86-4.494 5.43-4.494 3.858 0 5.317 2.124 5.317 3.671 0 1.761-.98 2.813-2.4 3.215 1.516.267 2.917 1.49 2.917 3.654 0 2.142-1.726 4.075-5.64 4.075-4.76 0-5.835-2.392-5.835-4.65h2.724c0 1.225.538 2.258 3.012 2.258 1.747 0 2.842-.766 2.842-1.99 0-1.397-1.153-2.103-2.554-2.103h-1.342V28.2h1.267c1.382 0 2.226-.67 2.226-1.798 0-1.052-.94-1.606-2.476-1.606-1.938 0-2.648.783-2.764 2.102h-2.724zm-7.97 9.738l-4.907-13.823h3.025l.969 2.856h5.08l.893-2.856h3.119l-4.849 13.823h-3.33zm1.63-3.094h.04l1.887-5.495h-3.698l1.772 5.495z" fill="#123D57"/><path d="M110.589 13.993c0-6.742-6.103-13.435-9.623-13.967.222.712.376 1.615.376 2.783 0 3.661-6.247 6.005-6.247 11.935 0 1.808.595 4.909 2.447 6.439a5.467 5.467 0 1 1 10.592 0c.63-.52 2.455-2.677 2.455-7.19z" fill="#006DAA"/><path d="M110.589 13.993c0-6.742-6.103-13.435-9.624-13.967.223.712.378 1.615.378 2.783 0 3.661-6.248 6.005-6.248 11.935 0 1.808.595 4.909 2.447 6.439a5.467 5.467 0 1 1 10.592 0c.63-.52 2.455-2.677 2.455-7.19z" fill="url(#a)" opacity=".6"/><path d="M110.589 13.993c0-6.742-6.103-13.435-9.624-13.967.223.712.377 1.615.377 2.783 0 3.661-6.247 6.005-6.247 11.935 0 1.808.594 4.909 2.447 6.439a5.468 5.468 0 0 1 10.592 0c.63-.52 2.455-2.677 2.455-7.19z" fill="url(#b)" opacity=".6"/><path d="M102.827 17.099c2.11 0 3.855 1.538 4.25 1.982a5.648 5.648 0 0 0 1.432-3.765 5.684 5.684 0 0 0-3.085-5.049s-2.014-1.151-2.622-2.11c-.519.857-1.324 1.44-2.422 1.99 0 0-1.117.704-1.57 1.158a5.66 5.66 0 0 0-1.665 4.011c0 1.458.551 2.788 1.456 3.792.317-.361 2.115-2.01 4.226-2.01z" fill="#00AEE6"/><text font-family="PFAgoraSansPro-Medium, PF Agora Sans Pro" font-size="10" font-weight="400" fill="#6F6F6F"><tspan x="10.924" y="49">ИНТЕРНЕТ-МАГАЗИН</tspan></text></g></svg>