<svg width="34" height="20" viewBox="0 0 34 20" xmlns="http://www.w3.org/2000/svg"><title>Maestro-dark</title><g fill="none" fill-rule="evenodd"><rect fill="#006" width="33.333" height="20" rx="3"/><path d="M27.885 9.995c0 3.685-2.975 6.672-6.646 6.672-3.67 0-6.646-2.987-6.646-6.672 0-3.686 2.976-6.673 6.646-6.673 3.671 0 6.646 2.987 6.646 6.673" fill="#C00"/><path d="M16.105 14.232a6.624 6.624 0 0 1-.506-.707h2.355c.142-.226.27-.462.383-.707h-3.121a6.637 6.637 0 0 1-.281-.706h3.683a6.73 6.73 0 0 0 .193-3.53h-4.068a6.66 6.66 0 0 1 .192-.707h3.683a6.724 6.724 0 0 0-.281-.706h-3.12a6.96 6.96 0 0 1 .382-.707h2.355a6.742 6.742 0 0 0-.507-.706h-1.341c.206-.251.43-.487.67-.706a6.608 6.608 0 0 0-4.462-1.728c-3.671 0-6.647 2.987-6.647 6.673 0 3.685 2.976 6.672 6.647 6.672a6.609 6.609 0 0 0 5.134-2.435h-1.343" fill="#06C"/><path d="M16.682 11.798a3.218 3.218 0 0 1-.85.111c-.926 0-1.408-.424-1.408-1.234 0-.946.614-1.642 1.448-1.642.682 0 1.117.39 1.117 1.001 0 .203-.03.4-.101.68H15.24c-.059.396.23.57.719.57.293 0 .559-.053.853-.172l-.13.686zm-.443-1.642c0-.06.091-.484-.385-.493-.264 0-.452.175-.529.493h.914zm1.001-.186c0 .35.196.592.642.772.34.14.394.18.394.305 0 .174-.15.253-.485.251a2.75 2.75 0 0 1-.75-.107l-.12.637c.24.056.577.074.876.081.89 0 1.3-.292 1.3-.924 0-.38-.17-.603-.593-.77-.354-.142-.395-.172-.395-.3 0-.151.14-.227.413-.227.165 0 .392.015.607.041l.12-.641a6.513 6.513 0 0 0-.743-.055c-.943 0-1.269.426-1.266.938m-3.268 1.893h-.69l.016-.29c-.211.228-.492.335-.873.335-.45 0-.76-.31-.76-.754 0-.677.538-1.067 1.46-1.067.096 0 .216.007.34.021a.6.6 0 0 0 .033-.179c0-.185-.146-.253-.534-.253a3.18 3.18 0 0 0-.881.123l.118-.62c.415-.106.686-.147.993-.147.715 0 1.093.281 1.093.81.006.141-.043.424-.068.548-.028.18-.226 1.226-.247 1.473zm-.606-1.235a1.636 1.636 0 0 0-.186-.01c-.471 0-.71.14-.71.418 0 .175.116.284.298.284.339 0 .583-.285.598-.692zm7.188 1.191c-.227.062-.404.09-.595.09-.423 0-.654-.218-.654-.605-.014-.106.09-.597.113-.734.023-.137.39-2.137.39-2.137h.823l-.125.662h.422l-.114.675h-.424s-.233 1.173-.233 1.262c0 .142.086.204.283.204a.79.79 0 0 0 .223-.026l-.11.609m3.676-2.787c-.603 0-1.074.249-1.348.665l.238-.617c-.438-.161-.72.069-.975.396l-.085.104v-.485h-.773c-.104.856-.29 1.724-.434 2.582l-.035.186h.83c.08-.435.145-.788.209-1.07.177-.773.474-1.01.92-.905-.103.222-.16.48-.16.764 0 .691.374 1.256 1.302 1.256.936 0 1.614-.502 1.614-1.647 0-.69-.452-1.23-1.303-1.23zm-.242 2.205c-.293.004-.471-.243-.471-.613 0-.438.26-.933.676-.933.337 0 .452.268.452.553 0 .624-.254.993-.657.993zm-12.708.626h-.828l.492-2.6-1.132 2.6h-.754L8.919 9.28l-.494 2.585h-.75l.64-3.383h1.292l.108 1.886.819-1.886h1.397l-.652 3.383" fill="#006"/><path d="M16.89 11.59a3.212 3.212 0 0 1-.85.111c-.926 0-1.408-.424-1.408-1.234 0-.947.614-1.643 1.447-1.643.682 0 1.118.39 1.118 1.002 0 .203-.03.4-.102.68h-1.647c-.059.395.229.57.719.57.293 0 .558-.054.852-.173l-.13.686zm-.444-1.642c0-.06.092-.485-.385-.494-.263 0-.452.176-.528.494h.913zm1.002-.186c0 .35.196.591.641.771.341.14.395.18.395.306 0 .173-.151.253-.485.25a2.753 2.753 0 0 1-.75-.107l-.12.637c.24.057.577.075.876.082.89 0 1.3-.292 1.3-.925 0-.38-.171-.603-.594-.77-.353-.141-.394-.172-.394-.3 0-.15.14-.227.412-.227.166 0 .392.016.607.042l.12-.641a6.419 6.419 0 0 0-.742-.055c-.943 0-1.27.425-1.266.937m-3.268 1.893h-.691l.017-.29c-.211.229-.492.335-.873.335-.45 0-.76-.309-.76-.754 0-.676.537-1.067 1.46-1.067.095 0 .216.008.34.021a.596.596 0 0 0 .032-.178c0-.186-.145-.254-.533-.254a3.177 3.177 0 0 0-.881.124l.117-.621c.415-.106.687-.147.994-.147.715 0 1.092.281 1.092.81.006.142-.043.424-.067.549-.028.18-.226 1.226-.247 1.472zm-.607-1.234a1.546 1.546 0 0 0-.185-.011c-.471 0-.71.14-.71.418 0 .175.116.284.298.284.339 0 .583-.284.597-.69zm7.188 1.19a2.14 2.14 0 0 1-.594.09c-.424 0-.655-.217-.655-.604-.013-.106.09-.597.114-.734.023-.137.39-2.137.39-2.137h.822l-.124.662h.422l-.115.675h-.423s-.233 1.172-.233 1.261c0 .143.086.204.283.204a.786.786 0 0 0 .223-.025l-.11.608m4.091-1.575c0 .624-.255.993-.657.993-.294.005-.472-.242-.472-.612 0-.438.26-.934.677-.934.337 0 .452.268.452.553zm.888.018c0-.69-.452-1.23-1.303-1.23-.98 0-1.613.655-1.613 1.62 0 .692.373 1.257 1.302 1.257.936 0 1.614-.502 1.614-1.647zm-4.246-1.167c-.105.856-.29 1.724-.434 2.582l-.035.187h.83c.3-1.657.4-2.129 1.028-1.963l.302-.783c-.438-.162-.72.069-.975.396.023-.147.067-.29.056-.419h-.772m-10.008 2.769h-.827l.492-2.6-1.133 2.6h-.754L9.126 9.07l-.493 2.586h-.75l.639-3.383h1.293l.068 2.094.91-2.094h1.345l-.652 3.383" fill="#FFF"/></g></svg>