<svg width="26" height="25" viewBox="0 0 26 25" xmlns="http://www.w3.org/2000/svg"><title>Group 59</title><g fill="none" fill-rule="evenodd"><path d="M23.542 0H2.708A2.09 2.09 0 0 0 .625 2.083v20.834A2.09 2.09 0 0 0 2.708 25h20.834a2.09 2.09 0 0 0 2.083-2.083V2.083A2.09 2.09 0 0 0 23.542 0z" fill="#2CA7E0"/><path d="M20.938 8.216c-.573.265-1.459.584-2.084.69.677-.425 1.302-1.381 1.563-2.125-.521.319-1.094.744-1.667.957l-.417-.426c-.573-.637-1.145-1.062-2.083-1.062-1.77 0-3.125 1.381-3.125 3.188 0 .212 0 .371.052.53h-.052c-3.125 0-5.208-.69-6.77-2.655-.261.478-.522 1.009-.522 1.593 0 1.116.677 2.072 1.563 2.656-.521 0-1.146-.265-1.563-.53 0 1.593 2.188 3.4 3.646 3.718-.52.531-2.396.053-2.604 0 .417 1.275 1.719 2.072 3.125 2.125-1.094.85-2.396 1.328-3.906 1.328-.26 0-.521 0-.782-.053 1.407.903 3.386 1.381 5.209 1.381 5.885 0 8.854-4.728 8.854-9.031v-.531c.625-.478 1.146-1.116 1.563-1.753z" fill="#FFF"/></g></svg>