<svg width="34" height="20" viewBox="0 0 34 20" xmlns="http://www.w3.org/2000/svg"><title>Group 17</title><g fill="none" fill-rule="evenodd"><rect fill="#26337A" width="33.333" height="20" rx="3"/><path fill="#FFFFFE" d="M13.83 13.182l1.025-6.358h1.638l-1.025 6.358H13.83m7.581-6.202a4.05 4.05 0 0 0-1.468-.266c-1.62 0-2.76.862-2.77 2.098-.01.914.814 1.423 1.435 1.727.639.312.853.51.85.79-.004.425-.509.62-.98.62-.656 0-1.004-.096-1.543-.333l-.21-.102-.23 1.424c.382.177 1.09.33 1.825.339 1.722 0 2.84-.853 2.853-2.172.006-.725-.43-1.274-1.376-1.728-.572-.295-.924-.49-.92-.788 0-.264.297-.547.939-.547a2.87 2.87 0 0 1 1.226.244l.147.073.222-1.379m2.181 3.948c.136-.365.653-1.777.653-1.777-.01.017.135-.368.218-.607l.11.549.38 1.835h-1.36zm2.022-4.097h-1.267c-.392 0-.686.112-.858.527l-2.433 5.827h1.72s.281-.784.345-.956l2.098.003c.05.222.2.953.2.953h1.52L25.614 6.83zM12.456 6.83l-1.604 4.334-.172-.88c-.299-1.016-1.229-2.116-2.27-2.668l1.468 5.56h1.734l2.58-6.346h-1.736"/><path d="M9.364 6.825H6.722l-.022.132c2.056.527 3.416 1.798 3.98 3.326l-.574-2.921c-.099-.403-.387-.523-.742-.537" fill="#EC982D"/></g></svg>