<svg width="25" height="25" viewBox="0 0 25 25" xmlns="http://www.w3.org/2000/svg"><title>Group 57</title><g fill="none" fill-rule="evenodd"><path d="M22.917 0H2.083A2.09 2.09 0 0 0 0 2.083v20.834A2.09 2.09 0 0 0 2.083 25h20.834A2.09 2.09 0 0 0 25 22.917V2.083A2.09 2.09 0 0 0 22.917 0z" fill="#54769B"/><path d="M13.023 17.188c.52 0 .52-.73.52-1.042 0-.521.52-1.042 1.04-1.042s1.404.886 2.08 1.563c.52.52.52.52 1.04.52h1.56s1.04-.052 1.04-1.041c0-.313-.364-.886-1.56-2.084-1.04-1.041-1.56-.52 0-2.604.936-1.302 1.664-2.448 1.56-2.76-.104-.313-2.756-.833-3.12-.365-1.04 1.563-1.248 1.927-1.56 2.604-.52 1.042-.572 1.563-1.04 1.563-.468 0-.52-.99-.52-1.563 0-1.718.26-2.916-.52-3.124h-1.56c-.832 0-1.56.52-1.56.52s-.624.521-.52.521c.156 0 1.04-.208 1.04.521v1.042s0 2.083-.52 2.083-1.56-2.083-2.6-3.646c-.416-.625-.52-.52-1.04-.52h-1.56c-.52 0-.572.312-.52.52 1.04 2.604 1.768 4.219 3.744 6.302 1.82 1.875 3.016 1.98 4.056 2.031h.52z" fill="#FFF"/></g></svg>